<?xml version="1.0" encoding="UTF-8" standalone="no"?>
<!DOCTYPE svg PUBLIC "-//W3C//DTD SVG 1.1//EN"
 "http://www.w3.org/Graphics/SVG/1.1/DTD/svg11.dtd">
<!-- Generated by graphviz version 2.38.0 (20140413.2041)
 -->
<!-- Title: callgraph Pages: 1 -->
<svg width="379pt" height="116pt"
 viewBox="0.00 0.00 378.54 116.00" xmlns="http://www.w3.org/2000/svg" xmlns:xlink="http://www.w3.org/1999/xlink">
<g id="graph0" class="graph" transform="scale(1 1) rotate(0) translate(4 112)">
<title>callgraph</title>
<polygon fill="white" stroke="none" points="-4,4 -4,-112 374.54,-112 374.54,4 -4,4"/>
<!-- main -->
<g id="node1" class="node"><title>main</title>
<ellipse fill="none" stroke="black" cx="197.445" cy="-90" rx="28.6953" ry="18"/>
<text text-anchor="middle" x="197.445" y="-86.3" font-family="Times,serif" font-size="14.00">main</text>
</g>
<!-- dumpBinaries -->
<g id="node2" class="node"><title>dumpBinaries</title>
<ellipse fill="none" stroke="black" cx="60.4446" cy="-18" rx="60.3893" ry="18"/>
<text text-anchor="middle" x="60.4446" y="-14.3" font-family="Times,serif" font-size="14.00">dumpBinaries</text>
</g>
<!-- main&#45;&gt;dumpBinaries -->
<g id="edge1" class="edge"><title>main&#45;&gt;dumpBinaries</title>
<path fill="none" stroke="black" d="M176.038,-78.0625C155.418,-67.5268 123.764,-51.3528 98.79,-38.5925"/>
<polygon fill="black" stroke="black" points="100.08,-35.3213 89.5826,-33.888 96.8951,-41.5548 100.08,-35.3213"/>
</g>
<!-- _mm_malloc -->
<g id="node3" class="node"><title>_mm_malloc</title>
<ellipse fill="none" stroke="black" cx="197.445" cy="-18" rx="58.4896" ry="18"/>
<text text-anchor="middle" x="197.445" y="-14.3" font-family="Times,serif" font-size="14.00">_mm_malloc</text>
</g>
<!-- main&#45;&gt;_mm_malloc -->
<g id="edge2" class="edge"><title>main&#45;&gt;_mm_malloc</title>
<path fill="none" stroke="black" d="M197.445,-71.6966C197.445,-63.9827 197.445,-54.7125 197.445,-46.1124"/>
<polygon fill="black" stroke="black" points="200.945,-46.1043 197.445,-36.1043 193.945,-46.1044 200.945,-46.1043"/>
</g>
<!-- _mm_free -->
<g id="node4" class="node"><title>_mm_free</title>
<ellipse fill="none" stroke="black" cx="322.445" cy="-18" rx="48.1917" ry="18"/>
<text text-anchor="middle" x="322.445" y="-14.3" font-family="Times,serif" font-size="14.00">_mm_free</text>
</g>
<!-- main&#45;&gt;_mm_free -->
<g id="edge3" class="edge"><title>main&#45;&gt;_mm_free</title>
<path fill="none" stroke="black" d="M218.086,-77.4409C236.979,-66.8607 265.317,-50.9915 287.697,-38.4585"/>
<polygon fill="black" stroke="black" points="289.553,-41.4306 296.568,-33.4908 286.133,-35.3231 289.553,-41.4306"/>
</g>
</g>
</svg>
