<?xml version="1.0" encoding="UTF-8" standalone="no"?>
<!DOCTYPE svg PUBLIC "-//W3C//DTD SVG 1.1//EN"
 "http://www.w3.org/Graphics/SVG/1.1/DTD/svg11.dtd">
<!-- Generated by graphviz version 2.38.0 (20140413.2041)
 -->
<!-- Title: callgraph Pages: 1 -->
<svg width="379pt" height="116pt"
 viewBox="0.00 0.00 378.94 116.00" xmlns="http://www.w3.org/2000/svg" xmlns:xlink="http://www.w3.org/1999/xlink">
<g id="graph0" class="graph" transform="scale(1 1) rotate(0) translate(4 112)">
<title>callgraph</title>
<polygon fill="white" stroke="none" points="-4,4 -4,-112 374.939,-112 374.939,4 -4,4"/>
<!-- main -->
<g id="node1" class="node"><title>main</title>
<ellipse fill="none" stroke="black" cx="187.445" cy="-90" rx="28.6953" ry="18"/>
<text text-anchor="middle" x="187.445" y="-86.3" font-family="Times,serif" font-size="14.00">main</text>
</g>
<!-- dumpBinaries -->
<g id="node2" class="node"><title>dumpBinaries</title>
<ellipse fill="none" stroke="black" cx="60.4446" cy="-18" rx="60.3893" ry="18"/>
<text text-anchor="middle" x="60.4446" y="-14.3" font-family="Times,serif" font-size="14.00">dumpBinaries</text>
</g>
<!-- main&#45;&gt;dumpBinaries -->
<g id="edge1" class="edge"><title>main&#45;&gt;dumpBinaries</title>
<path fill="none" stroke="black" d="M166.473,-77.4409C147.649,-67.0655 119.597,-51.6038 97.0749,-39.1899"/>
<polygon fill="black" stroke="black" points="98.5665,-36.0156 88.1192,-34.2537 95.1875,-42.1461 98.5665,-36.0156"/>
</g>
<!-- _mm_free -->
<g id="node3" class="node"><title>_mm_free</title>
<ellipse fill="none" stroke="black" cx="187.445" cy="-18" rx="48.1917" ry="18"/>
<text text-anchor="middle" x="187.445" y="-14.3" font-family="Times,serif" font-size="14.00">_mm_free</text>
</g>
<!-- main&#45;&gt;_mm_free -->
<g id="edge2" class="edge"><title>main&#45;&gt;_mm_free</title>
<path fill="none" stroke="black" d="M187.445,-71.6966C187.445,-63.9827 187.445,-54.7125 187.445,-46.1124"/>
<polygon fill="black" stroke="black" points="190.945,-46.1043 187.445,-36.1043 183.945,-46.1044 190.945,-46.1043"/>
</g>
<!-- _mm_malloc -->
<g id="node4" class="node"><title>_mm_malloc</title>
<ellipse fill="none" stroke="black" cx="312.445" cy="-18" rx="58.4896" ry="18"/>
<text text-anchor="middle" x="312.445" y="-14.3" font-family="Times,serif" font-size="14.00">_mm_malloc</text>
</g>
<!-- main&#45;&gt;_mm_malloc -->
<g id="edge3" class="edge"><title>main&#45;&gt;_mm_malloc</title>
<path fill="none" stroke="black" d="M208.086,-77.4409C226.613,-67.0655 254.224,-51.6038 276.391,-39.1899"/>
<polygon fill="black" stroke="black" points="278.191,-42.1936 285.206,-34.2537 274.771,-36.086 278.191,-42.1936"/>
</g>
</g>
</svg>
