<?xml version="1.0" encoding="UTF-8" standalone="no"?>
<!DOCTYPE svg PUBLIC "-//W3C//DTD SVG 1.1//EN"
 "http://www.w3.org/Graphics/SVG/1.1/DTD/svg11.dtd">
<!-- Generated by graphviz version 2.38.0 (20140413.2041)
 -->
<!-- Title: callgraph Pages: 1 -->
<svg width="379pt" height="116pt"
 viewBox="0.00 0.00 378.59 116.00" xmlns="http://www.w3.org/2000/svg" xmlns:xlink="http://www.w3.org/1999/xlink">
<g id="graph0" class="graph" transform="scale(1 1) rotate(0) translate(4 112)">
<title>callgraph</title>
<polygon fill="white" stroke="none" points="-4,4 -4,-112 374.591,-112 374.591,4 -4,4"/>
<!-- main -->
<g id="node1" class="node"><title>main</title>
<ellipse fill="none" stroke="black" cx="175.096" cy="-90" rx="28.6953" ry="18"/>
<text text-anchor="middle" x="175.096" y="-86.3" font-family="Times,serif" font-size="14.00">main</text>
</g>
<!-- _mm_free -->
<g id="node2" class="node"><title>_mm_free</title>
<ellipse fill="none" stroke="black" cx="48.0957" cy="-18" rx="48.1917" ry="18"/>
<text text-anchor="middle" x="48.0957" y="-14.3" font-family="Times,serif" font-size="14.00">_mm_free</text>
</g>
<!-- main&#45;&gt;_mm_free -->
<g id="edge1" class="edge"><title>main&#45;&gt;_mm_free</title>
<path fill="none" stroke="black" d="M154.124,-77.4409C134.805,-66.7925 105.766,-50.7865 82.9597,-38.2164"/>
<polygon fill="black" stroke="black" points="84.3773,-35.0013 73.93,-33.2394 80.9983,-41.1318 84.3773,-35.0013"/>
</g>
<!-- dumpBinaries -->
<g id="node3" class="node"><title>dumpBinaries</title>
<ellipse fill="none" stroke="black" cx="175.096" cy="-18" rx="60.3893" ry="18"/>
<text text-anchor="middle" x="175.096" y="-14.3" font-family="Times,serif" font-size="14.00">dumpBinaries</text>
</g>
<!-- main&#45;&gt;dumpBinaries -->
<g id="edge2" class="edge"><title>main&#45;&gt;dumpBinaries</title>
<path fill="none" stroke="black" d="M175.096,-71.6966C175.096,-63.9827 175.096,-54.7125 175.096,-46.1124"/>
<polygon fill="black" stroke="black" points="178.596,-46.1043 175.096,-36.1043 171.596,-46.1044 178.596,-46.1043"/>
</g>
<!-- _mm_malloc -->
<g id="node4" class="node"><title>_mm_malloc</title>
<ellipse fill="none" stroke="black" cx="312.096" cy="-18" rx="58.4896" ry="18"/>
<text text-anchor="middle" x="312.096" y="-14.3" font-family="Times,serif" font-size="14.00">_mm_malloc</text>
</g>
<!-- main&#45;&gt;_mm_malloc -->
<g id="edge3" class="edge"><title>main&#45;&gt;_mm_malloc</title>
<path fill="none" stroke="black" d="M196.502,-78.0625C217.189,-67.4927 248.982,-51.2481 273.993,-38.4688"/>
<polygon fill="black" stroke="black" points="275.897,-41.4264 283.209,-33.7597 272.712,-35.193 275.897,-41.4264"/>
</g>
</g>
</svg>
