<?xml version="1.0" encoding="UTF-8" standalone="no"?>
<!DOCTYPE svg PUBLIC "-//W3C//DTD SVG 1.1//EN"
 "http://www.w3.org/Graphics/SVG/1.1/DTD/svg11.dtd">
<!-- Generated by graphviz version 2.38.0 (20140413.2041)
 -->
<!-- Title: callgraph Pages: 1 -->
<svg width="379pt" height="116pt"
 viewBox="0.00 0.00 378.59 116.00" xmlns="http://www.w3.org/2000/svg" xmlns:xlink="http://www.w3.org/1999/xlink">
<g id="graph0" class="graph" transform="scale(1 1) rotate(0) translate(4 112)">
<title>callgraph</title>
<polygon fill="white" stroke="none" points="-4,4 -4,-112 374.591,-112 374.591,4 -4,4"/>
<!-- main -->
<g id="node1" class="node"><title>main</title>
<ellipse fill="none" stroke="black" cx="195.495" cy="-90" rx="28.6953" ry="18"/>
<text text-anchor="middle" x="195.495" y="-86.3" font-family="Times,serif" font-size="14.00">main</text>
</g>
<!-- _mm_malloc -->
<g id="node2" class="node"><title>_mm_malloc</title>
<ellipse fill="none" stroke="black" cx="58.4948" cy="-18" rx="58.4896" ry="18"/>
<text text-anchor="middle" x="58.4948" y="-14.3" font-family="Times,serif" font-size="14.00">_mm_malloc</text>
</g>
<!-- main&#45;&gt;_mm_malloc -->
<g id="edge1" class="edge"><title>main&#45;&gt;_mm_malloc</title>
<path fill="none" stroke="black" d="M174.089,-78.0625C153.402,-67.4927 121.609,-51.2481 96.5979,-38.4688"/>
<polygon fill="black" stroke="black" points="97.879,-35.193 87.3816,-33.7597 94.694,-41.4264 97.879,-35.193"/>
</g>
<!-- dumpBinaries -->
<g id="node3" class="node"><title>dumpBinaries</title>
<ellipse fill="none" stroke="black" cx="195.495" cy="-18" rx="60.3893" ry="18"/>
<text text-anchor="middle" x="195.495" y="-14.3" font-family="Times,serif" font-size="14.00">dumpBinaries</text>
</g>
<!-- main&#45;&gt;dumpBinaries -->
<g id="edge2" class="edge"><title>main&#45;&gt;dumpBinaries</title>
<path fill="none" stroke="black" d="M195.495,-71.6966C195.495,-63.9827 195.495,-54.7125 195.495,-46.1124"/>
<polygon fill="black" stroke="black" points="198.995,-46.1043 195.495,-36.1043 191.995,-46.1044 198.995,-46.1043"/>
</g>
<!-- _mm_free -->
<g id="node4" class="node"><title>_mm_free</title>
<ellipse fill="none" stroke="black" cx="322.495" cy="-18" rx="48.1917" ry="18"/>
<text text-anchor="middle" x="322.495" y="-14.3" font-family="Times,serif" font-size="14.00">_mm_free</text>
</g>
<!-- main&#45;&gt;_mm_free -->
<g id="edge3" class="edge"><title>main&#45;&gt;_mm_free</title>
<path fill="none" stroke="black" d="M216.466,-77.4409C235.786,-66.7925 264.825,-50.7865 287.631,-38.2164"/>
<polygon fill="black" stroke="black" points="289.592,-41.1318 296.661,-33.2394 286.213,-35.0013 289.592,-41.1318"/>
</g>
</g>
</svg>
