<?xml version="1.0" encoding="UTF-8" standalone="no"?>
<!DOCTYPE svg PUBLIC "-//W3C//DTD SVG 1.1//EN"
 "http://www.w3.org/Graphics/SVG/1.1/DTD/svg11.dtd">
<!-- Generated by graphviz version 2.38.0 (20140413.2041)
 -->
<!-- Title: callgraph Pages: 1 -->
<svg width="4515pt" height="260pt"
 viewBox="0.00 0.00 4514.89 260.00" xmlns="http://www.w3.org/2000/svg" xmlns:xlink="http://www.w3.org/1999/xlink">
<g id="graph0" class="graph" transform="scale(1 1) rotate(0) translate(4 256)">
<title>callgraph</title>
<polygon fill="white" stroke="none" points="-4,4 -4,-256 4510.89,-256 4510.89,4 -4,4"/>
<!-- intel_batchbuffer_emit_dword -->
<g id="node1" class="node"><title>intel_batchbuffer_emit_dword</title>
<ellipse fill="none" stroke="black" cx="460.742" cy="-90" rx="118.079" ry="18"/>
<text text-anchor="middle" x="460.742" y="-86.3" font-family="Times,serif" font-size="14.00">intel_batchbuffer_emit_dword</text>
</g>
<!-- intel_batchbuffer_space -->
<g id="node2" class="node"><title>intel_batchbuffer_space</title>
<ellipse fill="none" stroke="black" cx="330.742" cy="-18" rx="94.7833" ry="18"/>
<text text-anchor="middle" x="330.742" y="-14.3" font-family="Times,serif" font-size="14.00">intel_batchbuffer_space</text>
</g>
<!-- intel_batchbuffer_emit_dword&#45;&gt;intel_batchbuffer_space -->
<g id="edge1" class="edge"><title>intel_batchbuffer_emit_dword&#45;&gt;intel_batchbuffer_space</title>
<path fill="none" stroke="black" d="M430.263,-72.5881C412.252,-62.89 389.26,-50.5096 369.913,-40.0923"/>
<polygon fill="black" stroke="black" points="371.494,-36.9685 361.03,-35.3091 368.175,-43.1318 371.494,-36.9685"/>
</g>
<!-- i915_perf_add_config -->
<g id="node3" class="node"><title>i915_perf_add_config</title>
<ellipse fill="none" stroke="black" cx="2491.74" cy="-234" rx="89.0842" ry="18"/>
<text text-anchor="middle" x="2491.74" y="-230.3" font-family="Times,serif" font-size="14.00">i915_perf_add_config</text>
</g>
<!-- __i915_perf_add_config -->
<g id="node4" class="node"><title>__i915_perf_add_config</title>
<ellipse fill="none" stroke="black" cx="2491.74" cy="-162" rx="97.4827" ry="18"/>
<text text-anchor="middle" x="2491.74" y="-158.3" font-family="Times,serif" font-size="14.00">__i915_perf_add_config</text>
</g>
<!-- i915_perf_add_config&#45;&gt;__i915_perf_add_config -->
<g id="edge2" class="edge"><title>i915_perf_add_config&#45;&gt;__i915_perf_add_config</title>
<path fill="none" stroke="black" d="M2491.74,-215.697C2491.74,-207.983 2491.74,-198.712 2491.74,-190.112"/>
<polygon fill="black" stroke="black" points="2495.24,-190.104 2491.74,-180.104 2488.24,-190.104 2495.24,-190.104"/>
</g>
<!-- read_counters_mmio -->
<g id="node5" class="node"><title>read_counters_mmio</title>
<ellipse fill="none" stroke="black" cx="972.742" cy="-234" rx="85.5853" ry="18"/>
<text text-anchor="middle" x="972.742" y="-230.3" font-family="Times,serif" font-size="14.00">read_counters_mmio</text>
</g>
<!-- read_tsc_start -->
<g id="node6" class="node"><title>read_tsc_start</title>
<ellipse fill="none" stroke="black" cx="1456.74" cy="-162" rx="59.5901" ry="18"/>
<text text-anchor="middle" x="1456.74" y="-158.3" font-family="Times,serif" font-size="14.00">read_tsc_start</text>
</g>
<!-- read_counters_mmio&#45;&gt;read_tsc_start -->
<g id="edge3" class="edge"><title>read_counters_mmio&#45;&gt;read_tsc_start</title>
<path fill="none" stroke="black" d="M1049.64,-225.843C1133.26,-217.441 1270.64,-201.829 1387.74,-180 1392.84,-179.049 1398.13,-177.952 1403.4,-176.783"/>
<polygon fill="black" stroke="black" points="1404.51,-180.118 1413.47,-174.464 1402.94,-173.297 1404.51,-180.118"/>
</g>
<!-- scratch_buf_init -->
<g id="node7" class="node"><title>scratch_buf_init</title>
<ellipse fill="none" stroke="black" cx="972.742" cy="-162" rx="67.6881" ry="18"/>
<text text-anchor="middle" x="972.742" y="-158.3" font-family="Times,serif" font-size="14.00">scratch_buf_init</text>
</g>
<!-- read_counters_mmio&#45;&gt;scratch_buf_init -->
<g id="edge4" class="edge"><title>read_counters_mmio&#45;&gt;scratch_buf_init</title>
<path fill="none" stroke="black" d="M972.742,-215.697C972.742,-207.983 972.742,-198.712 972.742,-190.112"/>
<polygon fill="black" stroke="black" points="976.242,-190.104 972.742,-180.104 969.242,-190.104 976.242,-190.104"/>
</g>
<!-- scratch_buf_memset -->
<g id="node8" class="node"><title>scratch_buf_memset</title>
<ellipse fill="none" stroke="black" cx="951.742" cy="-90" rx="84.485" ry="18"/>
<text text-anchor="middle" x="951.742" y="-86.3" font-family="Times,serif" font-size="14.00">scratch_buf_memset</text>
</g>
<!-- read_counters_mmio&#45;&gt;scratch_buf_memset -->
<g id="edge5" class="edge"><title>read_counters_mmio&#45;&gt;scratch_buf_memset</title>
<path fill="none" stroke="black" d="M901.358,-223.891C848.98,-215.57 784.228,-201.29 767.742,-180 757.946,-167.349 758.12,-156.784 767.742,-144 775.168,-134.133 835.966,-117.864 885.675,-105.949"/>
<polygon fill="black" stroke="black" points="886.529,-109.344 895.449,-103.628 884.911,-102.533 886.529,-109.344"/>
</g>
<!-- __perf_open -->
<g id="node9" class="node"><title>__perf_open</title>
<ellipse fill="none" stroke="black" cx="831.742" cy="-162" rx="55.4913" ry="18"/>
<text text-anchor="middle" x="831.742" y="-158.3" font-family="Times,serif" font-size="14.00">__perf_open</text>
</g>
<!-- read_counters_mmio&#45;&gt;__perf_open -->
<g id="edge6" class="edge"><title>read_counters_mmio&#45;&gt;__perf_open</title>
<path fill="none" stroke="black" d="M940.747,-217.116C919.703,-206.668 892.056,-192.943 869.871,-181.929"/>
<polygon fill="black" stroke="black" points="871.246,-178.705 860.733,-177.393 868.133,-184.974 871.246,-178.705"/>
</g>
<!-- read_tsc_end -->
<g id="node10" class="node"><title>read_tsc_end</title>
<ellipse fill="none" stroke="black" cx="1115.74" cy="-162" rx="57.3905" ry="18"/>
<text text-anchor="middle" x="1115.74" y="-158.3" font-family="Times,serif" font-size="14.00">read_tsc_end</text>
</g>
<!-- read_counters_mmio&#45;&gt;read_tsc_end -->
<g id="edge7" class="edge"><title>read_counters_mmio&#45;&gt;read_tsc_end</title>
<path fill="none" stroke="black" d="M1004.83,-217.291C1026.26,-206.804 1054.54,-192.957 1077.19,-181.873"/>
<polygon fill="black" stroke="black" points="1078.75,-185.004 1086.19,-177.464 1075.67,-178.717 1078.75,-185.004"/>
</g>
<!-- read_u64_file -->
<g id="node11" class="node"><title>read_u64_file</title>
<ellipse fill="none" stroke="black" cx="1594.74" cy="-162" rx="59.5901" ry="18"/>
<text text-anchor="middle" x="1594.74" y="-158.3" font-family="Times,serif" font-size="14.00">read_u64_file</text>
</g>
<!-- read_counters_mmio&#45;&gt;read_u64_file -->
<g id="edge8" class="edge"><title>read_counters_mmio&#45;&gt;read_u64_file</title>
<path fill="none" stroke="black" d="M1049.43,-225.796C1198.55,-211.767 1514.14,-181.974 1525.74,-180 1531.06,-179.094 1536.58,-178.002 1542.07,-176.813"/>
<polygon fill="black" stroke="black" points="1542.9,-180.213 1551.88,-174.587 1541.35,-173.387 1542.9,-180.213"/>
</g>
<!-- __perf_close -->
<g id="node12" class="node"><title>__perf_close</title>
<ellipse fill="none" stroke="black" cx="793.742" cy="-90" rx="55.7903" ry="18"/>
<text text-anchor="middle" x="793.742" y="-86.3" font-family="Times,serif" font-size="14.00">__perf_close</text>
</g>
<!-- read_counters_mmio&#45;&gt;__perf_close -->
<g id="edge9" class="edge"><title>read_counters_mmio&#45;&gt;__perf_close</title>
<path fill="none" stroke="black" d="M899.263,-224.665C843.813,-216.684 774.375,-202.483 756.742,-180 741.629,-160.731 755.886,-134.408 770.873,-115.393"/>
<polygon fill="black" stroke="black" points="773.759,-117.398 777.481,-107.478 768.386,-112.911 773.759,-117.398"/>
</g>
<!-- scratch_buf_init&#45;&gt;scratch_buf_memset -->
<g id="edge10" class="edge"><title>scratch_buf_init&#45;&gt;scratch_buf_memset</title>
<path fill="none" stroke="black" d="M967.551,-143.697C965.211,-135.898 962.394,-126.509 959.791,-117.829"/>
<polygon fill="black" stroke="black" points="963.099,-116.677 956.873,-108.104 956.394,-118.688 963.099,-116.677"/>
</g>
<!-- __perf_open&#45;&gt;__perf_close -->
<g id="edge36" class="edge"><title>__perf_open&#45;&gt;__perf_close</title>
<path fill="none" stroke="black" d="M822.543,-144.055C818.109,-135.887 812.694,-125.912 807.761,-116.824"/>
<polygon fill="black" stroke="black" points="810.703,-114.908 802.856,-107.789 804.551,-118.247 810.703,-114.908"/>
</g>
<!-- send_mi_store_reg_mem -->
<g id="node13" class="node"><title>send_mi_store_reg_mem</title>
<ellipse fill="none" stroke="black" cx="543.742" cy="-162" rx="100.983" ry="18"/>
<text text-anchor="middle" x="543.742" y="-158.3" font-family="Times,serif" font-size="14.00">send_mi_store_reg_mem</text>
</g>
<!-- send_mi_store_reg_mem&#45;&gt;intel_batchbuffer_emit_dword -->
<g id="edge11" class="edge"><title>send_mi_store_reg_mem&#45;&gt;intel_batchbuffer_emit_dword</title>
<path fill="none" stroke="black" d="M523.65,-144.055C513.047,-135.113 499.877,-124.005 488.331,-114.268"/>
<polygon fill="black" stroke="black" points="490.55,-111.561 480.649,-107.789 486.037,-116.912 490.55,-111.561"/>
</g>
<!-- intel_batchbuffer_require_space -->
<g id="node14" class="node"><title>intel_batchbuffer_require_space</title>
<ellipse fill="none" stroke="black" cx="200.742" cy="-90" rx="124.278" ry="18"/>
<text text-anchor="middle" x="200.742" y="-86.3" font-family="Times,serif" font-size="14.00">intel_batchbuffer_require_space</text>
</g>
<!-- send_mi_store_reg_mem&#45;&gt;intel_batchbuffer_require_space -->
<g id="edge12" class="edge"><title>send_mi_store_reg_mem&#45;&gt;intel_batchbuffer_require_space</title>
<path fill="none" stroke="black" d="M480.03,-147.998C423.322,-136.425 340.174,-119.455 279.35,-107.042"/>
<polygon fill="black" stroke="black" points="279.905,-103.584 269.407,-105.013 278.506,-110.442 279.905,-103.584"/>
</g>
<!-- intel_batchbuffer_require_space&#45;&gt;intel_batchbuffer_space -->
<g id="edge43" class="edge"><title>intel_batchbuffer_require_space&#45;&gt;intel_batchbuffer_space</title>
<path fill="none" stroke="black" d="M231.55,-72.411C249.57,-62.7082 272.49,-50.3664 291.758,-39.9915"/>
<polygon fill="black" stroke="black" points="293.458,-43.0512 300.603,-35.2285 290.139,-36.8879 293.458,-43.0512"/>
</g>
<!-- max_oa_exponent_for_period_lte -->
<g id="node15" class="node"><title>max_oa_exponent_for_period_lte</title>
<ellipse fill="none" stroke="black" cx="2246.74" cy="-162" rx="129.977" ry="18"/>
<text text-anchor="middle" x="2246.74" y="-158.3" font-family="Times,serif" font-size="14.00">max_oa_exponent_for_period_lte</text>
</g>
<!-- timebase_scale -->
<g id="node16" class="node"><title>timebase_scale</title>
<ellipse fill="none" stroke="black" cx="2246.74" cy="-90" rx="64.189" ry="18"/>
<text text-anchor="middle" x="2246.74" y="-86.3" font-family="Times,serif" font-size="14.00">timebase_scale</text>
</g>
<!-- max_oa_exponent_for_period_lte&#45;&gt;timebase_scale -->
<g id="edge13" class="edge"><title>max_oa_exponent_for_period_lte&#45;&gt;timebase_scale</title>
<path fill="none" stroke="black" d="M2246.74,-143.697C2246.74,-135.983 2246.74,-126.712 2246.74,-118.112"/>
<polygon fill="black" stroke="black" points="2250.24,-118.104 2246.74,-108.104 2243.24,-118.104 2250.24,-118.104"/>
</g>
<!-- send_mi_load_reg_mem -->
<g id="node17" class="node"><title>send_mi_load_reg_mem</title>
<ellipse fill="none" stroke="black" cx="117.742" cy="-162" rx="98.5829" ry="18"/>
<text text-anchor="middle" x="117.742" y="-158.3" font-family="Times,serif" font-size="14.00">send_mi_load_reg_mem</text>
</g>
<!-- send_mi_load_reg_mem&#45;&gt;intel_batchbuffer_emit_dword -->
<g id="edge15" class="edge"><title>send_mi_load_reg_mem&#45;&gt;intel_batchbuffer_emit_dword</title>
<path fill="none" stroke="black" d="M181.053,-148.079C238.079,-136.441 322.078,-119.299 383.13,-106.839"/>
<polygon fill="black" stroke="black" points="384.007,-110.232 393.105,-104.803 382.607,-103.374 384.007,-110.232"/>
</g>
<!-- send_mi_load_reg_mem&#45;&gt;intel_batchbuffer_require_space -->
<g id="edge14" class="edge"><title>send_mi_load_reg_mem&#45;&gt;intel_batchbuffer_require_space</title>
<path fill="none" stroke="black" d="M137.834,-144.055C148.437,-135.113 161.607,-124.005 173.153,-114.268"/>
<polygon fill="black" stroke="black" points="175.447,-116.912 180.835,-107.789 170.934,-111.561 175.447,-116.912"/>
</g>
<!-- measure_overheads -->
<g id="node18" class="node"><title>measure_overheads</title>
<ellipse fill="none" stroke="black" cx="1831.74" cy="-234" rx="80.6858" ry="18"/>
<text text-anchor="middle" x="1831.74" y="-230.3" font-family="Times,serif" font-size="14.00">measure_overheads</text>
</g>
<!-- measure_overheads&#45;&gt;read_tsc_start -->
<g id="edge16" class="edge"><title>measure_overheads&#45;&gt;read_tsc_start</title>
<path fill="none" stroke="black" d="M1767.02,-223.14C1704.91,-213.36 1608.59,-197.359 1525.74,-180 1520.81,-178.967 1515.7,-177.831 1510.59,-176.651"/>
<polygon fill="black" stroke="black" points="1511.34,-173.234 1500.81,-174.344 1509.74,-180.047 1511.34,-173.234"/>
</g>
<!-- measure_overheads&#45;&gt;read_tsc_end -->
<g id="edge20" class="edge"><title>measure_overheads&#45;&gt;read_tsc_end</title>
<path fill="none" stroke="black" d="M1757.83,-226.82C1648.47,-217.529 1437.13,-199.016 1257.74,-180 1231.59,-177.228 1202.78,-173.84 1177.97,-170.82"/>
<polygon fill="black" stroke="black" points="1178.32,-167.336 1167.97,-169.595 1177.47,-174.285 1178.32,-167.336"/>
</g>
<!-- umin -->
<g id="node19" class="node"><title>umin</title>
<ellipse fill="none" stroke="black" cx="1894.74" cy="-162" rx="29.4969" ry="18"/>
<text text-anchor="middle" x="1894.74" y="-158.3" font-family="Times,serif" font-size="14.00">umin</text>
</g>
<!-- measure_overheads&#45;&gt;umin -->
<g id="edge17" class="edge"><title>measure_overheads&#45;&gt;umin</title>
<path fill="none" stroke="black" d="M1846.99,-216.055C1855.15,-206.988 1865.32,-195.694 1874.17,-185.86"/>
<polygon fill="black" stroke="black" points="1876.83,-188.131 1880.92,-178.356 1871.63,-183.448 1876.83,-188.131"/>
</g>
<!-- average -->
<g id="node20" class="node"><title>average</title>
<ellipse fill="none" stroke="black" cx="1980.74" cy="-162" rx="38.1938" ry="18"/>
<text text-anchor="middle" x="1980.74" y="-158.3" font-family="Times,serif" font-size="14.00">average</text>
</g>
<!-- measure_overheads&#45;&gt;average -->
<g id="edge18" class="edge"><title>measure_overheads&#45;&gt;average</title>
<path fill="none" stroke="black" d="M1864.81,-217.465C1888.73,-206.228 1921,-191.067 1945.42,-179.594"/>
<polygon fill="black" stroke="black" points="1947.13,-182.658 1954.69,-175.238 1944.15,-176.322 1947.13,-182.658"/>
</g>
<!-- umax -->
<g id="node21" class="node"><title>umax</title>
<ellipse fill="none" stroke="black" cx="2067.74" cy="-162" rx="30.5947" ry="18"/>
<text text-anchor="middle" x="2067.74" y="-158.3" font-family="Times,serif" font-size="14.00">umax</text>
</g>
<!-- measure_overheads&#45;&gt;umax -->
<g id="edge19" class="edge"><title>measure_overheads&#45;&gt;umax</title>
<path fill="none" stroke="black" d="M1885.59,-220.564C1925.31,-210.878 1980.44,-196.361 2027.74,-180 2030.11,-179.18 2032.54,-178.286 2034.98,-177.352"/>
<polygon fill="black" stroke="black" points="2036.29,-180.595 2044.26,-173.615 2033.68,-174.101 2036.29,-180.595"/>
</g>
<!-- median -->
<g id="node22" class="node"><title>median</title>
<ellipse fill="none" stroke="black" cx="1810.74" cy="-162" rx="37.0935" ry="18"/>
<text text-anchor="middle" x="1810.74" y="-158.3" font-family="Times,serif" font-size="14.00">median</text>
</g>
<!-- measure_overheads&#45;&gt;median -->
<g id="edge21" class="edge"><title>measure_overheads&#45;&gt;median</title>
<path fill="none" stroke="black" d="M1826.55,-215.697C1824.21,-207.898 1821.39,-198.509 1818.79,-189.829"/>
<polygon fill="black" stroke="black" points="1822.1,-188.677 1815.87,-180.104 1815.39,-190.688 1822.1,-188.677"/>
</g>
<!-- max_oa_exponent_for_freq_gt -->
<g id="node23" class="node"><title>max_oa_exponent_for_freq_gt</title>
<ellipse fill="none" stroke="black" cx="2246.74" cy="-234" rx="120.479" ry="18"/>
<text text-anchor="middle" x="2246.74" y="-230.3" font-family="Times,serif" font-size="14.00">max_oa_exponent_for_freq_gt</text>
</g>
<!-- max_oa_exponent_for_freq_gt&#45;&gt;max_oa_exponent_for_period_lte -->
<g id="edge22" class="edge"><title>max_oa_exponent_for_freq_gt&#45;&gt;max_oa_exponent_for_period_lte</title>
<path fill="none" stroke="black" d="M2246.74,-215.697C2246.74,-207.983 2246.74,-198.712 2246.74,-190.112"/>
<polygon fill="black" stroke="black" points="2250.24,-190.104 2246.74,-180.104 2243.24,-190.104 2250.24,-190.104"/>
</g>
<!-- emit_report_perf_count -->
<g id="node24" class="node"><title>emit_report_perf_count</title>
<ellipse fill="none" stroke="black" cx="329.742" cy="-162" rx="94.7833" ry="18"/>
<text text-anchor="middle" x="329.742" y="-158.3" font-family="Times,serif" font-size="14.00">emit_report_perf_count</text>
</g>
<!-- emit_report_perf_count&#45;&gt;intel_batchbuffer_emit_dword -->
<g id="edge23" class="edge"><title>emit_report_perf_count&#45;&gt;intel_batchbuffer_emit_dword</title>
<path fill="none" stroke="black" d="M360.125,-144.765C378.265,-135.072 401.506,-122.653 421.08,-112.193"/>
<polygon fill="black" stroke="black" points="422.899,-115.19 430.07,-107.39 419.6,-109.016 422.899,-115.19"/>
</g>
<!-- emit_report_perf_count&#45;&gt;intel_batchbuffer_require_space -->
<g id="edge24" class="edge"><title>emit_report_perf_count&#45;&gt;intel_batchbuffer_require_space</title>
<path fill="none" stroke="black" d="M299.822,-144.765C282.088,-135.142 259.403,-122.832 240.215,-112.419"/>
<polygon fill="black" stroke="black" points="241.854,-109.327 231.395,-107.633 238.515,-115.479 241.854,-109.327"/>
</g>
<!-- read_counters_rpc -->
<g id="node25" class="node"><title>read_counters_rpc</title>
<ellipse fill="none" stroke="black" cx="1238.74" cy="-234" rx="75.2868" ry="18"/>
<text text-anchor="middle" x="1238.74" y="-230.3" font-family="Times,serif" font-size="14.00">read_counters_rpc</text>
</g>
<!-- read_counters_rpc&#45;&gt;read_tsc_start -->
<g id="edge34" class="edge"><title>read_counters_rpc&#45;&gt;read_tsc_start</title>
<path fill="none" stroke="black" d="M1281.81,-219.17C1318.03,-207.539 1369.82,-190.912 1407.64,-178.766"/>
<polygon fill="black" stroke="black" points="1408.97,-182.014 1417.43,-175.625 1406.83,-175.349 1408.97,-182.014"/>
</g>
<!-- read_counters_rpc&#45;&gt;scratch_buf_init -->
<g id="edge25" class="edge"><title>read_counters_rpc&#45;&gt;scratch_buf_init</title>
<path fill="none" stroke="black" d="M1189.95,-220.161C1144.45,-208.185 1076.59,-190.329 1028.86,-177.768"/>
<polygon fill="black" stroke="black" points="1029.56,-174.332 1018.99,-175.172 1027.77,-181.102 1029.56,-174.332"/>
</g>
<!-- read_counters_rpc&#45;&gt;scratch_buf_memset -->
<g id="edge26" class="edge"><title>read_counters_rpc&#45;&gt;scratch_buf_memset</title>
<path fill="none" stroke="black" d="M1239.16,-215.916C1238.66,-195.748 1234.59,-162.607 1214.74,-144 1211.18,-140.666 1099.72,-119.01 1023.06,-104.432"/>
<polygon fill="black" stroke="black" points="1023.43,-100.941 1012.95,-102.514 1022.12,-107.818 1023.43,-100.941"/>
</g>
<!-- read_counters_rpc&#45;&gt;__perf_open -->
<g id="edge27" class="edge"><title>read_counters_rpc&#45;&gt;__perf_open</title>
<path fill="none" stroke="black" d="M1173.25,-224.987C1103.95,-216.018 991.577,-200.073 895.742,-180 891.318,-179.073 886.744,-178.031 882.17,-176.929"/>
<polygon fill="black" stroke="black" points="882.764,-173.47 872.214,-174.446 881.07,-180.262 882.764,-173.47"/>
</g>
<!-- read_counters_rpc&#45;&gt;read_tsc_end -->
<g id="edge33" class="edge"><title>read_counters_rpc&#45;&gt;read_tsc_end</title>
<path fill="none" stroke="black" d="M1210.83,-217.116C1193.17,-207.063 1170.17,-193.975 1151.22,-183.188"/>
<polygon fill="black" stroke="black" points="1152.7,-180.006 1142.28,-178.101 1149.24,-186.09 1152.7,-180.006"/>
</g>
<!-- read_counters_rpc&#45;&gt;read_u64_file -->
<g id="edge29" class="edge"><title>read_counters_rpc&#45;&gt;read_u64_file</title>
<path fill="none" stroke="black" d="M1298.59,-223.007C1356.79,-213.04 1447.6,-196.825 1525.74,-180 1530.67,-178.94 1535.77,-177.785 1540.88,-176.593"/>
<polygon fill="black" stroke="black" points="1541.74,-179.987 1550.66,-174.271 1540.12,-173.177 1541.74,-179.987"/>
</g>
<!-- read_counters_rpc&#45;&gt;__perf_close -->
<g id="edge30" class="edge"><title>read_counters_rpc&#45;&gt;__perf_close</title>
<path fill="none" stroke="black" d="M1230.16,-216.041C1218,-192.727 1195.69,-152.669 1181.74,-144 1120.4,-105.877 929.753,-121.172 858.742,-108 853.975,-107.116 849.043,-106.071 844.125,-104.94"/>
<polygon fill="black" stroke="black" points="844.648,-101.466 834.106,-102.524 843.007,-108.271 844.648,-101.466"/>
</g>
<!-- read_counters_rpc&#45;&gt;median -->
<g id="edge31" class="edge"><title>read_counters_rpc&#45;&gt;median</title>
<path fill="none" stroke="black" d="M1313.75,-231.398C1416.68,-227.858 1606.91,-216.491 1764.74,-180 1767.72,-179.313 1770.76,-178.484 1773.79,-177.568"/>
<polygon fill="black" stroke="black" points="1774.96,-180.868 1783.36,-174.408 1772.77,-174.221 1774.96,-180.868"/>
</g>
<!-- read_counters_rpc&#45;&gt;emit_report_perf_count -->
<g id="edge28" class="edge"><title>read_counters_rpc&#45;&gt;emit_report_perf_count</title>
<path fill="none" stroke="black" d="M1171.8,-225.682C1140.26,-222.404 1102.1,-218.682 1067.74,-216 786.366,-194.035 714.287,-210.808 433.742,-180 424.794,-179.017 415.444,-177.785 406.176,-176.434"/>
<polygon fill="black" stroke="black" points="406.585,-172.956 396.176,-174.928 405.543,-179.878 406.585,-172.956"/>
</g>
<!-- umedian -->
<g id="node26" class="node"><title>umedian</title>
<ellipse fill="none" stroke="black" cx="1713.74" cy="-162" rx="41.6928" ry="18"/>
<text text-anchor="middle" x="1713.74" y="-158.3" font-family="Times,serif" font-size="14.00">umedian</text>
</g>
<!-- read_counters_rpc&#45;&gt;umedian -->
<g id="edge32" class="edge"><title>read_counters_rpc&#45;&gt;umedian</title>
<path fill="none" stroke="black" d="M1310.58,-228.521C1395.72,-222.187 1541.45,-208.105 1663.74,-180 1666.96,-179.261 1670.26,-178.393 1673.56,-177.448"/>
<polygon fill="black" stroke="black" points="1674.83,-180.719 1683.35,-174.431 1672.77,-174.03 1674.83,-180.719"/>
</g>
<!-- print_reports -->
<g id="node27" class="node"><title>print_reports</title>
<ellipse fill="none" stroke="black" cx="1322.74" cy="-162" rx="55.7903" ry="18"/>
<text text-anchor="middle" x="1322.74" y="-158.3" font-family="Times,serif" font-size="14.00">print_reports</text>
</g>
<!-- read_counters_rpc&#45;&gt;print_reports -->
<g id="edge35" class="edge"><title>read_counters_rpc&#45;&gt;print_reports</title>
<path fill="none" stroke="black" d="M1258.65,-216.411C1269.69,-207.213 1283.57,-195.644 1295.59,-185.627"/>
<polygon fill="black" stroke="black" points="1298.11,-188.079 1303.56,-178.988 1293.63,-182.701 1298.11,-188.079"/>
</g>
<!-- get_oa_format -->
<g id="node31" class="node"><title>get_oa_format</title>
<ellipse fill="none" stroke="black" cx="1837.74" cy="-18" rx="62.2891" ry="18"/>
<text text-anchor="middle" x="1837.74" y="-14.3" font-family="Times,serif" font-size="14.00">get_oa_format</text>
</g>
<!-- print_reports&#45;&gt;get_oa_format -->
<g id="edge46" class="edge"><title>print_reports&#45;&gt;get_oa_format</title>
<path fill="none" stroke="black" d="M1320.98,-143.704C1319.96,-123.328 1321.79,-89.9808 1341.74,-72 1372.63,-44.165 1636.32,-28.2654 1766.13,-22.0588"/>
<polygon fill="black" stroke="black" points="1766.55,-25.5429 1776.38,-21.5758 1766.22,-18.5507 1766.55,-25.5429"/>
</g>
<!-- gen8_read_report_clock_ratios -->
<g id="node32" class="node"><title>gen8_read_report_clock_ratios</title>
<ellipse fill="none" stroke="black" cx="1174.74" cy="-90" rx="120.479" ry="18"/>
<text text-anchor="middle" x="1174.74" y="-86.3" font-family="Times,serif" font-size="14.00">gen8_read_report_clock_ratios</text>
</g>
<!-- print_reports&#45;&gt;gen8_read_report_clock_ratios -->
<g id="edge44" class="edge"><title>print_reports&#45;&gt;gen8_read_report_clock_ratios</title>
<path fill="none" stroke="black" d="M1292.43,-146.666C1271.08,-136.566 1242.17,-122.891 1218.34,-111.622"/>
<polygon fill="black" stroke="black" points="1219.69,-108.388 1209.15,-107.276 1216.7,-114.716 1219.69,-108.388"/>
</g>
<!-- gen8_40bit_a_delta -->
<g id="node33" class="node"><title>gen8_40bit_a_delta</title>
<ellipse fill="none" stroke="black" cx="1430.74" cy="-90" rx="79.8859" ry="18"/>
<text text-anchor="middle" x="1430.74" y="-86.3" font-family="Times,serif" font-size="14.00">gen8_40bit_a_delta</text>
</g>
<!-- print_reports&#45;&gt;gen8_40bit_a_delta -->
<g id="edge45" class="edge"><title>print_reports&#45;&gt;gen8_40bit_a_delta</title>
<path fill="none" stroke="black" d="M1346.44,-145.638C1361.22,-136.062 1380.47,-123.587 1396.84,-112.974"/>
<polygon fill="black" stroke="black" points="1399.1,-115.677 1405.59,-107.301 1395.3,-109.803 1399.1,-115.677"/>
</g>
<!-- gen8_read_40bit_a_counter -->
<g id="node34" class="node"><title>gen8_read_40bit_a_counter</title>
<ellipse fill="none" stroke="black" cx="2055.74" cy="-90" rx="108.581" ry="18"/>
<text text-anchor="middle" x="2055.74" y="-86.3" font-family="Times,serif" font-size="14.00">gen8_read_40bit_a_counter</text>
</g>
<!-- print_reports&#45;&gt;gen8_read_40bit_a_counter -->
<g id="edge47" class="edge"><title>print_reports&#45;&gt;gen8_read_40bit_a_counter</title>
<path fill="none" stroke="black" d="M1362.71,-149.272C1370.93,-147.222 1379.57,-145.324 1387.74,-144 1629.56,-104.831 1694.1,-133.485 1937.74,-108 1948.04,-106.923 1958.81,-105.618 1969.49,-104.215"/>
<polygon fill="black" stroke="black" points="1970.24,-107.647 1979.68,-102.844 1969.3,-100.709 1970.24,-107.647"/>
</g>
<!-- gen8_read_report_reason -->
<g id="node35" class="node"><title>gen8_read_report_reason</title>
<ellipse fill="none" stroke="black" cx="1628.74" cy="-90" rx="100.182" ry="18"/>
<text text-anchor="middle" x="1628.74" y="-86.3" font-family="Times,serif" font-size="14.00">gen8_read_report_reason</text>
</g>
<!-- print_reports&#45;&gt;gen8_read_report_reason -->
<g id="edge48" class="edge"><title>print_reports&#45;&gt;gen8_read_report_reason</title>
<path fill="none" stroke="black" d="M1364.29,-149.873C1372.07,-147.864 1380.14,-145.828 1387.74,-144 1444.13,-130.432 1508.27,-116.394 1556.2,-106.176"/>
<polygon fill="black" stroke="black" points="1557.12,-109.559 1566.17,-104.055 1555.66,-102.712 1557.12,-109.559"/>
</g>
<!-- emit_stall_timestamp_and_rpc -->
<g id="node28" class="node"><title>emit_stall_timestamp_and_rpc</title>
<ellipse fill="none" stroke="black" cx="329.742" cy="-234" rx="120.479" ry="18"/>
<text text-anchor="middle" x="329.742" y="-230.3" font-family="Times,serif" font-size="14.00">emit_stall_timestamp_and_rpc</text>
</g>
<!-- emit_stall_timestamp_and_rpc&#45;&gt;intel_batchbuffer_emit_dword -->
<g id="edge38" class="edge"><title>emit_stall_timestamp_and_rpc&#45;&gt;intel_batchbuffer_emit_dword</title>
<path fill="none" stroke="black" d="M446.266,-229.4C527.975,-224.134 627.169,-211.273 653.742,-180 688.1,-139.564 622.955,-116.473 559.255,-104"/>
<polygon fill="black" stroke="black" points="559.533,-100.491 549.06,-102.088 558.243,-107.371 559.533,-100.491"/>
</g>
<!-- emit_stall_timestamp_and_rpc&#45;&gt;intel_batchbuffer_require_space -->
<g id="edge37" class="edge"><title>emit_stall_timestamp_and_rpc&#45;&gt;intel_batchbuffer_require_space</title>
<path fill="none" stroke="black" d="M213.802,-229.143C133.257,-223.738 35.8737,-210.816 9.74188,-180 -24.0027,-140.207 39.1325,-117.129 101.676,-104.492"/>
<polygon fill="black" stroke="black" points="102.541,-107.89 111.693,-102.553 101.21,-101.018 102.541,-107.89"/>
</g>
<!-- emit_stall_timestamp_and_rpc&#45;&gt;emit_report_perf_count -->
<g id="edge39" class="edge"><title>emit_stall_timestamp_and_rpc&#45;&gt;emit_report_perf_count</title>
<path fill="none" stroke="black" d="M329.742,-215.697C329.742,-207.983 329.742,-198.712 329.742,-190.112"/>
<polygon fill="black" stroke="black" points="333.242,-190.104 329.742,-180.104 326.242,-190.104 333.242,-190.104"/>
</g>
<!-- init_sys_info -->
<g id="node29" class="node"><title>init_sys_info</title>
<ellipse fill="none" stroke="black" cx="2029.74" cy="-234" rx="56.59" ry="18"/>
<text text-anchor="middle" x="2029.74" y="-230.3" font-family="Times,serif" font-size="14.00">init_sys_info</text>
</g>
<!-- init_sys_info&#45;&gt;read_u64_file -->
<g id="edge41" class="edge"><title>init_sys_info&#45;&gt;read_u64_file</title>
<path fill="none" stroke="black" d="M1980.58,-225.07C1962.13,-222.145 1940.99,-218.852 1921.74,-216 1806.78,-198.964 1776.83,-202.125 1662.74,-180 1657.99,-179.078 1653.07,-178.033 1648.16,-176.924"/>
<polygon fill="black" stroke="black" points="1648.65,-173.446 1638.12,-174.578 1647.06,-180.262 1648.65,-173.446"/>
</g>
<!-- init_sys_info&#45;&gt;max_oa_exponent_for_period_lte -->
<g id="edge40" class="edge"><title>init_sys_info&#45;&gt;max_oa_exponent_for_period_lte</title>
<path fill="none" stroke="black" d="M2068.04,-220.647C2101.21,-209.946 2149.73,-194.296 2187.84,-182.001"/>
<polygon fill="black" stroke="black" points="2189.35,-185.193 2197.79,-178.792 2187.2,-178.531 2189.35,-185.193"/>
</g>
<!-- hsw_read_report_ticks -->
<g id="node30" class="node"><title>hsw_read_report_ticks</title>
<ellipse fill="none" stroke="black" cx="1837.74" cy="-90" rx="90.9839" ry="18"/>
<text text-anchor="middle" x="1837.74" y="-86.3" font-family="Times,serif" font-size="14.00">hsw_read_report_ticks</text>
</g>
<!-- hsw_read_report_ticks&#45;&gt;get_oa_format -->
<g id="edge42" class="edge"><title>hsw_read_report_ticks&#45;&gt;get_oa_format</title>
<path fill="none" stroke="black" d="M1837.74,-71.6966C1837.74,-63.9827 1837.74,-54.7125 1837.74,-46.1124"/>
<polygon fill="black" stroke="black" points="1841.24,-46.1043 1837.74,-36.1043 1834.24,-46.1044 1841.24,-46.1043"/>
</g>
<!-- gen8_read_40bit_a_counter&#45;&gt;get_oa_format -->
<g id="edge49" class="edge"><title>gen8_read_40bit_a_counter&#45;&gt;get_oa_format</title>
<path fill="none" stroke="black" d="M2008.17,-73.7247C1972.56,-62.2889 1923.95,-46.6819 1887.76,-35.0609"/>
<polygon fill="black" stroke="black" points="1888.49,-31.6205 1877.9,-31.8956 1886.35,-38.2854 1888.49,-31.6205"/>
</g>
<!-- oa_exponent_to_ns -->
<g id="node36" class="node"><title>oa_exponent_to_ns</title>
<ellipse fill="none" stroke="black" cx="2677.74" cy="-234" rx="79.0865" ry="18"/>
<text text-anchor="middle" x="2677.74" y="-230.3" font-family="Times,serif" font-size="14.00">oa_exponent_to_ns</text>
</g>
<!-- print_binary -->
<g id="node37" class="node"><title>print_binary</title>
<ellipse fill="none" stroke="black" cx="2828.74" cy="-234" rx="53.8905" ry="18"/>
<text text-anchor="middle" x="2828.74" y="-230.3" font-family="Times,serif" font-size="14.00">print_binary</text>
</g>
<!-- gen8_read_report_ticks -->
<g id="node38" class="node"><title>gen8_read_report_ticks</title>
<ellipse fill="none" stroke="black" cx="2994.74" cy="-234" rx="93.6835" ry="18"/>
<text text-anchor="middle" x="2994.74" y="-230.3" font-family="Times,serif" font-size="14.00">gen8_read_report_ticks</text>
</g>
<!-- create_filtering_word -->
<g id="node39" class="node"><title>create_filtering_word</title>
<ellipse fill="none" stroke="black" cx="3193.74" cy="-234" rx="87.1846" ry="18"/>
<text text-anchor="middle" x="3193.74" y="-230.3" font-family="Times,serif" font-size="14.00">create_filtering_word</text>
</g>
<!-- read_i915_module_ref -->
<g id="node40" class="node"><title>read_i915_module_ref</title>
<ellipse fill="none" stroke="black" cx="3389.74" cy="-234" rx="90.9839" ry="18"/>
<text text-anchor="middle" x="3389.74" y="-230.3" font-family="Times,serif" font-size="14.00">read_i915_module_ref</text>
</g>
<!-- i915_perf_remove_config -->
<g id="node41" class="node"><title>i915_perf_remove_config</title>
<ellipse fill="none" stroke="black" cx="3601.74" cy="-234" rx="102.882" ry="18"/>
<text text-anchor="middle" x="3601.74" y="-230.3" font-family="Times,serif" font-size="14.00">i915_perf_remove_config</text>
</g>
<!-- fmedian -->
<g id="node42" class="node"><title>fmedian</title>
<ellipse fill="none" stroke="black" cx="3762.74" cy="-234" rx="40.0939" ry="18"/>
<text text-anchor="middle" x="3762.74" y="-230.3" font-family="Times,serif" font-size="14.00">fmedian</text>
</g>
<!-- write_u64_file -->
<g id="node43" class="node"><title>write_u64_file</title>
<ellipse fill="none" stroke="black" cx="3883.74" cy="-234" rx="62.2891" ry="18"/>
<text text-anchor="middle" x="3883.74" y="-230.3" font-family="Times,serif" font-size="14.00">write_u64_file</text>
</g>
<!-- oa_report_is_periodic -->
<g id="node44" class="node"><title>oa_report_is_periodic</title>
<ellipse fill="none" stroke="black" cx="4051.74" cy="-234" rx="87.9851" ry="18"/>
<text text-anchor="middle" x="4051.74" y="-230.3" font-family="Times,serif" font-size="14.00">oa_report_is_periodic</text>
</g>
<!-- profile_through_opencl -->
<g id="node45" class="node"><title>profile_through_opencl</title>
<ellipse fill="none" stroke="black" cx="4250.74" cy="-234" rx="93.6835" ry="18"/>
<text text-anchor="middle" x="4250.74" y="-230.3" font-family="Times,serif" font-size="14.00">profile_through_opencl</text>
</g>
<!-- print_report_card -->
<g id="node46" class="node"><title>print_report_card</title>
<ellipse fill="none" stroke="black" cx="4434.74" cy="-234" rx="72.2875" ry="18"/>
<text text-anchor="middle" x="4434.74" y="-230.3" font-family="Times,serif" font-size="14.00">print_report_card</text>
</g>
</g>
</svg>
