<?xml version="1.0" encoding="UTF-8" standalone="no"?>
<!DOCTYPE svg PUBLIC "-//W3C//DTD SVG 1.1//EN"
 "http://www.w3.org/Graphics/SVG/1.1/DTD/svg11.dtd">
<!-- Generated by graphviz version 2.38.0 (20140413.2041)
 -->
<!-- Title: callgraph Pages: 1 -->
<svg width="3551pt" height="260pt"
 viewBox="0.00 0.00 3550.58 260.00" xmlns="http://www.w3.org/2000/svg" xmlns:xlink="http://www.w3.org/1999/xlink">
<g id="graph0" class="graph" transform="scale(1 1) rotate(0) translate(4 256)">
<title>callgraph</title>
<polygon fill="white" stroke="none" points="-4,4 -4,-256 3546.58,-256 3546.58,4 -4,4"/>
<!-- init_sys_info -->
<g id="node1" class="node"><title>init_sys_info</title>
<ellipse fill="none" stroke="black" cx="446.988" cy="-234" rx="56.59" ry="18"/>
<text text-anchor="middle" x="446.988" y="-230.3" font-family="Times,serif" font-size="14.00">init_sys_info</text>
</g>
<!-- max_oa_exponent_for_period_lte -->
<g id="node2" class="node"><title>max_oa_exponent_for_period_lte</title>
<ellipse fill="none" stroke="black" cx="129.988" cy="-162" rx="129.977" ry="18"/>
<text text-anchor="middle" x="129.988" y="-158.3" font-family="Times,serif" font-size="14.00">max_oa_exponent_for_period_lte</text>
</g>
<!-- init_sys_info&#45;&gt;max_oa_exponent_for_period_lte -->
<g id="edge1" class="edge"><title>init_sys_info&#45;&gt;max_oa_exponent_for_period_lte</title>
<path fill="none" stroke="black" d="M401.907,-223.045C350.902,-211.782 266.992,-193.253 205.854,-179.753"/>
<polygon fill="black" stroke="black" points="206.384,-176.285 195.864,-177.547 204.874,-183.121 206.384,-176.285"/>
</g>
<!-- read_u64_file -->
<g id="node3" class="node"><title>read_u64_file</title>
<ellipse fill="none" stroke="black" cx="600.988" cy="-162" rx="59.5901" ry="18"/>
<text text-anchor="middle" x="600.988" y="-158.3" font-family="Times,serif" font-size="14.00">read_u64_file</text>
</g>
<!-- init_sys_info&#45;&gt;read_u64_file -->
<g id="edge2" class="edge"><title>init_sys_info&#45;&gt;read_u64_file</title>
<path fill="none" stroke="black" d="M478.153,-218.834C501.792,-208.089 534.494,-193.225 560.212,-181.535"/>
<polygon fill="black" stroke="black" points="561.687,-184.709 569.342,-177.385 558.79,-178.337 561.687,-184.709"/>
</g>
<!-- timebase_scale -->
<g id="node19" class="node"><title>timebase_scale</title>
<ellipse fill="none" stroke="black" cx="98.9885" cy="-90" rx="64.189" ry="18"/>
<text text-anchor="middle" x="98.9885" y="-86.3" font-family="Times,serif" font-size="14.00">timebase_scale</text>
</g>
<!-- max_oa_exponent_for_period_lte&#45;&gt;timebase_scale -->
<g id="edge13" class="edge"><title>max_oa_exponent_for_period_lte&#45;&gt;timebase_scale</title>
<path fill="none" stroke="black" d="M122.326,-143.697C118.797,-135.728 114.533,-126.1 110.62,-117.264"/>
<polygon fill="black" stroke="black" points="113.813,-115.831 106.563,-108.104 107.412,-118.665 113.813,-115.831"/>
</g>
<!-- test_whitelisted_registers_userspace_config -->
<g id="node4" class="node"><title>test_whitelisted_registers_userspace_config</title>
<ellipse fill="none" stroke="black" cx="718.988" cy="-234" rx="165.171" ry="18"/>
<text text-anchor="middle" x="718.988" y="-230.3" font-family="Times,serif" font-size="14.00">test_whitelisted_registers_userspace_config</text>
</g>
<!-- test_whitelisted_registers_userspace_config&#45;&gt;read_u64_file -->
<g id="edge3" class="edge"><title>test_whitelisted_registers_userspace_config&#45;&gt;read_u64_file</title>
<path fill="none" stroke="black" d="M690.725,-216.233C674.235,-206.451 653.302,-194.033 635.802,-183.652"/>
<polygon fill="black" stroke="black" points="637.391,-180.525 627.005,-178.434 633.82,-186.546 637.391,-180.525"/>
</g>
<!-- i915_perf_remove_config -->
<g id="node5" class="node"><title>i915_perf_remove_config</title>
<ellipse fill="none" stroke="black" cx="780.988" cy="-162" rx="102.882" ry="18"/>
<text text-anchor="middle" x="780.988" y="-158.3" font-family="Times,serif" font-size="14.00">i915_perf_remove_config</text>
</g>
<!-- test_whitelisted_registers_userspace_config&#45;&gt;i915_perf_remove_config -->
<g id="edge4" class="edge"><title>test_whitelisted_registers_userspace_config&#45;&gt;i915_perf_remove_config</title>
<path fill="none" stroke="black" d="M733.997,-216.055C741.501,-207.583 750.725,-197.168 759.009,-187.815"/>
<polygon fill="black" stroke="black" points="761.677,-190.082 765.687,-180.275 756.437,-185.441 761.677,-190.082"/>
</g>
<!-- max_oa_exponent_for_freq_gt -->
<g id="node6" class="node"><title>max_oa_exponent_for_freq_gt</title>
<ellipse fill="none" stroke="black" cx="129.988" cy="-234" rx="120.479" ry="18"/>
<text text-anchor="middle" x="129.988" y="-230.3" font-family="Times,serif" font-size="14.00">max_oa_exponent_for_freq_gt</text>
</g>
<!-- max_oa_exponent_for_freq_gt&#45;&gt;max_oa_exponent_for_period_lte -->
<g id="edge5" class="edge"><title>max_oa_exponent_for_freq_gt&#45;&gt;max_oa_exponent_for_period_lte</title>
<path fill="none" stroke="black" d="M129.988,-215.697C129.988,-207.983 129.988,-198.712 129.988,-190.112"/>
<polygon fill="black" stroke="black" points="133.489,-190.104 129.988,-180.104 126.489,-190.104 133.489,-190.104"/>
</g>
<!-- emit_report_perf_count -->
<g id="node7" class="node"><title>emit_report_perf_count</title>
<ellipse fill="none" stroke="black" cx="2146.99" cy="-162" rx="94.7833" ry="18"/>
<text text-anchor="middle" x="2146.99" y="-158.3" font-family="Times,serif" font-size="14.00">emit_report_perf_count</text>
</g>
<!-- intel_batchbuffer_emit_dword -->
<g id="node8" class="node"><title>intel_batchbuffer_emit_dword</title>
<ellipse fill="none" stroke="black" cx="2307.99" cy="-90" rx="118.079" ry="18"/>
<text text-anchor="middle" x="2307.99" y="-86.3" font-family="Times,serif" font-size="14.00">intel_batchbuffer_emit_dword</text>
</g>
<!-- emit_report_perf_count&#45;&gt;intel_batchbuffer_emit_dword -->
<g id="edge6" class="edge"><title>emit_report_perf_count&#45;&gt;intel_batchbuffer_emit_dword</title>
<path fill="none" stroke="black" d="M2183.12,-145.291C2206.3,-135.211 2236.63,-122.027 2261.58,-111.176"/>
<polygon fill="black" stroke="black" points="2263.09,-114.34 2270.86,-107.142 2260.29,-107.92 2263.09,-114.34"/>
</g>
<!-- intel_batchbuffer_require_space -->
<g id="node9" class="node"><title>intel_batchbuffer_require_space</title>
<ellipse fill="none" stroke="black" cx="2047.99" cy="-90" rx="124.278" ry="18"/>
<text text-anchor="middle" x="2047.99" y="-86.3" font-family="Times,serif" font-size="14.00">intel_batchbuffer_require_space</text>
</g>
<!-- emit_report_perf_count&#45;&gt;intel_batchbuffer_require_space -->
<g id="edge7" class="edge"><title>emit_report_perf_count&#45;&gt;intel_batchbuffer_require_space</title>
<path fill="none" stroke="black" d="M2123.53,-144.411C2110.55,-135.237 2094.24,-123.704 2080.1,-113.705"/>
<polygon fill="black" stroke="black" points="2081.81,-110.628 2071.62,-107.713 2077.77,-116.344 2081.81,-110.628"/>
</g>
<!-- intel_batchbuffer_space -->
<g id="node16" class="node"><title>intel_batchbuffer_space</title>
<ellipse fill="none" stroke="black" cx="2177.99" cy="-18" rx="94.7833" ry="18"/>
<text text-anchor="middle" x="2177.99" y="-14.3" font-family="Times,serif" font-size="14.00">intel_batchbuffer_space</text>
</g>
<!-- intel_batchbuffer_emit_dword&#45;&gt;intel_batchbuffer_space -->
<g id="edge14" class="edge"><title>intel_batchbuffer_emit_dword&#45;&gt;intel_batchbuffer_space</title>
<path fill="none" stroke="black" d="M2277.51,-72.5881C2259.5,-62.89 2236.51,-50.5096 2217.16,-40.0923"/>
<polygon fill="black" stroke="black" points="2218.74,-36.9685 2208.28,-35.3091 2215.42,-43.1318 2218.74,-36.9685"/>
</g>
<!-- intel_batchbuffer_require_space&#45;&gt;intel_batchbuffer_space -->
<g id="edge11" class="edge"><title>intel_batchbuffer_require_space&#45;&gt;intel_batchbuffer_space</title>
<path fill="none" stroke="black" d="M2078.8,-72.411C2096.82,-62.7082 2119.74,-50.3664 2139,-39.9915"/>
<polygon fill="black" stroke="black" points="2140.7,-43.0512 2147.85,-35.2285 2137.39,-36.8879 2140.7,-43.0512"/>
</g>
<!-- i915_perf_add_config -->
<g id="node10" class="node"><title>i915_perf_add_config</title>
<ellipse fill="none" stroke="black" cx="2534.99" cy="-234" rx="89.0842" ry="18"/>
<text text-anchor="middle" x="2534.99" y="-230.3" font-family="Times,serif" font-size="14.00">i915_perf_add_config</text>
</g>
<!-- __i915_perf_add_config -->
<g id="node11" class="node"><title>__i915_perf_add_config</title>
<ellipse fill="none" stroke="black" cx="2534.99" cy="-162" rx="97.4827" ry="18"/>
<text text-anchor="middle" x="2534.99" y="-158.3" font-family="Times,serif" font-size="14.00">__i915_perf_add_config</text>
</g>
<!-- i915_perf_add_config&#45;&gt;__i915_perf_add_config -->
<g id="edge8" class="edge"><title>i915_perf_add_config&#45;&gt;__i915_perf_add_config</title>
<path fill="none" stroke="black" d="M2534.99,-215.697C2534.99,-207.983 2534.99,-198.712 2534.99,-190.112"/>
<polygon fill="black" stroke="black" points="2538.49,-190.104 2534.99,-180.104 2531.49,-190.104 2538.49,-190.104"/>
</g>
<!-- hsw_read_report_ticks -->
<g id="node12" class="node"><title>hsw_read_report_ticks</title>
<ellipse fill="none" stroke="black" cx="489.988" cy="-90" rx="90.9839" ry="18"/>
<text text-anchor="middle" x="489.988" y="-86.3" font-family="Times,serif" font-size="14.00">hsw_read_report_ticks</text>
</g>
<!-- get_oa_format -->
<g id="node13" class="node"><title>get_oa_format</title>
<ellipse fill="none" stroke="black" cx="707.988" cy="-18" rx="62.2891" ry="18"/>
<text text-anchor="middle" x="707.988" y="-14.3" font-family="Times,serif" font-size="14.00">get_oa_format</text>
</g>
<!-- hsw_read_report_ticks&#45;&gt;get_oa_format -->
<g id="edge9" class="edge"><title>hsw_read_report_ticks&#45;&gt;get_oa_format</title>
<path fill="none" stroke="black" d="M535.688,-74.3257C571.562,-62.8068 621.433,-46.7929 658.295,-34.9566"/>
<polygon fill="black" stroke="black" points="659.395,-38.2795 667.846,-31.8897 657.255,-31.6146 659.395,-38.2795"/>
</g>
<!-- __perf_open -->
<g id="node14" class="node"><title>__perf_open</title>
<ellipse fill="none" stroke="black" cx="1776.99" cy="-162" rx="55.4913" ry="18"/>
<text text-anchor="middle" x="1776.99" y="-158.3" font-family="Times,serif" font-size="14.00">__perf_open</text>
</g>
<!-- __perf_close -->
<g id="node15" class="node"><title>__perf_close</title>
<ellipse fill="none" stroke="black" cx="1776.99" cy="-90" rx="55.7903" ry="18"/>
<text text-anchor="middle" x="1776.99" y="-86.3" font-family="Times,serif" font-size="14.00">__perf_close</text>
</g>
<!-- __perf_open&#45;&gt;__perf_close -->
<g id="edge10" class="edge"><title>__perf_open&#45;&gt;__perf_close</title>
<path fill="none" stroke="black" d="M1776.99,-143.697C1776.99,-135.983 1776.99,-126.712 1776.99,-118.112"/>
<polygon fill="black" stroke="black" points="1780.49,-118.104 1776.99,-108.104 1773.49,-118.104 1780.49,-118.104"/>
</g>
<!-- scratch_buf_init -->
<g id="node17" class="node"><title>scratch_buf_init</title>
<ellipse fill="none" stroke="black" cx="1327.99" cy="-162" rx="67.6881" ry="18"/>
<text text-anchor="middle" x="1327.99" y="-158.3" font-family="Times,serif" font-size="14.00">scratch_buf_init</text>
</g>
<!-- scratch_buf_memset -->
<g id="node18" class="node"><title>scratch_buf_memset</title>
<ellipse fill="none" stroke="black" cx="1392.99" cy="-90" rx="84.485" ry="18"/>
<text text-anchor="middle" x="1392.99" y="-86.3" font-family="Times,serif" font-size="14.00">scratch_buf_memset</text>
</g>
<!-- scratch_buf_init&#45;&gt;scratch_buf_memset -->
<g id="edge12" class="edge"><title>scratch_buf_init&#45;&gt;scratch_buf_memset</title>
<path fill="none" stroke="black" d="M1343.39,-144.411C1351.45,-135.734 1361.47,-124.946 1370.39,-115.342"/>
<polygon fill="black" stroke="black" points="1373,-117.666 1377.24,-107.956 1367.87,-112.903 1373,-117.666"/>
</g>
<!-- gen8_read_40bit_a_counter -->
<g id="node20" class="node"><title>gen8_read_40bit_a_counter</title>
<ellipse fill="none" stroke="black" cx="707.988" cy="-90" rx="108.581" ry="18"/>
<text text-anchor="middle" x="707.988" y="-86.3" font-family="Times,serif" font-size="14.00">gen8_read_40bit_a_counter</text>
</g>
<!-- gen8_read_40bit_a_counter&#45;&gt;get_oa_format -->
<g id="edge15" class="edge"><title>gen8_read_40bit_a_counter&#45;&gt;get_oa_format</title>
<path fill="none" stroke="black" d="M707.988,-71.6966C707.988,-63.9827 707.988,-54.7125 707.988,-46.1124"/>
<polygon fill="black" stroke="black" points="711.489,-46.1043 707.988,-36.1043 704.489,-46.1044 711.489,-46.1043"/>
</g>
<!-- write_to_flexible_eu_registers -->
<g id="node21" class="node"><title>write_to_flexible_eu_registers</title>
<ellipse fill="none" stroke="black" cx="1897.99" cy="-234" rx="118.079" ry="18"/>
<text text-anchor="middle" x="1897.99" y="-230.3" font-family="Times,serif" font-size="14.00">write_to_flexible_eu_registers</text>
</g>
<!-- write_to_flexible_eu_registers&#45;&gt;intel_batchbuffer_emit_dword -->
<g id="edge16" class="edge"><title>write_to_flexible_eu_registers&#45;&gt;intel_batchbuffer_emit_dword</title>
<path fill="none" stroke="black" d="M2005.86,-226.549C2094.43,-219.499 2211.47,-205.618 2250.99,-180 2273.61,-165.334 2289.05,-138.179 2298.09,-117.705"/>
<polygon fill="black" stroke="black" points="2301.4,-118.852 2302.02,-108.275 2294.94,-116.16 2301.4,-118.852"/>
</g>
<!-- write_to_flexible_eu_registers&#45;&gt;intel_batchbuffer_require_space -->
<g id="edge20" class="edge"><title>write_to_flexible_eu_registers&#45;&gt;intel_batchbuffer_require_space</title>
<path fill="none" stroke="black" d="M1897.13,-215.887C1897.07,-196.306 1899.92,-164.33 1916.99,-144 1930.67,-127.697 1950.13,-116.357 1969.87,-108.489"/>
<polygon fill="black" stroke="black" points="1971.1,-111.768 1979.25,-105.005 1968.66,-105.206 1971.1,-111.768"/>
</g>
<!-- write_to_flexible_eu_registers&#45;&gt;__perf_open -->
<g id="edge19" class="edge"><title>write_to_flexible_eu_registers&#45;&gt;__perf_open</title>
<path fill="none" stroke="black" d="M1869.31,-216.411C1852.17,-206.496 1830.27,-193.824 1812.1,-183.312"/>
<polygon fill="black" stroke="black" points="1813.39,-180.016 1802.98,-178.038 1809.89,-186.075 1813.39,-180.016"/>
</g>
<!-- write_to_flexible_eu_registers&#45;&gt;__perf_close -->
<g id="edge17" class="edge"><title>write_to_flexible_eu_registers&#45;&gt;__perf_close</title>
<path fill="none" stroke="black" d="M1889.11,-215.852C1878.93,-197.092 1861.05,-166.673 1840.99,-144 1830.99,-132.698 1818.47,-121.783 1807.17,-112.825"/>
<polygon fill="black" stroke="black" points="1809.26,-110.017 1799.21,-106.672 1804.98,-115.556 1809.26,-110.017"/>
</g>
<!-- print_binary -->
<g id="node22" class="node"><title>print_binary</title>
<ellipse fill="none" stroke="black" cx="1979.99" cy="-162" rx="53.8905" ry="18"/>
<text text-anchor="middle" x="1979.99" y="-158.3" font-family="Times,serif" font-size="14.00">print_binary</text>
</g>
<!-- write_to_flexible_eu_registers&#45;&gt;print_binary -->
<g id="edge18" class="edge"><title>write_to_flexible_eu_registers&#45;&gt;print_binary</title>
<path fill="none" stroke="black" d="M1917.84,-216.055C1928.54,-206.916 1941.9,-195.514 1953.48,-185.626"/>
<polygon fill="black" stroke="black" points="1955.83,-188.222 1961.17,-179.068 1951.29,-182.898 1955.83,-188.222"/>
</g>
<!-- emit_stall_timestamp_and_rpc -->
<g id="node23" class="node"><title>emit_stall_timestamp_and_rpc</title>
<ellipse fill="none" stroke="black" cx="2307.99" cy="-234" rx="120.479" ry="18"/>
<text text-anchor="middle" x="2307.99" y="-230.3" font-family="Times,serif" font-size="14.00">emit_stall_timestamp_and_rpc</text>
</g>
<!-- emit_stall_timestamp_and_rpc&#45;&gt;emit_report_perf_count -->
<g id="edge23" class="edge"><title>emit_stall_timestamp_and_rpc&#45;&gt;emit_report_perf_count</title>
<path fill="none" stroke="black" d="M2270.65,-216.765C2247.25,-206.594 2216.96,-193.421 2192.21,-182.661"/>
<polygon fill="black" stroke="black" points="2193.59,-179.443 2183.02,-178.666 2190.79,-185.863 2193.59,-179.443"/>
</g>
<!-- emit_stall_timestamp_and_rpc&#45;&gt;intel_batchbuffer_emit_dword -->
<g id="edge21" class="edge"><title>emit_stall_timestamp_and_rpc&#45;&gt;intel_batchbuffer_emit_dword</title>
<path fill="none" stroke="black" d="M2313.81,-215.56C2316.92,-205.33 2320.42,-192.08 2321.99,-180 2324.05,-164.133 2324.05,-159.867 2321.99,-144 2320.89,-135.506 2318.83,-126.434 2316.62,-118.24"/>
<polygon fill="black" stroke="black" points="2319.93,-117.087 2313.81,-108.44 2313.2,-119.017 2319.93,-117.087"/>
</g>
<!-- emit_stall_timestamp_and_rpc&#45;&gt;intel_batchbuffer_require_space -->
<g id="edge22" class="edge"><title>emit_stall_timestamp_and_rpc&#45;&gt;intel_batchbuffer_require_space</title>
<path fill="none" stroke="black" d="M2301.56,-215.823C2293.08,-195.565 2276.22,-162.333 2250.99,-144 2223.15,-123.774 2188.21,-111.258 2155.2,-103.517"/>
<polygon fill="black" stroke="black" points="2155.55,-100.009 2145.03,-101.264 2154.04,-106.844 2155.55,-100.009"/>
</g>
<!-- test_counters_with_opencl -->
<g id="node24" class="node"><title>test_counters_with_opencl</title>
<ellipse fill="none" stroke="black" cx="1470.99" cy="-234" rx="104.782" ry="18"/>
<text text-anchor="middle" x="1470.99" y="-230.3" font-family="Times,serif" font-size="14.00">test_counters_with_opencl</text>
</g>
<!-- test_counters_with_opencl&#45;&gt;read_u64_file -->
<g id="edge32" class="edge"><title>test_counters_with_opencl&#45;&gt;read_u64_file</title>
<path fill="none" stroke="black" d="M1366.83,-232.05C1213.23,-229.311 917.303,-218.923 668.988,-180 663.86,-179.196 658.553,-178.188 653.269,-177.066"/>
<polygon fill="black" stroke="black" points="653.714,-173.579 643.189,-174.793 652.174,-180.407 653.714,-173.579"/>
</g>
<!-- test_counters_with_opencl&#45;&gt;emit_report_perf_count -->
<g id="edge29" class="edge"><title>test_counters_with_opencl&#45;&gt;emit_report_perf_count</title>
<path fill="none" stroke="black" d="M1565.59,-226.263C1679.21,-217.704 1875.43,-201.43 2042.99,-180 2051.62,-178.895 2060.64,-177.614 2069.61,-176.26"/>
<polygon fill="black" stroke="black" points="2070.33,-179.69 2079.68,-174.705 2069.26,-172.772 2070.33,-179.69"/>
</g>
<!-- test_counters_with_opencl&#45;&gt;__perf_open -->
<g id="edge26" class="edge"><title>test_counters_with_opencl&#45;&gt;__perf_open</title>
<path fill="none" stroke="black" d="M1533.45,-219.418C1581.28,-208.921 1648.88,-193.888 1707.99,-180 1713.32,-178.748 1718.87,-177.419 1724.42,-176.077"/>
<polygon fill="black" stroke="black" points="1725.44,-179.43 1734.33,-173.663 1723.78,-172.629 1725.44,-179.43"/>
</g>
<!-- test_counters_with_opencl&#45;&gt;__perf_close -->
<g id="edge31" class="edge"><title>test_counters_with_opencl&#45;&gt;__perf_close</title>
<path fill="none" stroke="black" d="M1550.02,-222.048C1589.36,-214.27 1636.59,-201.294 1674.99,-180 1695.33,-168.718 1695.58,-159.428 1712.99,-144 1724.63,-133.684 1737.82,-122.656 1749.19,-113.345"/>
<polygon fill="black" stroke="black" points="1751.55,-115.933 1757.1,-106.904 1747.13,-110.506 1751.55,-115.933"/>
</g>
<!-- test_counters_with_opencl&#45;&gt;scratch_buf_init -->
<g id="edge24" class="edge"><title>test_counters_with_opencl&#45;&gt;scratch_buf_init</title>
<path fill="none" stroke="black" d="M1437.82,-216.765C1417.03,-206.587 1390.1,-193.403 1368.11,-182.639"/>
<polygon fill="black" stroke="black" points="1369.54,-179.442 1359.02,-178.189 1366.46,-185.729 1369.54,-179.442"/>
</g>
<!-- test_counters_with_opencl&#45;&gt;scratch_buf_memset -->
<g id="edge27" class="edge"><title>test_counters_with_opencl&#45;&gt;scratch_buf_memset</title>
<path fill="none" stroke="black" d="M1386.01,-223.392C1331.52,-215.281 1267.91,-201.488 1250.99,-180 1241.09,-167.431 1241.86,-157.144 1250.99,-144 1260.68,-130.031 1296.78,-116.658 1330.15,-106.84"/>
<polygon fill="black" stroke="black" points="1331.28,-110.158 1339.93,-104.039 1329.35,-103.429 1331.28,-110.158"/>
</g>
<!-- print_reports -->
<g id="node25" class="node"><title>print_reports</title>
<ellipse fill="none" stroke="black" cx="1018.99" cy="-162" rx="55.7903" ry="18"/>
<text text-anchor="middle" x="1018.99" y="-158.3" font-family="Times,serif" font-size="14.00">print_reports</text>
</g>
<!-- test_counters_with_opencl&#45;&gt;print_reports -->
<g id="edge25" class="edge"><title>test_counters_with_opencl&#45;&gt;print_reports</title>
<path fill="none" stroke="black" d="M1396.1,-221.402C1306.95,-207.597 1159.93,-184.827 1078.29,-172.183"/>
<polygon fill="black" stroke="black" points="1078.6,-168.69 1068.18,-170.618 1077.52,-175.607 1078.6,-168.69"/>
</g>
<!-- read_tsc_end -->
<g id="node26" class="node"><title>read_tsc_end</title>
<ellipse fill="none" stroke="black" cx="1470.99" cy="-162" rx="57.3905" ry="18"/>
<text text-anchor="middle" x="1470.99" y="-158.3" font-family="Times,serif" font-size="14.00">read_tsc_end</text>
</g>
<!-- test_counters_with_opencl&#45;&gt;read_tsc_end -->
<g id="edge28" class="edge"><title>test_counters_with_opencl&#45;&gt;read_tsc_end</title>
<path fill="none" stroke="black" d="M1470.99,-215.697C1470.99,-207.983 1470.99,-198.712 1470.99,-190.112"/>
<polygon fill="black" stroke="black" points="1474.49,-190.104 1470.99,-180.104 1467.49,-190.104 1474.49,-190.104"/>
</g>
<!-- read_tsc_start -->
<g id="node27" class="node"><title>read_tsc_start</title>
<ellipse fill="none" stroke="black" cx="1605.99" cy="-162" rx="59.5901" ry="18"/>
<text text-anchor="middle" x="1605.99" y="-158.3" font-family="Times,serif" font-size="14.00">read_tsc_start</text>
</g>
<!-- test_counters_with_opencl&#45;&gt;read_tsc_start -->
<g id="edge30" class="edge"><title>test_counters_with_opencl&#45;&gt;read_tsc_start</title>
<path fill="none" stroke="black" d="M1502.3,-216.765C1521.98,-206.562 1547.48,-193.339 1568.27,-182.56"/>
<polygon fill="black" stroke="black" points="1569.89,-185.663 1577.15,-177.952 1566.66,-179.448 1569.89,-185.663"/>
</g>
<!-- print_reports&#45;&gt;get_oa_format -->
<g id="edge34" class="edge"><title>print_reports&#45;&gt;get_oa_format</title>
<path fill="none" stroke="black" d="M1046.83,-146.267C1060.75,-137.254 1076.24,-124.309 1083.99,-108 1090.85,-93.547 1094.48,-84.0775 1083.99,-72 1045.52,-27.724 878.846,-19.3932 780.796,-18.4289"/>
<polygon fill="black" stroke="black" points="780.679,-14.928 770.653,-18.3529 780.626,-21.9278 780.679,-14.928"/>
</g>
<!-- print_reports&#45;&gt;gen8_read_40bit_a_counter -->
<g id="edge35" class="edge"><title>print_reports&#45;&gt;gen8_read_40bit_a_counter</title>
<path fill="none" stroke="black" d="M974.43,-150.971C923.518,-139.511 839.499,-120.6 779.419,-107.078"/>
<polygon fill="black" stroke="black" points="780.142,-103.653 769.618,-104.872 778.605,-110.482 780.142,-103.653"/>
</g>
<!-- gen8_read_report_clock_ratios -->
<g id="node28" class="node"><title>gen8_read_report_clock_ratios</title>
<ellipse fill="none" stroke="black" cx="954.988" cy="-90" rx="120.479" ry="18"/>
<text text-anchor="middle" x="954.988" y="-86.3" font-family="Times,serif" font-size="14.00">gen8_read_report_clock_ratios</text>
</g>
<!-- print_reports&#45;&gt;gen8_read_report_clock_ratios -->
<g id="edge33" class="edge"><title>print_reports&#45;&gt;gen8_read_report_clock_ratios</title>
<path fill="none" stroke="black" d="M1003.82,-144.411C995.888,-135.734 986.025,-124.946 977.244,-115.342"/>
<polygon fill="black" stroke="black" points="979.822,-112.975 970.491,-107.956 974.656,-117.698 979.822,-112.975"/>
</g>
<!-- gen8_40bit_a_delta -->
<g id="node29" class="node"><title>gen8_40bit_a_delta</title>
<ellipse fill="none" stroke="black" cx="1210.99" cy="-90" rx="79.8859" ry="18"/>
<text text-anchor="middle" x="1210.99" y="-86.3" font-family="Times,serif" font-size="14.00">gen8_40bit_a_delta</text>
</g>
<!-- print_reports&#45;&gt;gen8_40bit_a_delta -->
<g id="edge36" class="edge"><title>print_reports&#45;&gt;gen8_40bit_a_delta</title>
<path fill="none" stroke="black" d="M1054.65,-147.998C1084.66,-137.058 1127.89,-121.296 1161.29,-109.12"/>
<polygon fill="black" stroke="black" points="1162.67,-112.34 1170.87,-105.626 1160.28,-105.763 1162.67,-112.34"/>
</g>
<!-- gen8_read_report_reason -->
<g id="node30" class="node"><title>gen8_read_report_reason</title>
<ellipse fill="none" stroke="black" cx="280.988" cy="-90" rx="100.182" ry="18"/>
<text text-anchor="middle" x="280.988" y="-86.3" font-family="Times,serif" font-size="14.00">gen8_read_report_reason</text>
</g>
<!-- print_reports&#45;&gt;gen8_read_report_reason -->
<g id="edge37" class="edge"><title>print_reports&#45;&gt;gen8_read_report_reason</title>
<path fill="none" stroke="black" d="M969.404,-153.58C946.23,-150.299 918.239,-146.604 892.988,-144 670.044,-121.005 612.684,-133.291 389.988,-108 380.667,-106.941 370.921,-105.665 361.256,-104.294"/>
<polygon fill="black" stroke="black" points="361.634,-100.812 351.234,-102.836 360.626,-107.739 361.634,-100.812"/>
</g>
<!-- oa_exponent_to_ns -->
<g id="node31" class="node"><title>oa_exponent_to_ns</title>
<ellipse fill="none" stroke="black" cx="2720.99" cy="-234" rx="79.0865" ry="18"/>
<text text-anchor="middle" x="2720.99" y="-230.3" font-family="Times,serif" font-size="14.00">oa_exponent_to_ns</text>
</g>
<!-- write_u64_file -->
<g id="node32" class="node"><title>write_u64_file</title>
<ellipse fill="none" stroke="black" cx="2880.99" cy="-234" rx="62.2891" ry="18"/>
<text text-anchor="middle" x="2880.99" y="-230.3" font-family="Times,serif" font-size="14.00">write_u64_file</text>
</g>
<!-- oa_report_is_periodic -->
<g id="node33" class="node"><title>oa_report_is_periodic</title>
<ellipse fill="none" stroke="black" cx="3048.99" cy="-234" rx="87.9851" ry="18"/>
<text text-anchor="middle" x="3048.99" y="-230.3" font-family="Times,serif" font-size="14.00">oa_report_is_periodic</text>
</g>
<!-- read_i915_module_ref -->
<g id="node34" class="node"><title>read_i915_module_ref</title>
<ellipse fill="none" stroke="black" cx="3245.99" cy="-234" rx="90.9839" ry="18"/>
<text text-anchor="middle" x="3245.99" y="-230.3" font-family="Times,serif" font-size="14.00">read_i915_module_ref</text>
</g>
<!-- gen8_read_report_ticks -->
<g id="node35" class="node"><title>gen8_read_report_ticks</title>
<ellipse fill="none" stroke="black" cx="3448.99" cy="-234" rx="93.6835" ry="18"/>
<text text-anchor="middle" x="3448.99" y="-230.3" font-family="Times,serif" font-size="14.00">gen8_read_report_ticks</text>
</g>
</g>
</svg>
