<?xml version="1.0" encoding="UTF-8" standalone="no"?>
<!DOCTYPE svg PUBLIC "-//W3C//DTD SVG 1.1//EN"
 "http://www.w3.org/Graphics/SVG/1.1/DTD/svg11.dtd">
<!-- Generated by graphviz version 2.38.0 (20140413.2041)
 -->
<!-- Title: callgraph Pages: 1 -->
<svg width="4928pt" height="260pt"
 viewBox="0.00 0.00 4927.64 260.00" xmlns="http://www.w3.org/2000/svg" xmlns:xlink="http://www.w3.org/1999/xlink">
<g id="graph0" class="graph" transform="scale(1 1) rotate(0) translate(4 256)">
<title>callgraph</title>
<polygon fill="white" stroke="none" points="-4,4 -4,-256 4923.64,-256 4923.64,4 -4,4"/>
<!-- __perf_open -->
<g id="node1" class="node"><title>__perf_open</title>
<ellipse fill="none" stroke="black" cx="705.547" cy="-162" rx="55.4913" ry="18"/>
<text text-anchor="middle" x="705.547" y="-158.3" font-family="Times,serif" font-size="14.00">__perf_open</text>
</g>
<!-- __perf_close -->
<g id="node2" class="node"><title>__perf_close</title>
<ellipse fill="none" stroke="black" cx="630.547" cy="-90" rx="55.7903" ry="18"/>
<text text-anchor="middle" x="630.547" y="-86.3" font-family="Times,serif" font-size="14.00">__perf_close</text>
</g>
<!-- __perf_open&#45;&gt;__perf_close -->
<g id="edge1" class="edge"><title>__perf_open&#45;&gt;__perf_close</title>
<path fill="none" stroke="black" d="M688.152,-144.765C678.402,-135.665 666.078,-124.162 655.333,-114.134"/>
<polygon fill="black" stroke="black" points="657.547,-111.412 647.848,-107.147 652.77,-116.529 657.547,-111.412"/>
</g>
<!-- i915_perf_add_config -->
<g id="node3" class="node"><title>i915_perf_add_config</title>
<ellipse fill="none" stroke="black" cx="2906.55" cy="-234" rx="89.0842" ry="18"/>
<text text-anchor="middle" x="2906.55" y="-230.3" font-family="Times,serif" font-size="14.00">i915_perf_add_config</text>
</g>
<!-- __i915_perf_add_config -->
<g id="node4" class="node"><title>__i915_perf_add_config</title>
<ellipse fill="none" stroke="black" cx="2906.55" cy="-162" rx="97.4827" ry="18"/>
<text text-anchor="middle" x="2906.55" y="-158.3" font-family="Times,serif" font-size="14.00">__i915_perf_add_config</text>
</g>
<!-- i915_perf_add_config&#45;&gt;__i915_perf_add_config -->
<g id="edge2" class="edge"><title>i915_perf_add_config&#45;&gt;__i915_perf_add_config</title>
<path fill="none" stroke="black" d="M2906.55,-215.697C2906.55,-207.983 2906.55,-198.712 2906.55,-190.112"/>
<polygon fill="black" stroke="black" points="2910.05,-190.104 2906.55,-180.104 2903.05,-190.104 2910.05,-190.104"/>
</g>
<!-- send_mi_load_reg_mem -->
<g id="node5" class="node"><title>send_mi_load_reg_mem</title>
<ellipse fill="none" stroke="black" cx="1948.55" cy="-162" rx="98.5829" ry="18"/>
<text text-anchor="middle" x="1948.55" y="-158.3" font-family="Times,serif" font-size="14.00">send_mi_load_reg_mem</text>
</g>
<!-- intel_batchbuffer_emit_dword -->
<g id="node6" class="node"><title>intel_batchbuffer_emit_dword</title>
<ellipse fill="none" stroke="black" cx="2137.55" cy="-90" rx="118.079" ry="18"/>
<text text-anchor="middle" x="2137.55" y="-86.3" font-family="Times,serif" font-size="14.00">intel_batchbuffer_emit_dword</text>
</g>
<!-- send_mi_load_reg_mem&#45;&gt;intel_batchbuffer_emit_dword -->
<g id="edge3" class="edge"><title>send_mi_load_reg_mem&#45;&gt;intel_batchbuffer_emit_dword</title>
<path fill="none" stroke="black" d="M1990.02,-145.638C2018.07,-135.252 2055.32,-121.455 2085.37,-110.324"/>
<polygon fill="black" stroke="black" points="2086.7,-113.566 2094.86,-106.811 2084.26,-107.002 2086.7,-113.566"/>
</g>
<!-- intel_batchbuffer_require_space -->
<g id="node7" class="node"><title>intel_batchbuffer_require_space</title>
<ellipse fill="none" stroke="black" cx="2397.55" cy="-90" rx="124.278" ry="18"/>
<text text-anchor="middle" x="2397.55" y="-86.3" font-family="Times,serif" font-size="14.00">intel_batchbuffer_require_space</text>
</g>
<!-- send_mi_load_reg_mem&#45;&gt;intel_batchbuffer_require_space -->
<g id="edge4" class="edge"><title>send_mi_load_reg_mem&#45;&gt;intel_batchbuffer_require_space</title>
<path fill="none" stroke="black" d="M2020.58,-149.642C2032.59,-147.753 2044.92,-145.819 2056.55,-144 2141.03,-130.785 2237.31,-115.831 2305.97,-105.184"/>
<polygon fill="black" stroke="black" points="2306.55,-108.637 2315.89,-103.646 2305.48,-101.719 2306.55,-108.637"/>
</g>
<!-- intel_batchbuffer_space -->
<g id="node23" class="node"><title>intel_batchbuffer_space</title>
<ellipse fill="none" stroke="black" cx="2267.55" cy="-18" rx="94.7833" ry="18"/>
<text text-anchor="middle" x="2267.55" y="-14.3" font-family="Times,serif" font-size="14.00">intel_batchbuffer_space</text>
</g>
<!-- intel_batchbuffer_emit_dword&#45;&gt;intel_batchbuffer_space -->
<g id="edge32" class="edge"><title>intel_batchbuffer_emit_dword&#45;&gt;intel_batchbuffer_space</title>
<path fill="none" stroke="black" d="M2168.03,-72.5881C2186.04,-62.89 2209.03,-50.5096 2228.38,-40.0923"/>
<polygon fill="black" stroke="black" points="2230.11,-43.1318 2237.26,-35.3091 2226.79,-36.9685 2230.11,-43.1318"/>
</g>
<!-- intel_batchbuffer_require_space&#45;&gt;intel_batchbuffer_space -->
<g id="edge45" class="edge"><title>intel_batchbuffer_require_space&#45;&gt;intel_batchbuffer_space</title>
<path fill="none" stroke="black" d="M2366.74,-72.411C2348.72,-62.7082 2325.8,-50.3664 2306.53,-39.9915"/>
<polygon fill="black" stroke="black" points="2308.15,-36.8879 2297.69,-35.2285 2304.83,-43.0512 2308.15,-36.8879"/>
</g>
<!-- measure_overheads -->
<g id="node8" class="node"><title>measure_overheads</title>
<ellipse fill="none" stroke="black" cx="255.547" cy="-234" rx="80.6858" ry="18"/>
<text text-anchor="middle" x="255.547" y="-230.3" font-family="Times,serif" font-size="14.00">measure_overheads</text>
</g>
<!-- median -->
<g id="node9" class="node"><title>median</title>
<ellipse fill="none" stroke="black" cx="595.547" cy="-162" rx="37.0935" ry="18"/>
<text text-anchor="middle" x="595.547" y="-158.3" font-family="Times,serif" font-size="14.00">median</text>
</g>
<!-- measure_overheads&#45;&gt;median -->
<g id="edge5" class="edge"><title>measure_overheads&#45;&gt;median</title>
<path fill="none" stroke="black" d="M312.839,-221.205C380.286,-207.319 490.81,-184.563 551.766,-172.014"/>
<polygon fill="black" stroke="black" points="552.74,-175.387 561.829,-169.942 551.329,-168.53 552.74,-175.387"/>
</g>
<!-- umax -->
<g id="node10" class="node"><title>umax</title>
<ellipse fill="none" stroke="black" cx="30.5473" cy="-162" rx="30.5947" ry="18"/>
<text text-anchor="middle" x="30.5473" y="-158.3" font-family="Times,serif" font-size="14.00">umax</text>
</g>
<!-- measure_overheads&#45;&gt;umax -->
<g id="edge6" class="edge"><title>measure_overheads&#45;&gt;umax</title>
<path fill="none" stroke="black" d="M203.973,-220.046C166.564,-210.21 114.952,-195.73 70.5473,-180 68.1824,-179.162 65.757,-178.255 63.3268,-177.311"/>
<polygon fill="black" stroke="black" points="64.6297,-174.063 54.0471,-173.555 62.003,-180.551 64.6297,-174.063"/>
</g>
<!-- average -->
<g id="node11" class="node"><title>average</title>
<ellipse fill="none" stroke="black" cx="117.547" cy="-162" rx="38.1938" ry="18"/>
<text text-anchor="middle" x="117.547" y="-158.3" font-family="Times,serif" font-size="14.00">average</text>
</g>
<!-- measure_overheads&#45;&gt;average -->
<g id="edge7" class="edge"><title>measure_overheads&#45;&gt;average</title>
<path fill="none" stroke="black" d="M224.577,-217.291C203.022,-206.357 174.266,-191.77 151.988,-180.47"/>
<polygon fill="black" stroke="black" points="153.379,-177.251 142.877,-175.849 150.212,-183.494 153.379,-177.251"/>
</g>
<!-- read_tsc_end -->
<g id="node12" class="node"><title>read_tsc_end</title>
<ellipse fill="none" stroke="black" cx="307.547" cy="-162" rx="57.3905" ry="18"/>
<text text-anchor="middle" x="307.547" y="-158.3" font-family="Times,serif" font-size="14.00">read_tsc_end</text>
</g>
<!-- measure_overheads&#45;&gt;read_tsc_end -->
<g id="edge8" class="edge"><title>measure_overheads&#45;&gt;read_tsc_end</title>
<path fill="none" stroke="black" d="M268.135,-216.055C274.395,-207.629 282.082,-197.28 289.001,-187.966"/>
<polygon fill="black" stroke="black" points="291.922,-189.904 295.075,-179.789 286.303,-185.729 291.922,-189.904"/>
</g>
<!-- umin -->
<g id="node13" class="node"><title>umin</title>
<ellipse fill="none" stroke="black" cx="203.547" cy="-162" rx="29.4969" ry="18"/>
<text text-anchor="middle" x="203.547" y="-158.3" font-family="Times,serif" font-size="14.00">umin</text>
</g>
<!-- measure_overheads&#45;&gt;umin -->
<g id="edge9" class="edge"><title>measure_overheads&#45;&gt;umin</title>
<path fill="none" stroke="black" d="M242.96,-216.055C236.516,-207.381 228.559,-196.669 221.485,-187.147"/>
<polygon fill="black" stroke="black" points="224.079,-184.77 215.306,-178.829 218.46,-188.944 224.079,-184.77"/>
</g>
<!-- read_tsc_start -->
<g id="node14" class="node"><title>read_tsc_start</title>
<ellipse fill="none" stroke="black" cx="442.547" cy="-162" rx="59.5901" ry="18"/>
<text text-anchor="middle" x="442.547" y="-158.3" font-family="Times,serif" font-size="14.00">read_tsc_start</text>
</g>
<!-- measure_overheads&#45;&gt;read_tsc_start -->
<g id="edge10" class="edge"><title>measure_overheads&#45;&gt;read_tsc_start</title>
<path fill="none" stroke="black" d="M295.205,-218.155C324.905,-207.037 365.599,-191.804 396.696,-180.163"/>
<polygon fill="black" stroke="black" points="398.291,-183.304 406.429,-176.52 395.837,-176.748 398.291,-183.304"/>
</g>
<!-- read_counters_rpc -->
<g id="node15" class="node"><title>read_counters_rpc</title>
<ellipse fill="none" stroke="black" cx="980.547" cy="-234" rx="75.2868" ry="18"/>
<text text-anchor="middle" x="980.547" y="-230.3" font-family="Times,serif" font-size="14.00">read_counters_rpc</text>
</g>
<!-- read_counters_rpc&#45;&gt;__perf_open -->
<g id="edge15" class="edge"><title>read_counters_rpc&#45;&gt;__perf_open</title>
<path fill="none" stroke="black" d="M931.065,-220.405C882.167,-207.958 807.647,-188.989 757.806,-176.302"/>
<polygon fill="black" stroke="black" points="758.427,-172.849 747.872,-173.774 756.7,-179.632 758.427,-172.849"/>
</g>
<!-- read_counters_rpc&#45;&gt;__perf_close -->
<g id="edge20" class="edge"><title>read_counters_rpc&#45;&gt;__perf_close</title>
<path fill="none" stroke="black" d="M982.224,-215.798C983.161,-195.515 981.246,-162.259 961.547,-144 917.8,-103.45 754.065,-119.568 695.547,-108 690.859,-107.073 686.007,-106.008 681.163,-104.872"/>
<polygon fill="black" stroke="black" points="681.832,-101.432 671.288,-102.462 680.173,-108.233 681.832,-101.432"/>
</g>
<!-- read_counters_rpc&#45;&gt;median -->
<g id="edge18" class="edge"><title>read_counters_rpc&#45;&gt;median</title>
<path fill="none" stroke="black" d="M912.199,-226.355C843.149,-218.703 733.787,-203.999 641.547,-180 638.594,-179.232 635.566,-178.345 632.542,-177.389"/>
<polygon fill="black" stroke="black" points="633.587,-174.048 622.993,-174.154 631.342,-180.677 633.587,-174.048"/>
</g>
<!-- read_counters_rpc&#45;&gt;read_tsc_end -->
<g id="edge16" class="edge"><title>read_counters_rpc&#45;&gt;read_tsc_end</title>
<path fill="none" stroke="black" d="M912.183,-226.38C878.565,-223.167 837.439,-219.297 800.547,-216 610.852,-199.046 561.314,-211.865 373.547,-180 368.571,-179.156 363.421,-178.12 358.293,-176.982"/>
<polygon fill="black" stroke="black" points="359.045,-173.563 348.51,-174.687 357.446,-180.378 359.045,-173.563"/>
</g>
<!-- read_counters_rpc&#45;&gt;read_tsc_start -->
<g id="edge12" class="edge"><title>read_counters_rpc&#45;&gt;read_tsc_start</title>
<path fill="none" stroke="black" d="M913.631,-225.511C828.809,-215.848 678.137,-198.116 549.547,-180 534.717,-177.911 518.76,-175.476 503.813,-173.114"/>
<polygon fill="black" stroke="black" points="504.079,-169.612 493.653,-171.495 502.977,-176.525 504.079,-169.612"/>
</g>
<!-- scratch_buf_memset -->
<g id="node16" class="node"><title>scratch_buf_memset</title>
<ellipse fill="none" stroke="black" cx="788.547" cy="-90" rx="84.485" ry="18"/>
<text text-anchor="middle" x="788.547" y="-86.3" font-family="Times,serif" font-size="14.00">scratch_buf_memset</text>
</g>
<!-- read_counters_rpc&#45;&gt;scratch_buf_memset -->
<g id="edge11" class="edge"><title>read_counters_rpc&#45;&gt;scratch_buf_memset</title>
<path fill="none" stroke="black" d="M1038.03,-222.233C1095.75,-208.952 1171.61,-183.205 1137.55,-144 1100.02,-100.797 939.049,-117.094 882.547,-108 875.204,-106.818 867.549,-105.529 859.916,-104.205"/>
<polygon fill="black" stroke="black" points="860.378,-100.733 849.924,-102.453 859.169,-107.628 860.378,-100.733"/>
</g>
<!-- emit_report_perf_count -->
<g id="node17" class="node"><title>emit_report_perf_count</title>
<ellipse fill="none" stroke="black" cx="2160.55" cy="-162" rx="94.7833" ry="18"/>
<text text-anchor="middle" x="2160.55" y="-158.3" font-family="Times,serif" font-size="14.00">emit_report_perf_count</text>
</g>
<!-- read_counters_rpc&#45;&gt;emit_report_perf_count -->
<g id="edge13" class="edge"><title>read_counters_rpc&#45;&gt;emit_report_perf_count</title>
<path fill="none" stroke="black" d="M1055.78,-232.21C1231.47,-229.728 1682.24,-219.683 2056.55,-180 2065.57,-179.044 2074.99,-177.821 2084.33,-176.47"/>
<polygon fill="black" stroke="black" points="2085.03,-179.904 2094.4,-174.96 2083.99,-172.981 2085.03,-179.904"/>
</g>
<!-- scratch_buf_init -->
<g id="node18" class="node"><title>scratch_buf_init</title>
<ellipse fill="none" stroke="black" cx="884.547" cy="-162" rx="67.6881" ry="18"/>
<text text-anchor="middle" x="884.547" y="-158.3" font-family="Times,serif" font-size="14.00">scratch_buf_init</text>
</g>
<!-- read_counters_rpc&#45;&gt;scratch_buf_init -->
<g id="edge14" class="edge"><title>read_counters_rpc&#45;&gt;scratch_buf_init</title>
<path fill="none" stroke="black" d="M958.282,-216.765C945.438,-207.4 929.105,-195.49 915.077,-185.261"/>
<polygon fill="black" stroke="black" points="916.834,-182.211 906.692,-179.147 912.71,-187.867 916.834,-182.211"/>
</g>
<!-- umedian -->
<g id="node19" class="node"><title>umedian</title>
<ellipse fill="none" stroke="black" cx="1226.55" cy="-162" rx="41.6928" ry="18"/>
<text text-anchor="middle" x="1226.55" y="-158.3" font-family="Times,serif" font-size="14.00">umedian</text>
</g>
<!-- read_counters_rpc&#45;&gt;umedian -->
<g id="edge17" class="edge"><title>read_counters_rpc&#45;&gt;umedian</title>
<path fill="none" stroke="black" d="M1028.26,-220.012C1066.74,-209.462 1122.21,-194.075 1170.55,-180 1174.89,-178.735 1179.42,-177.397 1183.93,-176.047"/>
<polygon fill="black" stroke="black" points="1185.15,-179.336 1193.72,-173.103 1183.13,-172.633 1185.15,-179.336"/>
</g>
<!-- print_reports -->
<g id="node20" class="node"><title>print_reports</title>
<ellipse fill="none" stroke="black" cx="1521.55" cy="-162" rx="55.7903" ry="18"/>
<text text-anchor="middle" x="1521.55" y="-158.3" font-family="Times,serif" font-size="14.00">print_reports</text>
</g>
<!-- read_counters_rpc&#45;&gt;print_reports -->
<g id="edge19" class="edge"><title>read_counters_rpc&#45;&gt;print_reports</title>
<path fill="none" stroke="black" d="M1045,-224.661C1150.34,-211.03 1357.95,-184.168 1460.82,-170.857"/>
<polygon fill="black" stroke="black" points="1461.27,-174.328 1470.74,-169.574 1460.38,-167.386 1461.27,-174.328"/>
</g>
<!-- read_u64_file -->
<g id="node21" class="node"><title>read_u64_file</title>
<ellipse fill="none" stroke="black" cx="1068.55" cy="-162" rx="59.5901" ry="18"/>
<text text-anchor="middle" x="1068.55" y="-158.3" font-family="Times,serif" font-size="14.00">read_u64_file</text>
</g>
<!-- read_counters_rpc&#45;&gt;read_u64_file -->
<g id="edge21" class="edge"><title>read_counters_rpc&#45;&gt;read_u64_file</title>
<path fill="none" stroke="black" d="M1001.4,-216.411C1013.08,-207.125 1027.79,-195.421 1040.46,-185.338"/>
<polygon fill="black" stroke="black" points="1042.8,-187.952 1048.45,-178.988 1038.44,-182.474 1042.8,-187.952"/>
</g>
<!-- emit_report_perf_count&#45;&gt;intel_batchbuffer_emit_dword -->
<g id="edge24" class="edge"><title>emit_report_perf_count&#45;&gt;intel_batchbuffer_emit_dword</title>
<path fill="none" stroke="black" d="M2154.86,-143.697C2152.3,-135.898 2149.21,-126.509 2146.36,-117.829"/>
<polygon fill="black" stroke="black" points="2149.61,-116.512 2143.17,-108.104 2142.96,-118.697 2149.61,-116.512"/>
</g>
<!-- emit_report_perf_count&#45;&gt;intel_batchbuffer_require_space -->
<g id="edge23" class="edge"><title>emit_report_perf_count&#45;&gt;intel_batchbuffer_require_space</title>
<path fill="none" stroke="black" d="M2209.65,-146.496C2246.15,-135.716 2296.21,-120.931 2335.48,-109.332"/>
<polygon fill="black" stroke="black" points="2336.62,-112.646 2345.22,-106.457 2334.63,-105.933 2336.62,-112.646"/>
</g>
<!-- scratch_buf_init&#45;&gt;scratch_buf_memset -->
<g id="edge22" class="edge"><title>scratch_buf_init&#45;&gt;scratch_buf_memset</title>
<path fill="none" stroke="black" d="M862.282,-144.765C849.53,-135.467 833.338,-123.66 819.378,-113.481"/>
<polygon fill="black" stroke="black" points="821.167,-110.454 811.025,-107.39 817.043,-116.11 821.167,-110.454"/>
</g>
<!-- gen8_read_report_reason -->
<g id="node24" class="node"><title>gen8_read_report_reason</title>
<ellipse fill="none" stroke="black" cx="991.547" cy="-90" rx="100.182" ry="18"/>
<text text-anchor="middle" x="991.547" y="-86.3" font-family="Times,serif" font-size="14.00">gen8_read_report_reason</text>
</g>
<!-- print_reports&#45;&gt;gen8_read_report_reason -->
<g id="edge33" class="edge"><title>print_reports&#45;&gt;gen8_read_report_reason</title>
<path fill="none" stroke="black" d="M1469.96,-155.002C1390.52,-145.654 1233.49,-126.731 1100.55,-108 1091.87,-106.777 1082.8,-105.448 1073.78,-104.089"/>
<polygon fill="black" stroke="black" points="1074.03,-100.588 1063.62,-102.548 1072.98,-107.509 1074.03,-100.588"/>
</g>
<!-- get_oa_format -->
<g id="node25" class="node"><title>get_oa_format</title>
<ellipse fill="none" stroke="black" cx="1418.55" cy="-18" rx="62.2891" ry="18"/>
<text text-anchor="middle" x="1418.55" y="-14.3" font-family="Times,serif" font-size="14.00">get_oa_format</text>
</g>
<!-- print_reports&#45;&gt;get_oa_format -->
<g id="edge34" class="edge"><title>print_reports&#45;&gt;get_oa_format</title>
<path fill="none" stroke="black" d="M1573.78,-155.499C1644.13,-146.056 1755.92,-122.659 1713.55,-72 1685.63,-38.6226 1568.29,-26.2357 1490.28,-21.6586"/>
<polygon fill="black" stroke="black" points="1490.2,-18.1488 1480.02,-21.0881 1489.81,-25.138 1490.2,-18.1488"/>
</g>
<!-- gen8_read_40bit_a_counter -->
<g id="node26" class="node"><title>gen8_read_40bit_a_counter</title>
<ellipse fill="none" stroke="black" cx="1418.55" cy="-90" rx="108.581" ry="18"/>
<text text-anchor="middle" x="1418.55" y="-86.3" font-family="Times,serif" font-size="14.00">gen8_read_40bit_a_counter</text>
</g>
<!-- print_reports&#45;&gt;gen8_read_40bit_a_counter -->
<g id="edge35" class="edge"><title>print_reports&#45;&gt;gen8_read_40bit_a_counter</title>
<path fill="none" stroke="black" d="M1498.69,-145.465C1484.92,-136.104 1467.13,-124.021 1451.82,-113.614"/>
<polygon fill="black" stroke="black" points="1453.38,-110.44 1443.14,-107.714 1449.44,-116.23 1453.38,-110.44"/>
</g>
<!-- gen8_40bit_a_delta -->
<g id="node27" class="node"><title>gen8_40bit_a_delta</title>
<ellipse fill="none" stroke="black" cx="1624.55" cy="-90" rx="79.8859" ry="18"/>
<text text-anchor="middle" x="1624.55" y="-86.3" font-family="Times,serif" font-size="14.00">gen8_40bit_a_delta</text>
</g>
<!-- print_reports&#45;&gt;gen8_40bit_a_delta -->
<g id="edge36" class="edge"><title>print_reports&#45;&gt;gen8_40bit_a_delta</title>
<path fill="none" stroke="black" d="M1544.41,-145.465C1558.51,-135.881 1576.81,-123.442 1592.36,-112.872"/>
<polygon fill="black" stroke="black" points="1594.37,-115.737 1600.68,-107.222 1590.44,-109.948 1594.37,-115.737"/>
</g>
<!-- gen8_read_report_clock_ratios -->
<g id="node28" class="node"><title>gen8_read_report_clock_ratios</title>
<ellipse fill="none" stroke="black" cx="1880.55" cy="-90" rx="120.479" ry="18"/>
<text text-anchor="middle" x="1880.55" y="-86.3" font-family="Times,serif" font-size="14.00">gen8_read_report_clock_ratios</text>
</g>
<!-- print_reports&#45;&gt;gen8_read_report_clock_ratios -->
<g id="edge37" class="edge"><title>print_reports&#45;&gt;gen8_read_report_clock_ratios</title>
<path fill="none" stroke="black" d="M1568.11,-151.92C1626.91,-140.456 1729,-120.549 1800.44,-106.621"/>
<polygon fill="black" stroke="black" points="1801.16,-110.046 1810.3,-104.697 1799.82,-103.175 1801.16,-110.046"/>
</g>
<!-- read_counters_mmio -->
<g id="node22" class="node"><title>read_counters_mmio</title>
<ellipse fill="none" stroke="black" cx="705.547" cy="-234" rx="85.5853" ry="18"/>
<text text-anchor="middle" x="705.547" y="-230.3" font-family="Times,serif" font-size="14.00">read_counters_mmio</text>
</g>
<!-- read_counters_mmio&#45;&gt;__perf_open -->
<g id="edge28" class="edge"><title>read_counters_mmio&#45;&gt;__perf_open</title>
<path fill="none" stroke="black" d="M705.547,-215.697C705.547,-207.983 705.547,-198.712 705.547,-190.112"/>
<polygon fill="black" stroke="black" points="709.047,-190.104 705.547,-180.104 702.047,-190.104 709.047,-190.104"/>
</g>
<!-- read_counters_mmio&#45;&gt;__perf_close -->
<g id="edge30" class="edge"><title>read_counters_mmio&#45;&gt;__perf_close</title>
<path fill="none" stroke="black" d="M628.676,-225.81C598.965,-218.838 567.788,-205.462 549.547,-180 540.229,-166.993 541.937,-158.074 549.547,-144 557.689,-128.943 572.176,-117.477 586.669,-109.128"/>
<polygon fill="black" stroke="black" points="588.471,-112.133 595.637,-104.329 585.168,-105.961 588.471,-112.133"/>
</g>
<!-- read_counters_mmio&#45;&gt;read_tsc_end -->
<g id="edge29" class="edge"><title>read_counters_mmio&#45;&gt;read_tsc_end</title>
<path fill="none" stroke="black" d="M634.925,-223.685C567.474,-214.326 463.121,-198.643 373.547,-180 368.87,-179.027 364.027,-177.937 359.186,-176.793"/>
<polygon fill="black" stroke="black" points="359.851,-173.353 349.306,-174.386 358.194,-180.154 359.851,-173.353"/>
</g>
<!-- read_counters_mmio&#45;&gt;read_tsc_start -->
<g id="edge26" class="edge"><title>read_counters_mmio&#45;&gt;read_tsc_start</title>
<path fill="none" stroke="black" d="M654.526,-219.42C608.88,-207.271 542.211,-189.526 495.873,-177.193"/>
<polygon fill="black" stroke="black" points="496.582,-173.76 486.018,-174.57 494.781,-180.524 496.582,-173.76"/>
</g>
<!-- read_counters_mmio&#45;&gt;scratch_buf_memset -->
<g id="edge25" class="edge"><title>read_counters_mmio&#45;&gt;scratch_buf_memset</title>
<path fill="none" stroke="black" d="M732.623,-216.784C745.709,-207.586 760.502,-194.93 769.547,-180 780.84,-161.362 785.479,-136.972 787.357,-118.438"/>
<polygon fill="black" stroke="black" points="790.86,-118.539 788.173,-108.291 783.882,-117.978 790.86,-118.539"/>
</g>
<!-- read_counters_mmio&#45;&gt;scratch_buf_init -->
<g id="edge27" class="edge"><title>read_counters_mmio&#45;&gt;scratch_buf_init</title>
<path fill="none" stroke="black" d="M744.388,-217.811C772.102,-206.973 809.479,-192.356 838.665,-180.943"/>
<polygon fill="black" stroke="black" points="840.184,-184.107 848.223,-177.205 837.635,-177.588 840.184,-184.107"/>
</g>
<!-- read_counters_mmio&#45;&gt;read_u64_file -->
<g id="edge31" class="edge"><title>read_counters_mmio&#45;&gt;read_u64_file</title>
<path fill="none" stroke="black" d="M766.305,-221.284C833.977,-208.234 942.631,-187.281 1009.57,-174.373"/>
<polygon fill="black" stroke="black" points="1010.38,-177.781 1019.54,-172.45 1009.06,-170.907 1010.38,-177.781"/>
</g>
<!-- gen8_read_40bit_a_counter&#45;&gt;get_oa_format -->
<g id="edge46" class="edge"><title>gen8_read_40bit_a_counter&#45;&gt;get_oa_format</title>
<path fill="none" stroke="black" d="M1418.55,-71.6966C1418.55,-63.9827 1418.55,-54.7125 1418.55,-46.1124"/>
<polygon fill="black" stroke="black" points="1422.05,-46.1043 1418.55,-36.1043 1415.05,-46.1044 1422.05,-46.1043"/>
</g>
<!-- max_oa_exponent_for_freq_gt -->
<g id="node29" class="node"><title>max_oa_exponent_for_freq_gt</title>
<ellipse fill="none" stroke="black" cx="2661.55" cy="-234" rx="120.479" ry="18"/>
<text text-anchor="middle" x="2661.55" y="-230.3" font-family="Times,serif" font-size="14.00">max_oa_exponent_for_freq_gt</text>
</g>
<!-- max_oa_exponent_for_period_lte -->
<g id="node30" class="node"><title>max_oa_exponent_for_period_lte</title>
<ellipse fill="none" stroke="black" cx="2661.55" cy="-162" rx="129.977" ry="18"/>
<text text-anchor="middle" x="2661.55" y="-158.3" font-family="Times,serif" font-size="14.00">max_oa_exponent_for_period_lte</text>
</g>
<!-- max_oa_exponent_for_freq_gt&#45;&gt;max_oa_exponent_for_period_lte -->
<g id="edge38" class="edge"><title>max_oa_exponent_for_freq_gt&#45;&gt;max_oa_exponent_for_period_lte</title>
<path fill="none" stroke="black" d="M2661.55,-215.697C2661.55,-207.983 2661.55,-198.712 2661.55,-190.112"/>
<polygon fill="black" stroke="black" points="2665.05,-190.104 2661.55,-180.104 2658.05,-190.104 2665.05,-190.104"/>
</g>
<!-- timebase_scale -->
<g id="node34" class="node"><title>timebase_scale</title>
<ellipse fill="none" stroke="black" cx="2661.55" cy="-90" rx="64.189" ry="18"/>
<text text-anchor="middle" x="2661.55" y="-86.3" font-family="Times,serif" font-size="14.00">timebase_scale</text>
</g>
<!-- max_oa_exponent_for_period_lte&#45;&gt;timebase_scale -->
<g id="edge47" class="edge"><title>max_oa_exponent_for_period_lte&#45;&gt;timebase_scale</title>
<path fill="none" stroke="black" d="M2661.55,-143.697C2661.55,-135.983 2661.55,-126.712 2661.55,-118.112"/>
<polygon fill="black" stroke="black" points="2665.05,-118.104 2661.55,-108.104 2658.05,-118.104 2665.05,-118.104"/>
</g>
<!-- hsw_read_report_ticks -->
<g id="node31" class="node"><title>hsw_read_report_ticks</title>
<ellipse fill="none" stroke="black" cx="1200.55" cy="-90" rx="90.9839" ry="18"/>
<text text-anchor="middle" x="1200.55" y="-86.3" font-family="Times,serif" font-size="14.00">hsw_read_report_ticks</text>
</g>
<!-- hsw_read_report_ticks&#45;&gt;get_oa_format -->
<g id="edge39" class="edge"><title>hsw_read_report_ticks&#45;&gt;get_oa_format</title>
<path fill="none" stroke="black" d="M1246.25,-74.3257C1282.12,-62.8068 1331.99,-46.7929 1368.85,-34.9566"/>
<polygon fill="black" stroke="black" points="1369.95,-38.2795 1378.41,-31.8897 1367.81,-31.6146 1369.95,-38.2795"/>
</g>
<!-- emit_stall_timestamp_and_rpc -->
<g id="node32" class="node"><title>emit_stall_timestamp_and_rpc</title>
<ellipse fill="none" stroke="black" cx="2160.55" cy="-234" rx="120.479" ry="18"/>
<text text-anchor="middle" x="2160.55" y="-230.3" font-family="Times,serif" font-size="14.00">emit_stall_timestamp_and_rpc</text>
</g>
<!-- emit_stall_timestamp_and_rpc&#45;&gt;intel_batchbuffer_emit_dword -->
<g id="edge40" class="edge"><title>emit_stall_timestamp_and_rpc&#45;&gt;intel_batchbuffer_emit_dword</title>
<path fill="none" stroke="black" d="M2044.61,-229.143C1964.06,-223.738 1866.68,-210.816 1840.55,-180 1830.2,-167.797 1830.28,-156.267 1840.55,-144 1847.25,-135.997 1960.8,-117.405 2045.52,-104.517"/>
<polygon fill="black" stroke="black" points="2046.07,-107.973 2055.43,-103.015 2045.02,-101.052 2046.07,-107.973"/>
</g>
<!-- emit_stall_timestamp_and_rpc&#45;&gt;intel_batchbuffer_require_space -->
<g id="edge42" class="edge"><title>emit_stall_timestamp_and_rpc&#45;&gt;intel_batchbuffer_require_space</title>
<path fill="none" stroke="black" d="M2258.1,-223.421C2348.06,-213.58 2469.85,-197.293 2484.55,-180 2494.91,-167.807 2492.38,-157.95 2484.55,-144 2476.87,-130.339 2464.09,-119.786 2450.66,-111.826"/>
<polygon fill="black" stroke="black" points="2452.23,-108.698 2441.78,-106.962 2448.87,-114.837 2452.23,-108.698"/>
</g>
<!-- emit_stall_timestamp_and_rpc&#45;&gt;emit_report_perf_count -->
<g id="edge41" class="edge"><title>emit_stall_timestamp_and_rpc&#45;&gt;emit_report_perf_count</title>
<path fill="none" stroke="black" d="M2160.55,-215.697C2160.55,-207.983 2160.55,-198.712 2160.55,-190.112"/>
<polygon fill="black" stroke="black" points="2164.05,-190.104 2160.55,-180.104 2157.05,-190.104 2164.05,-190.104"/>
</g>
<!-- send_mi_store_reg_mem -->
<g id="node33" class="node"><title>send_mi_store_reg_mem</title>
<ellipse fill="none" stroke="black" cx="2374.55" cy="-162" rx="100.983" ry="18"/>
<text text-anchor="middle" x="2374.55" y="-158.3" font-family="Times,serif" font-size="14.00">send_mi_store_reg_mem</text>
</g>
<!-- send_mi_store_reg_mem&#45;&gt;intel_batchbuffer_emit_dword -->
<g id="edge44" class="edge"><title>send_mi_store_reg_mem&#45;&gt;intel_batchbuffer_emit_dword</title>
<path fill="none" stroke="black" d="M2324.86,-146.326C2288.2,-135.497 2238.09,-120.696 2198.92,-109.127"/>
<polygon fill="black" stroke="black" points="2199.8,-105.736 2189.21,-106.26 2197.81,-112.449 2199.8,-105.736"/>
</g>
<!-- send_mi_store_reg_mem&#45;&gt;intel_batchbuffer_require_space -->
<g id="edge43" class="edge"><title>send_mi_store_reg_mem&#45;&gt;intel_batchbuffer_require_space</title>
<path fill="none" stroke="black" d="M2380.23,-143.697C2382.8,-135.898 2385.88,-126.509 2388.73,-117.829"/>
<polygon fill="black" stroke="black" points="2392.13,-118.697 2391.93,-108.104 2385.48,-116.512 2392.13,-118.697"/>
</g>
<!-- init_sys_info -->
<g id="node35" class="node"><title>init_sys_info</title>
<ellipse fill="none" stroke="black" cx="2410.55" cy="-234" rx="56.59" ry="18"/>
<text text-anchor="middle" x="2410.55" y="-230.3" font-family="Times,serif" font-size="14.00">init_sys_info</text>
</g>
<!-- init_sys_info&#45;&gt;read_u64_file -->
<g id="edge48" class="edge"><title>init_sys_info&#45;&gt;read_u64_file</title>
<path fill="none" stroke="black" d="M2361.52,-224.895C2339.57,-221.58 2313.32,-218.049 2289.55,-216 1796.01,-173.479 1668.69,-226.956 1175.55,-180 1160.03,-178.523 1143.35,-176.221 1127.89,-173.783"/>
<polygon fill="black" stroke="black" points="1128.36,-170.314 1117.93,-172.169 1127.24,-177.223 1128.36,-170.314"/>
</g>
<!-- init_sys_info&#45;&gt;max_oa_exponent_for_period_lte -->
<g id="edge49" class="edge"><title>init_sys_info&#45;&gt;max_oa_exponent_for_period_lte</title>
<path fill="none" stroke="black" d="M2451.71,-221.519C2490.97,-210.57 2550.73,-193.906 2596.44,-181.157"/>
<polygon fill="black" stroke="black" points="2597.57,-184.475 2606.26,-178.417 2595.69,-177.733 2597.57,-184.475"/>
</g>
<!-- print_binary -->
<g id="node36" class="node"><title>print_binary</title>
<ellipse fill="none" stroke="black" cx="3067.55" cy="-234" rx="53.8905" ry="18"/>
<text text-anchor="middle" x="3067.55" y="-230.3" font-family="Times,serif" font-size="14.00">print_binary</text>
</g>
<!-- read_i915_module_ref -->
<g id="node37" class="node"><title>read_i915_module_ref</title>
<ellipse fill="none" stroke="black" cx="3230.55" cy="-234" rx="90.9839" ry="18"/>
<text text-anchor="middle" x="3230.55" y="-230.3" font-family="Times,serif" font-size="14.00">read_i915_module_ref</text>
</g>
<!-- fmedian -->
<g id="node38" class="node"><title>fmedian</title>
<ellipse fill="none" stroke="black" cx="3379.55" cy="-234" rx="40.0939" ry="18"/>
<text text-anchor="middle" x="3379.55" y="-230.3" font-family="Times,serif" font-size="14.00">fmedian</text>
</g>
<!-- print_report_card -->
<g id="node39" class="node"><title>print_report_card</title>
<ellipse fill="none" stroke="black" cx="3509.55" cy="-234" rx="72.2875" ry="18"/>
<text text-anchor="middle" x="3509.55" y="-230.3" font-family="Times,serif" font-size="14.00">print_report_card</text>
</g>
<!-- gen8_read_report_ticks -->
<g id="node40" class="node"><title>gen8_read_report_ticks</title>
<ellipse fill="none" stroke="black" cx="3693.55" cy="-234" rx="93.6835" ry="18"/>
<text text-anchor="middle" x="3693.55" y="-230.3" font-family="Times,serif" font-size="14.00">gen8_read_report_ticks</text>
</g>
<!-- i915_perf_remove_config -->
<g id="node41" class="node"><title>i915_perf_remove_config</title>
<ellipse fill="none" stroke="black" cx="3907.55" cy="-234" rx="102.882" ry="18"/>
<text text-anchor="middle" x="3907.55" y="-230.3" font-family="Times,serif" font-size="14.00">i915_perf_remove_config</text>
</g>
<!-- write_u64_file -->
<g id="node42" class="node"><title>write_u64_file</title>
<ellipse fill="none" stroke="black" cx="4090.55" cy="-234" rx="62.2891" ry="18"/>
<text text-anchor="middle" x="4090.55" y="-230.3" font-family="Times,serif" font-size="14.00">write_u64_file</text>
</g>
<!-- profile_through_opencl -->
<g id="node43" class="node"><title>profile_through_opencl</title>
<ellipse fill="none" stroke="black" cx="4264.55" cy="-234" rx="93.6835" ry="18"/>
<text text-anchor="middle" x="4264.55" y="-230.3" font-family="Times,serif" font-size="14.00">profile_through_opencl</text>
</g>
<!-- oa_report_is_periodic -->
<g id="node44" class="node"><title>oa_report_is_periodic</title>
<ellipse fill="none" stroke="black" cx="4463.55" cy="-234" rx="87.9851" ry="18"/>
<text text-anchor="middle" x="4463.55" y="-230.3" font-family="Times,serif" font-size="14.00">oa_report_is_periodic</text>
</g>
<!-- oa_exponent_to_ns -->
<g id="node45" class="node"><title>oa_exponent_to_ns</title>
<ellipse fill="none" stroke="black" cx="4648.55" cy="-234" rx="79.0865" ry="18"/>
<text text-anchor="middle" x="4648.55" y="-230.3" font-family="Times,serif" font-size="14.00">oa_exponent_to_ns</text>
</g>
<!-- create_filtering_word -->
<g id="node46" class="node"><title>create_filtering_word</title>
<ellipse fill="none" stroke="black" cx="4832.55" cy="-234" rx="87.1846" ry="18"/>
<text text-anchor="middle" x="4832.55" y="-230.3" font-family="Times,serif" font-size="14.00">create_filtering_word</text>
</g>
</g>
</svg>
