<?xml version="1.0" encoding="UTF-8" standalone="no"?>
<!DOCTYPE svg PUBLIC "-//W3C//DTD SVG 1.1//EN"
 "http://www.w3.org/Graphics/SVG/1.1/DTD/svg11.dtd">
<!-- Generated by graphviz version 2.38.0 (20140413.2041)
 -->
<!-- Title: callgraph Pages: 1 -->
<svg width="4848pt" height="260pt"
 viewBox="0.00 0.00 4847.58 260.00" xmlns="http://www.w3.org/2000/svg" xmlns:xlink="http://www.w3.org/1999/xlink">
<g id="graph0" class="graph" transform="scale(1 1) rotate(0) translate(4 256)">
<title>callgraph</title>
<polygon fill="white" stroke="none" points="-4,4 -4,-256 4843.58,-256 4843.58,4 -4,4"/>
<!-- i915_perf_add_config -->
<g id="node1" class="node"><title>i915_perf_add_config</title>
<ellipse fill="none" stroke="black" cx="97.4913" cy="-234" rx="89.0842" ry="18"/>
<text text-anchor="middle" x="97.4913" y="-230.3" font-family="Times,serif" font-size="14.00">i915_perf_add_config</text>
</g>
<!-- __i915_perf_add_config -->
<g id="node2" class="node"><title>__i915_perf_add_config</title>
<ellipse fill="none" stroke="black" cx="97.4913" cy="-162" rx="97.4827" ry="18"/>
<text text-anchor="middle" x="97.4913" y="-158.3" font-family="Times,serif" font-size="14.00">__i915_perf_add_config</text>
</g>
<!-- i915_perf_add_config&#45;&gt;__i915_perf_add_config -->
<g id="edge1" class="edge"><title>i915_perf_add_config&#45;&gt;__i915_perf_add_config</title>
<path fill="none" stroke="black" d="M97.4913,-215.697C97.4913,-207.983 97.4913,-198.712 97.4913,-190.112"/>
<polygon fill="black" stroke="black" points="100.991,-190.104 97.4913,-180.104 93.9914,-190.104 100.991,-190.104"/>
</g>
<!-- intel_batchbuffer_require_space -->
<g id="node3" class="node"><title>intel_batchbuffer_require_space</title>
<ellipse fill="none" stroke="black" cx="605.491" cy="-90" rx="124.278" ry="18"/>
<text text-anchor="middle" x="605.491" y="-86.3" font-family="Times,serif" font-size="14.00">intel_batchbuffer_require_space</text>
</g>
<!-- intel_batchbuffer_space -->
<g id="node4" class="node"><title>intel_batchbuffer_space</title>
<ellipse fill="none" stroke="black" cx="475.491" cy="-18" rx="94.7833" ry="18"/>
<text text-anchor="middle" x="475.491" y="-14.3" font-family="Times,serif" font-size="14.00">intel_batchbuffer_space</text>
</g>
<!-- intel_batchbuffer_require_space&#45;&gt;intel_batchbuffer_space -->
<g id="edge2" class="edge"><title>intel_batchbuffer_require_space&#45;&gt;intel_batchbuffer_space</title>
<path fill="none" stroke="black" d="M574.683,-72.411C556.664,-62.7082 533.743,-50.3664 514.475,-39.9915"/>
<polygon fill="black" stroke="black" points="516.094,-36.8879 505.63,-35.2285 512.775,-43.0512 516.094,-36.8879"/>
</g>
<!-- gen8_read_40bit_a_counter -->
<g id="node5" class="node"><title>gen8_read_40bit_a_counter</title>
<ellipse fill="none" stroke="black" cx="1509.49" cy="-90" rx="108.581" ry="18"/>
<text text-anchor="middle" x="1509.49" y="-86.3" font-family="Times,serif" font-size="14.00">gen8_read_40bit_a_counter</text>
</g>
<!-- get_oa_format -->
<g id="node6" class="node"><title>get_oa_format</title>
<ellipse fill="none" stroke="black" cx="1646.49" cy="-18" rx="62.2891" ry="18"/>
<text text-anchor="middle" x="1646.49" y="-14.3" font-family="Times,serif" font-size="14.00">get_oa_format</text>
</g>
<!-- gen8_read_40bit_a_counter&#45;&gt;get_oa_format -->
<g id="edge3" class="edge"><title>gen8_read_40bit_a_counter&#45;&gt;get_oa_format</title>
<path fill="none" stroke="black" d="M1541.27,-72.7646C1561.23,-62.5619 1587.11,-49.3388 1608.21,-38.5595"/>
<polygon fill="black" stroke="black" points="1609.92,-41.6191 1617.23,-33.9523 1606.73,-35.3856 1609.92,-41.6191"/>
</g>
<!-- scratch_buf_init -->
<g id="node7" class="node"><title>scratch_buf_init</title>
<ellipse fill="none" stroke="black" cx="1752.49" cy="-162" rx="67.6881" ry="18"/>
<text text-anchor="middle" x="1752.49" y="-158.3" font-family="Times,serif" font-size="14.00">scratch_buf_init</text>
</g>
<!-- scratch_buf_memset -->
<g id="node8" class="node"><title>scratch_buf_memset</title>
<ellipse fill="none" stroke="black" cx="2088.49" cy="-90" rx="84.485" ry="18"/>
<text text-anchor="middle" x="2088.49" y="-86.3" font-family="Times,serif" font-size="14.00">scratch_buf_memset</text>
</g>
<!-- scratch_buf_init&#45;&gt;scratch_buf_memset -->
<g id="edge4" class="edge"><title>scratch_buf_init&#45;&gt;scratch_buf_memset</title>
<path fill="none" stroke="black" d="M1802.34,-149.708C1811.05,-147.776 1820.03,-145.809 1828.49,-144 1892.93,-130.227 1966.52,-115.3 2018.93,-104.808"/>
<polygon fill="black" stroke="black" points="2019.67,-108.229 2028.79,-102.836 2018.3,-101.365 2019.67,-108.229"/>
</g>
<!-- intel_batchbuffer_emit_dword -->
<g id="node9" class="node"><title>intel_batchbuffer_emit_dword</title>
<ellipse fill="none" stroke="black" cx="345.491" cy="-90" rx="118.079" ry="18"/>
<text text-anchor="middle" x="345.491" y="-86.3" font-family="Times,serif" font-size="14.00">intel_batchbuffer_emit_dword</text>
</g>
<!-- intel_batchbuffer_emit_dword&#45;&gt;intel_batchbuffer_space -->
<g id="edge5" class="edge"><title>intel_batchbuffer_emit_dword&#45;&gt;intel_batchbuffer_space</title>
<path fill="none" stroke="black" d="M375.971,-72.5881C393.981,-62.89 416.973,-50.5096 436.32,-40.0923"/>
<polygon fill="black" stroke="black" points="438.058,-43.1318 445.203,-35.3091 434.739,-36.9685 438.058,-43.1318"/>
</g>
<!-- measure_overheads -->
<g id="node10" class="node"><title>measure_overheads</title>
<ellipse fill="none" stroke="black" cx="2329.49" cy="-234" rx="80.6858" ry="18"/>
<text text-anchor="middle" x="2329.49" y="-230.3" font-family="Times,serif" font-size="14.00">measure_overheads</text>
</g>
<!-- read_tsc_start -->
<g id="node11" class="node"><title>read_tsc_start</title>
<ellipse fill="none" stroke="black" cx="1897.49" cy="-162" rx="59.5901" ry="18"/>
<text text-anchor="middle" x="1897.49" y="-158.3" font-family="Times,serif" font-size="14.00">read_tsc_start</text>
</g>
<!-- measure_overheads&#45;&gt;read_tsc_start -->
<g id="edge6" class="edge"><title>measure_overheads&#45;&gt;read_tsc_start</title>
<path fill="none" stroke="black" d="M2259.9,-224.868C2186.58,-215.827 2067.9,-199.848 1966.49,-180 1961.47,-179.018 1956.27,-177.909 1951.08,-176.739"/>
<polygon fill="black" stroke="black" points="1951.68,-173.286 1941.15,-174.432 1950.1,-180.104 1951.68,-173.286"/>
</g>
<!-- umin -->
<g id="node12" class="node"><title>umin</title>
<ellipse fill="none" stroke="black" cx="2442.49" cy="-162" rx="29.4969" ry="18"/>
<text text-anchor="middle" x="2442.49" y="-158.3" font-family="Times,serif" font-size="14.00">umin</text>
</g>
<!-- measure_overheads&#45;&gt;umin -->
<g id="edge7" class="edge"><title>measure_overheads&#45;&gt;umin</title>
<path fill="none" stroke="black" d="M2355.42,-216.941C2372.84,-206.148 2395.81,-191.916 2413.79,-180.781"/>
<polygon fill="black" stroke="black" points="2416.02,-183.517 2422.68,-175.275 2412.33,-177.566 2416.02,-183.517"/>
</g>
<!-- median -->
<g id="node13" class="node"><title>median</title>
<ellipse fill="none" stroke="black" cx="2144.49" cy="-162" rx="37.0935" ry="18"/>
<text text-anchor="middle" x="2144.49" y="-158.3" font-family="Times,serif" font-size="14.00">median</text>
</g>
<!-- measure_overheads&#45;&gt;median -->
<g id="edge8" class="edge"><title>measure_overheads&#45;&gt;median</title>
<path fill="none" stroke="black" d="M2290.26,-218.155C2258.48,-206.132 2213.99,-189.296 2182.54,-177.395"/>
<polygon fill="black" stroke="black" points="2183.41,-173.983 2172.82,-173.717 2180.93,-180.53 2183.41,-173.983"/>
</g>
<!-- umax -->
<g id="node14" class="node"><title>umax</title>
<ellipse fill="none" stroke="black" cx="2520.49" cy="-162" rx="30.5947" ry="18"/>
<text text-anchor="middle" x="2520.49" y="-158.3" font-family="Times,serif" font-size="14.00">umax</text>
</g>
<!-- measure_overheads&#45;&gt;umax -->
<g id="edge9" class="edge"><title>measure_overheads&#45;&gt;umax</title>
<path fill="none" stroke="black" d="M2372.72,-218.652C2403.06,-208.381 2444.48,-193.955 2480.49,-180 2482.69,-179.149 2484.94,-178.252 2487.21,-177.334"/>
<polygon fill="black" stroke="black" points="2488.58,-180.557 2496.48,-173.5 2485.9,-174.088 2488.58,-180.557"/>
</g>
<!-- average -->
<g id="node15" class="node"><title>average</title>
<ellipse fill="none" stroke="black" cx="2607.49" cy="-162" rx="38.1938" ry="18"/>
<text text-anchor="middle" x="2607.49" y="-158.3" font-family="Times,serif" font-size="14.00">average</text>
</g>
<!-- measure_overheads&#45;&gt;average -->
<g id="edge10" class="edge"><title>measure_overheads&#45;&gt;average</title>
<path fill="none" stroke="black" d="M2388.39,-221.549C2435.37,-211.92 2502.67,-197.023 2560.49,-180 2563.39,-179.145 2566.38,-178.208 2569.37,-177.227"/>
<polygon fill="black" stroke="black" points="2570.51,-180.535 2578.84,-173.988 2568.25,-173.911 2570.51,-180.535"/>
</g>
<!-- read_tsc_end -->
<g id="node16" class="node"><title>read_tsc_end</title>
<ellipse fill="none" stroke="black" cx="2032.49" cy="-162" rx="57.3905" ry="18"/>
<text text-anchor="middle" x="2032.49" y="-158.3" font-family="Times,serif" font-size="14.00">read_tsc_end</text>
</g>
<!-- measure_overheads&#45;&gt;read_tsc_end -->
<g id="edge11" class="edge"><title>measure_overheads&#45;&gt;read_tsc_end</title>
<path fill="none" stroke="black" d="M2274.32,-220.774C2227.46,-210.287 2158.46,-194.6 2098.49,-180 2094.1,-178.932 2089.56,-177.805 2085,-176.66"/>
<polygon fill="black" stroke="black" points="2085.61,-173.203 2075.05,-174.14 2083.89,-179.988 2085.61,-173.203"/>
</g>
<!-- max_oa_exponent_for_period_lte -->
<g id="node17" class="node"><title>max_oa_exponent_for_period_lte</title>
<ellipse fill="none" stroke="black" cx="2793.49" cy="-162" rx="129.977" ry="18"/>
<text text-anchor="middle" x="2793.49" y="-158.3" font-family="Times,serif" font-size="14.00">max_oa_exponent_for_period_lte</text>
</g>
<!-- timebase_scale -->
<g id="node18" class="node"><title>timebase_scale</title>
<ellipse fill="none" stroke="black" cx="2793.49" cy="-90" rx="64.189" ry="18"/>
<text text-anchor="middle" x="2793.49" y="-86.3" font-family="Times,serif" font-size="14.00">timebase_scale</text>
</g>
<!-- max_oa_exponent_for_period_lte&#45;&gt;timebase_scale -->
<g id="edge12" class="edge"><title>max_oa_exponent_for_period_lte&#45;&gt;timebase_scale</title>
<path fill="none" stroke="black" d="M2793.49,-143.697C2793.49,-135.983 2793.49,-126.712 2793.49,-118.112"/>
<polygon fill="black" stroke="black" points="2796.99,-118.104 2793.49,-108.104 2789.99,-118.104 2796.99,-118.104"/>
</g>
<!-- init_sys_info -->
<g id="node19" class="node"><title>init_sys_info</title>
<ellipse fill="none" stroke="black" cx="2541.49" cy="-234" rx="56.59" ry="18"/>
<text text-anchor="middle" x="2541.49" y="-230.3" font-family="Times,serif" font-size="14.00">init_sys_info</text>
</g>
<!-- init_sys_info&#45;&gt;max_oa_exponent_for_period_lte -->
<g id="edge13" class="edge"><title>init_sys_info&#45;&gt;max_oa_exponent_for_period_lte</title>
<path fill="none" stroke="black" d="M2582.54,-221.597C2622.04,-210.625 2682.39,-193.862 2728.43,-181.071"/>
<polygon fill="black" stroke="black" points="2729.63,-184.373 2738.33,-178.324 2727.75,-177.628 2729.63,-184.373"/>
</g>
<!-- read_u64_file -->
<g id="node20" class="node"><title>read_u64_file</title>
<ellipse fill="none" stroke="black" cx="2259.49" cy="-162" rx="59.5901" ry="18"/>
<text text-anchor="middle" x="2259.49" y="-158.3" font-family="Times,serif" font-size="14.00">read_u64_file</text>
</g>
<!-- init_sys_info&#45;&gt;read_u64_file -->
<g id="edge14" class="edge"><title>init_sys_info&#45;&gt;read_u64_file</title>
<path fill="none" stroke="black" d="M2498.35,-222.292C2448.82,-209.998 2367.5,-189.811 2313.73,-176.463"/>
<polygon fill="black" stroke="black" points="2314.57,-173.066 2304.02,-174.053 2312.88,-179.859 2314.57,-173.066"/>
</g>
<!-- send_mi_load_reg_mem -->
<g id="node21" class="node"><title>send_mi_load_reg_mem</title>
<ellipse fill="none" stroke="black" cx="557.491" cy="-162" rx="98.5829" ry="18"/>
<text text-anchor="middle" x="557.491" y="-158.3" font-family="Times,serif" font-size="14.00">send_mi_load_reg_mem</text>
</g>
<!-- send_mi_load_reg_mem&#45;&gt;intel_batchbuffer_require_space -->
<g id="edge16" class="edge"><title>send_mi_load_reg_mem&#45;&gt;intel_batchbuffer_require_space</title>
<path fill="none" stroke="black" d="M569.111,-144.055C574.746,-135.837 581.635,-125.791 587.896,-116.66"/>
<polygon fill="black" stroke="black" points="590.877,-118.502 593.645,-108.275 585.104,-114.543 590.877,-118.502"/>
</g>
<!-- send_mi_load_reg_mem&#45;&gt;intel_batchbuffer_emit_dword -->
<g id="edge15" class="edge"><title>send_mi_load_reg_mem&#45;&gt;intel_batchbuffer_emit_dword</title>
<path fill="none" stroke="black" d="M512.012,-145.983C480.01,-135.416 436.94,-121.195 402.62,-109.863"/>
<polygon fill="black" stroke="black" points="403.324,-106.41 392.731,-106.598 401.13,-113.057 403.324,-106.41"/>
</g>
<!-- hsw_read_report_ticks -->
<g id="node22" class="node"><title>hsw_read_report_ticks</title>
<ellipse fill="none" stroke="black" cx="1765.49" cy="-90" rx="90.9839" ry="18"/>
<text text-anchor="middle" x="1765.49" y="-86.3" font-family="Times,serif" font-size="14.00">hsw_read_report_ticks</text>
</g>
<!-- hsw_read_report_ticks&#45;&gt;get_oa_format -->
<g id="edge17" class="edge"><title>hsw_read_report_ticks&#45;&gt;get_oa_format</title>
<path fill="none" stroke="black" d="M1737.89,-72.7646C1721.17,-62.9283 1699.67,-50.2845 1681.73,-39.7298"/>
<polygon fill="black" stroke="black" points="1683.11,-36.4802 1672.72,-34.4268 1679.56,-42.5138 1683.11,-36.4802"/>
</g>
<!-- print_reports -->
<g id="node23" class="node"><title>print_reports</title>
<ellipse fill="none" stroke="black" cx="1406.49" cy="-162" rx="55.7903" ry="18"/>
<text text-anchor="middle" x="1406.49" y="-158.3" font-family="Times,serif" font-size="14.00">print_reports</text>
</g>
<!-- print_reports&#45;&gt;gen8_read_40bit_a_counter -->
<g id="edge22" class="edge"><title>print_reports&#45;&gt;gen8_read_40bit_a_counter</title>
<path fill="none" stroke="black" d="M1429.35,-145.465C1443.12,-136.104 1460.9,-124.021 1476.22,-113.614"/>
<polygon fill="black" stroke="black" points="1478.59,-116.23 1484.9,-107.714 1474.66,-110.44 1478.59,-116.23"/>
</g>
<!-- print_reports&#45;&gt;get_oa_format -->
<g id="edge19" class="edge"><title>print_reports&#45;&gt;get_oa_format</title>
<path fill="none" stroke="black" d="M1449.8,-150.452C1458.63,-148.31 1467.86,-146.077 1476.49,-144 1543.57,-127.859 1579.29,-157.36 1627.49,-108 1643.23,-91.8817 1647.33,-66.1065 1647.88,-46.4332"/>
<polygon fill="black" stroke="black" points="1651.38,-46.2272 1647.86,-36.2315 1644.38,-46.2358 1651.38,-46.2272"/>
</g>
<!-- gen8_read_report_clock_ratios -->
<g id="node24" class="node"><title>gen8_read_report_clock_ratios</title>
<ellipse fill="none" stroke="black" cx="867.491" cy="-90" rx="120.479" ry="18"/>
<text text-anchor="middle" x="867.491" y="-86.3" font-family="Times,serif" font-size="14.00">gen8_read_report_clock_ratios</text>
</g>
<!-- print_reports&#45;&gt;gen8_read_report_clock_ratios -->
<g id="edge18" class="edge"><title>print_reports&#45;&gt;gen8_read_report_clock_ratios</title>
<path fill="none" stroke="black" d="M1366.42,-149.333C1358.54,-147.329 1350.29,-145.433 1342.49,-144 1190.43,-116.069 1150.04,-126.102 996.491,-108 985.842,-106.745 974.707,-105.37 963.632,-103.964"/>
<polygon fill="black" stroke="black" points="963.857,-100.465 953.494,-102.667 962.968,-107.408 963.857,-100.465"/>
</g>
<!-- gen8_read_report_reason -->
<g id="node25" class="node"><title>gen8_read_report_reason</title>
<ellipse fill="none" stroke="black" cx="1105.49" cy="-90" rx="100.182" ry="18"/>
<text text-anchor="middle" x="1105.49" y="-86.3" font-family="Times,serif" font-size="14.00">gen8_read_report_reason</text>
</g>
<!-- print_reports&#45;&gt;gen8_read_report_reason -->
<g id="edge20" class="edge"><title>print_reports&#45;&gt;gen8_read_report_reason</title>
<path fill="none" stroke="black" d="M1365.24,-149.785C1357.69,-147.805 1349.86,-145.802 1342.49,-144 1287.24,-130.49 1224.41,-116.501 1177.32,-106.289"/>
<polygon fill="black" stroke="black" points="1178.04,-102.863 1167.53,-104.169 1176.56,-109.704 1178.04,-102.863"/>
</g>
<!-- gen8_40bit_a_delta -->
<g id="node26" class="node"><title>gen8_40bit_a_delta</title>
<ellipse fill="none" stroke="black" cx="1303.49" cy="-90" rx="79.8859" ry="18"/>
<text text-anchor="middle" x="1303.49" y="-86.3" font-family="Times,serif" font-size="14.00">gen8_40bit_a_delta</text>
</g>
<!-- print_reports&#45;&gt;gen8_40bit_a_delta -->
<g id="edge21" class="edge"><title>print_reports&#45;&gt;gen8_40bit_a_delta</title>
<path fill="none" stroke="black" d="M1383.63,-145.465C1369.53,-135.881 1351.23,-123.442 1335.67,-112.872"/>
<polygon fill="black" stroke="black" points="1337.6,-109.948 1327.36,-107.222 1333.66,-115.737 1337.6,-109.948"/>
</g>
<!-- send_mi_store_reg_mem -->
<g id="node27" class="node"><title>send_mi_store_reg_mem</title>
<ellipse fill="none" stroke="black" cx="775.491" cy="-162" rx="100.983" ry="18"/>
<text text-anchor="middle" x="775.491" y="-158.3" font-family="Times,serif" font-size="14.00">send_mi_store_reg_mem</text>
</g>
<!-- send_mi_store_reg_mem&#45;&gt;intel_batchbuffer_require_space -->
<g id="edge23" class="edge"><title>send_mi_store_reg_mem&#45;&gt;intel_batchbuffer_require_space</title>
<path fill="none" stroke="black" d="M737.34,-145.291C712.753,-135.167 680.562,-121.911 654.142,-111.033"/>
<polygon fill="black" stroke="black" points="655.274,-107.714 644.695,-107.142 652.609,-114.186 655.274,-107.714"/>
</g>
<!-- send_mi_store_reg_mem&#45;&gt;intel_batchbuffer_emit_dword -->
<g id="edge24" class="edge"><title>send_mi_store_reg_mem&#45;&gt;intel_batchbuffer_emit_dword</title>
<path fill="none" stroke="black" d="M703.519,-149.284C629.119,-137.172 512.898,-118.252 433.178,-105.275"/>
<polygon fill="black" stroke="black" points="433.588,-101.795 423.156,-103.643 432.464,-108.704 433.588,-101.795"/>
</g>
<!-- emit_stall_timestamp_and_rpc -->
<g id="node28" class="node"><title>emit_stall_timestamp_and_rpc</title>
<ellipse fill="none" stroke="black" cx="345.491" cy="-234" rx="120.479" ry="18"/>
<text text-anchor="middle" x="345.491" y="-230.3" font-family="Times,serif" font-size="14.00">emit_stall_timestamp_and_rpc</text>
</g>
<!-- emit_stall_timestamp_and_rpc&#45;&gt;intel_batchbuffer_require_space -->
<g id="edge27" class="edge"><title>emit_stall_timestamp_and_rpc&#45;&gt;intel_batchbuffer_require_space</title>
<path fill="none" stroke="black" d="M462.579,-229.704C612.857,-224.242 857.651,-210.706 885.491,-180 896.238,-168.147 895.699,-156.321 885.491,-144 873.786,-129.871 781.632,-114.321 706.192,-103.74"/>
<polygon fill="black" stroke="black" points="706.526,-100.253 696.14,-102.346 705.564,-107.187 706.526,-100.253"/>
</g>
<!-- emit_stall_timestamp_and_rpc&#45;&gt;intel_batchbuffer_emit_dword -->
<g id="edge26" class="edge"><title>emit_stall_timestamp_and_rpc&#45;&gt;intel_batchbuffer_emit_dword</title>
<path fill="none" stroke="black" d="M290.137,-217.906C271.362,-209.853 252.397,-197.797 241.491,-180 233.132,-166.357 233.132,-157.643 241.491,-144 250.652,-129.05 265.5,-118.152 281.144,-110.274"/>
<polygon fill="black" stroke="black" points="282.811,-113.359 290.41,-105.977 279.866,-107.009 282.811,-113.359"/>
</g>
<!-- emit_report_perf_count -->
<g id="node29" class="node"><title>emit_report_perf_count</title>
<ellipse fill="none" stroke="black" cx="345.491" cy="-162" rx="94.7833" ry="18"/>
<text text-anchor="middle" x="345.491" y="-158.3" font-family="Times,serif" font-size="14.00">emit_report_perf_count</text>
</g>
<!-- emit_stall_timestamp_and_rpc&#45;&gt;emit_report_perf_count -->
<g id="edge25" class="edge"><title>emit_stall_timestamp_and_rpc&#45;&gt;emit_report_perf_count</title>
<path fill="none" stroke="black" d="M345.491,-215.697C345.491,-207.983 345.491,-198.712 345.491,-190.112"/>
<polygon fill="black" stroke="black" points="348.991,-190.104 345.491,-180.104 341.991,-190.104 348.991,-190.104"/>
</g>
<!-- emit_report_perf_count&#45;&gt;intel_batchbuffer_require_space -->
<g id="edge47" class="edge"><title>emit_report_perf_count&#45;&gt;intel_batchbuffer_require_space</title>
<path fill="none" stroke="black" d="M397.793,-146.919C438.601,-135.932 495.542,-120.602 539.486,-108.771"/>
<polygon fill="black" stroke="black" points="540.474,-112.129 549.22,-106.15 538.654,-105.37 540.474,-112.129"/>
</g>
<!-- emit_report_perf_count&#45;&gt;intel_batchbuffer_emit_dword -->
<g id="edge48" class="edge"><title>emit_report_perf_count&#45;&gt;intel_batchbuffer_emit_dword</title>
<path fill="none" stroke="black" d="M345.491,-143.697C345.491,-135.983 345.491,-126.712 345.491,-118.112"/>
<polygon fill="black" stroke="black" points="348.991,-118.104 345.491,-108.104 341.991,-118.104 348.991,-118.104"/>
</g>
<!-- read_counters_rpc -->
<g id="node30" class="node"><title>read_counters_rpc</title>
<ellipse fill="none" stroke="black" cx="1656.49" cy="-234" rx="75.2868" ry="18"/>
<text text-anchor="middle" x="1656.49" y="-230.3" font-family="Times,serif" font-size="14.00">read_counters_rpc</text>
</g>
<!-- read_counters_rpc&#45;&gt;scratch_buf_init -->
<g id="edge30" class="edge"><title>read_counters_rpc&#45;&gt;scratch_buf_init</title>
<path fill="none" stroke="black" d="M1678.76,-216.765C1691.6,-207.4 1707.93,-195.49 1721.96,-185.261"/>
<polygon fill="black" stroke="black" points="1724.33,-187.867 1730.35,-179.147 1720.2,-182.211 1724.33,-187.867"/>
</g>
<!-- read_counters_rpc&#45;&gt;scratch_buf_memset -->
<g id="edge31" class="edge"><title>read_counters_rpc&#45;&gt;scratch_buf_memset</title>
<path fill="none" stroke="black" d="M1654.75,-215.723C1653.74,-195.365 1655.59,-162.036 1675.49,-144 1728.52,-95.9467 1924.7,-118.44 1995.49,-108 2002.83,-106.918 2010.48,-105.688 2018.09,-104.396"/>
<polygon fill="black" stroke="black" points="2018.8,-107.825 2028.06,-102.669 2017.61,-100.928 2018.8,-107.825"/>
</g>
<!-- read_counters_rpc&#45;&gt;read_tsc_start -->
<g id="edge38" class="edge"><title>read_counters_rpc&#45;&gt;read_tsc_start</title>
<path fill="none" stroke="black" d="M1702.39,-219.669C1743.44,-207.745 1803.54,-190.29 1846.17,-177.908"/>
<polygon fill="black" stroke="black" points="1847.16,-181.262 1855.79,-175.112 1845.21,-174.54 1847.16,-181.262"/>
</g>
<!-- read_counters_rpc&#45;&gt;median -->
<g id="edge34" class="edge"><title>read_counters_rpc&#45;&gt;median</title>
<path fill="none" stroke="black" d="M1729.77,-229.48C1818.21,-224.03 1970.96,-210.76 2098.49,-180 2101.46,-179.284 2104.5,-178.436 2107.53,-177.506"/>
<polygon fill="black" stroke="black" points="2108.71,-180.802 2117.09,-174.32 2106.49,-174.161 2108.71,-180.802"/>
</g>
<!-- read_counters_rpc&#45;&gt;read_tsc_end -->
<g id="edge29" class="edge"><title>read_counters_rpc&#45;&gt;read_tsc_end</title>
<path fill="none" stroke="black" d="M1719.13,-223.849C1781.95,-214.306 1881.33,-198.215 1966.49,-180 1971.16,-179.001 1976,-177.894 1980.84,-176.738"/>
<polygon fill="black" stroke="black" points="1981.84,-180.097 1990.72,-174.316 1980.17,-173.299 1981.84,-180.097"/>
</g>
<!-- read_counters_rpc&#45;&gt;read_u64_file -->
<g id="edge32" class="edge"><title>read_counters_rpc&#45;&gt;read_u64_file</title>
<path fill="none" stroke="black" d="M1729.05,-229.089C1832.19,-222.785 2026.83,-208.136 2190.49,-180 2195.81,-179.086 2201.33,-177.987 2206.82,-176.794"/>
<polygon fill="black" stroke="black" points="2207.65,-180.194 2216.63,-174.565 2206.1,-173.369 2207.65,-180.194"/>
</g>
<!-- read_counters_rpc&#45;&gt;print_reports -->
<g id="edge28" class="edge"><title>read_counters_rpc&#45;&gt;print_reports</title>
<path fill="none" stroke="black" d="M1609.47,-219.834C1565.94,-207.646 1501.41,-189.579 1456.85,-177.101"/>
<polygon fill="black" stroke="black" points="1457.68,-173.697 1447.1,-174.371 1455.79,-180.438 1457.68,-173.697"/>
</g>
<!-- read_counters_rpc&#45;&gt;emit_report_perf_count -->
<g id="edge37" class="edge"><title>read_counters_rpc&#45;&gt;emit_report_perf_count</title>
<path fill="none" stroke="black" d="M1581.06,-232.778C1390.75,-231.548 875.899,-224.057 449.491,-180 440.404,-179.061 430.904,-177.842 421.499,-176.487"/>
<polygon fill="black" stroke="black" points="421.762,-172.987 411.354,-174.97 420.727,-179.91 421.762,-172.987"/>
</g>
<!-- __perf_open -->
<g id="node31" class="node"><title>__perf_open</title>
<ellipse fill="none" stroke="black" cx="1573.49" cy="-162" rx="55.4913" ry="18"/>
<text text-anchor="middle" x="1573.49" y="-158.3" font-family="Times,serif" font-size="14.00">__perf_open</text>
</g>
<!-- read_counters_rpc&#45;&gt;__perf_open -->
<g id="edge33" class="edge"><title>read_counters_rpc&#45;&gt;__perf_open</title>
<path fill="none" stroke="black" d="M1636.82,-216.411C1625.92,-207.213 1612.2,-195.644 1600.32,-185.627"/>
<polygon fill="black" stroke="black" points="1602.35,-182.76 1592.45,-178.988 1597.84,-188.111 1602.35,-182.76"/>
</g>
<!-- umedian -->
<g id="node32" class="node"><title>umedian</title>
<ellipse fill="none" stroke="black" cx="1291.49" cy="-162" rx="41.6928" ry="18"/>
<text text-anchor="middle" x="1291.49" y="-158.3" font-family="Times,serif" font-size="14.00">umedian</text>
</g>
<!-- read_counters_rpc&#45;&gt;umedian -->
<g id="edge35" class="edge"><title>read_counters_rpc&#45;&gt;umedian</title>
<path fill="none" stroke="black" d="M1590.7,-225.072C1526.53,-216.605 1426.45,-201.441 1341.49,-180 1338.34,-179.204 1335.09,-178.301 1331.85,-177.337"/>
<polygon fill="black" stroke="black" points="1332.79,-173.963 1322.2,-174.307 1330.69,-180.642 1332.79,-173.963"/>
</g>
<!-- __perf_close -->
<g id="node33" class="node"><title>__perf_close</title>
<ellipse fill="none" stroke="black" cx="1930.49" cy="-90" rx="55.7903" ry="18"/>
<text text-anchor="middle" x="1930.49" y="-86.3" font-family="Times,serif" font-size="14.00">__perf_close</text>
</g>
<!-- read_counters_rpc&#45;&gt;__perf_close -->
<g id="edge36" class="edge"><title>read_counters_rpc&#45;&gt;__perf_close</title>
<path fill="none" stroke="black" d="M1602.45,-221.356C1547.95,-207.254 1476.28,-180.738 1509.49,-144 1562.81,-85.0141 1787.24,-122.102 1865.49,-108 1870.26,-107.14 1875.2,-106.111 1880.12,-104.991"/>
<polygon fill="black" stroke="black" points="1881.23,-108.324 1890.14,-102.589 1879.6,-101.517 1881.23,-108.324"/>
</g>
<!-- __perf_open&#45;&gt;__perf_close -->
<g id="edge49" class="edge"><title>__perf_open&#45;&gt;__perf_close</title>
<path fill="none" stroke="black" d="M1615.33,-150.113C1624.26,-147.951 1633.67,-145.796 1642.49,-144 1740.87,-123.975 1767.26,-128.725 1865.49,-108 1870.1,-107.028 1874.87,-105.939 1879.64,-104.796"/>
<polygon fill="black" stroke="black" points="1880.5,-108.188 1889.37,-102.39 1878.82,-101.392 1880.5,-108.188"/>
</g>
<!-- read_counters_mmio -->
<g id="node34" class="node"><title>read_counters_mmio</title>
<ellipse fill="none" stroke="black" cx="2032.49" cy="-234" rx="85.5853" ry="18"/>
<text text-anchor="middle" x="2032.49" y="-230.3" font-family="Times,serif" font-size="14.00">read_counters_mmio</text>
</g>
<!-- read_counters_mmio&#45;&gt;scratch_buf_init -->
<g id="edge45" class="edge"><title>read_counters_mmio&#45;&gt;scratch_buf_init</title>
<path fill="none" stroke="black" d="M1979.5,-219.751C1931.14,-207.663 1859.85,-189.839 1810.1,-177.402"/>
<polygon fill="black" stroke="black" points="1810.69,-173.941 1800.14,-174.911 1808.99,-180.732 1810.69,-173.941"/>
</g>
<!-- read_counters_mmio&#45;&gt;scratch_buf_memset -->
<g id="edge44" class="edge"><title>read_counters_mmio&#45;&gt;scratch_buf_memset</title>
<path fill="none" stroke="black" d="M2109.1,-225.865C2201.14,-216.505 2345.29,-199.021 2361.49,-180 2415.71,-116.344 2281.67,-97.8963 2182.8,-92.7428"/>
<polygon fill="black" stroke="black" points="2182.91,-89.2438 2172.75,-92.2576 2182.57,-96.2357 2182.91,-89.2438"/>
</g>
<!-- read_counters_mmio&#45;&gt;read_tsc_start -->
<g id="edge42" class="edge"><title>read_counters_mmio&#45;&gt;read_tsc_start</title>
<path fill="none" stroke="black" d="M2001.86,-217.116C1982.07,-206.856 1956.19,-193.434 1935.14,-182.524"/>
<polygon fill="black" stroke="black" points="1936.65,-179.36 1926.16,-177.864 1933.42,-185.574 1936.65,-179.36"/>
</g>
<!-- read_counters_mmio&#45;&gt;read_tsc_end -->
<g id="edge43" class="edge"><title>read_counters_mmio&#45;&gt;read_tsc_end</title>
<path fill="none" stroke="black" d="M2032.49,-215.697C2032.49,-207.983 2032.49,-198.712 2032.49,-190.112"/>
<polygon fill="black" stroke="black" points="2035.99,-190.104 2032.49,-180.104 2028.99,-190.104 2035.99,-190.104"/>
</g>
<!-- read_counters_mmio&#45;&gt;read_u64_file -->
<g id="edge40" class="edge"><title>read_counters_mmio&#45;&gt;read_u64_file</title>
<path fill="none" stroke="black" d="M2078.7,-218.75C2116.7,-207.031 2170.46,-190.455 2209.47,-178.426"/>
<polygon fill="black" stroke="black" points="2210.52,-181.763 2219.05,-175.471 2208.46,-175.074 2210.52,-181.763"/>
</g>
<!-- read_counters_mmio&#45;&gt;__perf_open -->
<g id="edge39" class="edge"><title>read_counters_mmio&#45;&gt;__perf_open</title>
<path fill="none" stroke="black" d="M1963.66,-223.152C1891.73,-212.773 1775.61,-195.773 1675.49,-180 1661.22,-177.752 1645.84,-175.237 1631.47,-172.846"/>
<polygon fill="black" stroke="black" points="1631.64,-169.327 1621.2,-171.132 1630.49,-176.231 1631.64,-169.327"/>
</g>
<!-- read_counters_mmio&#45;&gt;__perf_close -->
<g id="edge41" class="edge"><title>read_counters_mmio&#45;&gt;__perf_close</title>
<path fill="none" stroke="black" d="M2115.94,-229.672C2193.78,-224.606 2301.81,-211.879 2328.49,-180 2338.76,-167.73 2339.18,-155.906 2328.49,-144 2278.77,-88.613 2068.7,-121.453 1995.49,-108 1990.72,-107.124 1985.79,-106.084 1980.87,-104.957"/>
<polygon fill="black" stroke="black" points="1981.39,-101.482 1970.85,-102.545 1979.75,-108.288 1981.39,-101.482"/>
</g>
<!-- max_oa_exponent_for_freq_gt -->
<g id="node35" class="node"><title>max_oa_exponent_for_freq_gt</title>
<ellipse fill="none" stroke="black" cx="2793.49" cy="-234" rx="120.479" ry="18"/>
<text text-anchor="middle" x="2793.49" y="-230.3" font-family="Times,serif" font-size="14.00">max_oa_exponent_for_freq_gt</text>
</g>
<!-- max_oa_exponent_for_freq_gt&#45;&gt;max_oa_exponent_for_period_lte -->
<g id="edge46" class="edge"><title>max_oa_exponent_for_freq_gt&#45;&gt;max_oa_exponent_for_period_lte</title>
<path fill="none" stroke="black" d="M2793.49,-215.697C2793.49,-207.983 2793.49,-198.712 2793.49,-190.112"/>
<polygon fill="black" stroke="black" points="2796.99,-190.104 2793.49,-180.104 2789.99,-190.104 2796.99,-190.104"/>
</g>
<!-- profile_through_opencl -->
<g id="node36" class="node"><title>profile_through_opencl</title>
<ellipse fill="none" stroke="black" cx="3025.49" cy="-234" rx="93.6835" ry="18"/>
<text text-anchor="middle" x="3025.49" y="-230.3" font-family="Times,serif" font-size="14.00">profile_through_opencl</text>
</g>
<!-- fmedian -->
<g id="node37" class="node"><title>fmedian</title>
<ellipse fill="none" stroke="black" cx="3177.49" cy="-234" rx="40.0939" ry="18"/>
<text text-anchor="middle" x="3177.49" y="-230.3" font-family="Times,serif" font-size="14.00">fmedian</text>
</g>
<!-- write_u64_file -->
<g id="node38" class="node"><title>write_u64_file</title>
<ellipse fill="none" stroke="black" cx="3298.49" cy="-234" rx="62.2891" ry="18"/>
<text text-anchor="middle" x="3298.49" y="-230.3" font-family="Times,serif" font-size="14.00">write_u64_file</text>
</g>
<!-- print_report_card -->
<g id="node39" class="node"><title>print_report_card</title>
<ellipse fill="none" stroke="black" cx="3451.49" cy="-234" rx="72.2875" ry="18"/>
<text text-anchor="middle" x="3451.49" y="-230.3" font-family="Times,serif" font-size="14.00">print_report_card</text>
</g>
<!-- oa_exponent_to_ns -->
<g id="node40" class="node"><title>oa_exponent_to_ns</title>
<ellipse fill="none" stroke="black" cx="3620.49" cy="-234" rx="79.0865" ry="18"/>
<text text-anchor="middle" x="3620.49" y="-230.3" font-family="Times,serif" font-size="14.00">oa_exponent_to_ns</text>
</g>
<!-- i915_perf_remove_config -->
<g id="node41" class="node"><title>i915_perf_remove_config</title>
<ellipse fill="none" stroke="black" cx="3820.49" cy="-234" rx="102.882" ry="18"/>
<text text-anchor="middle" x="3820.49" y="-230.3" font-family="Times,serif" font-size="14.00">i915_perf_remove_config</text>
</g>
<!-- oa_report_is_periodic -->
<g id="node42" class="node"><title>oa_report_is_periodic</title>
<ellipse fill="none" stroke="black" cx="4028.49" cy="-234" rx="87.9851" ry="18"/>
<text text-anchor="middle" x="4028.49" y="-230.3" font-family="Times,serif" font-size="14.00">oa_report_is_periodic</text>
</g>
<!-- gen8_read_report_ticks -->
<g id="node43" class="node"><title>gen8_read_report_ticks</title>
<ellipse fill="none" stroke="black" cx="4227.49" cy="-234" rx="93.6835" ry="18"/>
<text text-anchor="middle" x="4227.49" y="-230.3" font-family="Times,serif" font-size="14.00">gen8_read_report_ticks</text>
</g>
<!-- read_i915_module_ref -->
<g id="node44" class="node"><title>read_i915_module_ref</title>
<ellipse fill="none" stroke="black" cx="4430.49" cy="-234" rx="90.9839" ry="18"/>
<text text-anchor="middle" x="4430.49" y="-230.3" font-family="Times,serif" font-size="14.00">read_i915_module_ref</text>
</g>
<!-- print_binary -->
<g id="node45" class="node"><title>print_binary</title>
<ellipse fill="none" stroke="black" cx="4593.49" cy="-234" rx="53.8905" ry="18"/>
<text text-anchor="middle" x="4593.49" y="-230.3" font-family="Times,serif" font-size="14.00">print_binary</text>
</g>
<!-- create_filtering_word -->
<g id="node46" class="node"><title>create_filtering_word</title>
<ellipse fill="none" stroke="black" cx="4752.49" cy="-234" rx="87.1846" ry="18"/>
<text text-anchor="middle" x="4752.49" y="-230.3" font-family="Times,serif" font-size="14.00">create_filtering_word</text>
</g>
</g>
</svg>
