<?xml version="1.0" encoding="UTF-8" standalone="no"?>
<!DOCTYPE svg PUBLIC "-//W3C//DTD SVG 1.1//EN"
 "http://www.w3.org/Graphics/SVG/1.1/DTD/svg11.dtd">
<!-- Generated by graphviz version 2.38.0 (20140413.2041)
 -->
<!-- Title: callgraph Pages: 1 -->
<svg width="4622pt" height="260pt"
 viewBox="0.00 0.00 4621.54 260.00" xmlns="http://www.w3.org/2000/svg" xmlns:xlink="http://www.w3.org/1999/xlink">
<g id="graph0" class="graph" transform="scale(1 1) rotate(0) translate(4 256)">
<title>callgraph</title>
<polygon fill="white" stroke="none" points="-4,4 -4,-256 4617.54,-256 4617.54,4 -4,4"/>
<!-- intel_batchbuffer_require_space -->
<g id="node1" class="node"><title>intel_batchbuffer_require_space</title>
<ellipse fill="none" stroke="black" cx="205.239" cy="-90" rx="124.278" ry="18"/>
<text text-anchor="middle" x="205.239" y="-86.3" font-family="Times,serif" font-size="14.00">intel_batchbuffer_require_space</text>
</g>
<!-- intel_batchbuffer_space -->
<g id="node2" class="node"><title>intel_batchbuffer_space</title>
<ellipse fill="none" stroke="black" cx="335.239" cy="-18" rx="94.7833" ry="18"/>
<text text-anchor="middle" x="335.239" y="-14.3" font-family="Times,serif" font-size="14.00">intel_batchbuffer_space</text>
</g>
<!-- intel_batchbuffer_require_space&#45;&gt;intel_batchbuffer_space -->
<g id="edge1" class="edge"><title>intel_batchbuffer_require_space&#45;&gt;intel_batchbuffer_space</title>
<path fill="none" stroke="black" d="M236.048,-72.411C254.067,-62.7082 276.987,-50.3664 296.255,-39.9915"/>
<polygon fill="black" stroke="black" points="297.955,-43.0512 305.101,-35.2285 294.637,-36.8879 297.955,-43.0512"/>
</g>
<!-- intel_batchbuffer_emit_dword -->
<g id="node3" class="node"><title>intel_batchbuffer_emit_dword</title>
<ellipse fill="none" stroke="black" cx="465.239" cy="-90" rx="118.079" ry="18"/>
<text text-anchor="middle" x="465.239" y="-86.3" font-family="Times,serif" font-size="14.00">intel_batchbuffer_emit_dword</text>
</g>
<!-- intel_batchbuffer_emit_dword&#45;&gt;intel_batchbuffer_space -->
<g id="edge2" class="edge"><title>intel_batchbuffer_emit_dword&#45;&gt;intel_batchbuffer_space</title>
<path fill="none" stroke="black" d="M434.76,-72.5881C416.749,-62.89 393.757,-50.5096 374.411,-40.0923"/>
<polygon fill="black" stroke="black" points="375.992,-36.9685 365.528,-35.3091 372.673,-43.1318 375.992,-36.9685"/>
</g>
<!-- gen8_read_40bit_a_counter -->
<g id="node4" class="node"><title>gen8_read_40bit_a_counter</title>
<ellipse fill="none" stroke="black" cx="1667.24" cy="-90" rx="108.581" ry="18"/>
<text text-anchor="middle" x="1667.24" y="-86.3" font-family="Times,serif" font-size="14.00">gen8_read_40bit_a_counter</text>
</g>
<!-- get_oa_format -->
<g id="node5" class="node"><title>get_oa_format</title>
<ellipse fill="none" stroke="black" cx="2062.24" cy="-18" rx="62.2891" ry="18"/>
<text text-anchor="middle" x="2062.24" y="-14.3" font-family="Times,serif" font-size="14.00">get_oa_format</text>
</g>
<!-- gen8_read_40bit_a_counter&#45;&gt;get_oa_format -->
<g id="edge3" class="edge"><title>gen8_read_40bit_a_counter&#45;&gt;get_oa_format</title>
<path fill="none" stroke="black" d="M1738.77,-76.3235C1813.47,-63.0865 1929.42,-42.5381 2000.32,-29.9738"/>
<polygon fill="black" stroke="black" points="2001.2,-33.3711 2010.44,-28.1798 1999.98,-26.4785 2001.2,-33.3711"/>
</g>
<!-- max_oa_exponent_for_period_lte -->
<g id="node6" class="node"><title>max_oa_exponent_for_period_lte</title>
<ellipse fill="none" stroke="black" cx="2352.24" cy="-162" rx="129.977" ry="18"/>
<text text-anchor="middle" x="2352.24" y="-158.3" font-family="Times,serif" font-size="14.00">max_oa_exponent_for_period_lte</text>
</g>
<!-- timebase_scale -->
<g id="node7" class="node"><title>timebase_scale</title>
<ellipse fill="none" stroke="black" cx="2352.24" cy="-90" rx="64.189" ry="18"/>
<text text-anchor="middle" x="2352.24" y="-86.3" font-family="Times,serif" font-size="14.00">timebase_scale</text>
</g>
<!-- max_oa_exponent_for_period_lte&#45;&gt;timebase_scale -->
<g id="edge4" class="edge"><title>max_oa_exponent_for_period_lte&#45;&gt;timebase_scale</title>
<path fill="none" stroke="black" d="M2352.24,-143.697C2352.24,-135.983 2352.24,-126.712 2352.24,-118.112"/>
<polygon fill="black" stroke="black" points="2355.74,-118.104 2352.24,-108.104 2348.74,-118.104 2355.74,-118.104"/>
</g>
<!-- __perf_open -->
<g id="node8" class="node"><title>__perf_open</title>
<ellipse fill="none" stroke="black" cx="992.239" cy="-162" rx="55.4913" ry="18"/>
<text text-anchor="middle" x="992.239" y="-158.3" font-family="Times,serif" font-size="14.00">__perf_open</text>
</g>
<!-- __perf_close -->
<g id="node9" class="node"><title>__perf_close</title>
<ellipse fill="none" stroke="black" cx="1000.24" cy="-90" rx="55.7903" ry="18"/>
<text text-anchor="middle" x="1000.24" y="-86.3" font-family="Times,serif" font-size="14.00">__perf_close</text>
</g>
<!-- __perf_open&#45;&gt;__perf_close -->
<g id="edge5" class="edge"><title>__perf_open&#45;&gt;__perf_close</title>
<path fill="none" stroke="black" d="M994.217,-143.697C995.098,-135.983 996.158,-126.712 997.141,-118.112"/>
<polygon fill="black" stroke="black" points="1000.63,-118.437 998.285,-108.104 993.672,-117.642 1000.63,-118.437"/>
</g>
<!-- read_counters_mmio -->
<g id="node10" class="node"><title>read_counters_mmio</title>
<ellipse fill="none" stroke="black" cx="992.239" cy="-234" rx="85.5853" ry="18"/>
<text text-anchor="middle" x="992.239" y="-230.3" font-family="Times,serif" font-size="14.00">read_counters_mmio</text>
</g>
<!-- read_counters_mmio&#45;&gt;__perf_open -->
<g id="edge12" class="edge"><title>read_counters_mmio&#45;&gt;__perf_open</title>
<path fill="none" stroke="black" d="M992.239,-215.697C992.239,-207.983 992.239,-198.712 992.239,-190.112"/>
<polygon fill="black" stroke="black" points="995.739,-190.104 992.239,-180.104 988.739,-190.104 995.739,-190.104"/>
</g>
<!-- read_counters_mmio&#45;&gt;__perf_close -->
<g id="edge11" class="edge"><title>read_counters_mmio&#45;&gt;__perf_close</title>
<path fill="none" stroke="black" d="M912.842,-227.173C834.508,-218.332 732.131,-196.563 774.239,-144 820.082,-86.7752 863.982,-125.279 935.239,-108 939.63,-106.935 944.18,-105.804 948.741,-104.649"/>
<polygon fill="black" stroke="black" points="949.865,-107.975 958.685,-102.105 948.129,-101.193 949.865,-107.975"/>
</g>
<!-- scratch_buf_init -->
<g id="node11" class="node"><title>scratch_buf_init</title>
<ellipse fill="none" stroke="black" cx="851.239" cy="-162" rx="67.6881" ry="18"/>
<text text-anchor="middle" x="851.239" y="-158.3" font-family="Times,serif" font-size="14.00">scratch_buf_init</text>
</g>
<!-- read_counters_mmio&#45;&gt;scratch_buf_init -->
<g id="edge6" class="edge"><title>read_counters_mmio&#45;&gt;scratch_buf_init</title>
<path fill="none" stroke="black" d="M960.244,-217.116C939.627,-206.88 912.671,-193.498 890.724,-182.602"/>
<polygon fill="black" stroke="black" points="892.171,-179.413 881.658,-178.101 889.059,-185.683 892.171,-179.413"/>
</g>
<!-- read_tsc_end -->
<g id="node12" class="node"><title>read_tsc_end</title>
<ellipse fill="none" stroke="black" cx="1260.24" cy="-162" rx="57.3905" ry="18"/>
<text text-anchor="middle" x="1260.24" y="-158.3" font-family="Times,serif" font-size="14.00">read_tsc_end</text>
</g>
<!-- read_counters_mmio&#45;&gt;read_tsc_end -->
<g id="edge7" class="edge"><title>read_counters_mmio&#45;&gt;read_tsc_end</title>
<path fill="none" stroke="black" d="M1043.91,-219.503C1091.06,-207.189 1160.4,-189.077 1207.79,-176.7"/>
<polygon fill="black" stroke="black" points="1208.76,-180.063 1217.55,-174.15 1206.99,-173.291 1208.76,-180.063"/>
</g>
<!-- read_tsc_start -->
<g id="node13" class="node"><title>read_tsc_start</title>
<ellipse fill="none" stroke="black" cx="1125.24" cy="-162" rx="59.5901" ry="18"/>
<text text-anchor="middle" x="1125.24" y="-158.3" font-family="Times,serif" font-size="14.00">read_tsc_start</text>
</g>
<!-- read_counters_mmio&#45;&gt;read_tsc_start -->
<g id="edge8" class="edge"><title>read_counters_mmio&#45;&gt;read_tsc_start</title>
<path fill="none" stroke="black" d="M1022.42,-217.116C1041.69,-206.972 1066.84,-193.737 1087.44,-182.895"/>
<polygon fill="black" stroke="black" points="1089.33,-185.856 1096.55,-178.101 1086.07,-179.662 1089.33,-185.856"/>
</g>
<!-- read_u64_file -->
<g id="node14" class="node"><title>read_u64_file</title>
<ellipse fill="none" stroke="black" cx="1801.24" cy="-162" rx="59.5901" ry="18"/>
<text text-anchor="middle" x="1801.24" y="-158.3" font-family="Times,serif" font-size="14.00">read_u64_file</text>
</g>
<!-- read_counters_mmio&#45;&gt;read_u64_file -->
<g id="edge9" class="edge"><title>read_counters_mmio&#45;&gt;read_u64_file</title>
<path fill="none" stroke="black" d="M1073.18,-227.984C1251.71,-216.808 1668.55,-190.052 1732.24,-180 1737.57,-179.159 1743.1,-178.108 1748.59,-176.945"/>
<polygon fill="black" stroke="black" points="1749.41,-180.348 1758.4,-174.75 1747.88,-173.517 1749.41,-180.348"/>
</g>
<!-- scratch_buf_memset -->
<g id="node15" class="node"><title>scratch_buf_memset</title>
<ellipse fill="none" stroke="black" cx="842.239" cy="-90" rx="84.485" ry="18"/>
<text text-anchor="middle" x="842.239" y="-86.3" font-family="Times,serif" font-size="14.00">scratch_buf_memset</text>
</g>
<!-- read_counters_mmio&#45;&gt;scratch_buf_memset -->
<g id="edge10" class="edge"><title>read_counters_mmio&#45;&gt;scratch_buf_memset</title>
<path fill="none" stroke="black" d="M916.113,-225.68C856.469,-218.185 780.466,-204.138 761.239,-180 751.271,-167.485 753.629,-158.074 761.239,-144 768.78,-130.055 781.762,-119.19 795.152,-111.029"/>
<polygon fill="black" stroke="black" points="796.974,-114.02 803.956,-106.052 793.529,-107.926 796.974,-114.02"/>
</g>
<!-- scratch_buf_init&#45;&gt;scratch_buf_memset -->
<g id="edge46" class="edge"><title>scratch_buf_init&#45;&gt;scratch_buf_memset</title>
<path fill="none" stroke="black" d="M849.015,-143.697C848.023,-135.983 846.831,-126.712 845.725,-118.112"/>
<polygon fill="black" stroke="black" points="849.185,-117.576 844.438,-108.104 842.242,-118.469 849.185,-117.576"/>
</g>
<!-- send_mi_store_reg_mem -->
<g id="node16" class="node"><title>send_mi_store_reg_mem</title>
<ellipse fill="none" stroke="black" cx="550.239" cy="-162" rx="100.983" ry="18"/>
<text text-anchor="middle" x="550.239" y="-158.3" font-family="Times,serif" font-size="14.00">send_mi_store_reg_mem</text>
</g>
<!-- send_mi_store_reg_mem&#45;&gt;intel_batchbuffer_require_space -->
<g id="edge13" class="edge"><title>send_mi_store_reg_mem&#45;&gt;intel_batchbuffer_require_space</title>
<path fill="none" stroke="black" d="M486.156,-147.998C429.118,-136.425 345.484,-119.455 284.305,-107.042"/>
<polygon fill="black" stroke="black" points="284.802,-103.572 274.305,-105.013 283.41,-110.432 284.802,-103.572"/>
</g>
<!-- send_mi_store_reg_mem&#45;&gt;intel_batchbuffer_emit_dword -->
<g id="edge14" class="edge"><title>send_mi_store_reg_mem&#45;&gt;intel_batchbuffer_emit_dword</title>
<path fill="none" stroke="black" d="M529.663,-144.055C518.805,-135.113 505.317,-124.005 493.493,-114.268"/>
<polygon fill="black" stroke="black" points="495.57,-111.444 485.626,-107.789 491.12,-116.848 495.57,-111.444"/>
</g>
<!-- measure_overheads -->
<g id="node17" class="node"><title>measure_overheads</title>
<ellipse fill="none" stroke="black" cx="1937.24" cy="-234" rx="80.6858" ry="18"/>
<text text-anchor="middle" x="1937.24" y="-230.3" font-family="Times,serif" font-size="14.00">measure_overheads</text>
</g>
<!-- measure_overheads&#45;&gt;read_tsc_end -->
<g id="edge16" class="edge"><title>measure_overheads&#45;&gt;read_tsc_end</title>
<path fill="none" stroke="black" d="M1861.51,-227.687C1751.68,-219.599 1541.87,-202.705 1364.24,-180 1349.49,-178.115 1333.63,-175.715 1318.85,-173.315"/>
<polygon fill="black" stroke="black" points="1319.25,-169.834 1308.81,-171.66 1318.11,-176.741 1319.25,-169.834"/>
</g>
<!-- measure_overheads&#45;&gt;read_tsc_start -->
<g id="edge20" class="edge"><title>measure_overheads&#45;&gt;read_tsc_start</title>
<path fill="none" stroke="black" d="M1857.02,-231.746C1720.23,-228.613 1433.44,-217.716 1194.24,-180 1188.91,-179.159 1183.38,-178.109 1177.89,-176.946"/>
<polygon fill="black" stroke="black" points="1178.6,-173.519 1168.07,-174.752 1177.07,-180.35 1178.6,-173.519"/>
</g>
<!-- umin -->
<g id="node18" class="node"><title>umin</title>
<ellipse fill="none" stroke="black" cx="2000.24" cy="-162" rx="29.4969" ry="18"/>
<text text-anchor="middle" x="2000.24" y="-158.3" font-family="Times,serif" font-size="14.00">umin</text>
</g>
<!-- measure_overheads&#45;&gt;umin -->
<g id="edge15" class="edge"><title>measure_overheads&#45;&gt;umin</title>
<path fill="none" stroke="black" d="M1952.49,-216.055C1960.65,-206.988 1970.81,-195.694 1979.67,-185.86"/>
<polygon fill="black" stroke="black" points="1982.33,-188.131 1986.42,-178.356 1977.13,-183.448 1982.33,-188.131"/>
</g>
<!-- average -->
<g id="node19" class="node"><title>average</title>
<ellipse fill="none" stroke="black" cx="2086.24" cy="-162" rx="38.1938" ry="18"/>
<text text-anchor="middle" x="2086.24" y="-158.3" font-family="Times,serif" font-size="14.00">average</text>
</g>
<!-- measure_overheads&#45;&gt;average -->
<g id="edge17" class="edge"><title>measure_overheads&#45;&gt;average</title>
<path fill="none" stroke="black" d="M1970.31,-217.465C1994.22,-206.228 2026.5,-191.067 2050.92,-179.594"/>
<polygon fill="black" stroke="black" points="2052.63,-182.658 2060.19,-175.238 2049.65,-176.322 2052.63,-182.658"/>
</g>
<!-- umax -->
<g id="node20" class="node"><title>umax</title>
<ellipse fill="none" stroke="black" cx="2173.24" cy="-162" rx="30.5947" ry="18"/>
<text text-anchor="middle" x="2173.24" y="-158.3" font-family="Times,serif" font-size="14.00">umax</text>
</g>
<!-- measure_overheads&#45;&gt;umax -->
<g id="edge18" class="edge"><title>measure_overheads&#45;&gt;umax</title>
<path fill="none" stroke="black" d="M1991.08,-220.564C2030.8,-210.878 2085.93,-196.361 2133.24,-180 2135.61,-179.18 2138.04,-178.286 2140.47,-177.352"/>
<polygon fill="black" stroke="black" points="2141.79,-180.595 2149.76,-173.615 2139.18,-174.101 2141.79,-180.595"/>
</g>
<!-- median -->
<g id="node21" class="node"><title>median</title>
<ellipse fill="none" stroke="black" cx="1916.24" cy="-162" rx="37.0935" ry="18"/>
<text text-anchor="middle" x="1916.24" y="-158.3" font-family="Times,serif" font-size="14.00">median</text>
</g>
<!-- measure_overheads&#45;&gt;median -->
<g id="edge19" class="edge"><title>measure_overheads&#45;&gt;median</title>
<path fill="none" stroke="black" d="M1932.05,-215.697C1929.71,-207.898 1926.89,-198.509 1924.29,-189.829"/>
<polygon fill="black" stroke="black" points="1927.6,-188.677 1921.37,-180.104 1920.89,-190.688 1927.6,-188.677"/>
</g>
<!-- max_oa_exponent_for_freq_gt -->
<g id="node22" class="node"><title>max_oa_exponent_for_freq_gt</title>
<ellipse fill="none" stroke="black" cx="2352.24" cy="-234" rx="120.479" ry="18"/>
<text text-anchor="middle" x="2352.24" y="-230.3" font-family="Times,serif" font-size="14.00">max_oa_exponent_for_freq_gt</text>
</g>
<!-- max_oa_exponent_for_freq_gt&#45;&gt;max_oa_exponent_for_period_lte -->
<g id="edge21" class="edge"><title>max_oa_exponent_for_freq_gt&#45;&gt;max_oa_exponent_for_period_lte</title>
<path fill="none" stroke="black" d="M2352.24,-215.697C2352.24,-207.983 2352.24,-198.712 2352.24,-190.112"/>
<polygon fill="black" stroke="black" points="2355.74,-190.104 2352.24,-180.104 2348.74,-190.104 2355.74,-190.104"/>
</g>
<!-- read_counters_rpc -->
<g id="node23" class="node"><title>read_counters_rpc</title>
<ellipse fill="none" stroke="black" cx="1380.24" cy="-234" rx="75.2868" ry="18"/>
<text text-anchor="middle" x="1380.24" y="-230.3" font-family="Times,serif" font-size="14.00">read_counters_rpc</text>
</g>
<!-- read_counters_rpc&#45;&gt;__perf_open -->
<g id="edge33" class="edge"><title>read_counters_rpc&#45;&gt;__perf_open</title>
<path fill="none" stroke="black" d="M1316.27,-224.414C1250.66,-215.17 1145.83,-199.179 1056.24,-180 1051.82,-179.054 1047.25,-177.998 1042.68,-176.887"/>
<polygon fill="black" stroke="black" points="1043.27,-173.429 1032.72,-174.391 1041.57,-180.219 1043.27,-173.429"/>
</g>
<!-- read_counters_rpc&#45;&gt;__perf_close -->
<g id="edge32" class="edge"><title>read_counters_rpc&#45;&gt;__perf_close</title>
<path fill="none" stroke="black" d="M1420.37,-218.721C1437.73,-210.31 1456.32,-197.763 1466.24,-180 1474.04,-166.03 1477.02,-155.818 1466.24,-144 1436.68,-111.61 1116.53,-114.989 1073.24,-108 1066.51,-106.913 1059.47,-105.559 1052.54,-104.092"/>
<polygon fill="black" stroke="black" points="1053.02,-100.615 1042.51,-101.881 1051.52,-107.451 1053.02,-100.615"/>
</g>
<!-- read_counters_rpc&#45;&gt;scratch_buf_init -->
<g id="edge22" class="edge"><title>read_counters_rpc&#45;&gt;scratch_buf_init</title>
<path fill="none" stroke="black" d="M1310.63,-227.029C1221.6,-218.891 1062.83,-202.689 928.239,-180 922.359,-179.009 916.25,-177.862 910.16,-176.643"/>
<polygon fill="black" stroke="black" points="910.477,-173.134 899.975,-174.535 909.058,-179.989 910.477,-173.134"/>
</g>
<!-- read_counters_rpc&#45;&gt;read_tsc_end -->
<g id="edge23" class="edge"><title>read_counters_rpc&#45;&gt;read_tsc_end</title>
<path fill="none" stroke="black" d="M1353.01,-217.116C1335.78,-207.063 1313.34,-193.975 1294.85,-183.188"/>
<polygon fill="black" stroke="black" points="1296.53,-180.117 1286.13,-178.101 1293,-186.163 1296.53,-180.117"/>
</g>
<!-- read_counters_rpc&#45;&gt;read_tsc_start -->
<g id="edge26" class="edge"><title>read_counters_rpc&#45;&gt;read_tsc_start</title>
<path fill="none" stroke="black" d="M1332.57,-219.916C1288.52,-207.824 1223.2,-189.891 1177.69,-177.398"/>
<polygon fill="black" stroke="black" points="1178.58,-174.012 1168.01,-174.74 1176.72,-180.762 1178.58,-174.012"/>
</g>
<!-- read_counters_rpc&#45;&gt;read_u64_file -->
<g id="edge29" class="edge"><title>read_counters_rpc&#45;&gt;read_u64_file</title>
<path fill="none" stroke="black" d="M1445.75,-224.972C1516.67,-215.853 1632.97,-199.659 1732.24,-180 1737.25,-179.007 1742.45,-177.89 1747.65,-176.715"/>
<polygon fill="black" stroke="black" points="1748.63,-180.08 1757.57,-174.402 1747.04,-173.263 1748.63,-180.08"/>
</g>
<!-- read_counters_rpc&#45;&gt;scratch_buf_memset -->
<g id="edge31" class="edge"><title>read_counters_rpc&#45;&gt;scratch_buf_memset</title>
<path fill="none" stroke="black" d="M1375.13,-215.863C1367.91,-194.988 1352.6,-160.476 1326.24,-144 1252.25,-97.7524 1021.69,-119.857 935.239,-108 927.693,-106.965 919.827,-105.747 912.004,-104.445"/>
<polygon fill="black" stroke="black" points="912.594,-100.995 902.147,-102.76 911.414,-107.895 912.594,-100.995"/>
</g>
<!-- read_counters_rpc&#45;&gt;median -->
<g id="edge27" class="edge"><title>read_counters_rpc&#45;&gt;median</title>
<path fill="none" stroke="black" d="M1454.66,-230.638C1551.52,-226.275 1725.51,-214.02 1870.24,-180 1873.21,-179.302 1876.25,-178.466 1879.28,-177.544"/>
<polygon fill="black" stroke="black" points="1880.46,-180.842 1888.85,-174.374 1878.25,-174.198 1880.46,-180.842"/>
</g>
<!-- emit_report_perf_count -->
<g id="node24" class="node"><title>emit_report_perf_count</title>
<ellipse fill="none" stroke="black" cx="120.239" cy="-162" rx="94.7833" ry="18"/>
<text text-anchor="middle" x="120.239" y="-158.3" font-family="Times,serif" font-size="14.00">emit_report_perf_count</text>
</g>
<!-- read_counters_rpc&#45;&gt;emit_report_perf_count -->
<g id="edge24" class="edge"><title>read_counters_rpc&#45;&gt;emit_report_perf_count</title>
<path fill="none" stroke="black" d="M1308.31,-228.5C1249.01,-224.868 1162.68,-219.762 1087.24,-216 703.827,-196.881 606.139,-219.035 224.239,-180 215.151,-179.071 205.65,-177.858 196.245,-176.506"/>
<polygon fill="black" stroke="black" points="196.507,-173.006 186.1,-174.992 195.474,-179.93 196.507,-173.006"/>
</g>
<!-- serialize -->
<g id="node25" class="node"><title>serialize</title>
<ellipse fill="none" stroke="black" cx="1553.24" cy="-162" rx="40.0939" ry="18"/>
<text text-anchor="middle" x="1553.24" y="-158.3" font-family="Times,serif" font-size="14.00">serialize</text>
</g>
<!-- read_counters_rpc&#45;&gt;serialize -->
<g id="edge25" class="edge"><title>read_counters_rpc&#45;&gt;serialize</title>
<path fill="none" stroke="black" d="M1416.93,-218.155C1445.71,-206.509 1485.66,-190.346 1514.86,-178.528"/>
<polygon fill="black" stroke="black" points="1516.37,-181.695 1524.33,-174.699 1513.74,-175.206 1516.37,-181.695"/>
</g>
<!-- print_reports -->
<g id="node26" class="node"><title>print_reports</title>
<ellipse fill="none" stroke="black" cx="1667.24" cy="-162" rx="55.7903" ry="18"/>
<text text-anchor="middle" x="1667.24" y="-158.3" font-family="Times,serif" font-size="14.00">print_reports</text>
</g>
<!-- read_counters_rpc&#45;&gt;print_reports -->
<g id="edge28" class="edge"><title>read_counters_rpc&#45;&gt;print_reports</title>
<path fill="none" stroke="black" d="M1432.35,-220.893C1477.39,-210.349 1544.19,-194.518 1602.24,-180 1606.56,-178.92 1611.03,-177.784 1615.52,-176.634"/>
<polygon fill="black" stroke="black" points="1616.51,-179.994 1625.31,-174.106 1614.76,-173.216 1616.51,-179.994"/>
</g>
<!-- umedian -->
<g id="node27" class="node"><title>umedian</title>
<ellipse fill="none" stroke="black" cx="1415.24" cy="-162" rx="41.6928" ry="18"/>
<text text-anchor="middle" x="1415.24" y="-158.3" font-family="Times,serif" font-size="14.00">umedian</text>
</g>
<!-- read_counters_rpc&#45;&gt;umedian -->
<g id="edge30" class="edge"><title>read_counters_rpc&#45;&gt;umedian</title>
<path fill="none" stroke="black" d="M1388.71,-216.055C1392.8,-207.887 1397.78,-197.912 1402.33,-188.824"/>
<polygon fill="black" stroke="black" points="1405.5,-190.299 1406.84,-179.789 1399.24,-187.168 1405.5,-190.299"/>
</g>
<!-- emit_report_perf_count&#45;&gt;intel_batchbuffer_require_space -->
<g id="edge49" class="edge"><title>emit_report_perf_count&#45;&gt;intel_batchbuffer_require_space</title>
<path fill="none" stroke="black" d="M140.815,-144.055C151.674,-135.113 165.161,-124.005 176.985,-114.268"/>
<polygon fill="black" stroke="black" points="179.358,-116.848 184.853,-107.789 174.908,-111.444 179.358,-116.848"/>
</g>
<!-- emit_report_perf_count&#45;&gt;intel_batchbuffer_emit_dword -->
<g id="edge48" class="edge"><title>emit_report_perf_count&#45;&gt;intel_batchbuffer_emit_dword</title>
<path fill="none" stroke="black" d="M182.716,-148.324C240.105,-136.679 325.378,-119.378 387.221,-106.83"/>
<polygon fill="black" stroke="black" points="388.219,-110.199 397.323,-104.78 386.827,-103.339 388.219,-110.199"/>
</g>
<!-- print_reports&#45;&gt;gen8_read_40bit_a_counter -->
<g id="edge37" class="edge"><title>print_reports&#45;&gt;gen8_read_40bit_a_counter</title>
<path fill="none" stroke="black" d="M1667.24,-143.697C1667.24,-135.983 1667.24,-126.712 1667.24,-118.112"/>
<polygon fill="black" stroke="black" points="1670.74,-118.104 1667.24,-108.104 1663.74,-118.104 1670.74,-118.104"/>
</g>
<!-- print_reports&#45;&gt;get_oa_format -->
<g id="edge39" class="edge"><title>print_reports&#45;&gt;get_oa_format</title>
<path fill="none" stroke="black" d="M1707.22,-149.388C1715.44,-147.329 1724.08,-145.398 1732.24,-144 1779.5,-135.904 2129.78,-143.288 2162.24,-108 2173.07,-96.2238 2170.49,-85.7092 2162.24,-72 2151.84,-54.7245 2133.71,-42.7828 2115.72,-34.6747"/>
<polygon fill="black" stroke="black" points="2116.95,-31.3924 2106.37,-30.7761 2114.25,-37.8537 2116.95,-31.3924"/>
</g>
<!-- gen8_read_report_reason -->
<g id="node29" class="node"><title>gen8_read_report_reason</title>
<ellipse fill="none" stroke="black" cx="1182.24" cy="-90" rx="100.182" ry="18"/>
<text text-anchor="middle" x="1182.24" y="-86.3" font-family="Times,serif" font-size="14.00">gen8_read_report_reason</text>
</g>
<!-- print_reports&#45;&gt;gen8_read_report_reason -->
<g id="edge38" class="edge"><title>print_reports&#45;&gt;gen8_read_report_reason</title>
<path fill="none" stroke="black" d="M1626.87,-149.503C1618.76,-147.46 1610.26,-145.506 1602.24,-144 1465.48,-118.333 1429.12,-126.725 1291.24,-108 1282.39,-106.798 1273.15,-105.47 1263.95,-104.102"/>
<polygon fill="black" stroke="black" points="1264.41,-100.632 1254,-102.605 1263.37,-107.554 1264.41,-100.632"/>
</g>
<!-- gen8_read_report_clock_ratios -->
<g id="node30" class="node"><title>gen8_read_report_clock_ratios</title>
<ellipse fill="none" stroke="black" cx="1420.24" cy="-90" rx="120.479" ry="18"/>
<text text-anchor="middle" x="1420.24" y="-86.3" font-family="Times,serif" font-size="14.00">gen8_read_report_clock_ratios</text>
</g>
<!-- print_reports&#45;&gt;gen8_read_report_clock_ratios -->
<g id="edge40" class="edge"><title>print_reports&#45;&gt;gen8_read_report_clock_ratios</title>
<path fill="none" stroke="black" d="M1626.73,-149.519C1587.84,-138.498 1528.52,-121.686 1483.42,-108.905"/>
<polygon fill="black" stroke="black" points="1484.31,-105.52 1473.73,-106.16 1482.4,-112.255 1484.31,-105.52"/>
</g>
<!-- gen8_40bit_a_delta -->
<g id="node31" class="node"><title>gen8_40bit_a_delta</title>
<ellipse fill="none" stroke="black" cx="1873.24" cy="-90" rx="79.8859" ry="18"/>
<text text-anchor="middle" x="1873.24" y="-86.3" font-family="Times,serif" font-size="14.00">gen8_40bit_a_delta</text>
</g>
<!-- print_reports&#45;&gt;gen8_40bit_a_delta -->
<g id="edge41" class="edge"><title>print_reports&#45;&gt;gen8_40bit_a_delta</title>
<path fill="none" stroke="black" d="M1704.54,-148.324C1737.08,-137.268 1784.63,-121.111 1820.96,-108.766"/>
<polygon fill="black" stroke="black" points="1822.54,-111.924 1830.88,-105.393 1820.29,-105.297 1822.54,-111.924"/>
</g>
<!-- emit_stall_timestamp_and_rpc -->
<g id="node28" class="node"><title>emit_stall_timestamp_and_rpc</title>
<ellipse fill="none" stroke="black" cx="120.239" cy="-234" rx="120.479" ry="18"/>
<text text-anchor="middle" x="120.239" y="-230.3" font-family="Times,serif" font-size="14.00">emit_stall_timestamp_and_rpc</text>
</g>
<!-- emit_stall_timestamp_and_rpc&#45;&gt;intel_batchbuffer_require_space -->
<g id="edge35" class="edge"><title>emit_stall_timestamp_and_rpc&#45;&gt;intel_batchbuffer_require_space</title>
<path fill="none" stroke="black" d="M64.8847,-217.906C46.1103,-209.853 27.1448,-197.797 16.2393,-180 7.87984,-166.357 6.57295,-156.75 16.2393,-144 28.8218,-127.404 72.4745,-114.573 114.66,-105.696"/>
<polygon fill="black" stroke="black" points="115.377,-109.122 124.476,-103.694 113.978,-102.263 115.377,-109.122"/>
</g>
<!-- emit_stall_timestamp_and_rpc&#45;&gt;intel_batchbuffer_emit_dword -->
<g id="edge36" class="edge"><title>emit_stall_timestamp_and_rpc&#45;&gt;intel_batchbuffer_emit_dword</title>
<path fill="none" stroke="black" d="M237.327,-229.704C387.605,-224.242 632.399,-210.706 660.239,-180 696.616,-139.879 628.617,-116.612 563.157,-104.002"/>
<polygon fill="black" stroke="black" points="563.581,-100.521 553.111,-102.144 562.307,-107.405 563.581,-100.521"/>
</g>
<!-- emit_stall_timestamp_and_rpc&#45;&gt;emit_report_perf_count -->
<g id="edge34" class="edge"><title>emit_stall_timestamp_and_rpc&#45;&gt;emit_report_perf_count</title>
<path fill="none" stroke="black" d="M120.239,-215.697C120.239,-207.983 120.239,-198.712 120.239,-190.112"/>
<polygon fill="black" stroke="black" points="123.739,-190.104 120.239,-180.104 116.739,-190.104 123.739,-190.104"/>
</g>
<!-- init_sys_info -->
<g id="node32" class="node"><title>init_sys_info</title>
<ellipse fill="none" stroke="black" cx="2135.24" cy="-234" rx="56.59" ry="18"/>
<text text-anchor="middle" x="2135.24" y="-230.3" font-family="Times,serif" font-size="14.00">init_sys_info</text>
</g>
<!-- init_sys_info&#45;&gt;max_oa_exponent_for_period_lte -->
<g id="edge43" class="edge"><title>init_sys_info&#45;&gt;max_oa_exponent_for_period_lte</title>
<path fill="none" stroke="black" d="M2173.54,-220.647C2206.71,-209.946 2255.22,-194.296 2293.34,-182.001"/>
<polygon fill="black" stroke="black" points="2294.84,-185.193 2303.29,-178.792 2292.69,-178.531 2294.84,-185.193"/>
</g>
<!-- init_sys_info&#45;&gt;read_u64_file -->
<g id="edge42" class="edge"><title>init_sys_info&#45;&gt;read_u64_file</title>
<path fill="none" stroke="black" d="M2087.71,-224.151C2034.58,-214.104 1946.03,-196.906 1870.24,-180 1865.32,-178.903 1860.22,-177.724 1855.11,-176.516"/>
<polygon fill="black" stroke="black" points="1855.88,-173.101 1845.34,-174.173 1854.25,-179.909 1855.88,-173.101"/>
</g>
<!-- send_mi_load_reg_mem -->
<g id="node33" class="node"><title>send_mi_load_reg_mem</title>
<ellipse fill="none" stroke="black" cx="332.239" cy="-162" rx="98.5829" ry="18"/>
<text text-anchor="middle" x="332.239" y="-158.3" font-family="Times,serif" font-size="14.00">send_mi_load_reg_mem</text>
</g>
<!-- send_mi_load_reg_mem&#45;&gt;intel_batchbuffer_require_space -->
<g id="edge44" class="edge"><title>send_mi_load_reg_mem&#45;&gt;intel_batchbuffer_require_space</title>
<path fill="none" stroke="black" d="M302.784,-144.765C285.404,-135.185 263.193,-122.943 244.357,-112.561"/>
<polygon fill="black" stroke="black" points="245.864,-109.395 235.417,-107.633 242.485,-115.526 245.864,-109.395"/>
</g>
<!-- send_mi_load_reg_mem&#45;&gt;intel_batchbuffer_emit_dword -->
<g id="edge45" class="edge"><title>send_mi_load_reg_mem&#45;&gt;intel_batchbuffer_emit_dword</title>
<path fill="none" stroke="black" d="M363.086,-144.765C381.586,-135.028 405.312,-122.541 425.242,-112.051"/>
<polygon fill="black" stroke="black" points="426.88,-115.145 434.099,-107.39 423.619,-108.95 426.88,-115.145"/>
</g>
<!-- i915_perf_add_config -->
<g id="node34" class="node"><title>i915_perf_add_config</title>
<ellipse fill="none" stroke="black" cx="2597.24" cy="-234" rx="89.0842" ry="18"/>
<text text-anchor="middle" x="2597.24" y="-230.3" font-family="Times,serif" font-size="14.00">i915_perf_add_config</text>
</g>
<!-- __i915_perf_add_config -->
<g id="node35" class="node"><title>__i915_perf_add_config</title>
<ellipse fill="none" stroke="black" cx="2597.24" cy="-162" rx="97.4827" ry="18"/>
<text text-anchor="middle" x="2597.24" y="-158.3" font-family="Times,serif" font-size="14.00">__i915_perf_add_config</text>
</g>
<!-- i915_perf_add_config&#45;&gt;__i915_perf_add_config -->
<g id="edge47" class="edge"><title>i915_perf_add_config&#45;&gt;__i915_perf_add_config</title>
<path fill="none" stroke="black" d="M2597.24,-215.697C2597.24,-207.983 2597.24,-198.712 2597.24,-190.112"/>
<polygon fill="black" stroke="black" points="2600.74,-190.104 2597.24,-180.104 2593.74,-190.104 2600.74,-190.104"/>
</g>
<!-- hsw_read_report_ticks -->
<g id="node36" class="node"><title>hsw_read_report_ticks</title>
<ellipse fill="none" stroke="black" cx="2062.24" cy="-90" rx="90.9839" ry="18"/>
<text text-anchor="middle" x="2062.24" y="-86.3" font-family="Times,serif" font-size="14.00">hsw_read_report_ticks</text>
</g>
<!-- hsw_read_report_ticks&#45;&gt;get_oa_format -->
<g id="edge50" class="edge"><title>hsw_read_report_ticks&#45;&gt;get_oa_format</title>
<path fill="none" stroke="black" d="M2062.24,-71.6966C2062.24,-63.9827 2062.24,-54.7125 2062.24,-46.1124"/>
<polygon fill="black" stroke="black" points="2065.74,-46.1043 2062.24,-36.1043 2058.74,-46.1044 2065.74,-46.1043"/>
</g>
<!-- oa_report_is_periodic -->
<g id="node37" class="node"><title>oa_report_is_periodic</title>
<ellipse fill="none" stroke="black" cx="2792.24" cy="-234" rx="87.9851" ry="18"/>
<text text-anchor="middle" x="2792.24" y="-230.3" font-family="Times,serif" font-size="14.00">oa_report_is_periodic</text>
</g>
<!-- read_i915_module_ref -->
<g id="node38" class="node"><title>read_i915_module_ref</title>
<ellipse fill="none" stroke="black" cx="2989.24" cy="-234" rx="90.9839" ry="18"/>
<text text-anchor="middle" x="2989.24" y="-230.3" font-family="Times,serif" font-size="14.00">read_i915_module_ref</text>
</g>
<!-- create_filtering_word -->
<g id="node39" class="node"><title>create_filtering_word</title>
<ellipse fill="none" stroke="black" cx="3185.24" cy="-234" rx="87.1846" ry="18"/>
<text text-anchor="middle" x="3185.24" y="-230.3" font-family="Times,serif" font-size="14.00">create_filtering_word</text>
</g>
<!-- profile_through_opencl -->
<g id="node40" class="node"><title>profile_through_opencl</title>
<ellipse fill="none" stroke="black" cx="3384.24" cy="-234" rx="93.6835" ry="18"/>
<text text-anchor="middle" x="3384.24" y="-230.3" font-family="Times,serif" font-size="14.00">profile_through_opencl</text>
</g>
<!-- write_u64_file -->
<g id="node41" class="node"><title>write_u64_file</title>
<ellipse fill="none" stroke="black" cx="3558.24" cy="-234" rx="62.2891" ry="18"/>
<text text-anchor="middle" x="3558.24" y="-230.3" font-family="Times,serif" font-size="14.00">write_u64_file</text>
</g>
<!-- print_report_card -->
<g id="node42" class="node"><title>print_report_card</title>
<ellipse fill="none" stroke="black" cx="3711.24" cy="-234" rx="72.2875" ry="18"/>
<text text-anchor="middle" x="3711.24" y="-230.3" font-family="Times,serif" font-size="14.00">print_report_card</text>
</g>
<!-- gen8_read_report_ticks -->
<g id="node43" class="node"><title>gen8_read_report_ticks</title>
<ellipse fill="none" stroke="black" cx="3895.24" cy="-234" rx="93.6835" ry="18"/>
<text text-anchor="middle" x="3895.24" y="-230.3" font-family="Times,serif" font-size="14.00">gen8_read_report_ticks</text>
</g>
<!-- oa_exponent_to_ns -->
<g id="node44" class="node"><title>oa_exponent_to_ns</title>
<ellipse fill="none" stroke="black" cx="4086.24" cy="-234" rx="79.0865" ry="18"/>
<text text-anchor="middle" x="4086.24" y="-230.3" font-family="Times,serif" font-size="14.00">oa_exponent_to_ns</text>
</g>
<!-- print_binary -->
<g id="node45" class="node"><title>print_binary</title>
<ellipse fill="none" stroke="black" cx="4237.24" cy="-234" rx="53.8905" ry="18"/>
<text text-anchor="middle" x="4237.24" y="-230.3" font-family="Times,serif" font-size="14.00">print_binary</text>
</g>
<!-- i915_perf_remove_config -->
<g id="node46" class="node"><title>i915_perf_remove_config</title>
<ellipse fill="none" stroke="black" cx="4412.24" cy="-234" rx="102.882" ry="18"/>
<text text-anchor="middle" x="4412.24" y="-230.3" font-family="Times,serif" font-size="14.00">i915_perf_remove_config</text>
</g>
<!-- fmedian -->
<g id="node47" class="node"><title>fmedian</title>
<ellipse fill="none" stroke="black" cx="4573.24" cy="-234" rx="40.0939" ry="18"/>
<text text-anchor="middle" x="4573.24" y="-230.3" font-family="Times,serif" font-size="14.00">fmedian</text>
</g>
</g>
</svg>
