<?xml version="1.0" encoding="UTF-8" standalone="no"?>
<!DOCTYPE svg PUBLIC "-//W3C//DTD SVG 1.1//EN"
 "http://www.w3.org/Graphics/SVG/1.1/DTD/svg11.dtd">
<!-- Generated by graphviz version 2.38.0 (20140413.2041)
 -->
<!-- Title: callgraph Pages: 1 -->
<svg width="4804pt" height="260pt"
 viewBox="0.00 0.00 4803.73 260.00" xmlns="http://www.w3.org/2000/svg" xmlns:xlink="http://www.w3.org/1999/xlink">
<g id="graph0" class="graph" transform="scale(1 1) rotate(0) translate(4 256)">
<title>callgraph</title>
<polygon fill="white" stroke="none" points="-4,4 -4,-256 4799.73,-256 4799.73,4 -4,4"/>
<!-- init_sys_info -->
<g id="node1" class="node"><title>init_sys_info</title>
<ellipse fill="none" stroke="black" cx="330.988" cy="-234" rx="56.59" ry="18"/>
<text text-anchor="middle" x="330.988" y="-230.3" font-family="Times,serif" font-size="14.00">init_sys_info</text>
</g>
<!-- max_oa_exponent_for_period_lte -->
<g id="node2" class="node"><title>max_oa_exponent_for_period_lte</title>
<ellipse fill="none" stroke="black" cx="129.988" cy="-162" rx="129.977" ry="18"/>
<text text-anchor="middle" x="129.988" y="-158.3" font-family="Times,serif" font-size="14.00">max_oa_exponent_for_period_lte</text>
</g>
<!-- init_sys_info&#45;&gt;max_oa_exponent_for_period_lte -->
<g id="edge1" class="edge"><title>init_sys_info&#45;&gt;max_oa_exponent_for_period_lte</title>
<path fill="none" stroke="black" d="M294.122,-220.161C263.665,-209.554 219.963,-194.334 185.31,-182.266"/>
<polygon fill="black" stroke="black" points="186.39,-178.936 175.795,-178.952 184.088,-185.547 186.39,-178.936"/>
</g>
<!-- read_u64_file -->
<g id="node3" class="node"><title>read_u64_file</title>
<ellipse fill="none" stroke="black" cx="337.988" cy="-162" rx="59.5901" ry="18"/>
<text text-anchor="middle" x="337.988" y="-158.3" font-family="Times,serif" font-size="14.00">read_u64_file</text>
</g>
<!-- init_sys_info&#45;&gt;read_u64_file -->
<g id="edge2" class="edge"><title>init_sys_info&#45;&gt;read_u64_file</title>
<path fill="none" stroke="black" d="M332.719,-215.697C333.49,-207.983 334.417,-198.712 335.277,-190.112"/>
<polygon fill="black" stroke="black" points="338.766,-190.403 336.278,-180.104 331.8,-189.706 338.766,-190.403"/>
</g>
<!-- timebase_scale -->
<g id="node31" class="node"><title>timebase_scale</title>
<ellipse fill="none" stroke="black" cx="129.988" cy="-90" rx="64.189" ry="18"/>
<text text-anchor="middle" x="129.988" y="-86.3" font-family="Times,serif" font-size="14.00">timebase_scale</text>
</g>
<!-- max_oa_exponent_for_period_lte&#45;&gt;timebase_scale -->
<g id="edge43" class="edge"><title>max_oa_exponent_for_period_lte&#45;&gt;timebase_scale</title>
<path fill="none" stroke="black" d="M129.988,-143.697C129.988,-135.983 129.988,-126.712 129.988,-118.112"/>
<polygon fill="black" stroke="black" points="133.489,-118.104 129.988,-108.104 126.489,-118.104 133.489,-118.104"/>
</g>
<!-- read_counters_rpc -->
<g id="node4" class="node"><title>read_counters_rpc</title>
<ellipse fill="none" stroke="black" cx="1028.99" cy="-234" rx="75.2868" ry="18"/>
<text text-anchor="middle" x="1028.99" y="-230.3" font-family="Times,serif" font-size="14.00">read_counters_rpc</text>
</g>
<!-- read_counters_rpc&#45;&gt;read_u64_file -->
<g id="edge11" class="edge"><title>read_counters_rpc&#45;&gt;read_u64_file</title>
<path fill="none" stroke="black" d="M959.561,-226.708C855.801,-217.203 654.15,-198.339 482.988,-180 456.63,-177.176 427.606,-173.822 402.495,-170.842"/>
<polygon fill="black" stroke="black" points="402.699,-167.342 392.356,-169.634 401.871,-174.293 402.699,-167.342"/>
</g>
<!-- read_tsc_start -->
<g id="node5" class="node"><title>read_tsc_start</title>
<ellipse fill="none" stroke="black" cx="969.988" cy="-162" rx="59.5901" ry="18"/>
<text text-anchor="middle" x="969.988" y="-158.3" font-family="Times,serif" font-size="14.00">read_tsc_start</text>
</g>
<!-- read_counters_rpc&#45;&gt;read_tsc_start -->
<g id="edge3" class="edge"><title>read_counters_rpc&#45;&gt;read_tsc_start</title>
<path fill="none" stroke="black" d="M1014.71,-216.055C1007.53,-207.543 998.703,-197.068 990.791,-187.681"/>
<polygon fill="black" stroke="black" points="993.26,-185.18 984.139,-179.789 987.908,-189.691 993.26,-185.18"/>
</g>
<!-- read_tsc_end -->
<g id="node6" class="node"><title>read_tsc_end</title>
<ellipse fill="none" stroke="black" cx="1205.99" cy="-162" rx="57.3905" ry="18"/>
<text text-anchor="middle" x="1205.99" y="-158.3" font-family="Times,serif" font-size="14.00">read_tsc_end</text>
</g>
<!-- read_counters_rpc&#45;&gt;read_tsc_end -->
<g id="edge4" class="edge"><title>read_counters_rpc&#45;&gt;read_tsc_end</title>
<path fill="none" stroke="black" d="M1066.09,-218.326C1094.14,-207.232 1132.74,-191.969 1162.28,-180.284"/>
<polygon fill="black" stroke="black" points="1163.92,-183.402 1171.93,-176.47 1161.34,-176.892 1163.92,-183.402"/>
</g>
<!-- median -->
<g id="node7" class="node"><title>median</title>
<ellipse fill="none" stroke="black" cx="1485.99" cy="-162" rx="37.0935" ry="18"/>
<text text-anchor="middle" x="1485.99" y="-158.3" font-family="Times,serif" font-size="14.00">median</text>
</g>
<!-- read_counters_rpc&#45;&gt;median -->
<g id="edge5" class="edge"><title>read_counters_rpc&#45;&gt;median</title>
<path fill="none" stroke="black" d="M1101.17,-228.64C1183.96,-222.503 1323.32,-208.69 1439.99,-180 1442.95,-179.271 1445.99,-178.413 1449.02,-177.477"/>
<polygon fill="black" stroke="black" points="1450.2,-180.771 1458.57,-174.279 1447.98,-174.133 1450.2,-180.771"/>
</g>
<!-- serialize -->
<g id="node8" class="node"><title>serialize</title>
<ellipse fill="none" stroke="black" cx="851.988" cy="-162" rx="40.0939" ry="18"/>
<text text-anchor="middle" x="851.988" y="-158.3" font-family="Times,serif" font-size="14.00">serialize</text>
</g>
<!-- read_counters_rpc&#45;&gt;serialize -->
<g id="edge6" class="edge"><title>read_counters_rpc&#45;&gt;serialize</title>
<path fill="none" stroke="black" d="M991.883,-218.326C962.155,-206.569 920.586,-190.129 890.494,-178.228"/>
<polygon fill="black" stroke="black" points="891.743,-174.958 881.157,-174.535 889.169,-181.468 891.743,-174.958"/>
</g>
<!-- scratch_buf_init -->
<g id="node9" class="node"><title>scratch_buf_init</title>
<ellipse fill="none" stroke="black" cx="725.988" cy="-162" rx="67.6881" ry="18"/>
<text text-anchor="middle" x="725.988" y="-158.3" font-family="Times,serif" font-size="14.00">scratch_buf_init</text>
</g>
<!-- read_counters_rpc&#45;&gt;scratch_buf_init -->
<g id="edge7" class="edge"><title>read_counters_rpc&#45;&gt;scratch_buf_init</title>
<path fill="none" stroke="black" d="M976.901,-220.967C923.698,-208.676 841.211,-189.619 785.473,-176.742"/>
<polygon fill="black" stroke="black" points="785.921,-173.254 775.39,-174.413 784.345,-180.074 785.921,-173.254"/>
</g>
<!-- print_reports -->
<g id="node10" class="node"><title>print_reports</title>
<ellipse fill="none" stroke="black" cx="1374.99" cy="-162" rx="55.7903" ry="18"/>
<text text-anchor="middle" x="1374.99" y="-158.3" font-family="Times,serif" font-size="14.00">print_reports</text>
</g>
<!-- read_counters_rpc&#45;&gt;print_reports -->
<g id="edge8" class="edge"><title>read_counters_rpc&#45;&gt;print_reports</title>
<path fill="none" stroke="black" d="M1087.58,-222.602C1143.56,-212.464 1230.25,-196.241 1304.99,-180 1310.63,-178.775 1316.5,-177.44 1322.35,-176.073"/>
<polygon fill="black" stroke="black" points="1323.2,-179.47 1332.12,-173.759 1321.58,-172.659 1323.2,-179.47"/>
</g>
<!-- scratch_buf_memset -->
<g id="node11" class="node"><title>scratch_buf_memset</title>
<ellipse fill="none" stroke="black" cx="704.988" cy="-90" rx="84.485" ry="18"/>
<text text-anchor="middle" x="704.988" y="-86.3" font-family="Times,serif" font-size="14.00">scratch_buf_memset</text>
</g>
<!-- read_counters_rpc&#45;&gt;scratch_buf_memset -->
<g id="edge9" class="edge"><title>read_counters_rpc&#45;&gt;scratch_buf_memset</title>
<path fill="none" stroke="black" d="M1101.86,-229.289C1191.49,-222.198 1325.59,-201.831 1271.99,-144 1236.16,-105.342 851.269,-114.699 798.988,-108 791.095,-106.989 782.857,-105.759 774.682,-104.428"/>
<polygon fill="black" stroke="black" points="775.211,-100.968 764.769,-102.763 774.051,-107.872 775.211,-100.968"/>
</g>
<!-- umedian -->
<g id="node12" class="node"><title>umedian</title>
<ellipse fill="none" stroke="black" cx="1088.99" cy="-162" rx="41.6928" ry="18"/>
<text text-anchor="middle" x="1088.99" y="-158.3" font-family="Times,serif" font-size="14.00">umedian</text>
</g>
<!-- read_counters_rpc&#45;&gt;umedian -->
<g id="edge10" class="edge"><title>read_counters_rpc&#45;&gt;umedian</title>
<path fill="none" stroke="black" d="M1043.51,-216.055C1050.99,-207.33 1060.24,-196.544 1068.43,-186.981"/>
<polygon fill="black" stroke="black" points="1071.16,-189.177 1075.01,-179.307 1065.85,-184.622 1071.16,-189.177"/>
</g>
<!-- __perf_close -->
<g id="node13" class="node"><title>__perf_close</title>
<ellipse fill="none" stroke="black" cx="546.988" cy="-90" rx="55.7903" ry="18"/>
<text text-anchor="middle" x="546.988" y="-86.3" font-family="Times,serif" font-size="14.00">__perf_close</text>
</g>
<!-- read_counters_rpc&#45;&gt;__perf_close -->
<g id="edge12" class="edge"><title>read_counters_rpc&#45;&gt;__perf_close</title>
<path fill="none" stroke="black" d="M957.536,-228.246C862.975,-221.068 702.034,-205.525 648.988,-180 628.025,-169.913 628.402,-159.428 610.988,-144 599.345,-133.684 586.156,-122.656 574.789,-113.345"/>
<polygon fill="black" stroke="black" points="576.845,-110.506 566.882,-106.904 572.424,-115.933 576.845,-110.506"/>
</g>
<!-- __perf_open -->
<g id="node14" class="node"><title>__perf_open</title>
<ellipse fill="none" stroke="black" cx="546.988" cy="-162" rx="55.4913" ry="18"/>
<text text-anchor="middle" x="546.988" y="-158.3" font-family="Times,serif" font-size="14.00">__perf_open</text>
</g>
<!-- read_counters_rpc&#45;&gt;__perf_open -->
<g id="edge13" class="edge"><title>read_counters_rpc&#45;&gt;__perf_open</title>
<path fill="none" stroke="black" d="M959.922,-226.567C877.602,-218.339 736.082,-202.424 615.988,-180 610.239,-178.926 604.253,-177.668 598.315,-176.329"/>
<polygon fill="black" stroke="black" points="598.951,-172.883 588.417,-174.019 597.36,-179.7 598.951,-172.883"/>
</g>
<!-- emit_report_perf_count -->
<g id="node15" class="node"><title>emit_report_perf_count</title>
<ellipse fill="none" stroke="black" cx="1806.99" cy="-162" rx="94.7833" ry="18"/>
<text text-anchor="middle" x="1806.99" y="-158.3" font-family="Times,serif" font-size="14.00">emit_report_perf_count</text>
</g>
<!-- read_counters_rpc&#45;&gt;emit_report_perf_count -->
<g id="edge14" class="edge"><title>read_counters_rpc&#45;&gt;emit_report_perf_count</title>
<path fill="none" stroke="black" d="M1102,-229.263C1225.89,-222.474 1485.08,-206.331 1702.99,-180 1711.7,-178.948 1720.79,-177.693 1729.83,-176.349"/>
<polygon fill="black" stroke="black" points="1730.61,-179.769 1739.97,-174.799 1729.56,-172.849 1730.61,-179.769"/>
</g>
<!-- scratch_buf_init&#45;&gt;scratch_buf_memset -->
<g id="edge48" class="edge"><title>scratch_buf_init&#45;&gt;scratch_buf_memset</title>
<path fill="none" stroke="black" d="M720.797,-143.697C718.458,-135.898 715.641,-126.509 713.037,-117.829"/>
<polygon fill="black" stroke="black" points="716.346,-116.677 710.12,-108.104 709.641,-118.688 716.346,-116.677"/>
</g>
<!-- gen8_read_40bit_a_counter -->
<g id="node19" class="node"><title>gen8_read_40bit_a_counter</title>
<ellipse fill="none" stroke="black" cx="1374.99" cy="-90" rx="108.581" ry="18"/>
<text text-anchor="middle" x="1374.99" y="-86.3" font-family="Times,serif" font-size="14.00">gen8_read_40bit_a_counter</text>
</g>
<!-- print_reports&#45;&gt;gen8_read_40bit_a_counter -->
<g id="edge17" class="edge"><title>print_reports&#45;&gt;gen8_read_40bit_a_counter</title>
<path fill="none" stroke="black" d="M1374.99,-143.697C1374.99,-135.983 1374.99,-126.712 1374.99,-118.112"/>
<polygon fill="black" stroke="black" points="1378.49,-118.104 1374.99,-108.104 1371.49,-118.104 1378.49,-118.104"/>
</g>
<!-- gen8_read_report_reason -->
<g id="node20" class="node"><title>gen8_read_report_reason</title>
<ellipse fill="none" stroke="black" cx="1639.99" cy="-90" rx="100.182" ry="18"/>
<text text-anchor="middle" x="1639.99" y="-86.3" font-family="Times,serif" font-size="14.00">gen8_read_report_reason</text>
</g>
<!-- print_reports&#45;&gt;gen8_read_report_reason -->
<g id="edge18" class="edge"><title>print_reports&#45;&gt;gen8_read_report_reason</title>
<path fill="none" stroke="black" d="M1416.69,-149.985C1459.5,-138.675 1526.7,-120.926 1576.2,-107.85"/>
<polygon fill="black" stroke="black" points="1577.39,-111.155 1586.17,-105.217 1575.6,-104.387 1577.39,-111.155"/>
</g>
<!-- gen8_40bit_a_delta -->
<g id="node21" class="node"><title>gen8_40bit_a_delta</title>
<ellipse fill="none" stroke="black" cx="1837.99" cy="-90" rx="79.8859" ry="18"/>
<text text-anchor="middle" x="1837.99" y="-86.3" font-family="Times,serif" font-size="14.00">gen8_40bit_a_delta</text>
</g>
<!-- print_reports&#45;&gt;gen8_40bit_a_delta -->
<g id="edge19" class="edge"><title>print_reports&#45;&gt;gen8_40bit_a_delta</title>
<path fill="none" stroke="black" d="M1415.36,-149.508C1423.47,-147.464 1431.96,-145.509 1439.99,-144 1575.87,-118.445 1612.33,-128.984 1748.99,-108 1756.04,-106.917 1763.39,-105.683 1770.71,-104.387"/>
<polygon fill="black" stroke="black" points="1771.43,-107.815 1780.64,-102.589 1770.18,-100.927 1771.43,-107.815"/>
</g>
<!-- get_oa_format -->
<g id="node22" class="node"><title>get_oa_format</title>
<ellipse fill="none" stroke="black" cx="1374.99" cy="-18" rx="62.2891" ry="18"/>
<text text-anchor="middle" x="1374.99" y="-14.3" font-family="Times,serif" font-size="14.00">get_oa_format</text>
</g>
<!-- print_reports&#45;&gt;get_oa_format -->
<g id="edge20" class="edge"><title>print_reports&#45;&gt;get_oa_format</title>
<path fill="none" stroke="black" d="M1413.3,-148.855C1444.12,-138.222 1483.75,-122.282 1492.99,-108 1501.68,-94.567 1501.68,-85.433 1492.99,-72 1480.02,-51.9626 1457.49,-39.4278 1435.56,-31.6196"/>
<polygon fill="black" stroke="black" points="1436.49,-28.2419 1425.9,-28.4547 1434.31,-34.894 1436.49,-28.2419"/>
</g>
<!-- gen8_read_report_clock_ratios -->
<g id="node23" class="node"><title>gen8_read_report_clock_ratios</title>
<ellipse fill="none" stroke="black" cx="927.988" cy="-90" rx="120.479" ry="18"/>
<text text-anchor="middle" x="927.988" y="-86.3" font-family="Times,serif" font-size="14.00">gen8_read_report_clock_ratios</text>
</g>
<!-- print_reports&#45;&gt;gen8_read_report_clock_ratios -->
<g id="edge21" class="edge"><title>print_reports&#45;&gt;gen8_read_report_clock_ratios</title>
<path fill="none" stroke="black" d="M1332.94,-150.076C1323.76,-147.892 1314.08,-145.738 1304.99,-144 1277.97,-138.834 1126.7,-117.978 1024.18,-104.02"/>
<polygon fill="black" stroke="black" points="1024.49,-100.53 1014.1,-102.65 1023.54,-107.466 1024.49,-100.53"/>
</g>
<!-- __perf_open&#45;&gt;__perf_close -->
<g id="edge42" class="edge"><title>__perf_open&#45;&gt;__perf_close</title>
<path fill="none" stroke="black" d="M546.988,-143.697C546.988,-135.983 546.988,-126.712 546.988,-118.112"/>
<polygon fill="black" stroke="black" points="550.489,-118.104 546.988,-108.104 543.489,-118.104 550.489,-118.104"/>
</g>
<!-- intel_batchbuffer_emit_dword -->
<g id="node17" class="node"><title>intel_batchbuffer_emit_dword</title>
<ellipse fill="none" stroke="black" cx="2337.99" cy="-90" rx="118.079" ry="18"/>
<text text-anchor="middle" x="2337.99" y="-86.3" font-family="Times,serif" font-size="14.00">intel_batchbuffer_emit_dword</text>
</g>
<!-- emit_report_perf_count&#45;&gt;intel_batchbuffer_emit_dword -->
<g id="edge23" class="edge"><title>emit_report_perf_count&#45;&gt;intel_batchbuffer_emit_dword</title>
<path fill="none" stroke="black" d="M1874.79,-149.368C1886.52,-147.484 1898.59,-145.621 1909.99,-144 2043.38,-125.025 2077.33,-124.938 2210.99,-108 2221.27,-106.697 2232.02,-105.304 2242.73,-103.899"/>
<polygon fill="black" stroke="black" points="2243.5,-107.327 2252.96,-102.55 2242.59,-100.387 2243.5,-107.327"/>
</g>
<!-- intel_batchbuffer_require_space -->
<g id="node18" class="node"><title>intel_batchbuffer_require_space</title>
<ellipse fill="none" stroke="black" cx="2077.99" cy="-90" rx="124.278" ry="18"/>
<text text-anchor="middle" x="2077.99" y="-86.3" font-family="Times,serif" font-size="14.00">intel_batchbuffer_require_space</text>
</g>
<!-- emit_report_perf_count&#45;&gt;intel_batchbuffer_require_space -->
<g id="edge24" class="edge"><title>emit_report_perf_count&#45;&gt;intel_batchbuffer_require_space</title>
<path fill="none" stroke="black" d="M1860.85,-147.087C1903.71,-136.017 1963.93,-120.461 2010.09,-108.539"/>
<polygon fill="black" stroke="black" points="2011.2,-111.867 2020.01,-105.977 2009.45,-105.089 2011.2,-111.867"/>
</g>
<!-- send_mi_load_reg_mem -->
<g id="node16" class="node"><title>send_mi_load_reg_mem</title>
<ellipse fill="none" stroke="black" cx="2355.99" cy="-162" rx="98.5829" ry="18"/>
<text text-anchor="middle" x="2355.99" y="-158.3" font-family="Times,serif" font-size="14.00">send_mi_load_reg_mem</text>
</g>
<!-- send_mi_load_reg_mem&#45;&gt;intel_batchbuffer_emit_dword -->
<g id="edge15" class="edge"><title>send_mi_load_reg_mem&#45;&gt;intel_batchbuffer_emit_dword</title>
<path fill="none" stroke="black" d="M2351.54,-143.697C2349.53,-135.898 2347.12,-126.509 2344.89,-117.829"/>
<polygon fill="black" stroke="black" points="2348.27,-116.918 2342.39,-108.104 2341.49,-118.661 2348.27,-116.918"/>
</g>
<!-- send_mi_load_reg_mem&#45;&gt;intel_batchbuffer_require_space -->
<g id="edge16" class="edge"><title>send_mi_load_reg_mem&#45;&gt;intel_batchbuffer_require_space</title>
<path fill="none" stroke="black" d="M2300.4,-147.003C2256.32,-135.903 2194.47,-120.33 2147.18,-108.423"/>
<polygon fill="black" stroke="black" points="2147.88,-104.989 2137.33,-105.941 2146.17,-111.777 2147.88,-104.989"/>
</g>
<!-- intel_batchbuffer_space -->
<g id="node24" class="node"><title>intel_batchbuffer_space</title>
<ellipse fill="none" stroke="black" cx="2207.99" cy="-18" rx="94.7833" ry="18"/>
<text text-anchor="middle" x="2207.99" y="-14.3" font-family="Times,serif" font-size="14.00">intel_batchbuffer_space</text>
</g>
<!-- intel_batchbuffer_emit_dword&#45;&gt;intel_batchbuffer_space -->
<g id="edge22" class="edge"><title>intel_batchbuffer_emit_dword&#45;&gt;intel_batchbuffer_space</title>
<path fill="none" stroke="black" d="M2307.51,-72.5881C2289.5,-62.89 2266.51,-50.5096 2247.16,-40.0923"/>
<polygon fill="black" stroke="black" points="2248.74,-36.9685 2238.28,-35.3091 2245.42,-43.1318 2248.74,-36.9685"/>
</g>
<!-- intel_batchbuffer_require_space&#45;&gt;intel_batchbuffer_space -->
<g id="edge41" class="edge"><title>intel_batchbuffer_require_space&#45;&gt;intel_batchbuffer_space</title>
<path fill="none" stroke="black" d="M2108.8,-72.411C2126.82,-62.7082 2149.74,-50.3664 2169,-39.9915"/>
<polygon fill="black" stroke="black" points="2170.7,-43.0512 2177.85,-35.2285 2167.39,-36.8879 2170.7,-43.0512"/>
</g>
<!-- gen8_read_40bit_a_counter&#45;&gt;get_oa_format -->
<g id="edge44" class="edge"><title>gen8_read_40bit_a_counter&#45;&gt;get_oa_format</title>
<path fill="none" stroke="black" d="M1374.99,-71.6966C1374.99,-63.9827 1374.99,-54.7125 1374.99,-46.1124"/>
<polygon fill="black" stroke="black" points="1378.49,-46.1043 1374.99,-36.1043 1371.49,-46.1044 1378.49,-46.1043"/>
</g>
<!-- read_counters_mmio -->
<g id="node25" class="node"><title>read_counters_mmio</title>
<ellipse fill="none" stroke="black" cx="546.988" cy="-234" rx="85.5853" ry="18"/>
<text text-anchor="middle" x="546.988" y="-230.3" font-family="Times,serif" font-size="14.00">read_counters_mmio</text>
</g>
<!-- read_counters_mmio&#45;&gt;read_u64_file -->
<g id="edge30" class="edge"><title>read_counters_mmio&#45;&gt;read_u64_file</title>
<path fill="none" stroke="black" d="M503.43,-218.411C469.203,-206.947 421.568,-190.993 386.198,-179.147"/>
<polygon fill="black" stroke="black" points="387.162,-175.779 376.568,-175.921 384.939,-182.416 387.162,-175.779"/>
</g>
<!-- read_counters_mmio&#45;&gt;read_tsc_start -->
<g id="edge27" class="edge"><title>read_counters_mmio&#45;&gt;read_tsc_start</title>
<path fill="none" stroke="black" d="M619.195,-224.189C690.973,-214.961 804.055,-199.154 900.988,-180 906.004,-179.009 911.203,-177.893 916.396,-176.719"/>
<polygon fill="black" stroke="black" points="917.378,-180.085 926.323,-174.408 915.79,-173.267 917.378,-180.085"/>
</g>
<!-- read_counters_mmio&#45;&gt;read_tsc_end -->
<g id="edge26" class="edge"><title>read_counters_mmio&#45;&gt;read_tsc_end</title>
<path fill="none" stroke="black" d="M630.53,-229.825C745.84,-224.47 959.949,-211.019 1139.99,-180 1144.96,-179.143 1150.11,-178.1 1155.24,-176.956"/>
<polygon fill="black" stroke="black" points="1156.09,-180.352 1165.02,-174.655 1154.48,-173.538 1156.09,-180.352"/>
</g>
<!-- read_counters_mmio&#45;&gt;scratch_buf_init -->
<g id="edge25" class="edge"><title>read_counters_mmio&#45;&gt;scratch_buf_init</title>
<path fill="none" stroke="black" d="M585.829,-217.811C613.543,-206.973 650.92,-192.356 680.106,-180.943"/>
<polygon fill="black" stroke="black" points="681.626,-184.107 689.664,-177.205 679.076,-177.588 681.626,-184.107"/>
</g>
<!-- read_counters_mmio&#45;&gt;scratch_buf_memset -->
<g id="edge31" class="edge"><title>read_counters_mmio&#45;&gt;scratch_buf_memset</title>
<path fill="none" stroke="black" d="M517.896,-217.057C504.637,-208.08 490.294,-195.535 482.988,-180 476.18,-165.521 473.075,-156.559 482.988,-144 487.897,-137.782 573.329,-118.645 636.75,-105.16"/>
<polygon fill="black" stroke="black" points="637.667,-108.543 646.724,-103.047 636.216,-101.695 637.667,-108.543"/>
</g>
<!-- read_counters_mmio&#45;&gt;__perf_close -->
<g id="edge28" class="edge"><title>read_counters_mmio&#45;&gt;__perf_close</title>
<path fill="none" stroke="black" d="M499.596,-218.995C480.712,-210.83 460.904,-198.403 449.988,-180 441.826,-166.239 441.826,-157.761 449.988,-144 460.326,-126.572 478.639,-114.504 496.589,-106.339"/>
<polygon fill="black" stroke="black" points="498.041,-109.525 505.898,-102.418 495.324,-103.074 498.041,-109.525"/>
</g>
<!-- read_counters_mmio&#45;&gt;__perf_open -->
<g id="edge29" class="edge"><title>read_counters_mmio&#45;&gt;__perf_open</title>
<path fill="none" stroke="black" d="M546.988,-215.697C546.988,-207.983 546.988,-198.712 546.988,-190.112"/>
<polygon fill="black" stroke="black" points="550.489,-190.104 546.988,-180.104 543.489,-190.104 550.489,-190.104"/>
</g>
<!-- emit_stall_timestamp_and_rpc -->
<g id="node26" class="node"><title>emit_stall_timestamp_and_rpc</title>
<ellipse fill="none" stroke="black" cx="2008.99" cy="-234" rx="120.479" ry="18"/>
<text text-anchor="middle" x="2008.99" y="-230.3" font-family="Times,serif" font-size="14.00">emit_stall_timestamp_and_rpc</text>
</g>
<!-- emit_stall_timestamp_and_rpc&#45;&gt;emit_report_perf_count -->
<g id="edge33" class="edge"><title>emit_stall_timestamp_and_rpc&#45;&gt;emit_report_perf_count</title>
<path fill="none" stroke="black" d="M1963.66,-217.291C1932.98,-206.66 1892.34,-192.577 1860.14,-181.419"/>
<polygon fill="black" stroke="black" points="1861.03,-178.024 1850.44,-178.057 1858.74,-184.638 1861.03,-178.024"/>
</g>
<!-- emit_stall_timestamp_and_rpc&#45;&gt;intel_batchbuffer_emit_dword -->
<g id="edge32" class="edge"><title>emit_stall_timestamp_and_rpc&#45;&gt;intel_batchbuffer_emit_dword</title>
<path fill="none" stroke="black" d="M2121.49,-227.589C2248.81,-220.289 2441.55,-205.207 2463.99,-180 2474.63,-168.05 2472.84,-157.328 2463.99,-144 2452.98,-127.427 2435.67,-116.025 2417.36,-108.184"/>
<polygon fill="black" stroke="black" points="2418.61,-104.915 2408.03,-104.508 2416.05,-111.428 2418.61,-104.915"/>
</g>
<!-- emit_stall_timestamp_and_rpc&#45;&gt;intel_batchbuffer_require_space -->
<g id="edge34" class="edge"><title>emit_stall_timestamp_and_rpc&#45;&gt;intel_batchbuffer_require_space</title>
<path fill="none" stroke="black" d="M2009.92,-215.668C2011.54,-197.016 2015.95,-166.944 2027.99,-144 2033.58,-133.344 2041.92,-123.289 2050.2,-114.86"/>
<polygon fill="black" stroke="black" points="2052.64,-117.369 2057.38,-107.896 2047.76,-112.343 2052.64,-117.369"/>
</g>
<!-- measure_overheads -->
<g id="node27" class="node"><title>measure_overheads</title>
<ellipse fill="none" stroke="black" cx="1527.99" cy="-234" rx="80.6858" ry="18"/>
<text text-anchor="middle" x="1527.99" y="-230.3" font-family="Times,serif" font-size="14.00">measure_overheads</text>
</g>
<!-- measure_overheads&#45;&gt;read_tsc_start -->
<g id="edge38" class="edge"><title>measure_overheads&#45;&gt;read_tsc_start</title>
<path fill="none" stroke="black" d="M1451.56,-227.997C1354.76,-220.914 1183.09,-205.859 1037.99,-180 1033.02,-179.115 1027.89,-178.072 1022.76,-176.944"/>
<polygon fill="black" stroke="black" points="1023.49,-173.521 1012.96,-174.69 1021.92,-180.343 1023.49,-173.521"/>
</g>
<!-- measure_overheads&#45;&gt;read_tsc_end -->
<g id="edge40" class="edge"><title>measure_overheads&#45;&gt;read_tsc_end</title>
<path fill="none" stroke="black" d="M1472.27,-220.887C1413.22,-208.051 1320.54,-187.902 1261.55,-175.079"/>
<polygon fill="black" stroke="black" points="1262.18,-171.634 1251.67,-172.93 1260.7,-178.475 1262.18,-171.634"/>
</g>
<!-- measure_overheads&#45;&gt;median -->
<g id="edge37" class="edge"><title>measure_overheads&#45;&gt;median</title>
<path fill="none" stroke="black" d="M1517.82,-216.055C1512.87,-207.801 1506.81,-197.701 1501.31,-188.538"/>
<polygon fill="black" stroke="black" points="1504.21,-186.563 1496.06,-179.789 1498.21,-190.165 1504.21,-186.563"/>
</g>
<!-- average -->
<g id="node28" class="node"><title>average</title>
<ellipse fill="none" stroke="black" cx="1655.99" cy="-162" rx="38.1938" ry="18"/>
<text text-anchor="middle" x="1655.99" y="-158.3" font-family="Times,serif" font-size="14.00">average</text>
</g>
<!-- measure_overheads&#45;&gt;average -->
<g id="edge35" class="edge"><title>measure_overheads&#45;&gt;average</title>
<path fill="none" stroke="black" d="M1557.03,-217.116C1576.61,-206.412 1602.47,-192.267 1622.85,-181.123"/>
<polygon fill="black" stroke="black" points="1624.69,-184.106 1631.78,-176.237 1621.33,-177.965 1624.69,-184.106"/>
</g>
<!-- umax -->
<g id="node29" class="node"><title>umax</title>
<ellipse fill="none" stroke="black" cx="1949.99" cy="-162" rx="30.5947" ry="18"/>
<text text-anchor="middle" x="1949.99" y="-158.3" font-family="Times,serif" font-size="14.00">umax</text>
</g>
<!-- measure_overheads&#45;&gt;umax -->
<g id="edge36" class="edge"><title>measure_overheads&#45;&gt;umax</title>
<path fill="none" stroke="black" d="M1604.82,-228.559C1683.06,-222.605 1807.28,-209.182 1910.99,-180 1913.27,-179.359 1915.59,-178.611 1917.9,-177.794"/>
<polygon fill="black" stroke="black" points="1919.23,-181.034 1927.27,-174.14 1916.69,-174.513 1919.23,-181.034"/>
</g>
<!-- umin -->
<g id="node30" class="node"><title>umin</title>
<ellipse fill="none" stroke="black" cx="1569.99" cy="-162" rx="29.4969" ry="18"/>
<text text-anchor="middle" x="1569.99" y="-158.3" font-family="Times,serif" font-size="14.00">umin</text>
</g>
<!-- measure_overheads&#45;&gt;umin -->
<g id="edge39" class="edge"><title>measure_overheads&#45;&gt;umin</title>
<path fill="none" stroke="black" d="M1538.16,-216.055C1543.18,-207.679 1549.35,-197.404 1554.91,-188.134"/>
<polygon fill="black" stroke="black" points="1558.06,-189.683 1560.2,-179.307 1552.06,-186.081 1558.06,-189.683"/>
</g>
<!-- max_oa_exponent_for_freq_gt -->
<g id="node32" class="node"><title>max_oa_exponent_for_freq_gt</title>
<ellipse fill="none" stroke="black" cx="129.988" cy="-234" rx="120.479" ry="18"/>
<text text-anchor="middle" x="129.988" y="-230.3" font-family="Times,serif" font-size="14.00">max_oa_exponent_for_freq_gt</text>
</g>
<!-- max_oa_exponent_for_freq_gt&#45;&gt;max_oa_exponent_for_period_lte -->
<g id="edge45" class="edge"><title>max_oa_exponent_for_freq_gt&#45;&gt;max_oa_exponent_for_period_lte</title>
<path fill="none" stroke="black" d="M129.988,-215.697C129.988,-207.983 129.988,-198.712 129.988,-190.112"/>
<polygon fill="black" stroke="black" points="133.489,-190.104 129.988,-180.104 126.489,-190.104 133.489,-190.104"/>
</g>
<!-- i915_perf_add_config -->
<g id="node33" class="node"><title>i915_perf_add_config</title>
<ellipse fill="none" stroke="black" cx="2607.99" cy="-234" rx="89.0842" ry="18"/>
<text text-anchor="middle" x="2607.99" y="-230.3" font-family="Times,serif" font-size="14.00">i915_perf_add_config</text>
</g>
<!-- __i915_perf_add_config -->
<g id="node34" class="node"><title>__i915_perf_add_config</title>
<ellipse fill="none" stroke="black" cx="2607.99" cy="-162" rx="97.4827" ry="18"/>
<text text-anchor="middle" x="2607.99" y="-158.3" font-family="Times,serif" font-size="14.00">__i915_perf_add_config</text>
</g>
<!-- i915_perf_add_config&#45;&gt;__i915_perf_add_config -->
<g id="edge46" class="edge"><title>i915_perf_add_config&#45;&gt;__i915_perf_add_config</title>
<path fill="none" stroke="black" d="M2607.99,-215.697C2607.99,-207.983 2607.99,-198.712 2607.99,-190.112"/>
<polygon fill="black" stroke="black" points="2611.49,-190.104 2607.99,-180.104 2604.49,-190.104 2611.49,-190.104"/>
</g>
<!-- hsw_read_report_ticks -->
<g id="node35" class="node"><title>hsw_read_report_ticks</title>
<ellipse fill="none" stroke="black" cx="1156.99" cy="-90" rx="90.9839" ry="18"/>
<text text-anchor="middle" x="1156.99" y="-86.3" font-family="Times,serif" font-size="14.00">hsw_read_report_ticks</text>
</g>
<!-- hsw_read_report_ticks&#45;&gt;get_oa_format -->
<g id="edge47" class="edge"><title>hsw_read_report_ticks&#45;&gt;get_oa_format</title>
<path fill="none" stroke="black" d="M1202.69,-74.3257C1238.56,-62.8068 1288.43,-46.7929 1325.3,-34.9566"/>
<polygon fill="black" stroke="black" points="1326.4,-38.2795 1334.85,-31.8897 1324.25,-31.6146 1326.4,-38.2795"/>
</g>
<!-- send_mi_store_reg_mem -->
<g id="node36" class="node"><title>send_mi_store_reg_mem</title>
<ellipse fill="none" stroke="black" cx="2137.99" cy="-162" rx="100.983" ry="18"/>
<text text-anchor="middle" x="2137.99" y="-158.3" font-family="Times,serif" font-size="14.00">send_mi_store_reg_mem</text>
</g>
<!-- send_mi_store_reg_mem&#45;&gt;intel_batchbuffer_emit_dword -->
<g id="edge49" class="edge"><title>send_mi_store_reg_mem&#45;&gt;intel_batchbuffer_emit_dword</title>
<path fill="none" stroke="black" d="M2181.88,-145.638C2211.79,-135.171 2251.59,-121.238 2283.52,-110.062"/>
<polygon fill="black" stroke="black" points="2284.88,-113.296 2293.16,-106.689 2282.57,-106.689 2284.88,-113.296"/>
</g>
<!-- send_mi_store_reg_mem&#45;&gt;intel_batchbuffer_require_space -->
<g id="edge50" class="edge"><title>send_mi_store_reg_mem&#45;&gt;intel_batchbuffer_require_space</title>
<path fill="none" stroke="black" d="M2123.46,-144.055C2116.28,-135.668 2107.45,-125.376 2099.5,-116.096"/>
<polygon fill="black" stroke="black" points="2101.96,-113.59 2092.8,-108.275 2096.65,-118.146 2101.96,-113.59"/>
</g>
<!-- profile_through_opencl -->
<g id="node37" class="node"><title>profile_through_opencl</title>
<ellipse fill="none" stroke="black" cx="2808.99" cy="-234" rx="93.6835" ry="18"/>
<text text-anchor="middle" x="2808.99" y="-230.3" font-family="Times,serif" font-size="14.00">profile_through_opencl</text>
</g>
<!-- read_i915_module_ref -->
<g id="node38" class="node"><title>read_i915_module_ref</title>
<ellipse fill="none" stroke="black" cx="3011.99" cy="-234" rx="90.9839" ry="18"/>
<text text-anchor="middle" x="3011.99" y="-230.3" font-family="Times,serif" font-size="14.00">read_i915_module_ref</text>
</g>
<!-- i915_perf_remove_config -->
<g id="node39" class="node"><title>i915_perf_remove_config</title>
<ellipse fill="none" stroke="black" cx="3223.99" cy="-234" rx="102.882" ry="18"/>
<text text-anchor="middle" x="3223.99" y="-230.3" font-family="Times,serif" font-size="14.00">i915_perf_remove_config</text>
</g>
<!-- oa_exponent_to_ns -->
<g id="node40" class="node"><title>oa_exponent_to_ns</title>
<ellipse fill="none" stroke="black" cx="3423.99" cy="-234" rx="79.0865" ry="18"/>
<text text-anchor="middle" x="3423.99" y="-230.3" font-family="Times,serif" font-size="14.00">oa_exponent_to_ns</text>
</g>
<!-- print_report_card -->
<g id="node41" class="node"><title>print_report_card</title>
<ellipse fill="none" stroke="black" cx="3592.99" cy="-234" rx="72.2875" ry="18"/>
<text text-anchor="middle" x="3592.99" y="-230.3" font-family="Times,serif" font-size="14.00">print_report_card</text>
</g>
<!-- gen8_read_report_ticks -->
<g id="node42" class="node"><title>gen8_read_report_ticks</title>
<ellipse fill="none" stroke="black" cx="3776.99" cy="-234" rx="93.6835" ry="18"/>
<text text-anchor="middle" x="3776.99" y="-230.3" font-family="Times,serif" font-size="14.00">gen8_read_report_ticks</text>
</g>
<!-- fmedian -->
<g id="node43" class="node"><title>fmedian</title>
<ellipse fill="none" stroke="black" cx="3928.99" cy="-234" rx="40.0939" ry="18"/>
<text text-anchor="middle" x="3928.99" y="-230.3" font-family="Times,serif" font-size="14.00">fmedian</text>
</g>
<!-- create_filtering_word -->
<g id="node44" class="node"><title>create_filtering_word</title>
<ellipse fill="none" stroke="black" cx="4073.99" cy="-234" rx="87.1846" ry="18"/>
<text text-anchor="middle" x="4073.99" y="-230.3" font-family="Times,serif" font-size="14.00">create_filtering_word</text>
</g>
<!-- read_counters_exp -->
<g id="node45" class="node"><title>read_counters_exp</title>
<ellipse fill="none" stroke="black" cx="4255.99" cy="-234" rx="77.1866" ry="18"/>
<text text-anchor="middle" x="4255.99" y="-230.3" font-family="Times,serif" font-size="14.00">read_counters_exp</text>
</g>
<!-- write_u64_file -->
<g id="node46" class="node"><title>write_u64_file</title>
<ellipse fill="none" stroke="black" cx="4413.99" cy="-234" rx="62.2891" ry="18"/>
<text text-anchor="middle" x="4413.99" y="-230.3" font-family="Times,serif" font-size="14.00">write_u64_file</text>
</g>
<!-- print_binary -->
<g id="node47" class="node"><title>print_binary</title>
<ellipse fill="none" stroke="black" cx="4547.99" cy="-234" rx="53.8905" ry="18"/>
<text text-anchor="middle" x="4547.99" y="-230.3" font-family="Times,serif" font-size="14.00">print_binary</text>
</g>
<!-- oa_report_is_periodic -->
<g id="node48" class="node"><title>oa_report_is_periodic</title>
<ellipse fill="none" stroke="black" cx="4707.99" cy="-234" rx="87.9851" ry="18"/>
<text text-anchor="middle" x="4707.99" y="-230.3" font-family="Times,serif" font-size="14.00">oa_report_is_periodic</text>
</g>
</g>
</svg>
