<?xml version="1.0" encoding="UTF-8" standalone="no"?>
<!DOCTYPE svg PUBLIC "-//W3C//DTD SVG 1.1//EN"
 "http://www.w3.org/Graphics/SVG/1.1/DTD/svg11.dtd">
<!-- Generated by graphviz version 2.38.0 (20140413.2041)
 -->
<!-- Title: callgraph Pages: 1 -->
<svg width="4494pt" height="260pt"
 viewBox="0.00 0.00 4493.52 260.00" xmlns="http://www.w3.org/2000/svg" xmlns:xlink="http://www.w3.org/1999/xlink">
<g id="graph0" class="graph" transform="scale(1 1) rotate(0) translate(4 256)">
<title>callgraph</title>
<polygon fill="white" stroke="none" points="-4,4 -4,-256 4489.52,-256 4489.52,4 -4,4"/>
<!-- read_counters_mmio -->
<g id="node1" class="node"><title>read_counters_mmio</title>
<ellipse fill="none" stroke="black" cx="249.781" cy="-234" rx="85.5853" ry="18"/>
<text text-anchor="middle" x="249.781" y="-230.3" font-family="Times,serif" font-size="14.00">read_counters_mmio</text>
</g>
<!-- read_tsc_start -->
<g id="node2" class="node"><title>read_tsc_start</title>
<ellipse fill="none" stroke="black" cx="590.781" cy="-162" rx="59.5901" ry="18"/>
<text text-anchor="middle" x="590.781" y="-158.3" font-family="Times,serif" font-size="14.00">read_tsc_start</text>
</g>
<!-- read_counters_mmio&#45;&gt;read_tsc_start -->
<g id="edge1" class="edge"><title>read_counters_mmio&#45;&gt;read_tsc_start</title>
<path fill="none" stroke="black" d="M312.622,-221.661C367.868,-211.477 450.369,-195.745 521.781,-180 526.7,-178.915 531.805,-177.744 536.912,-176.542"/>
<polygon fill="black" stroke="black" points="537.773,-179.935 546.686,-174.206 536.146,-173.127 537.773,-179.935"/>
</g>
<!-- __perf_open -->
<g id="node3" class="node"><title>__perf_open</title>
<ellipse fill="none" stroke="black" cx="249.781" cy="-162" rx="55.4913" ry="18"/>
<text text-anchor="middle" x="249.781" y="-158.3" font-family="Times,serif" font-size="14.00">__perf_open</text>
</g>
<!-- read_counters_mmio&#45;&gt;__perf_open -->
<g id="edge2" class="edge"><title>read_counters_mmio&#45;&gt;__perf_open</title>
<path fill="none" stroke="black" d="M249.781,-215.697C249.781,-207.983 249.781,-198.712 249.781,-190.112"/>
<polygon fill="black" stroke="black" points="253.281,-190.104 249.781,-180.104 246.281,-190.104 253.281,-190.104"/>
</g>
<!-- __perf_close -->
<g id="node4" class="node"><title>__perf_close</title>
<ellipse fill="none" stroke="black" cx="246.781" cy="-90" rx="55.7903" ry="18"/>
<text text-anchor="middle" x="246.781" y="-86.3" font-family="Times,serif" font-size="14.00">__perf_close</text>
</g>
<!-- read_counters_mmio&#45;&gt;__perf_close -->
<g id="edge3" class="edge"><title>read_counters_mmio&#45;&gt;__perf_close</title>
<path fill="none" stroke="black" d="M175.914,-224.8C119.908,-216.882 49.6229,-202.699 31.7813,-180 -45.107,-82.179 67.8741,-136.561 181.781,-108 186.098,-106.918 190.572,-105.78 195.061,-104.628"/>
<polygon fill="black" stroke="black" points="196.048,-107.988 204.855,-102.099 194.297,-101.211 196.048,-107.988"/>
</g>
<!-- scratch_buf_memset -->
<g id="node5" class="node"><title>scratch_buf_memset</title>
<ellipse fill="none" stroke="black" cx="88.7813" cy="-90" rx="84.485" ry="18"/>
<text text-anchor="middle" x="88.7813" y="-86.3" font-family="Times,serif" font-size="14.00">scratch_buf_memset</text>
</g>
<!-- read_counters_mmio&#45;&gt;scratch_buf_memset -->
<g id="edge4" class="edge"><title>read_counters_mmio&#45;&gt;scratch_buf_memset</title>
<path fill="none" stroke="black" d="M171.621,-226.45C108.635,-219.359 27.2979,-205.474 6.78134,-180 -3.25478,-167.539 -0.868383,-158.053 6.78134,-144 14.3602,-130.077 27.3441,-119.254 40.7729,-111.124"/>
<polygon fill="black" stroke="black" points="42.6021,-114.111 49.6095,-106.164 39.176,-108.007 42.6021,-114.111"/>
</g>
<!-- scratch_buf_init -->
<g id="node6" class="node"><title>scratch_buf_init</title>
<ellipse fill="none" stroke="black" cx="108.781" cy="-162" rx="67.6881" ry="18"/>
<text text-anchor="middle" x="108.781" y="-158.3" font-family="Times,serif" font-size="14.00">scratch_buf_init</text>
</g>
<!-- read_counters_mmio&#45;&gt;scratch_buf_init -->
<g id="edge5" class="edge"><title>read_counters_mmio&#45;&gt;scratch_buf_init</title>
<path fill="none" stroke="black" d="M217.786,-217.116C197.169,-206.88 170.213,-193.498 148.266,-182.602"/>
<polygon fill="black" stroke="black" points="149.713,-179.413 139.2,-178.101 146.601,-185.683 149.713,-179.413"/>
</g>
<!-- read_tsc_end -->
<g id="node7" class="node"><title>read_tsc_end</title>
<ellipse fill="none" stroke="black" cx="455.781" cy="-162" rx="57.3905" ry="18"/>
<text text-anchor="middle" x="455.781" y="-158.3" font-family="Times,serif" font-size="14.00">read_tsc_end</text>
</g>
<!-- read_counters_mmio&#45;&gt;read_tsc_end -->
<g id="edge6" class="edge"><title>read_counters_mmio&#45;&gt;read_tsc_end</title>
<path fill="none" stroke="black" d="M292.715,-218.411C326.666,-206.874 374.002,-190.789 408.931,-178.92"/>
<polygon fill="black" stroke="black" points="410.09,-182.223 418.432,-175.692 407.838,-175.595 410.09,-182.223"/>
</g>
<!-- read_u64_file -->
<g id="node8" class="node"><title>read_u64_file</title>
<ellipse fill="none" stroke="black" cx="958.781" cy="-162" rx="59.5901" ry="18"/>
<text text-anchor="middle" x="958.781" y="-158.3" font-family="Times,serif" font-size="14.00">read_u64_file</text>
</g>
<!-- read_counters_mmio&#45;&gt;read_u64_file -->
<g id="edge7" class="edge"><title>read_counters_mmio&#45;&gt;read_u64_file</title>
<path fill="none" stroke="black" d="M330.551,-227.92C477.767,-218.394 784.29,-197.251 889.781,-180 895.108,-179.129 900.63,-178.059 906.123,-176.884"/>
<polygon fill="black" stroke="black" points="906.948,-180.286 915.935,-174.675 905.41,-173.457 906.948,-180.286"/>
</g>
<!-- __perf_open&#45;&gt;__perf_close -->
<g id="edge9" class="edge"><title>__perf_open&#45;&gt;__perf_close</title>
<path fill="none" stroke="black" d="M249.04,-143.697C248.709,-135.983 248.312,-126.712 247.943,-118.112"/>
<polygon fill="black" stroke="black" points="251.439,-117.945 247.514,-108.104 244.446,-118.245 251.439,-117.945"/>
</g>
<!-- scratch_buf_init&#45;&gt;scratch_buf_memset -->
<g id="edge44" class="edge"><title>scratch_buf_init&#45;&gt;scratch_buf_memset</title>
<path fill="none" stroke="black" d="M103.838,-143.697C101.609,-135.898 98.9266,-126.509 96.4468,-117.829"/>
<polygon fill="black" stroke="black" points="99.7809,-116.758 93.6683,-108.104 93.0502,-118.681 99.7809,-116.758"/>
</g>
<!-- i915_perf_add_config -->
<g id="node9" class="node"><title>i915_perf_add_config</title>
<ellipse fill="none" stroke="black" cx="2473.78" cy="-234" rx="89.0842" ry="18"/>
<text text-anchor="middle" x="2473.78" y="-230.3" font-family="Times,serif" font-size="14.00">i915_perf_add_config</text>
</g>
<!-- __i915_perf_add_config -->
<g id="node10" class="node"><title>__i915_perf_add_config</title>
<ellipse fill="none" stroke="black" cx="2473.78" cy="-162" rx="97.4827" ry="18"/>
<text text-anchor="middle" x="2473.78" y="-158.3" font-family="Times,serif" font-size="14.00">__i915_perf_add_config</text>
</g>
<!-- i915_perf_add_config&#45;&gt;__i915_perf_add_config -->
<g id="edge8" class="edge"><title>i915_perf_add_config&#45;&gt;__i915_perf_add_config</title>
<path fill="none" stroke="black" d="M2473.78,-215.697C2473.78,-207.983 2473.78,-198.712 2473.78,-190.112"/>
<polygon fill="black" stroke="black" points="2477.28,-190.104 2473.78,-180.104 2470.28,-190.104 2477.28,-190.104"/>
</g>
<!-- max_oa_exponent_for_freq_gt -->
<g id="node11" class="node"><title>max_oa_exponent_for_freq_gt</title>
<ellipse fill="none" stroke="black" cx="1508.78" cy="-234" rx="120.479" ry="18"/>
<text text-anchor="middle" x="1508.78" y="-230.3" font-family="Times,serif" font-size="14.00">max_oa_exponent_for_freq_gt</text>
</g>
<!-- max_oa_exponent_for_period_lte -->
<g id="node12" class="node"><title>max_oa_exponent_for_period_lte</title>
<ellipse fill="none" stroke="black" cx="1508.78" cy="-162" rx="129.977" ry="18"/>
<text text-anchor="middle" x="1508.78" y="-158.3" font-family="Times,serif" font-size="14.00">max_oa_exponent_for_period_lte</text>
</g>
<!-- max_oa_exponent_for_freq_gt&#45;&gt;max_oa_exponent_for_period_lte -->
<g id="edge10" class="edge"><title>max_oa_exponent_for_freq_gt&#45;&gt;max_oa_exponent_for_period_lte</title>
<path fill="none" stroke="black" d="M1508.78,-215.697C1508.78,-207.983 1508.78,-198.712 1508.78,-190.112"/>
<polygon fill="black" stroke="black" points="1512.28,-190.104 1508.78,-180.104 1505.28,-190.104 1512.28,-190.104"/>
</g>
<!-- timebase_scale -->
<g id="node26" class="node"><title>timebase_scale</title>
<ellipse fill="none" stroke="black" cx="1512.78" cy="-90" rx="64.189" ry="18"/>
<text text-anchor="middle" x="1512.78" y="-86.3" font-family="Times,serif" font-size="14.00">timebase_scale</text>
</g>
<!-- max_oa_exponent_for_period_lte&#45;&gt;timebase_scale -->
<g id="edge29" class="edge"><title>max_oa_exponent_for_period_lte&#45;&gt;timebase_scale</title>
<path fill="none" stroke="black" d="M1509.77,-143.697C1510.21,-135.983 1510.74,-126.712 1511.23,-118.112"/>
<polygon fill="black" stroke="black" points="1514.73,-118.288 1511.8,-108.104 1507.74,-117.888 1514.73,-118.288"/>
</g>
<!-- read_counters_rpc -->
<g id="node13" class="node"><title>read_counters_rpc</title>
<ellipse fill="none" stroke="black" cx="590.781" cy="-234" rx="75.2868" ry="18"/>
<text text-anchor="middle" x="590.781" y="-230.3" font-family="Times,serif" font-size="14.00">read_counters_rpc</text>
</g>
<!-- read_counters_rpc&#45;&gt;read_tsc_start -->
<g id="edge18" class="edge"><title>read_counters_rpc&#45;&gt;read_tsc_start</title>
<path fill="none" stroke="black" d="M590.781,-215.697C590.781,-207.983 590.781,-198.712 590.781,-190.112"/>
<polygon fill="black" stroke="black" points="594.281,-190.104 590.781,-180.104 587.281,-190.104 594.281,-190.104"/>
</g>
<!-- read_counters_rpc&#45;&gt;__perf_open -->
<g id="edge19" class="edge"><title>read_counters_rpc&#45;&gt;__perf_open</title>
<path fill="none" stroke="black" d="M532.51,-222.502C477.317,-212.357 392.191,-196.185 318.781,-180 313.36,-178.805 307.712,-177.504 302.085,-176.173"/>
<polygon fill="black" stroke="black" points="302.574,-172.691 292.034,-173.758 300.939,-179.497 302.574,-172.691"/>
</g>
<!-- read_counters_rpc&#45;&gt;__perf_close -->
<g id="edge20" class="edge"><title>read_counters_rpc&#45;&gt;__perf_close</title>
<path fill="none" stroke="black" d="M528.426,-223.847C487.377,-216.1 433.374,-202.552 389.781,-180 367.644,-168.547 367.462,-157.912 346.781,-144 327.814,-131.24 305.432,-119.131 286.658,-109.717"/>
<polygon fill="black" stroke="black" points="288.001,-106.477 277.485,-105.187 284.901,-112.753 288.001,-106.477"/>
</g>
<!-- read_counters_rpc&#45;&gt;scratch_buf_memset -->
<g id="edge17" class="edge"><title>read_counters_rpc&#45;&gt;scratch_buf_memset</title>
<path fill="none" stroke="black" d="M518.303,-228.834C467.447,-223.244 399.407,-210.227 346.781,-180 327.96,-169.189 332.508,-154.974 313.781,-144 300.191,-136.035 218.635,-117.904 157.595,-105.073"/>
<polygon fill="black" stroke="black" points="158.112,-101.605 147.607,-102.982 156.677,-108.457 158.112,-101.605"/>
</g>
<!-- read_counters_rpc&#45;&gt;scratch_buf_init -->
<g id="edge11" class="edge"><title>read_counters_rpc&#45;&gt;scratch_buf_init</title>
<path fill="none" stroke="black" d="M523.147,-225.974C442.512,-217.176 303.819,-200.713 185.781,-180 179.994,-178.984 173.982,-177.831 167.985,-176.616"/>
<polygon fill="black" stroke="black" points="168.45,-173.138 157.947,-174.524 167.022,-179.991 168.45,-173.138"/>
</g>
<!-- read_counters_rpc&#45;&gt;read_tsc_end -->
<g id="edge13" class="edge"><title>read_counters_rpc&#45;&gt;read_tsc_end</title>
<path fill="none" stroke="black" d="M560.82,-217.465C540.927,-207.149 514.654,-193.526 493.361,-182.486"/>
<polygon fill="black" stroke="black" points="494.761,-179.269 484.272,-177.773 491.539,-185.483 494.761,-179.269"/>
</g>
<!-- read_counters_rpc&#45;&gt;read_u64_file -->
<g id="edge15" class="edge"><title>read_counters_rpc&#45;&gt;read_u64_file</title>
<path fill="none" stroke="black" d="M651.997,-223.366C712.594,-213.543 807.903,-197.324 889.781,-180 894.709,-178.957 899.821,-177.815 904.931,-176.631"/>
<polygon fill="black" stroke="black" points="905.784,-180.026 914.71,-174.318 904.173,-173.214 905.784,-180.026"/>
</g>
<!-- emit_report_perf_count -->
<g id="node14" class="node"><title>emit_report_perf_count</title>
<ellipse fill="none" stroke="black" cx="2225.78" cy="-162" rx="94.7833" ry="18"/>
<text text-anchor="middle" x="2225.78" y="-158.3" font-family="Times,serif" font-size="14.00">emit_report_perf_count</text>
</g>
<!-- read_counters_rpc&#45;&gt;emit_report_perf_count -->
<g id="edge12" class="edge"><title>read_counters_rpc&#45;&gt;emit_report_perf_count</title>
<path fill="none" stroke="black" d="M664.437,-229.779C747.218,-226.205 885.628,-220.366 1004.78,-216 1501.15,-197.81 1627.42,-228.166 2121.78,-180 2131.04,-179.098 2140.72,-177.884 2150.29,-176.517"/>
<polygon fill="black" stroke="black" points="2150.83,-179.976 2160.21,-175.044 2149.8,-173.052 2150.83,-179.976"/>
</g>
<!-- umedian -->
<g id="node15" class="node"><title>umedian</title>
<ellipse fill="none" stroke="black" cx="709.781" cy="-162" rx="41.6928" ry="18"/>
<text text-anchor="middle" x="709.781" y="-158.3" font-family="Times,serif" font-size="14.00">umedian</text>
</g>
<!-- read_counters_rpc&#45;&gt;umedian -->
<g id="edge14" class="edge"><title>read_counters_rpc&#45;&gt;umedian</title>
<path fill="none" stroke="black" d="M617.784,-217.116C635.464,-206.716 658.664,-193.069 677.344,-182.081"/>
<polygon fill="black" stroke="black" points="679.261,-185.014 686.106,-176.927 675.712,-178.98 679.261,-185.014"/>
</g>
<!-- print_reports -->
<g id="node16" class="node"><title>print_reports</title>
<ellipse fill="none" stroke="black" cx="824.781" cy="-162" rx="55.7903" ry="18"/>
<text text-anchor="middle" x="824.781" y="-158.3" font-family="Times,serif" font-size="14.00">print_reports</text>
</g>
<!-- read_counters_rpc&#45;&gt;print_reports -->
<g id="edge16" class="edge"><title>read_counters_rpc&#45;&gt;print_reports</title>
<path fill="none" stroke="black" d="M635.899,-219.503C675.896,-207.538 734.193,-190.099 775.422,-177.766"/>
<polygon fill="black" stroke="black" points="776.674,-181.044 785.252,-174.825 774.668,-174.338 776.674,-181.044"/>
</g>
<!-- median -->
<g id="node17" class="node"><title>median</title>
<ellipse fill="none" stroke="black" cx="1073.78" cy="-162" rx="37.0935" ry="18"/>
<text text-anchor="middle" x="1073.78" y="-158.3" font-family="Times,serif" font-size="14.00">median</text>
</g>
<!-- read_counters_rpc&#45;&gt;median -->
<g id="edge21" class="edge"><title>read_counters_rpc&#45;&gt;median</title>
<path fill="none" stroke="black" d="M664.005,-229.344C751.564,-223.778 902.06,-210.413 1027.78,-180 1030.75,-179.282 1033.78,-178.433 1036.82,-177.502"/>
<polygon fill="black" stroke="black" points="1038,-180.797 1046.38,-174.314 1035.78,-174.157 1038,-180.797"/>
</g>
<!-- intel_batchbuffer_require_space -->
<g id="node23" class="node"><title>intel_batchbuffer_require_space</title>
<ellipse fill="none" stroke="black" cx="2139.78" cy="-90" rx="124.278" ry="18"/>
<text text-anchor="middle" x="2139.78" y="-86.3" font-family="Times,serif" font-size="14.00">intel_batchbuffer_require_space</text>
</g>
<!-- emit_report_perf_count&#45;&gt;intel_batchbuffer_require_space -->
<g id="edge41" class="edge"><title>emit_report_perf_count&#45;&gt;intel_batchbuffer_require_space</title>
<path fill="none" stroke="black" d="M2205.4,-144.411C2194.42,-135.476 2180.7,-124.303 2168.64,-114.489"/>
<polygon fill="black" stroke="black" points="2170.58,-111.554 2160.61,-107.956 2166.16,-116.983 2170.58,-111.554"/>
</g>
<!-- intel_batchbuffer_emit_dword -->
<g id="node28" class="node"><title>intel_batchbuffer_emit_dword</title>
<ellipse fill="none" stroke="black" cx="1879.78" cy="-90" rx="118.079" ry="18"/>
<text text-anchor="middle" x="1879.78" y="-86.3" font-family="Times,serif" font-size="14.00">intel_batchbuffer_emit_dword</text>
</g>
<!-- emit_report_perf_count&#45;&gt;intel_batchbuffer_emit_dword -->
<g id="edge42" class="edge"><title>emit_report_perf_count&#45;&gt;intel_batchbuffer_emit_dword</title>
<path fill="none" stroke="black" d="M2163.52,-148.405C2105.93,-136.753 2020.09,-119.385 1957.91,-106.806"/>
<polygon fill="black" stroke="black" points="1958.25,-103.304 1947.75,-104.752 1956.86,-110.165 1958.25,-103.304"/>
</g>
<!-- gen8_read_report_reason -->
<g id="node18" class="node"><title>gen8_read_report_reason</title>
<ellipse fill="none" stroke="black" cx="658.781" cy="-90" rx="100.182" ry="18"/>
<text text-anchor="middle" x="658.781" y="-86.3" font-family="Times,serif" font-size="14.00">gen8_read_report_reason</text>
</g>
<!-- print_reports&#45;&gt;gen8_read_report_reason -->
<g id="edge22" class="edge"><title>print_reports&#45;&gt;gen8_read_report_reason</title>
<path fill="none" stroke="black" d="M791.985,-147.17C767.305,-136.763 733.138,-122.355 705.588,-110.738"/>
<polygon fill="black" stroke="black" points="706.719,-107.416 696.145,-106.756 703.999,-113.866 706.719,-107.416"/>
</g>
<!-- gen8_40bit_a_delta -->
<g id="node19" class="node"><title>gen8_40bit_a_delta</title>
<ellipse fill="none" stroke="black" cx="856.781" cy="-90" rx="79.8859" ry="18"/>
<text text-anchor="middle" x="856.781" y="-86.3" font-family="Times,serif" font-size="14.00">gen8_40bit_a_delta</text>
</g>
<!-- print_reports&#45;&gt;gen8_40bit_a_delta -->
<g id="edge23" class="edge"><title>print_reports&#45;&gt;gen8_40bit_a_delta</title>
<path fill="none" stroke="black" d="M832.528,-144.055C836.168,-136.091 840.594,-126.411 844.663,-117.51"/>
<polygon fill="black" stroke="black" points="847.91,-118.825 848.884,-108.275 841.543,-115.915 847.91,-118.825"/>
</g>
<!-- gen8_read_report_clock_ratios -->
<g id="node20" class="node"><title>gen8_read_report_clock_ratios</title>
<ellipse fill="none" stroke="black" cx="1309.78" cy="-90" rx="120.479" ry="18"/>
<text text-anchor="middle" x="1309.78" y="-86.3" font-family="Times,serif" font-size="14.00">gen8_read_report_clock_ratios</text>
</g>
<!-- print_reports&#45;&gt;gen8_read_report_clock_ratios -->
<g id="edge24" class="edge"><title>print_reports&#45;&gt;gen8_read_report_clock_ratios</title>
<path fill="none" stroke="black" d="M865.16,-149.553C873.269,-147.505 881.762,-145.538 889.781,-144 1017.77,-119.459 1051.51,-124.513 1180.78,-108 1191.25,-106.663 1202.19,-105.248 1213.08,-103.828"/>
<polygon fill="black" stroke="black" points="1213.59,-107.291 1223.06,-102.525 1212.69,-100.35 1213.59,-107.291"/>
</g>
<!-- gen8_read_40bit_a_counter -->
<g id="node21" class="node"><title>gen8_read_40bit_a_counter</title>
<ellipse fill="none" stroke="black" cx="1062.78" cy="-90" rx="108.581" ry="18"/>
<text text-anchor="middle" x="1062.78" y="-86.3" font-family="Times,serif" font-size="14.00">gen8_read_40bit_a_counter</text>
</g>
<!-- print_reports&#45;&gt;gen8_read_40bit_a_counter -->
<g id="edge25" class="edge"><title>print_reports&#45;&gt;gen8_read_40bit_a_counter</title>
<path fill="none" stroke="black" d="M864.617,-149.284C902.184,-138.235 959.014,-121.52 1002.2,-108.819"/>
<polygon fill="black" stroke="black" points="1003.42,-112.108 1012.02,-105.929 1001.44,-105.393 1003.42,-112.108"/>
</g>
<!-- get_oa_format -->
<g id="node22" class="node"><title>get_oa_format</title>
<ellipse fill="none" stroke="black" cx="530.781" cy="-18" rx="62.2891" ry="18"/>
<text text-anchor="middle" x="530.781" y="-14.3" font-family="Times,serif" font-size="14.00">get_oa_format</text>
</g>
<!-- print_reports&#45;&gt;get_oa_format -->
<g id="edge26" class="edge"><title>print_reports&#45;&gt;get_oa_format</title>
<path fill="none" stroke="black" d="M783.945,-149.562C776.278,-147.583 768.308,-145.638 760.781,-144 667.825,-123.768 618.426,-173.865 549.781,-108 533.353,-92.2372 529.399,-66.0201 529.082,-46.1127"/>
<polygon fill="black" stroke="black" points="532.582,-46.1324 529.212,-36.0879 525.582,-46.0417 532.582,-46.1324"/>
</g>
<!-- gen8_read_40bit_a_counter&#45;&gt;get_oa_format -->
<g id="edge43" class="edge"><title>gen8_read_40bit_a_counter&#45;&gt;get_oa_format</title>
<path fill="none" stroke="black" d="M984.769,-77.4735C971.755,-75.6056 958.39,-73.7211 945.781,-72 822.81,-55.2151 679.108,-37.2246 597.136,-27.1159"/>
<polygon fill="black" stroke="black" points="597.56,-23.6417 587.207,-25.8928 596.704,-30.5892 597.56,-23.6417"/>
</g>
<!-- intel_batchbuffer_space -->
<g id="node24" class="node"><title>intel_batchbuffer_space</title>
<ellipse fill="none" stroke="black" cx="2009.78" cy="-18" rx="94.7833" ry="18"/>
<text text-anchor="middle" x="2009.78" y="-14.3" font-family="Times,serif" font-size="14.00">intel_batchbuffer_space</text>
</g>
<!-- intel_batchbuffer_require_space&#45;&gt;intel_batchbuffer_space -->
<g id="edge27" class="edge"><title>intel_batchbuffer_require_space&#45;&gt;intel_batchbuffer_space</title>
<path fill="none" stroke="black" d="M2108.97,-72.411C2090.95,-62.7082 2068.03,-50.3664 2048.77,-39.9915"/>
<polygon fill="black" stroke="black" points="2050.38,-36.8879 2039.92,-35.2285 2047.07,-43.0512 2050.38,-36.8879"/>
</g>
<!-- hsw_read_report_ticks -->
<g id="node25" class="node"><title>hsw_read_report_ticks</title>
<ellipse fill="none" stroke="black" cx="411.781" cy="-90" rx="90.9839" ry="18"/>
<text text-anchor="middle" x="411.781" y="-86.3" font-family="Times,serif" font-size="14.00">hsw_read_report_ticks</text>
</g>
<!-- hsw_read_report_ticks&#45;&gt;get_oa_format -->
<g id="edge28" class="edge"><title>hsw_read_report_ticks&#45;&gt;get_oa_format</title>
<path fill="none" stroke="black" d="M439.381,-72.7646C456.103,-62.9283 477.598,-50.2845 495.541,-39.7298"/>
<polygon fill="black" stroke="black" points="497.711,-42.5138 504.556,-34.4268 494.162,-36.4802 497.711,-42.5138"/>
</g>
<!-- emit_stall_timestamp_and_rpc -->
<g id="node27" class="node"><title>emit_stall_timestamp_and_rpc</title>
<ellipse fill="none" stroke="black" cx="2225.78" cy="-234" rx="120.479" ry="18"/>
<text text-anchor="middle" x="2225.78" y="-230.3" font-family="Times,serif" font-size="14.00">emit_stall_timestamp_and_rpc</text>
</g>
<!-- emit_stall_timestamp_and_rpc&#45;&gt;emit_report_perf_count -->
<g id="edge31" class="edge"><title>emit_stall_timestamp_and_rpc&#45;&gt;emit_report_perf_count</title>
<path fill="none" stroke="black" d="M2225.78,-215.697C2225.78,-207.983 2225.78,-198.712 2225.78,-190.112"/>
<polygon fill="black" stroke="black" points="2229.28,-190.104 2225.78,-180.104 2222.28,-190.104 2229.28,-190.104"/>
</g>
<!-- emit_stall_timestamp_and_rpc&#45;&gt;intel_batchbuffer_require_space -->
<g id="edge32" class="edge"><title>emit_stall_timestamp_and_rpc&#45;&gt;intel_batchbuffer_require_space</title>
<path fill="none" stroke="black" d="M2281.14,-217.906C2299.91,-209.853 2318.88,-197.797 2329.78,-180 2338.14,-166.357 2339.46,-156.743 2329.78,-144 2317.13,-127.331 2273.24,-114.497 2230.83,-105.636"/>
<polygon fill="black" stroke="black" points="2231.46,-102.193 2220.97,-103.638 2230.07,-109.053 2231.46,-102.193"/>
</g>
<!-- emit_stall_timestamp_and_rpc&#45;&gt;intel_batchbuffer_emit_dword -->
<g id="edge30" class="edge"><title>emit_stall_timestamp_and_rpc&#45;&gt;intel_batchbuffer_emit_dword</title>
<path fill="none" stroke="black" d="M2108.69,-229.704C1958.42,-224.242 1713.62,-210.706 1685.78,-180 1649.56,-140.049 1717.21,-116.759 1782.35,-104.097"/>
<polygon fill="black" stroke="black" points="1783.16,-107.507 1792.34,-102.231 1781.87,-100.626 1783.16,-107.507"/>
</g>
<!-- intel_batchbuffer_emit_dword&#45;&gt;intel_batchbuffer_space -->
<g id="edge49" class="edge"><title>intel_batchbuffer_emit_dword&#45;&gt;intel_batchbuffer_space</title>
<path fill="none" stroke="black" d="M1910.26,-72.5881C1928.27,-62.89 1951.26,-50.5096 1970.61,-40.0923"/>
<polygon fill="black" stroke="black" points="1972.35,-43.1318 1979.49,-35.3091 1969.03,-36.9685 1972.35,-43.1318"/>
</g>
<!-- send_mi_load_reg_mem -->
<g id="node29" class="node"><title>send_mi_load_reg_mem</title>
<ellipse fill="none" stroke="black" cx="1793.78" cy="-162" rx="98.5829" ry="18"/>
<text text-anchor="middle" x="1793.78" y="-158.3" font-family="Times,serif" font-size="14.00">send_mi_load_reg_mem</text>
</g>
<!-- send_mi_load_reg_mem&#45;&gt;intel_batchbuffer_require_space -->
<g id="edge33" class="edge"><title>send_mi_load_reg_mem&#45;&gt;intel_batchbuffer_require_space</title>
<path fill="none" stroke="black" d="M1857.24,-148.161C1914.44,-136.589 1998.77,-119.527 2060.41,-107.057"/>
<polygon fill="black" stroke="black" points="2061.38,-110.432 2070.49,-105.019 2059.99,-103.571 2061.38,-110.432"/>
</g>
<!-- send_mi_load_reg_mem&#45;&gt;intel_batchbuffer_emit_dword -->
<g id="edge34" class="edge"><title>send_mi_load_reg_mem&#45;&gt;intel_batchbuffer_emit_dword</title>
<path fill="none" stroke="black" d="M1814.6,-144.055C1825.59,-135.113 1839.23,-124.005 1851.19,-114.268"/>
<polygon fill="black" stroke="black" points="1853.61,-116.816 1859.15,-107.789 1849.19,-111.387 1853.61,-116.816"/>
</g>
<!-- measure_overheads -->
<g id="node30" class="node"><title>measure_overheads</title>
<ellipse fill="none" stroke="black" cx="1094.78" cy="-234" rx="80.6858" ry="18"/>
<text text-anchor="middle" x="1094.78" y="-230.3" font-family="Times,serif" font-size="14.00">measure_overheads</text>
</g>
<!-- measure_overheads&#45;&gt;read_tsc_start -->
<g id="edge36" class="edge"><title>measure_overheads&#45;&gt;read_tsc_start</title>
<path fill="none" stroke="black" d="M1020.68,-226.816C933.593,-218.896 784.933,-203.343 658.781,-180 653.823,-179.083 648.688,-178.017 643.564,-176.874"/>
<polygon fill="black" stroke="black" points="644.304,-173.453 633.772,-174.603 642.722,-180.272 644.304,-173.453"/>
</g>
<!-- measure_overheads&#45;&gt;read_tsc_end -->
<g id="edge39" class="edge"><title>measure_overheads&#45;&gt;read_tsc_end</title>
<path fill="none" stroke="black" d="M1016.41,-229.722C905.566,-224.188 696.981,-210.465 521.781,-180 516.809,-179.135 511.661,-178.087 506.534,-176.94"/>
<polygon fill="black" stroke="black" points="507.289,-173.522 496.753,-174.635 505.683,-180.335 507.289,-173.522"/>
</g>
<!-- measure_overheads&#45;&gt;median -->
<g id="edge38" class="edge"><title>measure_overheads&#45;&gt;median</title>
<path fill="none" stroke="black" d="M1089.59,-215.697C1087.25,-207.898 1084.43,-198.509 1081.83,-189.829"/>
<polygon fill="black" stroke="black" points="1085.14,-188.677 1078.91,-180.104 1078.43,-190.688 1085.14,-188.677"/>
</g>
<!-- umax -->
<g id="node31" class="node"><title>umax</title>
<ellipse fill="none" stroke="black" cx="1235.78" cy="-162" rx="30.5947" ry="18"/>
<text text-anchor="middle" x="1235.78" y="-158.3" font-family="Times,serif" font-size="14.00">umax</text>
</g>
<!-- measure_overheads&#45;&gt;umax -->
<g id="edge35" class="edge"><title>measure_overheads&#45;&gt;umax</title>
<path fill="none" stroke="black" d="M1126.42,-217.291C1149.55,-205.812 1180.78,-190.308 1203.94,-178.806"/>
<polygon fill="black" stroke="black" points="1205.62,-181.883 1213.02,-174.301 1202.5,-175.613 1205.62,-181.883"/>
</g>
<!-- average -->
<g id="node32" class="node"><title>average</title>
<ellipse fill="none" stroke="black" cx="1322.78" cy="-162" rx="38.1938" ry="18"/>
<text text-anchor="middle" x="1322.78" y="-158.3" font-family="Times,serif" font-size="14.00">average</text>
</g>
<!-- measure_overheads&#45;&gt;average -->
<g id="edge37" class="edge"><title>measure_overheads&#45;&gt;average</title>
<path fill="none" stroke="black" d="M1143.43,-219.641C1180.02,-209.382 1231.28,-194.549 1275.78,-180 1278.53,-179.103 1281.35,-178.151 1284.19,-177.175"/>
<polygon fill="black" stroke="black" points="1285.52,-180.418 1293.8,-173.803 1283.2,-173.813 1285.52,-180.418"/>
</g>
<!-- umin -->
<g id="node33" class="node"><title>umin</title>
<ellipse fill="none" stroke="black" cx="1157.78" cy="-162" rx="29.4969" ry="18"/>
<text text-anchor="middle" x="1157.78" y="-158.3" font-family="Times,serif" font-size="14.00">umin</text>
</g>
<!-- measure_overheads&#45;&gt;umin -->
<g id="edge40" class="edge"><title>measure_overheads&#45;&gt;umin</title>
<path fill="none" stroke="black" d="M1110.03,-216.055C1118.19,-206.988 1128.36,-195.694 1137.21,-185.86"/>
<polygon fill="black" stroke="black" points="1139.87,-188.131 1143.96,-178.356 1134.67,-183.448 1139.87,-188.131"/>
</g>
<!-- send_mi_store_reg_mem -->
<g id="node34" class="node"><title>send_mi_store_reg_mem</title>
<ellipse fill="none" stroke="black" cx="2011.78" cy="-162" rx="100.983" ry="18"/>
<text text-anchor="middle" x="2011.78" y="-158.3" font-family="Times,serif" font-size="14.00">send_mi_store_reg_mem</text>
</g>
<!-- send_mi_store_reg_mem&#45;&gt;intel_batchbuffer_require_space -->
<g id="edge45" class="edge"><title>send_mi_store_reg_mem&#45;&gt;intel_batchbuffer_require_space</title>
<path fill="none" stroke="black" d="M2041.47,-144.765C2058.99,-135.185 2081.37,-122.943 2100.36,-112.561"/>
<polygon fill="black" stroke="black" points="2102.27,-115.502 2109.37,-107.633 2098.91,-109.361 2102.27,-115.502"/>
</g>
<!-- send_mi_store_reg_mem&#45;&gt;intel_batchbuffer_emit_dword -->
<g id="edge46" class="edge"><title>send_mi_store_reg_mem&#45;&gt;intel_batchbuffer_emit_dword</title>
<path fill="none" stroke="black" d="M1981.17,-144.765C1962.89,-135.072 1939.47,-122.653 1919.75,-112.193"/>
<polygon fill="black" stroke="black" points="1921.16,-108.983 1910.69,-107.39 1917.88,-115.167 1921.16,-108.983"/>
</g>
<!-- init_sys_info -->
<g id="node35" class="node"><title>init_sys_info</title>
<ellipse fill="none" stroke="black" cx="1291.78" cy="-234" rx="56.59" ry="18"/>
<text text-anchor="middle" x="1291.78" y="-230.3" font-family="Times,serif" font-size="14.00">init_sys_info</text>
</g>
<!-- init_sys_info&#45;&gt;read_u64_file -->
<g id="edge48" class="edge"><title>init_sys_info&#45;&gt;read_u64_file</title>
<path fill="none" stroke="black" d="M1244.44,-224.138C1191.5,-214.08 1103.29,-196.872 1027.78,-180 1022.87,-178.902 1017.76,-177.721 1012.66,-176.513"/>
<polygon fill="black" stroke="black" points="1013.43,-173.098 1002.89,-174.169 1011.79,-179.905 1013.43,-173.098"/>
</g>
<!-- init_sys_info&#45;&gt;max_oa_exponent_for_period_lte -->
<g id="edge47" class="edge"><title>init_sys_info&#45;&gt;max_oa_exponent_for_period_lte</title>
<path fill="none" stroke="black" d="M1330.08,-220.647C1363.25,-209.946 1411.77,-194.296 1449.88,-182.001"/>
<polygon fill="black" stroke="black" points="1451.39,-185.193 1459.83,-178.792 1449.24,-178.531 1451.39,-185.193"/>
</g>
<!-- fmedian -->
<g id="node36" class="node"><title>fmedian</title>
<ellipse fill="none" stroke="black" cx="2620.78" cy="-234" rx="40.0939" ry="18"/>
<text text-anchor="middle" x="2620.78" y="-230.3" font-family="Times,serif" font-size="14.00">fmedian</text>
</g>
<!-- print_report_card -->
<g id="node37" class="node"><title>print_report_card</title>
<ellipse fill="none" stroke="black" cx="2750.78" cy="-234" rx="72.2875" ry="18"/>
<text text-anchor="middle" x="2750.78" y="-230.3" font-family="Times,serif" font-size="14.00">print_report_card</text>
</g>
<!-- oa_exponent_to_ns -->
<g id="node38" class="node"><title>oa_exponent_to_ns</title>
<ellipse fill="none" stroke="black" cx="2919.78" cy="-234" rx="79.0865" ry="18"/>
<text text-anchor="middle" x="2919.78" y="-230.3" font-family="Times,serif" font-size="14.00">oa_exponent_to_ns</text>
</g>
<!-- read_i915_module_ref -->
<g id="node39" class="node"><title>read_i915_module_ref</title>
<ellipse fill="none" stroke="black" cx="3107.78" cy="-234" rx="90.9839" ry="18"/>
<text text-anchor="middle" x="3107.78" y="-230.3" font-family="Times,serif" font-size="14.00">read_i915_module_ref</text>
</g>
<!-- write_u64_file -->
<g id="node40" class="node"><title>write_u64_file</title>
<ellipse fill="none" stroke="black" cx="3278.78" cy="-234" rx="62.2891" ry="18"/>
<text text-anchor="middle" x="3278.78" y="-230.3" font-family="Times,serif" font-size="14.00">write_u64_file</text>
</g>
<!-- print_binary -->
<g id="node41" class="node"><title>print_binary</title>
<ellipse fill="none" stroke="black" cx="3412.78" cy="-234" rx="53.8905" ry="18"/>
<text text-anchor="middle" x="3412.78" y="-230.3" font-family="Times,serif" font-size="14.00">print_binary</text>
</g>
<!-- create_filtering_word -->
<g id="node42" class="node"><title>create_filtering_word</title>
<ellipse fill="none" stroke="black" cx="3571.78" cy="-234" rx="87.1846" ry="18"/>
<text text-anchor="middle" x="3571.78" y="-230.3" font-family="Times,serif" font-size="14.00">create_filtering_word</text>
</g>
<!-- gen8_read_report_ticks -->
<g id="node43" class="node"><title>gen8_read_report_ticks</title>
<ellipse fill="none" stroke="black" cx="3770.78" cy="-234" rx="93.6835" ry="18"/>
<text text-anchor="middle" x="3770.78" y="-230.3" font-family="Times,serif" font-size="14.00">gen8_read_report_ticks</text>
</g>
<!-- profile_through_opencl -->
<g id="node44" class="node"><title>profile_through_opencl</title>
<ellipse fill="none" stroke="black" cx="3975.78" cy="-234" rx="93.6835" ry="18"/>
<text text-anchor="middle" x="3975.78" y="-230.3" font-family="Times,serif" font-size="14.00">profile_through_opencl</text>
</g>
<!-- i915_perf_remove_config -->
<g id="node45" class="node"><title>i915_perf_remove_config</title>
<ellipse fill="none" stroke="black" cx="4189.78" cy="-234" rx="102.882" ry="18"/>
<text text-anchor="middle" x="4189.78" y="-230.3" font-family="Times,serif" font-size="14.00">i915_perf_remove_config</text>
</g>
<!-- oa_report_is_periodic -->
<g id="node46" class="node"><title>oa_report_is_periodic</title>
<ellipse fill="none" stroke="black" cx="4397.78" cy="-234" rx="87.9851" ry="18"/>
<text text-anchor="middle" x="4397.78" y="-230.3" font-family="Times,serif" font-size="14.00">oa_report_is_periodic</text>
</g>
</g>
</svg>
