<?xml version="1.0" encoding="UTF-8" standalone="no"?>
<!DOCTYPE svg PUBLIC "-//W3C//DTD SVG 1.1//EN"
 "http://www.w3.org/Graphics/SVG/1.1/DTD/svg11.dtd">
<!-- Generated by graphviz version 2.38.0 (20140413.2041)
 -->
<!-- Title: callgraph Pages: 1 -->
<svg width="3289pt" height="332pt"
 viewBox="0.00 0.00 3289.08 332.00" xmlns="http://www.w3.org/2000/svg" xmlns:xlink="http://www.w3.org/1999/xlink">
<g id="graph0" class="graph" transform="scale(1 1) rotate(0) translate(4 328)">
<title>callgraph</title>
<polygon fill="white" stroke="none" points="-4,4 -4,-328 3285.08,-328 3285.08,4 -4,4"/>
<!-- test_counters_with_opencl_one_context -->
<g id="node1" class="node"><title>test_counters_with_opencl_one_context</title>
<ellipse fill="none" stroke="black" cx="625.493" cy="-234" rx="152.173" ry="18"/>
<text text-anchor="middle" x="625.493" y="-230.3" font-family="Times,serif" font-size="14.00">test_counters_with_opencl_one_context</text>
</g>
<!-- read_u64_file -->
<g id="node2" class="node"><title>read_u64_file</title>
<ellipse fill="none" stroke="black" cx="1252.49" cy="-162" rx="59.5901" ry="18"/>
<text text-anchor="middle" x="1252.49" y="-158.3" font-family="Times,serif" font-size="14.00">read_u64_file</text>
</g>
<!-- test_counters_with_opencl_one_context&#45;&gt;read_u64_file -->
<g id="edge1" class="edge"><title>test_counters_with_opencl_one_context&#45;&gt;read_u64_file</title>
<path fill="none" stroke="black" d="M733.724,-221.35C751.357,-219.516 769.429,-217.674 786.493,-216 962.814,-198.698 1008.76,-209.275 1183.49,-180 1188.82,-179.108 1194.34,-178.025 1199.83,-176.841"/>
<polygon fill="black" stroke="black" points="1200.66,-180.242 1209.64,-174.622 1199.11,-173.415 1200.66,-180.242"/>
</g>
<!-- read_tsc_start -->
<g id="node3" class="node"><title>read_tsc_start</title>
<ellipse fill="none" stroke="black" cx="662.493" cy="-162" rx="59.5901" ry="18"/>
<text text-anchor="middle" x="662.493" y="-158.3" font-family="Times,serif" font-size="14.00">read_tsc_start</text>
</g>
<!-- test_counters_with_opencl_one_context&#45;&gt;read_tsc_start -->
<g id="edge2" class="edge"><title>test_counters_with_opencl_one_context&#45;&gt;read_tsc_start</title>
<path fill="none" stroke="black" d="M634.639,-215.697C638.895,-207.644 644.048,-197.894 648.759,-188.982"/>
<polygon fill="black" stroke="black" points="651.873,-190.581 653.452,-180.104 645.684,-187.31 651.873,-190.581"/>
</g>
<!-- emit_report_perf_count -->
<g id="node4" class="node"><title>emit_report_perf_count</title>
<ellipse fill="none" stroke="black" cx="1079.49" cy="-162" rx="94.7833" ry="18"/>
<text text-anchor="middle" x="1079.49" y="-158.3" font-family="Times,serif" font-size="14.00">emit_report_perf_count</text>
</g>
<!-- test_counters_with_opencl_one_context&#45;&gt;emit_report_perf_count -->
<g id="edge3" class="edge"><title>test_counters_with_opencl_one_context&#45;&gt;emit_report_perf_count</title>
<path fill="none" stroke="black" d="M716.551,-219.51C787.217,-208.969 887.616,-193.835 975.493,-180 983.611,-178.722 992.083,-177.369 1000.53,-176.006"/>
<polygon fill="black" stroke="black" points="1001.11,-179.459 1010.42,-174.407 999.992,-172.549 1001.11,-179.459"/>
</g>
<!-- scratch_buf_memset -->
<g id="node5" class="node"><title>scratch_buf_memset</title>
<ellipse fill="none" stroke="black" cx="84.4925" cy="-90" rx="84.485" ry="18"/>
<text text-anchor="middle" x="84.4925" y="-86.3" font-family="Times,serif" font-size="14.00">scratch_buf_memset</text>
</g>
<!-- test_counters_with_opencl_one_context&#45;&gt;scratch_buf_memset -->
<g id="edge4" class="edge"><title>test_counters_with_opencl_one_context&#45;&gt;scratch_buf_memset</title>
<path fill="none" stroke="black" d="M522.763,-220.666C452.397,-211.032 366.124,-196.533 333.493,-180 312.74,-169.485 315.884,-155.199 295.493,-144 271.4,-130.768 206.499,-115.451 154.98,-104.696"/>
<polygon fill="black" stroke="black" points="155.372,-101.203 144.871,-102.607 153.956,-108.058 155.372,-101.203"/>
</g>
<!-- read_tsc_end -->
<g id="node6" class="node"><title>read_tsc_end</title>
<ellipse fill="none" stroke="black" cx="399.493" cy="-162" rx="57.3905" ry="18"/>
<text text-anchor="middle" x="399.493" y="-158.3" font-family="Times,serif" font-size="14.00">read_tsc_end</text>
</g>
<!-- test_counters_with_opencl_one_context&#45;&gt;read_tsc_end -->
<g id="edge5" class="edge"><title>test_counters_with_opencl_one_context&#45;&gt;read_tsc_end</title>
<path fill="none" stroke="black" d="M573.927,-217.028C536.256,-205.36 485.498,-189.639 448.451,-178.164"/>
<polygon fill="black" stroke="black" points="449.454,-174.811 438.866,-175.195 447.383,-181.497 449.454,-174.811"/>
</g>
<!-- print_reports -->
<g id="node7" class="node"><title>print_reports</title>
<ellipse fill="none" stroke="black" cx="910.493" cy="-162" rx="55.7903" ry="18"/>
<text text-anchor="middle" x="910.493" y="-158.3" font-family="Times,serif" font-size="14.00">print_reports</text>
</g>
<!-- test_counters_with_opencl_one_context&#45;&gt;print_reports -->
<g id="edge6" class="edge"><title>test_counters_with_opencl_one_context&#45;&gt;print_reports</title>
<path fill="none" stroke="black" d="M688.39,-217.552C739.046,-205.11 809.461,-187.815 857.332,-176.057"/>
<polygon fill="black" stroke="black" points="858.313,-179.42 867.19,-173.636 856.643,-172.622 858.313,-179.42"/>
</g>
<!-- scratch_buf_init -->
<g id="node8" class="node"><title>scratch_buf_init</title>
<ellipse fill="none" stroke="black" cx="218.493" cy="-162" rx="67.6881" ry="18"/>
<text text-anchor="middle" x="218.493" y="-158.3" font-family="Times,serif" font-size="14.00">scratch_buf_init</text>
</g>
<!-- test_counters_with_opencl_one_context&#45;&gt;scratch_buf_init -->
<g id="edge7" class="edge"><title>test_counters_with_opencl_one_context&#45;&gt;scratch_buf_init</title>
<path fill="none" stroke="black" d="M535.648,-219.406C470.296,-209.26 379.754,-194.672 300.493,-180 293.769,-178.755 286.748,-177.394 279.766,-176.002"/>
<polygon fill="black" stroke="black" points="280.099,-172.498 269.604,-173.948 278.713,-179.36 280.099,-172.498"/>
</g>
<!-- __perf_open -->
<g id="node9" class="node"><title>__perf_open</title>
<ellipse fill="none" stroke="black" cx="529.493" cy="-162" rx="55.4913" ry="18"/>
<text text-anchor="middle" x="529.493" y="-158.3" font-family="Times,serif" font-size="14.00">__perf_open</text>
</g>
<!-- test_counters_with_opencl_one_context&#45;&gt;__perf_open -->
<g id="edge8" class="edge"><title>test_counters_with_opencl_one_context&#45;&gt;__perf_open</title>
<path fill="none" stroke="black" d="M602.254,-216.055C589.387,-206.673 573.251,-194.907 559.446,-184.841"/>
<polygon fill="black" stroke="black" points="561.344,-181.893 551.201,-178.829 557.219,-187.549 561.344,-181.893"/>
</g>
<!-- __perf_close -->
<g id="node10" class="node"><title>__perf_close</title>
<ellipse fill="none" stroke="black" cx="242.493" cy="-90" rx="55.7903" ry="18"/>
<text text-anchor="middle" x="242.493" y="-86.3" font-family="Times,serif" font-size="14.00">__perf_close</text>
</g>
<!-- test_counters_with_opencl_one_context&#45;&gt;__perf_close -->
<g id="edge9" class="edge"><title>test_counters_with_opencl_one_context&#45;&gt;__perf_close</title>
<path fill="none" stroke="black" d="M683.834,-217.32C702.32,-209.299 720.73,-197.415 731.493,-180 739.904,-166.39 742.318,-155.781 731.493,-144 699.427,-109.104 353.184,-116.114 306.493,-108 301.785,-107.182 296.919,-106.181 292.07,-105.079"/>
<polygon fill="black" stroke="black" points="292.739,-101.64 282.197,-102.7 291.099,-108.445 292.739,-101.64"/>
</g>
<!-- intel_batchbuffer_require_space -->
<g id="node13" class="node"><title>intel_batchbuffer_require_space</title>
<ellipse fill="none" stroke="black" cx="1566.49" cy="-90" rx="124.278" ry="18"/>
<text text-anchor="middle" x="1566.49" y="-86.3" font-family="Times,serif" font-size="14.00">intel_batchbuffer_require_space</text>
</g>
<!-- emit_report_perf_count&#45;&gt;intel_batchbuffer_require_space -->
<g id="edge17" class="edge"><title>emit_report_perf_count&#45;&gt;intel_batchbuffer_require_space</title>
<path fill="none" stroke="black" d="M1148.26,-149.514C1160.01,-147.623 1172.1,-145.72 1183.49,-144 1279.89,-129.454 1390.18,-114.355 1467.57,-104.012"/>
<polygon fill="black" stroke="black" points="1468.34,-107.44 1477.79,-102.648 1467.41,-100.501 1468.34,-107.44"/>
</g>
<!-- intel_batchbuffer_emit_dword -->
<g id="node19" class="node"><title>intel_batchbuffer_emit_dword</title>
<ellipse fill="none" stroke="black" cx="1826.49" cy="-90" rx="118.079" ry="18"/>
<text text-anchor="middle" x="1826.49" y="-86.3" font-family="Times,serif" font-size="14.00">intel_batchbuffer_emit_dword</text>
</g>
<!-- emit_report_perf_count&#45;&gt;intel_batchbuffer_emit_dword -->
<g id="edge16" class="edge"><title>emit_report_perf_count&#45;&gt;intel_batchbuffer_emit_dword</title>
<path fill="none" stroke="black" d="M1146.22,-149.157C1158.58,-147.229 1171.41,-145.406 1183.49,-144 1411.84,-117.429 1470.78,-131.262 1699.49,-108 1710.53,-106.877 1722.09,-105.546 1733.55,-104.131"/>
<polygon fill="black" stroke="black" points="1734.09,-107.591 1743.58,-102.869 1733.22,-100.645 1734.09,-107.591"/>
</g>
<!-- get_oa_format -->
<g id="node22" class="node"><title>get_oa_format</title>
<ellipse fill="none" stroke="black" cx="996.493" cy="-18" rx="62.2891" ry="18"/>
<text text-anchor="middle" x="996.493" y="-14.3" font-family="Times,serif" font-size="14.00">get_oa_format</text>
</g>
<!-- print_reports&#45;&gt;get_oa_format -->
<g id="edge26" class="edge"><title>print_reports&#45;&gt;get_oa_format</title>
<path fill="none" stroke="black" d="M937.148,-146.159C951.246,-136.96 967.63,-123.873 977.493,-108 989.063,-89.3773 993.672,-64.7934 995.468,-46.1827"/>
<polygon fill="black" stroke="black" points="998.973,-46.2392 996.231,-36.0055 991.993,-45.7157 998.973,-46.2392"/>
</g>
<!-- gen8_read_40bit_a_counter -->
<g id="node24" class="node"><title>gen8_read_40bit_a_counter</title>
<ellipse fill="none" stroke="black" cx="424.493" cy="-90" rx="108.581" ry="18"/>
<text text-anchor="middle" x="424.493" y="-86.3" font-family="Times,serif" font-size="14.00">gen8_read_40bit_a_counter</text>
</g>
<!-- print_reports&#45;&gt;gen8_read_40bit_a_counter -->
<g id="edge23" class="edge"><title>print_reports&#45;&gt;gen8_read_40bit_a_counter</title>
<path fill="none" stroke="black" d="M868.466,-149.939C859.29,-147.764 849.599,-145.648 840.493,-144 708.783,-120.164 674.176,-125.624 541.493,-108 532.13,-106.756 522.353,-105.411 512.613,-104.039"/>
<polygon fill="black" stroke="black" points="512.887,-100.543 502.495,-102.605 511.904,-107.474 512.887,-100.543"/>
</g>
<!-- gen8_40bit_a_delta -->
<g id="node25" class="node"><title>gen8_40bit_a_delta</title>
<ellipse fill="none" stroke="black" cx="630.493" cy="-90" rx="79.8859" ry="18"/>
<text text-anchor="middle" x="630.493" y="-86.3" font-family="Times,serif" font-size="14.00">gen8_40bit_a_delta</text>
</g>
<!-- print_reports&#45;&gt;gen8_40bit_a_delta -->
<g id="edge24" class="edge"><title>print_reports&#45;&gt;gen8_40bit_a_delta</title>
<path fill="none" stroke="black" d="M867.662,-150.292C820.744,-138.563 745.095,-119.651 691.875,-106.346"/>
<polygon fill="black" stroke="black" points="692.428,-102.876 681.878,-103.846 690.731,-109.667 692.428,-102.876"/>
</g>
<!-- gen8_read_report_clock_ratios -->
<g id="node26" class="node"><title>gen8_read_report_clock_ratios</title>
<ellipse fill="none" stroke="black" cx="848.493" cy="-90" rx="120.479" ry="18"/>
<text text-anchor="middle" x="848.493" y="-86.3" font-family="Times,serif" font-size="14.00">gen8_read_report_clock_ratios</text>
</g>
<!-- print_reports&#45;&gt;gen8_read_report_clock_ratios -->
<g id="edge25" class="edge"><title>print_reports&#45;&gt;gen8_read_report_clock_ratios</title>
<path fill="none" stroke="black" d="M895.799,-144.411C888.19,-135.82 878.748,-125.159 870.305,-115.627"/>
<polygon fill="black" stroke="black" points="872.761,-113.121 863.511,-107.956 867.521,-117.763 872.761,-113.121"/>
</g>
<!-- gen8_read_report_reason -->
<g id="node27" class="node"><title>gen8_read_report_reason</title>
<ellipse fill="none" stroke="black" cx="1124.49" cy="-90" rx="100.182" ry="18"/>
<text text-anchor="middle" x="1124.49" y="-86.3" font-family="Times,serif" font-size="14.00">gen8_read_report_reason</text>
</g>
<!-- print_reports&#45;&gt;gen8_read_report_reason -->
<g id="edge27" class="edge"><title>print_reports&#45;&gt;gen8_read_report_reason</title>
<path fill="none" stroke="black" d="M948.259,-148.647C981.634,-137.73 1030.76,-121.661 1068.67,-109.26"/>
<polygon fill="black" stroke="black" points="1070.13,-112.465 1078.54,-106.03 1067.95,-105.812 1070.13,-112.465"/>
</g>
<!-- scratch_buf_init&#45;&gt;scratch_buf_memset -->
<g id="edge11" class="edge"><title>scratch_buf_init&#45;&gt;scratch_buf_memset</title>
<path fill="none" stroke="black" d="M189.086,-145.638C169.892,-135.612 144.613,-122.406 123.715,-111.489"/>
<polygon fill="black" stroke="black" points="125.243,-108.339 114.759,-106.811 122.002,-114.543 125.243,-108.339"/>
</g>
<!-- __perf_open&#45;&gt;__perf_close -->
<g id="edge39" class="edge"><title>__perf_open&#45;&gt;__perf_close</title>
<path fill="none" stroke="black" d="M488.58,-149.892C480.921,-147.881 472.972,-145.839 465.493,-144 395.134,-126.697 376.851,-125.303 306.493,-108 302.348,-106.981 298.06,-105.9 293.756,-104.796"/>
<polygon fill="black" stroke="black" points="294.307,-101.323 283.748,-102.198 292.548,-108.098 294.307,-101.323"/>
</g>
<!-- i915_perf_add_config -->
<g id="node11" class="node"><title>i915_perf_add_config</title>
<ellipse fill="none" stroke="black" cx="2417.49" cy="-306" rx="89.0842" ry="18"/>
<text text-anchor="middle" x="2417.49" y="-302.3" font-family="Times,serif" font-size="14.00">i915_perf_add_config</text>
</g>
<!-- __i915_perf_add_config -->
<g id="node12" class="node"><title>__i915_perf_add_config</title>
<ellipse fill="none" stroke="black" cx="2417.49" cy="-234" rx="97.4827" ry="18"/>
<text text-anchor="middle" x="2417.49" y="-230.3" font-family="Times,serif" font-size="14.00">__i915_perf_add_config</text>
</g>
<!-- i915_perf_add_config&#45;&gt;__i915_perf_add_config -->
<g id="edge10" class="edge"><title>i915_perf_add_config&#45;&gt;__i915_perf_add_config</title>
<path fill="none" stroke="black" d="M2417.49,-287.697C2417.49,-279.983 2417.49,-270.712 2417.49,-262.112"/>
<polygon fill="black" stroke="black" points="2420.99,-262.104 2417.49,-252.104 2413.99,-262.104 2420.99,-262.104"/>
</g>
<!-- intel_batchbuffer_space -->
<g id="node14" class="node"><title>intel_batchbuffer_space</title>
<ellipse fill="none" stroke="black" cx="1696.49" cy="-18" rx="94.7833" ry="18"/>
<text text-anchor="middle" x="1696.49" y="-14.3" font-family="Times,serif" font-size="14.00">intel_batchbuffer_space</text>
</g>
<!-- intel_batchbuffer_require_space&#45;&gt;intel_batchbuffer_space -->
<g id="edge12" class="edge"><title>intel_batchbuffer_require_space&#45;&gt;intel_batchbuffer_space</title>
<path fill="none" stroke="black" d="M1597.3,-72.411C1615.32,-62.7082 1638.24,-50.3664 1657.51,-39.9915"/>
<polygon fill="black" stroke="black" points="1659.21,-43.0512 1666.35,-35.2285 1655.89,-36.8879 1659.21,-43.0512"/>
</g>
<!-- max_oa_exponent_for_period_lte -->
<g id="node15" class="node"><title>max_oa_exponent_for_period_lte</title>
<ellipse fill="none" stroke="black" cx="2026.49" cy="-162" rx="129.977" ry="18"/>
<text text-anchor="middle" x="2026.49" y="-158.3" font-family="Times,serif" font-size="14.00">max_oa_exponent_for_period_lte</text>
</g>
<!-- timebase_scale -->
<g id="node16" class="node"><title>timebase_scale</title>
<ellipse fill="none" stroke="black" cx="2027.49" cy="-90" rx="64.189" ry="18"/>
<text text-anchor="middle" x="2027.49" y="-86.3" font-family="Times,serif" font-size="14.00">timebase_scale</text>
</g>
<!-- max_oa_exponent_for_period_lte&#45;&gt;timebase_scale -->
<g id="edge13" class="edge"><title>max_oa_exponent_for_period_lte&#45;&gt;timebase_scale</title>
<path fill="none" stroke="black" d="M2026.74,-143.697C2026.85,-135.983 2026.98,-126.712 2027.11,-118.112"/>
<polygon fill="black" stroke="black" points="2030.6,-118.153 2027.25,-108.104 2023.61,-118.053 2030.6,-118.153"/>
</g>
<!-- test_whitelisted_registers_userspace_config -->
<g id="node17" class="node"><title>test_whitelisted_registers_userspace_config</title>
<ellipse fill="none" stroke="black" cx="1612.49" cy="-234" rx="165.171" ry="18"/>
<text text-anchor="middle" x="1612.49" y="-230.3" font-family="Times,serif" font-size="14.00">test_whitelisted_registers_userspace_config</text>
</g>
<!-- test_whitelisted_registers_userspace_config&#45;&gt;read_u64_file -->
<g id="edge15" class="edge"><title>test_whitelisted_registers_userspace_config&#45;&gt;read_u64_file</title>
<path fill="none" stroke="black" d="M1535.26,-217.983C1468.04,-204.912 1372.05,-186.248 1311.01,-174.379"/>
<polygon fill="black" stroke="black" points="1311.64,-170.935 1301.15,-172.462 1310.3,-177.806 1311.64,-170.935"/>
</g>
<!-- i915_perf_remove_config -->
<g id="node18" class="node"><title>i915_perf_remove_config</title>
<ellipse fill="none" stroke="black" cx="1612.49" cy="-162" rx="102.882" ry="18"/>
<text text-anchor="middle" x="1612.49" y="-158.3" font-family="Times,serif" font-size="14.00">i915_perf_remove_config</text>
</g>
<!-- test_whitelisted_registers_userspace_config&#45;&gt;i915_perf_remove_config -->
<g id="edge14" class="edge"><title>test_whitelisted_registers_userspace_config&#45;&gt;i915_perf_remove_config</title>
<path fill="none" stroke="black" d="M1612.49,-215.697C1612.49,-207.983 1612.49,-198.712 1612.49,-190.112"/>
<polygon fill="black" stroke="black" points="1615.99,-190.104 1612.49,-180.104 1608.99,-190.104 1615.99,-190.104"/>
</g>
<!-- intel_batchbuffer_emit_dword&#45;&gt;intel_batchbuffer_space -->
<g id="edge38" class="edge"><title>intel_batchbuffer_emit_dword&#45;&gt;intel_batchbuffer_space</title>
<path fill="none" stroke="black" d="M1796.01,-72.5881C1778,-62.89 1755.01,-50.5096 1735.66,-40.0923"/>
<polygon fill="black" stroke="black" points="1737.24,-36.9685 1726.78,-35.3091 1733.93,-43.1318 1737.24,-36.9685"/>
</g>
<!-- emit_stall_timestamp_and_rpc -->
<g id="node20" class="node"><title>emit_stall_timestamp_and_rpc</title>
<ellipse fill="none" stroke="black" cx="1166.49" cy="-234" rx="120.479" ry="18"/>
<text text-anchor="middle" x="1166.49" y="-230.3" font-family="Times,serif" font-size="14.00">emit_stall_timestamp_and_rpc</text>
</g>
<!-- emit_stall_timestamp_and_rpc&#45;&gt;emit_report_perf_count -->
<g id="edge19" class="edge"><title>emit_stall_timestamp_and_rpc&#45;&gt;emit_report_perf_count</title>
<path fill="none" stroke="black" d="M1145.43,-216.055C1134.32,-207.113 1120.51,-196.005 1108.41,-186.268"/>
<polygon fill="black" stroke="black" points="1110.34,-183.331 1100.36,-179.789 1105.96,-188.785 1110.34,-183.331"/>
</g>
<!-- emit_stall_timestamp_and_rpc&#45;&gt;intel_batchbuffer_require_space -->
<g id="edge20" class="edge"><title>emit_stall_timestamp_and_rpc&#45;&gt;intel_batchbuffer_require_space</title>
<path fill="none" stroke="black" d="M1215,-217.456C1245.73,-207.353 1286.19,-193.578 1321.49,-180 1359.4,-165.419 1367.5,-158.364 1405.49,-144 1438.4,-131.558 1475.69,-119.177 1506.09,-109.514"/>
<polygon fill="black" stroke="black" points="1507.22,-112.827 1515.7,-106.476 1505.11,-106.153 1507.22,-112.827"/>
</g>
<!-- emit_stall_timestamp_and_rpc&#45;&gt;intel_batchbuffer_emit_dword -->
<g id="edge18" class="edge"><title>emit_stall_timestamp_and_rpc&#45;&gt;intel_batchbuffer_emit_dword</title>
<path fill="none" stroke="black" d="M1227.14,-218.425C1269.39,-208.109 1327.01,-193.722 1377.49,-180 1432.46,-165.059 1444.94,-156.594 1500.49,-144 1543.86,-134.167 1654.36,-116.792 1734.72,-104.624"/>
<polygon fill="black" stroke="black" points="1735.49,-108.047 1744.86,-103.092 1734.45,-101.126 1735.49,-108.047"/>
</g>
<!-- hsw_read_report_ticks -->
<g id="node21" class="node"><title>hsw_read_report_ticks</title>
<ellipse fill="none" stroke="black" cx="1333.49" cy="-90" rx="90.9839" ry="18"/>
<text text-anchor="middle" x="1333.49" y="-86.3" font-family="Times,serif" font-size="14.00">hsw_read_report_ticks</text>
</g>
<!-- hsw_read_report_ticks&#45;&gt;get_oa_format -->
<g id="edge21" class="edge"><title>hsw_read_report_ticks&#45;&gt;get_oa_format</title>
<path fill="none" stroke="black" d="M1273.24,-76.4854C1211.64,-63.6896 1116.56,-43.9403 1055.44,-31.2437"/>
<polygon fill="black" stroke="black" points="1056.06,-27.7981 1045.56,-29.1912 1054.63,-34.6519 1056.06,-27.7981"/>
</g>
<!-- max_oa_exponent_for_freq_gt -->
<g id="node23" class="node"><title>max_oa_exponent_for_freq_gt</title>
<ellipse fill="none" stroke="black" cx="2047.49" cy="-234" rx="120.479" ry="18"/>
<text text-anchor="middle" x="2047.49" y="-230.3" font-family="Times,serif" font-size="14.00">max_oa_exponent_for_freq_gt</text>
</g>
<!-- max_oa_exponent_for_freq_gt&#45;&gt;max_oa_exponent_for_period_lte -->
<g id="edge22" class="edge"><title>max_oa_exponent_for_freq_gt&#45;&gt;max_oa_exponent_for_period_lte</title>
<path fill="none" stroke="black" d="M2042.3,-215.697C2039.96,-207.898 2037.15,-198.509 2034.54,-189.829"/>
<polygon fill="black" stroke="black" points="2037.85,-188.677 2031.62,-180.104 2031.14,-190.688 2037.85,-188.677"/>
</g>
<!-- gen8_read_40bit_a_counter&#45;&gt;get_oa_format -->
<g id="edge54" class="edge"><title>gen8_read_40bit_a_counter&#45;&gt;get_oa_format</title>
<path fill="none" stroke="black" d="M502.174,-77.3982C515.289,-75.5297 528.772,-73.6646 541.493,-72 678.923,-54.0152 840.113,-35.9538 929.016,-26.2557"/>
<polygon fill="black" stroke="black" points="929.405,-29.7342 938.967,-25.1722 928.647,-22.7753 929.405,-29.7342"/>
</g>
<!-- hsw_test_single_ctx_counters -->
<g id="node28" class="node"><title>hsw_test_single_ctx_counters</title>
<ellipse fill="none" stroke="black" cx="911.493" cy="-234" rx="116.18" ry="18"/>
<text text-anchor="middle" x="911.493" y="-230.3" font-family="Times,serif" font-size="14.00">hsw_test_single_ctx_counters</text>
</g>
<!-- hsw_test_single_ctx_counters&#45;&gt;read_u64_file -->
<g id="edge32" class="edge"><title>hsw_test_single_ctx_counters&#45;&gt;read_u64_file</title>
<path fill="none" stroke="black" d="M983.85,-219.902C1038.77,-209.718 1116.07,-194.864 1183.49,-180 1188.41,-178.915 1193.52,-177.744 1198.62,-176.542"/>
<polygon fill="black" stroke="black" points="1199.48,-179.935 1208.4,-174.206 1197.86,-173.127 1199.48,-179.935"/>
</g>
<!-- hsw_test_single_ctx_counters&#45;&gt;read_tsc_start -->
<g id="edge31" class="edge"><title>hsw_test_single_ctx_counters&#45;&gt;read_tsc_start</title>
<path fill="none" stroke="black" d="M858.076,-217.983C815.61,-206.045 756.55,-189.442 714.466,-177.611"/>
<polygon fill="black" stroke="black" points="715.263,-174.199 704.689,-174.862 713.369,-180.938 715.263,-174.199"/>
</g>
<!-- hsw_test_single_ctx_counters&#45;&gt;emit_report_perf_count -->
<g id="edge30" class="edge"><title>hsw_test_single_ctx_counters&#45;&gt;emit_report_perf_count</title>
<path fill="none" stroke="black" d="M950.035,-216.941C974.624,-206.695 1006.65,-193.351 1032.7,-182.498"/>
<polygon fill="black" stroke="black" points="1034.11,-185.7 1042,-178.623 1031.42,-179.239 1034.11,-185.7"/>
</g>
<!-- hsw_test_single_ctx_counters&#45;&gt;scratch_buf_memset -->
<g id="edge37" class="edge"><title>hsw_test_single_ctx_counters&#45;&gt;scratch_buf_memset</title>
<path fill="none" stroke="black" d="M851.549,-218.543C823.606,-210.067 790.799,-197.517 764.493,-180 746.426,-167.97 751.066,-153.38 731.493,-144 620.236,-90.686 299.934,-123.117 177.493,-108 169.819,-107.053 161.82,-105.878 153.875,-104.592"/>
<polygon fill="black" stroke="black" points="154.311,-101.117 143.87,-102.913 153.152,-108.02 154.311,-101.117"/>
</g>
<!-- hsw_test_single_ctx_counters&#45;&gt;read_tsc_end -->
<g id="edge36" class="edge"><title>hsw_test_single_ctx_counters&#45;&gt;read_tsc_end</title>
<path fill="none" stroke="black" d="M828.153,-221.389C814.248,-219.531 799.968,-217.672 786.493,-216 644.024,-198.326 606.685,-205.968 465.493,-180 460.725,-179.123 455.793,-178.092 450.871,-176.977"/>
<polygon fill="black" stroke="black" points="451.378,-173.5 440.84,-174.597 449.761,-180.311 451.378,-173.5"/>
</g>
<!-- hsw_test_single_ctx_counters&#45;&gt;print_reports -->
<g id="edge35" class="edge"><title>hsw_test_single_ctx_counters&#45;&gt;print_reports</title>
<path fill="none" stroke="black" d="M911.245,-215.697C911.135,-207.983 911.003,-198.712 910.88,-190.112"/>
<polygon fill="black" stroke="black" points="914.379,-190.053 910.737,-180.104 907.38,-190.153 914.379,-190.053"/>
</g>
<!-- hsw_test_single_ctx_counters&#45;&gt;scratch_buf_init -->
<g id="edge29" class="edge"><title>hsw_test_single_ctx_counters&#45;&gt;scratch_buf_init</title>
<path fill="none" stroke="black" d="M829.541,-221.188C815.209,-219.313 800.429,-217.5 786.493,-216 585.685,-194.383 534.172,-202.781 333.493,-180 317.7,-178.207 300.742,-175.909 284.829,-173.585"/>
<polygon fill="black" stroke="black" points="284.951,-170.065 274.546,-172.06 283.924,-176.99 284.951,-170.065"/>
</g>
<!-- hsw_test_single_ctx_counters&#45;&gt;__perf_open -->
<g id="edge33" class="edge"><title>hsw_test_single_ctx_counters&#45;&gt;__perf_open</title>
<path fill="none" stroke="black" d="M828.393,-221.348C763.993,-211.788 672.688,-197.078 593.493,-180 589.075,-179.047 584.504,-177.986 579.932,-176.873"/>
<polygon fill="black" stroke="black" points="580.532,-173.415 569.981,-174.373 578.826,-180.204 580.532,-173.415"/>
</g>
<!-- hsw_test_single_ctx_counters&#45;&gt;__perf_close -->
<g id="edge28" class="edge"><title>hsw_test_single_ctx_counters&#45;&gt;__perf_close</title>
<path fill="none" stroke="black" d="M888.477,-216.217C858.272,-195.201 802.816,-160.013 749.493,-144 560.301,-87.1867 501.171,-141.49 306.493,-108 301.783,-107.19 296.917,-106.195 292.067,-105.096"/>
<polygon fill="black" stroke="black" points="292.735,-101.657 282.194,-102.721 291.098,-108.463 292.735,-101.657"/>
</g>
<!-- hsw_test_single_ctx_counters&#45;&gt;timebase_scale -->
<g id="edge34" class="edge"><title>hsw_test_single_ctx_counters&#45;&gt;timebase_scale</title>
<path fill="none" stroke="black" d="M995.861,-221.522C1009.77,-219.657 1024.03,-217.761 1037.49,-216 1163.65,-199.494 1195.93,-200.557 1321.49,-180 1401.57,-166.889 1420.13,-155.234 1500.49,-144 1700.52,-116.039 1753.87,-138.692 1953.49,-108 1959.34,-107.102 1965.4,-105.996 1971.43,-104.784"/>
<polygon fill="black" stroke="black" points="1972.45,-108.148 1981.51,-102.661 1971,-101.299 1972.45,-108.148"/>
</g>
<!-- main -->
<g id="node29" class="node"><title>main</title>
<ellipse fill="none" stroke="black" cx="1609.49" cy="-306" rx="28.6953" ry="18"/>
<text text-anchor="middle" x="1609.49" y="-302.3" font-family="Times,serif" font-size="14.00">main</text>
</g>
<!-- write_u64_file -->
<g id="node30" class="node"><title>write_u64_file</title>
<ellipse fill="none" stroke="black" cx="1367.49" cy="-234" rx="62.2891" ry="18"/>
<text text-anchor="middle" x="1367.49" y="-230.3" font-family="Times,serif" font-size="14.00">write_u64_file</text>
</g>
<!-- main&#45;&gt;write_u64_file -->
<g id="edge40" class="edge"><title>main&#45;&gt;write_u64_file</title>
<path fill="none" stroke="black" d="M1584.05,-297.641C1545.26,-286.419 1470.48,-264.79 1419.78,-250.124"/>
<polygon fill="black" stroke="black" points="1420.56,-246.706 1409.98,-247.289 1418.61,-253.43 1420.56,-246.706"/>
</g>
<!-- test_counters_with_opencl -->
<g id="node31" class="node"><title>test_counters_with_opencl</title>
<ellipse fill="none" stroke="black" cx="350.493" cy="-234" rx="104.782" ry="18"/>
<text text-anchor="middle" x="350.493" y="-230.3" font-family="Times,serif" font-size="14.00">test_counters_with_opencl</text>
</g>
<!-- main&#45;&gt;test_counters_with_opencl -->
<g id="edge41" class="edge"><title>main&#45;&gt;test_counters_with_opencl</title>
<path fill="none" stroke="black" d="M1580.66,-304.745C1450.83,-303.368 907.65,-295.186 464.493,-252 454.38,-251.015 443.795,-249.751 433.322,-248.359"/>
<polygon fill="black" stroke="black" points="433.717,-244.881 423.334,-246.99 432.766,-251.816 433.717,-244.881"/>
</g>
<!-- clCheckError -->
<g id="node32" class="node"><title>clCheckError</title>
<ellipse fill="none" stroke="black" cx="2244.49" cy="-234" rx="57.6901" ry="18"/>
<text text-anchor="middle" x="2244.49" y="-230.3" font-family="Times,serif" font-size="14.00">clCheckError</text>
</g>
<!-- main&#45;&gt;clCheckError -->
<g id="edge42" class="edge"><title>main&#45;&gt;clCheckError</title>
<path fill="none" stroke="black" d="M1638.01,-303.866C1721.4,-300.221 1971.83,-286.94 2176.49,-252 2181.82,-251.091 2187.34,-249.987 2192.83,-248.782"/>
<polygon fill="black" stroke="black" points="2193.67,-252.18 2202.63,-246.524 2192.1,-245.358 2193.67,-252.18"/>
</g>
<!-- init_sys_info -->
<g id="node33" class="node"><title>init_sys_info</title>
<ellipse fill="none" stroke="black" cx="1852.49" cy="-234" rx="56.59" ry="18"/>
<text text-anchor="middle" x="1852.49" y="-230.3" font-family="Times,serif" font-size="14.00">init_sys_info</text>
</g>
<!-- main&#45;&gt;init_sys_info -->
<g id="edge43" class="edge"><title>main&#45;&gt;init_sys_info</title>
<path fill="none" stroke="black" d="M1635.04,-297.641C1674.56,-286.255 1751.29,-264.153 1802.21,-249.484"/>
<polygon fill="black" stroke="black" points="1803.4,-252.786 1812.04,-246.654 1801.46,-246.059 1803.4,-252.786"/>
</g>
<!-- test_counters_with_opencl&#45;&gt;read_u64_file -->
<g id="edge53" class="edge"><title>test_counters_with_opencl&#45;&gt;read_u64_file</title>
<path fill="none" stroke="black" d="M423.338,-221.051C436.985,-219.122 451.151,-217.326 464.493,-216 782.881,-184.367 866.931,-226.483 1183.49,-180 1188.91,-179.205 1194.52,-178.174 1200.1,-177.014"/>
<polygon fill="black" stroke="black" points="1201.04,-180.39 1210.05,-174.809 1199.53,-173.556 1201.04,-180.39"/>
</g>
<!-- test_counters_with_opencl&#45;&gt;read_tsc_start -->
<g id="edge51" class="edge"><title>test_counters_with_opencl&#45;&gt;read_tsc_start</title>
<path fill="none" stroke="black" d="M414.041,-219.627C463.128,-209.179 532.715,-194.112 593.493,-180 598.202,-178.906 603.086,-177.749 607.982,-176.574"/>
<polygon fill="black" stroke="black" points="609.098,-179.905 617.994,-174.149 607.451,-173.101 609.098,-179.905"/>
</g>
<!-- test_counters_with_opencl&#45;&gt;emit_report_perf_count -->
<g id="edge52" class="edge"><title>test_counters_with_opencl&#45;&gt;emit_report_perf_count</title>
<path fill="none" stroke="black" d="M424.279,-221.142C437.639,-219.238 451.464,-217.428 464.493,-216 690.811,-191.191 749.353,-206.392 975.493,-180 984.367,-178.964 993.64,-177.705 1002.84,-176.345"/>
<polygon fill="black" stroke="black" points="1003.4,-179.799 1012.76,-174.836 1002.35,-172.879 1003.4,-179.799"/>
</g>
<!-- test_counters_with_opencl&#45;&gt;scratch_buf_memset -->
<g id="edge48" class="edge"><title>test_counters_with_opencl&#45;&gt;scratch_buf_memset</title>
<path fill="none" stroke="black" d="M253.667,-227.139C212.519,-220.471 166.149,-206.963 131.493,-180 111.436,-164.396 98.9991,-137.798 91.9975,-117.734"/>
<polygon fill="black" stroke="black" points="95.3215,-116.638 88.9036,-108.208 88.6639,-118.8 95.3215,-116.638"/>
</g>
<!-- test_counters_with_opencl&#45;&gt;read_tsc_end -->
<g id="edge47" class="edge"><title>test_counters_with_opencl&#45;&gt;read_tsc_end</title>
<path fill="none" stroke="black" d="M362.354,-216.055C368.192,-207.715 375.349,-197.491 381.816,-188.252"/>
<polygon fill="black" stroke="black" points="384.873,-189.988 387.74,-179.789 379.138,-185.974 384.873,-189.988"/>
</g>
<!-- test_counters_with_opencl&#45;&gt;print_reports -->
<g id="edge49" class="edge"><title>test_counters_with_opencl&#45;&gt;print_reports</title>
<path fill="none" stroke="black" d="M425.873,-221.436C438.748,-219.553 451.997,-217.674 464.493,-216 601.142,-197.696 761.787,-179.394 848.095,-169.822"/>
<polygon fill="black" stroke="black" points="848.691,-173.278 858.245,-168.699 847.921,-166.32 848.691,-173.278"/>
</g>
<!-- test_counters_with_opencl&#45;&gt;scratch_buf_init -->
<g id="edge50" class="edge"><title>test_counters_with_opencl&#45;&gt;scratch_buf_init</title>
<path fill="none" stroke="black" d="M319.877,-216.765C300.988,-206.748 276.609,-193.82 256.491,-183.151"/>
<polygon fill="black" stroke="black" points="258.057,-180.02 247.583,-178.427 254.778,-186.204 258.057,-180.02"/>
</g>
<!-- test_counters_with_opencl&#45;&gt;__perf_open -->
<g id="edge46" class="edge"><title>test_counters_with_opencl&#45;&gt;__perf_open</title>
<path fill="none" stroke="black" d="M390.664,-217.291C419.002,-206.209 456.935,-191.375 485.988,-180.013"/>
<polygon fill="black" stroke="black" points="487.435,-183.205 495.474,-176.304 484.886,-176.686 487.435,-183.205"/>
</g>
<!-- test_counters_with_opencl&#45;&gt;__perf_close -->
<g id="edge45" class="edge"><title>test_counters_with_opencl&#45;&gt;__perf_close</title>
<path fill="none" stroke="black" d="M268.883,-222.684C217.279,-214.294 157.411,-200.459 141.493,-180 131.667,-167.372 133.215,-157.692 141.493,-144 152.404,-125.951 171.718,-113.747 190.555,-105.648"/>
<polygon fill="black" stroke="black" points="192.019,-108.833 200.018,-101.886 189.433,-102.328 192.019,-108.833"/>
</g>
<!-- clGetErrorString -->
<g id="node35" class="node"><title>clGetErrorString</title>
<ellipse fill="none" stroke="black" cx="2244.49" cy="-162" rx="69.5877" ry="18"/>
<text text-anchor="middle" x="2244.49" y="-158.3" font-family="Times,serif" font-size="14.00">clGetErrorString</text>
</g>
<!-- clCheckError&#45;&gt;clGetErrorString -->
<g id="edge55" class="edge"><title>clCheckError&#45;&gt;clGetErrorString</title>
<path fill="none" stroke="black" d="M2244.49,-215.697C2244.49,-207.983 2244.49,-198.712 2244.49,-190.112"/>
<polygon fill="black" stroke="black" points="2247.99,-190.104 2244.49,-180.104 2240.99,-190.104 2247.99,-190.104"/>
</g>
<!-- init_sys_info&#45;&gt;read_u64_file -->
<g id="edge57" class="edge"><title>init_sys_info&#45;&gt;read_u64_file</title>
<path fill="none" stroke="black" d="M1811.51,-221.408C1803.28,-219.373 1794.65,-217.446 1786.49,-216 1698.5,-200.395 1442.47,-178.412 1319.69,-168.376"/>
<polygon fill="black" stroke="black" points="1319.91,-164.882 1309.66,-167.558 1319.34,-171.859 1319.91,-164.882"/>
</g>
<!-- init_sys_info&#45;&gt;max_oa_exponent_for_period_lte -->
<g id="edge56" class="edge"><title>init_sys_info&#45;&gt;max_oa_exponent_for_period_lte</title>
<path fill="none" stroke="black" d="M1886.04,-219.503C1911.77,-209.152 1947.69,-194.704 1976.76,-183.009"/>
<polygon fill="black" stroke="black" points="1978.36,-186.138 1986.33,-179.158 1975.74,-179.644 1978.36,-186.138"/>
</g>
<!-- dumpBinaries -->
<g id="node34" class="node"><title>dumpBinaries</title>
<ellipse fill="none" stroke="black" cx="2244.49" cy="-306" rx="60.3893" ry="18"/>
<text text-anchor="middle" x="2244.49" y="-302.3" font-family="Times,serif" font-size="14.00">dumpBinaries</text>
</g>
<!-- dumpBinaries&#45;&gt;clCheckError -->
<g id="edge44" class="edge"><title>dumpBinaries&#45;&gt;clCheckError</title>
<path fill="none" stroke="black" d="M2244.49,-287.697C2244.49,-279.983 2244.49,-270.712 2244.49,-262.112"/>
<polygon fill="black" stroke="black" points="2247.99,-262.104 2244.49,-252.104 2240.99,-262.104 2247.99,-262.104"/>
</g>
<!-- read_i915_module_ref -->
<g id="node36" class="node"><title>read_i915_module_ref</title>
<ellipse fill="none" stroke="black" cx="2615.49" cy="-306" rx="90.9839" ry="18"/>
<text text-anchor="middle" x="2615.49" y="-302.3" font-family="Times,serif" font-size="14.00">read_i915_module_ref</text>
</g>
<!-- oa_exponent_to_ns -->
<g id="node37" class="node"><title>oa_exponent_to_ns</title>
<ellipse fill="none" stroke="black" cx="2803.49" cy="-306" rx="79.0865" ry="18"/>
<text text-anchor="middle" x="2803.49" y="-302.3" font-family="Times,serif" font-size="14.00">oa_exponent_to_ns</text>
</g>
<!-- oa_report_is_periodic -->
<g id="node38" class="node"><title>oa_report_is_periodic</title>
<ellipse fill="none" stroke="black" cx="2988.49" cy="-306" rx="87.9851" ry="18"/>
<text text-anchor="middle" x="2988.49" y="-302.3" font-family="Times,serif" font-size="14.00">oa_report_is_periodic</text>
</g>
<!-- gen8_read_report_ticks -->
<g id="node39" class="node"><title>gen8_read_report_ticks</title>
<ellipse fill="none" stroke="black" cx="3187.49" cy="-306" rx="93.6835" ry="18"/>
<text text-anchor="middle" x="3187.49" y="-302.3" font-family="Times,serif" font-size="14.00">gen8_read_report_ticks</text>
</g>
</g>
</svg>
