<?xml version="1.0" encoding="UTF-8" standalone="no"?>
<!DOCTYPE svg PUBLIC "-//W3C//DTD SVG 1.1//EN"
 "http://www.w3.org/Graphics/SVG/1.1/DTD/svg11.dtd">
<!-- Generated by graphviz version 2.38.0 (20140413.2041)
 -->
<!-- Title: callgraph Pages: 1 -->
<svg width="4533pt" height="260pt"
 viewBox="0.00 0.00 4532.58 260.00" xmlns="http://www.w3.org/2000/svg" xmlns:xlink="http://www.w3.org/1999/xlink">
<g id="graph0" class="graph" transform="scale(1 1) rotate(0) translate(4 256)">
<title>callgraph</title>
<polygon fill="white" stroke="none" points="-4,4 -4,-256 4528.58,-256 4528.58,4 -4,4"/>
<!-- print_reports -->
<g id="node1" class="node"><title>print_reports</title>
<ellipse fill="none" stroke="black" cx="1276.99" cy="-162" rx="55.7903" ry="18"/>
<text text-anchor="middle" x="1276.99" y="-158.3" font-family="Times,serif" font-size="14.00">print_reports</text>
</g>
<!-- gen8_read_report_clock_ratios -->
<g id="node2" class="node"><title>gen8_read_report_clock_ratios</title>
<ellipse fill="none" stroke="black" cx="1466.99" cy="-90" rx="120.479" ry="18"/>
<text text-anchor="middle" x="1466.99" y="-86.3" font-family="Times,serif" font-size="14.00">gen8_read_report_clock_ratios</text>
</g>
<!-- print_reports&#45;&gt;gen8_read_report_clock_ratios -->
<g id="edge1" class="edge"><title>print_reports&#45;&gt;gen8_read_report_clock_ratios</title>
<path fill="none" stroke="black" d="M1312.28,-147.998C1340.87,-137.463 1381.6,-122.458 1414.09,-110.487"/>
<polygon fill="black" stroke="black" points="1415.72,-113.619 1423.89,-106.878 1413.3,-107.051 1415.72,-113.619"/>
</g>
<!-- gen8_read_40bit_a_counter -->
<g id="node3" class="node"><title>gen8_read_40bit_a_counter</title>
<ellipse fill="none" stroke="black" cx="1751.99" cy="-90" rx="108.581" ry="18"/>
<text text-anchor="middle" x="1751.99" y="-86.3" font-family="Times,serif" font-size="14.00">gen8_read_40bit_a_counter</text>
</g>
<!-- print_reports&#45;&gt;gen8_read_40bit_a_counter -->
<g id="edge2" class="edge"><title>print_reports&#45;&gt;gen8_read_40bit_a_counter</title>
<path fill="none" stroke="black" d="M1317.72,-149.476C1325.72,-147.459 1334.09,-145.522 1341.99,-144 1468.22,-119.684 1501.54,-124.801 1628.99,-108 1639.62,-106.598 1650.77,-105.099 1661.83,-103.593"/>
<polygon fill="black" stroke="black" points="1662.52,-107.032 1671.95,-102.211 1661.57,-100.097 1662.52,-107.032"/>
</g>
<!-- gen8_read_report_reason -->
<g id="node4" class="node"><title>gen8_read_report_reason</title>
<ellipse fill="none" stroke="black" cx="1050.99" cy="-90" rx="100.182" ry="18"/>
<text text-anchor="middle" x="1050.99" y="-86.3" font-family="Times,serif" font-size="14.00">gen8_read_report_reason</text>
</g>
<!-- print_reports&#45;&gt;gen8_read_report_reason -->
<g id="edge3" class="edge"><title>print_reports&#45;&gt;gen8_read_report_reason</title>
<path fill="none" stroke="black" d="M1238.14,-148.967C1202.58,-137.952 1149.48,-121.505 1108.91,-108.941"/>
<polygon fill="black" stroke="black" points="1109.74,-105.533 1099.15,-105.917 1107.67,-112.219 1109.74,-105.533"/>
</g>
<!-- gen8_40bit_a_delta -->
<g id="node5" class="node"><title>gen8_40bit_a_delta</title>
<ellipse fill="none" stroke="black" cx="1248.99" cy="-90" rx="79.8859" ry="18"/>
<text text-anchor="middle" x="1248.99" y="-86.3" font-family="Times,serif" font-size="14.00">gen8_40bit_a_delta</text>
</g>
<!-- print_reports&#45;&gt;gen8_40bit_a_delta -->
<g id="edge4" class="edge"><title>print_reports&#45;&gt;gen8_40bit_a_delta</title>
<path fill="none" stroke="black" d="M1270.21,-144.055C1267.06,-136.176 1263.24,-126.617 1259.71,-117.794"/>
<polygon fill="black" stroke="black" points="1262.86,-116.26 1255.9,-108.275 1256.36,-118.86 1262.86,-116.26"/>
</g>
<!-- get_oa_format -->
<g id="node6" class="node"><title>get_oa_format</title>
<ellipse fill="none" stroke="black" cx="1614.99" cy="-18" rx="62.2891" ry="18"/>
<text text-anchor="middle" x="1614.99" y="-14.3" font-family="Times,serif" font-size="14.00">get_oa_format</text>
</g>
<!-- print_reports&#45;&gt;get_oa_format -->
<g id="edge5" class="edge"><title>print_reports&#45;&gt;get_oa_format</title>
<path fill="none" stroke="black" d="M1317.74,-149.577C1325.74,-147.551 1334.1,-145.586 1341.99,-144 1397.88,-132.769 1554.3,-146.886 1595.99,-108 1612.64,-92.4703 1616.56,-66.224 1616.81,-46.2463"/>
<polygon fill="black" stroke="black" points="1620.31,-46.1211 1616.65,-36.181 1613.31,-46.2381 1620.31,-46.1211"/>
</g>
<!-- gen8_read_40bit_a_counter&#45;&gt;get_oa_format -->
<g id="edge6" class="edge"><title>gen8_read_40bit_a_counter&#45;&gt;get_oa_format</title>
<path fill="none" stroke="black" d="M1720.21,-72.7646C1700.25,-62.5619 1674.37,-49.3388 1653.27,-38.5595"/>
<polygon fill="black" stroke="black" points="1654.75,-35.3856 1644.25,-33.9523 1651.56,-41.6191 1654.75,-35.3856"/>
</g>
<!-- __perf_open -->
<g id="node7" class="node"><title>__perf_open</title>
<ellipse fill="none" stroke="black" cx="738.988" cy="-162" rx="55.4913" ry="18"/>
<text text-anchor="middle" x="738.988" y="-158.3" font-family="Times,serif" font-size="14.00">__perf_open</text>
</g>
<!-- __perf_close -->
<g id="node8" class="node"><title>__perf_close</title>
<ellipse fill="none" stroke="black" cx="676.988" cy="-90" rx="55.7903" ry="18"/>
<text text-anchor="middle" x="676.988" y="-86.3" font-family="Times,serif" font-size="14.00">__perf_close</text>
</g>
<!-- __perf_open&#45;&gt;__perf_close -->
<g id="edge7" class="edge"><title>__perf_open&#45;&gt;__perf_close</title>
<path fill="none" stroke="black" d="M724.295,-144.411C716.574,-135.693 706.966,-124.845 698.43,-115.208"/>
<polygon fill="black" stroke="black" points="700.827,-112.635 691.576,-107.47 695.586,-117.276 700.827,-112.635"/>
</g>
<!-- init_sys_info -->
<g id="node9" class="node"><title>init_sys_info</title>
<ellipse fill="none" stroke="black" cx="330.988" cy="-234" rx="56.59" ry="18"/>
<text text-anchor="middle" x="330.988" y="-230.3" font-family="Times,serif" font-size="14.00">init_sys_info</text>
</g>
<!-- read_u64_file -->
<g id="node10" class="node"><title>read_u64_file</title>
<ellipse fill="none" stroke="black" cx="337.988" cy="-162" rx="59.5901" ry="18"/>
<text text-anchor="middle" x="337.988" y="-158.3" font-family="Times,serif" font-size="14.00">read_u64_file</text>
</g>
<!-- init_sys_info&#45;&gt;read_u64_file -->
<g id="edge8" class="edge"><title>init_sys_info&#45;&gt;read_u64_file</title>
<path fill="none" stroke="black" d="M332.719,-215.697C333.49,-207.983 334.417,-198.712 335.277,-190.112"/>
<polygon fill="black" stroke="black" points="338.766,-190.403 336.278,-180.104 331.8,-189.706 338.766,-190.403"/>
</g>
<!-- max_oa_exponent_for_period_lte -->
<g id="node11" class="node"><title>max_oa_exponent_for_period_lte</title>
<ellipse fill="none" stroke="black" cx="129.988" cy="-162" rx="129.977" ry="18"/>
<text text-anchor="middle" x="129.988" y="-158.3" font-family="Times,serif" font-size="14.00">max_oa_exponent_for_period_lte</text>
</g>
<!-- init_sys_info&#45;&gt;max_oa_exponent_for_period_lte -->
<g id="edge9" class="edge"><title>init_sys_info&#45;&gt;max_oa_exponent_for_period_lte</title>
<path fill="none" stroke="black" d="M294.122,-220.161C263.665,-209.554 219.963,-194.334 185.31,-182.266"/>
<polygon fill="black" stroke="black" points="186.39,-178.936 175.795,-178.952 184.088,-185.547 186.39,-178.936"/>
</g>
<!-- timebase_scale -->
<g id="node30" class="node"><title>timebase_scale</title>
<ellipse fill="none" stroke="black" cx="129.988" cy="-90" rx="64.189" ry="18"/>
<text text-anchor="middle" x="129.988" y="-86.3" font-family="Times,serif" font-size="14.00">timebase_scale</text>
</g>
<!-- max_oa_exponent_for_period_lte&#45;&gt;timebase_scale -->
<g id="edge40" class="edge"><title>max_oa_exponent_for_period_lte&#45;&gt;timebase_scale</title>
<path fill="none" stroke="black" d="M129.988,-143.697C129.988,-135.983 129.988,-126.712 129.988,-118.112"/>
<polygon fill="black" stroke="black" points="133.489,-118.104 129.988,-108.104 126.489,-118.104 133.489,-118.104"/>
</g>
<!-- intel_batchbuffer_require_space -->
<g id="node12" class="node"><title>intel_batchbuffer_require_space</title>
<ellipse fill="none" stroke="black" cx="2256.99" cy="-90" rx="124.278" ry="18"/>
<text text-anchor="middle" x="2256.99" y="-86.3" font-family="Times,serif" font-size="14.00">intel_batchbuffer_require_space</text>
</g>
<!-- intel_batchbuffer_space -->
<g id="node13" class="node"><title>intel_batchbuffer_space</title>
<ellipse fill="none" stroke="black" cx="2126.99" cy="-18" rx="94.7833" ry="18"/>
<text text-anchor="middle" x="2126.99" y="-14.3" font-family="Times,serif" font-size="14.00">intel_batchbuffer_space</text>
</g>
<!-- intel_batchbuffer_require_space&#45;&gt;intel_batchbuffer_space -->
<g id="edge10" class="edge"><title>intel_batchbuffer_require_space&#45;&gt;intel_batchbuffer_space</title>
<path fill="none" stroke="black" d="M2226.18,-72.411C2208.16,-62.7082 2185.24,-50.3664 2165.97,-39.9915"/>
<polygon fill="black" stroke="black" points="2167.59,-36.8879 2157.13,-35.2285 2164.27,-43.0512 2167.59,-36.8879"/>
</g>
<!-- send_mi_load_reg_mem -->
<g id="node14" class="node"><title>send_mi_load_reg_mem</title>
<ellipse fill="none" stroke="black" cx="2256.99" cy="-162" rx="98.5829" ry="18"/>
<text text-anchor="middle" x="2256.99" y="-158.3" font-family="Times,serif" font-size="14.00">send_mi_load_reg_mem</text>
</g>
<!-- send_mi_load_reg_mem&#45;&gt;intel_batchbuffer_require_space -->
<g id="edge11" class="edge"><title>send_mi_load_reg_mem&#45;&gt;intel_batchbuffer_require_space</title>
<path fill="none" stroke="black" d="M2256.99,-143.697C2256.99,-135.983 2256.99,-126.712 2256.99,-118.112"/>
<polygon fill="black" stroke="black" points="2260.49,-118.104 2256.99,-108.104 2253.49,-118.104 2260.49,-118.104"/>
</g>
<!-- intel_batchbuffer_emit_dword -->
<g id="node15" class="node"><title>intel_batchbuffer_emit_dword</title>
<ellipse fill="none" stroke="black" cx="1996.99" cy="-90" rx="118.079" ry="18"/>
<text text-anchor="middle" x="1996.99" y="-86.3" font-family="Times,serif" font-size="14.00">intel_batchbuffer_emit_dword</text>
</g>
<!-- send_mi_load_reg_mem&#45;&gt;intel_batchbuffer_emit_dword -->
<g id="edge12" class="edge"><title>send_mi_load_reg_mem&#45;&gt;intel_batchbuffer_emit_dword</title>
<path fill="none" stroke="black" d="M2204.06,-146.75C2163.06,-135.712 2106.06,-120.366 2062.24,-108.568"/>
<polygon fill="black" stroke="black" points="2063.1,-105.175 2052.54,-105.955 2061.28,-111.935 2063.1,-105.175"/>
</g>
<!-- intel_batchbuffer_emit_dword&#45;&gt;intel_batchbuffer_space -->
<g id="edge31" class="edge"><title>intel_batchbuffer_emit_dword&#45;&gt;intel_batchbuffer_space</title>
<path fill="none" stroke="black" d="M2027.47,-72.5881C2045.48,-62.89 2068.47,-50.5096 2087.82,-40.0923"/>
<polygon fill="black" stroke="black" points="2089.55,-43.1318 2096.7,-35.3091 2086.24,-36.9685 2089.55,-43.1318"/>
</g>
<!-- scratch_buf_init -->
<g id="node16" class="node"><title>scratch_buf_init</title>
<ellipse fill="none" stroke="black" cx="521.988" cy="-162" rx="67.6881" ry="18"/>
<text text-anchor="middle" x="521.988" y="-158.3" font-family="Times,serif" font-size="14.00">scratch_buf_init</text>
</g>
<!-- scratch_buf_memset -->
<g id="node17" class="node"><title>scratch_buf_memset</title>
<ellipse fill="none" stroke="black" cx="518.988" cy="-90" rx="84.485" ry="18"/>
<text text-anchor="middle" x="518.988" y="-86.3" font-family="Times,serif" font-size="14.00">scratch_buf_memset</text>
</g>
<!-- scratch_buf_init&#45;&gt;scratch_buf_memset -->
<g id="edge13" class="edge"><title>scratch_buf_init&#45;&gt;scratch_buf_memset</title>
<path fill="none" stroke="black" d="M521.247,-143.697C520.916,-135.983 520.519,-126.712 520.15,-118.112"/>
<polygon fill="black" stroke="black" points="523.647,-117.945 519.722,-108.104 516.653,-118.245 523.647,-117.945"/>
</g>
<!-- i915_perf_add_config -->
<g id="node18" class="node"><title>i915_perf_add_config</title>
<ellipse fill="none" stroke="black" cx="2508.99" cy="-234" rx="89.0842" ry="18"/>
<text text-anchor="middle" x="2508.99" y="-230.3" font-family="Times,serif" font-size="14.00">i915_perf_add_config</text>
</g>
<!-- __i915_perf_add_config -->
<g id="node19" class="node"><title>__i915_perf_add_config</title>
<ellipse fill="none" stroke="black" cx="2508.99" cy="-162" rx="97.4827" ry="18"/>
<text text-anchor="middle" x="2508.99" y="-158.3" font-family="Times,serif" font-size="14.00">__i915_perf_add_config</text>
</g>
<!-- i915_perf_add_config&#45;&gt;__i915_perf_add_config -->
<g id="edge14" class="edge"><title>i915_perf_add_config&#45;&gt;__i915_perf_add_config</title>
<path fill="none" stroke="black" d="M2508.99,-215.697C2508.99,-207.983 2508.99,-198.712 2508.99,-190.112"/>
<polygon fill="black" stroke="black" points="2512.49,-190.104 2508.99,-180.104 2505.49,-190.104 2512.49,-190.104"/>
</g>
<!-- read_counters_rpc -->
<g id="node20" class="node"><title>read_counters_rpc</title>
<ellipse fill="none" stroke="black" cx="990.988" cy="-234" rx="75.2868" ry="18"/>
<text text-anchor="middle" x="990.988" y="-230.3" font-family="Times,serif" font-size="14.00">read_counters_rpc</text>
</g>
<!-- read_counters_rpc&#45;&gt;print_reports -->
<g id="edge17" class="edge"><title>read_counters_rpc&#45;&gt;print_reports</title>
<path fill="none" stroke="black" d="M1042.86,-220.876C1087.69,-210.322 1154.2,-194.485 1211.99,-180 1216.31,-178.918 1220.78,-177.781 1225.27,-176.629"/>
<polygon fill="black" stroke="black" points="1226.25,-179.989 1235.06,-174.1 1224.5,-173.211 1226.25,-179.989"/>
</g>
<!-- read_counters_rpc&#45;&gt;__perf_open -->
<g id="edge18" class="edge"><title>read_counters_rpc&#45;&gt;__perf_open</title>
<path fill="none" stroke="black" d="M943.885,-219.916C899.915,-207.702 834.495,-189.53 789.467,-177.022"/>
<polygon fill="black" stroke="black" points="790.191,-173.59 779.619,-174.286 788.317,-180.335 790.191,-173.59"/>
</g>
<!-- read_counters_rpc&#45;&gt;__perf_close -->
<g id="edge15" class="edge"><title>read_counters_rpc&#45;&gt;__perf_close</title>
<path fill="none" stroke="black" d="M1011.96,-216.614C1033.68,-197.715 1061.84,-166.38 1041.99,-144 997.428,-93.7725 807.955,-120.524 741.988,-108 737.226,-107.096 732.296,-106.037 727.379,-104.898"/>
<polygon fill="black" stroke="black" points="727.906,-101.424 717.363,-102.47 726.257,-108.227 727.906,-101.424"/>
</g>
<!-- read_counters_rpc&#45;&gt;read_u64_file -->
<g id="edge22" class="edge"><title>read_counters_rpc&#45;&gt;read_u64_file</title>
<path fill="none" stroke="black" d="M920.59,-227.543C816.443,-219.159 615.267,-201.771 444.988,-180 429.981,-178.081 413.84,-175.69 398.761,-173.312"/>
<polygon fill="black" stroke="black" points="398.945,-169.797 388.517,-171.675 397.839,-176.71 398.945,-169.797"/>
</g>
<!-- read_counters_rpc&#45;&gt;scratch_buf_init -->
<g id="edge16" class="edge"><title>read_counters_rpc&#45;&gt;scratch_buf_init</title>
<path fill="none" stroke="black" d="M928.709,-223.705C840.566,-210.549 680.075,-186.595 589.28,-173.044"/>
<polygon fill="black" stroke="black" points="589.778,-169.579 579.371,-171.564 588.744,-176.502 589.778,-169.579"/>
</g>
<!-- read_counters_rpc&#45;&gt;scratch_buf_memset -->
<g id="edge24" class="edge"><title>read_counters_rpc&#45;&gt;scratch_buf_memset</title>
<path fill="none" stroke="black" d="M919.534,-228.217C854.283,-222.18 755.946,-208.849 674.988,-180 628.874,-163.567 580.647,-133.816 550.244,-113.262"/>
<polygon fill="black" stroke="black" points="552.009,-110.229 541.781,-107.466 548.054,-116.005 552.009,-110.229"/>
</g>
<!-- read_tsc_end -->
<g id="node21" class="node"><title>read_tsc_end</title>
<ellipse fill="none" stroke="black" cx="1145.99" cy="-162" rx="57.3905" ry="18"/>
<text text-anchor="middle" x="1145.99" y="-158.3" font-family="Times,serif" font-size="14.00">read_tsc_end</text>
</g>
<!-- read_counters_rpc&#45;&gt;read_tsc_end -->
<g id="edge19" class="edge"><title>read_counters_rpc&#45;&gt;read_tsc_end</title>
<path fill="none" stroke="black" d="M1024.62,-217.811C1048.31,-207.115 1080.14,-192.737 1105.27,-181.391"/>
<polygon fill="black" stroke="black" points="1106.86,-184.511 1114.53,-177.205 1103.98,-178.131 1106.86,-184.511"/>
</g>
<!-- read_tsc_start -->
<g id="node22" class="node"><title>read_tsc_start</title>
<ellipse fill="none" stroke="black" cx="871.988" cy="-162" rx="59.5901" ry="18"/>
<text text-anchor="middle" x="871.988" y="-158.3" font-family="Times,serif" font-size="14.00">read_tsc_start</text>
</g>
<!-- read_counters_rpc&#45;&gt;read_tsc_start -->
<g id="edge20" class="edge"><title>read_counters_rpc&#45;&gt;read_tsc_start</title>
<path fill="none" stroke="black" d="M963.986,-217.116C947.013,-207.132 924.953,-194.155 906.689,-183.412"/>
<polygon fill="black" stroke="black" points="908.461,-180.394 898.067,-178.34 904.912,-186.427 908.461,-180.394"/>
</g>
<!-- emit_report_perf_count -->
<g id="node23" class="node"><title>emit_report_perf_count</title>
<ellipse fill="none" stroke="black" cx="1631.99" cy="-162" rx="94.7833" ry="18"/>
<text text-anchor="middle" x="1631.99" y="-158.3" font-family="Times,serif" font-size="14.00">emit_report_perf_count</text>
</g>
<!-- read_counters_rpc&#45;&gt;emit_report_perf_count -->
<g id="edge21" class="edge"><title>read_counters_rpc&#45;&gt;emit_report_perf_count</title>
<path fill="none" stroke="black" d="M1061.52,-227.479C1164.33,-219.106 1361.25,-201.833 1527.99,-180 1536.56,-178.878 1545.5,-177.592 1554.39,-176.24"/>
<polygon fill="black" stroke="black" points="1555.04,-179.681 1564.39,-174.69 1553.97,-172.763 1555.04,-179.681"/>
</g>
<!-- median -->
<g id="node24" class="node"><title>median</title>
<ellipse fill="none" stroke="black" cx="1387.99" cy="-162" rx="37.0935" ry="18"/>
<text text-anchor="middle" x="1387.99" y="-158.3" font-family="Times,serif" font-size="14.00">median</text>
</g>
<!-- read_counters_rpc&#45;&gt;median -->
<g id="edge23" class="edge"><title>read_counters_rpc&#45;&gt;median</title>
<path fill="none" stroke="black" d="M1060.09,-226.774C1131.49,-219.365 1245.75,-204.772 1341.99,-180 1344.94,-179.239 1347.97,-178.358 1351,-177.406"/>
<polygon fill="black" stroke="black" points="1352.2,-180.696 1360.55,-174.178 1349.95,-174.064 1352.2,-180.696"/>
</g>
<!-- umedian -->
<g id="node25" class="node"><title>umedian</title>
<ellipse fill="none" stroke="black" cx="990.988" cy="-162" rx="41.6928" ry="18"/>
<text text-anchor="middle" x="990.988" y="-158.3" font-family="Times,serif" font-size="14.00">umedian</text>
</g>
<!-- read_counters_rpc&#45;&gt;umedian -->
<g id="edge25" class="edge"><title>read_counters_rpc&#45;&gt;umedian</title>
<path fill="none" stroke="black" d="M990.988,-215.697C990.988,-207.983 990.988,-198.712 990.988,-190.112"/>
<polygon fill="black" stroke="black" points="994.489,-190.104 990.988,-180.104 987.489,-190.104 994.489,-190.104"/>
</g>
<!-- emit_report_perf_count&#45;&gt;intel_batchbuffer_require_space -->
<g id="edge30" class="edge"><title>emit_report_perf_count&#45;&gt;intel_batchbuffer_require_space</title>
<path fill="none" stroke="black" d="M1698.93,-149.241C1710.91,-147.339 1723.3,-145.503 1734.99,-144 1907.2,-121.849 1951.4,-127.01 2123.99,-108 2135.17,-106.768 2146.88,-105.395 2158.5,-103.978"/>
<polygon fill="black" stroke="black" points="2159.19,-107.421 2168.69,-102.725 2158.33,-100.473 2159.19,-107.421"/>
</g>
<!-- emit_report_perf_count&#45;&gt;intel_batchbuffer_emit_dword -->
<g id="edge29" class="edge"><title>emit_report_perf_count&#45;&gt;intel_batchbuffer_emit_dword</title>
<path fill="none" stroke="black" d="M1696.4,-148.647C1757.82,-136.868 1850.5,-119.093 1916.7,-106.397"/>
<polygon fill="black" stroke="black" points="1917.52,-109.805 1926.68,-104.484 1916.2,-102.93 1917.52,-109.805"/>
</g>
<!-- send_mi_store_reg_mem -->
<g id="node26" class="node"><title>send_mi_store_reg_mem</title>
<ellipse fill="none" stroke="black" cx="2038.99" cy="-162" rx="100.983" ry="18"/>
<text text-anchor="middle" x="2038.99" y="-158.3" font-family="Times,serif" font-size="14.00">send_mi_store_reg_mem</text>
</g>
<!-- send_mi_store_reg_mem&#45;&gt;intel_batchbuffer_require_space -->
<g id="edge27" class="edge"><title>send_mi_store_reg_mem&#45;&gt;intel_batchbuffer_require_space</title>
<path fill="none" stroke="black" d="M2085.75,-145.983C2118.8,-135.371 2163.33,-121.073 2198.7,-109.717"/>
<polygon fill="black" stroke="black" points="2199.96,-112.988 2208.41,-106.598 2197.82,-106.323 2199.96,-112.988"/>
</g>
<!-- send_mi_store_reg_mem&#45;&gt;intel_batchbuffer_emit_dword -->
<g id="edge26" class="edge"><title>send_mi_store_reg_mem&#45;&gt;intel_batchbuffer_emit_dword</title>
<path fill="none" stroke="black" d="M2028.82,-144.055C2023.94,-135.922 2017.99,-125.998 2012.55,-116.943"/>
<polygon fill="black" stroke="black" points="2015.5,-115.049 2007.35,-108.275 2009.5,-118.651 2015.5,-115.049"/>
</g>
<!-- max_oa_exponent_for_freq_gt -->
<g id="node27" class="node"><title>max_oa_exponent_for_freq_gt</title>
<ellipse fill="none" stroke="black" cx="129.988" cy="-234" rx="120.479" ry="18"/>
<text text-anchor="middle" x="129.988" y="-230.3" font-family="Times,serif" font-size="14.00">max_oa_exponent_for_freq_gt</text>
</g>
<!-- max_oa_exponent_for_freq_gt&#45;&gt;max_oa_exponent_for_period_lte -->
<g id="edge28" class="edge"><title>max_oa_exponent_for_freq_gt&#45;&gt;max_oa_exponent_for_period_lte</title>
<path fill="none" stroke="black" d="M129.988,-215.697C129.988,-207.983 129.988,-198.712 129.988,-190.112"/>
<polygon fill="black" stroke="black" points="133.489,-190.104 129.988,-180.104 126.489,-190.104 133.489,-190.104"/>
</g>
<!-- read_counters_mmio -->
<g id="node28" class="node"><title>read_counters_mmio</title>
<ellipse fill="none" stroke="black" cx="617.988" cy="-234" rx="85.5853" ry="18"/>
<text text-anchor="middle" x="617.988" y="-230.3" font-family="Times,serif" font-size="14.00">read_counters_mmio</text>
</g>
<!-- read_counters_mmio&#45;&gt;__perf_open -->
<g id="edge37" class="edge"><title>read_counters_mmio&#45;&gt;__perf_open</title>
<path fill="none" stroke="black" d="M645.748,-216.941C663.137,-206.881 685.689,-193.834 704.258,-183.092"/>
<polygon fill="black" stroke="black" points="706.11,-186.064 713.014,-178.027 702.605,-180.005 706.11,-186.064"/>
</g>
<!-- read_counters_mmio&#45;&gt;__perf_close -->
<g id="edge35" class="edge"><title>read_counters_mmio&#45;&gt;__perf_close</title>
<path fill="none" stroke="black" d="M625.105,-215.871C635.249,-191.457 653.959,-146.426 665.922,-117.635"/>
<polygon fill="black" stroke="black" points="669.242,-118.767 669.846,-108.189 662.777,-116.081 669.242,-118.767"/>
</g>
<!-- read_counters_mmio&#45;&gt;read_u64_file -->
<g id="edge32" class="edge"><title>read_counters_mmio&#45;&gt;read_u64_file</title>
<path fill="none" stroke="black" d="M564.993,-219.751C515.601,-207.403 442.271,-189.071 392.42,-176.608"/>
<polygon fill="black" stroke="black" points="393.017,-173.15 382.467,-174.12 391.32,-179.941 393.017,-173.15"/>
</g>
<!-- read_counters_mmio&#45;&gt;scratch_buf_init -->
<g id="edge34" class="edge"><title>read_counters_mmio&#45;&gt;scratch_buf_init</title>
<path fill="none" stroke="black" d="M595.238,-216.411C582.473,-207.103 566.378,-195.367 552.528,-185.268"/>
<polygon fill="black" stroke="black" points="554.387,-182.292 544.245,-179.228 550.263,-187.948 554.387,-182.292"/>
</g>
<!-- read_counters_mmio&#45;&gt;scratch_buf_memset -->
<g id="edge33" class="edge"><title>read_counters_mmio&#45;&gt;scratch_buf_memset</title>
<path fill="none" stroke="black" d="M536.11,-228.579C502.275,-222.211 466.094,-208.54 444.988,-180 435.475,-167.136 437.676,-158.231 444.988,-144 451.73,-130.88 463.393,-120.281 475.493,-112.11"/>
<polygon fill="black" stroke="black" points="477.697,-114.859 484.317,-106.587 473.983,-108.926 477.697,-114.859"/>
</g>
<!-- read_counters_mmio&#45;&gt;read_tsc_end -->
<g id="edge38" class="edge"><title>read_counters_mmio&#45;&gt;read_tsc_end</title>
<path fill="none" stroke="black" d="M691.635,-224.647C776.296,-214.847 919.369,-197.679 1041.99,-180 1056.63,-177.889 1072.39,-175.416 1087.11,-173.02"/>
<polygon fill="black" stroke="black" points="1087.81,-176.453 1097.11,-171.379 1086.67,-169.546 1087.81,-176.453"/>
</g>
<!-- read_counters_mmio&#45;&gt;read_tsc_start -->
<g id="edge36" class="edge"><title>read_counters_mmio&#45;&gt;read_tsc_start</title>
<path fill="none" stroke="black" d="M667.868,-219.254C711.655,-207.186 775.127,-189.694 819.636,-177.428"/>
<polygon fill="black" stroke="black" points="820.682,-180.77 829.393,-174.739 818.822,-174.022 820.682,-180.77"/>
</g>
<!-- hsw_read_report_ticks -->
<g id="node29" class="node"><title>hsw_read_report_ticks</title>
<ellipse fill="none" stroke="black" cx="841.988" cy="-90" rx="90.9839" ry="18"/>
<text text-anchor="middle" x="841.988" y="-86.3" font-family="Times,serif" font-size="14.00">hsw_read_report_ticks</text>
</g>
<!-- hsw_read_report_ticks&#45;&gt;get_oa_format -->
<g id="edge39" class="edge"><title>hsw_read_report_ticks&#45;&gt;get_oa_format</title>
<path fill="none" stroke="black" d="M906.147,-77.2166C918.035,-75.2827 930.367,-73.4425 941.988,-72 1160.61,-44.8643 1421.01,-29.0041 1543.98,-22.4906"/>
<polygon fill="black" stroke="black" points="1544.22,-25.983 1554.02,-21.9634 1543.85,-18.9926 1544.22,-25.983"/>
</g>
<!-- measure_overheads -->
<g id="node31" class="node"><title>measure_overheads</title>
<ellipse fill="none" stroke="black" cx="1433.99" cy="-234" rx="80.6858" ry="18"/>
<text text-anchor="middle" x="1433.99" y="-230.3" font-family="Times,serif" font-size="14.00">measure_overheads</text>
</g>
<!-- measure_overheads&#45;&gt;read_tsc_end -->
<g id="edge45" class="edge"><title>measure_overheads&#45;&gt;read_tsc_end</title>
<path fill="none" stroke="black" d="M1380.54,-220.521C1335.54,-209.945 1269.48,-194.267 1211.99,-180 1207.61,-178.913 1203.06,-177.772 1198.51,-176.618"/>
<polygon fill="black" stroke="black" points="1199.12,-173.162 1188.56,-174.085 1197.39,-179.945 1199.12,-173.162"/>
</g>
<!-- measure_overheads&#45;&gt;read_tsc_start -->
<g id="edge46" class="edge"><title>measure_overheads&#45;&gt;read_tsc_start</title>
<path fill="none" stroke="black" d="M1357.79,-228.105C1260.35,-221.096 1086.7,-206.08 939.988,-180 935.024,-179.117 929.885,-178.075 924.758,-176.948"/>
<polygon fill="black" stroke="black" points="925.492,-173.526 914.962,-174.696 923.924,-180.348 925.492,-173.526"/>
</g>
<!-- measure_overheads&#45;&gt;median -->
<g id="edge44" class="edge"><title>measure_overheads&#45;&gt;median</title>
<path fill="none" stroke="black" d="M1422.85,-216.055C1417.29,-207.592 1410.46,-197.19 1404.32,-187.845"/>
<polygon fill="black" stroke="black" points="1407.12,-185.742 1398.7,-179.307 1401.27,-189.586 1407.12,-185.742"/>
</g>
<!-- umax -->
<g id="node32" class="node"><title>umax</title>
<ellipse fill="none" stroke="black" cx="1774.99" cy="-162" rx="30.5947" ry="18"/>
<text text-anchor="middle" x="1774.99" y="-158.3" font-family="Times,serif" font-size="14.00">umax</text>
</g>
<!-- measure_overheads&#45;&gt;umax -->
<g id="edge41" class="edge"><title>measure_overheads&#45;&gt;umax</title>
<path fill="none" stroke="black" d="M1504.96,-225.375C1566.87,-217.587 1658.64,-203.284 1735.99,-180 1738.11,-179.36 1740.28,-178.636 1742.44,-177.856"/>
<polygon fill="black" stroke="black" points="1743.79,-181.087 1751.82,-174.171 1741.23,-174.573 1743.79,-181.087"/>
</g>
<!-- umin -->
<g id="node33" class="node"><title>umin</title>
<ellipse fill="none" stroke="black" cx="1852.99" cy="-162" rx="29.4969" ry="18"/>
<text text-anchor="middle" x="1852.99" y="-158.3" font-family="Times,serif" font-size="14.00">umin</text>
</g>
<!-- measure_overheads&#45;&gt;umin -->
<g id="edge42" class="edge"><title>measure_overheads&#45;&gt;umin</title>
<path fill="none" stroke="black" d="M1511.21,-228.664C1589.13,-222.807 1712.28,-209.472 1814.99,-180 1817.13,-179.385 1819.31,-178.67 1821.49,-177.89"/>
<polygon fill="black" stroke="black" points="1822.88,-181.102 1830.88,-174.148 1820.29,-174.599 1822.88,-181.102"/>
</g>
<!-- average -->
<g id="node34" class="node"><title>average</title>
<ellipse fill="none" stroke="black" cx="1480.99" cy="-162" rx="38.1938" ry="18"/>
<text text-anchor="middle" x="1480.99" y="-158.3" font-family="Times,serif" font-size="14.00">average</text>
</g>
<!-- measure_overheads&#45;&gt;average -->
<g id="edge43" class="edge"><title>measure_overheads&#45;&gt;average</title>
<path fill="none" stroke="black" d="M1445.37,-216.055C1451.05,-207.592 1458.03,-197.19 1464.31,-187.845"/>
<polygon fill="black" stroke="black" points="1467.37,-189.56 1470.04,-179.307 1461.56,-185.658 1467.37,-189.56"/>
</g>
<!-- emit_stall_timestamp_and_rpc -->
<g id="node35" class="node"><title>emit_stall_timestamp_and_rpc</title>
<ellipse fill="none" stroke="black" cx="1909.99" cy="-234" rx="120.479" ry="18"/>
<text text-anchor="middle" x="1909.99" y="-230.3" font-family="Times,serif" font-size="14.00">emit_stall_timestamp_and_rpc</text>
</g>
<!-- emit_stall_timestamp_and_rpc&#45;&gt;intel_batchbuffer_require_space -->
<g id="edge49" class="edge"><title>emit_stall_timestamp_and_rpc&#45;&gt;intel_batchbuffer_require_space</title>
<path fill="none" stroke="black" d="M2022.49,-227.589C2149.81,-220.289 2342.55,-205.207 2364.99,-180 2375.63,-168.05 2373.45,-157.579 2364.99,-144 2355.62,-128.96 2340.59,-118.068 2324.69,-110.226"/>
<polygon fill="black" stroke="black" points="2325.82,-106.894 2315.27,-105.953 2322.93,-113.269 2325.82,-106.894"/>
</g>
<!-- emit_stall_timestamp_and_rpc&#45;&gt;intel_batchbuffer_emit_dword -->
<g id="edge48" class="edge"><title>emit_stall_timestamp_and_rpc&#45;&gt;intel_batchbuffer_emit_dword</title>
<path fill="none" stroke="black" d="M1910.22,-215.976C1911.21,-197.051 1915.07,-166.228 1928.99,-144 1936.46,-132.072 1947.62,-121.756 1958.74,-113.477"/>
<polygon fill="black" stroke="black" points="1961.01,-116.161 1967.18,-107.55 1956.99,-110.432 1961.01,-116.161"/>
</g>
<!-- emit_stall_timestamp_and_rpc&#45;&gt;emit_report_perf_count -->
<g id="edge47" class="edge"><title>emit_stall_timestamp_and_rpc&#45;&gt;emit_report_perf_count</title>
<path fill="none" stroke="black" d="M1851.37,-218.24C1806.01,-206.819 1743.25,-191.016 1696.47,-179.237"/>
<polygon fill="black" stroke="black" points="1697.3,-175.836 1686.75,-176.788 1695.59,-182.624 1697.3,-175.836"/>
</g>
<!-- read_i915_module_ref -->
<g id="node36" class="node"><title>read_i915_module_ref</title>
<ellipse fill="none" stroke="black" cx="2706.99" cy="-234" rx="90.9839" ry="18"/>
<text text-anchor="middle" x="2706.99" y="-230.3" font-family="Times,serif" font-size="14.00">read_i915_module_ref</text>
</g>
<!-- print_report_card -->
<g id="node37" class="node"><title>print_report_card</title>
<ellipse fill="none" stroke="black" cx="2887.99" cy="-234" rx="72.2875" ry="18"/>
<text text-anchor="middle" x="2887.99" y="-230.3" font-family="Times,serif" font-size="14.00">print_report_card</text>
</g>
<!-- profile_through_opencl -->
<g id="node38" class="node"><title>profile_through_opencl</title>
<ellipse fill="none" stroke="black" cx="3071.99" cy="-234" rx="93.6835" ry="18"/>
<text text-anchor="middle" x="3071.99" y="-230.3" font-family="Times,serif" font-size="14.00">profile_through_opencl</text>
</g>
<!-- write_u64_file -->
<g id="node39" class="node"><title>write_u64_file</title>
<ellipse fill="none" stroke="black" cx="3245.99" cy="-234" rx="62.2891" ry="18"/>
<text text-anchor="middle" x="3245.99" y="-230.3" font-family="Times,serif" font-size="14.00">write_u64_file</text>
</g>
<!-- create_filtering_word -->
<g id="node40" class="node"><title>create_filtering_word</title>
<ellipse fill="none" stroke="black" cx="3412.99" cy="-234" rx="87.1846" ry="18"/>
<text text-anchor="middle" x="3412.99" y="-230.3" font-family="Times,serif" font-size="14.00">create_filtering_word</text>
</g>
<!-- oa_report_is_periodic -->
<g id="node41" class="node"><title>oa_report_is_periodic</title>
<ellipse fill="none" stroke="black" cx="3605.99" cy="-234" rx="87.9851" ry="18"/>
<text text-anchor="middle" x="3605.99" y="-230.3" font-family="Times,serif" font-size="14.00">oa_report_is_periodic</text>
</g>
<!-- print_binary -->
<g id="node42" class="node"><title>print_binary</title>
<ellipse fill="none" stroke="black" cx="3765.99" cy="-234" rx="53.8905" ry="18"/>
<text text-anchor="middle" x="3765.99" y="-230.3" font-family="Times,serif" font-size="14.00">print_binary</text>
</g>
<!-- i915_perf_remove_config -->
<g id="node43" class="node"><title>i915_perf_remove_config</title>
<ellipse fill="none" stroke="black" cx="3940.99" cy="-234" rx="102.882" ry="18"/>
<text text-anchor="middle" x="3940.99" y="-230.3" font-family="Times,serif" font-size="14.00">i915_perf_remove_config</text>
</g>
<!-- fmedian -->
<g id="node44" class="node"><title>fmedian</title>
<ellipse fill="none" stroke="black" cx="4101.99" cy="-234" rx="40.0939" ry="18"/>
<text text-anchor="middle" x="4101.99" y="-230.3" font-family="Times,serif" font-size="14.00">fmedian</text>
</g>
<!-- oa_exponent_to_ns -->
<g id="node45" class="node"><title>oa_exponent_to_ns</title>
<ellipse fill="none" stroke="black" cx="4239.99" cy="-234" rx="79.0865" ry="18"/>
<text text-anchor="middle" x="4239.99" y="-230.3" font-family="Times,serif" font-size="14.00">oa_exponent_to_ns</text>
</g>
<!-- gen8_read_report_ticks -->
<g id="node46" class="node"><title>gen8_read_report_ticks</title>
<ellipse fill="none" stroke="black" cx="4430.99" cy="-234" rx="93.6835" ry="18"/>
<text text-anchor="middle" x="4430.99" y="-230.3" font-family="Times,serif" font-size="14.00">gen8_read_report_ticks</text>
</g>
</g>
</svg>
