<?xml version="1.0" encoding="UTF-8" standalone="no"?>
<!DOCTYPE svg PUBLIC "-//W3C//DTD SVG 1.1//EN"
 "http://www.w3.org/Graphics/SVG/1.1/DTD/svg11.dtd">
<!-- Generated by graphviz version 2.38.0 (20140413.2041)
 -->
<!-- Title: callgraph Pages: 1 -->
<svg width="4288pt" height="260pt"
 viewBox="0.00 0.00 4288.38 260.00" xmlns="http://www.w3.org/2000/svg" xmlns:xlink="http://www.w3.org/1999/xlink">
<g id="graph0" class="graph" transform="scale(1 1) rotate(0) translate(4 256)">
<title>callgraph</title>
<polygon fill="white" stroke="none" points="-4,4 -4,-256 4284.38,-256 4284.38,4 -4,4"/>
<!-- __perf_open -->
<g id="node1" class="node"><title>__perf_open</title>
<ellipse fill="none" stroke="black" cx="533.641" cy="-162" rx="55.4913" ry="18"/>
<text text-anchor="middle" x="533.641" y="-158.3" font-family="Times,serif" font-size="14.00">__perf_open</text>
</g>
<!-- __perf_close -->
<g id="node2" class="node"><title>__perf_close</title>
<ellipse fill="none" stroke="black" cx="324.641" cy="-90" rx="55.7903" ry="18"/>
<text text-anchor="middle" x="324.641" y="-86.3" font-family="Times,serif" font-size="14.00">__perf_close</text>
</g>
<!-- __perf_open&#45;&gt;__perf_close -->
<g id="edge1" class="edge"><title>__perf_open&#45;&gt;__perf_close</title>
<path fill="none" stroke="black" d="M496.276,-148.485C461.462,-136.825 409.409,-119.391 371.76,-106.781"/>
<polygon fill="black" stroke="black" points="372.628,-103.381 362.034,-103.524 370.405,-110.019 372.628,-103.381"/>
</g>
<!-- intel_batchbuffer_require_space -->
<g id="node3" class="node"><title>intel_batchbuffer_require_space</title>
<ellipse fill="none" stroke="black" cx="1650.64" cy="-90" rx="124.278" ry="18"/>
<text text-anchor="middle" x="1650.64" y="-86.3" font-family="Times,serif" font-size="14.00">intel_batchbuffer_require_space</text>
</g>
<!-- intel_batchbuffer_space -->
<g id="node4" class="node"><title>intel_batchbuffer_space</title>
<ellipse fill="none" stroke="black" cx="1780.64" cy="-18" rx="94.7833" ry="18"/>
<text text-anchor="middle" x="1780.64" y="-14.3" font-family="Times,serif" font-size="14.00">intel_batchbuffer_space</text>
</g>
<!-- intel_batchbuffer_require_space&#45;&gt;intel_batchbuffer_space -->
<g id="edge2" class="edge"><title>intel_batchbuffer_require_space&#45;&gt;intel_batchbuffer_space</title>
<path fill="none" stroke="black" d="M1681.45,-72.411C1699.47,-62.7082 1722.39,-50.3664 1741.66,-39.9915"/>
<polygon fill="black" stroke="black" points="1743.36,-43.0512 1750.5,-35.2285 1740.04,-36.8879 1743.36,-43.0512"/>
</g>
<!-- scratch_buf_init -->
<g id="node5" class="node"><title>scratch_buf_init</title>
<ellipse fill="none" stroke="black" cx="228.641" cy="-162" rx="67.6881" ry="18"/>
<text text-anchor="middle" x="228.641" y="-158.3" font-family="Times,serif" font-size="14.00">scratch_buf_init</text>
</g>
<!-- scratch_buf_memset -->
<g id="node6" class="node"><title>scratch_buf_memset</title>
<ellipse fill="none" stroke="black" cx="130.641" cy="-90" rx="84.485" ry="18"/>
<text text-anchor="middle" x="130.641" y="-86.3" font-family="Times,serif" font-size="14.00">scratch_buf_memset</text>
</g>
<!-- scratch_buf_init&#45;&gt;scratch_buf_memset -->
<g id="edge3" class="edge"><title>scratch_buf_init&#45;&gt;scratch_buf_memset</title>
<path fill="none" stroke="black" d="M205.911,-144.765C192.894,-135.467 176.365,-123.66 162.114,-113.481"/>
<polygon fill="black" stroke="black" points="163.758,-110.354 153.586,-107.39 159.689,-116.05 163.758,-110.354"/>
</g>
<!-- test_counters_with_mmap -->
<g id="node7" class="node"><title>test_counters_with_mmap</title>
<ellipse fill="none" stroke="black" cx="104.641" cy="-234" rx="104.782" ry="18"/>
<text text-anchor="middle" x="104.641" y="-230.3" font-family="Times,serif" font-size="14.00">test_counters_with_mmap</text>
</g>
<!-- test_counters_with_mmap&#45;&gt;__perf_open -->
<g id="edge5" class="edge"><title>test_counters_with_mmap&#45;&gt;__perf_open</title>
<path fill="none" stroke="black" d="M180.67,-221.602C193.348,-219.719 206.365,-217.796 218.641,-216 330.151,-199.689 359.213,-202.505 469.641,-180 474.256,-179.059 479.033,-177.985 483.802,-176.842"/>
<polygon fill="black" stroke="black" points="484.665,-180.235 493.525,-174.425 482.976,-173.441 484.665,-180.235"/>
</g>
<!-- test_counters_with_mmap&#45;&gt;__perf_close -->
<g id="edge6" class="edge"><title>test_counters_with_mmap&#45;&gt;__perf_close</title>
<path fill="none" stroke="black" d="M109.352,-215.671C115.692,-195.58 128.886,-162.822 151.641,-144 169.774,-129.001 225.941,-113.404 269.41,-103.047"/>
<polygon fill="black" stroke="black" points="270.377,-106.415 279.313,-100.725 268.778,-99.6003 270.377,-106.415"/>
</g>
<!-- test_counters_with_mmap&#45;&gt;scratch_buf_init -->
<g id="edge4" class="edge"><title>test_counters_with_mmap&#45;&gt;scratch_buf_init</title>
<path fill="none" stroke="black" d="M133.713,-216.588C151.184,-206.726 173.569,-194.089 192.213,-183.564"/>
<polygon fill="black" stroke="black" points="194.04,-186.552 201.027,-178.588 190.598,-180.456 194.04,-186.552"/>
</g>
<!-- test_counters_with_mmap&#45;&gt;scratch_buf_memset -->
<g id="edge7" class="edge"><title>test_counters_with_mmap&#45;&gt;scratch_buf_memset</title>
<path fill="none" stroke="black" d="M93.627,-215.895C83.3734,-197.695 71.0102,-168.243 80.6407,-144 85.0475,-132.907 92.9987,-122.791 101.283,-114.439"/>
<polygon fill="black" stroke="black" points="103.691,-116.979 108.567,-107.573 98.8896,-111.885 103.691,-116.979"/>
</g>
<!-- i915_perf_add_config -->
<g id="node8" class="node"><title>i915_perf_add_config</title>
<ellipse fill="none" stroke="black" cx="2673.64" cy="-234" rx="89.0842" ry="18"/>
<text text-anchor="middle" x="2673.64" y="-230.3" font-family="Times,serif" font-size="14.00">i915_perf_add_config</text>
</g>
<!-- __i915_perf_add_config -->
<g id="node9" class="node"><title>__i915_perf_add_config</title>
<ellipse fill="none" stroke="black" cx="2673.64" cy="-162" rx="97.4827" ry="18"/>
<text text-anchor="middle" x="2673.64" y="-158.3" font-family="Times,serif" font-size="14.00">__i915_perf_add_config</text>
</g>
<!-- i915_perf_add_config&#45;&gt;__i915_perf_add_config -->
<g id="edge8" class="edge"><title>i915_perf_add_config&#45;&gt;__i915_perf_add_config</title>
<path fill="none" stroke="black" d="M2673.64,-215.697C2673.64,-207.983 2673.64,-198.712 2673.64,-190.112"/>
<polygon fill="black" stroke="black" points="2677.14,-190.104 2673.64,-180.104 2670.14,-190.104 2677.14,-190.104"/>
</g>
<!-- test_counters_with_lib -->
<g id="node10" class="node"><title>test_counters_with_lib</title>
<ellipse fill="none" stroke="black" cx="318.641" cy="-234" rx="90.9839" ry="18"/>
<text text-anchor="middle" x="318.641" y="-230.3" font-family="Times,serif" font-size="14.00">test_counters_with_lib</text>
</g>
<!-- test_counters_with_lib&#45;&gt;__perf_open -->
<g id="edge10" class="edge"><title>test_counters_with_lib&#45;&gt;__perf_open</title>
<path fill="none" stroke="black" d="M363.712,-218.326C399.504,-206.673 449.425,-190.419 485.897,-178.545"/>
<polygon fill="black" stroke="black" points="487.379,-181.743 495.804,-175.319 485.212,-175.087 487.379,-181.743"/>
</g>
<!-- test_counters_with_lib&#45;&gt;__perf_close -->
<g id="edge13" class="edge"><title>test_counters_with_lib&#45;&gt;__perf_close</title>
<path fill="none" stroke="black" d="M319.364,-215.871C320.387,-191.67 322.266,-147.211 323.483,-118.393"/>
<polygon fill="black" stroke="black" points="326.989,-118.328 323.914,-108.189 319.995,-118.033 326.989,-118.328"/>
</g>
<!-- test_counters_with_lib&#45;&gt;scratch_buf_init -->
<g id="edge11" class="edge"><title>test_counters_with_lib&#45;&gt;scratch_buf_init</title>
<path fill="none" stroke="black" d="M297.312,-216.411C285.458,-207.191 270.54,-195.588 257.64,-185.555"/>
<polygon fill="black" stroke="black" points="259.548,-182.605 249.506,-179.228 255.251,-188.131 259.548,-182.605"/>
</g>
<!-- test_counters_with_lib&#45;&gt;scratch_buf_memset -->
<g id="edge12" class="edge"><title>test_counters_with_lib&#45;&gt;scratch_buf_memset</title>
<path fill="none" stroke="black" d="M258.394,-220.459C216.803,-210.617 166.427,-195.949 151.641,-180 136.25,-163.399 131.489,-137.679 130.292,-118.149"/>
<polygon fill="black" stroke="black" points="133.786,-117.909 129.948,-108.033 126.79,-118.146 133.786,-117.909"/>
</g>
<!-- print_binary -->
<g id="node11" class="node"><title>print_binary</title>
<ellipse fill="none" stroke="black" cx="406.641" cy="-162" rx="53.8905" ry="18"/>
<text text-anchor="middle" x="406.641" y="-158.3" font-family="Times,serif" font-size="14.00">print_binary</text>
</g>
<!-- test_counters_with_lib&#45;&gt;print_binary -->
<g id="edge9" class="edge"><title>test_counters_with_lib&#45;&gt;print_binary</title>
<path fill="none" stroke="black" d="M339.495,-216.411C351.253,-207.058 366.093,-195.254 378.829,-185.123"/>
<polygon fill="black" stroke="black" points="381.195,-187.713 386.842,-178.749 376.837,-182.235 381.195,-187.713"/>
</g>
<!-- send_mi_store_reg_mem -->
<g id="node12" class="node"><title>send_mi_store_reg_mem</title>
<ellipse fill="none" stroke="black" cx="989.641" cy="-162" rx="100.983" ry="18"/>
<text text-anchor="middle" x="989.641" y="-158.3" font-family="Times,serif" font-size="14.00">send_mi_store_reg_mem</text>
</g>
<!-- send_mi_store_reg_mem&#45;&gt;intel_batchbuffer_require_space -->
<g id="edge14" class="edge"><title>send_mi_store_reg_mem&#45;&gt;intel_batchbuffer_require_space</title>
<path fill="none" stroke="black" d="M1061.14,-149.235C1073.94,-147.333 1087.17,-145.499 1099.64,-144 1284.77,-121.748 1332.23,-127.825 1517.64,-108 1528.92,-106.794 1540.72,-105.431 1552.44,-104.015"/>
<polygon fill="black" stroke="black" points="1553.2,-107.448 1562.7,-102.759 1552.35,-100.5 1553.2,-107.448"/>
</g>
<!-- intel_batchbuffer_emit_dword -->
<g id="node13" class="node"><title>intel_batchbuffer_emit_dword</title>
<ellipse fill="none" stroke="black" cx="1910.64" cy="-90" rx="118.079" ry="18"/>
<text text-anchor="middle" x="1910.64" y="-86.3" font-family="Times,serif" font-size="14.00">intel_batchbuffer_emit_dword</text>
</g>
<!-- send_mi_store_reg_mem&#45;&gt;intel_batchbuffer_emit_dword -->
<g id="edge15" class="edge"><title>send_mi_store_reg_mem&#45;&gt;intel_batchbuffer_emit_dword</title>
<path fill="none" stroke="black" d="M1059.92,-149.06C1073.09,-147.129 1086.76,-145.331 1099.64,-144 1402.45,-112.713 1480.53,-136.217 1783.64,-108 1794.86,-106.955 1806.62,-105.659 1818.25,-104.25"/>
<polygon fill="black" stroke="black" points="1818.94,-107.692 1828.43,-102.987 1818.07,-100.745 1818.94,-107.692"/>
</g>
<!-- intel_batchbuffer_emit_dword&#45;&gt;intel_batchbuffer_space -->
<g id="edge45" class="edge"><title>intel_batchbuffer_emit_dword&#45;&gt;intel_batchbuffer_space</title>
<path fill="none" stroke="black" d="M1880.16,-72.5881C1862.15,-62.89 1839.16,-50.5096 1819.81,-40.0923"/>
<polygon fill="black" stroke="black" points="1821.39,-36.9685 1810.93,-35.3091 1818.07,-43.1318 1821.39,-36.9685"/>
</g>
<!-- send_mi_load_reg_mem -->
<g id="node14" class="node"><title>send_mi_load_reg_mem</title>
<ellipse fill="none" stroke="black" cx="1780.64" cy="-162" rx="98.5829" ry="18"/>
<text text-anchor="middle" x="1780.64" y="-158.3" font-family="Times,serif" font-size="14.00">send_mi_load_reg_mem</text>
</g>
<!-- send_mi_load_reg_mem&#45;&gt;intel_batchbuffer_require_space -->
<g id="edge16" class="edge"><title>send_mi_load_reg_mem&#45;&gt;intel_batchbuffer_require_space</title>
<path fill="none" stroke="black" d="M1750.49,-144.765C1732.62,-135.142 1709.76,-122.832 1690.42,-112.419"/>
<polygon fill="black" stroke="black" points="1692,-109.293 1681.53,-107.633 1688.68,-115.456 1692,-109.293"/>
</g>
<!-- send_mi_load_reg_mem&#45;&gt;intel_batchbuffer_emit_dword -->
<g id="edge17" class="edge"><title>send_mi_load_reg_mem&#45;&gt;intel_batchbuffer_emit_dword</title>
<path fill="none" stroke="black" d="M1810.79,-144.765C1828.66,-135.142 1851.53,-122.832 1870.86,-112.419"/>
<polygon fill="black" stroke="black" points="1872.6,-115.456 1879.75,-107.633 1869.29,-109.293 1872.6,-115.456"/>
</g>
<!-- hsw_read_report_ticks -->
<g id="node15" class="node"><title>hsw_read_report_ticks</title>
<ellipse fill="none" stroke="black" cx="981.641" cy="-90" rx="90.9839" ry="18"/>
<text text-anchor="middle" x="981.641" y="-86.3" font-family="Times,serif" font-size="14.00">hsw_read_report_ticks</text>
</g>
<!-- get_oa_format -->
<g id="node16" class="node"><title>get_oa_format</title>
<ellipse fill="none" stroke="black" cx="545.641" cy="-18" rx="62.2891" ry="18"/>
<text text-anchor="middle" x="545.641" y="-14.3" font-family="Times,serif" font-size="14.00">get_oa_format</text>
</g>
<!-- hsw_read_report_ticks&#45;&gt;get_oa_format -->
<g id="edge18" class="edge"><title>hsw_read_report_ticks&#45;&gt;get_oa_format</title>
<path fill="none" stroke="black" d="M915.228,-77.5956C904.021,-75.7038 892.502,-73.7798 881.641,-72 786.852,-56.4677 676.878,-39.2777 609.278,-28.8064"/>
<polygon fill="black" stroke="black" points="609.628,-25.319 599.21,-27.248 608.557,-32.2366 609.628,-25.319"/>
</g>
<!-- max_oa_exponent_for_period_lte -->
<g id="node17" class="node"><title>max_oa_exponent_for_period_lte</title>
<ellipse fill="none" stroke="black" cx="2428.64" cy="-162" rx="129.977" ry="18"/>
<text text-anchor="middle" x="2428.64" y="-158.3" font-family="Times,serif" font-size="14.00">max_oa_exponent_for_period_lte</text>
</g>
<!-- timebase_scale -->
<g id="node18" class="node"><title>timebase_scale</title>
<ellipse fill="none" stroke="black" cx="2428.64" cy="-90" rx="64.189" ry="18"/>
<text text-anchor="middle" x="2428.64" y="-86.3" font-family="Times,serif" font-size="14.00">timebase_scale</text>
</g>
<!-- max_oa_exponent_for_period_lte&#45;&gt;timebase_scale -->
<g id="edge19" class="edge"><title>max_oa_exponent_for_period_lte&#45;&gt;timebase_scale</title>
<path fill="none" stroke="black" d="M2428.64,-143.697C2428.64,-135.983 2428.64,-126.712 2428.64,-118.112"/>
<polygon fill="black" stroke="black" points="2432.14,-118.104 2428.64,-108.104 2425.14,-118.104 2432.14,-118.104"/>
</g>
<!-- test_counters_with_opencl -->
<g id="node19" class="node"><title>test_counters_with_opencl</title>
<ellipse fill="none" stroke="black" cx="1016.64" cy="-234" rx="104.782" ry="18"/>
<text text-anchor="middle" x="1016.64" y="-230.3" font-family="Times,serif" font-size="14.00">test_counters_with_opencl</text>
</g>
<!-- test_counters_with_opencl&#45;&gt;__perf_open -->
<g id="edge23" class="edge"><title>test_counters_with_opencl&#45;&gt;__perf_open</title>
<path fill="none" stroke="black" d="M940.611,-221.604C927.933,-219.721 914.916,-217.797 902.641,-216 793.469,-200.02 666.057,-181.819 593.115,-171.442"/>
<polygon fill="black" stroke="black" points="593.584,-167.974 583.191,-170.031 592.599,-174.904 593.584,-167.974"/>
</g>
<!-- test_counters_with_opencl&#45;&gt;__perf_close -->
<g id="edge25" class="edge"><title>test_counters_with_opencl&#45;&gt;__perf_close</title>
<path fill="none" stroke="black" d="M945.414,-220.744C872.418,-207.883 767.171,-188.392 749.641,-180 727.16,-169.238 729.497,-153.941 706.641,-144 587.54,-92.1979 544.999,-127.809 416.641,-108 405.218,-106.237 393.038,-104.141 381.403,-102.033"/>
<polygon fill="black" stroke="black" points="381.82,-98.551 371.352,-100.185 380.555,-105.436 381.82,-98.551"/>
</g>
<!-- test_counters_with_opencl&#45;&gt;scratch_buf_init -->
<g id="edge22" class="edge"><title>test_counters_with_opencl&#45;&gt;scratch_buf_init</title>
<path fill="none" stroke="black" d="M943.167,-221.12C929.712,-219.207 915.773,-217.4 902.641,-216 655.083,-189.617 591.215,-206.226 343.641,-180 327.753,-178.317 310.695,-176.049 294.71,-173.72"/>
<polygon fill="black" stroke="black" points="294.789,-170.193 284.383,-172.185 293.76,-177.117 294.789,-170.193"/>
</g>
<!-- test_counters_with_opencl&#45;&gt;scratch_buf_memset -->
<g id="edge26" class="edge"><title>test_counters_with_opencl&#45;&gt;scratch_buf_memset</title>
<path fill="none" stroke="black" d="M941.434,-221.468C864.39,-209.417 749.953,-190.79 706.641,-180 657.136,-167.667 647.511,-154.763 597.641,-144 449.969,-112.131 409.652,-125.87 259.641,-108 243.573,-106.086 226.397,-103.912 209.991,-101.773"/>
<polygon fill="black" stroke="black" points="210.262,-98.2791 199.892,-100.449 209.352,-105.22 210.262,-98.2791"/>
</g>
<!-- emit_report_perf_count -->
<g id="node20" class="node"><title>emit_report_perf_count</title>
<ellipse fill="none" stroke="black" cx="1530.64" cy="-162" rx="94.7833" ry="18"/>
<text text-anchor="middle" x="1530.64" y="-158.3" font-family="Times,serif" font-size="14.00">emit_report_perf_count</text>
</g>
<!-- test_counters_with_opencl&#45;&gt;emit_report_perf_count -->
<g id="edge20" class="edge"><title>test_counters_with_opencl&#45;&gt;emit_report_perf_count</title>
<path fill="none" stroke="black" d="M1095.83,-222.216C1190.61,-209.308 1348.69,-187.779 1445.88,-174.544"/>
<polygon fill="black" stroke="black" points="1446.53,-177.988 1455.96,-173.17 1445.58,-171.052 1446.53,-177.988"/>
</g>
<!-- read_tsc_end -->
<g id="node21" class="node"><title>read_tsc_end</title>
<ellipse fill="none" stroke="black" cx="1303.64" cy="-162" rx="57.3905" ry="18"/>
<text text-anchor="middle" x="1303.64" y="-158.3" font-family="Times,serif" font-size="14.00">read_tsc_end</text>
</g>
<!-- test_counters_with_opencl&#45;&gt;read_tsc_end -->
<g id="edge21" class="edge"><title>test_counters_with_opencl&#45;&gt;read_tsc_end</title>
<path fill="none" stroke="black" d="M1075.8,-219.096C1120.34,-208.558 1182.89,-193.616 1237.64,-180 1242.02,-178.91 1246.56,-177.768 1251.12,-176.613"/>
<polygon fill="black" stroke="black" points="1252.24,-179.94 1261.06,-174.078 1250.51,-173.157 1252.24,-179.94"/>
</g>
<!-- read_u64_file -->
<g id="node22" class="node"><title>read_u64_file</title>
<ellipse fill="none" stroke="black" cx="1995.64" cy="-162" rx="59.5901" ry="18"/>
<text text-anchor="middle" x="1995.64" y="-158.3" font-family="Times,serif" font-size="14.00">read_u64_file</text>
</g>
<!-- test_counters_with_opencl&#45;&gt;read_u64_file -->
<g id="edge24" class="edge"><title>test_counters_with_opencl&#45;&gt;read_u64_file</title>
<path fill="none" stroke="black" d="M1118.94,-229.994C1282.12,-224.477 1611.23,-210.395 1888.64,-180 1903.98,-178.319 1920.47,-175.97 1935.81,-173.554"/>
<polygon fill="black" stroke="black" points="1936.38,-177.007 1945.7,-171.962 1935.27,-170.096 1936.38,-177.007"/>
</g>
<!-- read_tsc_start -->
<g id="node23" class="node"><title>read_tsc_start</title>
<ellipse fill="none" stroke="black" cx="1168.64" cy="-162" rx="59.5901" ry="18"/>
<text text-anchor="middle" x="1168.64" y="-158.3" font-family="Times,serif" font-size="14.00">read_tsc_start</text>
</g>
<!-- test_counters_with_opencl&#45;&gt;read_tsc_start -->
<g id="edge27" class="edge"><title>test_counters_with_opencl&#45;&gt;read_tsc_start</title>
<path fill="none" stroke="black" d="M1051.51,-216.941C1074.34,-206.429 1104.25,-192.655 1128.13,-181.657"/>
<polygon fill="black" stroke="black" points="1129.67,-184.8 1137.29,-177.438 1126.74,-178.442 1129.67,-184.8"/>
</g>
<!-- print_reports -->
<g id="node24" class="node"><title>print_reports</title>
<ellipse fill="none" stroke="black" cx="814.641" cy="-162" rx="55.7903" ry="18"/>
<text text-anchor="middle" x="814.641" y="-158.3" font-family="Times,serif" font-size="14.00">print_reports</text>
</g>
<!-- test_counters_with_opencl&#45;&gt;print_reports -->
<g id="edge28" class="edge"><title>test_counters_with_opencl&#45;&gt;print_reports</title>
<path fill="none" stroke="black" d="M972.311,-217.638C939.332,-206.21 894.434,-190.651 860.983,-179.059"/>
<polygon fill="black" stroke="black" points="862.029,-175.717 851.434,-175.75 859.736,-182.332 862.029,-175.717"/>
</g>
<!-- emit_report_perf_count&#45;&gt;intel_batchbuffer_require_space -->
<g id="edge40" class="edge"><title>emit_report_perf_count&#45;&gt;intel_batchbuffer_require_space</title>
<path fill="none" stroke="black" d="M1558.47,-144.765C1574.75,-135.272 1595.5,-123.165 1613.19,-112.844"/>
<polygon fill="black" stroke="black" points="1615.25,-115.695 1622.13,-107.633 1611.72,-109.649 1615.25,-115.695"/>
</g>
<!-- emit_report_perf_count&#45;&gt;intel_batchbuffer_emit_dword -->
<g id="edge39" class="edge"><title>emit_report_perf_count&#45;&gt;intel_batchbuffer_emit_dword</title>
<path fill="none" stroke="black" d="M1596.4,-148.887C1660.78,-137.027 1759.06,-118.923 1828.54,-106.123"/>
<polygon fill="black" stroke="black" points="1829.38,-109.529 1838.58,-104.275 1828.11,-102.644 1829.38,-109.529"/>
</g>
<!-- print_reports&#45;&gt;get_oa_format -->
<g id="edge29" class="edge"><title>print_reports&#45;&gt;get_oa_format</title>
<path fill="none" stroke="black" d="M772.995,-149.981C763.708,-147.777 753.876,-145.639 744.641,-144 674.835,-131.61 474.86,-160.885 427.641,-108 416.984,-96.065 418.948,-85.433 427.641,-72 440.607,-51.9626 463.143,-39.4278 485.069,-31.6196"/>
<polygon fill="black" stroke="black" points="486.316,-34.894 494.73,-28.4547 484.137,-28.2419 486.316,-34.894"/>
</g>
<!-- gen8_read_40bit_a_counter -->
<g id="node25" class="node"><title>gen8_read_40bit_a_counter</title>
<ellipse fill="none" stroke="black" cx="545.641" cy="-90" rx="108.581" ry="18"/>
<text text-anchor="middle" x="545.641" y="-86.3" font-family="Times,serif" font-size="14.00">gen8_read_40bit_a_counter</text>
</g>
<!-- print_reports&#45;&gt;gen8_read_40bit_a_counter -->
<g id="edge30" class="edge"><title>print_reports&#45;&gt;gen8_read_40bit_a_counter</title>
<path fill="none" stroke="black" d="M772.609,-150.062C729.388,-138.815 661.474,-121.143 611.187,-108.057"/>
<polygon fill="black" stroke="black" points="611.937,-104.635 601.378,-105.504 610.174,-111.41 611.937,-104.635"/>
</g>
<!-- gen8_read_report_reason -->
<g id="node26" class="node"><title>gen8_read_report_reason</title>
<ellipse fill="none" stroke="black" cx="772.641" cy="-90" rx="100.182" ry="18"/>
<text text-anchor="middle" x="772.641" y="-86.3" font-family="Times,serif" font-size="14.00">gen8_read_report_reason</text>
</g>
<!-- print_reports&#45;&gt;gen8_read_report_reason -->
<g id="edge31" class="edge"><title>print_reports&#45;&gt;gen8_read_report_reason</title>
<path fill="none" stroke="black" d="M804.474,-144.055C799.594,-135.922 793.64,-125.998 788.206,-116.943"/>
<polygon fill="black" stroke="black" points="791.152,-115.049 783.006,-108.275 785.15,-118.651 791.152,-115.049"/>
</g>
<!-- gen8_read_report_clock_ratios -->
<g id="node27" class="node"><title>gen8_read_report_clock_ratios</title>
<ellipse fill="none" stroke="black" cx="1210.64" cy="-90" rx="120.479" ry="18"/>
<text text-anchor="middle" x="1210.64" y="-86.3" font-family="Times,serif" font-size="14.00">gen8_read_report_clock_ratios</text>
</g>
<!-- print_reports&#45;&gt;gen8_read_report_clock_ratios -->
<g id="edge32" class="edge"><title>print_reports&#45;&gt;gen8_read_report_clock_ratios</title>
<path fill="none" stroke="black" d="M855.76,-149.602C863.654,-147.597 871.879,-145.632 879.641,-144 958.053,-127.509 1047.86,-113.426 1114.13,-103.931"/>
<polygon fill="black" stroke="black" points="1114.74,-107.38 1124.15,-102.505 1113.75,-100.45 1114.74,-107.38"/>
</g>
<!-- gen8_40bit_a_delta -->
<g id="node28" class="node"><title>gen8_40bit_a_delta</title>
<ellipse fill="none" stroke="black" cx="1428.64" cy="-90" rx="79.8859" ry="18"/>
<text text-anchor="middle" x="1428.64" y="-86.3" font-family="Times,serif" font-size="14.00">gen8_40bit_a_delta</text>
</g>
<!-- print_reports&#45;&gt;gen8_40bit_a_delta -->
<g id="edge33" class="edge"><title>print_reports&#45;&gt;gen8_40bit_a_delta</title>
<path fill="none" stroke="black" d="M854.62,-149.354C862.838,-147.297 871.474,-145.376 879.641,-144 1081.86,-109.921 1136.39,-135.279 1339.64,-108 1346.82,-107.036 1354.3,-105.869 1361.74,-104.602"/>
<polygon fill="black" stroke="black" points="1362.58,-108.008 1371.82,-102.824 1361.36,-101.114 1362.58,-108.008"/>
</g>
<!-- gen8_read_40bit_a_counter&#45;&gt;get_oa_format -->
<g id="edge44" class="edge"><title>gen8_read_40bit_a_counter&#45;&gt;get_oa_format</title>
<path fill="none" stroke="black" d="M545.641,-71.6966C545.641,-63.9827 545.641,-54.7125 545.641,-46.1124"/>
<polygon fill="black" stroke="black" points="549.141,-46.1043 545.641,-36.1043 542.141,-46.1044 549.141,-46.1043"/>
</g>
<!-- emit_stall_timestamp_and_rpc -->
<g id="node29" class="node"><title>emit_stall_timestamp_and_rpc</title>
<ellipse fill="none" stroke="black" cx="1653.64" cy="-234" rx="120.479" ry="18"/>
<text text-anchor="middle" x="1653.64" y="-230.3" font-family="Times,serif" font-size="14.00">emit_stall_timestamp_and_rpc</text>
</g>
<!-- emit_stall_timestamp_and_rpc&#45;&gt;intel_batchbuffer_require_space -->
<g id="edge34" class="edge"><title>emit_stall_timestamp_and_rpc&#45;&gt;intel_batchbuffer_require_space</title>
<path fill="none" stroke="black" d="M1653.28,-215.871C1652.77,-191.67 1651.83,-147.211 1651.22,-118.393"/>
<polygon fill="black" stroke="black" points="1654.71,-118.113 1651,-108.189 1647.72,-118.261 1654.71,-118.113"/>
</g>
<!-- emit_stall_timestamp_and_rpc&#45;&gt;intel_batchbuffer_emit_dword -->
<g id="edge35" class="edge"><title>emit_stall_timestamp_and_rpc&#45;&gt;intel_batchbuffer_emit_dword</title>
<path fill="none" stroke="black" d="M1745.5,-222.287C1802.31,-213.818 1868.18,-200.049 1888.64,-180 1904.85,-164.117 1909.83,-138.315 1911.06,-118.572"/>
<polygon fill="black" stroke="black" points="1914.56,-118.44 1911.4,-108.328 1907.57,-118.205 1914.56,-118.44"/>
</g>
<!-- emit_stall_timestamp_and_rpc&#45;&gt;emit_report_perf_count -->
<g id="edge36" class="edge"><title>emit_stall_timestamp_and_rpc&#45;&gt;emit_report_perf_count</title>
<path fill="none" stroke="black" d="M1624.49,-216.411C1607.67,-206.84 1586.34,-194.701 1568.27,-184.415"/>
<polygon fill="black" stroke="black" points="1569.58,-181.133 1559.16,-179.228 1566.12,-187.217 1569.58,-181.133"/>
</g>
<!-- test_whitelisted_registers_userspace_config -->
<g id="node30" class="node"><title>test_whitelisted_registers_userspace_config</title>
<ellipse fill="none" stroke="black" cx="1995.64" cy="-234" rx="165.171" ry="18"/>
<text text-anchor="middle" x="1995.64" y="-230.3" font-family="Times,serif" font-size="14.00">test_whitelisted_registers_userspace_config</text>
</g>
<!-- test_whitelisted_registers_userspace_config&#45;&gt;read_u64_file -->
<g id="edge37" class="edge"><title>test_whitelisted_registers_userspace_config&#45;&gt;read_u64_file</title>
<path fill="none" stroke="black" d="M1995.64,-215.697C1995.64,-207.983 1995.64,-198.712 1995.64,-190.112"/>
<polygon fill="black" stroke="black" points="1999.14,-190.104 1995.64,-180.104 1992.14,-190.104 1999.14,-190.104"/>
</g>
<!-- i915_perf_remove_config -->
<g id="node31" class="node"><title>i915_perf_remove_config</title>
<ellipse fill="none" stroke="black" cx="2175.64" cy="-162" rx="102.882" ry="18"/>
<text text-anchor="middle" x="2175.64" y="-158.3" font-family="Times,serif" font-size="14.00">i915_perf_remove_config</text>
</g>
<!-- test_whitelisted_registers_userspace_config&#45;&gt;i915_perf_remove_config -->
<g id="edge38" class="edge"><title>test_whitelisted_registers_userspace_config&#45;&gt;i915_perf_remove_config</title>
<path fill="none" stroke="black" d="M2037.84,-216.588C2064.24,-206.322 2098.37,-193.05 2126.06,-182.283"/>
<polygon fill="black" stroke="black" points="2127.51,-185.475 2135.56,-178.588 2124.97,-178.951 2127.51,-185.475"/>
</g>
<!-- read_counters_with_mmio -->
<g id="node32" class="node"><title>read_counters_with_mmio</title>
<ellipse fill="none" stroke="black" cx="533.641" cy="-234" rx="105.881" ry="18"/>
<text text-anchor="middle" x="533.641" y="-230.3" font-family="Times,serif" font-size="14.00">read_counters_with_mmio</text>
</g>
<!-- read_counters_with_mmio&#45;&gt;__perf_open -->
<g id="edge43" class="edge"><title>read_counters_with_mmio&#45;&gt;__perf_open</title>
<path fill="none" stroke="black" d="M533.641,-215.697C533.641,-207.983 533.641,-198.712 533.641,-190.112"/>
<polygon fill="black" stroke="black" points="537.141,-190.104 533.641,-180.104 530.141,-190.104 537.141,-190.104"/>
</g>
<!-- read_counters_with_mmio&#45;&gt;__perf_close -->
<g id="edge42" class="edge"><title>read_counters_with_mmio&#45;&gt;__perf_close</title>
<path fill="none" stroke="black" d="M563.403,-216.602C576.472,-207.657 590.458,-195.274 597.641,-180 604.45,-165.521 607.919,-156.262 597.641,-144 568.209,-108.889 439.479,-117.411 394.641,-108 388.917,-106.799 382.948,-105.469 377.015,-104.098"/>
<polygon fill="black" stroke="black" points="377.65,-100.652 367.114,-101.767 376.046,-107.465 377.65,-100.652"/>
</g>
<!-- read_counters_with_mmio&#45;&gt;print_binary -->
<g id="edge41" class="edge"><title>read_counters_with_mmio&#45;&gt;print_binary</title>
<path fill="none" stroke="black" d="M503.865,-216.588C485.51,-206.471 461.86,-193.436 442.481,-182.755"/>
<polygon fill="black" stroke="black" points="444.081,-179.64 433.634,-177.878 440.702,-185.77 444.081,-179.64"/>
</g>
<!-- init_sys_info -->
<g id="node33" class="node"><title>init_sys_info</title>
<ellipse fill="none" stroke="black" cx="2235.64" cy="-234" rx="56.59" ry="18"/>
<text text-anchor="middle" x="2235.64" y="-230.3" font-family="Times,serif" font-size="14.00">init_sys_info</text>
</g>
<!-- init_sys_info&#45;&gt;max_oa_exponent_for_period_lte -->
<g id="edge47" class="edge"><title>init_sys_info&#45;&gt;max_oa_exponent_for_period_lte</title>
<path fill="none" stroke="black" d="M2271.49,-219.998C2300.56,-209.454 2341.98,-194.431 2375,-182.455"/>
<polygon fill="black" stroke="black" points="2376.31,-185.705 2384.51,-179.005 2373.92,-179.124 2376.31,-185.705"/>
</g>
<!-- init_sys_info&#45;&gt;read_u64_file -->
<g id="edge46" class="edge"><title>init_sys_info&#45;&gt;read_u64_file</title>
<path fill="none" stroke="black" d="M2195.47,-221.284C2154.65,-209.379 2091.29,-190.898 2046.88,-177.946"/>
<polygon fill="black" stroke="black" points="2047.73,-174.547 2037.15,-175.107 2045.77,-181.267 2047.73,-174.547"/>
</g>
<!-- write_to_flexible_eu_registers -->
<g id="node34" class="node"><title>write_to_flexible_eu_registers</title>
<ellipse fill="none" stroke="black" cx="775.641" cy="-234" rx="118.079" ry="18"/>
<text text-anchor="middle" x="775.641" y="-230.3" font-family="Times,serif" font-size="14.00">write_to_flexible_eu_registers</text>
</g>
<!-- write_to_flexible_eu_registers&#45;&gt;__perf_open -->
<g id="edge51" class="edge"><title>write_to_flexible_eu_registers&#45;&gt;__perf_open</title>
<path fill="none" stroke="black" d="M723.13,-217.811C681.65,-205.812 624.157,-189.182 583.405,-177.395"/>
<polygon fill="black" stroke="black" points="584.264,-174 573.685,-174.583 582.318,-180.724 584.264,-174"/>
</g>
<!-- write_to_flexible_eu_registers&#45;&gt;__perf_close -->
<g id="edge48" class="edge"><title>write_to_flexible_eu_registers&#45;&gt;__perf_close</title>
<path fill="none" stroke="black" d="M751.63,-216.309C721.335,-196.056 666.973,-162.349 615.641,-144 531.005,-113.747 505.055,-124.166 416.641,-108 405.395,-105.944 393.379,-103.733 381.866,-101.609"/>
<polygon fill="black" stroke="black" points="382.38,-98.1444 371.91,-99.7697 381.108,-105.028 382.38,-98.1444"/>
</g>
<!-- write_to_flexible_eu_registers&#45;&gt;print_binary -->
<g id="edge49" class="edge"><title>write_to_flexible_eu_registers&#45;&gt;print_binary</title>
<path fill="none" stroke="black" d="M694.064,-220.964C632.188,-211.329 545.187,-196.698 469.641,-180 465.228,-179.025 460.661,-177.941 456.095,-176.805"/>
<polygon fill="black" stroke="black" points="456.715,-173.351 446.16,-174.26 454.978,-180.132 456.715,-173.351"/>
</g>
<!-- write_to_flexible_eu_registers&#45;&gt;send_mi_store_reg_mem -->
<g id="edge50" class="edge"><title>write_to_flexible_eu_registers&#45;&gt;send_mi_store_reg_mem</title>
<path fill="none" stroke="black" d="M823.134,-217.465C855.748,-206.797 899.176,-192.591 933.503,-181.363"/>
<polygon fill="black" stroke="black" points="934.967,-184.567 943.383,-178.131 932.79,-177.913 934.967,-184.567"/>
</g>
<!-- max_oa_exponent_for_freq_gt -->
<g id="node35" class="node"><title>max_oa_exponent_for_freq_gt</title>
<ellipse fill="none" stroke="black" cx="2430.64" cy="-234" rx="120.479" ry="18"/>
<text text-anchor="middle" x="2430.64" y="-230.3" font-family="Times,serif" font-size="14.00">max_oa_exponent_for_freq_gt</text>
</g>
<!-- max_oa_exponent_for_freq_gt&#45;&gt;max_oa_exponent_for_period_lte -->
<g id="edge52" class="edge"><title>max_oa_exponent_for_freq_gt&#45;&gt;max_oa_exponent_for_period_lte</title>
<path fill="none" stroke="black" d="M2430.15,-215.697C2429.93,-207.983 2429.66,-198.712 2429.42,-190.112"/>
<polygon fill="black" stroke="black" points="2432.91,-190 2429.13,-180.104 2425.92,-190.2 2432.91,-190"/>
</g>
<!-- oa_report_is_periodic -->
<g id="node36" class="node"><title>oa_report_is_periodic</title>
<ellipse fill="none" stroke="black" cx="2868.64" cy="-234" rx="87.9851" ry="18"/>
<text text-anchor="middle" x="2868.64" y="-230.3" font-family="Times,serif" font-size="14.00">oa_report_is_periodic</text>
</g>
<!-- gen8_read_report_ticks -->
<g id="node37" class="node"><title>gen8_read_report_ticks</title>
<ellipse fill="none" stroke="black" cx="3067.64" cy="-234" rx="93.6835" ry="18"/>
<text text-anchor="middle" x="3067.64" y="-230.3" font-family="Times,serif" font-size="14.00">gen8_read_report_ticks</text>
</g>
<!-- print_report_card -->
<g id="node38" class="node"><title>print_report_card</title>
<ellipse fill="none" stroke="black" cx="3251.64" cy="-234" rx="72.2875" ry="18"/>
<text text-anchor="middle" x="3251.64" y="-230.3" font-family="Times,serif" font-size="14.00">print_report_card</text>
</g>
<!-- oa_exponent_to_ns -->
<g id="node39" class="node"><title>oa_exponent_to_ns</title>
<ellipse fill="none" stroke="black" cx="3420.64" cy="-234" rx="79.0865" ry="18"/>
<text text-anchor="middle" x="3420.64" y="-230.3" font-family="Times,serif" font-size="14.00">oa_exponent_to_ns</text>
</g>
<!-- write_u64_file -->
<g id="node40" class="node"><title>write_u64_file</title>
<ellipse fill="none" stroke="black" cx="3580.64" cy="-234" rx="62.2891" ry="18"/>
<text text-anchor="middle" x="3580.64" y="-230.3" font-family="Times,serif" font-size="14.00">write_u64_file</text>
</g>
<!-- read_i915_module_ref -->
<g id="node41" class="node"><title>read_i915_module_ref</title>
<ellipse fill="none" stroke="black" cx="3751.64" cy="-234" rx="90.9839" ry="18"/>
<text text-anchor="middle" x="3751.64" y="-230.3" font-family="Times,serif" font-size="14.00">read_i915_module_ref</text>
</g>
<!-- create_filtering_word -->
<g id="node42" class="node"><title>create_filtering_word</title>
<ellipse fill="none" stroke="black" cx="3947.64" cy="-234" rx="87.1846" ry="18"/>
<text text-anchor="middle" x="3947.64" y="-230.3" font-family="Times,serif" font-size="14.00">create_filtering_word</text>
</g>
<!-- enable_aggregating_counters -->
<g id="node43" class="node"><title>enable_aggregating_counters</title>
<ellipse fill="none" stroke="black" cx="4166.64" cy="-234" rx="113.98" ry="18"/>
<text text-anchor="middle" x="4166.64" y="-230.3" font-family="Times,serif" font-size="14.00">enable_aggregating_counters</text>
</g>
</g>
</svg>
