<?xml version="1.0" encoding="UTF-8" standalone="no"?>
<!DOCTYPE svg PUBLIC "-//W3C//DTD SVG 1.1//EN"
 "http://www.w3.org/Graphics/SVG/1.1/DTD/svg11.dtd">
<!-- Generated by graphviz version 2.38.0 (20140413.2041)
 -->
<!-- Title: callgraph Pages: 1 -->
<svg width="4340pt" height="260pt"
 viewBox="0.00 0.00 4339.73 260.00" xmlns="http://www.w3.org/2000/svg" xmlns:xlink="http://www.w3.org/1999/xlink">
<g id="graph0" class="graph" transform="scale(1 1) rotate(0) translate(4 256)">
<title>callgraph</title>
<polygon fill="white" stroke="none" points="-4,4 -4,-256 4335.73,-256 4335.73,4 -4,4"/>
<!-- init_sys_info -->
<g id="node1" class="node"><title>init_sys_info</title>
<ellipse fill="none" stroke="black" cx="2902.99" cy="-234" rx="56.59" ry="18"/>
<text text-anchor="middle" x="2902.99" y="-230.3" font-family="Times,serif" font-size="14.00">init_sys_info</text>
</g>
<!-- read_u64_file -->
<g id="node2" class="node"><title>read_u64_file</title>
<ellipse fill="none" stroke="black" cx="2842.99" cy="-162" rx="59.5901" ry="18"/>
<text text-anchor="middle" x="2842.99" y="-158.3" font-family="Times,serif" font-size="14.00">read_u64_file</text>
</g>
<!-- init_sys_info&#45;&gt;read_u64_file -->
<g id="edge1" class="edge"><title>init_sys_info&#45;&gt;read_u64_file</title>
<path fill="none" stroke="black" d="M2888.77,-216.411C2881.41,-207.82 2872.27,-197.159 2864.1,-187.627"/>
<polygon fill="black" stroke="black" points="2866.69,-185.271 2857.53,-179.956 2861.38,-189.827 2866.69,-185.271"/>
</g>
<!-- max_oa_exponent_for_period_lte -->
<g id="node3" class="node"><title>max_oa_exponent_for_period_lte</title>
<ellipse fill="none" stroke="black" cx="3064.99" cy="-162" rx="129.977" ry="18"/>
<text text-anchor="middle" x="3064.99" y="-158.3" font-family="Times,serif" font-size="14.00">max_oa_exponent_for_period_lte</text>
</g>
<!-- init_sys_info&#45;&gt;max_oa_exponent_for_period_lte -->
<g id="edge2" class="edge"><title>init_sys_info&#45;&gt;max_oa_exponent_for_period_lte</title>
<path fill="none" stroke="black" d="M2935.39,-219.003C2958.99,-208.804 2991.33,-194.831 3017.8,-183.393"/>
<polygon fill="black" stroke="black" points="3019.46,-186.485 3027.26,-179.306 3016.69,-180.06 3019.46,-186.485"/>
</g>
<!-- timebase_scale -->
<g id="node29" class="node"><title>timebase_scale</title>
<ellipse fill="none" stroke="black" cx="3064.99" cy="-90" rx="64.189" ry="18"/>
<text text-anchor="middle" x="3064.99" y="-86.3" font-family="Times,serif" font-size="14.00">timebase_scale</text>
</g>
<!-- max_oa_exponent_for_period_lte&#45;&gt;timebase_scale -->
<g id="edge29" class="edge"><title>max_oa_exponent_for_period_lte&#45;&gt;timebase_scale</title>
<path fill="none" stroke="black" d="M3064.99,-143.697C3064.99,-135.983 3064.99,-126.712 3064.99,-118.112"/>
<polygon fill="black" stroke="black" points="3068.49,-118.104 3064.99,-108.104 3061.49,-118.104 3068.49,-118.104"/>
</g>
<!-- write_to_flexible_eu_registers -->
<g id="node4" class="node"><title>write_to_flexible_eu_registers</title>
<ellipse fill="none" stroke="black" cx="1767.99" cy="-234" rx="118.079" ry="18"/>
<text text-anchor="middle" x="1767.99" y="-230.3" font-family="Times,serif" font-size="14.00">write_to_flexible_eu_registers</text>
</g>
<!-- __perf_open -->
<g id="node5" class="node"><title>__perf_open</title>
<ellipse fill="none" stroke="black" cx="1602.99" cy="-162" rx="55.4913" ry="18"/>
<text text-anchor="middle" x="1602.99" y="-158.3" font-family="Times,serif" font-size="14.00">__perf_open</text>
</g>
<!-- write_to_flexible_eu_registers&#45;&gt;__perf_open -->
<g id="edge3" class="edge"><title>write_to_flexible_eu_registers&#45;&gt;__perf_open</title>
<path fill="none" stroke="black" d="M1730.14,-216.941C1704.63,-206.12 1670.98,-191.843 1644.7,-180.695"/>
<polygon fill="black" stroke="black" points="1645.96,-177.426 1635.38,-176.742 1643.22,-183.87 1645.96,-177.426"/>
</g>
<!-- print_binary -->
<g id="node6" class="node"><title>print_binary</title>
<ellipse fill="none" stroke="black" cx="1767.99" cy="-162" rx="53.8905" ry="18"/>
<text text-anchor="middle" x="1767.99" y="-158.3" font-family="Times,serif" font-size="14.00">print_binary</text>
</g>
<!-- write_to_flexible_eu_registers&#45;&gt;print_binary -->
<g id="edge4" class="edge"><title>write_to_flexible_eu_registers&#45;&gt;print_binary</title>
<path fill="none" stroke="black" d="M1767.99,-215.697C1767.99,-207.983 1767.99,-198.712 1767.99,-190.112"/>
<polygon fill="black" stroke="black" points="1771.49,-190.104 1767.99,-180.104 1764.49,-190.104 1771.49,-190.104"/>
</g>
<!-- send_mi_store_reg_mem -->
<g id="node7" class="node"><title>send_mi_store_reg_mem</title>
<ellipse fill="none" stroke="black" cx="1940.99" cy="-162" rx="100.983" ry="18"/>
<text text-anchor="middle" x="1940.99" y="-158.3" font-family="Times,serif" font-size="14.00">send_mi_store_reg_mem</text>
</g>
<!-- write_to_flexible_eu_registers&#45;&gt;send_mi_store_reg_mem -->
<g id="edge5" class="edge"><title>write_to_flexible_eu_registers&#45;&gt;send_mi_store_reg_mem</title>
<path fill="none" stroke="black" d="M1807.68,-216.941C1832.91,-206.731 1865.75,-193.444 1892.52,-182.613"/>
<polygon fill="black" stroke="black" points="1894.13,-185.739 1902.08,-178.743 1891.5,-179.25 1894.13,-185.739"/>
</g>
<!-- __perf_close -->
<g id="node8" class="node"><title>__perf_close</title>
<ellipse fill="none" stroke="black" cx="1602.99" cy="-90" rx="55.7903" ry="18"/>
<text text-anchor="middle" x="1602.99" y="-86.3" font-family="Times,serif" font-size="14.00">__perf_close</text>
</g>
<!-- write_to_flexible_eu_registers&#45;&gt;__perf_close -->
<g id="edge6" class="edge"><title>write_to_flexible_eu_registers&#45;&gt;__perf_close</title>
<path fill="none" stroke="black" d="M1747.3,-216.115C1734.88,-205.85 1718.85,-192.376 1704.99,-180 1687.64,-164.505 1684.41,-159.428 1666.99,-144 1655.35,-133.684 1642.16,-122.656 1630.79,-113.345"/>
<polygon fill="black" stroke="black" points="1632.85,-110.506 1622.89,-106.904 1628.43,-115.933 1632.85,-110.506"/>
</g>
<!-- send_mi_load_reg_mem -->
<g id="node9" class="node"><title>send_mi_load_reg_mem</title>
<ellipse fill="none" stroke="black" cx="2404.99" cy="-162" rx="98.5829" ry="18"/>
<text text-anchor="middle" x="2404.99" y="-158.3" font-family="Times,serif" font-size="14.00">send_mi_load_reg_mem</text>
</g>
<!-- write_to_flexible_eu_registers&#45;&gt;send_mi_load_reg_mem -->
<g id="edge7" class="edge"><title>write_to_flexible_eu_registers&#45;&gt;send_mi_load_reg_mem</title>
<path fill="none" stroke="black" d="M1862.15,-223.074C1961,-212.596 2120.96,-195.485 2258.99,-180 2276.86,-177.996 2295.95,-175.807 2314.24,-173.687"/>
<polygon fill="black" stroke="black" points="2314.77,-177.149 2324.3,-172.518 2313.96,-170.195 2314.77,-177.149"/>
</g>
<!-- __perf_open&#45;&gt;__perf_close -->
<g id="edge25" class="edge"><title>__perf_open&#45;&gt;__perf_close</title>
<path fill="none" stroke="black" d="M1602.99,-143.697C1602.99,-135.983 1602.99,-126.712 1602.99,-118.112"/>
<polygon fill="black" stroke="black" points="1606.49,-118.104 1602.99,-108.104 1599.49,-118.104 1606.49,-118.104"/>
</g>
<!-- intel_batchbuffer_require_space -->
<g id="node11" class="node"><title>intel_batchbuffer_require_space</title>
<ellipse fill="none" stroke="black" cx="2409.99" cy="-90" rx="124.278" ry="18"/>
<text text-anchor="middle" x="2409.99" y="-86.3" font-family="Times,serif" font-size="14.00">intel_batchbuffer_require_space</text>
</g>
<!-- send_mi_store_reg_mem&#45;&gt;intel_batchbuffer_require_space -->
<g id="edge39" class="edge"><title>send_mi_store_reg_mem&#45;&gt;intel_batchbuffer_require_space</title>
<path fill="none" stroke="black" d="M2014.35,-149.592C2026.59,-147.71 2039.15,-145.79 2050.99,-144 2140.83,-130.426 2243.38,-115.326 2315.81,-104.727"/>
<polygon fill="black" stroke="black" points="2316.44,-108.172 2325.83,-103.262 2315.42,-101.246 2316.44,-108.172"/>
</g>
<!-- intel_batchbuffer_emit_dword -->
<g id="node12" class="node"><title>intel_batchbuffer_emit_dword</title>
<ellipse fill="none" stroke="black" cx="2149.99" cy="-90" rx="118.079" ry="18"/>
<text text-anchor="middle" x="2149.99" y="-86.3" font-family="Times,serif" font-size="14.00">intel_batchbuffer_emit_dword</text>
</g>
<!-- send_mi_store_reg_mem&#45;&gt;intel_batchbuffer_emit_dword -->
<g id="edge40" class="edge"><title>send_mi_store_reg_mem&#45;&gt;intel_batchbuffer_emit_dword</title>
<path fill="none" stroke="black" d="M1986.08,-145.897C2017.65,-135.325 2060.04,-121.127 2093.81,-109.818"/>
<polygon fill="black" stroke="black" points="2095.16,-113.055 2103.53,-106.56 2092.94,-106.417 2095.16,-113.055"/>
</g>
<!-- send_mi_load_reg_mem&#45;&gt;intel_batchbuffer_require_space -->
<g id="edge33" class="edge"><title>send_mi_load_reg_mem&#45;&gt;intel_batchbuffer_require_space</title>
<path fill="none" stroke="black" d="M2406.23,-143.697C2406.78,-135.983 2407.44,-126.712 2408.06,-118.112"/>
<polygon fill="black" stroke="black" points="2411.55,-118.328 2408.77,-108.104 2404.57,-117.83 2411.55,-118.328"/>
</g>
<!-- send_mi_load_reg_mem&#45;&gt;intel_batchbuffer_emit_dword -->
<g id="edge32" class="edge"><title>send_mi_load_reg_mem&#45;&gt;intel_batchbuffer_emit_dword</title>
<path fill="none" stroke="black" d="M2352.77,-146.666C2312.76,-135.681 2257.34,-120.467 2214.54,-108.719"/>
<polygon fill="black" stroke="black" points="2215.35,-105.313 2204.78,-106.041 2213.5,-112.063 2215.35,-105.313"/>
</g>
<!-- emit_report_perf_count -->
<g id="node10" class="node"><title>emit_report_perf_count</title>
<ellipse fill="none" stroke="black" cx="2154.99" cy="-162" rx="94.7833" ry="18"/>
<text text-anchor="middle" x="2154.99" y="-158.3" font-family="Times,serif" font-size="14.00">emit_report_perf_count</text>
</g>
<!-- emit_report_perf_count&#45;&gt;intel_batchbuffer_require_space -->
<g id="edge8" class="edge"><title>emit_report_perf_count&#45;&gt;intel_batchbuffer_require_space</title>
<path fill="none" stroke="black" d="M2206.59,-146.834C2246.42,-135.901 2301.79,-120.703 2344.7,-108.923"/>
<polygon fill="black" stroke="black" points="2345.77,-112.259 2354.49,-106.236 2343.92,-105.508 2345.77,-112.259"/>
</g>
<!-- emit_report_perf_count&#45;&gt;intel_batchbuffer_emit_dword -->
<g id="edge9" class="edge"><title>emit_report_perf_count&#45;&gt;intel_batchbuffer_emit_dword</title>
<path fill="none" stroke="black" d="M2153.76,-143.697C2153.2,-135.983 2152.54,-126.712 2151.93,-118.112"/>
<polygon fill="black" stroke="black" points="2155.42,-117.83 2151.21,-108.104 2148.44,-118.328 2155.42,-117.83"/>
</g>
<!-- intel_batchbuffer_space -->
<g id="node24" class="node"><title>intel_batchbuffer_space</title>
<ellipse fill="none" stroke="black" cx="2279.99" cy="-18" rx="94.7833" ry="18"/>
<text text-anchor="middle" x="2279.99" y="-14.3" font-family="Times,serif" font-size="14.00">intel_batchbuffer_space</text>
</g>
<!-- intel_batchbuffer_require_space&#45;&gt;intel_batchbuffer_space -->
<g id="edge24" class="edge"><title>intel_batchbuffer_require_space&#45;&gt;intel_batchbuffer_space</title>
<path fill="none" stroke="black" d="M2379.18,-72.411C2361.16,-62.7082 2338.24,-50.3664 2318.98,-39.9915"/>
<polygon fill="black" stroke="black" points="2320.59,-36.8879 2310.13,-35.2285 2317.28,-43.0512 2320.59,-36.8879"/>
</g>
<!-- intel_batchbuffer_emit_dword&#45;&gt;intel_batchbuffer_space -->
<g id="edge37" class="edge"><title>intel_batchbuffer_emit_dword&#45;&gt;intel_batchbuffer_space</title>
<path fill="none" stroke="black" d="M2180.47,-72.5881C2198.48,-62.89 2221.47,-50.5096 2240.82,-40.0923"/>
<polygon fill="black" stroke="black" points="2242.56,-43.1318 2249.7,-35.3091 2239.24,-36.9685 2242.56,-43.1318"/>
</g>
<!-- print_reports -->
<g id="node13" class="node"><title>print_reports</title>
<ellipse fill="none" stroke="black" cx="687.992" cy="-162" rx="55.7903" ry="18"/>
<text text-anchor="middle" x="687.992" y="-158.3" font-family="Times,serif" font-size="14.00">print_reports</text>
</g>
<!-- gen8_read_40bit_a_counter -->
<g id="node14" class="node"><title>gen8_read_40bit_a_counter</title>
<ellipse fill="none" stroke="black" cx="564.992" cy="-90" rx="108.581" ry="18"/>
<text text-anchor="middle" x="564.992" y="-86.3" font-family="Times,serif" font-size="14.00">gen8_read_40bit_a_counter</text>
</g>
<!-- print_reports&#45;&gt;gen8_read_40bit_a_counter -->
<g id="edge10" class="edge"><title>print_reports&#45;&gt;gen8_read_40bit_a_counter</title>
<path fill="none" stroke="black" d="M661.605,-145.983C644.421,-136.203 621.736,-123.293 602.666,-112.44"/>
<polygon fill="black" stroke="black" points="604.336,-109.364 593.914,-107.46 600.874,-115.448 604.336,-109.364"/>
</g>
<!-- gen8_40bit_a_delta -->
<g id="node15" class="node"><title>gen8_40bit_a_delta</title>
<ellipse fill="none" stroke="black" cx="1029.99" cy="-90" rx="79.8859" ry="18"/>
<text text-anchor="middle" x="1029.99" y="-86.3" font-family="Times,serif" font-size="14.00">gen8_40bit_a_delta</text>
</g>
<!-- print_reports&#45;&gt;gen8_40bit_a_delta -->
<g id="edge11" class="edge"><title>print_reports&#45;&gt;gen8_40bit_a_delta</title>
<path fill="none" stroke="black" d="M733.761,-151.632C792.538,-139.602 895.011,-118.628 962.681,-104.777"/>
<polygon fill="black" stroke="black" points="963.721,-108.137 972.816,-102.703 962.317,-101.279 963.721,-108.137"/>
</g>
<!-- gen8_read_report_reason -->
<g id="node16" class="node"><title>gen8_read_report_reason</title>
<ellipse fill="none" stroke="black" cx="299.992" cy="-90" rx="100.182" ry="18"/>
<text text-anchor="middle" x="299.992" y="-86.3" font-family="Times,serif" font-size="14.00">gen8_read_report_reason</text>
</g>
<!-- print_reports&#45;&gt;gen8_read_report_reason -->
<g id="edge12" class="edge"><title>print_reports&#45;&gt;gen8_read_report_reason</title>
<path fill="none" stroke="black" d="M640.416,-152.417C574.921,-140.601 456.195,-119.181 377.71,-105.021"/>
<polygon fill="black" stroke="black" points="378.33,-101.577 367.868,-103.246 377.087,-108.466 378.33,-101.577"/>
</g>
<!-- get_oa_format -->
<g id="node17" class="node"><title>get_oa_format</title>
<ellipse fill="none" stroke="black" cx="427.992" cy="-18" rx="62.2891" ry="18"/>
<text text-anchor="middle" x="427.992" y="-14.3" font-family="Times,serif" font-size="14.00">get_oa_format</text>
</g>
<!-- print_reports&#45;&gt;get_oa_format -->
<g id="edge13" class="edge"><title>print_reports&#45;&gt;get_oa_format</title>
<path fill="none" stroke="black" d="M635.018,-156.005C572.247,-148.987 472.888,-134.056 446.992,-108 431.11,-92.0206 427.026,-66.2296 426.524,-46.515"/>
<polygon fill="black" stroke="black" points="430.025,-46.3013 426.562,-36.2885 423.025,-46.2756 430.025,-46.3013"/>
</g>
<!-- gen8_read_report_clock_ratios -->
<g id="node18" class="node"><title>gen8_read_report_clock_ratios</title>
<ellipse fill="none" stroke="black" cx="811.992" cy="-90" rx="120.479" ry="18"/>
<text text-anchor="middle" x="811.992" y="-86.3" font-family="Times,serif" font-size="14.00">gen8_read_report_clock_ratios</text>
</g>
<!-- print_reports&#45;&gt;gen8_read_report_clock_ratios -->
<g id="edge14" class="edge"><title>print_reports&#45;&gt;gen8_read_report_clock_ratios</title>
<path fill="none" stroke="black" d="M714.593,-145.983C731.794,-136.273 754.463,-123.476 773.602,-112.672"/>
<polygon fill="black" stroke="black" points="775.407,-115.672 782.394,-107.708 771.965,-109.576 775.407,-115.672"/>
</g>
<!-- gen8_read_40bit_a_counter&#45;&gt;get_oa_format -->
<g id="edge30" class="edge"><title>gen8_read_40bit_a_counter&#45;&gt;get_oa_format</title>
<path fill="none" stroke="black" d="M533.217,-72.7646C513.249,-62.5619 487.369,-49.3388 466.273,-38.5595"/>
<polygon fill="black" stroke="black" points="467.753,-35.3856 457.256,-33.9523 464.568,-41.6191 467.753,-35.3856"/>
</g>
<!-- test_counters_with_opencl -->
<g id="node19" class="node"><title>test_counters_with_opencl</title>
<ellipse fill="none" stroke="black" cx="1434.99" cy="-234" rx="104.782" ry="18"/>
<text text-anchor="middle" x="1434.99" y="-230.3" font-family="Times,serif" font-size="14.00">test_counters_with_opencl</text>
</g>
<!-- test_counters_with_opencl&#45;&gt;read_u64_file -->
<g id="edge23" class="edge"><title>test_counters_with_opencl&#45;&gt;read_u64_file</title>
<path fill="none" stroke="black" d="M1524.41,-224.63C1560.58,-221.502 1602.75,-218.184 1640.99,-216 2144.43,-187.255 2275.56,-249.545 2774.99,-180 2780.34,-179.255 2785.88,-178.258 2791.38,-177.118"/>
<polygon fill="black" stroke="black" points="2792.19,-180.523 2801.19,-174.936 2790.67,-173.69 2792.19,-180.523"/>
</g>
<!-- test_counters_with_opencl&#45;&gt;__perf_open -->
<g id="edge17" class="edge"><title>test_counters_with_opencl&#45;&gt;__perf_open</title>
<path fill="none" stroke="black" d="M1473.11,-217.116C1499.24,-206.23 1533.91,-191.786 1560.85,-180.559"/>
<polygon fill="black" stroke="black" points="1562.51,-183.657 1570.4,-176.58 1559.82,-177.196 1562.51,-183.657"/>
</g>
<!-- test_counters_with_opencl&#45;&gt;__perf_close -->
<g id="edge19" class="edge"><title>test_counters_with_opencl&#45;&gt;__perf_close</title>
<path fill="none" stroke="black" d="M1456.76,-216.25C1469.8,-206.032 1486.6,-192.561 1500.99,-180 1518.52,-164.704 1521.58,-159.428 1538.99,-144 1550.64,-133.684 1563.82,-122.656 1575.19,-113.345"/>
<polygon fill="black" stroke="black" points="1577.56,-115.933 1583.1,-106.904 1573.14,-110.506 1577.56,-115.933"/>
</g>
<!-- test_counters_with_opencl&#45;&gt;emit_report_perf_count -->
<g id="edge20" class="edge"><title>test_counters_with_opencl&#45;&gt;emit_report_perf_count</title>
<path fill="none" stroke="black" d="M1526.77,-225.289C1692.14,-211.368 2025.44,-183.182 2050.99,-180 2059.63,-178.924 2068.65,-177.66 2077.62,-176.316"/>
<polygon fill="black" stroke="black" points="2078.33,-179.747 2087.69,-174.77 2077.27,-172.828 2078.33,-179.747"/>
</g>
<!-- test_counters_with_opencl&#45;&gt;print_reports -->
<g id="edge22" class="edge"><title>test_counters_with_opencl&#45;&gt;print_reports</title>
<path fill="none" stroke="black" d="M1345.63,-224.626C1192.58,-210.284 883.981,-181.366 751.151,-168.919"/>
<polygon fill="black" stroke="black" points="751.417,-165.428 741.134,-167.98 750.763,-172.398 751.417,-165.428"/>
</g>
<!-- scratch_buf_init -->
<g id="node20" class="node"><title>scratch_buf_init</title>
<ellipse fill="none" stroke="black" cx="1115.99" cy="-162" rx="67.6881" ry="18"/>
<text text-anchor="middle" x="1115.99" y="-158.3" font-family="Times,serif" font-size="14.00">scratch_buf_init</text>
</g>
<!-- test_counters_with_opencl&#45;&gt;scratch_buf_init -->
<g id="edge15" class="edge"><title>test_counters_with_opencl&#45;&gt;scratch_buf_init</title>
<path fill="none" stroke="black" d="M1373.11,-219.42C1316.28,-206.949 1232.58,-188.583 1176.26,-176.225"/>
<polygon fill="black" stroke="black" points="1176.94,-172.792 1166.43,-174.067 1175.44,-179.629 1176.94,-172.792"/>
</g>
<!-- read_tsc_start -->
<g id="node21" class="node"><title>read_tsc_start</title>
<ellipse fill="none" stroke="black" cx="1299.99" cy="-162" rx="59.5901" ry="18"/>
<text text-anchor="middle" x="1299.99" y="-158.3" font-family="Times,serif" font-size="14.00">read_tsc_start</text>
</g>
<!-- test_counters_with_opencl&#45;&gt;read_tsc_start -->
<g id="edge16" class="edge"><title>test_counters_with_opencl&#45;&gt;read_tsc_start</title>
<path fill="none" stroke="black" d="M1403.68,-216.765C1384,-206.562 1358.5,-193.339 1337.71,-182.56"/>
<polygon fill="black" stroke="black" points="1339.32,-179.448 1328.83,-177.952 1336.1,-185.663 1339.32,-179.448"/>
</g>
<!-- read_tsc_end -->
<g id="node22" class="node"><title>read_tsc_end</title>
<ellipse fill="none" stroke="black" cx="1434.99" cy="-162" rx="57.3905" ry="18"/>
<text text-anchor="middle" x="1434.99" y="-158.3" font-family="Times,serif" font-size="14.00">read_tsc_end</text>
</g>
<!-- test_counters_with_opencl&#45;&gt;read_tsc_end -->
<g id="edge18" class="edge"><title>test_counters_with_opencl&#45;&gt;read_tsc_end</title>
<path fill="none" stroke="black" d="M1434.99,-215.697C1434.99,-207.983 1434.99,-198.712 1434.99,-190.112"/>
<polygon fill="black" stroke="black" points="1438.49,-190.104 1434.99,-180.104 1431.49,-190.104 1438.49,-190.104"/>
</g>
<!-- scratch_buf_memset -->
<g id="node23" class="node"><title>scratch_buf_memset</title>
<ellipse fill="none" stroke="black" cx="1211.99" cy="-90" rx="84.485" ry="18"/>
<text text-anchor="middle" x="1211.99" y="-86.3" font-family="Times,serif" font-size="14.00">scratch_buf_memset</text>
</g>
<!-- test_counters_with_opencl&#45;&gt;scratch_buf_memset -->
<g id="edge21" class="edge"><title>test_counters_with_opencl&#45;&gt;scratch_buf_memset</title>
<path fill="none" stroke="black" d="M1358.47,-221.662C1308.27,-212.672 1248.73,-198.538 1230.99,-180 1215.41,-163.724 1211.3,-137.967 1210.7,-118.34"/>
<polygon fill="black" stroke="black" points="1214.2,-118.161 1210.69,-108.167 1207.2,-118.172 1214.2,-118.161"/>
</g>
<!-- scratch_buf_init&#45;&gt;scratch_buf_memset -->
<g id="edge41" class="edge"><title>scratch_buf_init&#45;&gt;scratch_buf_memset</title>
<path fill="none" stroke="black" d="M1138.26,-144.765C1151.01,-135.467 1167.2,-123.66 1181.16,-113.481"/>
<polygon fill="black" stroke="black" points="1183.5,-116.11 1189.51,-107.39 1179.37,-110.454 1183.5,-116.11"/>
</g>
<!-- i915_perf_add_config -->
<g id="node25" class="node"><title>i915_perf_add_config</title>
<ellipse fill="none" stroke="black" cx="3324.99" cy="-234" rx="89.0842" ry="18"/>
<text text-anchor="middle" x="3324.99" y="-230.3" font-family="Times,serif" font-size="14.00">i915_perf_add_config</text>
</g>
<!-- __i915_perf_add_config -->
<g id="node26" class="node"><title>__i915_perf_add_config</title>
<ellipse fill="none" stroke="black" cx="3324.99" cy="-162" rx="97.4827" ry="18"/>
<text text-anchor="middle" x="3324.99" y="-158.3" font-family="Times,serif" font-size="14.00">__i915_perf_add_config</text>
</g>
<!-- i915_perf_add_config&#45;&gt;__i915_perf_add_config -->
<g id="edge26" class="edge"><title>i915_perf_add_config&#45;&gt;__i915_perf_add_config</title>
<path fill="none" stroke="black" d="M3324.99,-215.697C3324.99,-207.983 3324.99,-198.712 3324.99,-190.112"/>
<polygon fill="black" stroke="black" points="3328.49,-190.104 3324.99,-180.104 3321.49,-190.104 3328.49,-190.104"/>
</g>
<!-- test_whitelisted_registers_userspace_config -->
<g id="node27" class="node"><title>test_whitelisted_registers_userspace_config</title>
<ellipse fill="none" stroke="black" cx="2662.99" cy="-234" rx="165.171" ry="18"/>
<text text-anchor="middle" x="2662.99" y="-230.3" font-family="Times,serif" font-size="14.00">test_whitelisted_registers_userspace_config</text>
</g>
<!-- test_whitelisted_registers_userspace_config&#45;&gt;read_u64_file -->
<g id="edge28" class="edge"><title>test_whitelisted_registers_userspace_config&#45;&gt;read_u64_file</title>
<path fill="none" stroke="black" d="M2705.19,-216.588C2733.29,-205.66 2770.15,-191.326 2798.68,-180.233"/>
<polygon fill="black" stroke="black" points="2799.96,-183.491 2808.01,-176.605 2797.42,-176.967 2799.96,-183.491"/>
</g>
<!-- i915_perf_remove_config -->
<g id="node28" class="node"><title>i915_perf_remove_config</title>
<ellipse fill="none" stroke="black" cx="2662.99" cy="-162" rx="102.882" ry="18"/>
<text text-anchor="middle" x="2662.99" y="-158.3" font-family="Times,serif" font-size="14.00">i915_perf_remove_config</text>
</g>
<!-- test_whitelisted_registers_userspace_config&#45;&gt;i915_perf_remove_config -->
<g id="edge27" class="edge"><title>test_whitelisted_registers_userspace_config&#45;&gt;i915_perf_remove_config</title>
<path fill="none" stroke="black" d="M2662.99,-215.697C2662.99,-207.983 2662.99,-198.712 2662.99,-190.112"/>
<polygon fill="black" stroke="black" points="2666.49,-190.104 2662.99,-180.104 2659.49,-190.104 2666.49,-190.104"/>
</g>
<!-- hsw_read_report_ticks -->
<g id="node30" class="node"><title>hsw_read_report_ticks</title>
<ellipse fill="none" stroke="black" cx="90.9919" cy="-90" rx="90.9839" ry="18"/>
<text text-anchor="middle" x="90.9919" y="-86.3" font-family="Times,serif" font-size="14.00">hsw_read_report_ticks</text>
</g>
<!-- hsw_read_report_ticks&#45;&gt;get_oa_format -->
<g id="edge31" class="edge"><title>hsw_read_report_ticks&#45;&gt;get_oa_format</title>
<path fill="none" stroke="black" d="M151.241,-76.4854C212.844,-63.6896 307.922,-43.9403 369.047,-31.2437"/>
<polygon fill="black" stroke="black" points="369.85,-34.6519 378.929,-29.1912 368.426,-27.7981 369.85,-34.6519"/>
</g>
<!-- emit_stall_timestamp_and_rpc -->
<g id="node31" class="node"><title>emit_stall_timestamp_and_rpc</title>
<ellipse fill="none" stroke="black" cx="2277.99" cy="-234" rx="120.479" ry="18"/>
<text text-anchor="middle" x="2277.99" y="-230.3" font-family="Times,serif" font-size="14.00">emit_stall_timestamp_and_rpc</text>
</g>
<!-- emit_stall_timestamp_and_rpc&#45;&gt;emit_report_perf_count -->
<g id="edge34" class="edge"><title>emit_stall_timestamp_and_rpc&#45;&gt;emit_report_perf_count</title>
<path fill="none" stroke="black" d="M2248.84,-216.411C2232.02,-206.84 2210.7,-194.701 2192.62,-184.415"/>
<polygon fill="black" stroke="black" points="2193.93,-181.133 2183.51,-179.228 2190.47,-187.217 2193.93,-181.133"/>
</g>
<!-- emit_stall_timestamp_and_rpc&#45;&gt;intel_batchbuffer_require_space -->
<g id="edge35" class="edge"><title>emit_stall_timestamp_and_rpc&#45;&gt;intel_batchbuffer_require_space</title>
<path fill="none" stroke="black" d="M2375,-223.318C2431.69,-215.431 2495.46,-201.926 2512.99,-180 2522.98,-167.504 2521.32,-157.659 2512.99,-144 2503.97,-129.218 2489.37,-118.384 2473.96,-110.515"/>
<polygon fill="black" stroke="black" points="2475.37,-107.309 2464.83,-106.216 2472.39,-113.642 2475.37,-107.309"/>
</g>
<!-- emit_stall_timestamp_and_rpc&#45;&gt;intel_batchbuffer_emit_dword -->
<g id="edge36" class="edge"><title>emit_stall_timestamp_and_rpc&#45;&gt;intel_batchbuffer_emit_dword</title>
<path fill="none" stroke="black" d="M2278.6,-215.741C2278.39,-196.319 2275.26,-164.775 2258.99,-144 2247.34,-129.112 2230.43,-118.146 2213.4,-110.182"/>
<polygon fill="black" stroke="black" points="2214.52,-106.854 2203.96,-106.061 2211.72,-113.269 2214.52,-106.854"/>
</g>
<!-- max_oa_exponent_for_freq_gt -->
<g id="node32" class="node"><title>max_oa_exponent_for_freq_gt</title>
<ellipse fill="none" stroke="black" cx="3097.99" cy="-234" rx="120.479" ry="18"/>
<text text-anchor="middle" x="3097.99" y="-230.3" font-family="Times,serif" font-size="14.00">max_oa_exponent_for_freq_gt</text>
</g>
<!-- max_oa_exponent_for_freq_gt&#45;&gt;max_oa_exponent_for_period_lte -->
<g id="edge38" class="edge"><title>max_oa_exponent_for_freq_gt&#45;&gt;max_oa_exponent_for_period_lte</title>
<path fill="none" stroke="black" d="M3089.83,-215.697C3086.08,-207.728 3081.54,-198.1 3077.37,-189.264"/>
<polygon fill="black" stroke="black" points="3080.49,-187.657 3073.06,-180.104 3074.15,-190.642 3080.49,-187.657"/>
</g>
<!-- read_i915_module_ref -->
<g id="node33" class="node"><title>read_i915_module_ref</title>
<ellipse fill="none" stroke="black" cx="3522.99" cy="-234" rx="90.9839" ry="18"/>
<text text-anchor="middle" x="3522.99" y="-230.3" font-family="Times,serif" font-size="14.00">read_i915_module_ref</text>
</g>
<!-- write_u64_file -->
<g id="node34" class="node"><title>write_u64_file</title>
<ellipse fill="none" stroke="black" cx="3693.99" cy="-234" rx="62.2891" ry="18"/>
<text text-anchor="middle" x="3693.99" y="-230.3" font-family="Times,serif" font-size="14.00">write_u64_file</text>
</g>
<!-- oa_exponent_to_ns -->
<g id="node35" class="node"><title>oa_exponent_to_ns</title>
<ellipse fill="none" stroke="black" cx="3853.99" cy="-234" rx="79.0865" ry="18"/>
<text text-anchor="middle" x="3853.99" y="-230.3" font-family="Times,serif" font-size="14.00">oa_exponent_to_ns</text>
</g>
<!-- gen8_read_report_ticks -->
<g id="node36" class="node"><title>gen8_read_report_ticks</title>
<ellipse fill="none" stroke="black" cx="4044.99" cy="-234" rx="93.6835" ry="18"/>
<text text-anchor="middle" x="4044.99" y="-230.3" font-family="Times,serif" font-size="14.00">gen8_read_report_ticks</text>
</g>
<!-- oa_report_is_periodic -->
<g id="node37" class="node"><title>oa_report_is_periodic</title>
<ellipse fill="none" stroke="black" cx="4243.99" cy="-234" rx="87.9851" ry="18"/>
<text text-anchor="middle" x="4243.99" y="-230.3" font-family="Times,serif" font-size="14.00">oa_report_is_periodic</text>
</g>
</g>
</svg>
