<?xml version="1.0" encoding="UTF-8" standalone="no"?>
<!DOCTYPE svg PUBLIC "-//W3C//DTD SVG 1.1//EN"
 "http://www.w3.org/Graphics/SVG/1.1/DTD/svg11.dtd">
<!-- Generated by graphviz version 2.38.0 (20140413.2041)
 -->
<!-- Title: callgraph Pages: 1 -->
<svg width="2919pt" height="404pt"
 viewBox="0.00 0.00 2918.94 404.00" xmlns="http://www.w3.org/2000/svg" xmlns:xlink="http://www.w3.org/1999/xlink">
<g id="graph0" class="graph" transform="scale(1 1) rotate(0) translate(4 400)">
<title>callgraph</title>
<polygon fill="white" stroke="none" points="-4,4 -4,-400 2914.94,-400 2914.94,4 -4,4"/>
<!-- print_reports -->
<g id="node1" class="node"><title>print_reports</title>
<ellipse fill="none" stroke="black" cx="921.344" cy="-234" rx="55.7903" ry="18"/>
<text text-anchor="middle" x="921.344" y="-230.3" font-family="Times,serif" font-size="14.00">print_reports</text>
</g>
<!-- gen8_read_report_reason -->
<g id="node2" class="node"><title>gen8_read_report_reason</title>
<ellipse fill="none" stroke="black" cx="1156.34" cy="-162" rx="100.182" ry="18"/>
<text text-anchor="middle" x="1156.34" y="-158.3" font-family="Times,serif" font-size="14.00">gen8_read_report_reason</text>
</g>
<!-- print_reports&#45;&gt;gen8_read_report_reason -->
<g id="edge1" class="edge"><title>print_reports&#45;&gt;gen8_read_report_reason</title>
<path fill="none" stroke="black" d="M960.943,-221.205C998.199,-210.107 1054.47,-193.345 1097.08,-180.655"/>
<polygon fill="black" stroke="black" points="1098.18,-183.977 1106.77,-177.768 1096.18,-177.268 1098.18,-183.977"/>
</g>
<!-- gen8_read_report_clock_ratios -->
<g id="node3" class="node"><title>gen8_read_report_clock_ratios</title>
<ellipse fill="none" stroke="black" cx="267.344" cy="-162" rx="120.479" ry="18"/>
<text text-anchor="middle" x="267.344" y="-158.3" font-family="Times,serif" font-size="14.00">gen8_read_report_clock_ratios</text>
</g>
<!-- print_reports&#45;&gt;gen8_read_report_clock_ratios -->
<g id="edge2" class="edge"><title>print_reports&#45;&gt;gen8_read_report_clock_ratios</title>
<path fill="none" stroke="black" d="M880.108,-221.838C870.711,-219.615 860.729,-217.505 851.344,-216 653.237,-184.225 600.92,-200.631 401.344,-180 389.197,-178.744 376.446,-177.296 363.84,-175.785"/>
<polygon fill="black" stroke="black" points="364.125,-172.294 353.776,-174.563 363.281,-179.243 364.125,-172.294"/>
</g>
<!-- get_oa_format -->
<g id="node4" class="node"><title>get_oa_format</title>
<ellipse fill="none" stroke="black" cx="552.344" cy="-90" rx="62.2891" ry="18"/>
<text text-anchor="middle" x="552.344" y="-86.3" font-family="Times,serif" font-size="14.00">get_oa_format</text>
</g>
<!-- print_reports&#45;&gt;get_oa_format -->
<g id="edge3" class="edge"><title>print_reports&#45;&gt;get_oa_format</title>
<path fill="none" stroke="black" d="M879.73,-221.794C870.442,-219.601 860.601,-217.515 851.344,-216 805.449,-208.491 465.783,-214.27 434.344,-180 423.528,-168.21 425.652,-157.433 434.344,-144 447.31,-123.963 469.846,-111.428 491.772,-103.62"/>
<polygon fill="black" stroke="black" points="493.02,-106.894 501.433,-100.455 490.841,-100.242 493.02,-106.894"/>
</g>
<!-- gen8_40bit_a_delta -->
<g id="node5" class="node"><title>gen8_40bit_a_delta</title>
<ellipse fill="none" stroke="black" cx="758.344" cy="-162" rx="79.8859" ry="18"/>
<text text-anchor="middle" x="758.344" y="-158.3" font-family="Times,serif" font-size="14.00">gen8_40bit_a_delta</text>
</g>
<!-- print_reports&#45;&gt;gen8_40bit_a_delta -->
<g id="edge4" class="edge"><title>print_reports&#45;&gt;gen8_40bit_a_delta</title>
<path fill="none" stroke="black" d="M889.141,-219.17C864.574,-208.62 830.436,-193.96 803.197,-182.262"/>
<polygon fill="black" stroke="black" points="804.446,-178.989 793.876,-178.259 801.684,-185.421 804.446,-178.989"/>
</g>
<!-- gen8_read_40bit_a_counter -->
<g id="node6" class="node"><title>gen8_read_40bit_a_counter</title>
<ellipse fill="none" stroke="black" cx="552.344" cy="-162" rx="108.581" ry="18"/>
<text text-anchor="middle" x="552.344" y="-158.3" font-family="Times,serif" font-size="14.00">gen8_read_40bit_a_counter</text>
</g>
<!-- print_reports&#45;&gt;gen8_read_40bit_a_counter -->
<g id="edge5" class="edge"><title>print_reports&#45;&gt;gen8_read_40bit_a_counter</title>
<path fill="none" stroke="black" d="M878.871,-222.233C869.81,-220.063 860.279,-217.875 851.344,-216 779.647,-200.955 697.687,-186.627 637.73,-176.67"/>
<polygon fill="black" stroke="black" points="637.989,-173.166 627.552,-174.987 636.847,-180.072 637.989,-173.166"/>
</g>
<!-- gen8_read_40bit_a_counter&#45;&gt;get_oa_format -->
<g id="edge44" class="edge"><title>gen8_read_40bit_a_counter&#45;&gt;get_oa_format</title>
<path fill="none" stroke="black" d="M552.344,-143.697C552.344,-135.983 552.344,-126.712 552.344,-118.112"/>
<polygon fill="black" stroke="black" points="555.844,-118.104 552.344,-108.104 548.844,-118.104 555.844,-118.104"/>
</g>
<!-- __perf_open -->
<g id="node7" class="node"><title>__perf_open</title>
<ellipse fill="none" stroke="black" cx="1670.34" cy="-234" rx="55.4913" ry="18"/>
<text text-anchor="middle" x="1670.34" y="-230.3" font-family="Times,serif" font-size="14.00">__perf_open</text>
</g>
<!-- __perf_close -->
<g id="node8" class="node"><title>__perf_close</title>
<ellipse fill="none" stroke="black" cx="1800.34" cy="-162" rx="55.7903" ry="18"/>
<text text-anchor="middle" x="1800.34" y="-158.3" font-family="Times,serif" font-size="14.00">__perf_close</text>
</g>
<!-- __perf_open&#45;&gt;__perf_close -->
<g id="edge6" class="edge"><title>__perf_open&#45;&gt;__perf_close</title>
<path fill="none" stroke="black" d="M1697.6,-218.326C1716.79,-207.989 1742.71,-194.032 1763.72,-182.723"/>
<polygon fill="black" stroke="black" points="1765.53,-185.719 1772.68,-177.896 1762.22,-179.555 1765.53,-185.719"/>
</g>
<!-- main -->
<g id="node9" class="node"><title>main</title>
<ellipse fill="none" stroke="black" cx="1183.34" cy="-378" rx="28.6953" ry="18"/>
<text text-anchor="middle" x="1183.34" y="-374.3" font-family="Times,serif" font-size="14.00">main</text>
</g>
<!-- hsw_test_single_ctx_counters -->
<g id="node10" class="node"><title>hsw_test_single_ctx_counters</title>
<ellipse fill="none" stroke="black" cx="1282.34" cy="-306" rx="116.18" ry="18"/>
<text text-anchor="middle" x="1282.34" y="-302.3" font-family="Times,serif" font-size="14.00">hsw_test_single_ctx_counters</text>
</g>
<!-- main&#45;&gt;hsw_test_single_ctx_counters -->
<g id="edge7" class="edge"><title>main&#45;&gt;hsw_test_single_ctx_counters</title>
<path fill="none" stroke="black" d="M1201.97,-363.834C1215.48,-354.277 1234.11,-341.103 1250.03,-329.846"/>
<polygon fill="black" stroke="black" points="1252.41,-332.455 1258.55,-323.824 1248.36,-326.739 1252.41,-332.455"/>
</g>
<!-- init_sys_info -->
<g id="node11" class="node"><title>init_sys_info</title>
<ellipse fill="none" stroke="black" cx="509.344" cy="-306" rx="56.59" ry="18"/>
<text text-anchor="middle" x="509.344" y="-302.3" font-family="Times,serif" font-size="14.00">init_sys_info</text>
</g>
<!-- main&#45;&gt;init_sys_info -->
<g id="edge8" class="edge"><title>main&#45;&gt;init_sys_info</title>
<path fill="none" stroke="black" d="M1154.64,-376.18C1067.13,-373.32 796.229,-361.808 575.344,-324 570.298,-323.136 565.073,-322.079 559.873,-320.918"/>
<polygon fill="black" stroke="black" points="560.493,-317.469 549.957,-318.582 558.888,-324.282 560.493,-317.469"/>
</g>
<!-- clCheckError -->
<g id="node12" class="node"><title>clCheckError</title>
<ellipse fill="none" stroke="black" cx="1873.34" cy="-306" rx="57.6901" ry="18"/>
<text text-anchor="middle" x="1873.34" y="-302.3" font-family="Times,serif" font-size="14.00">clCheckError</text>
</g>
<!-- main&#45;&gt;clCheckError -->
<g id="edge9" class="edge"><title>main&#45;&gt;clCheckError</title>
<path fill="none" stroke="black" d="M1211.68,-374.125C1313.65,-363.781 1663.55,-328.283 1809.07,-313.521"/>
<polygon fill="black" stroke="black" points="1809.59,-316.986 1819.19,-312.494 1808.88,-310.022 1809.59,-316.986"/>
</g>
<!-- write_u64_file -->
<g id="node13" class="node"><title>write_u64_file</title>
<ellipse fill="none" stroke="black" cx="1085.34" cy="-306" rx="62.2891" ry="18"/>
<text text-anchor="middle" x="1085.34" y="-302.3" font-family="Times,serif" font-size="14.00">write_u64_file</text>
</g>
<!-- main&#45;&gt;write_u64_file -->
<g id="edge10" class="edge"><title>main&#45;&gt;write_u64_file</title>
<path fill="none" stroke="black" d="M1164.91,-363.834C1151.25,-354.076 1132.31,-340.549 1116.34,-329.14"/>
<polygon fill="black" stroke="black" points="1118,-326.021 1107.82,-323.057 1113.93,-331.717 1118,-326.021"/>
</g>
<!-- hsw_test_single_ctx_counters&#45;&gt;print_reports -->
<g id="edge28" class="edge"><title>hsw_test_single_ctx_counters&#45;&gt;print_reports</title>
<path fill="none" stroke="black" d="M1203.8,-292.664C1143.95,-282.848 1059.64,-268.12 986.344,-252 981.745,-250.988 976.979,-249.873 972.215,-248.712"/>
<polygon fill="black" stroke="black" points="973.039,-245.31 962.489,-246.282 971.342,-252.102 973.039,-245.31"/>
</g>
<!-- hsw_test_single_ctx_counters&#45;&gt;__perf_open -->
<g id="edge30" class="edge"><title>hsw_test_single_ctx_counters&#45;&gt;__perf_open</title>
<path fill="none" stroke="black" d="M1366.68,-293.506C1432.32,-284.006 1525.53,-269.3 1606.34,-252 1610.76,-251.054 1615.34,-249.998 1619.91,-248.887"/>
<polygon fill="black" stroke="black" points="1621.01,-252.219 1629.86,-246.391 1619.31,-245.429 1621.01,-252.219"/>
</g>
<!-- hsw_test_single_ctx_counters&#45;&gt;__perf_close -->
<g id="edge29" class="edge"><title>hsw_test_single_ctx_counters&#45;&gt;__perf_close</title>
<path fill="none" stroke="black" d="M1343.1,-290.586C1372.57,-282.013 1407.69,-269.368 1436.34,-252 1456.24,-239.941 1453.37,-226.071 1474.34,-216 1579.9,-165.307 1620.5,-202.855 1735.34,-180 1740.03,-179.067 1744.88,-177.998 1749.73,-176.859"/>
<polygon fill="black" stroke="black" points="1750.72,-180.22 1759.6,-174.446 1749.06,-173.42 1750.72,-180.22"/>
</g>
<!-- emit_stall_timestamp_and_rpc -->
<g id="node18" class="node"><title>emit_stall_timestamp_and_rpc</title>
<ellipse fill="none" stroke="black" cx="1115.34" cy="-234" rx="120.479" ry="18"/>
<text text-anchor="middle" x="1115.34" y="-230.3" font-family="Times,serif" font-size="14.00">emit_stall_timestamp_and_rpc</text>
</g>
<!-- hsw_test_single_ctx_counters&#45;&gt;emit_stall_timestamp_and_rpc -->
<g id="edge27" class="edge"><title>hsw_test_single_ctx_counters&#45;&gt;emit_stall_timestamp_and_rpc</title>
<path fill="none" stroke="black" d="M1244.03,-288.941C1220.04,-278.883 1188.92,-265.84 1163.29,-255.099"/>
<polygon fill="black" stroke="black" points="1164.34,-251.744 1153.77,-251.106 1161.64,-258.199 1164.34,-251.744"/>
</g>
<!-- read_u64_file -->
<g id="node24" class="node"><title>read_u64_file</title>
<ellipse fill="none" stroke="black" cx="749.344" cy="-234" rx="59.5901" ry="18"/>
<text text-anchor="middle" x="749.344" y="-230.3" font-family="Times,serif" font-size="14.00">read_u64_file</text>
</g>
<!-- hsw_test_single_ctx_counters&#45;&gt;read_u64_file -->
<g id="edge21" class="edge"><title>hsw_test_single_ctx_counters&#45;&gt;read_u64_file</title>
<path fill="none" stroke="black" d="M1198.68,-293.397C1184.56,-291.529 1170.04,-289.664 1156.34,-288 1008.57,-270.046 970.142,-276.708 823.344,-252 817.032,-250.937 810.451,-249.666 803.931,-248.304"/>
<polygon fill="black" stroke="black" points="804.298,-244.802 793.784,-246.105 802.815,-251.643 804.298,-244.802"/>
</g>
<!-- scratch_buf_init -->
<g id="node26" class="node"><title>scratch_buf_init</title>
<ellipse fill="none" stroke="black" cx="1359.34" cy="-234" rx="67.6881" ry="18"/>
<text text-anchor="middle" x="1359.34" y="-230.3" font-family="Times,serif" font-size="14.00">scratch_buf_init</text>
</g>
<!-- hsw_test_single_ctx_counters&#45;&gt;scratch_buf_init -->
<g id="edge22" class="edge"><title>hsw_test_single_ctx_counters&#45;&gt;scratch_buf_init</title>
<path fill="none" stroke="black" d="M1300.98,-288.055C1310.8,-279.134 1322.98,-268.057 1333.67,-258.336"/>
<polygon fill="black" stroke="black" points="1336.1,-260.864 1341.14,-251.547 1331.39,-255.684 1336.1,-260.864"/>
</g>
<!-- timebase_scale -->
<g id="node27" class="node"><title>timebase_scale</title>
<ellipse fill="none" stroke="black" cx="64.3443" cy="-162" rx="64.189" ry="18"/>
<text text-anchor="middle" x="64.3443" y="-158.3" font-family="Times,serif" font-size="14.00">timebase_scale</text>
</g>
<!-- hsw_test_single_ctx_counters&#45;&gt;timebase_scale -->
<g id="edge23" class="edge"><title>hsw_test_single_ctx_counters&#45;&gt;timebase_scale</title>
<path fill="none" stroke="black" d="M1198.32,-293.489C1184.31,-291.62 1169.92,-289.73 1156.34,-288 1023.13,-271.022 977.906,-309.066 856.344,-252 835.285,-242.114 839.721,-225.18 818.344,-216 679.301,-156.288 288.2,-201.019 138.344,-180 132.407,-179.167 126.243,-178.094 120.121,-176.891"/>
<polygon fill="black" stroke="black" points="120.408,-173.376 109.905,-174.766 118.982,-180.229 120.408,-173.376"/>
</g>
<!-- read_tsc_start -->
<g id="node28" class="node"><title>read_tsc_start</title>
<ellipse fill="none" stroke="black" cx="1803.34" cy="-234" rx="59.5901" ry="18"/>
<text text-anchor="middle" x="1803.34" y="-230.3" font-family="Times,serif" font-size="14.00">read_tsc_start</text>
</g>
<!-- hsw_test_single_ctx_counters&#45;&gt;read_tsc_start -->
<g id="edge24" class="edge"><title>hsw_test_single_ctx_counters&#45;&gt;read_tsc_start</title>
<path fill="none" stroke="black" d="M1371.83,-294.419C1389.88,-292.29 1408.72,-290.071 1426.34,-288 1563.22,-271.921 1598.72,-276.533 1734.34,-252 1739.45,-251.077 1744.74,-249.998 1750.01,-248.84"/>
<polygon fill="black" stroke="black" points="1751.12,-252.177 1760.09,-246.535 1749.56,-245.353 1751.12,-252.177"/>
</g>
<!-- read_tsc_end -->
<g id="node29" class="node"><title>read_tsc_end</title>
<ellipse fill="none" stroke="black" cx="1540.34" cy="-234" rx="57.3905" ry="18"/>
<text text-anchor="middle" x="1540.34" y="-230.3" font-family="Times,serif" font-size="14.00">read_tsc_end</text>
</g>
<!-- hsw_test_single_ctx_counters&#45;&gt;read_tsc_end -->
<g id="edge25" class="edge"><title>hsw_test_single_ctx_counters&#45;&gt;read_tsc_end</title>
<path fill="none" stroke="black" d="M1337.38,-290.069C1382.13,-277.925 1444.84,-260.913 1488.67,-249.021"/>
<polygon fill="black" stroke="black" points="1489.81,-252.336 1498.55,-246.34 1487.98,-245.581 1489.81,-252.336"/>
</g>
<!-- scratch_buf_memset -->
<g id="node30" class="node"><title>scratch_buf_memset</title>
<ellipse fill="none" stroke="black" cx="1642.34" cy="-162" rx="84.485" ry="18"/>
<text text-anchor="middle" x="1642.34" y="-158.3" font-family="Times,serif" font-size="14.00">scratch_buf_memset</text>
</g>
<!-- hsw_test_single_ctx_counters&#45;&gt;scratch_buf_memset -->
<g id="edge26" class="edge"><title>hsw_test_single_ctx_counters&#45;&gt;scratch_buf_memset</title>
<path fill="none" stroke="black" d="M1276.4,-287.969C1270.68,-268.164 1265.18,-235.681 1282.34,-216 1320.97,-171.706 1486.27,-189.024 1544.34,-180 1552.62,-178.714 1561.28,-177.304 1569.88,-175.865"/>
<polygon fill="black" stroke="black" points="1570.65,-179.285 1579.93,-174.167 1569.48,-172.383 1570.65,-179.285"/>
</g>
<!-- max_oa_exponent_for_period_lte -->
<g id="node16" class="node"><title>max_oa_exponent_for_period_lte</title>
<ellipse fill="none" stroke="black" cx="254.344" cy="-234" rx="129.977" ry="18"/>
<text text-anchor="middle" x="254.344" y="-230.3" font-family="Times,serif" font-size="14.00">max_oa_exponent_for_period_lte</text>
</g>
<!-- init_sys_info&#45;&gt;max_oa_exponent_for_period_lte -->
<g id="edge32" class="edge"><title>init_sys_info&#45;&gt;max_oa_exponent_for_period_lte</title>
<path fill="none" stroke="black" d="M468.091,-293.675C428.085,-282.694 366.753,-265.857 320.031,-253.032"/>
<polygon fill="black" stroke="black" points="320.865,-249.631 310.295,-250.359 319.012,-256.381 320.865,-249.631"/>
</g>
<!-- init_sys_info&#45;&gt;read_u64_file -->
<g id="edge31" class="edge"><title>init_sys_info&#45;&gt;read_u64_file</title>
<path fill="none" stroke="black" d="M549.515,-293.284C590.33,-281.379 653.695,-262.898 698.102,-249.946"/>
<polygon fill="black" stroke="black" points="699.214,-253.267 707.834,-247.107 697.254,-246.547 699.214,-253.267"/>
</g>
<!-- clGetErrorString -->
<g id="node14" class="node"><title>clGetErrorString</title>
<ellipse fill="none" stroke="black" cx="2027.34" cy="-234" rx="69.5877" ry="18"/>
<text text-anchor="middle" x="2027.34" y="-230.3" font-family="Times,serif" font-size="14.00">clGetErrorString</text>
</g>
<!-- clCheckError&#45;&gt;clGetErrorString -->
<g id="edge11" class="edge"><title>clCheckError&#45;&gt;clGetErrorString</title>
<path fill="none" stroke="black" d="M1904.51,-290.834C1927.65,-280.314 1959.49,-265.844 1984.95,-254.271"/>
<polygon fill="black" stroke="black" points="1986.71,-257.316 1994.36,-249.991 1983.81,-250.943 1986.71,-257.316"/>
</g>
<!-- max_oa_exponent_for_freq_gt -->
<g id="node15" class="node"><title>max_oa_exponent_for_freq_gt</title>
<ellipse fill="none" stroke="black" cx="254.344" cy="-306" rx="120.479" ry="18"/>
<text text-anchor="middle" x="254.344" y="-302.3" font-family="Times,serif" font-size="14.00">max_oa_exponent_for_freq_gt</text>
</g>
<!-- max_oa_exponent_for_freq_gt&#45;&gt;max_oa_exponent_for_period_lte -->
<g id="edge12" class="edge"><title>max_oa_exponent_for_freq_gt&#45;&gt;max_oa_exponent_for_period_lte</title>
<path fill="none" stroke="black" d="M254.344,-287.697C254.344,-279.983 254.344,-270.712 254.344,-262.112"/>
<polygon fill="black" stroke="black" points="257.844,-262.104 254.344,-252.104 250.844,-262.104 257.844,-262.104"/>
</g>
<!-- max_oa_exponent_for_period_lte&#45;&gt;timebase_scale -->
<g id="edge47" class="edge"><title>max_oa_exponent_for_period_lte&#45;&gt;timebase_scale</title>
<path fill="none" stroke="black" d="M210.754,-216.941C180.997,-205.977 141.61,-191.466 111.184,-180.257"/>
<polygon fill="black" stroke="black" points="112.237,-176.915 101.644,-176.742 109.817,-183.483 112.237,-176.915"/>
</g>
<!-- dumpBinaries -->
<g id="node17" class="node"><title>dumpBinaries</title>
<ellipse fill="none" stroke="black" cx="1873.34" cy="-378" rx="60.3893" ry="18"/>
<text text-anchor="middle" x="1873.34" y="-374.3" font-family="Times,serif" font-size="14.00">dumpBinaries</text>
</g>
<!-- dumpBinaries&#45;&gt;clCheckError -->
<g id="edge13" class="edge"><title>dumpBinaries&#45;&gt;clCheckError</title>
<path fill="none" stroke="black" d="M1873.34,-359.697C1873.34,-351.983 1873.34,-342.712 1873.34,-334.112"/>
<polygon fill="black" stroke="black" points="1876.84,-334.104 1873.34,-324.104 1869.84,-334.104 1876.84,-334.104"/>
</g>
<!-- intel_batchbuffer_require_space -->
<g id="node19" class="node"><title>intel_batchbuffer_require_space</title>
<ellipse fill="none" stroke="black" cx="1277.34" cy="-90" rx="124.278" ry="18"/>
<text text-anchor="middle" x="1277.34" y="-86.3" font-family="Times,serif" font-size="14.00">intel_batchbuffer_require_space</text>
</g>
<!-- emit_stall_timestamp_and_rpc&#45;&gt;intel_batchbuffer_require_space -->
<g id="edge14" class="edge"><title>emit_stall_timestamp_and_rpc&#45;&gt;intel_batchbuffer_require_space</title>
<path fill="none" stroke="black" d="M1198.28,-220.88C1223.34,-213.17 1248.62,-200.574 1265.34,-180 1279.29,-162.851 1281.47,-137.406 1280.64,-118.11"/>
<polygon fill="black" stroke="black" points="1284.13,-117.84 1279.92,-108.115 1277.14,-118.339 1284.13,-117.84"/>
</g>
<!-- intel_batchbuffer_emit_dword -->
<g id="node20" class="node"><title>intel_batchbuffer_emit_dword</title>
<ellipse fill="none" stroke="black" cx="1537.34" cy="-90" rx="118.079" ry="18"/>
<text text-anchor="middle" x="1537.34" y="-86.3" font-family="Times,serif" font-size="14.00">intel_batchbuffer_emit_dword</text>
</g>
<!-- emit_stall_timestamp_and_rpc&#45;&gt;intel_batchbuffer_emit_dword -->
<g id="edge15" class="edge"><title>emit_stall_timestamp_and_rpc&#45;&gt;intel_batchbuffer_emit_dword</title>
<path fill="none" stroke="black" d="M1205.99,-222.105C1321.08,-208.093 1505.57,-184.965 1511.34,-180 1528.94,-164.883 1534.96,-138.585 1536.87,-118.483"/>
<polygon fill="black" stroke="black" points="1540.37,-118.555 1537.54,-108.346 1533.39,-118.093 1540.37,-118.555"/>
</g>
<!-- emit_report_perf_count -->
<g id="node21" class="node"><title>emit_report_perf_count</title>
<ellipse fill="none" stroke="black" cx="1407.34" cy="-162" rx="94.7833" ry="18"/>
<text text-anchor="middle" x="1407.34" y="-158.3" font-family="Times,serif" font-size="14.00">emit_report_perf_count</text>
</g>
<!-- emit_stall_timestamp_and_rpc&#45;&gt;emit_report_perf_count -->
<g id="edge16" class="edge"><title>emit_stall_timestamp_and_rpc&#45;&gt;emit_report_perf_count</title>
<path fill="none" stroke="black" d="M1176.2,-218.411C1224.36,-206.865 1291.53,-190.765 1341.05,-178.893"/>
<polygon fill="black" stroke="black" points="1342.11,-182.237 1351.02,-176.503 1340.48,-175.43 1342.11,-182.237"/>
</g>
<!-- intel_batchbuffer_space -->
<g id="node22" class="node"><title>intel_batchbuffer_space</title>
<ellipse fill="none" stroke="black" cx="1407.34" cy="-18" rx="94.7833" ry="18"/>
<text text-anchor="middle" x="1407.34" y="-14.3" font-family="Times,serif" font-size="14.00">intel_batchbuffer_space</text>
</g>
<!-- intel_batchbuffer_require_space&#45;&gt;intel_batchbuffer_space -->
<g id="edge18" class="edge"><title>intel_batchbuffer_require_space&#45;&gt;intel_batchbuffer_space</title>
<path fill="none" stroke="black" d="M1308.15,-72.411C1326.17,-62.7082 1349.09,-50.3664 1368.36,-39.9915"/>
<polygon fill="black" stroke="black" points="1370.06,-43.0512 1377.21,-35.2285 1366.74,-36.8879 1370.06,-43.0512"/>
</g>
<!-- intel_batchbuffer_emit_dword&#45;&gt;intel_batchbuffer_space -->
<g id="edge17" class="edge"><title>intel_batchbuffer_emit_dword&#45;&gt;intel_batchbuffer_space</title>
<path fill="none" stroke="black" d="M1506.87,-72.5881C1488.85,-62.89 1465.86,-50.5096 1446.52,-40.0923"/>
<polygon fill="black" stroke="black" points="1448.1,-36.9685 1437.63,-35.3091 1444.78,-43.1318 1448.1,-36.9685"/>
</g>
<!-- emit_report_perf_count&#45;&gt;intel_batchbuffer_require_space -->
<g id="edge43" class="edge"><title>emit_report_perf_count&#45;&gt;intel_batchbuffer_require_space</title>
<path fill="none" stroke="black" d="M1377.19,-144.765C1359.32,-135.142 1336.46,-122.832 1317.12,-112.419"/>
<polygon fill="black" stroke="black" points="1318.7,-109.293 1308.23,-107.633 1315.38,-115.456 1318.7,-109.293"/>
</g>
<!-- emit_report_perf_count&#45;&gt;intel_batchbuffer_emit_dword -->
<g id="edge42" class="edge"><title>emit_report_perf_count&#45;&gt;intel_batchbuffer_emit_dword</title>
<path fill="none" stroke="black" d="M1437.5,-144.765C1455.37,-135.142 1478.23,-122.832 1497.57,-112.419"/>
<polygon fill="black" stroke="black" points="1499.31,-115.456 1506.45,-107.633 1495.99,-109.293 1499.31,-115.456"/>
</g>
<!-- test_whitelisted_registers_userspace_config -->
<g id="node23" class="node"><title>test_whitelisted_registers_userspace_config</title>
<ellipse fill="none" stroke="black" cx="749.344" cy="-306" rx="165.171" ry="18"/>
<text text-anchor="middle" x="749.344" y="-302.3" font-family="Times,serif" font-size="14.00">test_whitelisted_registers_userspace_config</text>
</g>
<!-- test_whitelisted_registers_userspace_config&#45;&gt;read_u64_file -->
<g id="edge19" class="edge"><title>test_whitelisted_registers_userspace_config&#45;&gt;read_u64_file</title>
<path fill="none" stroke="black" d="M749.344,-287.697C749.344,-279.983 749.344,-270.712 749.344,-262.112"/>
<polygon fill="black" stroke="black" points="752.844,-262.104 749.344,-252.104 745.844,-262.104 752.844,-262.104"/>
</g>
<!-- i915_perf_remove_config -->
<g id="node25" class="node"><title>i915_perf_remove_config</title>
<ellipse fill="none" stroke="black" cx="569.344" cy="-234" rx="102.882" ry="18"/>
<text text-anchor="middle" x="569.344" y="-230.3" font-family="Times,serif" font-size="14.00">i915_perf_remove_config</text>
</g>
<!-- test_whitelisted_registers_userspace_config&#45;&gt;i915_perf_remove_config -->
<g id="edge20" class="edge"><title>test_whitelisted_registers_userspace_config&#45;&gt;i915_perf_remove_config</title>
<path fill="none" stroke="black" d="M707.142,-288.588C680.744,-278.322 646.617,-265.05 618.93,-254.283"/>
<polygon fill="black" stroke="black" points="620.017,-250.951 609.428,-250.588 617.48,-257.475 620.017,-250.951"/>
</g>
<!-- scratch_buf_init&#45;&gt;scratch_buf_memset -->
<g id="edge46" class="edge"><title>scratch_buf_init&#45;&gt;scratch_buf_memset</title>
<path fill="none" stroke="black" d="M1407.03,-221.205C1454.39,-209.491 1527.26,-191.467 1579.35,-178.581"/>
<polygon fill="black" stroke="black" points="1580.29,-181.955 1589.16,-176.156 1578.61,-175.16 1580.29,-181.955"/>
</g>
<!-- test_counters_with_opencl -->
<g id="node31" class="node"><title>test_counters_with_opencl</title>
<ellipse fill="none" stroke="black" cx="1540.34" cy="-306" rx="104.782" ry="18"/>
<text text-anchor="middle" x="1540.34" y="-302.3" font-family="Times,serif" font-size="14.00">test_counters_with_opencl</text>
</g>
<!-- test_counters_with_opencl&#45;&gt;print_reports -->
<g id="edge33" class="edge"><title>test_counters_with_opencl&#45;&gt;print_reports</title>
<path fill="none" stroke="black" d="M1460.58,-294.254C1443.06,-292.047 1424.59,-289.839 1407.34,-288 1220.61,-268.091 1171.41,-283.874 986.344,-252 981.371,-251.143 976.222,-250.091 971.099,-248.933"/>
<polygon fill="black" stroke="black" points="971.871,-245.519 961.332,-246.6 970.245,-252.328 971.871,-245.519"/>
</g>
<!-- test_counters_with_opencl&#45;&gt;__perf_open -->
<g id="edge35" class="edge"><title>test_counters_with_opencl&#45;&gt;__perf_open</title>
<path fill="none" stroke="black" d="M1570.82,-288.588C1589.61,-278.471 1613.82,-265.436 1633.66,-254.755"/>
<polygon fill="black" stroke="black" points="1635.57,-257.701 1642.71,-249.878 1632.25,-251.537 1635.57,-257.701"/>
</g>
<!-- test_counters_with_opencl&#45;&gt;__perf_close -->
<g id="edge34" class="edge"><title>test_counters_with_opencl&#45;&gt;__perf_close</title>
<path fill="none" stroke="black" d="M1644.53,-303.694C1735.96,-300.075 1859.09,-288.345 1890.34,-252 1900.78,-239.869 1898.28,-229.891 1890.34,-216 1880.93,-199.529 1864.18,-187.669 1847.66,-179.402"/>
<polygon fill="black" stroke="black" points="1849.1,-176.211 1838.55,-175.172 1846.15,-182.559 1849.1,-176.211"/>
</g>
<!-- test_counters_with_opencl&#45;&gt;emit_stall_timestamp_and_rpc -->
<g id="edge39" class="edge"><title>test_counters_with_opencl&#45;&gt;emit_stall_timestamp_and_rpc</title>
<path fill="none" stroke="black" d="M1467.28,-292.967C1394.15,-280.92 1281.56,-262.376 1203.5,-249.519"/>
<polygon fill="black" stroke="black" points="1203.64,-245.995 1193.2,-247.823 1202.5,-252.902 1203.64,-245.995"/>
</g>
<!-- test_counters_with_opencl&#45;&gt;read_u64_file -->
<g id="edge40" class="edge"><title>test_counters_with_opencl&#45;&gt;read_u64_file</title>
<path fill="none" stroke="black" d="M1461.67,-294.125C1443.83,-291.888 1424.95,-289.699 1407.34,-288 1163.07,-264.431 1100.23,-279.283 856.344,-252 841.01,-250.285 824.517,-247.923 809.181,-245.506"/>
<polygon fill="black" stroke="black" points="809.724,-242.048 799.295,-243.915 808.612,-248.959 809.724,-242.048"/>
</g>
<!-- test_counters_with_opencl&#45;&gt;scratch_buf_init -->
<g id="edge41" class="edge"><title>test_counters_with_opencl&#45;&gt;scratch_buf_init</title>
<path fill="none" stroke="black" d="M1499.72,-289.291C1471.82,-278.498 1434.71,-264.148 1405.66,-252.911"/>
<polygon fill="black" stroke="black" points="1406.73,-249.572 1396.14,-249.229 1404.2,-256.101 1406.73,-249.572"/>
</g>
<!-- test_counters_with_opencl&#45;&gt;read_tsc_start -->
<g id="edge38" class="edge"><title>test_counters_with_opencl&#45;&gt;read_tsc_start</title>
<path fill="none" stroke="black" d="M1594.52,-290.581C1640.09,-278.451 1704.89,-261.206 1750.17,-249.152"/>
<polygon fill="black" stroke="black" points="1751.33,-252.465 1760.1,-246.51 1749.53,-245.7 1751.33,-252.465"/>
</g>
<!-- test_counters_with_opencl&#45;&gt;read_tsc_end -->
<g id="edge37" class="edge"><title>test_counters_with_opencl&#45;&gt;read_tsc_end</title>
<path fill="none" stroke="black" d="M1540.34,-287.697C1540.34,-279.983 1540.34,-270.712 1540.34,-262.112"/>
<polygon fill="black" stroke="black" points="1543.84,-262.104 1540.34,-252.104 1536.84,-262.104 1543.84,-262.104"/>
</g>
<!-- test_counters_with_opencl&#45;&gt;scratch_buf_memset -->
<g id="edge36" class="edge"><title>test_counters_with_opencl&#45;&gt;scratch_buf_memset</title>
<path fill="none" stroke="black" d="M1643.41,-302.706C1729.7,-298.348 1843.27,-286.082 1872.34,-252 1882.73,-239.827 1882.31,-228.52 1872.34,-216 1867.21,-209.548 1777.58,-190.251 1711.75,-176.817"/>
<polygon fill="black" stroke="black" points="1712.32,-173.359 1701.82,-174.797 1710.92,-180.219 1712.32,-173.359"/>
</g>
<!-- hsw_read_report_ticks -->
<g id="node32" class="node"><title>hsw_read_report_ticks</title>
<ellipse fill="none" stroke="black" cx="947.344" cy="-162" rx="90.9839" ry="18"/>
<text text-anchor="middle" x="947.344" y="-158.3" font-family="Times,serif" font-size="14.00">hsw_read_report_ticks</text>
</g>
<!-- hsw_read_report_ticks&#45;&gt;get_oa_format -->
<g id="edge45" class="edge"><title>hsw_read_report_ticks&#45;&gt;get_oa_format</title>
<path fill="none" stroke="black" d="M882.118,-149.441C807.719,-136.256 686.973,-114.858 614.067,-101.938"/>
<polygon fill="black" stroke="black" points="614.565,-98.4719 604.107,-100.173 613.343,-105.365 614.565,-98.4719"/>
</g>
<!-- i915_perf_add_config -->
<g id="node33" class="node"><title>i915_perf_add_config</title>
<ellipse fill="none" stroke="black" cx="2046.34" cy="-378" rx="89.0842" ry="18"/>
<text text-anchor="middle" x="2046.34" y="-374.3" font-family="Times,serif" font-size="14.00">i915_perf_add_config</text>
</g>
<!-- __i915_perf_add_config -->
<g id="node34" class="node"><title>__i915_perf_add_config</title>
<ellipse fill="none" stroke="black" cx="2046.34" cy="-306" rx="97.4827" ry="18"/>
<text text-anchor="middle" x="2046.34" y="-302.3" font-family="Times,serif" font-size="14.00">__i915_perf_add_config</text>
</g>
<!-- i915_perf_add_config&#45;&gt;__i915_perf_add_config -->
<g id="edge48" class="edge"><title>i915_perf_add_config&#45;&gt;__i915_perf_add_config</title>
<path fill="none" stroke="black" d="M2046.34,-359.697C2046.34,-351.983 2046.34,-342.712 2046.34,-334.112"/>
<polygon fill="black" stroke="black" points="2049.84,-334.104 2046.34,-324.104 2042.84,-334.104 2049.84,-334.104"/>
</g>
<!-- oa_report_is_periodic -->
<g id="node35" class="node"><title>oa_report_is_periodic</title>
<ellipse fill="none" stroke="black" cx="2241.34" cy="-378" rx="87.9851" ry="18"/>
<text text-anchor="middle" x="2241.34" y="-374.3" font-family="Times,serif" font-size="14.00">oa_report_is_periodic</text>
</g>
<!-- read_i915_module_ref -->
<g id="node36" class="node"><title>read_i915_module_ref</title>
<ellipse fill="none" stroke="black" cx="2438.34" cy="-378" rx="90.9839" ry="18"/>
<text text-anchor="middle" x="2438.34" y="-374.3" font-family="Times,serif" font-size="14.00">read_i915_module_ref</text>
</g>
<!-- oa_exponent_to_ns -->
<g id="node37" class="node"><title>oa_exponent_to_ns</title>
<ellipse fill="none" stroke="black" cx="2626.34" cy="-378" rx="79.0865" ry="18"/>
<text text-anchor="middle" x="2626.34" y="-374.3" font-family="Times,serif" font-size="14.00">oa_exponent_to_ns</text>
</g>
<!-- gen8_read_report_ticks -->
<g id="node38" class="node"><title>gen8_read_report_ticks</title>
<ellipse fill="none" stroke="black" cx="2817.34" cy="-378" rx="93.6835" ry="18"/>
<text text-anchor="middle" x="2817.34" y="-374.3" font-family="Times,serif" font-size="14.00">gen8_read_report_ticks</text>
</g>
</g>
</svg>
