<?xml version="1.0" encoding="UTF-8" standalone="no"?>
<!DOCTYPE svg PUBLIC "-//W3C//DTD SVG 1.1//EN"
 "http://www.w3.org/Graphics/SVG/1.1/DTD/svg11.dtd">
<!-- Generated by graphviz version 2.38.0 (20140413.2041)
 -->
<!-- Title: callgraph Pages: 1 -->
<svg width="3386pt" height="260pt"
 viewBox="0.00 0.00 3385.73 260.00" xmlns="http://www.w3.org/2000/svg" xmlns:xlink="http://www.w3.org/1999/xlink">
<g id="graph0" class="graph" transform="scale(1 1) rotate(0) translate(4 256)">
<title>callgraph</title>
<polygon fill="white" stroke="none" points="-4,4 -4,-256 3381.73,-256 3381.73,4 -4,4"/>
<!-- print_reports -->
<g id="node1" class="node"><title>print_reports</title>
<ellipse fill="none" stroke="black" cx="1226.14" cy="-162" rx="55.7903" ry="18"/>
<text text-anchor="middle" x="1226.14" y="-158.3" font-family="Times,serif" font-size="14.00">print_reports</text>
</g>
<!-- get_oa_format -->
<g id="node2" class="node"><title>get_oa_format</title>
<ellipse fill="none" stroke="black" cx="1608.14" cy="-18" rx="62.2891" ry="18"/>
<text text-anchor="middle" x="1608.14" y="-14.3" font-family="Times,serif" font-size="14.00">get_oa_format</text>
</g>
<!-- print_reports&#45;&gt;get_oa_format -->
<g id="edge1" class="edge"><title>print_reports&#45;&gt;get_oa_format</title>
<path fill="none" stroke="black" d="M1268.17,-149.956C1277.34,-147.779 1287.03,-145.659 1296.14,-144 1360.68,-132.239 1540.76,-152.3 1589.14,-108 1605.93,-92.6253 1609.84,-66.3595 1610.05,-46.3351"/>
<polygon fill="black" stroke="black" points="1613.54,-46.1741 1609.85,-36.2429 1606.55,-46.3081 1613.54,-46.1741"/>
</g>
<!-- gen8_40bit_a_delta -->
<g id="node3" class="node"><title>gen8_40bit_a_delta</title>
<ellipse fill="none" stroke="black" cx="789.139" cy="-90" rx="79.8859" ry="18"/>
<text text-anchor="middle" x="789.139" y="-86.3" font-family="Times,serif" font-size="14.00">gen8_40bit_a_delta</text>
</g>
<!-- print_reports&#45;&gt;gen8_40bit_a_delta -->
<g id="edge2" class="edge"><title>print_reports&#45;&gt;gen8_40bit_a_delta</title>
<path fill="none" stroke="black" d="M1184.1,-149.998C1174.93,-147.819 1165.24,-145.687 1156.14,-144 1033.21,-121.212 1000.58,-127.867 877.139,-108 870.43,-106.92 863.449,-105.714 856.484,-104.456"/>
<polygon fill="black" stroke="black" points="856.793,-100.954 846.325,-102.585 855.525,-107.838 856.793,-100.954"/>
</g>
<!-- gen8_read_40bit_a_counter -->
<g id="node4" class="node"><title>gen8_read_40bit_a_counter</title>
<ellipse fill="none" stroke="black" cx="995.139" cy="-90" rx="108.581" ry="18"/>
<text text-anchor="middle" x="995.139" y="-86.3" font-family="Times,serif" font-size="14.00">gen8_read_40bit_a_counter</text>
</g>
<!-- print_reports&#45;&gt;gen8_read_40bit_a_counter -->
<g id="edge3" class="edge"><title>print_reports&#45;&gt;gen8_read_40bit_a_counter</title>
<path fill="none" stroke="black" d="M1186.95,-149.125C1150.73,-138.148 1096.37,-121.676 1054.76,-109.067"/>
<polygon fill="black" stroke="black" points="1055.6,-105.664 1045.01,-106.114 1053.57,-112.363 1055.6,-105.664"/>
</g>
<!-- gen8_read_report_reason -->
<g id="node5" class="node"><title>gen8_read_report_reason</title>
<ellipse fill="none" stroke="black" cx="1222.14" cy="-90" rx="100.182" ry="18"/>
<text text-anchor="middle" x="1222.14" y="-86.3" font-family="Times,serif" font-size="14.00">gen8_read_report_reason</text>
</g>
<!-- print_reports&#45;&gt;gen8_read_report_reason -->
<g id="edge4" class="edge"><title>print_reports&#45;&gt;gen8_read_report_reason</title>
<path fill="none" stroke="black" d="M1225.15,-143.697C1224.71,-135.983 1224.18,-126.712 1223.69,-118.112"/>
<polygon fill="black" stroke="black" points="1227.18,-117.888 1223.12,-108.104 1220.19,-118.288 1227.18,-117.888"/>
</g>
<!-- gen8_read_report_clock_ratios -->
<g id="node6" class="node"><title>gen8_read_report_clock_ratios</title>
<ellipse fill="none" stroke="black" cx="1460.14" cy="-90" rx="120.479" ry="18"/>
<text text-anchor="middle" x="1460.14" y="-86.3" font-family="Times,serif" font-size="14.00">gen8_read_report_clock_ratios</text>
</g>
<!-- print_reports&#45;&gt;gen8_read_report_clock_ratios -->
<g id="edge5" class="edge"><title>print_reports&#45;&gt;gen8_read_report_clock_ratios</title>
<path fill="none" stroke="black" d="M1265.57,-149.205C1302.06,-138.288 1356.88,-121.89 1399.04,-109.278"/>
<polygon fill="black" stroke="black" points="1400.07,-112.623 1408.65,-106.404 1398.06,-105.917 1400.07,-112.623"/>
</g>
<!-- gen8_read_40bit_a_counter&#45;&gt;get_oa_format -->
<g id="edge22" class="edge"><title>gen8_read_40bit_a_counter&#45;&gt;get_oa_format</title>
<path fill="none" stroke="black" d="M1072.84,-77.3958C1086.27,-75.5078 1100.1,-73.637 1113.14,-72 1265.18,-52.9153 1444.04,-34.8451 1539.65,-25.5374"/>
<polygon fill="black" stroke="black" points="1540.15,-29.0054 1549.76,-24.5552 1539.47,-22.0382 1540.15,-29.0054"/>
</g>
<!-- scratch_buf_init -->
<g id="node7" class="node"><title>scratch_buf_init</title>
<ellipse fill="none" stroke="black" cx="1046.14" cy="-162" rx="67.6881" ry="18"/>
<text text-anchor="middle" x="1046.14" y="-158.3" font-family="Times,serif" font-size="14.00">scratch_buf_init</text>
</g>
<!-- scratch_buf_memset -->
<g id="node8" class="node"><title>scratch_buf_memset</title>
<ellipse fill="none" stroke="black" cx="607.139" cy="-90" rx="84.485" ry="18"/>
<text text-anchor="middle" x="607.139" y="-86.3" font-family="Times,serif" font-size="14.00">scratch_buf_memset</text>
</g>
<!-- scratch_buf_init&#45;&gt;scratch_buf_memset -->
<g id="edge6" class="edge"><title>scratch_buf_init&#45;&gt;scratch_buf_memset</title>
<path fill="none" stroke="black" d="M997.207,-149.394C988.231,-147.453 978.924,-145.565 970.139,-144 850.954,-122.766 819.718,-126.89 700.139,-108 693.006,-106.873 685.577,-105.631 678.165,-104.348"/>
<polygon fill="black" stroke="black" points="678.553,-100.862 668.098,-102.578 677.341,-107.757 678.553,-100.862"/>
</g>
<!-- emit_report_perf_count -->
<g id="node9" class="node"><title>emit_report_perf_count</title>
<ellipse fill="none" stroke="black" cx="122.139" cy="-162" rx="94.7833" ry="18"/>
<text text-anchor="middle" x="122.139" y="-158.3" font-family="Times,serif" font-size="14.00">emit_report_perf_count</text>
</g>
<!-- intel_batchbuffer_require_space -->
<g id="node10" class="node"><title>intel_batchbuffer_require_space</title>
<ellipse fill="none" stroke="black" cx="124.139" cy="-90" rx="124.278" ry="18"/>
<text text-anchor="middle" x="124.139" y="-86.3" font-family="Times,serif" font-size="14.00">intel_batchbuffer_require_space</text>
</g>
<!-- emit_report_perf_count&#45;&gt;intel_batchbuffer_require_space -->
<g id="edge7" class="edge"><title>emit_report_perf_count&#45;&gt;intel_batchbuffer_require_space</title>
<path fill="none" stroke="black" d="M122.633,-143.697C122.854,-135.983 123.119,-126.712 123.364,-118.112"/>
<polygon fill="black" stroke="black" points="126.863,-118.2 123.65,-108.104 119.866,-118 126.863,-118.2"/>
</g>
<!-- intel_batchbuffer_emit_dword -->
<g id="node11" class="node"><title>intel_batchbuffer_emit_dword</title>
<ellipse fill="none" stroke="black" cx="384.139" cy="-90" rx="118.079" ry="18"/>
<text text-anchor="middle" x="384.139" y="-86.3" font-family="Times,serif" font-size="14.00">intel_batchbuffer_emit_dword</text>
</g>
<!-- emit_report_perf_count&#45;&gt;intel_batchbuffer_emit_dword -->
<g id="edge8" class="edge"><title>emit_report_perf_count&#45;&gt;intel_batchbuffer_emit_dword</title>
<path fill="none" stroke="black" d="M174.843,-146.919C216.243,-135.858 274.12,-120.394 318.521,-108.531"/>
<polygon fill="black" stroke="black" points="319.594,-111.868 328.351,-105.905 317.787,-105.105 319.594,-111.868"/>
</g>
<!-- intel_batchbuffer_space -->
<g id="node22" class="node"><title>intel_batchbuffer_space</title>
<ellipse fill="none" stroke="black" cx="254.139" cy="-18" rx="94.7833" ry="18"/>
<text text-anchor="middle" x="254.139" y="-14.3" font-family="Times,serif" font-size="14.00">intel_batchbuffer_space</text>
</g>
<!-- intel_batchbuffer_require_space&#45;&gt;intel_batchbuffer_space -->
<g id="edge23" class="edge"><title>intel_batchbuffer_require_space&#45;&gt;intel_batchbuffer_space</title>
<path fill="none" stroke="black" d="M154.947,-72.411C172.967,-62.7082 195.887,-50.3664 215.155,-39.9915"/>
<polygon fill="black" stroke="black" points="216.855,-43.0512 224,-35.2285 213.536,-36.8879 216.855,-43.0512"/>
</g>
<!-- intel_batchbuffer_emit_dword&#45;&gt;intel_batchbuffer_space -->
<g id="edge33" class="edge"><title>intel_batchbuffer_emit_dword&#45;&gt;intel_batchbuffer_space</title>
<path fill="none" stroke="black" d="M353.66,-72.5881C335.649,-62.89 312.657,-50.5096 293.31,-40.0923"/>
<polygon fill="black" stroke="black" points="294.891,-36.9685 284.427,-35.3091 291.573,-43.1318 294.891,-36.9685"/>
</g>
<!-- test_counters_with_opencl -->
<g id="node12" class="node"><title>test_counters_with_opencl</title>
<ellipse fill="none" stroke="black" cx="1142.14" cy="-234" rx="104.782" ry="18"/>
<text text-anchor="middle" x="1142.14" y="-230.3" font-family="Times,serif" font-size="14.00">test_counters_with_opencl</text>
</g>
<!-- test_counters_with_opencl&#45;&gt;print_reports -->
<g id="edge14" class="edge"><title>test_counters_with_opencl&#45;&gt;print_reports</title>
<path fill="none" stroke="black" d="M1162.47,-216.055C1173.44,-206.916 1187.12,-195.514 1198.99,-185.626"/>
<polygon fill="black" stroke="black" points="1201.42,-188.158 1206.86,-179.068 1196.93,-182.781 1201.42,-188.158"/>
</g>
<!-- test_counters_with_opencl&#45;&gt;scratch_buf_init -->
<g id="edge16" class="edge"><title>test_counters_with_opencl&#45;&gt;scratch_buf_init</title>
<path fill="none" stroke="black" d="M1119.39,-216.411C1106.62,-207.103 1090.53,-195.367 1076.68,-185.268"/>
<polygon fill="black" stroke="black" points="1078.54,-182.292 1068.4,-179.228 1074.41,-187.948 1078.54,-182.292"/>
</g>
<!-- test_counters_with_opencl&#45;&gt;scratch_buf_memset -->
<g id="edge12" class="edge"><title>test_counters_with_opencl&#45;&gt;scratch_buf_memset</title>
<path fill="none" stroke="black" d="M1143.95,-215.99C1145.07,-195.577 1143.4,-161.869 1123.14,-144 1087.76,-112.802 746.893,-114.248 700.139,-108 692.589,-106.991 684.721,-105.789 676.897,-104.498"/>
<polygon fill="black" stroke="black" points="677.483,-101.047 667.038,-102.822 676.31,-107.948 677.483,-101.047"/>
</g>
<!-- test_counters_with_opencl&#45;&gt;emit_report_perf_count -->
<g id="edge15" class="edge"><title>test_counters_with_opencl&#45;&gt;emit_report_perf_count</title>
<path fill="none" stroke="black" d="M1039.16,-230.54C869.331,-225.698 520.044,-212.434 226.139,-180 217.192,-179.013 207.842,-177.777 198.574,-176.424"/>
<polygon fill="black" stroke="black" points="198.984,-172.947 188.574,-174.918 197.941,-179.869 198.984,-172.947"/>
</g>
<!-- read_tsc_end -->
<g id="node13" class="node"><title>read_tsc_end</title>
<ellipse fill="none" stroke="black" cx="684.139" cy="-162" rx="57.3905" ry="18"/>
<text text-anchor="middle" x="684.139" y="-158.3" font-family="Times,serif" font-size="14.00">read_tsc_end</text>
</g>
<!-- test_counters_with_opencl&#45;&gt;read_tsc_end -->
<g id="edge9" class="edge"><title>test_counters_with_opencl&#45;&gt;read_tsc_end</title>
<path fill="none" stroke="black" d="M1054.47,-224.136C974.703,-215.364 853.93,-200.31 750.139,-180 745.382,-179.069 740.457,-178.001 735.54,-176.863"/>
<polygon fill="black" stroke="black" points="736.055,-173.387 725.514,-174.451 734.418,-180.193 736.055,-173.387"/>
</g>
<!-- read_tsc_start -->
<g id="node14" class="node"><title>read_tsc_start</title>
<ellipse fill="none" stroke="black" cx="549.139" cy="-162" rx="59.5901" ry="18"/>
<text text-anchor="middle" x="549.139" y="-158.3" font-family="Times,serif" font-size="14.00">read_tsc_start</text>
</g>
<!-- test_counters_with_opencl&#45;&gt;read_tsc_start -->
<g id="edge10" class="edge"><title>test_counters_with_opencl&#45;&gt;read_tsc_start</title>
<path fill="none" stroke="black" d="M1045.01,-227.282C939.394,-220.112 765.903,-205.545 618.139,-180 612.82,-179.081 607.304,-177.979 601.814,-176.784"/>
<polygon fill="black" stroke="black" points="602.534,-173.358 592.006,-174.552 600.98,-180.184 602.534,-173.358"/>
</g>
<!-- __perf_open -->
<g id="node15" class="node"><title>__perf_open</title>
<ellipse fill="none" stroke="black" cx="1393.14" cy="-162" rx="55.4913" ry="18"/>
<text text-anchor="middle" x="1393.14" y="-158.3" font-family="Times,serif" font-size="14.00">__perf_open</text>
</g>
<!-- test_counters_with_opencl&#45;&gt;__perf_open -->
<g id="edge11" class="edge"><title>test_counters_with_opencl&#45;&gt;__perf_open</title>
<path fill="none" stroke="black" d="M1194.76,-218.326C1238.37,-206.164 1299.94,-188.99 1342.89,-177.014"/>
<polygon fill="black" stroke="black" points="1343.87,-180.373 1352.57,-174.315 1341.99,-173.63 1343.87,-180.373"/>
</g>
<!-- read_u64_file -->
<g id="node16" class="node"><title>read_u64_file</title>
<ellipse fill="none" stroke="black" cx="1692.14" cy="-162" rx="59.5901" ry="18"/>
<text text-anchor="middle" x="1692.14" y="-158.3" font-family="Times,serif" font-size="14.00">read_u64_file</text>
</g>
<!-- test_counters_with_opencl&#45;&gt;read_u64_file -->
<g id="edge13" class="edge"><title>test_counters_with_opencl&#45;&gt;read_u64_file</title>
<path fill="none" stroke="black" d="M1219.81,-221.925C1235.15,-219.858 1251.14,-217.788 1266.14,-216 1423.61,-197.227 1464.79,-206.523 1621.14,-180 1626.82,-179.036 1632.73,-177.878 1638.6,-176.625"/>
<polygon fill="black" stroke="black" points="1639.39,-180.033 1648.39,-174.444 1637.87,-173.2 1639.39,-180.033"/>
</g>
<!-- __perf_close -->
<g id="node17" class="node"><title>__perf_close</title>
<ellipse fill="none" stroke="black" cx="1892.14" cy="-90" rx="55.7903" ry="18"/>
<text text-anchor="middle" x="1892.14" y="-86.3" font-family="Times,serif" font-size="14.00">__perf_close</text>
</g>
<!-- test_counters_with_opencl&#45;&gt;__perf_close -->
<g id="edge17" class="edge"><title>test_counters_with_opencl&#45;&gt;__perf_close</title>
<path fill="none" stroke="black" d="M1199.12,-218.817C1227.98,-210.156 1262.82,-197.366 1291.14,-180 1310.97,-167.839 1307.85,-153.386 1329.14,-144 1430.66,-99.2364 1717.67,-126.114 1827.14,-108 1832.12,-107.176 1837.27,-106.145 1842.4,-105.001"/>
<polygon fill="black" stroke="black" points="1843.24,-108.397 1852.17,-102.684 1841.63,-101.586 1843.24,-108.397"/>
</g>
<!-- __perf_open&#45;&gt;__perf_close -->
<g id="edge34" class="edge"><title>__perf_open&#45;&gt;__perf_close</title>
<path fill="none" stroke="black" d="M1434.17,-149.869C1443.32,-147.672 1453.02,-145.565 1462.14,-144 1622.8,-116.432 1666.68,-136.712 1827.14,-108 1831.91,-107.146 1836.85,-106.121 1841.77,-105.004"/>
<polygon fill="black" stroke="black" points="1842.88,-108.337 1851.79,-102.604 1841.25,-101.529 1842.88,-108.337"/>
</g>
<!-- max_oa_exponent_for_period_lte -->
<g id="node18" class="node"><title>max_oa_exponent_for_period_lte</title>
<ellipse fill="none" stroke="black" cx="2126.14" cy="-162" rx="129.977" ry="18"/>
<text text-anchor="middle" x="2126.14" y="-158.3" font-family="Times,serif" font-size="14.00">max_oa_exponent_for_period_lte</text>
</g>
<!-- timebase_scale -->
<g id="node19" class="node"><title>timebase_scale</title>
<ellipse fill="none" stroke="black" cx="2126.14" cy="-90" rx="64.189" ry="18"/>
<text text-anchor="middle" x="2126.14" y="-86.3" font-family="Times,serif" font-size="14.00">timebase_scale</text>
</g>
<!-- max_oa_exponent_for_period_lte&#45;&gt;timebase_scale -->
<g id="edge18" class="edge"><title>max_oa_exponent_for_period_lte&#45;&gt;timebase_scale</title>
<path fill="none" stroke="black" d="M2126.14,-143.697C2126.14,-135.983 2126.14,-126.712 2126.14,-118.112"/>
<polygon fill="black" stroke="black" points="2129.64,-118.104 2126.14,-108.104 2122.64,-118.104 2129.64,-118.104"/>
</g>
<!-- send_mi_load_reg_mem -->
<g id="node20" class="node"><title>send_mi_load_reg_mem</title>
<ellipse fill="none" stroke="black" cx="334.139" cy="-162" rx="98.5829" ry="18"/>
<text text-anchor="middle" x="334.139" y="-158.3" font-family="Times,serif" font-size="14.00">send_mi_load_reg_mem</text>
</g>
<!-- send_mi_load_reg_mem&#45;&gt;intel_batchbuffer_require_space -->
<g id="edge19" class="edge"><title>send_mi_load_reg_mem&#45;&gt;intel_batchbuffer_require_space</title>
<path fill="none" stroke="black" d="M288.831,-145.897C257.225,-135.362 214.815,-121.225 180.947,-109.936"/>
<polygon fill="black" stroke="black" points="181.779,-106.524 171.185,-106.682 179.565,-113.165 181.779,-106.524"/>
</g>
<!-- send_mi_load_reg_mem&#45;&gt;intel_batchbuffer_emit_dword -->
<g id="edge20" class="edge"><title>send_mi_load_reg_mem&#45;&gt;intel_batchbuffer_emit_dword</title>
<path fill="none" stroke="black" d="M346.243,-144.055C352.112,-135.837 359.288,-125.791 365.81,-116.66"/>
<polygon fill="black" stroke="black" points="368.835,-118.447 371.799,-108.275 363.139,-114.378 368.835,-118.447"/>
</g>
<!-- max_oa_exponent_for_freq_gt -->
<g id="node21" class="node"><title>max_oa_exponent_for_freq_gt</title>
<ellipse fill="none" stroke="black" cx="2129.14" cy="-234" rx="120.479" ry="18"/>
<text text-anchor="middle" x="2129.14" y="-230.3" font-family="Times,serif" font-size="14.00">max_oa_exponent_for_freq_gt</text>
</g>
<!-- max_oa_exponent_for_freq_gt&#45;&gt;max_oa_exponent_for_period_lte -->
<g id="edge21" class="edge"><title>max_oa_exponent_for_freq_gt&#45;&gt;max_oa_exponent_for_period_lte</title>
<path fill="none" stroke="black" d="M2128.4,-215.697C2128.07,-207.983 2127.67,-198.712 2127.3,-190.112"/>
<polygon fill="black" stroke="black" points="2130.8,-189.945 2126.87,-180.104 2123.8,-190.245 2130.8,-189.945"/>
</g>
<!-- emit_stall_timestamp_and_rpc -->
<g id="node23" class="node"><title>emit_stall_timestamp_and_rpc</title>
<ellipse fill="none" stroke="black" cx="122.139" cy="-234" rx="120.479" ry="18"/>
<text text-anchor="middle" x="122.139" y="-230.3" font-family="Times,serif" font-size="14.00">emit_stall_timestamp_and_rpc</text>
</g>
<!-- emit_stall_timestamp_and_rpc&#45;&gt;emit_report_perf_count -->
<g id="edge25" class="edge"><title>emit_stall_timestamp_and_rpc&#45;&gt;emit_report_perf_count</title>
<path fill="none" stroke="black" d="M122.139,-215.697C122.139,-207.983 122.139,-198.712 122.139,-190.112"/>
<polygon fill="black" stroke="black" points="125.639,-190.104 122.139,-180.104 118.639,-190.104 125.639,-190.104"/>
</g>
<!-- emit_stall_timestamp_and_rpc&#45;&gt;intel_batchbuffer_require_space -->
<g id="edge26" class="edge"><title>emit_stall_timestamp_and_rpc&#45;&gt;intel_batchbuffer_require_space</title>
<path fill="none" stroke="black" d="M66.7844,-217.906C48.01,-209.853 29.0444,-197.797 18.139,-180 9.7795,-166.357 9.72729,-157.61 18.139,-144 27.3621,-129.077 42.2004,-118.215 57.8903,-110.364"/>
<polygon fill="black" stroke="black" points="59.571,-113.444 67.1907,-106.082 56.6434,-107.085 59.571,-113.444"/>
</g>
<!-- emit_stall_timestamp_and_rpc&#45;&gt;intel_batchbuffer_emit_dword -->
<g id="edge24" class="edge"><title>emit_stall_timestamp_and_rpc&#45;&gt;intel_batchbuffer_emit_dword</title>
<path fill="none" stroke="black" d="M238.079,-229.143C318.623,-223.738 416.007,-210.816 442.139,-180 459.668,-159.329 437.96,-133.063 416.287,-114.437"/>
<polygon fill="black" stroke="black" points="418.326,-111.583 408.376,-107.944 413.885,-116.994 418.326,-111.583"/>
</g>
<!-- hsw_read_report_ticks -->
<g id="node24" class="node"><title>hsw_read_report_ticks</title>
<ellipse fill="none" stroke="black" cx="1727.14" cy="-90" rx="90.9839" ry="18"/>
<text text-anchor="middle" x="1727.14" y="-86.3" font-family="Times,serif" font-size="14.00">hsw_read_report_ticks</text>
</g>
<!-- hsw_read_report_ticks&#45;&gt;get_oa_format -->
<g id="edge27" class="edge"><title>hsw_read_report_ticks&#45;&gt;get_oa_format</title>
<path fill="none" stroke="black" d="M1699.54,-72.7646C1682.82,-62.9283 1661.32,-50.2845 1643.38,-39.7298"/>
<polygon fill="black" stroke="black" points="1644.76,-36.4802 1634.36,-34.4268 1641.21,-42.5138 1644.76,-36.4802"/>
</g>
<!-- i915_perf_add_config -->
<g id="node25" class="node"><title>i915_perf_add_config</title>
<ellipse fill="none" stroke="black" cx="2371.14" cy="-234" rx="89.0842" ry="18"/>
<text text-anchor="middle" x="2371.14" y="-230.3" font-family="Times,serif" font-size="14.00">i915_perf_add_config</text>
</g>
<!-- __i915_perf_add_config -->
<g id="node26" class="node"><title>__i915_perf_add_config</title>
<ellipse fill="none" stroke="black" cx="2371.14" cy="-162" rx="97.4827" ry="18"/>
<text text-anchor="middle" x="2371.14" y="-158.3" font-family="Times,serif" font-size="14.00">__i915_perf_add_config</text>
</g>
<!-- i915_perf_add_config&#45;&gt;__i915_perf_add_config -->
<g id="edge28" class="edge"><title>i915_perf_add_config&#45;&gt;__i915_perf_add_config</title>
<path fill="none" stroke="black" d="M2371.14,-215.697C2371.14,-207.983 2371.14,-198.712 2371.14,-190.112"/>
<polygon fill="black" stroke="black" points="2374.64,-190.104 2371.14,-180.104 2367.64,-190.104 2374.64,-190.104"/>
</g>
<!-- send_mi_store_reg_mem -->
<g id="node27" class="node"><title>send_mi_store_reg_mem</title>
<ellipse fill="none" stroke="black" cx="860.139" cy="-162" rx="100.983" ry="18"/>
<text text-anchor="middle" x="860.139" y="-158.3" font-family="Times,serif" font-size="14.00">send_mi_store_reg_mem</text>
</g>
<!-- send_mi_store_reg_mem&#45;&gt;intel_batchbuffer_require_space -->
<g id="edge29" class="edge"><title>send_mi_store_reg_mem&#45;&gt;intel_batchbuffer_require_space</title>
<path fill="none" stroke="black" d="M789.245,-149.186C776.261,-147.267 762.811,-145.44 750.139,-144 531.848,-119.203 475.736,-129.935 257.139,-108 245.558,-106.838 233.427,-105.481 221.404,-104.05"/>
<polygon fill="black" stroke="black" points="221.691,-100.56 211.343,-102.834 220.85,-107.509 221.691,-100.56"/>
</g>
<!-- send_mi_store_reg_mem&#45;&gt;intel_batchbuffer_emit_dword -->
<g id="edge30" class="edge"><title>send_mi_store_reg_mem&#45;&gt;intel_batchbuffer_emit_dword</title>
<path fill="none" stroke="black" d="M786.784,-149.564C774.549,-147.685 761.988,-145.773 750.139,-144 657.504,-130.135 551.588,-114.86 477.613,-104.286"/>
<polygon fill="black" stroke="black" points="477.786,-100.775 467.391,-102.825 476.796,-107.705 477.786,-100.775"/>
</g>
<!-- test_whitelisted_registers_userspace_config -->
<g id="node28" class="node"><title>test_whitelisted_registers_userspace_config</title>
<ellipse fill="none" stroke="black" cx="1694.14" cy="-234" rx="165.171" ry="18"/>
<text text-anchor="middle" x="1694.14" y="-230.3" font-family="Times,serif" font-size="14.00">test_whitelisted_registers_userspace_config</text>
</g>
<!-- test_whitelisted_registers_userspace_config&#45;&gt;read_u64_file -->
<g id="edge31" class="edge"><title>test_whitelisted_registers_userspace_config&#45;&gt;read_u64_file</title>
<path fill="none" stroke="black" d="M1693.64,-215.697C1693.42,-207.983 1693.16,-198.712 1692.91,-190.112"/>
<polygon fill="black" stroke="black" points="1696.41,-190 1692.63,-180.104 1689.41,-190.2 1696.41,-190"/>
</g>
<!-- i915_perf_remove_config -->
<g id="node29" class="node"><title>i915_perf_remove_config</title>
<ellipse fill="none" stroke="black" cx="1872.14" cy="-162" rx="102.882" ry="18"/>
<text text-anchor="middle" x="1872.14" y="-158.3" font-family="Times,serif" font-size="14.00">i915_perf_remove_config</text>
</g>
<!-- test_whitelisted_registers_userspace_config&#45;&gt;i915_perf_remove_config -->
<g id="edge32" class="edge"><title>test_whitelisted_registers_userspace_config&#45;&gt;i915_perf_remove_config</title>
<path fill="none" stroke="black" d="M1736.32,-216.411C1762.35,-206.176 1795.84,-193.005 1823.05,-182.303"/>
<polygon fill="black" stroke="black" points="1824.37,-185.547 1832.39,-178.63 1821.81,-179.032 1824.37,-185.547"/>
</g>
<!-- init_sys_info -->
<g id="node30" class="node"><title>init_sys_info</title>
<ellipse fill="none" stroke="black" cx="1934.14" cy="-234" rx="56.59" ry="18"/>
<text text-anchor="middle" x="1934.14" y="-230.3" font-family="Times,serif" font-size="14.00">init_sys_info</text>
</g>
<!-- init_sys_info&#45;&gt;read_u64_file -->
<g id="edge36" class="edge"><title>init_sys_info&#45;&gt;read_u64_file</title>
<path fill="none" stroke="black" d="M1893.63,-221.284C1852.35,-209.343 1788.2,-190.785 1743.4,-177.828"/>
<polygon fill="black" stroke="black" points="1744.17,-174.406 1733.59,-174.989 1742.22,-181.13 1744.17,-174.406"/>
</g>
<!-- init_sys_info&#45;&gt;max_oa_exponent_for_period_lte -->
<g id="edge35" class="edge"><title>init_sys_info&#45;&gt;max_oa_exponent_for_period_lte</title>
<path fill="none" stroke="black" d="M1969.8,-219.998C1998.72,-209.454 2039.93,-194.431 2072.78,-182.455"/>
<polygon fill="black" stroke="black" points="2074.04,-185.719 2082.24,-179.005 2071.65,-179.142 2074.04,-185.719"/>
</g>
<!-- write_to_flexible_eu_registers -->
<g id="node31" class="node"><title>write_to_flexible_eu_registers</title>
<ellipse fill="none" stroke="black" cx="1393.14" cy="-234" rx="118.079" ry="18"/>
<text text-anchor="middle" x="1393.14" y="-230.3" font-family="Times,serif" font-size="14.00">write_to_flexible_eu_registers</text>
</g>
<!-- write_to_flexible_eu_registers&#45;&gt;__perf_open -->
<g id="edge40" class="edge"><title>write_to_flexible_eu_registers&#45;&gt;__perf_open</title>
<path fill="none" stroke="black" d="M1393.14,-215.697C1393.14,-207.983 1393.14,-198.712 1393.14,-190.112"/>
<polygon fill="black" stroke="black" points="1396.64,-190.104 1393.14,-180.104 1389.64,-190.104 1396.64,-190.104"/>
</g>
<!-- write_to_flexible_eu_registers&#45;&gt;__perf_close -->
<g id="edge39" class="edge"><title>write_to_flexible_eu_registers&#45;&gt;__perf_close</title>
<path fill="none" stroke="black" d="M1414.19,-216.16C1426.82,-205.91 1443.1,-192.437 1457.14,-180 1474.55,-164.572 1474.02,-153.766 1495.14,-144 1629.85,-81.6972 1681.17,-134.851 1827.14,-108 1831.91,-107.123 1836.84,-106.083 1841.76,-104.955"/>
<polygon fill="black" stroke="black" points="1842.88,-108.286 1851.78,-102.543 1841.24,-101.481 1842.88,-108.286"/>
</g>
<!-- write_to_flexible_eu_registers&#45;&gt;send_mi_store_reg_mem -->
<g id="edge37" class="edge"><title>write_to_flexible_eu_registers&#45;&gt;send_mi_store_reg_mem</title>
<path fill="none" stroke="black" d="M1304.6,-222.002C1185.2,-207.161 985.53,-182.302 969.139,-180 960.526,-178.79 951.54,-177.475 942.582,-176.129"/>
<polygon fill="black" stroke="black" points="942.915,-172.64 932.503,-174.601 941.866,-179.561 942.915,-172.64"/>
</g>
<!-- print_binary -->
<g id="node32" class="node"><title>print_binary</title>
<ellipse fill="none" stroke="black" cx="1558.14" cy="-162" rx="53.8905" ry="18"/>
<text text-anchor="middle" x="1558.14" y="-158.3" font-family="Times,serif" font-size="14.00">print_binary</text>
</g>
<!-- write_to_flexible_eu_registers&#45;&gt;print_binary -->
<g id="edge38" class="edge"><title>write_to_flexible_eu_registers&#45;&gt;print_binary</title>
<path fill="none" stroke="black" d="M1430.99,-216.941C1456.58,-206.084 1490.38,-191.748 1516.69,-180.584"/>
<polygon fill="black" stroke="black" points="1518.18,-183.755 1526.02,-176.627 1515.45,-177.311 1518.18,-183.755"/>
</g>
<!-- oa_exponent_to_ns -->
<g id="node33" class="node"><title>oa_exponent_to_ns</title>
<ellipse fill="none" stroke="black" cx="2557.14" cy="-234" rx="79.0865" ry="18"/>
<text text-anchor="middle" x="2557.14" y="-230.3" font-family="Times,serif" font-size="14.00">oa_exponent_to_ns</text>
</g>
<!-- read_i915_module_ref -->
<g id="node34" class="node"><title>read_i915_module_ref</title>
<ellipse fill="none" stroke="black" cx="2745.14" cy="-234" rx="90.9839" ry="18"/>
<text text-anchor="middle" x="2745.14" y="-230.3" font-family="Times,serif" font-size="14.00">read_i915_module_ref</text>
</g>
<!-- oa_report_is_periodic -->
<g id="node35" class="node"><title>oa_report_is_periodic</title>
<ellipse fill="none" stroke="black" cx="2942.14" cy="-234" rx="87.9851" ry="18"/>
<text text-anchor="middle" x="2942.14" y="-230.3" font-family="Times,serif" font-size="14.00">oa_report_is_periodic</text>
</g>
<!-- write_u64_file -->
<g id="node36" class="node"><title>write_u64_file</title>
<ellipse fill="none" stroke="black" cx="3110.14" cy="-234" rx="62.2891" ry="18"/>
<text text-anchor="middle" x="3110.14" y="-230.3" font-family="Times,serif" font-size="14.00">write_u64_file</text>
</g>
<!-- gen8_read_report_ticks -->
<g id="node37" class="node"><title>gen8_read_report_ticks</title>
<ellipse fill="none" stroke="black" cx="3284.14" cy="-234" rx="93.6835" ry="18"/>
<text text-anchor="middle" x="3284.14" y="-230.3" font-family="Times,serif" font-size="14.00">gen8_read_report_ticks</text>
</g>
</g>
</svg>
