<?xml version="1.0" encoding="UTF-8" standalone="no"?>
<!DOCTYPE svg PUBLIC "-//W3C//DTD SVG 1.1//EN"
 "http://www.w3.org/Graphics/SVG/1.1/DTD/svg11.dtd">
<!-- Generated by graphviz version 2.38.0 (20140413.2041)
 -->
<!-- Title: callgraph Pages: 1 -->
<svg width="4558pt" height="260pt"
 viewBox="0.00 0.00 4557.64 260.00" xmlns="http://www.w3.org/2000/svg" xmlns:xlink="http://www.w3.org/1999/xlink">
<g id="graph0" class="graph" transform="scale(1 1) rotate(0) translate(4 256)">
<title>callgraph</title>
<polygon fill="white" stroke="none" points="-4,4 -4,-256 4553.64,-256 4553.64,4 -4,4"/>
<!-- print_reports -->
<g id="node1" class="node"><title>print_reports</title>
<ellipse fill="none" stroke="black" cx="652.493" cy="-162" rx="55.7903" ry="18"/>
<text text-anchor="middle" x="652.493" y="-158.3" font-family="Times,serif" font-size="14.00">print_reports</text>
</g>
<!-- gen8_40bit_a_delta -->
<g id="node2" class="node"><title>gen8_40bit_a_delta</title>
<ellipse fill="none" stroke="black" cx="396.493" cy="-90" rx="79.8859" ry="18"/>
<text text-anchor="middle" x="396.493" y="-86.3" font-family="Times,serif" font-size="14.00">gen8_40bit_a_delta</text>
</g>
<!-- print_reports&#45;&gt;gen8_40bit_a_delta -->
<g id="edge1" class="edge"><title>print_reports&#45;&gt;gen8_40bit_a_delta</title>
<path fill="none" stroke="black" d="M611.362,-149.753C569.137,-138.207 503.032,-120.132 455.291,-107.078"/>
<polygon fill="black" stroke="black" points="455.967,-103.634 445.398,-104.373 454.12,-110.386 455.967,-103.634"/>
</g>
<!-- gen8_read_report_clock_ratios -->
<g id="node3" class="node"><title>gen8_read_report_clock_ratios</title>
<ellipse fill="none" stroke="black" cx="849.493" cy="-90" rx="120.479" ry="18"/>
<text text-anchor="middle" x="849.493" y="-86.3" font-family="Times,serif" font-size="14.00">gen8_read_report_clock_ratios</text>
</g>
<!-- print_reports&#45;&gt;gen8_read_report_clock_ratios -->
<g id="edge2" class="edge"><title>print_reports&#45;&gt;gen8_read_report_clock_ratios</title>
<path fill="none" stroke="black" d="M688.625,-148.161C718.45,-137.564 761.233,-122.361 795.181,-110.298"/>
<polygon fill="black" stroke="black" points="796.705,-113.472 804.956,-106.825 794.361,-106.876 796.705,-113.472"/>
</g>
<!-- get_oa_format -->
<g id="node4" class="node"><title>get_oa_format</title>
<ellipse fill="none" stroke="black" cx="997.493" cy="-18" rx="62.2891" ry="18"/>
<text text-anchor="middle" x="997.493" y="-14.3" font-family="Times,serif" font-size="14.00">get_oa_format</text>
</g>
<!-- print_reports&#45;&gt;get_oa_format -->
<g id="edge3" class="edge"><title>print_reports&#45;&gt;get_oa_format</title>
<path fill="none" stroke="black" d="M692.944,-149.45C700.719,-147.459 708.828,-145.538 716.493,-144 774.113,-132.434 935.432,-147.995 978.493,-108 995.174,-92.5057 999.096,-66.2549 999.337,-46.2666"/>
<polygon fill="black" stroke="black" points="1002.84,-46.1332 999.163,-36.1951 995.837,-46.2541 1002.84,-46.1332"/>
</g>
<!-- gen8_read_40bit_a_counter -->
<g id="node5" class="node"><title>gen8_read_40bit_a_counter</title>
<ellipse fill="none" stroke="black" cx="602.493" cy="-90" rx="108.581" ry="18"/>
<text text-anchor="middle" x="602.493" y="-86.3" font-family="Times,serif" font-size="14.00">gen8_read_40bit_a_counter</text>
</g>
<!-- print_reports&#45;&gt;gen8_read_40bit_a_counter -->
<g id="edge4" class="edge"><title>print_reports&#45;&gt;gen8_read_40bit_a_counter</title>
<path fill="none" stroke="black" d="M640.389,-144.055C634.519,-135.837 627.343,-125.791 620.821,-116.66"/>
<polygon fill="black" stroke="black" points="623.492,-114.378 614.832,-108.275 617.796,-118.447 623.492,-114.378"/>
</g>
<!-- gen8_read_report_reason -->
<g id="node6" class="node"><title>gen8_read_report_reason</title>
<ellipse fill="none" stroke="black" cx="1325.49" cy="-90" rx="100.182" ry="18"/>
<text text-anchor="middle" x="1325.49" y="-86.3" font-family="Times,serif" font-size="14.00">gen8_read_report_reason</text>
</g>
<!-- print_reports&#45;&gt;gen8_read_report_reason -->
<g id="edge5" class="edge"><title>print_reports&#45;&gt;gen8_read_report_reason</title>
<path fill="none" stroke="black" d="M692.184,-149.221C700.174,-147.201 708.555,-145.328 716.493,-144 936.236,-107.24 995.123,-133.188 1216.49,-108 1225.81,-106.939 1235.56,-105.662 1245.22,-104.29"/>
<polygon fill="black" stroke="black" points="1245.86,-107.735 1255.25,-102.831 1244.85,-100.808 1245.86,-107.735"/>
</g>
<!-- gen8_read_40bit_a_counter&#45;&gt;get_oa_format -->
<g id="edge43" class="edge"><title>gen8_read_40bit_a_counter&#45;&gt;get_oa_format</title>
<path fill="none" stroke="black" d="M674.024,-76.3235C748.719,-63.0865 864.67,-42.5381 935.569,-29.9738"/>
<polygon fill="black" stroke="black" points="936.456,-33.3711 945.692,-28.1798 935.235,-26.4785 936.456,-33.3711"/>
</g>
<!-- hsw_read_report_ticks -->
<g id="node7" class="node"><title>hsw_read_report_ticks</title>
<ellipse fill="none" stroke="black" cx="1116.49" cy="-90" rx="90.9839" ry="18"/>
<text text-anchor="middle" x="1116.49" y="-86.3" font-family="Times,serif" font-size="14.00">hsw_read_report_ticks</text>
</g>
<!-- hsw_read_report_ticks&#45;&gt;get_oa_format -->
<g id="edge6" class="edge"><title>hsw_read_report_ticks&#45;&gt;get_oa_format</title>
<path fill="none" stroke="black" d="M1088.89,-72.7646C1072.17,-62.9283 1050.68,-50.2845 1032.73,-39.7298"/>
<polygon fill="black" stroke="black" points="1034.11,-36.4802 1023.72,-34.4268 1030.56,-42.5138 1034.11,-36.4802"/>
</g>
<!-- measure_overheads -->
<g id="node8" class="node"><title>measure_overheads</title>
<ellipse fill="none" stroke="black" cx="1621.49" cy="-234" rx="80.6858" ry="18"/>
<text text-anchor="middle" x="1621.49" y="-230.3" font-family="Times,serif" font-size="14.00">measure_overheads</text>
</g>
<!-- read_tsc_start -->
<g id="node9" class="node"><title>read_tsc_start</title>
<ellipse fill="none" stroke="black" cx="1019.49" cy="-162" rx="59.5901" ry="18"/>
<text text-anchor="middle" x="1019.49" y="-158.3" font-family="Times,serif" font-size="14.00">read_tsc_start</text>
</g>
<!-- measure_overheads&#45;&gt;read_tsc_start -->
<g id="edge7" class="edge"><title>measure_overheads&#45;&gt;read_tsc_start</title>
<path fill="none" stroke="black" d="M1549.41,-225.899C1405.14,-211.676 1094.12,-180.968 1088.49,-180 1083.17,-179.085 1077.66,-177.986 1072.17,-176.793"/>
<polygon fill="black" stroke="black" points="1072.88,-173.368 1062.36,-174.563 1071.33,-180.193 1072.88,-173.368"/>
</g>
<!-- read_tsc_end -->
<g id="node10" class="node"><title>read_tsc_end</title>
<ellipse fill="none" stroke="black" cx="884.493" cy="-162" rx="57.3905" ry="18"/>
<text text-anchor="middle" x="884.493" y="-158.3" font-family="Times,serif" font-size="14.00">read_tsc_end</text>
</g>
<!-- measure_overheads&#45;&gt;read_tsc_end -->
<g id="edge8" class="edge"><title>measure_overheads&#45;&gt;read_tsc_end</title>
<path fill="none" stroke="black" d="M1549.99,-225.556C1518.83,-222.42 1481.87,-218.846 1448.49,-216 1227.38,-197.148 1169.49,-215.821 950.493,-180 945.511,-179.185 940.358,-178.17 935.228,-177.044"/>
<polygon fill="black" stroke="black" points="935.975,-173.624 925.442,-174.765 934.387,-180.442 935.975,-173.624"/>
</g>
<!-- average -->
<g id="node11" class="node"><title>average</title>
<ellipse fill="none" stroke="black" cx="1869.49" cy="-162" rx="38.1938" ry="18"/>
<text text-anchor="middle" x="1869.49" y="-158.3" font-family="Times,serif" font-size="14.00">average</text>
</g>
<!-- measure_overheads&#45;&gt;average -->
<g id="edge9" class="edge"><title>measure_overheads&#45;&gt;average</title>
<path fill="none" stroke="black" d="M1674.04,-220.317C1714.57,-210.236 1771.9,-195.325 1821.49,-180 1824.44,-179.09 1827.47,-178.112 1830.52,-177.102"/>
<polygon fill="black" stroke="black" points="1831.84,-180.349 1840.17,-173.81 1829.58,-173.724 1831.84,-180.349"/>
</g>
<!-- median -->
<g id="node12" class="node"><title>median</title>
<ellipse fill="none" stroke="black" cx="1134.49" cy="-162" rx="37.0935" ry="18"/>
<text text-anchor="middle" x="1134.49" y="-158.3" font-family="Times,serif" font-size="14.00">median</text>
</g>
<!-- measure_overheads&#45;&gt;median -->
<g id="edge10" class="edge"><title>measure_overheads&#45;&gt;median</title>
<path fill="none" stroke="black" d="M1550.29,-225.368C1434.69,-212.839 1215.54,-188.457 1180.49,-180 1177.53,-179.284 1174.49,-178.435 1171.46,-177.505"/>
<polygon fill="black" stroke="black" points="1172.49,-174.16 1161.9,-174.319 1170.28,-180.801 1172.49,-174.16"/>
</g>
<!-- umin -->
<g id="node13" class="node"><title>umin</title>
<ellipse fill="none" stroke="black" cx="1783.49" cy="-162" rx="29.4969" ry="18"/>
<text text-anchor="middle" x="1783.49" y="-158.3" font-family="Times,serif" font-size="14.00">umin</text>
</g>
<!-- measure_overheads&#45;&gt;umin -->
<g id="edge11" class="edge"><title>measure_overheads&#45;&gt;umin</title>
<path fill="none" stroke="black" d="M1657.37,-217.851C1682.17,-207.336 1715.89,-192.946 1745.49,-180 1747.33,-179.196 1749.22,-178.367 1751.12,-177.527"/>
<polygon fill="black" stroke="black" points="1752.89,-180.568 1760.61,-173.31 1750.05,-174.171 1752.89,-180.568"/>
</g>
<!-- umax -->
<g id="node14" class="node"><title>umax</title>
<ellipse fill="none" stroke="black" cx="1705.49" cy="-162" rx="30.5947" ry="18"/>
<text text-anchor="middle" x="1705.49" y="-158.3" font-family="Times,serif" font-size="14.00">umax</text>
</g>
<!-- measure_overheads&#45;&gt;umax -->
<g id="edge12" class="edge"><title>measure_overheads&#45;&gt;umax</title>
<path fill="none" stroke="black" d="M1641.4,-216.411C1653.18,-206.594 1668.2,-194.076 1680.74,-183.627"/>
<polygon fill="black" stroke="black" points="1683.12,-186.198 1688.56,-177.108 1678.64,-180.821 1683.12,-186.198"/>
</g>
<!-- intel_batchbuffer_require_space -->
<g id="node15" class="node"><title>intel_batchbuffer_require_space</title>
<ellipse fill="none" stroke="black" cx="2237.49" cy="-90" rx="124.278" ry="18"/>
<text text-anchor="middle" x="2237.49" y="-86.3" font-family="Times,serif" font-size="14.00">intel_batchbuffer_require_space</text>
</g>
<!-- intel_batchbuffer_space -->
<g id="node16" class="node"><title>intel_batchbuffer_space</title>
<ellipse fill="none" stroke="black" cx="2107.49" cy="-18" rx="94.7833" ry="18"/>
<text text-anchor="middle" x="2107.49" y="-14.3" font-family="Times,serif" font-size="14.00">intel_batchbuffer_space</text>
</g>
<!-- intel_batchbuffer_require_space&#45;&gt;intel_batchbuffer_space -->
<g id="edge13" class="edge"><title>intel_batchbuffer_require_space&#45;&gt;intel_batchbuffer_space</title>
<path fill="none" stroke="black" d="M2206.68,-72.411C2188.66,-62.7082 2165.74,-50.3664 2146.48,-39.9915"/>
<polygon fill="black" stroke="black" points="2148.1,-36.8879 2137.63,-35.2285 2144.78,-43.0512 2148.1,-36.8879"/>
</g>
<!-- read_counters_mmio -->
<g id="node17" class="node"><title>read_counters_mmio</title>
<ellipse fill="none" stroke="black" cx="309.493" cy="-234" rx="85.5853" ry="18"/>
<text text-anchor="middle" x="309.493" y="-230.3" font-family="Times,serif" font-size="14.00">read_counters_mmio</text>
</g>
<!-- read_counters_mmio&#45;&gt;read_tsc_start -->
<g id="edge19" class="edge"><title>read_counters_mmio&#45;&gt;read_tsc_start</title>
<path fill="none" stroke="black" d="M390.388,-227.924C537.834,-218.404 844.836,-197.271 950.493,-180 955.819,-179.129 961.341,-178.06 966.835,-176.884"/>
<polygon fill="black" stroke="black" points="967.659,-180.287 976.646,-174.676 966.121,-173.458 967.659,-180.287"/>
</g>
<!-- read_counters_mmio&#45;&gt;read_tsc_end -->
<g id="edge18" class="edge"><title>read_counters_mmio&#45;&gt;read_tsc_end</title>
<path fill="none" stroke="black" d="M391.119,-228.244C492.09,-221.504 668.965,-206.889 818.493,-180 823.46,-179.107 828.605,-178.039 833.729,-176.88"/>
<polygon fill="black" stroke="black" points="834.586,-180.274 843.508,-174.56 832.97,-173.463 834.586,-180.274"/>
</g>
<!-- read_u64_file -->
<g id="node18" class="node"><title>read_u64_file</title>
<ellipse fill="none" stroke="black" cx="518.493" cy="-162" rx="59.5901" ry="18"/>
<text text-anchor="middle" x="518.493" y="-158.3" font-family="Times,serif" font-size="14.00">read_u64_file</text>
</g>
<!-- read_counters_mmio&#45;&gt;read_u64_file -->
<g id="edge14" class="edge"><title>read_counters_mmio&#45;&gt;read_u64_file</title>
<path fill="none" stroke="black" d="M353.051,-218.411C387.278,-206.947 434.913,-190.993 470.283,-179.147"/>
<polygon fill="black" stroke="black" points="471.542,-182.416 479.913,-175.921 469.319,-175.779 471.542,-182.416"/>
</g>
<!-- __perf_open -->
<g id="node19" class="node"><title>__perf_open</title>
<ellipse fill="none" stroke="black" cx="309.493" cy="-162" rx="55.4913" ry="18"/>
<text text-anchor="middle" x="309.493" y="-158.3" font-family="Times,serif" font-size="14.00">__perf_open</text>
</g>
<!-- read_counters_mmio&#45;&gt;__perf_open -->
<g id="edge15" class="edge"><title>read_counters_mmio&#45;&gt;__perf_open</title>
<path fill="none" stroke="black" d="M309.493,-215.697C309.493,-207.983 309.493,-198.712 309.493,-190.112"/>
<polygon fill="black" stroke="black" points="312.993,-190.104 309.493,-180.104 305.993,-190.104 312.993,-190.104"/>
</g>
<!-- scratch_buf_init -->
<g id="node20" class="node"><title>scratch_buf_init</title>
<ellipse fill="none" stroke="black" cx="168.493" cy="-162" rx="67.6881" ry="18"/>
<text text-anchor="middle" x="168.493" y="-158.3" font-family="Times,serif" font-size="14.00">scratch_buf_init</text>
</g>
<!-- read_counters_mmio&#45;&gt;scratch_buf_init -->
<g id="edge16" class="edge"><title>read_counters_mmio&#45;&gt;scratch_buf_init</title>
<path fill="none" stroke="black" d="M277.497,-217.116C256.88,-206.88 229.924,-193.498 207.977,-182.602"/>
<polygon fill="black" stroke="black" points="209.424,-179.413 198.911,-178.101 206.312,-185.683 209.424,-179.413"/>
</g>
<!-- __perf_close -->
<g id="node21" class="node"><title>__perf_close</title>
<ellipse fill="none" stroke="black" cx="242.493" cy="-90" rx="55.7903" ry="18"/>
<text text-anchor="middle" x="242.493" y="-86.3" font-family="Times,serif" font-size="14.00">__perf_close</text>
</g>
<!-- read_counters_mmio&#45;&gt;__perf_close -->
<g id="edge17" class="edge"><title>read_counters_mmio&#45;&gt;__perf_close</title>
<path fill="none" stroke="black" d="M235.625,-224.8C179.62,-216.882 109.334,-202.699 91.4925,-180 81.6051,-167.421 82.24,-157.053 91.4925,-144 97.6652,-135.292 150.843,-117.939 192.366,-105.459"/>
<polygon fill="black" stroke="black" points="193.515,-108.769 202.098,-102.558 191.515,-102.06 193.515,-108.769"/>
</g>
<!-- scratch_buf_memset -->
<g id="node22" class="node"><title>scratch_buf_memset</title>
<ellipse fill="none" stroke="black" cx="84.4925" cy="-90" rx="84.485" ry="18"/>
<text text-anchor="middle" x="84.4925" y="-86.3" font-family="Times,serif" font-size="14.00">scratch_buf_memset</text>
</g>
<!-- read_counters_mmio&#45;&gt;scratch_buf_memset -->
<g id="edge20" class="edge"><title>read_counters_mmio&#45;&gt;scratch_buf_memset</title>
<path fill="none" stroke="black" d="M233.722,-225.549C174.635,-217.989 99.5069,-203.918 80.4925,-180 66.7857,-162.759 69.5662,-137.159 74.7324,-117.835"/>
<polygon fill="black" stroke="black" points="78.129,-118.694 77.6673,-108.109 71.4275,-116.672 78.129,-118.694"/>
</g>
<!-- __perf_open&#45;&gt;__perf_close -->
<g id="edge48" class="edge"><title>__perf_open&#45;&gt;__perf_close</title>
<path fill="none" stroke="black" d="M293.614,-144.411C285.187,-135.606 274.68,-124.628 265.386,-114.919"/>
<polygon fill="black" stroke="black" points="267.7,-112.274 258.257,-107.47 262.643,-117.114 267.7,-112.274"/>
</g>
<!-- scratch_buf_init&#45;&gt;scratch_buf_memset -->
<g id="edge26" class="edge"><title>scratch_buf_init&#45;&gt;scratch_buf_memset</title>
<path fill="none" stroke="black" d="M148.586,-144.411C137.785,-135.41 124.259,-124.139 112.42,-114.273"/>
<polygon fill="black" stroke="black" points="114.47,-111.426 104.548,-107.713 109.989,-116.803 114.47,-111.426"/>
</g>
<!-- max_oa_exponent_for_period_lte -->
<g id="node23" class="node"><title>max_oa_exponent_for_period_lte</title>
<ellipse fill="none" stroke="black" cx="1319.49" cy="-162" rx="129.977" ry="18"/>
<text text-anchor="middle" x="1319.49" y="-158.3" font-family="Times,serif" font-size="14.00">max_oa_exponent_for_period_lte</text>
</g>
<!-- timebase_scale -->
<g id="node24" class="node"><title>timebase_scale</title>
<ellipse fill="none" stroke="black" cx="1507.49" cy="-90" rx="64.189" ry="18"/>
<text text-anchor="middle" x="1507.49" y="-86.3" font-family="Times,serif" font-size="14.00">timebase_scale</text>
</g>
<!-- max_oa_exponent_for_period_lte&#45;&gt;timebase_scale -->
<g id="edge21" class="edge"><title>max_oa_exponent_for_period_lte&#45;&gt;timebase_scale</title>
<path fill="none" stroke="black" d="M1362.62,-144.941C1391.97,-134.014 1430.78,-119.563 1460.85,-108.369"/>
<polygon fill="black" stroke="black" points="1462.13,-111.627 1470.28,-104.857 1459.68,-105.067 1462.13,-111.627"/>
</g>
<!-- init_sys_info -->
<g id="node25" class="node"><title>init_sys_info</title>
<ellipse fill="none" stroke="black" cx="963.493" cy="-234" rx="56.59" ry="18"/>
<text text-anchor="middle" x="963.493" y="-230.3" font-family="Times,serif" font-size="14.00">init_sys_info</text>
</g>
<!-- init_sys_info&#45;&gt;read_u64_file -->
<g id="edge22" class="edge"><title>init_sys_info&#45;&gt;read_u64_file</title>
<path fill="none" stroke="black" d="M910.903,-227.295C837.945,-218.994 702.059,-202.128 587.493,-180 582.473,-179.03 577.271,-177.929 572.076,-176.765"/>
<polygon fill="black" stroke="black" points="572.678,-173.312 562.147,-174.465 571.099,-180.131 572.678,-173.312"/>
</g>
<!-- init_sys_info&#45;&gt;max_oa_exponent_for_period_lte -->
<g id="edge23" class="edge"><title>init_sys_info&#45;&gt;max_oa_exponent_for_period_lte</title>
<path fill="none" stroke="black" d="M1010.4,-223.777C1068.17,-212.418 1167.27,-192.932 1237.67,-179.088"/>
<polygon fill="black" stroke="black" points="1238.71,-182.452 1247.84,-177.088 1237.36,-175.583 1238.71,-182.452"/>
</g>
<!-- send_mi_load_reg_mem -->
<g id="node26" class="node"><title>send_mi_load_reg_mem</title>
<ellipse fill="none" stroke="black" cx="2062.49" cy="-162" rx="98.5829" ry="18"/>
<text text-anchor="middle" x="2062.49" y="-158.3" font-family="Times,serif" font-size="14.00">send_mi_load_reg_mem</text>
</g>
<!-- send_mi_load_reg_mem&#45;&gt;intel_batchbuffer_require_space -->
<g id="edge24" class="edge"><title>send_mi_load_reg_mem&#45;&gt;intel_batchbuffer_require_space</title>
<path fill="none" stroke="black" d="M2101.77,-145.291C2127.19,-135.122 2160.51,-121.795 2187.77,-110.89"/>
<polygon fill="black" stroke="black" points="2189.15,-114.106 2197.14,-107.142 2186.55,-107.607 2189.15,-114.106"/>
</g>
<!-- intel_batchbuffer_emit_dword -->
<g id="node27" class="node"><title>intel_batchbuffer_emit_dword</title>
<ellipse fill="none" stroke="black" cx="1977.49" cy="-90" rx="118.079" ry="18"/>
<text text-anchor="middle" x="1977.49" y="-86.3" font-family="Times,serif" font-size="14.00">intel_batchbuffer_emit_dword</text>
</g>
<!-- send_mi_load_reg_mem&#45;&gt;intel_batchbuffer_emit_dword -->
<g id="edge25" class="edge"><title>send_mi_load_reg_mem&#45;&gt;intel_batchbuffer_emit_dword</title>
<path fill="none" stroke="black" d="M2041.92,-144.055C2031.06,-135.113 2017.57,-124.005 2005.75,-114.268"/>
<polygon fill="black" stroke="black" points="2007.82,-111.444 1997.88,-107.789 2003.37,-116.848 2007.82,-111.444"/>
</g>
<!-- intel_batchbuffer_emit_dword&#45;&gt;intel_batchbuffer_space -->
<g id="edge49" class="edge"><title>intel_batchbuffer_emit_dword&#45;&gt;intel_batchbuffer_space</title>
<path fill="none" stroke="black" d="M2007.97,-72.5881C2025.98,-62.89 2048.97,-50.5096 2068.32,-40.0923"/>
<polygon fill="black" stroke="black" points="2070.06,-43.1318 2077.2,-35.3091 2066.74,-36.9685 2070.06,-43.1318"/>
</g>
<!-- max_oa_exponent_for_freq_gt -->
<g id="node28" class="node"><title>max_oa_exponent_for_freq_gt</title>
<ellipse fill="none" stroke="black" cx="1319.49" cy="-234" rx="120.479" ry="18"/>
<text text-anchor="middle" x="1319.49" y="-230.3" font-family="Times,serif" font-size="14.00">max_oa_exponent_for_freq_gt</text>
</g>
<!-- max_oa_exponent_for_freq_gt&#45;&gt;max_oa_exponent_for_period_lte -->
<g id="edge27" class="edge"><title>max_oa_exponent_for_freq_gt&#45;&gt;max_oa_exponent_for_period_lte</title>
<path fill="none" stroke="black" d="M1319.49,-215.697C1319.49,-207.983 1319.49,-198.712 1319.49,-190.112"/>
<polygon fill="black" stroke="black" points="1322.99,-190.104 1319.49,-180.104 1315.99,-190.104 1322.99,-190.104"/>
</g>
<!-- read_counters_rpc -->
<g id="node29" class="node"><title>read_counters_rpc</title>
<ellipse fill="none" stroke="black" cx="652.493" cy="-234" rx="75.2868" ry="18"/>
<text text-anchor="middle" x="652.493" y="-230.3" font-family="Times,serif" font-size="14.00">read_counters_rpc</text>
</g>
<!-- read_counters_rpc&#45;&gt;print_reports -->
<g id="edge28" class="edge"><title>read_counters_rpc&#45;&gt;print_reports</title>
<path fill="none" stroke="black" d="M652.493,-215.697C652.493,-207.983 652.493,-198.712 652.493,-190.112"/>
<polygon fill="black" stroke="black" points="655.993,-190.104 652.493,-180.104 648.993,-190.104 655.993,-190.104"/>
</g>
<!-- read_counters_rpc&#45;&gt;read_tsc_start -->
<g id="edge31" class="edge"><title>read_counters_rpc&#45;&gt;read_tsc_start</title>
<path fill="none" stroke="black" d="M713.502,-223.351C773.895,-213.518 868.884,-197.291 950.493,-180 955.42,-178.956 960.531,-177.812 965.642,-176.628"/>
<polygon fill="black" stroke="black" points="966.495,-180.023 975.42,-174.315 964.883,-173.211 966.495,-180.023"/>
</g>
<!-- read_counters_rpc&#45;&gt;read_tsc_end -->
<g id="edge30" class="edge"><title>read_counters_rpc&#45;&gt;read_tsc_end</title>
<path fill="none" stroke="black" d="M697.224,-219.503C736.637,-207.612 793.97,-190.313 834.8,-177.993"/>
<polygon fill="black" stroke="black" points="835.982,-181.293 844.544,-175.053 833.96,-174.591 835.982,-181.293"/>
</g>
<!-- read_counters_rpc&#45;&gt;median -->
<g id="edge35" class="edge"><title>read_counters_rpc&#45;&gt;median</title>
<path fill="none" stroke="black" d="M725.549,-229.326C812.908,-223.743 963.059,-210.361 1088.49,-180 1091.46,-179.282 1094.5,-178.432 1097.53,-177.501"/>
<polygon fill="black" stroke="black" points="1098.71,-180.796 1107.09,-174.312 1096.49,-174.156 1098.71,-180.796"/>
</g>
<!-- read_counters_rpc&#45;&gt;read_u64_file -->
<g id="edge37" class="edge"><title>read_counters_rpc&#45;&gt;read_u64_file</title>
<path fill="none" stroke="black" d="M622.42,-217.291C602.793,-207.038 577.017,-193.573 556.046,-182.618"/>
<polygon fill="black" stroke="black" points="557.571,-179.466 547.087,-177.938 554.33,-185.67 557.571,-179.466"/>
</g>
<!-- read_counters_rpc&#45;&gt;__perf_open -->
<g id="edge36" class="edge"><title>read_counters_rpc&#45;&gt;__perf_open</title>
<path fill="none" stroke="black" d="M594.056,-222.58C538.462,-212.459 452.551,-196.275 378.493,-180 373.07,-178.808 367.422,-177.51 361.795,-176.18"/>
<polygon fill="black" stroke="black" points="362.283,-172.698 351.743,-173.767 360.65,-179.505 362.283,-172.698"/>
</g>
<!-- read_counters_rpc&#45;&gt;scratch_buf_init -->
<g id="edge34" class="edge"><title>read_counters_rpc&#45;&gt;scratch_buf_init</title>
<path fill="none" stroke="black" d="M584.882,-226.034C503.901,-217.268 364.285,-200.807 245.493,-180 239.705,-178.986 233.693,-177.835 227.695,-176.62"/>
<polygon fill="black" stroke="black" points="228.161,-173.142 217.657,-174.529 226.733,-179.994 228.161,-173.142"/>
</g>
<!-- read_counters_rpc&#45;&gt;__perf_close -->
<g id="edge32" class="edge"><title>read_counters_rpc&#45;&gt;__perf_close</title>
<path fill="none" stroke="black" d="M589.517,-223.95C548.059,-216.247 493.518,-202.708 449.493,-180 427.341,-168.574 428.308,-156.054 406.493,-144 386.834,-133.138 333.835,-116.789 293.358,-105.124"/>
<polygon fill="black" stroke="black" points="294.204,-101.726 283.627,-102.34 292.279,-108.456 294.204,-101.726"/>
</g>
<!-- read_counters_rpc&#45;&gt;scratch_buf_memset -->
<g id="edge29" class="edge"><title>read_counters_rpc&#45;&gt;scratch_buf_memset</title>
<path fill="none" stroke="black" d="M579.972,-229.012C528.643,-223.511 459.745,-210.528 406.493,-180 387.662,-169.205 392.487,-154.503 373.493,-144 373.191,-143.834 241.829,-119.782 156.335,-104.14"/>
<polygon fill="black" stroke="black" points="156.873,-100.68 146.406,-102.323 155.613,-107.566 156.873,-100.68"/>
</g>
<!-- umedian -->
<g id="node30" class="node"><title>umedian</title>
<ellipse fill="none" stroke="black" cx="767.493" cy="-162" rx="41.6928" ry="18"/>
<text text-anchor="middle" x="767.493" y="-158.3" font-family="Times,serif" font-size="14.00">umedian</text>
</g>
<!-- read_counters_rpc&#45;&gt;umedian -->
<g id="edge33" class="edge"><title>read_counters_rpc&#45;&gt;umedian</title>
<path fill="none" stroke="black" d="M678.876,-216.941C695.704,-206.698 717.62,-193.357 735.446,-182.506"/>
<polygon fill="black" stroke="black" points="737.625,-185.278 744.347,-177.089 733.985,-179.298 737.625,-185.278"/>
</g>
<!-- emit_report_perf_count -->
<g id="node31" class="node"><title>emit_report_perf_count</title>
<ellipse fill="none" stroke="black" cx="1562.49" cy="-162" rx="94.7833" ry="18"/>
<text text-anchor="middle" x="1562.49" y="-158.3" font-family="Times,serif" font-size="14.00">emit_report_perf_count</text>
</g>
<!-- read_counters_rpc&#45;&gt;emit_report_perf_count -->
<g id="edge38" class="edge"><title>read_counters_rpc&#45;&gt;emit_report_perf_count</title>
<path fill="none" stroke="black" d="M723.779,-227.956C772.659,-224.521 838.997,-219.906 897.493,-216 1146.78,-199.353 1210.24,-208.186 1458.49,-180 1467.44,-178.984 1476.78,-177.731 1486.05,-176.369"/>
<polygon fill="black" stroke="black" points="1486.69,-179.813 1496.05,-174.855 1485.64,-172.892 1486.69,-179.813"/>
</g>
<!-- emit_report_perf_count&#45;&gt;intel_batchbuffer_require_space -->
<g id="edge40" class="edge"><title>emit_report_perf_count&#45;&gt;intel_batchbuffer_require_space</title>
<path fill="none" stroke="black" d="M1629.14,-149.183C1641.21,-147.275 1653.71,-145.453 1665.49,-144 1859.79,-120.04 1909.79,-128.416 2104.49,-108 2115.98,-106.796 2128.01,-105.42 2139.94,-103.984"/>
<polygon fill="black" stroke="black" points="2140.42,-107.451 2149.92,-102.766 2139.57,-100.503 2140.42,-107.451"/>
</g>
<!-- emit_report_perf_count&#45;&gt;intel_batchbuffer_emit_dword -->
<g id="edge39" class="edge"><title>emit_report_perf_count&#45;&gt;intel_batchbuffer_emit_dword</title>
<path fill="none" stroke="black" d="M1631.02,-149.441C1702.3,-137.419 1814.06,-118.567 1891.28,-105.541"/>
<polygon fill="black" stroke="black" points="1892.19,-108.938 1901.47,-103.823 1891.03,-102.035 1892.19,-108.938"/>
</g>
<!-- send_mi_store_reg_mem -->
<g id="node32" class="node"><title>send_mi_store_reg_mem</title>
<ellipse fill="none" stroke="black" cx="2280.49" cy="-162" rx="100.983" ry="18"/>
<text text-anchor="middle" x="2280.49" y="-158.3" font-family="Times,serif" font-size="14.00">send_mi_store_reg_mem</text>
</g>
<!-- send_mi_store_reg_mem&#45;&gt;intel_batchbuffer_require_space -->
<g id="edge41" class="edge"><title>send_mi_store_reg_mem&#45;&gt;intel_batchbuffer_require_space</title>
<path fill="none" stroke="black" d="M2270.08,-144.055C2265.09,-135.922 2258.99,-125.998 2253.43,-116.943"/>
<polygon fill="black" stroke="black" points="2256.32,-114.964 2248.1,-108.275 2250.36,-118.628 2256.32,-114.964"/>
</g>
<!-- send_mi_store_reg_mem&#45;&gt;intel_batchbuffer_emit_dword -->
<g id="edge42" class="edge"><title>send_mi_store_reg_mem&#45;&gt;intel_batchbuffer_emit_dword</title>
<path fill="none" stroke="black" d="M2221.35,-147.337C2172.17,-135.974 2101.98,-119.759 2049.52,-107.64"/>
<polygon fill="black" stroke="black" points="2050.14,-104.191 2039.61,-105.35 2048.56,-111.012 2050.14,-104.191"/>
</g>
<!-- i915_perf_add_config -->
<g id="node33" class="node"><title>i915_perf_add_config</title>
<ellipse fill="none" stroke="black" cx="2534.49" cy="-234" rx="89.0842" ry="18"/>
<text text-anchor="middle" x="2534.49" y="-230.3" font-family="Times,serif" font-size="14.00">i915_perf_add_config</text>
</g>
<!-- __i915_perf_add_config -->
<g id="node34" class="node"><title>__i915_perf_add_config</title>
<ellipse fill="none" stroke="black" cx="2534.49" cy="-162" rx="97.4827" ry="18"/>
<text text-anchor="middle" x="2534.49" y="-158.3" font-family="Times,serif" font-size="14.00">__i915_perf_add_config</text>
</g>
<!-- i915_perf_add_config&#45;&gt;__i915_perf_add_config -->
<g id="edge44" class="edge"><title>i915_perf_add_config&#45;&gt;__i915_perf_add_config</title>
<path fill="none" stroke="black" d="M2534.49,-215.697C2534.49,-207.983 2534.49,-198.712 2534.49,-190.112"/>
<polygon fill="black" stroke="black" points="2537.99,-190.104 2534.49,-180.104 2530.99,-190.104 2537.99,-190.104"/>
</g>
<!-- emit_stall_timestamp_and_rpc -->
<g id="node35" class="node"><title>emit_stall_timestamp_and_rpc</title>
<ellipse fill="none" stroke="black" cx="1935.49" cy="-234" rx="120.479" ry="18"/>
<text text-anchor="middle" x="1935.49" y="-230.3" font-family="Times,serif" font-size="14.00">emit_stall_timestamp_and_rpc</text>
</g>
<!-- emit_stall_timestamp_and_rpc&#45;&gt;intel_batchbuffer_require_space -->
<g id="edge47" class="edge"><title>emit_stall_timestamp_and_rpc&#45;&gt;intel_batchbuffer_require_space</title>
<path fill="none" stroke="black" d="M2047.99,-227.589C2175.32,-220.289 2368.05,-205.207 2390.49,-180 2420.15,-146.686 2366.99,-122.539 2315.4,-107.872"/>
<polygon fill="black" stroke="black" points="2316.03,-104.418 2305.46,-105.155 2314.19,-111.17 2316.03,-104.418"/>
</g>
<!-- emit_stall_timestamp_and_rpc&#45;&gt;intel_batchbuffer_emit_dword -->
<g id="edge45" class="edge"><title>emit_stall_timestamp_and_rpc&#45;&gt;intel_batchbuffer_emit_dword</title>
<path fill="none" stroke="black" d="M1938.14,-215.673C1941.15,-197.541 1946.69,-168.376 1954.49,-144 1957.31,-135.212 1961.07,-125.895 1964.73,-117.565"/>
<polygon fill="black" stroke="black" points="1967.98,-118.882 1968.93,-108.329 1961.61,-115.986 1967.98,-118.882"/>
</g>
<!-- emit_stall_timestamp_and_rpc&#45;&gt;emit_report_perf_count -->
<g id="edge46" class="edge"><title>emit_stall_timestamp_and_rpc&#45;&gt;emit_report_perf_count</title>
<path fill="none" stroke="black" d="M1863.57,-219.503C1798.53,-207.297 1703.14,-189.395 1637.24,-177.027"/>
<polygon fill="black" stroke="black" points="1637.8,-173.573 1627.33,-175.168 1636.51,-180.453 1637.8,-173.573"/>
</g>
<!-- i915_perf_remove_config -->
<g id="node36" class="node"><title>i915_perf_remove_config</title>
<ellipse fill="none" stroke="black" cx="2744.49" cy="-234" rx="102.882" ry="18"/>
<text text-anchor="middle" x="2744.49" y="-230.3" font-family="Times,serif" font-size="14.00">i915_perf_remove_config</text>
</g>
<!-- oa_exponent_to_ns -->
<g id="node37" class="node"><title>oa_exponent_to_ns</title>
<ellipse fill="none" stroke="black" cx="2944.49" cy="-234" rx="79.0865" ry="18"/>
<text text-anchor="middle" x="2944.49" y="-230.3" font-family="Times,serif" font-size="14.00">oa_exponent_to_ns</text>
</g>
<!-- profile_through_opencl -->
<g id="node38" class="node"><title>profile_through_opencl</title>
<ellipse fill="none" stroke="black" cx="3135.49" cy="-234" rx="93.6835" ry="18"/>
<text text-anchor="middle" x="3135.49" y="-230.3" font-family="Times,serif" font-size="14.00">profile_through_opencl</text>
</g>
<!-- create_filtering_word -->
<g id="node39" class="node"><title>create_filtering_word</title>
<ellipse fill="none" stroke="black" cx="3334.49" cy="-234" rx="87.1846" ry="18"/>
<text text-anchor="middle" x="3334.49" y="-230.3" font-family="Times,serif" font-size="14.00">create_filtering_word</text>
</g>
<!-- print_binary -->
<g id="node40" class="node"><title>print_binary</title>
<ellipse fill="none" stroke="black" cx="3493.49" cy="-234" rx="53.8905" ry="18"/>
<text text-anchor="middle" x="3493.49" y="-230.3" font-family="Times,serif" font-size="14.00">print_binary</text>
</g>
<!-- fmedian -->
<g id="node41" class="node"><title>fmedian</title>
<ellipse fill="none" stroke="black" cx="3605.49" cy="-234" rx="40.0939" ry="18"/>
<text text-anchor="middle" x="3605.49" y="-230.3" font-family="Times,serif" font-size="14.00">fmedian</text>
</g>
<!-- gen8_read_report_ticks -->
<g id="node42" class="node"><title>gen8_read_report_ticks</title>
<ellipse fill="none" stroke="black" cx="3757.49" cy="-234" rx="93.6835" ry="18"/>
<text text-anchor="middle" x="3757.49" y="-230.3" font-family="Times,serif" font-size="14.00">gen8_read_report_ticks</text>
</g>
<!-- oa_report_is_periodic -->
<g id="node43" class="node"><title>oa_report_is_periodic</title>
<ellipse fill="none" stroke="black" cx="3956.49" cy="-234" rx="87.9851" ry="18"/>
<text text-anchor="middle" x="3956.49" y="-230.3" font-family="Times,serif" font-size="14.00">oa_report_is_periodic</text>
</g>
<!-- read_i915_module_ref -->
<g id="node44" class="node"><title>read_i915_module_ref</title>
<ellipse fill="none" stroke="black" cx="4153.49" cy="-234" rx="90.9839" ry="18"/>
<text text-anchor="middle" x="4153.49" y="-230.3" font-family="Times,serif" font-size="14.00">read_i915_module_ref</text>
</g>
<!-- write_u64_file -->
<g id="node45" class="node"><title>write_u64_file</title>
<ellipse fill="none" stroke="black" cx="4324.49" cy="-234" rx="62.2891" ry="18"/>
<text text-anchor="middle" x="4324.49" y="-230.3" font-family="Times,serif" font-size="14.00">write_u64_file</text>
</g>
<!-- print_report_card -->
<g id="node46" class="node"><title>print_report_card</title>
<ellipse fill="none" stroke="black" cx="4477.49" cy="-234" rx="72.2875" ry="18"/>
<text text-anchor="middle" x="4477.49" y="-230.3" font-family="Times,serif" font-size="14.00">print_report_card</text>
</g>
</g>
</svg>
