<?xml version="1.0" encoding="UTF-8" standalone="no"?>
<!DOCTYPE svg PUBLIC "-//W3C//DTD SVG 1.1//EN"
 "http://www.w3.org/Graphics/SVG/1.1/DTD/svg11.dtd">
<!-- Generated by graphviz version 2.38.0 (20140413.2041)
 -->
<!-- Title: callgraph Pages: 1 -->
<svg width="4856pt" height="260pt"
 viewBox="0.00 0.00 4855.58 260.00" xmlns="http://www.w3.org/2000/svg" xmlns:xlink="http://www.w3.org/1999/xlink">
<g id="graph0" class="graph" transform="scale(1 1) rotate(0) translate(4 256)">
<title>callgraph</title>
<polygon fill="white" stroke="none" points="-4,4 -4,-256 4851.58,-256 4851.58,4 -4,4"/>
<!-- i915_perf_add_config -->
<g id="node1" class="node"><title>i915_perf_add_config</title>
<ellipse fill="none" stroke="black" cx="97.4913" cy="-234" rx="89.0842" ry="18"/>
<text text-anchor="middle" x="97.4913" y="-230.3" font-family="Times,serif" font-size="14.00">i915_perf_add_config</text>
</g>
<!-- __i915_perf_add_config -->
<g id="node2" class="node"><title>__i915_perf_add_config</title>
<ellipse fill="none" stroke="black" cx="97.4913" cy="-162" rx="97.4827" ry="18"/>
<text text-anchor="middle" x="97.4913" y="-158.3" font-family="Times,serif" font-size="14.00">__i915_perf_add_config</text>
</g>
<!-- i915_perf_add_config&#45;&gt;__i915_perf_add_config -->
<g id="edge1" class="edge"><title>i915_perf_add_config&#45;&gt;__i915_perf_add_config</title>
<path fill="none" stroke="black" d="M97.4913,-215.697C97.4913,-207.983 97.4913,-198.712 97.4913,-190.112"/>
<polygon fill="black" stroke="black" points="100.991,-190.104 97.4913,-180.104 93.9914,-190.104 100.991,-190.104"/>
</g>
<!-- emit_stall_timestamp_and_rpc -->
<g id="node3" class="node"><title>emit_stall_timestamp_and_rpc</title>
<ellipse fill="none" stroke="black" cx="345.491" cy="-234" rx="120.479" ry="18"/>
<text text-anchor="middle" x="345.491" y="-230.3" font-family="Times,serif" font-size="14.00">emit_stall_timestamp_and_rpc</text>
</g>
<!-- intel_batchbuffer_require_space -->
<g id="node4" class="node"><title>intel_batchbuffer_require_space</title>
<ellipse fill="none" stroke="black" cx="690.491" cy="-90" rx="124.278" ry="18"/>
<text text-anchor="middle" x="690.491" y="-86.3" font-family="Times,serif" font-size="14.00">intel_batchbuffer_require_space</text>
</g>
<!-- emit_stall_timestamp_and_rpc&#45;&gt;intel_batchbuffer_require_space -->
<g id="edge2" class="edge"><title>emit_stall_timestamp_and_rpc&#45;&gt;intel_batchbuffer_require_space</title>
<path fill="none" stroke="black" d="M462.579,-229.704C612.857,-224.242 857.651,-210.706 885.491,-180 921.511,-140.272 855.193,-117.07 790.335,-104.376"/>
<polygon fill="black" stroke="black" points="790.847,-100.911 780.373,-102.504 789.554,-107.791 790.847,-100.911"/>
</g>
<!-- emit_report_perf_count -->
<g id="node5" class="node"><title>emit_report_perf_count</title>
<ellipse fill="none" stroke="black" cx="345.491" cy="-162" rx="94.7833" ry="18"/>
<text text-anchor="middle" x="345.491" y="-158.3" font-family="Times,serif" font-size="14.00">emit_report_perf_count</text>
</g>
<!-- emit_stall_timestamp_and_rpc&#45;&gt;emit_report_perf_count -->
<g id="edge3" class="edge"><title>emit_stall_timestamp_and_rpc&#45;&gt;emit_report_perf_count</title>
<path fill="none" stroke="black" d="M345.491,-215.697C345.491,-207.983 345.491,-198.712 345.491,-190.112"/>
<polygon fill="black" stroke="black" points="348.991,-190.104 345.491,-180.104 341.991,-190.104 348.991,-190.104"/>
</g>
<!-- intel_batchbuffer_emit_dword -->
<g id="node6" class="node"><title>intel_batchbuffer_emit_dword</title>
<ellipse fill="none" stroke="black" cx="430.491" cy="-90" rx="118.079" ry="18"/>
<text text-anchor="middle" x="430.491" y="-86.3" font-family="Times,serif" font-size="14.00">intel_batchbuffer_emit_dword</text>
</g>
<!-- emit_stall_timestamp_and_rpc&#45;&gt;intel_batchbuffer_emit_dword -->
<g id="edge4" class="edge"><title>emit_stall_timestamp_and_rpc&#45;&gt;intel_batchbuffer_emit_dword</title>
<path fill="none" stroke="black" d="M290.137,-217.906C271.362,-209.853 252.397,-197.797 241.491,-180 233.132,-166.357 231.825,-156.75 241.491,-144 254.217,-127.215 298.725,-114.282 341.352,-105.394"/>
<polygon fill="black" stroke="black" points="342.155,-108.803 351.263,-103.391 340.768,-101.942 342.155,-108.803"/>
</g>
<!-- intel_batchbuffer_space -->
<g id="node22" class="node"><title>intel_batchbuffer_space</title>
<ellipse fill="none" stroke="black" cx="560.491" cy="-18" rx="94.7833" ry="18"/>
<text text-anchor="middle" x="560.491" y="-14.3" font-family="Times,serif" font-size="14.00">intel_batchbuffer_space</text>
</g>
<!-- intel_batchbuffer_require_space&#45;&gt;intel_batchbuffer_space -->
<g id="edge38" class="edge"><title>intel_batchbuffer_require_space&#45;&gt;intel_batchbuffer_space</title>
<path fill="none" stroke="black" d="M659.683,-72.411C641.664,-62.7082 618.743,-50.3664 599.475,-39.9915"/>
<polygon fill="black" stroke="black" points="601.094,-36.8879 590.63,-35.2285 597.775,-43.0512 601.094,-36.8879"/>
</g>
<!-- emit_report_perf_count&#45;&gt;intel_batchbuffer_require_space -->
<g id="edge5" class="edge"><title>emit_report_perf_count&#45;&gt;intel_batchbuffer_require_space</title>
<path fill="none" stroke="black" d="M407.968,-148.324C464.989,-136.754 549.538,-119.599 611.281,-107.072"/>
<polygon fill="black" stroke="black" points="612.268,-110.443 621.372,-105.024 610.876,-103.583 612.268,-110.443"/>
</g>
<!-- emit_report_perf_count&#45;&gt;intel_batchbuffer_emit_dword -->
<g id="edge6" class="edge"><title>emit_report_perf_count&#45;&gt;intel_batchbuffer_emit_dword</title>
<path fill="none" stroke="black" d="M366.067,-144.055C376.926,-135.113 390.413,-124.005 402.237,-114.268"/>
<polygon fill="black" stroke="black" points="404.61,-116.848 410.105,-107.789 400.16,-111.444 404.61,-116.848"/>
</g>
<!-- intel_batchbuffer_emit_dword&#45;&gt;intel_batchbuffer_space -->
<g id="edge24" class="edge"><title>intel_batchbuffer_emit_dword&#45;&gt;intel_batchbuffer_space</title>
<path fill="none" stroke="black" d="M460.971,-72.5881C478.981,-62.89 501.973,-50.5096 521.32,-40.0923"/>
<polygon fill="black" stroke="black" points="523.058,-43.1318 530.203,-35.3091 519.739,-36.9685 523.058,-43.1318"/>
</g>
<!-- measure_overheads -->
<g id="node7" class="node"><title>measure_overheads</title>
<ellipse fill="none" stroke="black" cx="1203.49" cy="-234" rx="80.6858" ry="18"/>
<text text-anchor="middle" x="1203.49" y="-230.3" font-family="Times,serif" font-size="14.00">measure_overheads</text>
</g>
<!-- umin -->
<g id="node8" class="node"><title>umin</title>
<ellipse fill="none" stroke="black" cx="961.491" cy="-162" rx="29.4969" ry="18"/>
<text text-anchor="middle" x="961.491" y="-158.3" font-family="Times,serif" font-size="14.00">umin</text>
</g>
<!-- measure_overheads&#45;&gt;umin -->
<g id="edge7" class="edge"><title>measure_overheads&#45;&gt;umin</title>
<path fill="none" stroke="black" d="M1147.33,-221.064C1105.93,-211.628 1048.52,-197.202 999.491,-180 997.386,-179.261 995.235,-178.453 993.081,-177.604"/>
<polygon fill="black" stroke="black" points="994.321,-174.329 983.745,-173.698 991.619,-180.786 994.321,-174.329"/>
</g>
<!-- read_tsc_start -->
<g id="node9" class="node"><title>read_tsc_start</title>
<ellipse fill="none" stroke="black" cx="1280.49" cy="-162" rx="59.5901" ry="18"/>
<text text-anchor="middle" x="1280.49" y="-158.3" font-family="Times,serif" font-size="14.00">read_tsc_start</text>
</g>
<!-- measure_overheads&#45;&gt;read_tsc_start -->
<g id="edge8" class="edge"><title>measure_overheads&#45;&gt;read_tsc_start</title>
<path fill="none" stroke="black" d="M1221.74,-216.411C1231.69,-207.367 1244.16,-196.03 1255.05,-186.13"/>
<polygon fill="black" stroke="black" points="1257.59,-188.545 1262.64,-179.228 1252.89,-183.365 1257.59,-188.545"/>
</g>
<!-- read_tsc_end -->
<g id="node10" class="node"><title>read_tsc_end</title>
<ellipse fill="none" stroke="black" cx="1415.49" cy="-162" rx="57.3905" ry="18"/>
<text text-anchor="middle" x="1415.49" y="-158.3" font-family="Times,serif" font-size="14.00">read_tsc_end</text>
</g>
<!-- measure_overheads&#45;&gt;read_tsc_end -->
<g id="edge9" class="edge"><title>measure_overheads&#45;&gt;read_tsc_end</title>
<path fill="none" stroke="black" d="M1246.65,-218.75C1281.73,-207.167 1331.18,-190.839 1367.5,-178.846"/>
<polygon fill="black" stroke="black" points="1368.98,-182.045 1377.37,-175.586 1366.78,-175.398 1368.98,-182.045"/>
</g>
<!-- umax -->
<g id="node11" class="node"><title>umax</title>
<ellipse fill="none" stroke="black" cx="1039.49" cy="-162" rx="30.5947" ry="18"/>
<text text-anchor="middle" x="1039.49" y="-158.3" font-family="Times,serif" font-size="14.00">umax</text>
</g>
<!-- measure_overheads&#45;&gt;umax -->
<g id="edge10" class="edge"><title>measure_overheads&#45;&gt;umax</title>
<path fill="none" stroke="black" d="M1167.91,-217.811C1139.76,-205.797 1100.73,-189.14 1073.11,-177.35"/>
<polygon fill="black" stroke="black" points="1074.42,-174.105 1063.85,-173.398 1071.68,-180.543 1074.42,-174.105"/>
</g>
<!-- average -->
<g id="node12" class="node"><title>average</title>
<ellipse fill="none" stroke="black" cx="1126.49" cy="-162" rx="38.1938" ry="18"/>
<text text-anchor="middle" x="1126.49" y="-158.3" font-family="Times,serif" font-size="14.00">average</text>
</g>
<!-- measure_overheads&#45;&gt;average -->
<g id="edge11" class="edge"><title>measure_overheads&#45;&gt;average</title>
<path fill="none" stroke="black" d="M1185.24,-216.411C1175.01,-207.106 1162.1,-195.375 1151,-185.279"/>
<polygon fill="black" stroke="black" points="1153.05,-182.411 1143.29,-178.274 1148.34,-187.591 1153.05,-182.411"/>
</g>
<!-- median -->
<g id="node13" class="node"><title>median</title>
<ellipse fill="none" stroke="black" cx="1527.49" cy="-162" rx="37.0935" ry="18"/>
<text text-anchor="middle" x="1527.49" y="-158.3" font-family="Times,serif" font-size="14.00">median</text>
</g>
<!-- measure_overheads&#45;&gt;median -->
<g id="edge12" class="edge"><title>measure_overheads&#45;&gt;median</title>
<path fill="none" stroke="black" d="M1269.36,-223.596C1326.14,-214.743 1410.01,-199.874 1481.49,-180 1484.26,-179.23 1487.1,-178.368 1489.94,-177.451"/>
<polygon fill="black" stroke="black" points="1491.18,-180.724 1499.51,-174.177 1488.92,-174.101 1491.18,-180.724"/>
</g>
<!-- read_counters_rpc -->
<g id="node14" class="node"><title>read_counters_rpc</title>
<ellipse fill="none" stroke="black" cx="1764.49" cy="-234" rx="75.2868" ry="18"/>
<text text-anchor="middle" x="1764.49" y="-230.3" font-family="Times,serif" font-size="14.00">read_counters_rpc</text>
</g>
<!-- read_counters_rpc&#45;&gt;emit_report_perf_count -->
<g id="edge23" class="edge"><title>read_counters_rpc&#45;&gt;emit_report_perf_count</title>
<path fill="none" stroke="black" d="M1712.28,-221.002C1701.81,-219 1690.84,-217.19 1680.49,-216 1136.73,-153.488 994.335,-232.264 449.491,-180 440.233,-179.112 430.55,-177.906 420.976,-176.544"/>
<polygon fill="black" stroke="black" points="421.467,-173.078 411.061,-175.074 420.44,-180.003 421.467,-173.078"/>
</g>
<!-- read_counters_rpc&#45;&gt;read_tsc_start -->
<g id="edge13" class="edge"><title>read_counters_rpc&#45;&gt;read_tsc_start</title>
<path fill="none" stroke="black" d="M1710.4,-221.297C1700.48,-219.366 1690.2,-217.506 1680.49,-216 1534.26,-193.3 1495.21,-205.757 1349.49,-180 1344.38,-179.097 1339.09,-178.032 1333.81,-176.883"/>
<polygon fill="black" stroke="black" points="1334.26,-173.396 1323.74,-174.589 1332.71,-180.221 1334.26,-173.396"/>
</g>
<!-- read_counters_rpc&#45;&gt;read_tsc_end -->
<g id="edge18" class="edge"><title>read_counters_rpc&#45;&gt;read_tsc_end</title>
<path fill="none" stroke="black" d="M1709.4,-221.68C1699.77,-219.751 1689.84,-217.792 1680.49,-216 1592.22,-199.085 1569.29,-199.222 1481.49,-180 1476.89,-178.993 1472.13,-177.889 1467.37,-176.742"/>
<polygon fill="black" stroke="black" points="1468.18,-173.338 1457.63,-174.344 1466.5,-180.134 1468.18,-173.338"/>
</g>
<!-- read_counters_rpc&#45;&gt;median -->
<g id="edge21" class="edge"><title>read_counters_rpc&#45;&gt;median</title>
<path fill="none" stroke="black" d="M1719.08,-219.586C1675.4,-206.686 1609.99,-187.368 1568.03,-174.974"/>
<polygon fill="black" stroke="black" points="1569,-171.609 1558.41,-172.133 1567.01,-178.323 1569,-171.609"/>
</g>
<!-- __perf_open -->
<g id="node15" class="node"><title>__perf_open</title>
<ellipse fill="none" stroke="black" cx="1675.49" cy="-162" rx="55.4913" ry="18"/>
<text text-anchor="middle" x="1675.49" y="-158.3" font-family="Times,serif" font-size="14.00">__perf_open</text>
</g>
<!-- read_counters_rpc&#45;&gt;__perf_open -->
<g id="edge14" class="edge"><title>read_counters_rpc&#45;&gt;__perf_open</title>
<path fill="none" stroke="black" d="M1743.4,-216.411C1731.59,-207.125 1716.71,-195.421 1703.89,-185.338"/>
<polygon fill="black" stroke="black" points="1705.84,-182.419 1695.82,-178.988 1701.52,-187.921 1705.84,-182.419"/>
</g>
<!-- read_u64_file -->
<g id="node16" class="node"><title>read_u64_file</title>
<ellipse fill="none" stroke="black" cx="1999.49" cy="-162" rx="59.5901" ry="18"/>
<text text-anchor="middle" x="1999.49" y="-158.3" font-family="Times,serif" font-size="14.00">read_u64_file</text>
</g>
<!-- read_counters_rpc&#45;&gt;read_u64_file -->
<g id="edge15" class="edge"><title>read_counters_rpc&#45;&gt;read_u64_file</title>
<path fill="none" stroke="black" d="M1809.8,-219.503C1849.68,-207.623 1907.68,-190.347 1949.04,-178.029"/>
<polygon fill="black" stroke="black" points="1950.06,-181.377 1958.64,-175.168 1948.06,-174.669 1950.06,-181.377"/>
</g>
<!-- scratch_buf_init -->
<g id="node17" class="node"><title>scratch_buf_init</title>
<ellipse fill="none" stroke="black" cx="1854.49" cy="-162" rx="67.6881" ry="18"/>
<text text-anchor="middle" x="1854.49" y="-158.3" font-family="Times,serif" font-size="14.00">scratch_buf_init</text>
</g>
<!-- read_counters_rpc&#45;&gt;scratch_buf_init -->
<g id="edge16" class="edge"><title>read_counters_rpc&#45;&gt;scratch_buf_init</title>
<path fill="none" stroke="black" d="M1785.82,-216.411C1797.67,-207.191 1812.59,-195.588 1825.49,-185.555"/>
<polygon fill="black" stroke="black" points="1827.88,-188.131 1833.63,-179.228 1823.58,-182.605 1827.88,-188.131"/>
</g>
<!-- print_reports -->
<g id="node18" class="node"><title>print_reports</title>
<ellipse fill="none" stroke="black" cx="2289.49" cy="-162" rx="55.7903" ry="18"/>
<text text-anchor="middle" x="2289.49" y="-158.3" font-family="Times,serif" font-size="14.00">print_reports</text>
</g>
<!-- read_counters_rpc&#45;&gt;print_reports -->
<g id="edge17" class="edge"><title>read_counters_rpc&#45;&gt;print_reports</title>
<path fill="none" stroke="black" d="M1832.98,-226.267C1919.37,-217.417 2072.36,-200.56 2202.49,-180 2212.74,-178.38 2223.63,-176.434 2234.11,-174.446"/>
<polygon fill="black" stroke="black" points="2234.84,-177.869 2244,-172.536 2233.52,-170.996 2234.84,-177.869"/>
</g>
<!-- __perf_close -->
<g id="node19" class="node"><title>__perf_close</title>
<ellipse fill="none" stroke="black" cx="1657.49" cy="-90" rx="55.7903" ry="18"/>
<text text-anchor="middle" x="1657.49" y="-86.3" font-family="Times,serif" font-size="14.00">__perf_close</text>
</g>
<!-- read_counters_rpc&#45;&gt;__perf_close -->
<g id="edge19" class="edge"><title>read_counters_rpc&#45;&gt;__perf_close</title>
<path fill="none" stroke="black" d="M1763.26,-215.685C1761.12,-196.498 1755.3,-165.442 1739.49,-144 1728.99,-129.765 1713.43,-118.329 1698.68,-109.776"/>
<polygon fill="black" stroke="black" points="1700.1,-106.563 1689.65,-104.823 1696.73,-112.7 1700.1,-106.563"/>
</g>
<!-- umedian -->
<g id="node20" class="node"><title>umedian</title>
<ellipse fill="none" stroke="black" cx="2118.49" cy="-162" rx="41.6928" ry="18"/>
<text text-anchor="middle" x="2118.49" y="-158.3" font-family="Times,serif" font-size="14.00">umedian</text>
</g>
<!-- read_counters_rpc&#45;&gt;umedian -->
<g id="edge20" class="edge"><title>read_counters_rpc&#45;&gt;umedian</title>
<path fill="none" stroke="black" d="M1829.16,-224.694C1891.12,-216.04 1987,-200.823 2068.49,-180 2071.64,-179.194 2074.89,-178.285 2078.13,-177.316"/>
<polygon fill="black" stroke="black" points="2079.29,-180.62 2087.78,-174.278 2077.19,-173.943 2079.29,-180.62"/>
</g>
<!-- scratch_buf_memset -->
<g id="node21" class="node"><title>scratch_buf_memset</title>
<ellipse fill="none" stroke="black" cx="1815.49" cy="-90" rx="84.485" ry="18"/>
<text text-anchor="middle" x="1815.49" y="-86.3" font-family="Times,serif" font-size="14.00">scratch_buf_memset</text>
</g>
<!-- read_counters_rpc&#45;&gt;scratch_buf_memset -->
<g id="edge22" class="edge"><title>read_counters_rpc&#45;&gt;scratch_buf_memset</title>
<path fill="none" stroke="black" d="M1836.57,-228.659C1947.08,-221.261 2147.92,-204.583 2169.49,-180 2297.38,-34.2885 2480.59,-199.699 1908.49,-108 1901.36,-106.857 1893.93,-105.605 1886.52,-104.315"/>
<polygon fill="black" stroke="black" points="1886.91,-100.829 1876.46,-102.538 1885.7,-107.723 1886.91,-100.829"/>
</g>
<!-- __perf_open&#45;&gt;__perf_close -->
<g id="edge46" class="edge"><title>__perf_open&#45;&gt;__perf_close</title>
<path fill="none" stroke="black" d="M1671.13,-144.055C1669.13,-136.261 1666.7,-126.822 1664.45,-118.079"/>
<polygon fill="black" stroke="black" points="1667.81,-117.089 1661.93,-108.275 1661.03,-118.832 1667.81,-117.089"/>
</g>
<!-- scratch_buf_init&#45;&gt;scratch_buf_memset -->
<g id="edge44" class="edge"><title>scratch_buf_init&#45;&gt;scratch_buf_memset</title>
<path fill="none" stroke="black" d="M1845.05,-144.055C1840.57,-136.007 1835.11,-126.205 1830.1,-117.226"/>
<polygon fill="black" stroke="black" points="1833.04,-115.308 1825.12,-108.275 1826.93,-118.714 1833.04,-115.308"/>
</g>
<!-- gen8_read_40bit_a_counter -->
<g id="node24" class="node"><title>gen8_read_40bit_a_counter</title>
<ellipse fill="none" stroke="black" cx="2918.49" cy="-90" rx="108.581" ry="18"/>
<text text-anchor="middle" x="2918.49" y="-86.3" font-family="Times,serif" font-size="14.00">gen8_read_40bit_a_counter</text>
</g>
<!-- print_reports&#45;&gt;gen8_read_40bit_a_counter -->
<g id="edge32" class="edge"><title>print_reports&#45;&gt;gen8_read_40bit_a_counter</title>
<path fill="none" stroke="black" d="M2342.54,-156.199C2435.45,-147.632 2633.64,-128.663 2800.49,-108 2810.27,-106.789 2820.5,-105.439 2830.67,-104.046"/>
<polygon fill="black" stroke="black" points="2831.37,-107.482 2840.8,-102.641 2830.41,-100.548 2831.37,-107.482"/>
</g>
<!-- get_oa_format -->
<g id="node25" class="node"><title>get_oa_format</title>
<ellipse fill="none" stroke="black" cx="2700.49" cy="-18" rx="62.2891" ry="18"/>
<text text-anchor="middle" x="2700.49" y="-14.3" font-family="Times,serif" font-size="14.00">get_oa_format</text>
</g>
<!-- print_reports&#45;&gt;get_oa_format -->
<g id="edge33" class="edge"><title>print_reports&#45;&gt;get_oa_format</title>
<path fill="none" stroke="black" d="M2294.69,-143.742C2301.88,-123.077 2316.94,-89.1177 2342.49,-72 2388.1,-41.4392 2538.28,-27.9042 2629,-22.3915"/>
<polygon fill="black" stroke="black" points="2629.44,-25.8719 2639.22,-21.7894 2629.03,-18.884 2629.44,-25.8719"/>
</g>
<!-- gen8_40bit_a_delta -->
<g id="node26" class="node"><title>gen8_40bit_a_delta</title>
<ellipse fill="none" stroke="black" cx="1997.49" cy="-90" rx="79.8859" ry="18"/>
<text text-anchor="middle" x="1997.49" y="-86.3" font-family="Times,serif" font-size="14.00">gen8_40bit_a_delta</text>
</g>
<!-- print_reports&#45;&gt;gen8_40bit_a_delta -->
<g id="edge34" class="edge"><title>print_reports&#45;&gt;gen8_40bit_a_delta</title>
<path fill="none" stroke="black" d="M2246.09,-150.596C2196.78,-138.775 2115.9,-119.387 2059.85,-105.949"/>
<polygon fill="black" stroke="black" points="2060.57,-102.523 2050.03,-103.596 2058.94,-109.33 2060.57,-102.523"/>
</g>
<!-- gen8_read_report_reason -->
<g id="node27" class="node"><title>gen8_read_report_reason</title>
<ellipse fill="none" stroke="black" cx="2195.49" cy="-90" rx="100.182" ry="18"/>
<text text-anchor="middle" x="2195.49" y="-86.3" font-family="Times,serif" font-size="14.00">gen8_read_report_reason</text>
</g>
<!-- print_reports&#45;&gt;gen8_read_report_reason -->
<g id="edge35" class="edge"><title>print_reports&#45;&gt;gen8_read_report_reason</title>
<path fill="none" stroke="black" d="M2268.16,-145.116C2255.69,-135.829 2239.74,-123.953 2225.97,-113.693"/>
<polygon fill="black" stroke="black" points="2227.83,-110.717 2217.72,-107.552 2223.65,-116.331 2227.83,-110.717"/>
</g>
<!-- gen8_read_report_clock_ratios -->
<g id="node28" class="node"><title>gen8_read_report_clock_ratios</title>
<ellipse fill="none" stroke="black" cx="2471.49" cy="-90" rx="120.479" ry="18"/>
<text text-anchor="middle" x="2471.49" y="-86.3" font-family="Times,serif" font-size="14.00">gen8_read_report_clock_ratios</text>
</g>
<!-- print_reports&#45;&gt;gen8_read_report_clock_ratios -->
<g id="edge36" class="edge"><title>print_reports&#45;&gt;gen8_read_report_clock_ratios</title>
<path fill="none" stroke="black" d="M2324.15,-147.669C2351.33,-137.217 2389.55,-122.515 2420.26,-110.705"/>
<polygon fill="black" stroke="black" points="2421.86,-113.838 2429.94,-106.981 2419.35,-107.304 2421.86,-113.838"/>
</g>
<!-- read_counters_mmio -->
<g id="node23" class="node"><title>read_counters_mmio</title>
<ellipse fill="none" stroke="black" cx="1585.49" cy="-234" rx="85.5853" ry="18"/>
<text text-anchor="middle" x="1585.49" y="-230.3" font-family="Times,serif" font-size="14.00">read_counters_mmio</text>
</g>
<!-- read_counters_mmio&#45;&gt;read_tsc_start -->
<g id="edge31" class="edge"><title>read_counters_mmio&#45;&gt;read_tsc_start</title>
<path fill="none" stroke="black" d="M1528.19,-220.478C1480.35,-209.941 1410.4,-194.34 1349.49,-180 1344.79,-178.892 1339.9,-177.725 1335.01,-176.543"/>
<polygon fill="black" stroke="black" points="1335.54,-173.071 1325,-174.109 1333.89,-179.872 1335.54,-173.071"/>
</g>
<!-- read_counters_mmio&#45;&gt;read_tsc_end -->
<g id="edge25" class="edge"><title>read_counters_mmio&#45;&gt;read_tsc_end</title>
<path fill="none" stroke="black" d="M1548.18,-217.638C1521.61,-206.694 1485.83,-191.962 1458.12,-180.553"/>
<polygon fill="black" stroke="black" points="1459.26,-177.239 1448.69,-176.668 1456.6,-183.712 1459.26,-177.239"/>
</g>
<!-- read_counters_mmio&#45;&gt;__perf_open -->
<g id="edge30" class="edge"><title>read_counters_mmio&#45;&gt;__perf_open</title>
<path fill="none" stroke="black" d="M1606.82,-216.411C1618.84,-207.058 1634.02,-195.254 1647.05,-185.123"/>
<polygon fill="black" stroke="black" points="1649.5,-187.651 1655.24,-178.749 1645.2,-182.126 1649.5,-187.651"/>
</g>
<!-- read_counters_mmio&#45;&gt;read_u64_file -->
<g id="edge29" class="edge"><title>read_counters_mmio&#45;&gt;read_u64_file</title>
<path fill="none" stroke="black" d="M1647.78,-221.535C1658.67,-219.621 1669.9,-217.706 1680.49,-216 1791.75,-198.072 1820.9,-201.695 1931.49,-180 1936.24,-179.068 1941.16,-178.015 1946.07,-176.902"/>
<polygon fill="black" stroke="black" points="1947.17,-180.239 1956.11,-174.55 1945.57,-173.424 1947.17,-180.239"/>
</g>
<!-- read_counters_mmio&#45;&gt;scratch_buf_init -->
<g id="edge28" class="edge"><title>read_counters_mmio&#45;&gt;scratch_buf_init</title>
<path fill="none" stroke="black" d="M1637.04,-219.586C1683.18,-207.578 1750.7,-190.008 1798.24,-177.639"/>
<polygon fill="black" stroke="black" points="1799.26,-180.988 1808.06,-175.083 1797.5,-174.214 1799.26,-180.988"/>
</g>
<!-- read_counters_mmio&#45;&gt;__perf_close -->
<g id="edge27" class="edge"><title>read_counters_mmio&#45;&gt;__perf_close</title>
<path fill="none" stroke="black" d="M1499.6,-233.325C1400.97,-231.651 1248.04,-222.09 1211.49,-180 1201,-167.919 1200.87,-155.963 1211.49,-144 1236.31,-116.058 1474.08,-100.243 1591.94,-94.0619"/>
<polygon fill="black" stroke="black" points="1592.47,-97.5394 1602.27,-93.5285 1592.1,-90.5487 1592.47,-97.5394"/>
</g>
<!-- read_counters_mmio&#45;&gt;scratch_buf_memset -->
<g id="edge26" class="edge"><title>read_counters_mmio&#45;&gt;scratch_buf_memset</title>
<path fill="none" stroke="black" d="M1585.69,-215.714C1586.89,-195.664 1591.97,-162.945 1611.49,-144 1621.51,-134.279 1692.06,-117.317 1747.42,-105.199"/>
<polygon fill="black" stroke="black" points="1748.19,-108.615 1757.22,-103.072 1746.7,-101.775 1748.19,-108.615"/>
</g>
<!-- gen8_read_40bit_a_counter&#45;&gt;get_oa_format -->
<g id="edge37" class="edge"><title>gen8_read_40bit_a_counter&#45;&gt;get_oa_format</title>
<path fill="none" stroke="black" d="M2870.92,-73.7247C2835.31,-62.2889 2786.7,-46.6819 2750.51,-35.0609"/>
<polygon fill="black" stroke="black" points="2751.24,-31.6205 2740.65,-31.8956 2749.1,-38.2854 2751.24,-31.6205"/>
</g>
<!-- max_oa_exponent_for_freq_gt -->
<g id="node29" class="node"><title>max_oa_exponent_for_freq_gt</title>
<ellipse fill="none" stroke="black" cx="2801.49" cy="-234" rx="120.479" ry="18"/>
<text text-anchor="middle" x="2801.49" y="-230.3" font-family="Times,serif" font-size="14.00">max_oa_exponent_for_freq_gt</text>
</g>
<!-- max_oa_exponent_for_period_lte -->
<g id="node30" class="node"><title>max_oa_exponent_for_period_lte</title>
<ellipse fill="none" stroke="black" cx="2801.49" cy="-162" rx="129.977" ry="18"/>
<text text-anchor="middle" x="2801.49" y="-158.3" font-family="Times,serif" font-size="14.00">max_oa_exponent_for_period_lte</text>
</g>
<!-- max_oa_exponent_for_freq_gt&#45;&gt;max_oa_exponent_for_period_lte -->
<g id="edge39" class="edge"><title>max_oa_exponent_for_freq_gt&#45;&gt;max_oa_exponent_for_period_lte</title>
<path fill="none" stroke="black" d="M2801.49,-215.697C2801.49,-207.983 2801.49,-198.712 2801.49,-190.112"/>
<polygon fill="black" stroke="black" points="2804.99,-190.104 2801.49,-180.104 2797.99,-190.104 2804.99,-190.104"/>
</g>
<!-- timebase_scale -->
<g id="node33" class="node"><title>timebase_scale</title>
<ellipse fill="none" stroke="black" cx="3109.49" cy="-90" rx="64.189" ry="18"/>
<text text-anchor="middle" x="3109.49" y="-86.3" font-family="Times,serif" font-size="14.00">timebase_scale</text>
</g>
<!-- max_oa_exponent_for_period_lte&#45;&gt;timebase_scale -->
<g id="edge45" class="edge"><title>max_oa_exponent_for_period_lte&#45;&gt;timebase_scale</title>
<path fill="none" stroke="black" d="M2866.86,-146.386C2914.02,-135.81 2979.21,-121.128 3036.49,-108 3041.44,-106.866 3046.57,-105.683 3051.72,-104.493"/>
<polygon fill="black" stroke="black" points="3052.64,-107.871 3061.6,-102.204 3051.06,-101.052 3052.64,-107.871"/>
</g>
<!-- send_mi_store_reg_mem -->
<g id="node31" class="node"><title>send_mi_store_reg_mem</title>
<ellipse fill="none" stroke="black" cx="775.491" cy="-162" rx="100.983" ry="18"/>
<text text-anchor="middle" x="775.491" y="-158.3" font-family="Times,serif" font-size="14.00">send_mi_store_reg_mem</text>
</g>
<!-- send_mi_store_reg_mem&#45;&gt;intel_batchbuffer_require_space -->
<g id="edge40" class="edge"><title>send_mi_store_reg_mem&#45;&gt;intel_batchbuffer_require_space</title>
<path fill="none" stroke="black" d="M754.915,-144.055C744.057,-135.113 730.569,-124.005 718.745,-114.268"/>
<polygon fill="black" stroke="black" points="720.822,-111.444 710.878,-107.789 716.372,-116.848 720.822,-111.444"/>
</g>
<!-- send_mi_store_reg_mem&#45;&gt;intel_batchbuffer_emit_dword -->
<g id="edge41" class="edge"><title>send_mi_store_reg_mem&#45;&gt;intel_batchbuffer_emit_dword</title>
<path fill="none" stroke="black" d="M711.408,-147.998C654.001,-136.35 569.652,-119.236 508.372,-106.802"/>
<polygon fill="black" stroke="black" points="508.857,-103.329 498.361,-104.771 507.465,-110.189 508.857,-103.329"/>
</g>
<!-- init_sys_info -->
<g id="node32" class="node"><title>init_sys_info</title>
<ellipse fill="none" stroke="black" cx="2302.49" cy="-234" rx="56.59" ry="18"/>
<text text-anchor="middle" x="2302.49" y="-230.3" font-family="Times,serif" font-size="14.00">init_sys_info</text>
</g>
<!-- init_sys_info&#45;&gt;read_u64_file -->
<g id="edge43" class="edge"><title>init_sys_info&#45;&gt;read_u64_file</title>
<path fill="none" stroke="black" d="M2257.37,-223.149C2210.01,-212.732 2133.41,-195.671 2067.49,-180 2062.92,-178.914 2058.19,-177.769 2053.44,-176.607"/>
<polygon fill="black" stroke="black" points="2054.26,-173.206 2043.72,-174.214 2052.59,-180.003 2054.26,-173.206"/>
</g>
<!-- init_sys_info&#45;&gt;max_oa_exponent_for_period_lte -->
<g id="edge42" class="edge"><title>init_sys_info&#45;&gt;max_oa_exponent_for_period_lte</title>
<path fill="none" stroke="black" d="M2353.08,-225.903C2435.05,-214.404 2598.31,-191.503 2703.58,-176.735"/>
<polygon fill="black" stroke="black" points="2704.17,-180.187 2713.58,-175.332 2703.19,-173.255 2704.17,-180.187"/>
</g>
<!-- hsw_read_report_ticks -->
<g id="node34" class="node"><title>hsw_read_report_ticks</title>
<ellipse fill="none" stroke="black" cx="2700.49" cy="-90" rx="90.9839" ry="18"/>
<text text-anchor="middle" x="2700.49" y="-86.3" font-family="Times,serif" font-size="14.00">hsw_read_report_ticks</text>
</g>
<!-- hsw_read_report_ticks&#45;&gt;get_oa_format -->
<g id="edge47" class="edge"><title>hsw_read_report_ticks&#45;&gt;get_oa_format</title>
<path fill="none" stroke="black" d="M2700.49,-71.6966C2700.49,-63.9827 2700.49,-54.7125 2700.49,-46.1124"/>
<polygon fill="black" stroke="black" points="2703.99,-46.1043 2700.49,-36.1043 2696.99,-46.1044 2703.99,-46.1043"/>
</g>
<!-- send_mi_load_reg_mem -->
<g id="node35" class="node"><title>send_mi_load_reg_mem</title>
<ellipse fill="none" stroke="black" cx="557.491" cy="-162" rx="98.5829" ry="18"/>
<text text-anchor="middle" x="557.491" y="-158.3" font-family="Times,serif" font-size="14.00">send_mi_load_reg_mem</text>
</g>
<!-- send_mi_load_reg_mem&#45;&gt;intel_batchbuffer_require_space -->
<g id="edge48" class="edge"><title>send_mi_load_reg_mem&#45;&gt;intel_batchbuffer_require_space</title>
<path fill="none" stroke="black" d="M588.339,-144.765C606.622,-135.142 630.011,-122.832 649.795,-112.419"/>
<polygon fill="black" stroke="black" points="651.669,-115.388 658.888,-107.633 648.409,-109.194 651.669,-115.388"/>
</g>
<!-- send_mi_load_reg_mem&#45;&gt;intel_batchbuffer_emit_dword -->
<g id="edge49" class="edge"><title>send_mi_load_reg_mem&#45;&gt;intel_batchbuffer_emit_dword</title>
<path fill="none" stroke="black" d="M528.036,-144.765C510.656,-135.185 488.445,-122.943 469.609,-112.561"/>
<polygon fill="black" stroke="black" points="471.116,-109.395 460.669,-107.633 467.737,-115.526 471.116,-109.395"/>
</g>
<!-- read_i915_module_ref -->
<g id="node36" class="node"><title>read_i915_module_ref</title>
<ellipse fill="none" stroke="black" cx="3030.49" cy="-234" rx="90.9839" ry="18"/>
<text text-anchor="middle" x="3030.49" y="-230.3" font-family="Times,serif" font-size="14.00">read_i915_module_ref</text>
</g>
<!-- print_binary -->
<g id="node37" class="node"><title>print_binary</title>
<ellipse fill="none" stroke="black" cx="3193.49" cy="-234" rx="53.8905" ry="18"/>
<text text-anchor="middle" x="3193.49" y="-230.3" font-family="Times,serif" font-size="14.00">print_binary</text>
</g>
<!-- oa_report_is_periodic -->
<g id="node38" class="node"><title>oa_report_is_periodic</title>
<ellipse fill="none" stroke="black" cx="3353.49" cy="-234" rx="87.9851" ry="18"/>
<text text-anchor="middle" x="3353.49" y="-230.3" font-family="Times,serif" font-size="14.00">oa_report_is_periodic</text>
</g>
<!-- profile_through_opencl -->
<g id="node39" class="node"><title>profile_through_opencl</title>
<ellipse fill="none" stroke="black" cx="3552.49" cy="-234" rx="93.6835" ry="18"/>
<text text-anchor="middle" x="3552.49" y="-230.3" font-family="Times,serif" font-size="14.00">profile_through_opencl</text>
</g>
<!-- write_u64_file -->
<g id="node40" class="node"><title>write_u64_file</title>
<ellipse fill="none" stroke="black" cx="3726.49" cy="-234" rx="62.2891" ry="18"/>
<text text-anchor="middle" x="3726.49" y="-230.3" font-family="Times,serif" font-size="14.00">write_u64_file</text>
</g>
<!-- oa_exponent_to_ns -->
<g id="node41" class="node"><title>oa_exponent_to_ns</title>
<ellipse fill="none" stroke="black" cx="3886.49" cy="-234" rx="79.0865" ry="18"/>
<text text-anchor="middle" x="3886.49" y="-230.3" font-family="Times,serif" font-size="14.00">oa_exponent_to_ns</text>
</g>
<!-- gen8_read_report_ticks -->
<g id="node42" class="node"><title>gen8_read_report_ticks</title>
<ellipse fill="none" stroke="black" cx="4077.49" cy="-234" rx="93.6835" ry="18"/>
<text text-anchor="middle" x="4077.49" y="-230.3" font-family="Times,serif" font-size="14.00">gen8_read_report_ticks</text>
</g>
<!-- print_report_card -->
<g id="node43" class="node"><title>print_report_card</title>
<ellipse fill="none" stroke="black" cx="4261.49" cy="-234" rx="72.2875" ry="18"/>
<text text-anchor="middle" x="4261.49" y="-230.3" font-family="Times,serif" font-size="14.00">print_report_card</text>
</g>
<!-- i915_perf_remove_config -->
<g id="node44" class="node"><title>i915_perf_remove_config</title>
<ellipse fill="none" stroke="black" cx="4454.49" cy="-234" rx="102.882" ry="18"/>
<text text-anchor="middle" x="4454.49" y="-230.3" font-family="Times,serif" font-size="14.00">i915_perf_remove_config</text>
</g>
<!-- fmedian -->
<g id="node45" class="node"><title>fmedian</title>
<ellipse fill="none" stroke="black" cx="4615.49" cy="-234" rx="40.0939" ry="18"/>
<text text-anchor="middle" x="4615.49" y="-230.3" font-family="Times,serif" font-size="14.00">fmedian</text>
</g>
<!-- create_filtering_word -->
<g id="node46" class="node"><title>create_filtering_word</title>
<ellipse fill="none" stroke="black" cx="4760.49" cy="-234" rx="87.1846" ry="18"/>
<text text-anchor="middle" x="4760.49" y="-230.3" font-family="Times,serif" font-size="14.00">create_filtering_word</text>
</g>
</g>
</svg>
