<?xml version="1.0" encoding="UTF-8" standalone="no"?>
<!DOCTYPE svg PUBLIC "-//W3C//DTD SVG 1.1//EN"
 "http://www.w3.org/Graphics/SVG/1.1/DTD/svg11.dtd">
<!-- Generated by graphviz version 2.38.0 (20140413.2041)
 -->
<!-- Title: callgraph Pages: 1 -->
<svg width="4532pt" height="260pt"
 viewBox="0.00 0.00 4532.08 260.00" xmlns="http://www.w3.org/2000/svg" xmlns:xlink="http://www.w3.org/1999/xlink">
<g id="graph0" class="graph" transform="scale(1 1) rotate(0) translate(4 256)">
<title>callgraph</title>
<polygon fill="white" stroke="none" points="-4,4 -4,-256 4528.08,-256 4528.08,4 -4,4"/>
<!-- hsw_read_report_ticks -->
<g id="node1" class="node"><title>hsw_read_report_ticks</title>
<ellipse fill="none" stroke="black" cx="656.988" cy="-90" rx="90.9839" ry="18"/>
<text text-anchor="middle" x="656.988" y="-86.3" font-family="Times,serif" font-size="14.00">hsw_read_report_ticks</text>
</g>
<!-- get_oa_format -->
<g id="node2" class="node"><title>get_oa_format</title>
<ellipse fill="none" stroke="black" cx="1171.99" cy="-18" rx="62.2891" ry="18"/>
<text text-anchor="middle" x="1171.99" y="-14.3" font-family="Times,serif" font-size="14.00">get_oa_format</text>
</g>
<!-- hsw_read_report_ticks&#45;&gt;get_oa_format -->
<g id="edge1" class="edge"><title>hsw_read_report_ticks&#45;&gt;get_oa_format</title>
<path fill="none" stroke="black" d="M722.552,-77.4553C734.017,-75.5505 745.841,-73.6587 756.988,-72 879.576,-53.7601 1023.12,-36.289 1105.22,-26.6653"/>
<polygon fill="black" stroke="black" points="1105.64,-30.1401 1115.16,-25.5025 1104.83,-23.1874 1105.64,-30.1401"/>
</g>
<!-- max_oa_exponent_for_period_lte -->
<g id="node3" class="node"><title>max_oa_exponent_for_period_lte</title>
<ellipse fill="none" stroke="black" cx="129.988" cy="-162" rx="129.977" ry="18"/>
<text text-anchor="middle" x="129.988" y="-158.3" font-family="Times,serif" font-size="14.00">max_oa_exponent_for_period_lte</text>
</g>
<!-- timebase_scale -->
<g id="node4" class="node"><title>timebase_scale</title>
<ellipse fill="none" stroke="black" cx="129.988" cy="-90" rx="64.189" ry="18"/>
<text text-anchor="middle" x="129.988" y="-86.3" font-family="Times,serif" font-size="14.00">timebase_scale</text>
</g>
<!-- max_oa_exponent_for_period_lte&#45;&gt;timebase_scale -->
<g id="edge2" class="edge"><title>max_oa_exponent_for_period_lte&#45;&gt;timebase_scale</title>
<path fill="none" stroke="black" d="M129.988,-143.697C129.988,-135.983 129.988,-126.712 129.988,-118.112"/>
<polygon fill="black" stroke="black" points="133.489,-118.104 129.988,-108.104 126.489,-118.104 133.489,-118.104"/>
</g>
<!-- read_counters_rpc -->
<g id="node5" class="node"><title>read_counters_rpc</title>
<ellipse fill="none" stroke="black" cx="905.988" cy="-234" rx="75.2868" ry="18"/>
<text text-anchor="middle" x="905.988" y="-230.3" font-family="Times,serif" font-size="14.00">read_counters_rpc</text>
</g>
<!-- read_u64_file -->
<g id="node6" class="node"><title>read_u64_file</title>
<ellipse fill="none" stroke="black" cx="375.988" cy="-162" rx="59.5901" ry="18"/>
<text text-anchor="middle" x="375.988" y="-158.3" font-family="Times,serif" font-size="14.00">read_u64_file</text>
</g>
<!-- read_counters_rpc&#45;&gt;read_u64_file -->
<g id="edge3" class="edge"><title>read_counters_rpc&#45;&gt;read_u64_file</title>
<path fill="none" stroke="black" d="M839.593,-225.366C756.219,-215.622 608.84,-197.877 482.988,-180 468.16,-177.894 452.205,-175.453 437.258,-173.09"/>
<polygon fill="black" stroke="black" points="437.523,-169.588 427.097,-171.471 436.422,-176.501 437.523,-169.588"/>
</g>
<!-- emit_report_perf_count -->
<g id="node7" class="node"><title>emit_report_perf_count</title>
<ellipse fill="none" stroke="black" cx="1537.99" cy="-162" rx="94.7833" ry="18"/>
<text text-anchor="middle" x="1537.99" y="-158.3" font-family="Times,serif" font-size="14.00">emit_report_perf_count</text>
</g>
<!-- read_counters_rpc&#45;&gt;emit_report_perf_count -->
<g id="edge4" class="edge"><title>read_counters_rpc&#45;&gt;emit_report_perf_count</title>
<path fill="none" stroke="black" d="M976.183,-227.348C1077.49,-218.874 1270.49,-201.547 1433.99,-180 1442.55,-178.871 1451.5,-177.58 1460.39,-176.225"/>
<polygon fill="black" stroke="black" points="1461.04,-179.666 1470.39,-174.674 1459.97,-172.749 1461.04,-179.666"/>
</g>
<!-- __perf_open -->
<g id="node8" class="node"><title>__perf_open</title>
<ellipse fill="none" stroke="black" cx="546.988" cy="-162" rx="55.4913" ry="18"/>
<text text-anchor="middle" x="546.988" y="-158.3" font-family="Times,serif" font-size="14.00">__perf_open</text>
</g>
<!-- read_counters_rpc&#45;&gt;__perf_open -->
<g id="edge5" class="edge"><title>read_counters_rpc&#45;&gt;__perf_open</title>
<path fill="none" stroke="black" d="M845.794,-223.097C786.993,-213.166 695.058,-196.949 615.988,-180 610.347,-178.791 604.464,-177.456 598.616,-176.082"/>
<polygon fill="black" stroke="black" points="599.396,-172.67 588.856,-173.747 597.768,-179.478 599.396,-172.67"/>
</g>
<!-- median -->
<g id="node9" class="node"><title>median</title>
<ellipse fill="none" stroke="black" cx="1387.99" cy="-162" rx="37.0935" ry="18"/>
<text text-anchor="middle" x="1387.99" y="-158.3" font-family="Times,serif" font-size="14.00">median</text>
</g>
<!-- read_counters_rpc&#45;&gt;median -->
<g id="edge6" class="edge"><title>read_counters_rpc&#45;&gt;median</title>
<path fill="none" stroke="black" d="M979.045,-229.326C1066.4,-223.743 1216.55,-210.361 1341.99,-180 1344.95,-179.282 1347.99,-178.432 1351.02,-177.501"/>
<polygon fill="black" stroke="black" points="1352.2,-180.796 1360.58,-174.312 1349.99,-174.156 1352.2,-180.796"/>
</g>
<!-- scratch_buf_memset -->
<g id="node10" class="node"><title>scratch_buf_memset</title>
<ellipse fill="none" stroke="black" cx="463.988" cy="-90" rx="84.485" ry="18"/>
<text text-anchor="middle" x="463.988" y="-86.3" font-family="Times,serif" font-size="14.00">scratch_buf_memset</text>
</g>
<!-- read_counters_rpc&#45;&gt;scratch_buf_memset -->
<g id="edge7" class="edge"><title>read_counters_rpc&#45;&gt;scratch_buf_memset</title>
<path fill="none" stroke="black" d="M885.171,-216.674C872.253,-206.385 855.423,-192.691 840.988,-180 823.517,-164.639 823.918,-154.158 802.988,-144 703.58,-95.7539 666.021,-125.937 556.988,-108 549.862,-106.828 542.439,-105.556 535.03,-104.254"/>
<polygon fill="black" stroke="black" points="535.424,-100.769 524.966,-102.466 534.2,-107.661 535.424,-100.769"/>
</g>
<!-- scratch_buf_init -->
<g id="node11" class="node"><title>scratch_buf_init</title>
<ellipse fill="none" stroke="black" cx="725.988" cy="-162" rx="67.6881" ry="18"/>
<text text-anchor="middle" x="725.988" y="-158.3" font-family="Times,serif" font-size="14.00">scratch_buf_init</text>
</g>
<!-- read_counters_rpc&#45;&gt;scratch_buf_init -->
<g id="edge8" class="edge"><title>read_counters_rpc&#45;&gt;scratch_buf_init</title>
<path fill="none" stroke="black" d="M868.255,-218.326C840.162,-207.401 801.672,-192.433 771.811,-180.82"/>
<polygon fill="black" stroke="black" points="773.032,-177.539 762.443,-177.177 770.494,-184.063 773.032,-177.539"/>
</g>
<!-- print_reports -->
<g id="node12" class="node"><title>print_reports</title>
<ellipse fill="none" stroke="black" cx="905.988" cy="-162" rx="55.7903" ry="18"/>
<text text-anchor="middle" x="905.988" y="-158.3" font-family="Times,serif" font-size="14.00">print_reports</text>
</g>
<!-- read_counters_rpc&#45;&gt;print_reports -->
<g id="edge9" class="edge"><title>read_counters_rpc&#45;&gt;print_reports</title>
<path fill="none" stroke="black" d="M905.988,-215.697C905.988,-207.983 905.988,-198.712 905.988,-190.112"/>
<polygon fill="black" stroke="black" points="909.489,-190.104 905.988,-180.104 902.489,-190.104 909.489,-190.104"/>
</g>
<!-- read_tsc_start -->
<g id="node13" class="node"><title>read_tsc_start</title>
<ellipse fill="none" stroke="black" cx="1171.99" cy="-162" rx="59.5901" ry="18"/>
<text text-anchor="middle" x="1171.99" y="-158.3" font-family="Times,serif" font-size="14.00">read_tsc_start</text>
</g>
<!-- read_counters_rpc&#45;&gt;read_tsc_start -->
<g id="edge10" class="edge"><title>read_counters_rpc&#45;&gt;read_tsc_start</title>
<path fill="none" stroke="black" d="M954.777,-220.161C1001.13,-207.964 1070.65,-189.668 1118.49,-177.078"/>
<polygon fill="black" stroke="black" points="1119.58,-180.412 1128.36,-174.482 1117.8,-173.642 1119.58,-180.412"/>
</g>
<!-- umedian -->
<g id="node14" class="node"><title>umedian</title>
<ellipse fill="none" stroke="black" cx="1290.99" cy="-162" rx="41.6928" ry="18"/>
<text text-anchor="middle" x="1290.99" y="-158.3" font-family="Times,serif" font-size="14.00">umedian</text>
</g>
<!-- read_counters_rpc&#45;&gt;umedian -->
<g id="edge11" class="edge"><title>read_counters_rpc&#45;&gt;umedian</title>
<path fill="none" stroke="black" d="M973.4,-225.768C1041.53,-217.659 1149.53,-202.607 1240.99,-180 1244.15,-179.219 1247.39,-178.328 1250.64,-177.372"/>
<polygon fill="black" stroke="black" points="1251.79,-180.678 1260.29,-174.355 1249.71,-173.997 1251.79,-180.678"/>
</g>
<!-- __perf_close -->
<g id="node15" class="node"><title>__perf_close</title>
<ellipse fill="none" stroke="black" cx="305.988" cy="-90" rx="55.7903" ry="18"/>
<text text-anchor="middle" x="305.988" y="-86.3" font-family="Times,serif" font-size="14.00">__perf_close</text>
</g>
<!-- read_counters_rpc&#45;&gt;__perf_close -->
<g id="edge12" class="edge"><title>read_counters_rpc&#45;&gt;__perf_close</title>
<path fill="none" stroke="black" d="M833.734,-228.751C780.169,-223.14 706.747,-210.134 648.988,-180 628.362,-169.239 631.9,-154.195 610.988,-144 514.037,-96.732 476.648,-129.677 370.988,-108 366.307,-107.04 361.46,-105.951 356.619,-104.8"/>
<polygon fill="black" stroke="black" points="357.294,-101.362 346.747,-102.372 355.621,-108.159 357.294,-101.362"/>
</g>
<!-- read_tsc_end -->
<g id="node16" class="node"><title>read_tsc_end</title>
<ellipse fill="none" stroke="black" cx="1036.99" cy="-162" rx="57.3905" ry="18"/>
<text text-anchor="middle" x="1036.99" y="-158.3" font-family="Times,serif" font-size="14.00">read_tsc_end</text>
</g>
<!-- read_counters_rpc&#45;&gt;read_tsc_end -->
<g id="edge13" class="edge"><title>read_counters_rpc&#45;&gt;read_tsc_end</title>
<path fill="none" stroke="black" d="M935.387,-217.291C954.489,-207.084 979.548,-193.693 999.999,-182.765"/>
<polygon fill="black" stroke="black" points="1001.86,-185.737 1009.03,-177.938 998.564,-179.564 1001.86,-185.737"/>
</g>
<!-- intel_batchbuffer_emit_dword -->
<g id="node17" class="node"><title>intel_batchbuffer_emit_dword</title>
<ellipse fill="none" stroke="black" cx="2212.99" cy="-90" rx="118.079" ry="18"/>
<text text-anchor="middle" x="2212.99" y="-86.3" font-family="Times,serif" font-size="14.00">intel_batchbuffer_emit_dword</text>
</g>
<!-- emit_report_perf_count&#45;&gt;intel_batchbuffer_emit_dword -->
<g id="edge21" class="edge"><title>emit_report_perf_count&#45;&gt;intel_batchbuffer_emit_dword</title>
<path fill="none" stroke="black" d="M1604.64,-149.172C1616.71,-147.266 1629.21,-145.446 1640.99,-144 1837.93,-119.823 1888.7,-129.17 2085.99,-108 2096.74,-106.846 2107.99,-105.517 2119.16,-104.122"/>
<polygon fill="black" stroke="black" points="2119.9,-107.556 2129.38,-102.825 2119.02,-100.612 2119.9,-107.556"/>
</g>
<!-- intel_batchbuffer_require_space -->
<g id="node20" class="node"><title>intel_batchbuffer_require_space</title>
<ellipse fill="none" stroke="black" cx="1952.99" cy="-90" rx="124.278" ry="18"/>
<text text-anchor="middle" x="1952.99" y="-86.3" font-family="Times,serif" font-size="14.00">intel_batchbuffer_require_space</text>
</g>
<!-- emit_report_perf_count&#45;&gt;intel_batchbuffer_require_space -->
<g id="edge20" class="edge"><title>emit_report_perf_count&#45;&gt;intel_batchbuffer_require_space</title>
<path fill="none" stroke="black" d="M1606.52,-149.441C1677.24,-137.511 1787.83,-118.858 1864.98,-105.844"/>
<polygon fill="black" stroke="black" points="1865.89,-109.241 1875.17,-104.127 1864.72,-102.339 1865.89,-109.241"/>
</g>
<!-- __perf_open&#45;&gt;__perf_close -->
<g id="edge14" class="edge"><title>__perf_open&#45;&gt;__perf_close</title>
<path fill="none" stroke="black" d="M507.192,-149.441C465.803,-137.419 400.904,-118.569 356.058,-105.543"/>
<polygon fill="black" stroke="black" points="356.825,-102.121 346.246,-102.693 354.873,-108.843 356.825,-102.121"/>
</g>
<!-- scratch_buf_init&#45;&gt;scratch_buf_memset -->
<g id="edge40" class="edge"><title>scratch_buf_init&#45;&gt;scratch_buf_memset</title>
<path fill="none" stroke="black" d="M680.052,-148.727C636.756,-137.159 571.619,-119.756 524.186,-107.083"/>
<polygon fill="black" stroke="black" points="524.912,-103.655 514.347,-104.455 523.105,-110.417 524.912,-103.655"/>
</g>
<!-- print_reports&#45;&gt;get_oa_format -->
<g id="edge38" class="edge"><title>print_reports&#45;&gt;get_oa_format</title>
<path fill="none" stroke="black" d="M947.507,-149.742C955.289,-147.745 963.371,-145.748 970.988,-144 1051.36,-125.56 1094.25,-165.865 1152.99,-108 1169.13,-92.0962 1173.15,-66.0737 1173.56,-46.2644"/>
<polygon fill="black" stroke="black" points="1177.06,-45.9717 1173.47,-36.0022 1170.06,-46.0319 1177.06,-45.9717"/>
</g>
<!-- gen8_read_40bit_a_counter -->
<g id="node26" class="node"><title>gen8_read_40bit_a_counter</title>
<ellipse fill="none" stroke="black" cx="1308.99" cy="-90" rx="108.581" ry="18"/>
<text text-anchor="middle" x="1308.99" y="-86.3" font-family="Times,serif" font-size="14.00">gen8_read_40bit_a_counter</text>
</g>
<!-- print_reports&#45;&gt;gen8_read_40bit_a_counter -->
<g id="edge35" class="edge"><title>print_reports&#45;&gt;gen8_read_40bit_a_counter</title>
<path fill="none" stroke="black" d="M946.756,-149.67C954.756,-147.636 963.11,-145.644 970.988,-144 1017.22,-134.354 1136.46,-116.239 1220.15,-103.899"/>
<polygon fill="black" stroke="black" points="1220.79,-107.343 1230.17,-102.424 1219.77,-100.418 1220.79,-107.343"/>
</g>
<!-- gen8_read_report_clock_ratios -->
<g id="node28" class="node"><title>gen8_read_report_clock_ratios</title>
<ellipse fill="none" stroke="black" cx="1555.99" cy="-90" rx="120.479" ry="18"/>
<text text-anchor="middle" x="1555.99" y="-86.3" font-family="Times,serif" font-size="14.00">gen8_read_report_clock_ratios</text>
</g>
<!-- print_reports&#45;&gt;gen8_read_report_clock_ratios -->
<g id="edge36" class="edge"><title>print_reports&#45;&gt;gen8_read_report_clock_ratios</title>
<path fill="none" stroke="black" d="M945.969,-149.358C954.186,-147.301 962.822,-145.379 970.988,-144 1171.45,-110.148 1224.81,-129.288 1426.99,-108 1438.02,-106.838 1449.57,-105.497 1461.03,-104.087"/>
<polygon fill="black" stroke="black" points="1461.57,-107.546 1471.06,-102.833 1460.7,-100.6 1461.57,-107.546"/>
</g>
<!-- gen8_40bit_a_delta -->
<g id="node29" class="node"><title>gen8_40bit_a_delta</title>
<ellipse fill="none" stroke="black" cx="845.988" cy="-90" rx="79.8859" ry="18"/>
<text text-anchor="middle" x="845.988" y="-86.3" font-family="Times,serif" font-size="14.00">gen8_40bit_a_delta</text>
</g>
<!-- print_reports&#45;&gt;gen8_40bit_a_delta -->
<g id="edge37" class="edge"><title>print_reports&#45;&gt;gen8_40bit_a_delta</title>
<path fill="none" stroke="black" d="M891.769,-144.411C884.405,-135.82 875.268,-125.159 867.098,-115.627"/>
<polygon fill="black" stroke="black" points="869.688,-113.271 860.522,-107.956 864.373,-117.827 869.688,-113.271"/>
</g>
<!-- gen8_read_report_reason -->
<g id="node30" class="node"><title>gen8_read_report_reason</title>
<ellipse fill="none" stroke="black" cx="1043.99" cy="-90" rx="100.182" ry="18"/>
<text text-anchor="middle" x="1043.99" y="-86.3" font-family="Times,serif" font-size="14.00">gen8_read_report_reason</text>
</g>
<!-- print_reports&#45;&gt;gen8_read_report_reason -->
<g id="edge39" class="edge"><title>print_reports&#45;&gt;gen8_read_report_reason</title>
<path fill="none" stroke="black" d="M934.582,-146.496C954.339,-136.475 980.919,-122.992 1002.93,-111.825"/>
<polygon fill="black" stroke="black" points="1004.72,-114.843 1012.05,-107.198 1001.55,-108.601 1004.72,-114.843"/>
</g>
<!-- intel_batchbuffer_space -->
<g id="node18" class="node"><title>intel_batchbuffer_space</title>
<ellipse fill="none" stroke="black" cx="2082.99" cy="-18" rx="94.7833" ry="18"/>
<text text-anchor="middle" x="2082.99" y="-14.3" font-family="Times,serif" font-size="14.00">intel_batchbuffer_space</text>
</g>
<!-- intel_batchbuffer_emit_dword&#45;&gt;intel_batchbuffer_space -->
<g id="edge15" class="edge"><title>intel_batchbuffer_emit_dword&#45;&gt;intel_batchbuffer_space</title>
<path fill="none" stroke="black" d="M2182.51,-72.5881C2164.5,-62.89 2141.51,-50.5096 2122.16,-40.0923"/>
<polygon fill="black" stroke="black" points="2123.74,-36.9685 2113.28,-35.3091 2120.42,-43.1318 2123.74,-36.9685"/>
</g>
<!-- send_mi_load_reg_mem -->
<g id="node19" class="node"><title>send_mi_load_reg_mem</title>
<ellipse fill="none" stroke="black" cx="2037.99" cy="-162" rx="98.5829" ry="18"/>
<text text-anchor="middle" x="2037.99" y="-158.3" font-family="Times,serif" font-size="14.00">send_mi_load_reg_mem</text>
</g>
<!-- send_mi_load_reg_mem&#45;&gt;intel_batchbuffer_emit_dword -->
<g id="edge17" class="edge"><title>send_mi_load_reg_mem&#45;&gt;intel_batchbuffer_emit_dword</title>
<path fill="none" stroke="black" d="M2077.26,-145.291C2102.77,-135.086 2136.24,-121.7 2163.55,-110.774"/>
<polygon fill="black" stroke="black" points="2164.95,-113.984 2172.94,-107.021 2162.35,-107.485 2164.95,-113.984"/>
</g>
<!-- send_mi_load_reg_mem&#45;&gt;intel_batchbuffer_require_space -->
<g id="edge16" class="edge"><title>send_mi_load_reg_mem&#45;&gt;intel_batchbuffer_require_space</title>
<path fill="none" stroke="black" d="M2017.41,-144.055C2006.55,-135.113 1993.07,-124.005 1981.24,-114.268"/>
<polygon fill="black" stroke="black" points="1983.32,-111.444 1973.38,-107.789 1978.87,-116.848 1983.32,-111.444"/>
</g>
<!-- intel_batchbuffer_require_space&#45;&gt;intel_batchbuffer_space -->
<g id="edge23" class="edge"><title>intel_batchbuffer_require_space&#45;&gt;intel_batchbuffer_space</title>
<path fill="none" stroke="black" d="M1983.8,-72.411C2001.82,-62.7082 2024.74,-50.3664 2044,-39.9915"/>
<polygon fill="black" stroke="black" points="2045.7,-43.0512 2052.85,-35.2285 2042.39,-36.8879 2045.7,-43.0512"/>
</g>
<!-- send_mi_store_reg_mem -->
<g id="node21" class="node"><title>send_mi_store_reg_mem</title>
<ellipse fill="none" stroke="black" cx="2255.99" cy="-162" rx="100.983" ry="18"/>
<text text-anchor="middle" x="2255.99" y="-158.3" font-family="Times,serif" font-size="14.00">send_mi_store_reg_mem</text>
</g>
<!-- send_mi_store_reg_mem&#45;&gt;intel_batchbuffer_emit_dword -->
<g id="edge19" class="edge"><title>send_mi_store_reg_mem&#45;&gt;intel_batchbuffer_emit_dword</title>
<path fill="none" stroke="black" d="M2245.58,-144.055C2240.58,-135.922 2234.49,-125.998 2228.92,-116.943"/>
<polygon fill="black" stroke="black" points="2231.82,-114.964 2223.6,-108.275 2225.85,-118.628 2231.82,-114.964"/>
</g>
<!-- send_mi_store_reg_mem&#45;&gt;intel_batchbuffer_require_space -->
<g id="edge18" class="edge"><title>send_mi_store_reg_mem&#45;&gt;intel_batchbuffer_require_space</title>
<path fill="none" stroke="black" d="M2196.85,-147.337C2147.9,-136.03 2078.17,-119.919 2025.79,-107.82"/>
<polygon fill="black" stroke="black" points="2026.43,-104.374 2015.89,-105.533 2024.85,-111.194 2026.43,-104.374"/>
</g>
<!-- max_oa_exponent_for_freq_gt -->
<g id="node22" class="node"><title>max_oa_exponent_for_freq_gt</title>
<ellipse fill="none" stroke="black" cx="129.988" cy="-234" rx="120.479" ry="18"/>
<text text-anchor="middle" x="129.988" y="-230.3" font-family="Times,serif" font-size="14.00">max_oa_exponent_for_freq_gt</text>
</g>
<!-- max_oa_exponent_for_freq_gt&#45;&gt;max_oa_exponent_for_period_lte -->
<g id="edge22" class="edge"><title>max_oa_exponent_for_freq_gt&#45;&gt;max_oa_exponent_for_period_lte</title>
<path fill="none" stroke="black" d="M129.988,-215.697C129.988,-207.983 129.988,-198.712 129.988,-190.112"/>
<polygon fill="black" stroke="black" points="133.489,-190.104 129.988,-180.104 126.489,-190.104 133.489,-190.104"/>
</g>
<!-- i915_perf_add_config -->
<g id="node23" class="node"><title>i915_perf_add_config</title>
<ellipse fill="none" stroke="black" cx="2509.99" cy="-234" rx="89.0842" ry="18"/>
<text text-anchor="middle" x="2509.99" y="-230.3" font-family="Times,serif" font-size="14.00">i915_perf_add_config</text>
</g>
<!-- __i915_perf_add_config -->
<g id="node24" class="node"><title>__i915_perf_add_config</title>
<ellipse fill="none" stroke="black" cx="2509.99" cy="-162" rx="97.4827" ry="18"/>
<text text-anchor="middle" x="2509.99" y="-158.3" font-family="Times,serif" font-size="14.00">__i915_perf_add_config</text>
</g>
<!-- i915_perf_add_config&#45;&gt;__i915_perf_add_config -->
<g id="edge24" class="edge"><title>i915_perf_add_config&#45;&gt;__i915_perf_add_config</title>
<path fill="none" stroke="black" d="M2509.99,-215.697C2509.99,-207.983 2509.99,-198.712 2509.99,-190.112"/>
<polygon fill="black" stroke="black" points="2513.49,-190.104 2509.99,-180.104 2506.49,-190.104 2513.49,-190.104"/>
</g>
<!-- init_sys_info -->
<g id="node25" class="node"><title>init_sys_info</title>
<ellipse fill="none" stroke="black" cx="349.988" cy="-234" rx="56.59" ry="18"/>
<text text-anchor="middle" x="349.988" y="-230.3" font-family="Times,serif" font-size="14.00">init_sys_info</text>
</g>
<!-- init_sys_info&#45;&gt;max_oa_exponent_for_period_lte -->
<g id="edge26" class="edge"><title>init_sys_info&#45;&gt;max_oa_exponent_for_period_lte</title>
<path fill="none" stroke="black" d="M311.416,-220.727C277.561,-209.955 227.804,-194.123 188.957,-181.763"/>
<polygon fill="black" stroke="black" points="189.922,-178.397 179.332,-178.7 187.8,-185.068 189.922,-178.397"/>
</g>
<!-- init_sys_info&#45;&gt;read_u64_file -->
<g id="edge25" class="edge"><title>init_sys_info&#45;&gt;read_u64_file</title>
<path fill="none" stroke="black" d="M356.282,-216.055C359.209,-208.176 362.759,-198.617 366.036,-189.794"/>
<polygon fill="black" stroke="black" points="369.371,-190.868 369.572,-180.275 362.809,-188.431 369.371,-190.868"/>
</g>
<!-- gen8_read_40bit_a_counter&#45;&gt;get_oa_format -->
<g id="edge27" class="edge"><title>gen8_read_40bit_a_counter&#45;&gt;get_oa_format</title>
<path fill="none" stroke="black" d="M1277.21,-72.7646C1257.25,-62.5619 1231.37,-49.3388 1210.27,-38.5595"/>
<polygon fill="black" stroke="black" points="1211.75,-35.3856 1201.25,-33.9523 1208.56,-41.6191 1211.75,-35.3856"/>
</g>
<!-- read_counters_mmio -->
<g id="node27" class="node"><title>read_counters_mmio</title>
<ellipse fill="none" stroke="black" cx="546.988" cy="-234" rx="85.5853" ry="18"/>
<text text-anchor="middle" x="546.988" y="-230.3" font-family="Times,serif" font-size="14.00">read_counters_mmio</text>
</g>
<!-- read_counters_mmio&#45;&gt;read_u64_file -->
<g id="edge28" class="edge"><title>read_counters_mmio&#45;&gt;read_u64_file</title>
<path fill="none" stroke="black" d="M509.462,-217.638C482.902,-206.766 447.212,-192.156 419.42,-180.779"/>
<polygon fill="black" stroke="black" points="420.527,-177.45 409.947,-176.901 417.875,-183.929 420.527,-177.45"/>
</g>
<!-- read_counters_mmio&#45;&gt;__perf_open -->
<g id="edge29" class="edge"><title>read_counters_mmio&#45;&gt;__perf_open</title>
<path fill="none" stroke="black" d="M546.988,-215.697C546.988,-207.983 546.988,-198.712 546.988,-190.112"/>
<polygon fill="black" stroke="black" points="550.489,-190.104 546.988,-180.104 543.489,-190.104 550.489,-190.104"/>
</g>
<!-- read_counters_mmio&#45;&gt;scratch_buf_memset -->
<g id="edge30" class="edge"><title>read_counters_mmio&#45;&gt;scratch_buf_memset</title>
<path fill="none" stroke="black" d="M519.913,-216.784C506.827,-207.586 492.034,-194.93 482.988,-180 471.696,-161.362 467.056,-136.972 465.179,-118.438"/>
<polygon fill="black" stroke="black" points="468.653,-117.978 464.363,-108.291 461.676,-118.539 468.653,-117.978"/>
</g>
<!-- read_counters_mmio&#45;&gt;scratch_buf_init -->
<g id="edge32" class="edge"><title>read_counters_mmio&#45;&gt;scratch_buf_init</title>
<path fill="none" stroke="black" d="M585.829,-217.811C613.543,-206.973 650.92,-192.356 680.106,-180.943"/>
<polygon fill="black" stroke="black" points="681.626,-184.107 689.664,-177.205 679.076,-177.588 681.626,-184.107"/>
</g>
<!-- read_counters_mmio&#45;&gt;read_tsc_start -->
<g id="edge33" class="edge"><title>read_counters_mmio&#45;&gt;read_tsc_start</title>
<path fill="none" stroke="black" d="M629.443,-228.923C738.439,-222.672 936.175,-208.343 1102.99,-180 1108.31,-179.096 1113.83,-178.004 1119.32,-176.816"/>
<polygon fill="black" stroke="black" points="1120.15,-180.216 1129.13,-174.591 1118.6,-173.39 1120.15,-180.216"/>
</g>
<!-- read_counters_mmio&#45;&gt;__perf_close -->
<g id="edge31" class="edge"><title>read_counters_mmio&#45;&gt;__perf_close</title>
<path fill="none" stroke="black" d="M480.246,-222.595C413.124,-211.456 318.004,-193.557 306.988,-180 293.112,-162.922 294.364,-137.304 298.208,-117.931"/>
<polygon fill="black" stroke="black" points="301.62,-118.708 300.458,-108.178 294.8,-117.135 301.62,-118.708"/>
</g>
<!-- read_counters_mmio&#45;&gt;read_tsc_end -->
<g id="edge34" class="edge"><title>read_counters_mmio&#45;&gt;read_tsc_end</title>
<path fill="none" stroke="black" d="M624.824,-226.279C710.223,-218.207 851.111,-202.834 970.988,-180 975.75,-179.093 980.679,-178.041 985.598,-176.913"/>
<polygon fill="black" stroke="black" points="986.714,-180.245 995.626,-174.515 985.086,-173.437 986.714,-180.245"/>
</g>
<!-- measure_overheads -->
<g id="node31" class="node"><title>measure_overheads</title>
<ellipse fill="none" stroke="black" cx="1533.99" cy="-234" rx="80.6858" ry="18"/>
<text text-anchor="middle" x="1533.99" y="-230.3" font-family="Times,serif" font-size="14.00">measure_overheads</text>
</g>
<!-- measure_overheads&#45;&gt;median -->
<g id="edge45" class="edge"><title>measure_overheads&#45;&gt;median</title>
<path fill="none" stroke="black" d="M1501.59,-217.465C1478.15,-206.228 1446.53,-191.067 1422.6,-179.594"/>
<polygon fill="black" stroke="black" points="1424.04,-176.405 1413.51,-175.238 1421.02,-182.717 1424.04,-176.405"/>
</g>
<!-- measure_overheads&#45;&gt;read_tsc_start -->
<g id="edge41" class="edge"><title>measure_overheads&#45;&gt;read_tsc_start</title>
<path fill="none" stroke="black" d="M1470.66,-222.838C1410.96,-212.961 1319.09,-196.998 1239.99,-180 1235.33,-178.998 1230.5,-177.905 1225.66,-176.771"/>
<polygon fill="black" stroke="black" points="1226.32,-173.33 1215.78,-174.404 1224.69,-180.138 1226.32,-173.33"/>
</g>
<!-- measure_overheads&#45;&gt;read_tsc_end -->
<g id="edge46" class="edge"><title>measure_overheads&#45;&gt;read_tsc_end</title>
<path fill="none" stroke="black" d="M1459.94,-226.84C1373.72,-218.987 1227.25,-203.54 1102.99,-180 1098.23,-179.098 1093.3,-178.049 1088.38,-176.923"/>
<polygon fill="black" stroke="black" points="1088.89,-173.447 1078.35,-174.528 1087.26,-180.255 1088.89,-173.447"/>
</g>
<!-- umax -->
<g id="node32" class="node"><title>umax</title>
<ellipse fill="none" stroke="black" cx="1680.99" cy="-162" rx="30.5947" ry="18"/>
<text text-anchor="middle" x="1680.99" y="-158.3" font-family="Times,serif" font-size="14.00">umax</text>
</g>
<!-- measure_overheads&#45;&gt;umax -->
<g id="edge42" class="edge"><title>measure_overheads&#45;&gt;umax</title>
<path fill="none" stroke="black" d="M1566.61,-217.465C1591.11,-205.802 1624.48,-189.91 1648.85,-178.304"/>
<polygon fill="black" stroke="black" points="1650.52,-181.387 1658.04,-173.928 1647.51,-175.067 1650.52,-181.387"/>
</g>
<!-- average -->
<g id="node33" class="node"><title>average</title>
<ellipse fill="none" stroke="black" cx="1767.99" cy="-162" rx="38.1938" ry="18"/>
<text text-anchor="middle" x="1767.99" y="-158.3" font-family="Times,serif" font-size="14.00">average</text>
</g>
<!-- measure_overheads&#45;&gt;average -->
<g id="edge43" class="edge"><title>measure_overheads&#45;&gt;average</title>
<path fill="none" stroke="black" d="M1584.28,-219.785C1622.09,-209.598 1675.06,-194.795 1720.99,-180 1723.74,-179.115 1726.57,-178.172 1729.41,-177.202"/>
<polygon fill="black" stroke="black" points="1730.73,-180.447 1739.02,-173.843 1728.42,-173.839 1730.73,-180.447"/>
</g>
<!-- umin -->
<g id="node34" class="node"><title>umin</title>
<ellipse fill="none" stroke="black" cx="1853.99" cy="-162" rx="29.4969" ry="18"/>
<text text-anchor="middle" x="1853.99" y="-158.3" font-family="Times,serif" font-size="14.00">umin</text>
</g>
<!-- measure_overheads&#45;&gt;umin -->
<g id="edge44" class="edge"><title>measure_overheads&#45;&gt;umin</title>
<path fill="none" stroke="black" d="M1602.59,-224.456C1660.14,-216.25 1744.06,-201.844 1814.99,-180 1817.4,-179.258 1819.86,-178.412 1822.31,-177.503"/>
<polygon fill="black" stroke="black" points="1823.65,-180.737 1831.63,-173.768 1821.05,-174.239 1823.65,-180.737"/>
</g>
<!-- emit_stall_timestamp_and_rpc -->
<g id="node35" class="node"><title>emit_stall_timestamp_and_rpc</title>
<ellipse fill="none" stroke="black" cx="1910.99" cy="-234" rx="120.479" ry="18"/>
<text text-anchor="middle" x="1910.99" y="-230.3" font-family="Times,serif" font-size="14.00">emit_stall_timestamp_and_rpc</text>
</g>
<!-- emit_stall_timestamp_and_rpc&#45;&gt;emit_report_perf_count -->
<g id="edge47" class="edge"><title>emit_stall_timestamp_and_rpc&#45;&gt;emit_report_perf_count</title>
<path fill="none" stroke="black" d="M1839.07,-219.503C1774.03,-207.297 1678.64,-189.395 1612.73,-177.027"/>
<polygon fill="black" stroke="black" points="1613.3,-173.573 1602.83,-175.168 1612.01,-180.453 1613.3,-173.573"/>
</g>
<!-- emit_stall_timestamp_and_rpc&#45;&gt;intel_batchbuffer_emit_dword -->
<g id="edge49" class="edge"><title>emit_stall_timestamp_and_rpc&#45;&gt;intel_batchbuffer_emit_dword</title>
<path fill="none" stroke="black" d="M2023.49,-227.589C2150.81,-220.289 2343.55,-205.207 2365.99,-180 2395.9,-146.401 2341.57,-122.126 2289.57,-107.498"/>
<polygon fill="black" stroke="black" points="2290.47,-104.117 2279.91,-104.878 2288.64,-110.873 2290.47,-104.117"/>
</g>
<!-- emit_stall_timestamp_and_rpc&#45;&gt;intel_batchbuffer_require_space -->
<g id="edge48" class="edge"><title>emit_stall_timestamp_and_rpc&#45;&gt;intel_batchbuffer_require_space</title>
<path fill="none" stroke="black" d="M1913.64,-215.673C1916.65,-197.541 1922.18,-168.376 1929.99,-144 1932.8,-135.212 1936.56,-125.895 1940.23,-117.565"/>
<polygon fill="black" stroke="black" points="1943.48,-118.882 1944.42,-108.329 1937.1,-115.986 1943.48,-118.882"/>
</g>
<!-- read_i915_module_ref -->
<g id="node36" class="node"><title>read_i915_module_ref</title>
<ellipse fill="none" stroke="black" cx="2707.99" cy="-234" rx="90.9839" ry="18"/>
<text text-anchor="middle" x="2707.99" y="-230.3" font-family="Times,serif" font-size="14.00">read_i915_module_ref</text>
</g>
<!-- print_binary -->
<g id="node37" class="node"><title>print_binary</title>
<ellipse fill="none" stroke="black" cx="2870.99" cy="-234" rx="53.8905" ry="18"/>
<text text-anchor="middle" x="2870.99" y="-230.3" font-family="Times,serif" font-size="14.00">print_binary</text>
</g>
<!-- profile_through_opencl -->
<g id="node38" class="node"><title>profile_through_opencl</title>
<ellipse fill="none" stroke="black" cx="3036.99" cy="-234" rx="93.6835" ry="18"/>
<text text-anchor="middle" x="3036.99" y="-230.3" font-family="Times,serif" font-size="14.00">profile_through_opencl</text>
</g>
<!-- gen8_read_report_ticks -->
<g id="node39" class="node"><title>gen8_read_report_ticks</title>
<ellipse fill="none" stroke="black" cx="3241.99" cy="-234" rx="93.6835" ry="18"/>
<text text-anchor="middle" x="3241.99" y="-230.3" font-family="Times,serif" font-size="14.00">gen8_read_report_ticks</text>
</g>
<!-- write_u64_file -->
<g id="node40" class="node"><title>write_u64_file</title>
<ellipse fill="none" stroke="black" cx="3415.99" cy="-234" rx="62.2891" ry="18"/>
<text text-anchor="middle" x="3415.99" y="-230.3" font-family="Times,serif" font-size="14.00">write_u64_file</text>
</g>
<!-- oa_report_is_periodic -->
<g id="node41" class="node"><title>oa_report_is_periodic</title>
<ellipse fill="none" stroke="black" cx="3583.99" cy="-234" rx="87.9851" ry="18"/>
<text text-anchor="middle" x="3583.99" y="-230.3" font-family="Times,serif" font-size="14.00">oa_report_is_periodic</text>
</g>
<!-- fmedian -->
<g id="node42" class="node"><title>fmedian</title>
<ellipse fill="none" stroke="black" cx="3729.99" cy="-234" rx="40.0939" ry="18"/>
<text text-anchor="middle" x="3729.99" y="-230.3" font-family="Times,serif" font-size="14.00">fmedian</text>
</g>
<!-- print_report_card -->
<g id="node43" class="node"><title>print_report_card</title>
<ellipse fill="none" stroke="black" cx="3859.99" cy="-234" rx="72.2875" ry="18"/>
<text text-anchor="middle" x="3859.99" y="-230.3" font-family="Times,serif" font-size="14.00">print_report_card</text>
</g>
<!-- oa_exponent_to_ns -->
<g id="node44" class="node"><title>oa_exponent_to_ns</title>
<ellipse fill="none" stroke="black" cx="4028.99" cy="-234" rx="79.0865" ry="18"/>
<text text-anchor="middle" x="4028.99" y="-230.3" font-family="Times,serif" font-size="14.00">oa_exponent_to_ns</text>
</g>
<!-- i915_perf_remove_config -->
<g id="node45" class="node"><title>i915_perf_remove_config</title>
<ellipse fill="none" stroke="black" cx="4228.99" cy="-234" rx="102.882" ry="18"/>
<text text-anchor="middle" x="4228.99" y="-230.3" font-family="Times,serif" font-size="14.00">i915_perf_remove_config</text>
</g>
<!-- create_filtering_word -->
<g id="node46" class="node"><title>create_filtering_word</title>
<ellipse fill="none" stroke="black" cx="4436.99" cy="-234" rx="87.1846" ry="18"/>
<text text-anchor="middle" x="4436.99" y="-230.3" font-family="Times,serif" font-size="14.00">create_filtering_word</text>
</g>
</g>
</svg>
