<?xml version="1.0" encoding="UTF-8" standalone="no"?>
<!DOCTYPE svg PUBLIC "-//W3C//DTD SVG 1.1//EN"
 "http://www.w3.org/Graphics/SVG/1.1/DTD/svg11.dtd">
<!-- Generated by graphviz version 2.38.0 (20140413.2041)
 -->
<!-- Title: callgraph Pages: 1 -->
<svg width="3721pt" height="260pt"
 viewBox="0.00 0.00 3721.49 260.00" xmlns="http://www.w3.org/2000/svg" xmlns:xlink="http://www.w3.org/1999/xlink">
<g id="graph0" class="graph" transform="scale(1 1) rotate(0) translate(4 256)">
<title>callgraph</title>
<polygon fill="white" stroke="none" points="-4,4 -4,-256 3717.49,-256 3717.49,4 -4,4"/>
<!-- intel_batchbuffer_require_space -->
<g id="node1" class="node"><title>intel_batchbuffer_require_space</title>
<ellipse fill="none" stroke="black" cx="413.195" cy="-90" rx="124.278" ry="18"/>
<text text-anchor="middle" x="413.195" y="-86.3" font-family="Times,serif" font-size="14.00">intel_batchbuffer_require_space</text>
</g>
<!-- intel_batchbuffer_space -->
<g id="node2" class="node"><title>intel_batchbuffer_space</title>
<ellipse fill="none" stroke="black" cx="283.195" cy="-18" rx="94.7833" ry="18"/>
<text text-anchor="middle" x="283.195" y="-14.3" font-family="Times,serif" font-size="14.00">intel_batchbuffer_space</text>
</g>
<!-- intel_batchbuffer_require_space&#45;&gt;intel_batchbuffer_space -->
<g id="edge1" class="edge"><title>intel_batchbuffer_require_space&#45;&gt;intel_batchbuffer_space</title>
<path fill="none" stroke="black" d="M382.387,-72.411C364.367,-62.7082 341.447,-50.3664 322.179,-39.9915"/>
<polygon fill="black" stroke="black" points="323.797,-36.8879 313.333,-35.2285 320.479,-43.0512 323.797,-36.8879"/>
</g>
<!-- test_whitelisted_registers_userspace_config -->
<g id="node3" class="node"><title>test_whitelisted_registers_userspace_config</title>
<ellipse fill="none" stroke="black" cx="2044.19" cy="-234" rx="165.171" ry="18"/>
<text text-anchor="middle" x="2044.19" y="-230.3" font-family="Times,serif" font-size="14.00">test_whitelisted_registers_userspace_config</text>
</g>
<!-- read_u64_file -->
<g id="node4" class="node"><title>read_u64_file</title>
<ellipse fill="none" stroke="black" cx="2224.19" cy="-162" rx="59.5901" ry="18"/>
<text text-anchor="middle" x="2224.19" y="-158.3" font-family="Times,serif" font-size="14.00">read_u64_file</text>
</g>
<!-- test_whitelisted_registers_userspace_config&#45;&gt;read_u64_file -->
<g id="edge2" class="edge"><title>test_whitelisted_registers_userspace_config&#45;&gt;read_u64_file</title>
<path fill="none" stroke="black" d="M2086.4,-216.588C2114.5,-205.66 2151.36,-191.326 2179.88,-180.233"/>
<polygon fill="black" stroke="black" points="2181.16,-183.491 2189.21,-176.605 2178.62,-176.967 2181.16,-183.491"/>
</g>
<!-- i915_perf_remove_config -->
<g id="node5" class="node"><title>i915_perf_remove_config</title>
<ellipse fill="none" stroke="black" cx="2044.19" cy="-162" rx="102.882" ry="18"/>
<text text-anchor="middle" x="2044.19" y="-158.3" font-family="Times,serif" font-size="14.00">i915_perf_remove_config</text>
</g>
<!-- test_whitelisted_registers_userspace_config&#45;&gt;i915_perf_remove_config -->
<g id="edge3" class="edge"><title>test_whitelisted_registers_userspace_config&#45;&gt;i915_perf_remove_config</title>
<path fill="none" stroke="black" d="M2044.19,-215.697C2044.19,-207.983 2044.19,-198.712 2044.19,-190.112"/>
<polygon fill="black" stroke="black" points="2047.69,-190.104 2044.19,-180.104 2040.69,-190.104 2047.69,-190.104"/>
</g>
<!-- send_mi_store_reg_mem -->
<g id="node6" class="node"><title>send_mi_store_reg_mem</title>
<ellipse fill="none" stroke="black" cx="580.195" cy="-162" rx="100.983" ry="18"/>
<text text-anchor="middle" x="580.195" y="-158.3" font-family="Times,serif" font-size="14.00">send_mi_store_reg_mem</text>
</g>
<!-- send_mi_store_reg_mem&#45;&gt;intel_batchbuffer_require_space -->
<g id="edge5" class="edge"><title>send_mi_store_reg_mem&#45;&gt;intel_batchbuffer_require_space</title>
<path fill="none" stroke="black" d="M542.717,-145.291C518.564,-135.167 486.94,-121.911 460.987,-111.033"/>
<polygon fill="black" stroke="black" points="462.282,-107.78 451.706,-107.142 459.576,-114.236 462.282,-107.78"/>
</g>
<!-- intel_batchbuffer_emit_dword -->
<g id="node7" class="node"><title>intel_batchbuffer_emit_dword</title>
<ellipse fill="none" stroke="black" cx="153.195" cy="-90" rx="118.079" ry="18"/>
<text text-anchor="middle" x="153.195" y="-86.3" font-family="Times,serif" font-size="14.00">intel_batchbuffer_emit_dword</text>
</g>
<!-- send_mi_store_reg_mem&#45;&gt;intel_batchbuffer_emit_dword -->
<g id="edge4" class="edge"><title>send_mi_store_reg_mem&#45;&gt;intel_batchbuffer_emit_dword</title>
<path fill="none" stroke="black" d="M508.725,-149.284C434.957,-137.191 319.789,-118.311 240.636,-105.335"/>
<polygon fill="black" stroke="black" points="241.118,-101.867 230.684,-103.703 239.986,-108.775 241.118,-101.867"/>
</g>
<!-- intel_batchbuffer_emit_dword&#45;&gt;intel_batchbuffer_space -->
<g id="edge31" class="edge"><title>intel_batchbuffer_emit_dword&#45;&gt;intel_batchbuffer_space</title>
<path fill="none" stroke="black" d="M183.674,-72.5881C201.685,-62.89 224.677,-50.5096 244.023,-40.0923"/>
<polygon fill="black" stroke="black" points="245.761,-43.1318 252.906,-35.3091 242.442,-36.9685 245.761,-43.1318"/>
</g>
<!-- max_oa_exponent_for_freq_gt -->
<g id="node8" class="node"><title>max_oa_exponent_for_freq_gt</title>
<ellipse fill="none" stroke="black" cx="2479.19" cy="-234" rx="120.479" ry="18"/>
<text text-anchor="middle" x="2479.19" y="-230.3" font-family="Times,serif" font-size="14.00">max_oa_exponent_for_freq_gt</text>
</g>
<!-- max_oa_exponent_for_period_lte -->
<g id="node9" class="node"><title>max_oa_exponent_for_period_lte</title>
<ellipse fill="none" stroke="black" cx="2446.19" cy="-162" rx="129.977" ry="18"/>
<text text-anchor="middle" x="2446.19" y="-158.3" font-family="Times,serif" font-size="14.00">max_oa_exponent_for_period_lte</text>
</g>
<!-- max_oa_exponent_for_freq_gt&#45;&gt;max_oa_exponent_for_period_lte -->
<g id="edge6" class="edge"><title>max_oa_exponent_for_freq_gt&#45;&gt;max_oa_exponent_for_period_lte</title>
<path fill="none" stroke="black" d="M2471.04,-215.697C2467.28,-207.728 2462.74,-198.1 2458.58,-189.264"/>
<polygon fill="black" stroke="black" points="2461.69,-187.657 2454.26,-180.104 2455.36,-190.642 2461.69,-187.657"/>
</g>
<!-- timebase_scale -->
<g id="node31" class="node"><title>timebase_scale</title>
<ellipse fill="none" stroke="black" cx="2446.19" cy="-90" rx="64.189" ry="18"/>
<text text-anchor="middle" x="2446.19" y="-86.3" font-family="Times,serif" font-size="14.00">timebase_scale</text>
</g>
<!-- max_oa_exponent_for_period_lte&#45;&gt;timebase_scale -->
<g id="edge37" class="edge"><title>max_oa_exponent_for_period_lte&#45;&gt;timebase_scale</title>
<path fill="none" stroke="black" d="M2446.19,-143.697C2446.19,-135.983 2446.19,-126.712 2446.19,-118.112"/>
<polygon fill="black" stroke="black" points="2449.69,-118.104 2446.19,-108.104 2442.69,-118.104 2449.69,-118.104"/>
</g>
<!-- init_sys_info -->
<g id="node10" class="node"><title>init_sys_info</title>
<ellipse fill="none" stroke="black" cx="2284.19" cy="-234" rx="56.59" ry="18"/>
<text text-anchor="middle" x="2284.19" y="-230.3" font-family="Times,serif" font-size="14.00">init_sys_info</text>
</g>
<!-- init_sys_info&#45;&gt;read_u64_file -->
<g id="edge7" class="edge"><title>init_sys_info&#45;&gt;read_u64_file</title>
<path fill="none" stroke="black" d="M2269.98,-216.411C2262.61,-207.82 2253.47,-197.159 2245.3,-187.627"/>
<polygon fill="black" stroke="black" points="2247.89,-185.271 2238.73,-179.956 2242.58,-189.827 2247.89,-185.271"/>
</g>
<!-- init_sys_info&#45;&gt;max_oa_exponent_for_period_lte -->
<g id="edge8" class="edge"><title>init_sys_info&#45;&gt;max_oa_exponent_for_period_lte</title>
<path fill="none" stroke="black" d="M2316.59,-219.003C2340.19,-208.804 2372.53,-194.831 2399,-183.393"/>
<polygon fill="black" stroke="black" points="2400.67,-186.485 2408.46,-179.306 2397.89,-180.06 2400.67,-186.485"/>
</g>
<!-- __perf_open -->
<g id="node11" class="node"><title>__perf_open</title>
<ellipse fill="none" stroke="black" cx="918.195" cy="-162" rx="55.4913" ry="18"/>
<text text-anchor="middle" x="918.195" y="-158.3" font-family="Times,serif" font-size="14.00">__perf_open</text>
</g>
<!-- __perf_close -->
<g id="node12" class="node"><title>__perf_close</title>
<ellipse fill="none" stroke="black" cx="741.195" cy="-90" rx="55.7903" ry="18"/>
<text text-anchor="middle" x="741.195" y="-86.3" font-family="Times,serif" font-size="14.00">__perf_close</text>
</g>
<!-- __perf_open&#45;&gt;__perf_close -->
<g id="edge9" class="edge"><title>__perf_open&#45;&gt;__perf_close</title>
<path fill="none" stroke="black" d="M884.486,-147.669C856.157,-136.465 815.48,-120.378 784.697,-108.204"/>
<polygon fill="black" stroke="black" points="785.666,-104.824 775.079,-104.401 783.091,-111.333 785.666,-104.824"/>
</g>
<!-- write_to_flexible_eu_registers -->
<g id="node13" class="node"><title>write_to_flexible_eu_registers</title>
<ellipse fill="none" stroke="black" cx="753.195" cy="-234" rx="118.079" ry="18"/>
<text text-anchor="middle" x="753.195" y="-230.3" font-family="Times,serif" font-size="14.00">write_to_flexible_eu_registers</text>
</g>
<!-- write_to_flexible_eu_registers&#45;&gt;send_mi_store_reg_mem -->
<g id="edge14" class="edge"><title>write_to_flexible_eu_registers&#45;&gt;send_mi_store_reg_mem</title>
<path fill="none" stroke="black" d="M713.505,-216.941C688.273,-206.731 655.436,-193.444 628.666,-182.613"/>
<polygon fill="black" stroke="black" points="629.686,-179.25 619.104,-178.743 627.061,-185.739 629.686,-179.25"/>
</g>
<!-- write_to_flexible_eu_registers&#45;&gt;__perf_open -->
<g id="edge13" class="edge"><title>write_to_flexible_eu_registers&#45;&gt;__perf_open</title>
<path fill="none" stroke="black" d="M791.049,-216.941C816.555,-206.12 850.208,-191.843 876.485,-180.695"/>
<polygon fill="black" stroke="black" points="877.964,-183.87 885.803,-176.742 875.23,-177.426 877.964,-183.87"/>
</g>
<!-- write_to_flexible_eu_registers&#45;&gt;__perf_close -->
<g id="edge11" class="edge"><title>write_to_flexible_eu_registers&#45;&gt;__perf_close</title>
<path fill="none" stroke="black" d="M782.503,-216.501C795.371,-207.534 809.137,-195.161 816.195,-180 822.947,-165.495 823.552,-158.208 816.195,-144 808.797,-129.715 795.58,-118.457 782.281,-110.059"/>
<polygon fill="black" stroke="black" points="783.984,-107 773.589,-104.951 780.437,-113.035 783.984,-107"/>
</g>
<!-- send_mi_load_reg_mem -->
<g id="node14" class="node"><title>send_mi_load_reg_mem</title>
<ellipse fill="none" stroke="black" cx="116.195" cy="-162" rx="98.5829" ry="18"/>
<text text-anchor="middle" x="116.195" y="-158.3" font-family="Times,serif" font-size="14.00">send_mi_load_reg_mem</text>
</g>
<!-- write_to_flexible_eu_registers&#45;&gt;send_mi_load_reg_mem -->
<g id="edge10" class="edge"><title>write_to_flexible_eu_registers&#45;&gt;send_mi_load_reg_mem</title>
<path fill="none" stroke="black" d="M652.082,-224.573C545.476,-215.29 372.727,-199.115 224.195,-180 215.278,-178.852 205.963,-177.547 196.703,-176.183"/>
<polygon fill="black" stroke="black" points="197.106,-172.704 186.698,-174.683 196.069,-179.627 197.106,-172.704"/>
</g>
<!-- print_binary -->
<g id="node15" class="node"><title>print_binary</title>
<ellipse fill="none" stroke="black" cx="753.195" cy="-162" rx="53.8905" ry="18"/>
<text text-anchor="middle" x="753.195" y="-158.3" font-family="Times,serif" font-size="14.00">print_binary</text>
</g>
<!-- write_to_flexible_eu_registers&#45;&gt;print_binary -->
<g id="edge12" class="edge"><title>write_to_flexible_eu_registers&#45;&gt;print_binary</title>
<path fill="none" stroke="black" d="M753.195,-215.697C753.195,-207.983 753.195,-198.712 753.195,-190.112"/>
<polygon fill="black" stroke="black" points="756.695,-190.104 753.195,-180.104 749.695,-190.104 756.695,-190.104"/>
</g>
<!-- send_mi_load_reg_mem&#45;&gt;intel_batchbuffer_require_space -->
<g id="edge16" class="edge"><title>send_mi_load_reg_mem&#45;&gt;intel_batchbuffer_require_space</title>
<path fill="none" stroke="black" d="M174.164,-147.337C221.881,-136.091 289.762,-120.092 341.001,-108.015"/>
<polygon fill="black" stroke="black" points="342.086,-111.356 351.017,-105.655 340.48,-104.542 342.086,-111.356"/>
</g>
<!-- send_mi_load_reg_mem&#45;&gt;intel_batchbuffer_emit_dword -->
<g id="edge17" class="edge"><title>send_mi_load_reg_mem&#45;&gt;intel_batchbuffer_emit_dword</title>
<path fill="none" stroke="black" d="M125.151,-144.055C129.405,-136.007 134.587,-126.205 139.333,-117.226"/>
<polygon fill="black" stroke="black" points="142.485,-118.752 144.064,-108.275 136.296,-115.481 142.485,-118.752"/>
</g>
<!-- hsw_read_report_ticks -->
<g id="node16" class="node"><title>hsw_read_report_ticks</title>
<ellipse fill="none" stroke="black" cx="906.195" cy="-90" rx="90.9839" ry="18"/>
<text text-anchor="middle" x="906.195" y="-86.3" font-family="Times,serif" font-size="14.00">hsw_read_report_ticks</text>
</g>
<!-- get_oa_format -->
<g id="node17" class="node"><title>get_oa_format</title>
<ellipse fill="none" stroke="black" cx="1461.19" cy="-18" rx="62.2891" ry="18"/>
<text text-anchor="middle" x="1461.19" y="-14.3" font-family="Times,serif" font-size="14.00">get_oa_format</text>
</g>
<!-- hsw_read_report_ticks&#45;&gt;get_oa_format -->
<g id="edge15" class="edge"><title>hsw_read_report_ticks&#45;&gt;get_oa_format</title>
<path fill="none" stroke="black" d="M971.474,-77.3956C983.025,-75.4871 994.951,-73.6095 1006.19,-72 1143.21,-52.3876 1304.23,-34.9457 1393.28,-25.7879"/>
<polygon fill="black" stroke="black" points="1393.66,-29.2675 1403.25,-24.7663 1392.95,-22.3039 1393.66,-29.2675"/>
</g>
<!-- test_counters_with_opencl -->
<g id="node18" class="node"><title>test_counters_with_opencl</title>
<ellipse fill="none" stroke="black" cx="1538.19" cy="-234" rx="104.782" ry="18"/>
<text text-anchor="middle" x="1538.19" y="-230.3" font-family="Times,serif" font-size="14.00">test_counters_with_opencl</text>
</g>
<!-- test_counters_with_opencl&#45;&gt;read_u64_file -->
<g id="edge24" class="edge"><title>test_counters_with_opencl&#45;&gt;read_u64_file</title>
<path fill="none" stroke="black" d="M1639.43,-229.271C1762.35,-223.607 1975.62,-210.117 2156.19,-180 2161.24,-179.158 2166.47,-178.134 2171.67,-177.011"/>
<polygon fill="black" stroke="black" points="2172.64,-180.381 2181.61,-174.75 2171.08,-173.556 2172.64,-180.381"/>
</g>
<!-- test_counters_with_opencl&#45;&gt;__perf_open -->
<g id="edge23" class="edge"><title>test_counters_with_opencl&#45;&gt;__perf_open</title>
<path fill="none" stroke="black" d="M1453.29,-223.414C1326.57,-209.107 1091,-182.51 979.601,-169.933"/>
<polygon fill="black" stroke="black" points="979.868,-166.441 969.538,-168.797 979.082,-173.397 979.868,-166.441"/>
</g>
<!-- test_counters_with_opencl&#45;&gt;__perf_close -->
<g id="edge20" class="edge"><title>test_counters_with_opencl&#45;&gt;__perf_close</title>
<path fill="none" stroke="black" d="M1460.3,-221.968C1326.08,-202.451 1042.8,-159.043 806.195,-108 801.591,-107.007 796.823,-105.904 792.056,-104.751"/>
<polygon fill="black" stroke="black" points="792.877,-101.349 782.328,-102.333 791.188,-108.142 792.877,-101.349"/>
</g>
<!-- print_reports -->
<g id="node19" class="node"><title>print_reports</title>
<ellipse fill="none" stroke="black" cx="1407.19" cy="-162" rx="55.7903" ry="18"/>
<text text-anchor="middle" x="1407.19" y="-158.3" font-family="Times,serif" font-size="14.00">print_reports</text>
</g>
<!-- test_counters_with_opencl&#45;&gt;print_reports -->
<g id="edge18" class="edge"><title>test_counters_with_opencl&#45;&gt;print_reports</title>
<path fill="none" stroke="black" d="M1507.81,-216.765C1488.67,-206.538 1463.85,-193.276 1443.65,-182.483"/>
<polygon fill="black" stroke="black" points="1445.21,-179.343 1434.74,-177.717 1441.91,-185.517 1445.21,-179.343"/>
</g>
<!-- scratch_buf_memset -->
<g id="node20" class="node"><title>scratch_buf_memset</title>
<ellipse fill="none" stroke="black" cx="2028.19" cy="-90" rx="84.485" ry="18"/>
<text text-anchor="middle" x="2028.19" y="-86.3" font-family="Times,serif" font-size="14.00">scratch_buf_memset</text>
</g>
<!-- test_counters_with_opencl&#45;&gt;scratch_buf_memset -->
<g id="edge19" class="edge"><title>test_counters_with_opencl&#45;&gt;scratch_buf_memset</title>
<path fill="none" stroke="black" d="M1559.96,-216.25C1573.01,-206.032 1589.8,-192.561 1604.19,-180 1621.72,-164.704 1621.15,-153.92 1642.19,-144 1760.47,-88.2421 1804.92,-127.643 1934.19,-108 1941.75,-106.853 1949.62,-105.568 1957.46,-104.232"/>
<polygon fill="black" stroke="black" points="1958.09,-107.676 1967.35,-102.52 1956.9,-100.778 1958.09,-107.676"/>
</g>
<!-- scratch_buf_init -->
<g id="node21" class="node"><title>scratch_buf_init</title>
<ellipse fill="none" stroke="black" cx="1856.19" cy="-162" rx="67.6881" ry="18"/>
<text text-anchor="middle" x="1856.19" y="-158.3" font-family="Times,serif" font-size="14.00">scratch_buf_init</text>
</g>
<!-- test_counters_with_opencl&#45;&gt;scratch_buf_init -->
<g id="edge21" class="edge"><title>test_counters_with_opencl&#45;&gt;scratch_buf_init</title>
<path fill="none" stroke="black" d="M1600.38,-219.46C1649.27,-208.796 1719.09,-193.524 1780.19,-180 1785.48,-178.831 1790.96,-177.613 1796.46,-176.388"/>
<polygon fill="black" stroke="black" points="1797.33,-179.781 1806.33,-174.188 1795.8,-172.948 1797.33,-179.781"/>
</g>
<!-- read_tsc_start -->
<g id="node22" class="node"><title>read_tsc_start</title>
<ellipse fill="none" stroke="black" cx="1711.19" cy="-162" rx="59.5901" ry="18"/>
<text text-anchor="middle" x="1711.19" y="-158.3" font-family="Times,serif" font-size="14.00">read_tsc_start</text>
</g>
<!-- test_counters_with_opencl&#45;&gt;read_tsc_start -->
<g id="edge22" class="edge"><title>test_counters_with_opencl&#45;&gt;read_tsc_start</title>
<path fill="none" stroke="black" d="M1577.45,-217.116C1604.29,-206.255 1639.89,-191.851 1667.61,-180.634"/>
<polygon fill="black" stroke="black" points="1669.11,-183.806 1677.06,-176.811 1666.48,-177.317 1669.11,-183.806"/>
</g>
<!-- emit_report_perf_count -->
<g id="node23" class="node"><title>emit_report_perf_count</title>
<ellipse fill="none" stroke="black" cx="328.195" cy="-162" rx="94.7833" ry="18"/>
<text text-anchor="middle" x="328.195" y="-158.3" font-family="Times,serif" font-size="14.00">emit_report_perf_count</text>
</g>
<!-- test_counters_with_opencl&#45;&gt;emit_report_perf_count -->
<g id="edge25" class="edge"><title>test_counters_with_opencl&#45;&gt;emit_report_perf_count</title>
<path fill="none" stroke="black" d="M1435.68,-230.285C1245.22,-224.715 823.978,-209.919 470.195,-180 451.845,-178.448 432.208,-176.369 413.571,-174.197"/>
<polygon fill="black" stroke="black" points="413.974,-170.721 403.632,-173.02 413.151,-177.672 413.974,-170.721"/>
</g>
<!-- read_tsc_end -->
<g id="node24" class="node"><title>read_tsc_end</title>
<ellipse fill="none" stroke="black" cx="1538.19" cy="-162" rx="57.3905" ry="18"/>
<text text-anchor="middle" x="1538.19" y="-158.3" font-family="Times,serif" font-size="14.00">read_tsc_end</text>
</g>
<!-- test_counters_with_opencl&#45;&gt;read_tsc_end -->
<g id="edge26" class="edge"><title>test_counters_with_opencl&#45;&gt;read_tsc_end</title>
<path fill="none" stroke="black" d="M1538.19,-215.697C1538.19,-207.983 1538.19,-198.712 1538.19,-190.112"/>
<polygon fill="black" stroke="black" points="1541.69,-190.104 1538.19,-180.104 1534.69,-190.104 1541.69,-190.104"/>
</g>
<!-- print_reports&#45;&gt;get_oa_format -->
<g id="edge32" class="edge"><title>print_reports&#45;&gt;get_oa_format</title>
<path fill="none" stroke="black" d="M1420.6,-144.262C1427.99,-134.267 1436.74,-121.017 1442.19,-108 1450.48,-88.2388 1455.32,-64.437 1458.04,-46.4219"/>
<polygon fill="black" stroke="black" points="1461.53,-46.6846 1459.44,-36.2996 1454.6,-45.7265 1461.53,-46.6846"/>
</g>
<!-- gen8_read_40bit_a_counter -->
<g id="node25" class="node"><title>gen8_read_40bit_a_counter</title>
<ellipse fill="none" stroke="black" cx="1598.19" cy="-90" rx="108.581" ry="18"/>
<text text-anchor="middle" x="1598.19" y="-86.3" font-family="Times,serif" font-size="14.00">gen8_read_40bit_a_counter</text>
</g>
<!-- print_reports&#45;&gt;gen8_read_40bit_a_counter -->
<g id="edge34" class="edge"><title>print_reports&#45;&gt;gen8_read_40bit_a_counter</title>
<path fill="none" stroke="black" d="M1442.67,-147.998C1471.74,-137.346 1513.27,-122.123 1546.11,-110.088"/>
<polygon fill="black" stroke="black" points="1547.38,-113.352 1555.56,-106.625 1544.97,-106.78 1547.38,-113.352"/>
</g>
<!-- gen8_read_report_reason -->
<g id="node28" class="node"><title>gen8_read_report_reason</title>
<ellipse fill="none" stroke="black" cx="1825.19" cy="-90" rx="100.182" ry="18"/>
<text text-anchor="middle" x="1825.19" y="-86.3" font-family="Times,serif" font-size="14.00">gen8_read_report_reason</text>
</g>
<!-- print_reports&#45;&gt;gen8_read_report_reason -->
<g id="edge33" class="edge"><title>print_reports&#45;&gt;gen8_read_report_reason</title>
<path fill="none" stroke="black" d="M1447.95,-149.613C1455.95,-147.584 1464.31,-145.608 1472.19,-144 1579.6,-122.099 1607.82,-124.446 1716.19,-108 1724.72,-106.706 1733.63,-105.34 1742.51,-103.969"/>
<polygon fill="black" stroke="black" points="1743.16,-107.411 1752.5,-102.422 1742.09,-100.493 1743.16,-107.411"/>
</g>
<!-- gen8_read_report_clock_ratios -->
<g id="node29" class="node"><title>gen8_read_report_clock_ratios</title>
<ellipse fill="none" stroke="black" cx="1135.19" cy="-90" rx="120.479" ry="18"/>
<text text-anchor="middle" x="1135.19" y="-86.3" font-family="Times,serif" font-size="14.00">gen8_read_report_clock_ratios</text>
</g>
<!-- print_reports&#45;&gt;gen8_read_report_clock_ratios -->
<g id="edge35" class="edge"><title>print_reports&#45;&gt;gen8_read_report_clock_ratios</title>
<path fill="none" stroke="black" d="M1364.99,-150.139C1321.77,-139.015 1253.89,-121.547 1203.1,-108.475"/>
<polygon fill="black" stroke="black" points="1203.73,-105.025 1193.18,-105.922 1201.99,-111.804 1203.73,-105.025"/>
</g>
<!-- gen8_40bit_a_delta -->
<g id="node30" class="node"><title>gen8_40bit_a_delta</title>
<ellipse fill="none" stroke="black" cx="1353.19" cy="-90" rx="79.8859" ry="18"/>
<text text-anchor="middle" x="1353.19" y="-86.3" font-family="Times,serif" font-size="14.00">gen8_40bit_a_delta</text>
</g>
<!-- print_reports&#45;&gt;gen8_40bit_a_delta -->
<g id="edge36" class="edge"><title>print_reports&#45;&gt;gen8_40bit_a_delta</title>
<path fill="none" stroke="black" d="M1394.4,-144.411C1387.84,-135.906 1379.71,-125.372 1372.41,-115.914"/>
<polygon fill="black" stroke="black" points="1375.15,-113.736 1366.28,-107.956 1369.61,-118.012 1375.15,-113.736"/>
</g>
<!-- scratch_buf_init&#45;&gt;scratch_buf_memset -->
<g id="edge41" class="edge"><title>scratch_buf_init&#45;&gt;scratch_buf_memset</title>
<path fill="none" stroke="black" d="M1891.83,-146.496C1917.82,-135.918 1953.29,-121.484 1981.54,-109.988"/>
<polygon fill="black" stroke="black" points="1982.87,-113.223 1990.82,-106.212 1980.24,-106.74 1982.87,-113.223"/>
</g>
<!-- emit_report_perf_count&#45;&gt;intel_batchbuffer_require_space -->
<g id="edge28" class="edge"><title>emit_report_perf_count&#45;&gt;intel_batchbuffer_require_space</title>
<path fill="none" stroke="black" d="M348.771,-144.055C359.629,-135.113 373.117,-124.005 384.941,-114.268"/>
<polygon fill="black" stroke="black" points="387.314,-116.848 392.808,-107.789 382.864,-111.444 387.314,-116.848"/>
</g>
<!-- emit_report_perf_count&#45;&gt;intel_batchbuffer_emit_dword -->
<g id="edge27" class="edge"><title>emit_report_perf_count&#45;&gt;intel_batchbuffer_emit_dword</title>
<path fill="none" stroke="black" d="M289.357,-145.465C263.775,-135.232 230.057,-121.745 202.575,-110.752"/>
<polygon fill="black" stroke="black" points="203.722,-107.441 193.138,-106.977 201.123,-113.941 203.722,-107.441"/>
</g>
<!-- gen8_read_40bit_a_counter&#45;&gt;get_oa_format -->
<g id="edge29" class="edge"><title>gen8_read_40bit_a_counter&#45;&gt;get_oa_format</title>
<path fill="none" stroke="black" d="M1566.42,-72.7646C1546.45,-62.5619 1520.57,-49.3388 1499.48,-38.5595"/>
<polygon fill="black" stroke="black" points="1500.96,-35.3856 1490.46,-33.9523 1497.77,-41.6191 1500.96,-35.3856"/>
</g>
<!-- i915_perf_add_config -->
<g id="node26" class="node"><title>i915_perf_add_config</title>
<ellipse fill="none" stroke="black" cx="2706.19" cy="-234" rx="89.0842" ry="18"/>
<text text-anchor="middle" x="2706.19" y="-230.3" font-family="Times,serif" font-size="14.00">i915_perf_add_config</text>
</g>
<!-- __i915_perf_add_config -->
<g id="node27" class="node"><title>__i915_perf_add_config</title>
<ellipse fill="none" stroke="black" cx="2706.19" cy="-162" rx="97.4827" ry="18"/>
<text text-anchor="middle" x="2706.19" y="-158.3" font-family="Times,serif" font-size="14.00">__i915_perf_add_config</text>
</g>
<!-- i915_perf_add_config&#45;&gt;__i915_perf_add_config -->
<g id="edge30" class="edge"><title>i915_perf_add_config&#45;&gt;__i915_perf_add_config</title>
<path fill="none" stroke="black" d="M2706.19,-215.697C2706.19,-207.983 2706.19,-198.712 2706.19,-190.112"/>
<polygon fill="black" stroke="black" points="2709.69,-190.104 2706.19,-180.104 2702.69,-190.104 2709.69,-190.104"/>
</g>
<!-- emit_stall_timestamp_and_rpc -->
<g id="node32" class="node"><title>emit_stall_timestamp_and_rpc</title>
<ellipse fill="none" stroke="black" cx="328.195" cy="-234" rx="120.479" ry="18"/>
<text text-anchor="middle" x="328.195" y="-230.3" font-family="Times,serif" font-size="14.00">emit_stall_timestamp_and_rpc</text>
</g>
<!-- emit_stall_timestamp_and_rpc&#45;&gt;intel_batchbuffer_require_space -->
<g id="edge38" class="edge"><title>emit_stall_timestamp_and_rpc&#45;&gt;intel_batchbuffer_require_space</title>
<path fill="none" stroke="black" d="M383.549,-217.906C402.324,-209.853 421.289,-197.797 432.195,-180 443.864,-160.957 436.853,-135.807 428.233,-117.102"/>
<polygon fill="black" stroke="black" points="431.272,-115.353 423.669,-107.974 425.011,-118.483 431.272,-115.353"/>
</g>
<!-- emit_stall_timestamp_and_rpc&#45;&gt;intel_batchbuffer_emit_dword -->
<g id="edge40" class="edge"><title>emit_stall_timestamp_and_rpc&#45;&gt;intel_batchbuffer_emit_dword</title>
<path fill="none" stroke="black" d="M212.255,-229.143C131.71,-223.738 34.3266,-210.816 8.19476,-180 -19.5652,-147.264 30.9085,-123.016 79.745,-108.167"/>
<polygon fill="black" stroke="black" points="80.8519,-111.49 89.4669,-105.323 78.8864,-104.772 80.8519,-111.49"/>
</g>
<!-- emit_stall_timestamp_and_rpc&#45;&gt;emit_report_perf_count -->
<g id="edge39" class="edge"><title>emit_stall_timestamp_and_rpc&#45;&gt;emit_report_perf_count</title>
<path fill="none" stroke="black" d="M328.195,-215.697C328.195,-207.983 328.195,-198.712 328.195,-190.112"/>
<polygon fill="black" stroke="black" points="331.695,-190.104 328.195,-180.104 324.695,-190.104 331.695,-190.104"/>
</g>
<!-- oa_report_is_periodic -->
<g id="node33" class="node"><title>oa_report_is_periodic</title>
<ellipse fill="none" stroke="black" cx="2901.19" cy="-234" rx="87.9851" ry="18"/>
<text text-anchor="middle" x="2901.19" y="-230.3" font-family="Times,serif" font-size="14.00">oa_report_is_periodic</text>
</g>
<!-- gen8_read_report_ticks -->
<g id="node34" class="node"><title>gen8_read_report_ticks</title>
<ellipse fill="none" stroke="black" cx="3100.19" cy="-234" rx="93.6835" ry="18"/>
<text text-anchor="middle" x="3100.19" y="-230.3" font-family="Times,serif" font-size="14.00">gen8_read_report_ticks</text>
</g>
<!-- read_i915_module_ref -->
<g id="node35" class="node"><title>read_i915_module_ref</title>
<ellipse fill="none" stroke="black" cx="3303.19" cy="-234" rx="90.9839" ry="18"/>
<text text-anchor="middle" x="3303.19" y="-230.3" font-family="Times,serif" font-size="14.00">read_i915_module_ref</text>
</g>
<!-- write_u64_file -->
<g id="node36" class="node"><title>write_u64_file</title>
<ellipse fill="none" stroke="black" cx="3474.19" cy="-234" rx="62.2891" ry="18"/>
<text text-anchor="middle" x="3474.19" y="-230.3" font-family="Times,serif" font-size="14.00">write_u64_file</text>
</g>
<!-- oa_exponent_to_ns -->
<g id="node37" class="node"><title>oa_exponent_to_ns</title>
<ellipse fill="none" stroke="black" cx="3634.19" cy="-234" rx="79.0865" ry="18"/>
<text text-anchor="middle" x="3634.19" y="-230.3" font-family="Times,serif" font-size="14.00">oa_exponent_to_ns</text>
</g>
</g>
</svg>
