<?xml version="1.0" encoding="UTF-8" standalone="no"?>
<!DOCTYPE svg PUBLIC "-//W3C//DTD SVG 1.1//EN"
 "http://www.w3.org/Graphics/SVG/1.1/DTD/svg11.dtd">
<!-- Generated by graphviz version 2.38.0 (20140413.2041)
 -->
<!-- Title: callgraph Pages: 1 -->
<svg width="4629pt" height="260pt"
 viewBox="0.00 0.00 4628.73 260.00" xmlns="http://www.w3.org/2000/svg" xmlns:xlink="http://www.w3.org/1999/xlink">
<g id="graph0" class="graph" transform="scale(1 1) rotate(0) translate(4 256)">
<title>callgraph</title>
<polygon fill="white" stroke="none" points="-4,4 -4,-256 4624.73,-256 4624.73,4 -4,4"/>
<!-- hsw_read_report_ticks -->
<g id="node1" class="node"><title>hsw_read_report_ticks</title>
<ellipse fill="none" stroke="black" cx="611.139" cy="-90" rx="90.9839" ry="18"/>
<text text-anchor="middle" x="611.139" y="-86.3" font-family="Times,serif" font-size="14.00">hsw_read_report_ticks</text>
</g>
<!-- get_oa_format -->
<g id="node2" class="node"><title>get_oa_format</title>
<ellipse fill="none" stroke="black" cx="730.139" cy="-18" rx="62.2891" ry="18"/>
<text text-anchor="middle" x="730.139" y="-14.3" font-family="Times,serif" font-size="14.00">get_oa_format</text>
</g>
<!-- hsw_read_report_ticks&#45;&gt;get_oa_format -->
<g id="edge1" class="edge"><title>hsw_read_report_ticks&#45;&gt;get_oa_format</title>
<path fill="none" stroke="black" d="M638.739,-72.7646C655.461,-62.9283 676.955,-50.2845 694.898,-39.7298"/>
<polygon fill="black" stroke="black" points="697.069,-42.5138 703.913,-34.4268 693.52,-36.4802 697.069,-42.5138"/>
</g>
<!-- emit_stall_timestamp_and_rpc -->
<g id="node3" class="node"><title>emit_stall_timestamp_and_rpc</title>
<ellipse fill="none" stroke="black" cx="124.139" cy="-234" rx="120.479" ry="18"/>
<text text-anchor="middle" x="124.139" y="-230.3" font-family="Times,serif" font-size="14.00">emit_stall_timestamp_and_rpc</text>
</g>
<!-- emit_report_perf_count -->
<g id="node4" class="node"><title>emit_report_perf_count</title>
<ellipse fill="none" stroke="black" cx="124.139" cy="-162" rx="94.7833" ry="18"/>
<text text-anchor="middle" x="124.139" y="-158.3" font-family="Times,serif" font-size="14.00">emit_report_perf_count</text>
</g>
<!-- emit_stall_timestamp_and_rpc&#45;&gt;emit_report_perf_count -->
<g id="edge2" class="edge"><title>emit_stall_timestamp_and_rpc&#45;&gt;emit_report_perf_count</title>
<path fill="none" stroke="black" d="M124.139,-215.697C124.139,-207.983 124.139,-198.712 124.139,-190.112"/>
<polygon fill="black" stroke="black" points="127.639,-190.104 124.139,-180.104 120.639,-190.104 127.639,-190.104"/>
</g>
<!-- intel_batchbuffer_emit_dword -->
<g id="node5" class="node"><title>intel_batchbuffer_emit_dword</title>
<ellipse fill="none" stroke="black" cx="384.139" cy="-90" rx="118.079" ry="18"/>
<text text-anchor="middle" x="384.139" y="-86.3" font-family="Times,serif" font-size="14.00">intel_batchbuffer_emit_dword</text>
</g>
<!-- emit_stall_timestamp_and_rpc&#45;&gt;intel_batchbuffer_emit_dword -->
<g id="edge3" class="edge"><title>emit_stall_timestamp_and_rpc&#45;&gt;intel_batchbuffer_emit_dword</title>
<path fill="none" stroke="black" d="M241.227,-229.704C391.505,-224.242 636.299,-210.706 664.139,-180 674.886,-168.147 674.347,-156.321 664.139,-144 657.915,-136.487 553.037,-118.108 473.455,-105.107"/>
<polygon fill="black" stroke="black" points="473.824,-101.621 463.392,-103.47 472.7,-108.531 473.824,-101.621"/>
</g>
<!-- intel_batchbuffer_require_space -->
<g id="node6" class="node"><title>intel_batchbuffer_require_space</title>
<ellipse fill="none" stroke="black" cx="124.139" cy="-90" rx="124.278" ry="18"/>
<text text-anchor="middle" x="124.139" y="-86.3" font-family="Times,serif" font-size="14.00">intel_batchbuffer_require_space</text>
</g>
<!-- emit_stall_timestamp_and_rpc&#45;&gt;intel_batchbuffer_require_space -->
<g id="edge4" class="edge"><title>emit_stall_timestamp_and_rpc&#45;&gt;intel_batchbuffer_require_space</title>
<path fill="none" stroke="black" d="M68.7844,-217.906C50.01,-209.853 31.0444,-197.797 20.139,-180 11.7795,-166.357 11.7795,-157.643 20.139,-144 29.211,-129.195 43.8608,-118.363 59.3383,-110.503"/>
<polygon fill="black" stroke="black" points="60.9367,-113.619 68.5109,-106.211 57.97,-107.279 60.9367,-113.619"/>
</g>
<!-- emit_report_perf_count&#45;&gt;intel_batchbuffer_emit_dword -->
<g id="edge15" class="edge"><title>emit_report_perf_count&#45;&gt;intel_batchbuffer_emit_dword</title>
<path fill="none" stroke="black" d="M176.441,-146.919C217.386,-135.895 274.575,-120.498 318.578,-108.651"/>
<polygon fill="black" stroke="black" points="319.577,-112.007 328.323,-106.027 317.757,-105.247 319.577,-112.007"/>
</g>
<!-- emit_report_perf_count&#45;&gt;intel_batchbuffer_require_space -->
<g id="edge16" class="edge"><title>emit_report_perf_count&#45;&gt;intel_batchbuffer_require_space</title>
<path fill="none" stroke="black" d="M124.139,-143.697C124.139,-135.983 124.139,-126.712 124.139,-118.112"/>
<polygon fill="black" stroke="black" points="127.639,-118.104 124.139,-108.104 120.639,-118.104 127.639,-118.104"/>
</g>
<!-- intel_batchbuffer_space -->
<g id="node25" class="node"><title>intel_batchbuffer_space</title>
<ellipse fill="none" stroke="black" cx="254.139" cy="-18" rx="94.7833" ry="18"/>
<text text-anchor="middle" x="254.139" y="-14.3" font-family="Times,serif" font-size="14.00">intel_batchbuffer_space</text>
</g>
<!-- intel_batchbuffer_emit_dword&#45;&gt;intel_batchbuffer_space -->
<g id="edge28" class="edge"><title>intel_batchbuffer_emit_dword&#45;&gt;intel_batchbuffer_space</title>
<path fill="none" stroke="black" d="M353.66,-72.5881C335.649,-62.89 312.657,-50.5096 293.31,-40.0923"/>
<polygon fill="black" stroke="black" points="294.891,-36.9685 284.427,-35.3091 291.573,-43.1318 294.891,-36.9685"/>
</g>
<!-- intel_batchbuffer_require_space&#45;&gt;intel_batchbuffer_space -->
<g id="edge50" class="edge"><title>intel_batchbuffer_require_space&#45;&gt;intel_batchbuffer_space</title>
<path fill="none" stroke="black" d="M154.947,-72.411C172.967,-62.7082 195.887,-50.3664 215.155,-39.9915"/>
<polygon fill="black" stroke="black" points="216.855,-43.0512 224,-35.2285 213.536,-36.8879 216.855,-43.0512"/>
</g>
<!-- read_counters_mmio -->
<g id="node7" class="node"><title>read_counters_mmio</title>
<ellipse fill="none" stroke="black" cx="1945.14" cy="-234" rx="85.5853" ry="18"/>
<text text-anchor="middle" x="1945.14" y="-230.3" font-family="Times,serif" font-size="14.00">read_counters_mmio</text>
</g>
<!-- scratch_buf_init -->
<g id="node8" class="node"><title>scratch_buf_init</title>
<ellipse fill="none" stroke="black" cx="1804.14" cy="-162" rx="67.6881" ry="18"/>
<text text-anchor="middle" x="1804.14" y="-158.3" font-family="Times,serif" font-size="14.00">scratch_buf_init</text>
</g>
<!-- read_counters_mmio&#45;&gt;scratch_buf_init -->
<g id="edge5" class="edge"><title>read_counters_mmio&#45;&gt;scratch_buf_init</title>
<path fill="none" stroke="black" d="M1913.14,-217.116C1892.53,-206.88 1865.57,-193.498 1843.62,-182.602"/>
<polygon fill="black" stroke="black" points="1845.07,-179.413 1834.56,-178.101 1841.96,-185.683 1845.07,-179.413"/>
</g>
<!-- read_tsc_end -->
<g id="node9" class="node"><title>read_tsc_end</title>
<ellipse fill="none" stroke="black" cx="1585.14" cy="-162" rx="57.3905" ry="18"/>
<text text-anchor="middle" x="1585.14" y="-158.3" font-family="Times,serif" font-size="14.00">read_tsc_end</text>
</g>
<!-- read_counters_mmio&#45;&gt;read_tsc_end -->
<g id="edge6" class="edge"><title>read_counters_mmio&#45;&gt;read_tsc_end</title>
<path fill="none" stroke="black" d="M1884.48,-221.205C1816.91,-208.066 1708.51,-186.989 1642.36,-174.127"/>
<polygon fill="black" stroke="black" points="1643.01,-170.687 1632.52,-172.214 1641.67,-177.558 1643.01,-170.687"/>
</g>
<!-- read_u64_file -->
<g id="node10" class="node"><title>read_u64_file</title>
<ellipse fill="none" stroke="black" cx="2154.14" cy="-162" rx="59.5901" ry="18"/>
<text text-anchor="middle" x="2154.14" y="-158.3" font-family="Times,serif" font-size="14.00">read_u64_file</text>
</g>
<!-- read_counters_mmio&#45;&gt;read_u64_file -->
<g id="edge7" class="edge"><title>read_counters_mmio&#45;&gt;read_u64_file</title>
<path fill="none" stroke="black" d="M1988.7,-218.411C2022.92,-206.947 2070.56,-190.993 2105.93,-179.147"/>
<polygon fill="black" stroke="black" points="2107.19,-182.416 2115.56,-175.921 2104.97,-175.779 2107.19,-182.416"/>
</g>
<!-- __perf_open -->
<g id="node11" class="node"><title>__perf_open</title>
<ellipse fill="none" stroke="black" cx="1945.14" cy="-162" rx="55.4913" ry="18"/>
<text text-anchor="middle" x="1945.14" y="-158.3" font-family="Times,serif" font-size="14.00">__perf_open</text>
</g>
<!-- read_counters_mmio&#45;&gt;__perf_open -->
<g id="edge8" class="edge"><title>read_counters_mmio&#45;&gt;__perf_open</title>
<path fill="none" stroke="black" d="M1945.14,-215.697C1945.14,-207.983 1945.14,-198.712 1945.14,-190.112"/>
<polygon fill="black" stroke="black" points="1948.64,-190.104 1945.14,-180.104 1941.64,-190.104 1948.64,-190.104"/>
</g>
<!-- __perf_close -->
<g id="node12" class="node"><title>__perf_close</title>
<ellipse fill="none" stroke="black" cx="1953.14" cy="-90" rx="55.7903" ry="18"/>
<text text-anchor="middle" x="1953.14" y="-86.3" font-family="Times,serif" font-size="14.00">__perf_close</text>
</g>
<!-- read_counters_mmio&#45;&gt;__perf_close -->
<g id="edge9" class="edge"><title>read_counters_mmio&#45;&gt;__perf_close</title>
<path fill="none" stroke="black" d="M1992.53,-218.995C2011.42,-210.83 2031.22,-198.403 2042.14,-180 2050.3,-166.239 2050.05,-157.91 2042.14,-144 2032.93,-127.794 2016.58,-116.022 2000.39,-107.751"/>
<polygon fill="black" stroke="black" points="2001.47,-104.389 1990.94,-103.279 1998.48,-110.717 2001.47,-104.389"/>
</g>
<!-- read_tsc_start -->
<g id="node13" class="node"><title>read_tsc_start</title>
<ellipse fill="none" stroke="black" cx="1450.14" cy="-162" rx="59.5901" ry="18"/>
<text text-anchor="middle" x="1450.14" y="-158.3" font-family="Times,serif" font-size="14.00">read_tsc_start</text>
</g>
<!-- read_counters_mmio&#45;&gt;read_tsc_start -->
<g id="edge10" class="edge"><title>read_counters_mmio&#45;&gt;read_tsc_start</title>
<path fill="none" stroke="black" d="M1867.76,-226.138C1782.08,-217.899 1640.07,-202.339 1519.14,-180 1514.04,-179.058 1508.75,-177.966 1503.48,-176.8"/>
<polygon fill="black" stroke="black" points="1503.93,-173.314 1493.4,-174.485 1502.37,-180.136 1503.93,-173.314"/>
</g>
<!-- scratch_buf_memset -->
<g id="node14" class="node"><title>scratch_buf_memset</title>
<ellipse fill="none" stroke="black" cx="1795.14" cy="-90" rx="84.485" ry="18"/>
<text text-anchor="middle" x="1795.14" y="-86.3" font-family="Times,serif" font-size="14.00">scratch_buf_memset</text>
</g>
<!-- read_counters_mmio&#45;&gt;scratch_buf_memset -->
<g id="edge11" class="edge"><title>read_counters_mmio&#45;&gt;scratch_buf_memset</title>
<path fill="none" stroke="black" d="M1974.23,-217.057C1987.49,-208.08 2001.83,-195.535 2009.14,-180 2015.95,-165.521 2019,-156.6 2009.14,-144 2000.12,-132.478 1925.53,-115.812 1866.92,-104.257"/>
<polygon fill="black" stroke="black" points="1867.41,-100.787 1856.92,-102.305 1866.07,-107.657 1867.41,-100.787"/>
</g>
<!-- scratch_buf_init&#45;&gt;scratch_buf_memset -->
<g id="edge25" class="edge"><title>scratch_buf_init&#45;&gt;scratch_buf_memset</title>
<path fill="none" stroke="black" d="M1801.91,-143.697C1800.92,-135.983 1799.73,-126.712 1798.62,-118.112"/>
<polygon fill="black" stroke="black" points="1802.08,-117.576 1797.34,-108.104 1795.14,-118.469 1802.08,-117.576"/>
</g>
<!-- __perf_open&#45;&gt;__perf_close -->
<g id="edge14" class="edge"><title>__perf_open&#45;&gt;__perf_close</title>
<path fill="none" stroke="black" d="M1947.12,-143.697C1948,-135.983 1949.06,-126.712 1950.04,-118.112"/>
<polygon fill="black" stroke="black" points="1953.53,-118.437 1951.18,-108.104 1946.57,-117.642 1953.53,-118.437"/>
</g>
<!-- send_mi_store_reg_mem -->
<g id="node15" class="node"><title>send_mi_store_reg_mem</title>
<ellipse fill="none" stroke="black" cx="338.139" cy="-162" rx="100.983" ry="18"/>
<text text-anchor="middle" x="338.139" y="-158.3" font-family="Times,serif" font-size="14.00">send_mi_store_reg_mem</text>
</g>
<!-- send_mi_store_reg_mem&#45;&gt;intel_batchbuffer_emit_dword -->
<g id="edge13" class="edge"><title>send_mi_store_reg_mem&#45;&gt;intel_batchbuffer_emit_dword</title>
<path fill="none" stroke="black" d="M349.274,-144.055C354.674,-135.837 361.276,-125.791 367.277,-116.66"/>
<polygon fill="black" stroke="black" points="370.22,-118.555 372.787,-108.275 364.37,-114.71 370.22,-118.555"/>
</g>
<!-- send_mi_store_reg_mem&#45;&gt;intel_batchbuffer_require_space -->
<g id="edge12" class="edge"><title>send_mi_store_reg_mem&#45;&gt;intel_batchbuffer_require_space</title>
<path fill="none" stroke="black" d="M291.968,-145.897C259.76,-135.362 216.542,-121.225 182.029,-109.936"/>
<polygon fill="black" stroke="black" points="182.674,-106.465 172.081,-106.682 180.498,-113.118 182.674,-106.465"/>
</g>
<!-- max_oa_exponent_for_period_lte -->
<g id="node16" class="node"><title>max_oa_exponent_for_period_lte</title>
<ellipse fill="none" stroke="black" cx="2362.14" cy="-162" rx="129.977" ry="18"/>
<text text-anchor="middle" x="2362.14" y="-158.3" font-family="Times,serif" font-size="14.00">max_oa_exponent_for_period_lte</text>
</g>
<!-- timebase_scale -->
<g id="node17" class="node"><title>timebase_scale</title>
<ellipse fill="none" stroke="black" cx="2362.14" cy="-90" rx="64.189" ry="18"/>
<text text-anchor="middle" x="2362.14" y="-86.3" font-family="Times,serif" font-size="14.00">timebase_scale</text>
</g>
<!-- max_oa_exponent_for_period_lte&#45;&gt;timebase_scale -->
<g id="edge17" class="edge"><title>max_oa_exponent_for_period_lte&#45;&gt;timebase_scale</title>
<path fill="none" stroke="black" d="M2362.14,-143.697C2362.14,-135.983 2362.14,-126.712 2362.14,-118.112"/>
<polygon fill="black" stroke="black" points="2365.64,-118.104 2362.14,-108.104 2358.64,-118.104 2365.64,-118.104"/>
</g>
<!-- measure_overheads -->
<g id="node18" class="node"><title>measure_overheads</title>
<ellipse fill="none" stroke="black" cx="964.139" cy="-234" rx="80.6858" ry="18"/>
<text text-anchor="middle" x="964.139" y="-230.3" font-family="Times,serif" font-size="14.00">measure_overheads</text>
</g>
<!-- measure_overheads&#45;&gt;read_tsc_end -->
<g id="edge21" class="edge"><title>measure_overheads&#45;&gt;read_tsc_end</title>
<path fill="none" stroke="black" d="M1042.33,-229.406C1150.24,-223.566 1350.63,-209.559 1519.14,-180 1524.11,-179.128 1529.26,-178.075 1534.38,-176.924"/>
<polygon fill="black" stroke="black" points="1535.24,-180.319 1544.16,-174.616 1533.63,-173.507 1535.24,-180.319"/>
</g>
<!-- measure_overheads&#45;&gt;read_tsc_start -->
<g id="edge22" class="edge"><title>measure_overheads&#45;&gt;read_tsc_start</title>
<path fill="none" stroke="black" d="M1037.42,-226.372C1121.2,-218.178 1262.25,-202.503 1382.14,-180 1387.09,-179.07 1392.23,-177.995 1397.35,-176.848"/>
<polygon fill="black" stroke="black" points="1398.2,-180.245 1407.14,-174.569 1396.61,-173.427 1398.2,-180.245"/>
</g>
<!-- umin -->
<g id="node19" class="node"><title>umin</title>
<ellipse fill="none" stroke="black" cx="922.139" cy="-162" rx="29.4969" ry="18"/>
<text text-anchor="middle" x="922.139" y="-158.3" font-family="Times,serif" font-size="14.00">umin</text>
</g>
<!-- measure_overheads&#45;&gt;umin -->
<g id="edge18" class="edge"><title>measure_overheads&#45;&gt;umin</title>
<path fill="none" stroke="black" d="M953.972,-216.055C948.947,-207.679 942.781,-197.404 937.219,-188.134"/>
<polygon fill="black" stroke="black" points="940.069,-186.081 931.923,-179.307 934.067,-189.683 940.069,-186.081"/>
</g>
<!-- umax -->
<g id="node20" class="node"><title>umax</title>
<ellipse fill="none" stroke="black" cx="749.139" cy="-162" rx="30.5947" ry="18"/>
<text text-anchor="middle" x="749.139" y="-158.3" font-family="Times,serif" font-size="14.00">umax</text>
</g>
<!-- measure_overheads&#45;&gt;umax -->
<g id="edge19" class="edge"><title>measure_overheads&#45;&gt;umax</title>
<path fill="none" stroke="black" d="M915.02,-219.657C879.685,-209.688 831.067,-195.209 789.139,-180 786.78,-179.144 784.36,-178.224 781.933,-177.271"/>
<polygon fill="black" stroke="black" points="783.242,-174.025 772.66,-173.494 780.602,-180.508 783.242,-174.025"/>
</g>
<!-- median -->
<g id="node21" class="node"><title>median</title>
<ellipse fill="none" stroke="black" cx="1006.14" cy="-162" rx="37.0935" ry="18"/>
<text text-anchor="middle" x="1006.14" y="-158.3" font-family="Times,serif" font-size="14.00">median</text>
</g>
<!-- measure_overheads&#45;&gt;median -->
<g id="edge20" class="edge"><title>measure_overheads&#45;&gt;median</title>
<path fill="none" stroke="black" d="M974.306,-216.055C979.259,-207.801 985.318,-197.701 990.816,-188.538"/>
<polygon fill="black" stroke="black" points="993.922,-190.165 996.066,-179.789 987.919,-186.563 993.922,-190.165"/>
</g>
<!-- average -->
<g id="node22" class="node"><title>average</title>
<ellipse fill="none" stroke="black" cx="836.139" cy="-162" rx="38.1938" ry="18"/>
<text text-anchor="middle" x="836.139" y="-158.3" font-family="Times,serif" font-size="14.00">average</text>
</g>
<!-- measure_overheads&#45;&gt;average -->
<g id="edge23" class="edge"><title>measure_overheads&#45;&gt;average</title>
<path fill="none" stroke="black" d="M935.094,-217.116C915.521,-206.412 889.656,-192.267 869.278,-181.123"/>
<polygon fill="black" stroke="black" points="870.797,-177.965 860.344,-176.237 867.438,-184.106 870.797,-177.965"/>
</g>
<!-- gen8_read_40bit_a_counter -->
<g id="node23" class="node"><title>gen8_read_40bit_a_counter</title>
<ellipse fill="none" stroke="black" cx="1125.14" cy="-90" rx="108.581" ry="18"/>
<text text-anchor="middle" x="1125.14" y="-86.3" font-family="Times,serif" font-size="14.00">gen8_read_40bit_a_counter</text>
</g>
<!-- gen8_read_40bit_a_counter&#45;&gt;get_oa_format -->
<g id="edge24" class="edge"><title>gen8_read_40bit_a_counter&#45;&gt;get_oa_format</title>
<path fill="none" stroke="black" d="M1053.61,-76.3235C978.913,-63.0865 862.961,-42.5381 792.063,-29.9738"/>
<polygon fill="black" stroke="black" points="792.397,-26.4785 781.939,-28.1798 791.175,-33.3711 792.397,-26.4785"/>
</g>
<!-- init_sys_info -->
<g id="node24" class="node"><title>init_sys_info</title>
<ellipse fill="none" stroke="black" cx="2160.14" cy="-234" rx="56.59" ry="18"/>
<text text-anchor="middle" x="2160.14" y="-230.3" font-family="Times,serif" font-size="14.00">init_sys_info</text>
</g>
<!-- init_sys_info&#45;&gt;read_u64_file -->
<g id="edge27" class="edge"><title>init_sys_info&#45;&gt;read_u64_file</title>
<path fill="none" stroke="black" d="M2158.66,-215.697C2157.99,-207.983 2157.2,-198.712 2156.46,-190.112"/>
<polygon fill="black" stroke="black" points="2159.95,-189.769 2155.61,-180.104 2152.97,-190.367 2159.95,-189.769"/>
</g>
<!-- init_sys_info&#45;&gt;max_oa_exponent_for_period_lte -->
<g id="edge26" class="edge"><title>init_sys_info&#45;&gt;max_oa_exponent_for_period_lte</title>
<path fill="none" stroke="black" d="M2197.19,-220.161C2227.8,-209.554 2271.72,-194.334 2306.54,-182.266"/>
<polygon fill="black" stroke="black" points="2307.8,-185.534 2316.1,-178.952 2305.51,-178.92 2307.8,-185.534"/>
</g>
<!-- read_counters_rpc -->
<g id="node26" class="node"><title>read_counters_rpc</title>
<ellipse fill="none" stroke="black" cx="1517.14" cy="-234" rx="75.2868" ry="18"/>
<text text-anchor="middle" x="1517.14" y="-230.3" font-family="Times,serif" font-size="14.00">read_counters_rpc</text>
</g>
<!-- read_counters_rpc&#45;&gt;emit_report_perf_count -->
<g id="edge31" class="edge"><title>read_counters_rpc&#45;&gt;emit_report_perf_count</title>
<path fill="none" stroke="black" d="M1443.01,-230.201C1177.83,-220.153 288.753,-186.177 228.139,-180 219.05,-179.074 209.549,-177.862 200.144,-176.511"/>
<polygon fill="black" stroke="black" points="200.406,-173.012 189.999,-174.998 199.373,-179.935 200.406,-173.012"/>
</g>
<!-- read_counters_rpc&#45;&gt;scratch_buf_init -->
<g id="edge30" class="edge"><title>read_counters_rpc&#45;&gt;scratch_buf_init</title>
<path fill="none" stroke="black" d="M1567.79,-220.647C1617.68,-208.479 1693.81,-189.911 1746.11,-177.155"/>
<polygon fill="black" stroke="black" points="1747.02,-180.534 1755.91,-174.764 1745.36,-173.733 1747.02,-180.534"/>
</g>
<!-- read_counters_rpc&#45;&gt;read_tsc_end -->
<g id="edge29" class="edge"><title>read_counters_rpc&#45;&gt;read_tsc_end</title>
<path fill="none" stroke="black" d="M1533.25,-216.411C1541.81,-207.606 1552.47,-196.628 1561.9,-186.919"/>
<polygon fill="black" stroke="black" points="1564.68,-189.082 1569.14,-179.47 1559.66,-184.204 1564.68,-189.082"/>
</g>
<!-- read_counters_rpc&#45;&gt;read_u64_file -->
<g id="edge32" class="edge"><title>read_counters_rpc&#45;&gt;read_u64_file</title>
<path fill="none" stroke="black" d="M1584.81,-225.914C1679.68,-215.933 1857.6,-197.045 2009.14,-180 2035.48,-177.037 2064.5,-173.657 2089.62,-170.696"/>
<polygon fill="black" stroke="black" points="2090.24,-174.147 2099.76,-169.498 2089.42,-167.196 2090.24,-174.147"/>
</g>
<!-- read_counters_rpc&#45;&gt;__perf_open -->
<g id="edge33" class="edge"><title>read_counters_rpc&#45;&gt;__perf_open</title>
<path fill="none" stroke="black" d="M1583.96,-225.61C1657.27,-216.958 1778.23,-201.088 1881.14,-180 1885.75,-179.055 1890.53,-177.976 1895.3,-176.832"/>
<polygon fill="black" stroke="black" points="1896.16,-180.224 1905.02,-174.412 1894.47,-173.431 1896.16,-180.224"/>
</g>
<!-- read_counters_rpc&#45;&gt;__perf_close -->
<g id="edge39" class="edge"><title>read_counters_rpc&#45;&gt;__perf_close</title>
<path fill="none" stroke="black" d="M1573.19,-221.952C1607.59,-213.649 1651.67,-200.188 1687.14,-180 1707.92,-168.167 1705.88,-154.968 1727.14,-144 1792.3,-110.376 1816.88,-125.279 1888.14,-108 1892.53,-106.935 1897.08,-105.804 1901.64,-104.649"/>
<polygon fill="black" stroke="black" points="1902.76,-107.975 1911.58,-102.105 1901.03,-101.193 1902.76,-107.975"/>
</g>
<!-- read_counters_rpc&#45;&gt;read_tsc_start -->
<g id="edge35" class="edge"><title>read_counters_rpc&#45;&gt;read_tsc_start</title>
<path fill="none" stroke="black" d="M1500.92,-216.055C1492.61,-207.371 1482.34,-196.644 1473.22,-187.114"/>
<polygon fill="black" stroke="black" points="1475.65,-184.593 1466.21,-179.789 1470.59,-189.433 1475.65,-184.593"/>
</g>
<!-- read_counters_rpc&#45;&gt;scratch_buf_memset -->
<g id="edge37" class="edge"><title>read_counters_rpc&#45;&gt;scratch_buf_memset</title>
<path fill="none" stroke="black" d="M1561.64,-219.42C1588.55,-210.246 1622.98,-196.761 1651.14,-180 1672.56,-167.253 1673.43,-157.87 1694.14,-144 1712.3,-131.839 1733.57,-120.314 1751.89,-111.137"/>
<polygon fill="black" stroke="black" points="1753.48,-114.256 1760.9,-106.694 1750.38,-107.978 1753.48,-114.256"/>
</g>
<!-- read_counters_rpc&#45;&gt;median -->
<g id="edge40" class="edge"><title>read_counters_rpc&#45;&gt;median</title>
<path fill="none" stroke="black" d="M1443.31,-230.06C1350.79,-225.13 1187.89,-212.323 1052.14,-180 1049.17,-179.293 1046.13,-178.451 1043.1,-177.525"/>
<polygon fill="black" stroke="black" points="1044.13,-174.18 1033.54,-174.347 1041.92,-180.822 1044.13,-174.18"/>
</g>
<!-- serialize -->
<g id="node27" class="node"><title>serialize</title>
<ellipse fill="none" stroke="black" cx="1231.14" cy="-162" rx="40.0939" ry="18"/>
<text text-anchor="middle" x="1231.14" y="-158.3" font-family="Times,serif" font-size="14.00">serialize</text>
</g>
<!-- read_counters_rpc&#45;&gt;serialize -->
<g id="edge34" class="edge"><title>read_counters_rpc&#45;&gt;serialize</title>
<path fill="none" stroke="black" d="M1460.18,-222.16C1411.88,-212.518 1340.97,-197.294 1280.14,-180 1277.16,-179.153 1274.1,-178.227 1271.03,-177.258"/>
<polygon fill="black" stroke="black" points="1271.88,-173.855 1261.29,-174.064 1269.7,-180.506 1271.88,-173.855"/>
</g>
<!-- umedian -->
<g id="node28" class="node"><title>umedian</title>
<ellipse fill="none" stroke="black" cx="1331.14" cy="-162" rx="41.6928" ry="18"/>
<text text-anchor="middle" x="1331.14" y="-158.3" font-family="Times,serif" font-size="14.00">umedian</text>
</g>
<!-- read_counters_rpc&#45;&gt;umedian -->
<g id="edge36" class="edge"><title>read_counters_rpc&#45;&gt;umedian</title>
<path fill="none" stroke="black" d="M1478.6,-218.496C1447.07,-206.629 1402.64,-189.907 1370.8,-177.927"/>
<polygon fill="black" stroke="black" points="1371.95,-174.618 1361.35,-174.371 1369.48,-181.169 1371.95,-174.618"/>
</g>
<!-- print_reports -->
<g id="node29" class="node"><title>print_reports</title>
<ellipse fill="none" stroke="black" cx="1117.14" cy="-162" rx="55.7903" ry="18"/>
<text text-anchor="middle" x="1117.14" y="-158.3" font-family="Times,serif" font-size="14.00">print_reports</text>
</g>
<!-- read_counters_rpc&#45;&gt;print_reports -->
<g id="edge38" class="edge"><title>read_counters_rpc&#45;&gt;print_reports</title>
<path fill="none" stroke="black" d="M1452.26,-224.674C1384.52,-215.528 1275.36,-199.515 1182.14,-180 1177.46,-179.021 1172.62,-177.92 1167.78,-176.761"/>
<polygon fill="black" stroke="black" points="1168.46,-173.323 1157.91,-174.321 1166.78,-180.119 1168.46,-173.323"/>
</g>
<!-- print_reports&#45;&gt;get_oa_format -->
<g id="edge42" class="edge"><title>print_reports&#45;&gt;get_oa_format</title>
<path fill="none" stroke="black" d="M1076.77,-149.522C1068.66,-147.477 1060.16,-145.518 1052.14,-144 985.515,-131.392 799.241,-153.69 749.139,-108 732.316,-92.6589 728.412,-66.3888 728.213,-46.3544"/>
<polygon fill="black" stroke="black" points="731.715,-46.3232 728.412,-36.2563 724.716,-46.1856 731.715,-46.3232"/>
</g>
<!-- print_reports&#45;&gt;gen8_read_40bit_a_counter -->
<g id="edge45" class="edge"><title>print_reports&#45;&gt;gen8_read_40bit_a_counter</title>
<path fill="none" stroke="black" d="M1119.12,-143.697C1120,-135.983 1121.06,-126.712 1122.04,-118.112"/>
<polygon fill="black" stroke="black" points="1125.53,-118.437 1123.18,-108.104 1118.57,-117.642 1125.53,-118.437"/>
</g>
<!-- gen8_read_report_clock_ratios -->
<g id="node30" class="node"><title>gen8_read_report_clock_ratios</title>
<ellipse fill="none" stroke="black" cx="878.139" cy="-90" rx="120.479" ry="18"/>
<text text-anchor="middle" x="878.139" y="-86.3" font-family="Times,serif" font-size="14.00">gen8_read_report_clock_ratios</text>
</g>
<!-- print_reports&#45;&gt;gen8_read_report_clock_ratios -->
<g id="edge41" class="edge"><title>print_reports&#45;&gt;gen8_read_report_clock_ratios</title>
<path fill="none" stroke="black" d="M1077.14,-149.284C1039.78,-138.343 983.46,-121.847 940.258,-109.194"/>
<polygon fill="black" stroke="black" points="940.997,-105.763 930.417,-106.311 939.03,-112.481 940.997,-105.763"/>
</g>
<!-- gen8_40bit_a_delta -->
<g id="node31" class="node"><title>gen8_40bit_a_delta</title>
<ellipse fill="none" stroke="black" cx="1331.14" cy="-90" rx="79.8859" ry="18"/>
<text text-anchor="middle" x="1331.14" y="-86.3" font-family="Times,serif" font-size="14.00">gen8_40bit_a_delta</text>
</g>
<!-- print_reports&#45;&gt;gen8_40bit_a_delta -->
<g id="edge43" class="edge"><title>print_reports&#45;&gt;gen8_40bit_a_delta</title>
<path fill="none" stroke="black" d="M1154.91,-148.647C1189.05,-137.477 1239.68,-120.916 1277.92,-108.407"/>
<polygon fill="black" stroke="black" points="1279.44,-111.593 1287.86,-105.157 1277.27,-104.939 1279.44,-111.593"/>
</g>
<!-- gen8_read_report_reason -->
<g id="node32" class="node"><title>gen8_read_report_reason</title>
<ellipse fill="none" stroke="black" cx="1529.14" cy="-90" rx="100.182" ry="18"/>
<text text-anchor="middle" x="1529.14" y="-86.3" font-family="Times,serif" font-size="14.00">gen8_read_report_reason</text>
</g>
<!-- print_reports&#45;&gt;gen8_read_report_reason -->
<g id="edge44" class="edge"><title>print_reports&#45;&gt;gen8_read_report_reason</title>
<path fill="none" stroke="black" d="M1157.9,-149.636C1165.9,-147.605 1174.26,-145.622 1182.14,-144 1286.92,-122.435 1314.4,-124.243 1420.14,-108 1428.67,-106.69 1437.57,-105.315 1446.45,-103.938"/>
<polygon fill="black" stroke="black" points="1447.1,-107.379 1456.44,-102.385 1446.02,-100.462 1447.1,-107.379"/>
</g>
<!-- send_mi_load_reg_mem -->
<g id="node33" class="node"><title>send_mi_load_reg_mem</title>
<ellipse fill="none" stroke="black" cx="556.139" cy="-162" rx="98.5829" ry="18"/>
<text text-anchor="middle" x="556.139" y="-158.3" font-family="Times,serif" font-size="14.00">send_mi_load_reg_mem</text>
</g>
<!-- send_mi_load_reg_mem&#45;&gt;intel_batchbuffer_emit_dword -->
<g id="edge46" class="edge"><title>send_mi_load_reg_mem&#45;&gt;intel_batchbuffer_emit_dword</title>
<path fill="none" stroke="black" d="M517.539,-145.291C492.575,-135.131 459.861,-121.817 433.078,-110.917"/>
<polygon fill="black" stroke="black" points="434.086,-107.548 423.504,-107.021 431.447,-114.032 434.086,-107.548"/>
</g>
<!-- send_mi_load_reg_mem&#45;&gt;intel_batchbuffer_require_space -->
<g id="edge47" class="edge"><title>send_mi_load_reg_mem&#45;&gt;intel_batchbuffer_require_space</title>
<path fill="none" stroke="black" d="M484.803,-149.441C410.571,-137.413 294.152,-118.548 213.761,-105.522"/>
<polygon fill="black" stroke="black" points="214.081,-102.028 203.65,-103.884 212.961,-108.938 214.081,-102.028"/>
</g>
<!-- max_oa_exponent_for_freq_gt -->
<g id="node34" class="node"><title>max_oa_exponent_for_freq_gt</title>
<ellipse fill="none" stroke="black" cx="2362.14" cy="-234" rx="120.479" ry="18"/>
<text text-anchor="middle" x="2362.14" y="-230.3" font-family="Times,serif" font-size="14.00">max_oa_exponent_for_freq_gt</text>
</g>
<!-- max_oa_exponent_for_freq_gt&#45;&gt;max_oa_exponent_for_period_lte -->
<g id="edge48" class="edge"><title>max_oa_exponent_for_freq_gt&#45;&gt;max_oa_exponent_for_period_lte</title>
<path fill="none" stroke="black" d="M2362.14,-215.697C2362.14,-207.983 2362.14,-198.712 2362.14,-190.112"/>
<polygon fill="black" stroke="black" points="2365.64,-190.104 2362.14,-180.104 2358.64,-190.104 2365.64,-190.104"/>
</g>
<!-- i915_perf_add_config -->
<g id="node35" class="node"><title>i915_perf_add_config</title>
<ellipse fill="none" stroke="black" cx="2607.14" cy="-234" rx="89.0842" ry="18"/>
<text text-anchor="middle" x="2607.14" y="-230.3" font-family="Times,serif" font-size="14.00">i915_perf_add_config</text>
</g>
<!-- __i915_perf_add_config -->
<g id="node36" class="node"><title>__i915_perf_add_config</title>
<ellipse fill="none" stroke="black" cx="2607.14" cy="-162" rx="97.4827" ry="18"/>
<text text-anchor="middle" x="2607.14" y="-158.3" font-family="Times,serif" font-size="14.00">__i915_perf_add_config</text>
</g>
<!-- i915_perf_add_config&#45;&gt;__i915_perf_add_config -->
<g id="edge49" class="edge"><title>i915_perf_add_config&#45;&gt;__i915_perf_add_config</title>
<path fill="none" stroke="black" d="M2607.14,-215.697C2607.14,-207.983 2607.14,-198.712 2607.14,-190.112"/>
<polygon fill="black" stroke="black" points="2610.64,-190.104 2607.14,-180.104 2603.64,-190.104 2610.64,-190.104"/>
</g>
<!-- write_u64_file -->
<g id="node37" class="node"><title>write_u64_file</title>
<ellipse fill="none" stroke="black" cx="2776.14" cy="-234" rx="62.2891" ry="18"/>
<text text-anchor="middle" x="2776.14" y="-230.3" font-family="Times,serif" font-size="14.00">write_u64_file</text>
</g>
<!-- i915_perf_remove_config -->
<g id="node38" class="node"><title>i915_perf_remove_config</title>
<ellipse fill="none" stroke="black" cx="2959.14" cy="-234" rx="102.882" ry="18"/>
<text text-anchor="middle" x="2959.14" y="-230.3" font-family="Times,serif" font-size="14.00">i915_perf_remove_config</text>
</g>
<!-- print_binary -->
<g id="node39" class="node"><title>print_binary</title>
<ellipse fill="none" stroke="black" cx="3134.14" cy="-234" rx="53.8905" ry="18"/>
<text text-anchor="middle" x="3134.14" y="-230.3" font-family="Times,serif" font-size="14.00">print_binary</text>
</g>
<!-- fmedian -->
<g id="node40" class="node"><title>fmedian</title>
<ellipse fill="none" stroke="black" cx="3246.14" cy="-234" rx="40.0939" ry="18"/>
<text text-anchor="middle" x="3246.14" y="-230.3" font-family="Times,serif" font-size="14.00">fmedian</text>
</g>
<!-- print_report_card -->
<g id="node41" class="node"><title>print_report_card</title>
<ellipse fill="none" stroke="black" cx="3376.14" cy="-234" rx="72.2875" ry="18"/>
<text text-anchor="middle" x="3376.14" y="-230.3" font-family="Times,serif" font-size="14.00">print_report_card</text>
</g>
<!-- profile_through_opencl -->
<g id="node42" class="node"><title>profile_through_opencl</title>
<ellipse fill="none" stroke="black" cx="3560.14" cy="-234" rx="93.6835" ry="18"/>
<text text-anchor="middle" x="3560.14" y="-230.3" font-family="Times,serif" font-size="14.00">profile_through_opencl</text>
</g>
<!-- oa_exponent_to_ns -->
<g id="node43" class="node"><title>oa_exponent_to_ns</title>
<ellipse fill="none" stroke="black" cx="3751.14" cy="-234" rx="79.0865" ry="18"/>
<text text-anchor="middle" x="3751.14" y="-230.3" font-family="Times,serif" font-size="14.00">oa_exponent_to_ns</text>
</g>
<!-- read_i915_module_ref -->
<g id="node44" class="node"><title>read_i915_module_ref</title>
<ellipse fill="none" stroke="black" cx="3939.14" cy="-234" rx="90.9839" ry="18"/>
<text text-anchor="middle" x="3939.14" y="-230.3" font-family="Times,serif" font-size="14.00">read_i915_module_ref</text>
</g>
<!-- create_filtering_word -->
<g id="node45" class="node"><title>create_filtering_word</title>
<ellipse fill="none" stroke="black" cx="4135.14" cy="-234" rx="87.1846" ry="18"/>
<text text-anchor="middle" x="4135.14" y="-230.3" font-family="Times,serif" font-size="14.00">create_filtering_word</text>
</g>
<!-- oa_report_is_periodic -->
<g id="node46" class="node"><title>oa_report_is_periodic</title>
<ellipse fill="none" stroke="black" cx="4328.14" cy="-234" rx="87.9851" ry="18"/>
<text text-anchor="middle" x="4328.14" y="-230.3" font-family="Times,serif" font-size="14.00">oa_report_is_periodic</text>
</g>
<!-- gen8_read_report_ticks -->
<g id="node47" class="node"><title>gen8_read_report_ticks</title>
<ellipse fill="none" stroke="black" cx="4527.14" cy="-234" rx="93.6835" ry="18"/>
<text text-anchor="middle" x="4527.14" y="-230.3" font-family="Times,serif" font-size="14.00">gen8_read_report_ticks</text>
</g>
</g>
</svg>
