<?xml version="1.0" encoding="UTF-8" standalone="no"?>
<!DOCTYPE svg PUBLIC "-//W3C//DTD SVG 1.1//EN"
 "http://www.w3.org/Graphics/SVG/1.1/DTD/svg11.dtd">
<!-- Generated by graphviz version 2.38.0 (20140413.2041)
 -->
<!-- Title: callgraph Pages: 1 -->
<svg width="4515pt" height="260pt"
 viewBox="0.00 0.00 4515.42 260.00" xmlns="http://www.w3.org/2000/svg" xmlns:xlink="http://www.w3.org/1999/xlink">
<g id="graph0" class="graph" transform="scale(1 1) rotate(0) translate(4 256)">
<title>callgraph</title>
<polygon fill="white" stroke="none" points="-4,4 -4,-256 4511.42,-256 4511.42,4 -4,4"/>
<!-- send_mi_store_reg_mem -->
<g id="node1" class="node"><title>send_mi_store_reg_mem</title>
<ellipse fill="none" stroke="black" cx="119.825" cy="-162" rx="100.983" ry="18"/>
<text text-anchor="middle" x="119.825" y="-158.3" font-family="Times,serif" font-size="14.00">send_mi_store_reg_mem</text>
</g>
<!-- intel_batchbuffer_emit_dword -->
<g id="node2" class="node"><title>intel_batchbuffer_emit_dword</title>
<ellipse fill="none" stroke="black" cx="202.825" cy="-90" rx="118.079" ry="18"/>
<text text-anchor="middle" x="202.825" y="-86.3" font-family="Times,serif" font-size="14.00">intel_batchbuffer_emit_dword</text>
</g>
<!-- send_mi_store_reg_mem&#45;&gt;intel_batchbuffer_emit_dword -->
<g id="edge1" class="edge"><title>send_mi_store_reg_mem&#45;&gt;intel_batchbuffer_emit_dword</title>
<path fill="none" stroke="black" d="M139.917,-144.055C150.52,-135.113 163.69,-124.005 175.236,-114.268"/>
<polygon fill="black" stroke="black" points="177.53,-116.912 182.918,-107.789 173.017,-111.561 177.53,-116.912"/>
</g>
<!-- intel_batchbuffer_require_space -->
<g id="node3" class="node"><title>intel_batchbuffer_require_space</title>
<ellipse fill="none" stroke="black" cx="462.825" cy="-90" rx="124.278" ry="18"/>
<text text-anchor="middle" x="462.825" y="-86.3" font-family="Times,serif" font-size="14.00">intel_batchbuffer_require_space</text>
</g>
<!-- send_mi_store_reg_mem&#45;&gt;intel_batchbuffer_require_space -->
<g id="edge2" class="edge"><title>send_mi_store_reg_mem&#45;&gt;intel_batchbuffer_require_space</title>
<path fill="none" stroke="black" d="M183.537,-147.998C240.244,-136.425 323.393,-119.455 384.217,-107.042"/>
<polygon fill="black" stroke="black" points="385.061,-110.442 394.159,-105.013 383.661,-103.584 385.061,-110.442"/>
</g>
<!-- intel_batchbuffer_space -->
<g id="node30" class="node"><title>intel_batchbuffer_space</title>
<ellipse fill="none" stroke="black" cx="332.825" cy="-18" rx="94.7833" ry="18"/>
<text text-anchor="middle" x="332.825" y="-14.3" font-family="Times,serif" font-size="14.00">intel_batchbuffer_space</text>
</g>
<!-- intel_batchbuffer_emit_dword&#45;&gt;intel_batchbuffer_space -->
<g id="edge37" class="edge"><title>intel_batchbuffer_emit_dword&#45;&gt;intel_batchbuffer_space</title>
<path fill="none" stroke="black" d="M233.304,-72.5881C251.315,-62.89 274.307,-50.5096 293.653,-40.0923"/>
<polygon fill="black" stroke="black" points="295.391,-43.1318 302.537,-35.3091 292.072,-36.9685 295.391,-43.1318"/>
</g>
<!-- intel_batchbuffer_require_space&#45;&gt;intel_batchbuffer_space -->
<g id="edge36" class="edge"><title>intel_batchbuffer_require_space&#45;&gt;intel_batchbuffer_space</title>
<path fill="none" stroke="black" d="M432.017,-72.411C413.997,-62.7082 391.077,-50.3664 371.809,-39.9915"/>
<polygon fill="black" stroke="black" points="373.427,-36.8879 362.963,-35.2285 370.109,-43.0512 373.427,-36.8879"/>
</g>
<!-- print_reports -->
<g id="node4" class="node"><title>print_reports</title>
<ellipse fill="none" stroke="black" cx="1460.82" cy="-162" rx="55.7903" ry="18"/>
<text text-anchor="middle" x="1460.82" y="-158.3" font-family="Times,serif" font-size="14.00">print_reports</text>
</g>
<!-- gen8_read_40bit_a_counter -->
<g id="node5" class="node"><title>gen8_read_40bit_a_counter</title>
<ellipse fill="none" stroke="black" cx="1165.82" cy="-90" rx="108.581" ry="18"/>
<text text-anchor="middle" x="1165.82" y="-86.3" font-family="Times,serif" font-size="14.00">gen8_read_40bit_a_counter</text>
</g>
<!-- print_reports&#45;&gt;gen8_read_40bit_a_counter -->
<g id="edge3" class="edge"><title>print_reports&#45;&gt;gen8_read_40bit_a_counter</title>
<path fill="none" stroke="black" d="M1417.52,-150.434C1408.69,-148.293 1399.46,-146.066 1390.82,-144 1338.94,-131.588 1280.26,-117.774 1235.84,-107.361"/>
<polygon fill="black" stroke="black" points="1236.55,-103.933 1226.02,-105.059 1234.95,-110.748 1236.55,-103.933"/>
</g>
<!-- gen8_read_report_reason -->
<g id="node6" class="node"><title>gen8_read_report_reason</title>
<ellipse fill="none" stroke="black" cx="1807.82" cy="-90" rx="100.182" ry="18"/>
<text text-anchor="middle" x="1807.82" y="-86.3" font-family="Times,serif" font-size="14.00">gen8_read_report_reason</text>
</g>
<!-- print_reports&#45;&gt;gen8_read_report_reason -->
<g id="edge4" class="edge"><title>print_reports&#45;&gt;gen8_read_report_reason</title>
<path fill="none" stroke="black" d="M1501.98,-149.772C1509.87,-147.751 1518.09,-145.737 1525.82,-144 1593.46,-128.82 1670.88,-114.483 1727.47,-104.559"/>
<polygon fill="black" stroke="black" points="1728.18,-107.987 1737.43,-102.819 1726.98,-101.092 1728.18,-107.987"/>
</g>
<!-- gen8_read_report_clock_ratios -->
<g id="node7" class="node"><title>gen8_read_report_clock_ratios</title>
<ellipse fill="none" stroke="black" cx="2045.82" cy="-90" rx="120.479" ry="18"/>
<text text-anchor="middle" x="2045.82" y="-86.3" font-family="Times,serif" font-size="14.00">gen8_read_report_clock_ratios</text>
</g>
<!-- print_reports&#45;&gt;gen8_read_report_clock_ratios -->
<g id="edge5" class="edge"><title>print_reports&#45;&gt;gen8_read_report_clock_ratios</title>
<path fill="none" stroke="black" d="M1501.17,-149.354C1509.28,-147.323 1517.78,-145.412 1525.82,-144 1697.71,-113.82 1743.39,-127.404 1916.82,-108 1927.76,-106.776 1939.21,-105.402 1950.58,-103.98"/>
<polygon fill="black" stroke="black" points="1951.05,-107.448 1960.53,-102.72 1950.17,-100.503 1951.05,-107.448"/>
</g>
<!-- get_oa_format -->
<g id="node8" class="node"><title>get_oa_format</title>
<ellipse fill="none" stroke="black" cx="1560.82" cy="-18" rx="62.2891" ry="18"/>
<text text-anchor="middle" x="1560.82" y="-14.3" font-family="Times,serif" font-size="14.00">get_oa_format</text>
</g>
<!-- print_reports&#45;&gt;get_oa_format -->
<g id="edge6" class="edge"><title>print_reports&#45;&gt;get_oa_format</title>
<path fill="none" stroke="black" d="M1502.67,-149.994C1561.22,-134.585 1660.52,-108.401 1660.82,-108 1670.58,-95.3198 1669.07,-85.7092 1660.82,-72 1650.43,-54.7245 1632.3,-42.7828 1614.31,-34.6747"/>
<polygon fill="black" stroke="black" points="1615.53,-31.3924 1604.95,-30.7761 1612.84,-37.8537 1615.53,-31.3924"/>
</g>
<!-- gen8_40bit_a_delta -->
<g id="node9" class="node"><title>gen8_40bit_a_delta</title>
<ellipse fill="none" stroke="black" cx="1371.82" cy="-90" rx="79.8859" ry="18"/>
<text text-anchor="middle" x="1371.82" y="-86.3" font-family="Times,serif" font-size="14.00">gen8_40bit_a_delta</text>
</g>
<!-- print_reports&#45;&gt;gen8_40bit_a_delta -->
<g id="edge7" class="edge"><title>print_reports&#45;&gt;gen8_40bit_a_delta</title>
<path fill="none" stroke="black" d="M1440.63,-145.116C1428.93,-135.917 1414.01,-124.177 1401.05,-113.984"/>
<polygon fill="black" stroke="black" points="1402.89,-110.983 1392.87,-107.552 1398.57,-116.485 1402.89,-110.983"/>
</g>
<!-- gen8_read_40bit_a_counter&#45;&gt;get_oa_format -->
<g id="edge22" class="edge"><title>gen8_read_40bit_a_counter&#45;&gt;get_oa_format</title>
<path fill="none" stroke="black" d="M1237.36,-76.3235C1312.05,-63.0865 1428,-42.5381 1498.9,-29.9738"/>
<polygon fill="black" stroke="black" points="1499.79,-33.3711 1509.02,-28.1798 1498.57,-26.4785 1499.79,-33.3711"/>
</g>
<!-- hsw_read_report_ticks -->
<g id="node10" class="node"><title>hsw_read_report_ticks</title>
<ellipse fill="none" stroke="black" cx="1560.82" cy="-90" rx="90.9839" ry="18"/>
<text text-anchor="middle" x="1560.82" y="-86.3" font-family="Times,serif" font-size="14.00">hsw_read_report_ticks</text>
</g>
<!-- hsw_read_report_ticks&#45;&gt;get_oa_format -->
<g id="edge8" class="edge"><title>hsw_read_report_ticks&#45;&gt;get_oa_format</title>
<path fill="none" stroke="black" d="M1560.82,-71.6966C1560.82,-63.9827 1560.82,-54.7125 1560.82,-46.1124"/>
<polygon fill="black" stroke="black" points="1564.32,-46.1043 1560.82,-36.1043 1557.32,-46.1044 1564.32,-46.1043"/>
</g>
<!-- read_counters_mmio -->
<g id="node11" class="node"><title>read_counters_mmio</title>
<ellipse fill="none" stroke="black" cx="985.825" cy="-234" rx="85.5853" ry="18"/>
<text text-anchor="middle" x="985.825" y="-230.3" font-family="Times,serif" font-size="14.00">read_counters_mmio</text>
</g>
<!-- read_u64_file -->
<g id="node12" class="node"><title>read_u64_file</title>
<ellipse fill="none" stroke="black" cx="1594.82" cy="-162" rx="59.5901" ry="18"/>
<text text-anchor="middle" x="1594.82" y="-158.3" font-family="Times,serif" font-size="14.00">read_u64_file</text>
</g>
<!-- read_counters_mmio&#45;&gt;read_u64_file -->
<g id="edge9" class="edge"><title>read_counters_mmio&#45;&gt;read_u64_file</title>
<path fill="none" stroke="black" d="M1064.47,-226.682C1192.22,-216.184 1439.24,-194.835 1525.82,-180 1531.14,-179.088 1536.66,-177.992 1542.15,-176.8"/>
<polygon fill="black" stroke="black" points="1542.98,-180.201 1551.96,-174.572 1541.43,-173.374 1542.98,-180.201"/>
</g>
<!-- scratch_buf_init -->
<g id="node13" class="node"><title>scratch_buf_init</title>
<ellipse fill="none" stroke="black" cx="844.825" cy="-162" rx="67.6881" ry="18"/>
<text text-anchor="middle" x="844.825" y="-158.3" font-family="Times,serif" font-size="14.00">scratch_buf_init</text>
</g>
<!-- read_counters_mmio&#45;&gt;scratch_buf_init -->
<g id="edge10" class="edge"><title>read_counters_mmio&#45;&gt;scratch_buf_init</title>
<path fill="none" stroke="black" d="M953.83,-217.116C933.212,-206.88 906.257,-193.498 884.31,-182.602"/>
<polygon fill="black" stroke="black" points="885.757,-179.413 875.243,-178.101 882.644,-185.683 885.757,-179.413"/>
</g>
<!-- read_tsc_start -->
<g id="node14" class="node"><title>read_tsc_start</title>
<ellipse fill="none" stroke="black" cx="1118.82" cy="-162" rx="59.5901" ry="18"/>
<text text-anchor="middle" x="1118.82" y="-158.3" font-family="Times,serif" font-size="14.00">read_tsc_start</text>
</g>
<!-- read_counters_mmio&#45;&gt;read_tsc_start -->
<g id="edge11" class="edge"><title>read_counters_mmio&#45;&gt;read_tsc_start</title>
<path fill="none" stroke="black" d="M1016,-217.116C1035.28,-206.972 1060.42,-193.737 1081.02,-182.895"/>
<polygon fill="black" stroke="black" points="1082.91,-185.856 1090.13,-178.101 1079.65,-179.662 1082.91,-185.856"/>
</g>
<!-- __perf_close -->
<g id="node15" class="node"><title>__perf_close</title>
<ellipse fill="none" stroke="black" cx="983.825" cy="-90" rx="55.7903" ry="18"/>
<text text-anchor="middle" x="983.825" y="-86.3" font-family="Times,serif" font-size="14.00">__perf_close</text>
</g>
<!-- read_counters_mmio&#45;&gt;__perf_close -->
<g id="edge12" class="edge"><title>read_counters_mmio&#45;&gt;__perf_close</title>
<path fill="none" stroke="black" d="M911.957,-224.8C855.952,-216.882 785.666,-202.699 767.825,-180 690.586,-81.7332 802.668,-137.032 918.825,-108 923.143,-106.921 927.617,-105.786 932.106,-104.635"/>
<polygon fill="black" stroke="black" points="933.092,-107.996 941.9,-102.108 931.343,-101.218 933.092,-107.996"/>
</g>
<!-- read_tsc_end -->
<g id="node16" class="node"><title>read_tsc_end</title>
<ellipse fill="none" stroke="black" cx="1291.82" cy="-162" rx="57.3905" ry="18"/>
<text text-anchor="middle" x="1291.82" y="-158.3" font-family="Times,serif" font-size="14.00">read_tsc_end</text>
</g>
<!-- read_counters_mmio&#45;&gt;read_tsc_end -->
<g id="edge13" class="edge"><title>read_counters_mmio&#45;&gt;read_tsc_end</title>
<path fill="none" stroke="black" d="M1041.59,-220.242C1097.1,-207.546 1181.74,-188.182 1236.93,-175.557"/>
<polygon fill="black" stroke="black" points="1237.92,-178.923 1246.88,-173.281 1236.35,-172.099 1237.92,-178.923"/>
</g>
<!-- scratch_buf_memset -->
<g id="node17" class="node"><title>scratch_buf_memset</title>
<ellipse fill="none" stroke="black" cx="825.825" cy="-90" rx="84.485" ry="18"/>
<text text-anchor="middle" x="825.825" y="-86.3" font-family="Times,serif" font-size="14.00">scratch_buf_memset</text>
</g>
<!-- read_counters_mmio&#45;&gt;scratch_buf_memset -->
<g id="edge14" class="edge"><title>read_counters_mmio&#45;&gt;scratch_buf_memset</title>
<path fill="none" stroke="black" d="M907.665,-226.45C844.679,-219.359 763.341,-205.474 742.825,-180 732.789,-167.539 735.136,-158.032 742.825,-144 750.508,-129.979 763.653,-119.129 777.245,-111.004"/>
<polygon fill="black" stroke="black" points="779.135,-113.959 786.188,-106.053 775.744,-107.835 779.135,-113.959"/>
</g>
<!-- __perf_open -->
<g id="node18" class="node"><title>__perf_open</title>
<ellipse fill="none" stroke="black" cx="985.825" cy="-162" rx="55.4913" ry="18"/>
<text text-anchor="middle" x="985.825" y="-158.3" font-family="Times,serif" font-size="14.00">__perf_open</text>
</g>
<!-- read_counters_mmio&#45;&gt;__perf_open -->
<g id="edge15" class="edge"><title>read_counters_mmio&#45;&gt;__perf_open</title>
<path fill="none" stroke="black" d="M985.825,-215.697C985.825,-207.983 985.825,-198.712 985.825,-190.112"/>
<polygon fill="black" stroke="black" points="989.325,-190.104 985.825,-180.104 982.325,-190.104 989.325,-190.104"/>
</g>
<!-- scratch_buf_init&#45;&gt;scratch_buf_memset -->
<g id="edge49" class="edge"><title>scratch_buf_init&#45;&gt;scratch_buf_memset</title>
<path fill="none" stroke="black" d="M840.128,-143.697C838.011,-135.898 835.463,-126.509 833.107,-117.829"/>
<polygon fill="black" stroke="black" points="836.465,-116.838 830.467,-108.104 829.709,-118.672 836.465,-116.838"/>
</g>
<!-- __perf_open&#45;&gt;__perf_close -->
<g id="edge18" class="edge"><title>__perf_open&#45;&gt;__perf_close</title>
<path fill="none" stroke="black" d="M985.33,-143.697C985.11,-135.983 984.845,-126.712 984.599,-118.112"/>
<polygon fill="black" stroke="black" points="988.098,-118 984.313,-108.104 981.101,-118.2 988.098,-118"/>
</g>
<!-- send_mi_load_reg_mem -->
<g id="node19" class="node"><title>send_mi_load_reg_mem</title>
<ellipse fill="none" stroke="black" cx="545.825" cy="-162" rx="98.5829" ry="18"/>
<text text-anchor="middle" x="545.825" y="-158.3" font-family="Times,serif" font-size="14.00">send_mi_load_reg_mem</text>
</g>
<!-- send_mi_load_reg_mem&#45;&gt;intel_batchbuffer_emit_dword -->
<g id="edge17" class="edge"><title>send_mi_load_reg_mem&#45;&gt;intel_batchbuffer_emit_dword</title>
<path fill="none" stroke="black" d="M482.514,-148.079C425.488,-136.441 341.489,-119.299 280.436,-106.839"/>
<polygon fill="black" stroke="black" points="280.96,-103.374 270.462,-104.803 279.56,-110.232 280.96,-103.374"/>
</g>
<!-- send_mi_load_reg_mem&#45;&gt;intel_batchbuffer_require_space -->
<g id="edge16" class="edge"><title>send_mi_load_reg_mem&#45;&gt;intel_batchbuffer_require_space</title>
<path fill="none" stroke="black" d="M525.733,-144.055C515.13,-135.113 501.96,-124.005 490.414,-114.268"/>
<polygon fill="black" stroke="black" points="492.633,-111.561 482.732,-107.789 488.12,-116.912 492.633,-111.561"/>
</g>
<!-- max_oa_exponent_for_period_lte -->
<g id="node20" class="node"><title>max_oa_exponent_for_period_lte</title>
<ellipse fill="none" stroke="black" cx="2247.82" cy="-162" rx="129.977" ry="18"/>
<text text-anchor="middle" x="2247.82" y="-158.3" font-family="Times,serif" font-size="14.00">max_oa_exponent_for_period_lte</text>
</g>
<!-- timebase_scale -->
<g id="node21" class="node"><title>timebase_scale</title>
<ellipse fill="none" stroke="black" cx="2248.82" cy="-90" rx="64.189" ry="18"/>
<text text-anchor="middle" x="2248.82" y="-86.3" font-family="Times,serif" font-size="14.00">timebase_scale</text>
</g>
<!-- max_oa_exponent_for_period_lte&#45;&gt;timebase_scale -->
<g id="edge19" class="edge"><title>max_oa_exponent_for_period_lte&#45;&gt;timebase_scale</title>
<path fill="none" stroke="black" d="M2248.07,-143.697C2248.18,-135.983 2248.31,-126.712 2248.44,-118.112"/>
<polygon fill="black" stroke="black" points="2251.94,-118.153 2248.58,-108.104 2244.94,-118.053 2251.94,-118.153"/>
</g>
<!-- init_sys_info -->
<g id="node22" class="node"><title>init_sys_info</title>
<ellipse fill="none" stroke="black" cx="2029.82" cy="-234" rx="56.59" ry="18"/>
<text text-anchor="middle" x="2029.82" y="-230.3" font-family="Times,serif" font-size="14.00">init_sys_info</text>
</g>
<!-- init_sys_info&#45;&gt;read_u64_file -->
<g id="edge20" class="edge"><title>init_sys_info&#45;&gt;read_u64_file</title>
<path fill="none" stroke="black" d="M1980.58,-224.965C1962.44,-222.061 1941.71,-218.807 1922.82,-216 1807.43,-198.847 1777.36,-202.179 1662.82,-180 1658.07,-179.08 1653.15,-178.035 1648.24,-176.926"/>
<polygon fill="black" stroke="black" points="1648.73,-173.448 1638.2,-174.582 1647.14,-180.265 1648.73,-173.448"/>
</g>
<!-- init_sys_info&#45;&gt;max_oa_exponent_for_period_lte -->
<g id="edge21" class="edge"><title>init_sys_info&#45;&gt;max_oa_exponent_for_period_lte</title>
<path fill="none" stroke="black" d="M2068.05,-220.727C2101.59,-209.955 2150.9,-194.123 2189.39,-181.763"/>
<polygon fill="black" stroke="black" points="2190.48,-185.09 2198.93,-178.7 2188.34,-178.425 2190.48,-185.09"/>
</g>
<!-- i915_perf_add_config -->
<g id="node23" class="node"><title>i915_perf_add_config</title>
<ellipse fill="none" stroke="black" cx="2492.82" cy="-234" rx="89.0842" ry="18"/>
<text text-anchor="middle" x="2492.82" y="-230.3" font-family="Times,serif" font-size="14.00">i915_perf_add_config</text>
</g>
<!-- __i915_perf_add_config -->
<g id="node24" class="node"><title>__i915_perf_add_config</title>
<ellipse fill="none" stroke="black" cx="2492.82" cy="-162" rx="97.4827" ry="18"/>
<text text-anchor="middle" x="2492.82" y="-158.3" font-family="Times,serif" font-size="14.00">__i915_perf_add_config</text>
</g>
<!-- i915_perf_add_config&#45;&gt;__i915_perf_add_config -->
<g id="edge23" class="edge"><title>i915_perf_add_config&#45;&gt;__i915_perf_add_config</title>
<path fill="none" stroke="black" d="M2492.82,-215.697C2492.82,-207.983 2492.82,-198.712 2492.82,-190.112"/>
<polygon fill="black" stroke="black" points="2496.32,-190.104 2492.82,-180.104 2489.32,-190.104 2496.32,-190.104"/>
</g>
<!-- max_oa_exponent_for_freq_gt -->
<g id="node25" class="node"><title>max_oa_exponent_for_freq_gt</title>
<ellipse fill="none" stroke="black" cx="2247.82" cy="-234" rx="120.479" ry="18"/>
<text text-anchor="middle" x="2247.82" y="-230.3" font-family="Times,serif" font-size="14.00">max_oa_exponent_for_freq_gt</text>
</g>
<!-- max_oa_exponent_for_freq_gt&#45;&gt;max_oa_exponent_for_period_lte -->
<g id="edge24" class="edge"><title>max_oa_exponent_for_freq_gt&#45;&gt;max_oa_exponent_for_period_lte</title>
<path fill="none" stroke="black" d="M2247.82,-215.697C2247.82,-207.983 2247.82,-198.712 2247.82,-190.112"/>
<polygon fill="black" stroke="black" points="2251.32,-190.104 2247.82,-180.104 2244.32,-190.104 2251.32,-190.104"/>
</g>
<!-- read_counters_rpc -->
<g id="node26" class="node"><title>read_counters_rpc</title>
<ellipse fill="none" stroke="black" cx="1291.82" cy="-234" rx="75.2868" ry="18"/>
<text text-anchor="middle" x="1291.82" y="-230.3" font-family="Times,serif" font-size="14.00">read_counters_rpc</text>
</g>
<!-- read_counters_rpc&#45;&gt;print_reports -->
<g id="edge33" class="edge"><title>read_counters_rpc&#45;&gt;print_reports</title>
<path fill="none" stroke="black" d="M1327.67,-218.155C1354.19,-207.169 1390.41,-192.166 1418.38,-180.58"/>
<polygon fill="black" stroke="black" points="1420,-183.697 1427.9,-176.637 1417.32,-177.23 1420,-183.697"/>
</g>
<!-- read_counters_rpc&#45;&gt;read_u64_file -->
<g id="edge28" class="edge"><title>read_counters_rpc&#45;&gt;read_u64_file</title>
<path fill="none" stroke="black" d="M1345.33,-221.182C1392.8,-210.625 1464.01,-194.615 1525.82,-180 1530.53,-178.888 1535.41,-177.718 1540.3,-176.533"/>
<polygon fill="black" stroke="black" points="1541.43,-179.863 1550.31,-174.097 1539.77,-173.061 1541.43,-179.863"/>
</g>
<!-- read_counters_rpc&#45;&gt;scratch_buf_init -->
<g id="edge26" class="edge"><title>read_counters_rpc&#45;&gt;scratch_buf_init</title>
<path fill="none" stroke="black" d="M1226.09,-225.096C1151.92,-215.829 1027.81,-199.262 921.825,-180 916.043,-178.949 910.036,-177.773 904.041,-176.543"/>
<polygon fill="black" stroke="black" points="904.512,-173.065 894.006,-174.434 903.073,-179.916 904.512,-173.065"/>
</g>
<!-- read_counters_rpc&#45;&gt;read_tsc_start -->
<g id="edge25" class="edge"><title>read_counters_rpc&#45;&gt;read_tsc_start</title>
<path fill="none" stroke="black" d="M1255.14,-218.155C1228.05,-207.194 1191.07,-192.232 1162.46,-180.657"/>
<polygon fill="black" stroke="black" points="1163.69,-177.378 1153.11,-176.872 1161.06,-183.867 1163.69,-177.378"/>
</g>
<!-- read_counters_rpc&#45;&gt;__perf_close -->
<g id="edge30" class="edge"><title>read_counters_rpc&#45;&gt;__perf_close</title>
<path fill="none" stroke="black" d="M1321.8,-217.258C1335.47,-208.33 1350.26,-195.769 1357.82,-180 1364.74,-165.573 1368.47,-155.948 1357.82,-144 1311.7,-92.2096 1115.96,-120.936 1047.82,-108 1043.2,-107.121 1038.41,-106.089 1033.64,-104.974"/>
<polygon fill="black" stroke="black" points="1034.45,-101.57 1023.91,-102.592 1032.79,-108.369 1034.45,-101.57"/>
</g>
<!-- read_counters_rpc&#45;&gt;read_tsc_end -->
<g id="edge32" class="edge"><title>read_counters_rpc&#45;&gt;read_tsc_end</title>
<path fill="none" stroke="black" d="M1291.82,-215.697C1291.82,-207.983 1291.82,-198.712 1291.82,-190.112"/>
<polygon fill="black" stroke="black" points="1295.32,-190.104 1291.82,-180.104 1288.32,-190.104 1295.32,-190.104"/>
</g>
<!-- read_counters_rpc&#45;&gt;scratch_buf_memset -->
<g id="edge34" class="edge"><title>read_counters_rpc&#45;&gt;scratch_buf_memset</title>
<path fill="none" stroke="black" d="M1270.66,-216.719C1257.53,-206.447 1240.44,-192.754 1225.82,-180 1208.3,-164.704 1208.82,-154.029 1187.82,-144 1078.99,-92.0005 1037.96,-126.85 918.825,-108 911.692,-106.871 904.263,-105.629 896.852,-104.344"/>
<polygon fill="black" stroke="black" points="897.24,-100.859 886.785,-102.574 896.027,-107.753 897.24,-100.859"/>
</g>
<!-- read_counters_rpc&#45;&gt;__perf_open -->
<g id="edge35" class="edge"><title>read_counters_rpc&#45;&gt;__perf_open</title>
<path fill="none" stroke="black" d="M1236.4,-221.586C1187.25,-211.292 1113.57,-195.439 1049.82,-180 1045.5,-178.952 1041.01,-177.832 1036.52,-176.685"/>
<polygon fill="black" stroke="black" points="1037.28,-173.268 1026.73,-174.151 1035.53,-180.045 1037.28,-173.268"/>
</g>
<!-- emit_report_perf_count -->
<g id="node27" class="node"><title>emit_report_perf_count</title>
<ellipse fill="none" stroke="black" cx="333.825" cy="-162" rx="94.7833" ry="18"/>
<text text-anchor="middle" x="333.825" y="-158.3" font-family="Times,serif" font-size="14.00">emit_report_perf_count</text>
</g>
<!-- read_counters_rpc&#45;&gt;emit_report_perf_count -->
<g id="edge27" class="edge"><title>read_counters_rpc&#45;&gt;emit_report_perf_count</title>
<path fill="none" stroke="black" d="M1222,-226.943C1180.92,-223.487 1127.94,-219.216 1080.82,-216 795.264,-196.505 722.352,-211.131 437.825,-180 428.876,-179.021 419.526,-177.79 410.258,-176.441"/>
<polygon fill="black" stroke="black" points="410.667,-172.963 400.258,-174.936 409.626,-179.885 410.667,-172.963"/>
</g>
<!-- umedian -->
<g id="node28" class="node"><title>umedian</title>
<ellipse fill="none" stroke="black" cx="1713.82" cy="-162" rx="41.6928" ry="18"/>
<text text-anchor="middle" x="1713.82" y="-158.3" font-family="Times,serif" font-size="14.00">umedian</text>
</g>
<!-- read_counters_rpc&#45;&gt;umedian -->
<g id="edge29" class="edge"><title>read_counters_rpc&#45;&gt;umedian</title>
<path fill="none" stroke="black" d="M1361.45,-226.988C1436.74,-219.583 1559.93,-204.835 1663.82,-180 1667.04,-179.233 1670.33,-178.345 1673.63,-177.386"/>
<polygon fill="black" stroke="black" points="1674.9,-180.654 1683.42,-174.344 1672.83,-173.969 1674.9,-180.654"/>
</g>
<!-- median -->
<g id="node29" class="node"><title>median</title>
<ellipse fill="none" stroke="black" cx="1810.82" cy="-162" rx="37.0935" ry="18"/>
<text text-anchor="middle" x="1810.82" y="-158.3" font-family="Times,serif" font-size="14.00">median</text>
</g>
<!-- read_counters_rpc&#45;&gt;median -->
<g id="edge31" class="edge"><title>read_counters_rpc&#45;&gt;median</title>
<path fill="none" stroke="black" d="M1365.7,-230.258C1459.58,-225.516 1626.13,-212.883 1764.82,-180 1767.79,-179.296 1770.83,-178.456 1773.87,-177.531"/>
<polygon fill="black" stroke="black" points="1775.04,-180.829 1783.43,-174.356 1772.84,-174.186 1775.04,-180.829"/>
</g>
<!-- emit_report_perf_count&#45;&gt;intel_batchbuffer_emit_dword -->
<g id="edge45" class="edge"><title>emit_report_perf_count&#45;&gt;intel_batchbuffer_emit_dword</title>
<path fill="none" stroke="black" d="M303.441,-144.765C285.302,-135.072 262.061,-122.653 242.487,-112.193"/>
<polygon fill="black" stroke="black" points="243.966,-109.016 233.497,-107.39 240.667,-115.19 243.966,-109.016"/>
</g>
<!-- emit_report_perf_count&#45;&gt;intel_batchbuffer_require_space -->
<g id="edge44" class="edge"><title>emit_report_perf_count&#45;&gt;intel_batchbuffer_require_space</title>
<path fill="none" stroke="black" d="M363.744,-144.765C381.478,-135.142 404.164,-122.832 423.352,-112.419"/>
<polygon fill="black" stroke="black" points="425.052,-115.479 432.172,-107.633 421.713,-109.327 425.052,-115.479"/>
</g>
<!-- measure_overheads -->
<g id="node31" class="node"><title>measure_overheads</title>
<ellipse fill="none" stroke="black" cx="1832.82" cy="-234" rx="80.6858" ry="18"/>
<text text-anchor="middle" x="1832.82" y="-230.3" font-family="Times,serif" font-size="14.00">measure_overheads</text>
</g>
<!-- measure_overheads&#45;&gt;read_tsc_start -->
<g id="edge41" class="edge"><title>measure_overheads&#45;&gt;read_tsc_start</title>
<path fill="none" stroke="black" d="M1756.46,-228.067C1641.23,-220.23 1416.12,-203.396 1225.82,-180 1210.81,-178.154 1194.66,-175.789 1179.58,-173.415"/>
<polygon fill="black" stroke="black" points="1179.77,-169.9 1169.34,-171.775 1178.66,-176.812 1179.77,-169.9"/>
</g>
<!-- measure_overheads&#45;&gt;read_tsc_end -->
<g id="edge42" class="edge"><title>measure_overheads&#45;&gt;read_tsc_end</title>
<path fill="none" stroke="black" d="M1761.94,-225.314C1675.4,-215.721 1524.64,-198.331 1395.82,-180 1381.18,-177.916 1365.42,-175.453 1350.7,-173.058"/>
<polygon fill="black" stroke="black" points="1351.13,-169.583 1340.7,-171.416 1350,-176.491 1351.13,-169.583"/>
</g>
<!-- measure_overheads&#45;&gt;median -->
<g id="edge38" class="edge"><title>measure_overheads&#45;&gt;median</title>
<path fill="none" stroke="black" d="M1827.39,-215.697C1824.94,-207.898 1821.98,-198.509 1819.26,-189.829"/>
<polygon fill="black" stroke="black" points="1822.54,-188.595 1816.2,-180.104 1815.86,-190.694 1822.54,-188.595"/>
</g>
<!-- average -->
<g id="node32" class="node"><title>average</title>
<ellipse fill="none" stroke="black" cx="2059.82" cy="-162" rx="38.1938" ry="18"/>
<text text-anchor="middle" x="2059.82" y="-158.3" font-family="Times,serif" font-size="14.00">average</text>
</g>
<!-- measure_overheads&#45;&gt;average -->
<g id="edge39" class="edge"><title>measure_overheads&#45;&gt;average</title>
<path fill="none" stroke="black" d="M1881.58,-219.509C1917.94,-209.242 1968.71,-194.457 2012.82,-180 2015.57,-179.101 2018.39,-178.148 2021.23,-177.171"/>
<polygon fill="black" stroke="black" points="2022.56,-180.413 2030.84,-173.796 2020.24,-173.809 2022.56,-180.413"/>
</g>
<!-- umin -->
<g id="node33" class="node"><title>umin</title>
<ellipse fill="none" stroke="black" cx="1894.82" cy="-162" rx="29.4969" ry="18"/>
<text text-anchor="middle" x="1894.82" y="-158.3" font-family="Times,serif" font-size="14.00">umin</text>
</g>
<!-- measure_overheads&#45;&gt;umin -->
<g id="edge40" class="edge"><title>measure_overheads&#45;&gt;umin</title>
<path fill="none" stroke="black" d="M1847.83,-216.055C1855.86,-206.988 1865.87,-195.694 1874.58,-185.86"/>
<polygon fill="black" stroke="black" points="1877.21,-188.163 1881.22,-178.356 1871.97,-183.522 1877.21,-188.163"/>
</g>
<!-- umax -->
<g id="node34" class="node"><title>umax</title>
<ellipse fill="none" stroke="black" cx="1972.82" cy="-162" rx="30.5947" ry="18"/>
<text text-anchor="middle" x="1972.82" y="-158.3" font-family="Times,serif" font-size="14.00">umax</text>
</g>
<!-- measure_overheads&#45;&gt;umax -->
<g id="edge43" class="edge"><title>measure_overheads&#45;&gt;umax</title>
<path fill="none" stroke="black" d="M1864.24,-217.291C1887.2,-205.812 1918.21,-190.308 1941.21,-178.806"/>
<polygon fill="black" stroke="black" points="1942.84,-181.904 1950.22,-174.301 1939.71,-175.643 1942.84,-181.904"/>
</g>
<!-- emit_stall_timestamp_and_rpc -->
<g id="node35" class="node"><title>emit_stall_timestamp_and_rpc</title>
<ellipse fill="none" stroke="black" cx="333.825" cy="-234" rx="120.479" ry="18"/>
<text text-anchor="middle" x="333.825" y="-230.3" font-family="Times,serif" font-size="14.00">emit_stall_timestamp_and_rpc</text>
</g>
<!-- emit_stall_timestamp_and_rpc&#45;&gt;intel_batchbuffer_emit_dword -->
<g id="edge46" class="edge"><title>emit_stall_timestamp_and_rpc&#45;&gt;intel_batchbuffer_emit_dword</title>
<path fill="none" stroke="black" d="M217.3,-229.4C135.592,-224.134 36.3979,-211.273 9.82477,-180 -24.5338,-139.564 40.6116,-116.473 104.311,-104"/>
<polygon fill="black" stroke="black" points="105.323,-107.371 114.507,-102.088 104.033,-100.491 105.323,-107.371"/>
</g>
<!-- emit_stall_timestamp_and_rpc&#45;&gt;intel_batchbuffer_require_space -->
<g id="edge48" class="edge"><title>emit_stall_timestamp_and_rpc&#45;&gt;intel_batchbuffer_require_space</title>
<path fill="none" stroke="black" d="M449.765,-229.143C530.309,-223.738 627.693,-210.816 653.825,-180 687.569,-140.207 624.434,-117.129 561.891,-104.492"/>
<polygon fill="black" stroke="black" points="562.356,-101.018 551.873,-102.553 561.026,-107.89 562.356,-101.018"/>
</g>
<!-- emit_stall_timestamp_and_rpc&#45;&gt;emit_report_perf_count -->
<g id="edge47" class="edge"><title>emit_stall_timestamp_and_rpc&#45;&gt;emit_report_perf_count</title>
<path fill="none" stroke="black" d="M333.825,-215.697C333.825,-207.983 333.825,-198.712 333.825,-190.112"/>
<polygon fill="black" stroke="black" points="337.325,-190.104 333.825,-180.104 330.325,-190.104 337.325,-190.104"/>
</g>
<!-- print_binary -->
<g id="node36" class="node"><title>print_binary</title>
<ellipse fill="none" stroke="black" cx="2653.82" cy="-234" rx="53.8905" ry="18"/>
<text text-anchor="middle" x="2653.82" y="-230.3" font-family="Times,serif" font-size="14.00">print_binary</text>
</g>
<!-- write_u64_file -->
<g id="node37" class="node"><title>write_u64_file</title>
<ellipse fill="none" stroke="black" cx="2787.82" cy="-234" rx="62.2891" ry="18"/>
<text text-anchor="middle" x="2787.82" y="-230.3" font-family="Times,serif" font-size="14.00">write_u64_file</text>
</g>
<!-- create_filtering_word -->
<g id="node38" class="node"><title>create_filtering_word</title>
<ellipse fill="none" stroke="black" cx="2954.82" cy="-234" rx="87.1846" ry="18"/>
<text text-anchor="middle" x="2954.82" y="-230.3" font-family="Times,serif" font-size="14.00">create_filtering_word</text>
</g>
<!-- print_report_card -->
<g id="node39" class="node"><title>print_report_card</title>
<ellipse fill="none" stroke="black" cx="3131.82" cy="-234" rx="72.2875" ry="18"/>
<text text-anchor="middle" x="3131.82" y="-230.3" font-family="Times,serif" font-size="14.00">print_report_card</text>
</g>
<!-- oa_report_is_periodic -->
<g id="node40" class="node"><title>oa_report_is_periodic</title>
<ellipse fill="none" stroke="black" cx="3309.82" cy="-234" rx="87.9851" ry="18"/>
<text text-anchor="middle" x="3309.82" y="-230.3" font-family="Times,serif" font-size="14.00">oa_report_is_periodic</text>
</g>
<!-- read_i915_module_ref -->
<g id="node41" class="node"><title>read_i915_module_ref</title>
<ellipse fill="none" stroke="black" cx="3506.82" cy="-234" rx="90.9839" ry="18"/>
<text text-anchor="middle" x="3506.82" y="-230.3" font-family="Times,serif" font-size="14.00">read_i915_module_ref</text>
</g>
<!-- i915_perf_remove_config -->
<g id="node42" class="node"><title>i915_perf_remove_config</title>
<ellipse fill="none" stroke="black" cx="3718.82" cy="-234" rx="102.882" ry="18"/>
<text text-anchor="middle" x="3718.82" y="-230.3" font-family="Times,serif" font-size="14.00">i915_perf_remove_config</text>
</g>
<!-- oa_exponent_to_ns -->
<g id="node43" class="node"><title>oa_exponent_to_ns</title>
<ellipse fill="none" stroke="black" cx="3918.82" cy="-234" rx="79.0865" ry="18"/>
<text text-anchor="middle" x="3918.82" y="-230.3" font-family="Times,serif" font-size="14.00">oa_exponent_to_ns</text>
</g>
<!-- fmedian -->
<g id="node44" class="node"><title>fmedian</title>
<ellipse fill="none" stroke="black" cx="4056.82" cy="-234" rx="40.0939" ry="18"/>
<text text-anchor="middle" x="4056.82" y="-230.3" font-family="Times,serif" font-size="14.00">fmedian</text>
</g>
<!-- profile_through_opencl -->
<g id="node45" class="node"><title>profile_through_opencl</title>
<ellipse fill="none" stroke="black" cx="4208.82" cy="-234" rx="93.6835" ry="18"/>
<text text-anchor="middle" x="4208.82" y="-230.3" font-family="Times,serif" font-size="14.00">profile_through_opencl</text>
</g>
<!-- gen8_read_report_ticks -->
<g id="node46" class="node"><title>gen8_read_report_ticks</title>
<ellipse fill="none" stroke="black" cx="4413.82" cy="-234" rx="93.6835" ry="18"/>
<text text-anchor="middle" x="4413.82" y="-230.3" font-family="Times,serif" font-size="14.00">gen8_read_report_ticks</text>
</g>
</g>
</svg>
