<?xml version="1.0" encoding="UTF-8" standalone="no"?>
<!DOCTYPE svg PUBLIC "-//W3C//DTD SVG 1.1//EN"
 "http://www.w3.org/Graphics/SVG/1.1/DTD/svg11.dtd">
<!-- Generated by graphviz version 2.38.0 (20140413.2041)
 -->
<!-- Title: callgraph Pages: 1 -->
<svg width="4669pt" height="260pt"
 viewBox="0.00 0.00 4668.94 260.00" xmlns="http://www.w3.org/2000/svg" xmlns:xlink="http://www.w3.org/1999/xlink">
<g id="graph0" class="graph" transform="scale(1 1) rotate(0) translate(4 256)">
<title>callgraph</title>
<polygon fill="white" stroke="none" points="-4,4 -4,-256 4664.94,-256 4664.94,4 -4,4"/>
<!-- read_counters_rpc -->
<g id="node1" class="node"><title>read_counters_rpc</title>
<ellipse fill="none" stroke="black" cx="935.347" cy="-234" rx="75.2868" ry="18"/>
<text text-anchor="middle" x="935.347" y="-230.3" font-family="Times,serif" font-size="14.00">read_counters_rpc</text>
</g>
<!-- read_tsc_start -->
<g id="node2" class="node"><title>read_tsc_start</title>
<ellipse fill="none" stroke="black" cx="310.347" cy="-162" rx="59.5901" ry="18"/>
<text text-anchor="middle" x="310.347" y="-158.3" font-family="Times,serif" font-size="14.00">read_tsc_start</text>
</g>
<!-- read_counters_rpc&#45;&gt;read_tsc_start -->
<g id="edge1" class="edge"><title>read_counters_rpc&#45;&gt;read_tsc_start</title>
<path fill="none" stroke="black" d="M866.79,-226.464C746.593,-214.925 502.505,-191.113 417.347,-180 402.42,-178.052 386.368,-175.661 371.355,-173.293"/>
<polygon fill="black" stroke="black" points="371.58,-169.785 361.153,-171.664 370.476,-176.697 371.58,-169.785"/>
</g>
<!-- __perf_close -->
<g id="node3" class="node"><title>__perf_close</title>
<ellipse fill="none" stroke="black" cx="660.347" cy="-90" rx="55.7903" ry="18"/>
<text text-anchor="middle" x="660.347" y="-86.3" font-family="Times,serif" font-size="14.00">__perf_close</text>
</g>
<!-- read_counters_rpc&#45;&gt;__perf_close -->
<g id="edge2" class="edge"><title>read_counters_rpc&#45;&gt;__perf_close</title>
<path fill="none" stroke="black" d="M1009.71,-230.596C1089.82,-226.255 1209.7,-214.088 1238.35,-180 1248.64,-167.75 1249.26,-155.703 1238.35,-144 1199.38,-102.205 781.73,-117.269 725.347,-108 720.367,-107.181 715.214,-106.154 710.088,-105.011"/>
<polygon fill="black" stroke="black" points="710.855,-101.596 700.318,-102.698 709.242,-108.408 710.855,-101.596"/>
</g>
<!-- median -->
<g id="node4" class="node"><title>median</title>
<ellipse fill="none" stroke="black" cx="595.347" cy="-162" rx="37.0935" ry="18"/>
<text text-anchor="middle" x="595.347" y="-158.3" font-family="Times,serif" font-size="14.00">median</text>
</g>
<!-- read_counters_rpc&#45;&gt;median -->
<g id="edge3" class="edge"><title>read_counters_rpc&#45;&gt;median</title>
<path fill="none" stroke="black" d="M880.342,-221.675C813.045,-207.82 700.488,-184.647 638.891,-171.965"/>
<polygon fill="black" stroke="black" points="639.594,-168.536 629.094,-169.948 638.182,-175.393 639.594,-168.536"/>
</g>
<!-- read_u64_file -->
<g id="node5" class="node"><title>read_u64_file</title>
<ellipse fill="none" stroke="black" cx="1068.35" cy="-162" rx="59.5901" ry="18"/>
<text text-anchor="middle" x="1068.35" y="-158.3" font-family="Times,serif" font-size="14.00">read_u64_file</text>
</g>
<!-- read_counters_rpc&#45;&gt;read_u64_file -->
<g id="edge4" class="edge"><title>read_counters_rpc&#45;&gt;read_u64_file</title>
<path fill="none" stroke="black" d="M965.194,-217.291C984.675,-207.038 1010.26,-193.573 1031.07,-182.618"/>
<polygon fill="black" stroke="black" points="1032.75,-185.692 1039.97,-177.938 1029.49,-179.498 1032.75,-185.692"/>
</g>
<!-- umedian -->
<g id="node6" class="node"><title>umedian</title>
<ellipse fill="none" stroke="black" cx="1187.35" cy="-162" rx="41.6928" ry="18"/>
<text text-anchor="middle" x="1187.35" y="-158.3" font-family="Times,serif" font-size="14.00">umedian</text>
</g>
<!-- read_counters_rpc&#45;&gt;umedian -->
<g id="edge5" class="edge"><title>read_counters_rpc&#45;&gt;umedian</title>
<path fill="none" stroke="black" d="M986.265,-220.706C1027.28,-210.548 1086.31,-195.351 1137.35,-180 1140.28,-179.117 1143.3,-178.175 1146.34,-177.205"/>
<polygon fill="black" stroke="black" points="1147.57,-180.483 1155.98,-174.044 1145.39,-173.831 1147.57,-180.483"/>
</g>
<!-- emit_report_perf_count -->
<g id="node7" class="node"><title>emit_report_perf_count</title>
<ellipse fill="none" stroke="black" cx="1962.35" cy="-162" rx="94.7833" ry="18"/>
<text text-anchor="middle" x="1962.35" y="-158.3" font-family="Times,serif" font-size="14.00">emit_report_perf_count</text>
</g>
<!-- read_counters_rpc&#45;&gt;emit_report_perf_count -->
<g id="edge6" class="edge"><title>read_counters_rpc&#45;&gt;emit_report_perf_count</title>
<path fill="none" stroke="black" d="M1006.36,-227.951C1055.27,-224.504 1121.74,-219.877 1180.35,-216 1434.52,-199.184 1498.28,-198.277 1752.35,-180 1790.11,-177.283 1831.67,-173.984 1867.79,-171.017"/>
<polygon fill="black" stroke="black" points="1868.14,-174.5 1877.82,-170.19 1867.57,-167.524 1868.14,-174.5"/>
</g>
<!-- scratch_buf_init -->
<g id="node8" class="node"><title>scratch_buf_init</title>
<ellipse fill="none" stroke="black" cx="756.347" cy="-162" rx="67.6881" ry="18"/>
<text text-anchor="middle" x="756.347" y="-158.3" font-family="Times,serif" font-size="14.00">scratch_buf_init</text>
</g>
<!-- read_counters_rpc&#45;&gt;scratch_buf_init -->
<g id="edge7" class="edge"><title>read_counters_rpc&#45;&gt;scratch_buf_init</title>
<path fill="none" stroke="black" d="M897.822,-218.326C870.099,-207.484 832.193,-192.661 802.595,-181.086"/>
<polygon fill="black" stroke="black" points="803.491,-177.678 792.903,-177.296 800.941,-184.198 803.491,-177.678"/>
</g>
<!-- __perf_open -->
<g id="node9" class="node"><title>__perf_open</title>
<ellipse fill="none" stroke="black" cx="935.347" cy="-162" rx="55.4913" ry="18"/>
<text text-anchor="middle" x="935.347" y="-158.3" font-family="Times,serif" font-size="14.00">__perf_open</text>
</g>
<!-- read_counters_rpc&#45;&gt;__perf_open -->
<g id="edge8" class="edge"><title>read_counters_rpc&#45;&gt;__perf_open</title>
<path fill="none" stroke="black" d="M935.347,-215.697C935.347,-207.983 935.347,-198.712 935.347,-190.112"/>
<polygon fill="black" stroke="black" points="938.847,-190.104 935.347,-180.104 931.847,-190.104 938.847,-190.104"/>
</g>
<!-- scratch_buf_memset -->
<g id="node10" class="node"><title>scratch_buf_memset</title>
<ellipse fill="none" stroke="black" cx="502.347" cy="-90" rx="84.485" ry="18"/>
<text text-anchor="middle" x="502.347" y="-86.3" font-family="Times,serif" font-size="14.00">scratch_buf_memset</text>
</g>
<!-- read_counters_rpc&#45;&gt;scratch_buf_memset -->
<g id="edge9" class="edge"><title>read_counters_rpc&#45;&gt;scratch_buf_memset</title>
<path fill="none" stroke="black" d="M914.878,-216.63C902.17,-206.325 885.6,-192.628 871.347,-180 853.933,-164.572 854.252,-154.208 833.347,-144 737.214,-97.058 700.867,-125.621 595.347,-108 588.279,-106.82 580.917,-105.548 573.567,-104.249"/>
<polygon fill="black" stroke="black" points="574.04,-100.779 563.581,-102.469 572.811,-107.67 574.04,-100.779"/>
</g>
<!-- read_tsc_end -->
<g id="node11" class="node"><title>read_tsc_end</title>
<ellipse fill="none" stroke="black" cx="483.347" cy="-162" rx="57.3905" ry="18"/>
<text text-anchor="middle" x="483.347" y="-158.3" font-family="Times,serif" font-size="14.00">read_tsc_end</text>
</g>
<!-- read_counters_rpc&#45;&gt;read_tsc_end -->
<g id="edge10" class="edge"><title>read_counters_rpc&#45;&gt;read_tsc_end</title>
<path fill="none" stroke="black" d="M867.317,-226.068C789.896,-217.622 659.853,-201.743 549.347,-180 544.59,-179.064 539.666,-177.992 534.749,-176.852"/>
<polygon fill="black" stroke="black" points="535.265,-173.377 524.724,-174.438 533.626,-180.182 535.265,-173.377"/>
</g>
<!-- print_reports -->
<g id="node12" class="node"><title>print_reports</title>
<ellipse fill="none" stroke="black" cx="1370.35" cy="-162" rx="55.7903" ry="18"/>
<text text-anchor="middle" x="1370.35" y="-158.3" font-family="Times,serif" font-size="14.00">print_reports</text>
</g>
<!-- read_counters_rpc&#45;&gt;print_reports -->
<g id="edge11" class="edge"><title>read_counters_rpc&#45;&gt;print_reports</title>
<path fill="none" stroke="black" d="M997.007,-223.531C1064.43,-213.118 1175.64,-195.765 1271.35,-180 1284.65,-177.809 1298.94,-175.391 1312.42,-173.084"/>
<polygon fill="black" stroke="black" points="1313.27,-176.489 1322.53,-171.346 1312.08,-169.59 1313.27,-176.489"/>
</g>
<!-- intel_batchbuffer_emit_dword -->
<g id="node25" class="node"><title>intel_batchbuffer_emit_dword</title>
<ellipse fill="none" stroke="black" cx="2392.35" cy="-90" rx="118.079" ry="18"/>
<text text-anchor="middle" x="2392.35" y="-86.3" font-family="Times,serif" font-size="14.00">intel_batchbuffer_emit_dword</text>
</g>
<!-- emit_report_perf_count&#45;&gt;intel_batchbuffer_emit_dword -->
<g id="edge27" class="edge"><title>emit_report_perf_count&#45;&gt;intel_batchbuffer_emit_dword</title>
<path fill="none" stroke="black" d="M2031.71,-149.653C2043.28,-147.763 2055.15,-145.825 2066.35,-144 2147.09,-130.837 2239.09,-115.884 2304.72,-105.224"/>
<polygon fill="black" stroke="black" points="2305.31,-108.675 2314.62,-103.617 2304.19,-101.766 2305.31,-108.675"/>
</g>
<!-- intel_batchbuffer_require_space -->
<g id="node26" class="node"><title>intel_batchbuffer_require_space</title>
<ellipse fill="none" stroke="black" cx="2132.35" cy="-90" rx="124.278" ry="18"/>
<text text-anchor="middle" x="2132.35" y="-86.3" font-family="Times,serif" font-size="14.00">intel_batchbuffer_require_space</text>
</g>
<!-- emit_report_perf_count&#45;&gt;intel_batchbuffer_require_space -->
<g id="edge28" class="edge"><title>emit_report_perf_count&#45;&gt;intel_batchbuffer_require_space</title>
<path fill="none" stroke="black" d="M2000.08,-145.465C2024.73,-135.313 2057.17,-121.957 2083.75,-111.012"/>
<polygon fill="black" stroke="black" points="2085.33,-114.143 2093.25,-107.099 2082.67,-107.67 2085.33,-114.143"/>
</g>
<!-- scratch_buf_init&#45;&gt;scratch_buf_memset -->
<g id="edge13" class="edge"><title>scratch_buf_init&#45;&gt;scratch_buf_memset</title>
<path fill="none" stroke="black" d="M711.229,-148.566C669.526,-137.073 607.288,-119.921 561.595,-107.328"/>
<polygon fill="black" stroke="black" points="562.389,-103.917 551.818,-104.634 560.529,-110.665 562.389,-103.917"/>
</g>
<!-- __perf_open&#45;&gt;__perf_close -->
<g id="edge12" class="edge"><title>__perf_open&#45;&gt;__perf_close</title>
<path fill="none" stroke="black" d="M892.686,-150.347C850.237,-139.721 783.252,-122.879 725.347,-108 721.036,-106.892 716.566,-105.737 712.081,-104.573"/>
<polygon fill="black" stroke="black" points="712.851,-101.157 702.292,-102.027 711.088,-107.932 712.851,-101.157"/>
</g>
<!-- get_oa_format -->
<g id="node14" class="node"><title>get_oa_format</title>
<ellipse fill="none" stroke="black" cx="1043.35" cy="-18" rx="62.2891" ry="18"/>
<text text-anchor="middle" x="1043.35" y="-14.3" font-family="Times,serif" font-size="14.00">get_oa_format</text>
</g>
<!-- print_reports&#45;&gt;get_oa_format -->
<g id="edge25" class="edge"><title>print_reports&#45;&gt;get_oa_format</title>
<path fill="none" stroke="black" d="M1378.67,-144.063C1387.01,-124.348 1396.4,-91.9523 1379.35,-72 1346.18,-33.1888 1204.54,-22.627 1116.08,-19.8597"/>
<polygon fill="black" stroke="black" points="1115.93,-16.354 1105.84,-19.5664 1115.73,-23.3512 1115.93,-16.354"/>
</g>
<!-- gen8_read_report_reason -->
<g id="node19" class="node"><title>gen8_read_report_reason</title>
<ellipse fill="none" stroke="black" cx="1270.35" cy="-90" rx="100.182" ry="18"/>
<text text-anchor="middle" x="1270.35" y="-86.3" font-family="Times,serif" font-size="14.00">gen8_read_report_reason</text>
</g>
<!-- print_reports&#45;&gt;gen8_read_report_reason -->
<g id="edge21" class="edge"><title>print_reports&#45;&gt;gen8_read_report_reason</title>
<path fill="none" stroke="black" d="M1348.15,-145.465C1334.78,-136.104 1317.52,-124.021 1302.65,-113.614"/>
<polygon fill="black" stroke="black" points="1304.42,-110.581 1294.22,-107.714 1300.41,-116.316 1304.42,-110.581"/>
</g>
<!-- gen8_read_report_clock_ratios -->
<g id="node20" class="node"><title>gen8_read_report_clock_ratios</title>
<ellipse fill="none" stroke="black" cx="1546.35" cy="-90" rx="120.479" ry="18"/>
<text text-anchor="middle" x="1546.35" y="-86.3" font-family="Times,serif" font-size="14.00">gen8_read_report_clock_ratios</text>
</g>
<!-- print_reports&#45;&gt;gen8_read_report_clock_ratios -->
<g id="edge22" class="edge"><title>print_reports&#45;&gt;gen8_read_report_clock_ratios</title>
<path fill="none" stroke="black" d="M1404.28,-147.503C1430.51,-137.071 1467.2,-122.478 1496.73,-110.735"/>
<polygon fill="black" stroke="black" points="1498.04,-113.98 1506.04,-107.032 1495.45,-107.476 1498.04,-113.98"/>
</g>
<!-- gen8_40bit_a_delta -->
<g id="node21" class="node"><title>gen8_40bit_a_delta</title>
<ellipse fill="none" stroke="black" cx="1764.35" cy="-90" rx="79.8859" ry="18"/>
<text text-anchor="middle" x="1764.35" y="-86.3" font-family="Times,serif" font-size="14.00">gen8_40bit_a_delta</text>
</g>
<!-- print_reports&#45;&gt;gen8_40bit_a_delta -->
<g id="edge23" class="edge"><title>print_reports&#45;&gt;gen8_40bit_a_delta</title>
<path fill="none" stroke="black" d="M1418.73,-152.849C1478.91,-142.65 1584.8,-124.513 1675.35,-108 1681.9,-106.805 1688.71,-105.541 1695.53,-104.263"/>
<polygon fill="black" stroke="black" points="1696.31,-107.678 1705.49,-102.386 1695.01,-100.799 1696.31,-107.678"/>
</g>
<!-- gen8_read_40bit_a_counter -->
<g id="node22" class="node"><title>gen8_read_40bit_a_counter</title>
<ellipse fill="none" stroke="black" cx="1043.35" cy="-90" rx="108.581" ry="18"/>
<text text-anchor="middle" x="1043.35" y="-86.3" font-family="Times,serif" font-size="14.00">gen8_read_40bit_a_counter</text>
</g>
<!-- print_reports&#45;&gt;gen8_read_40bit_a_counter -->
<g id="edge24" class="edge"><title>print_reports&#45;&gt;gen8_read_40bit_a_counter</title>
<path fill="none" stroke="black" d="M1325.22,-151.34C1271.5,-139.841 1181.04,-120.477 1117.11,-106.79"/>
<polygon fill="black" stroke="black" points="1117.6,-103.315 1107.08,-104.644 1116.13,-110.16 1117.6,-103.315"/>
</g>
<!-- hsw_read_report_ticks -->
<g id="node13" class="node"><title>hsw_read_report_ticks</title>
<ellipse fill="none" stroke="black" cx="825.347" cy="-90" rx="90.9839" ry="18"/>
<text text-anchor="middle" x="825.347" y="-86.3" font-family="Times,serif" font-size="14.00">hsw_read_report_ticks</text>
</g>
<!-- hsw_read_report_ticks&#45;&gt;get_oa_format -->
<g id="edge14" class="edge"><title>hsw_read_report_ticks&#45;&gt;get_oa_format</title>
<path fill="none" stroke="black" d="M871.047,-74.3257C906.92,-62.8068 956.792,-46.7929 993.653,-34.9566"/>
<polygon fill="black" stroke="black" points="994.753,-38.2795 1003.2,-31.8897 992.613,-31.6146 994.753,-38.2795"/>
</g>
<!-- measure_overheads -->
<g id="node15" class="node"><title>measure_overheads</title>
<ellipse fill="none" stroke="black" cx="256.347" cy="-234" rx="80.6858" ry="18"/>
<text text-anchor="middle" x="256.347" y="-230.3" font-family="Times,serif" font-size="14.00">measure_overheads</text>
</g>
<!-- measure_overheads&#45;&gt;read_tsc_start -->
<g id="edge16" class="edge"><title>measure_overheads&#45;&gt;read_tsc_start</title>
<path fill="none" stroke="black" d="M269.418,-216.055C275.919,-207.629 283.902,-197.28 291.087,-187.966"/>
<polygon fill="black" stroke="black" points="294.058,-189.845 297.395,-179.789 288.516,-185.569 294.058,-189.845"/>
</g>
<!-- measure_overheads&#45;&gt;median -->
<g id="edge17" class="edge"><title>measure_overheads&#45;&gt;median</title>
<path fill="none" stroke="black" d="M324.006,-224.195C383.878,-215.593 473.296,-200.759 549.347,-180 552.119,-179.243 554.959,-178.391 557.802,-177.481"/>
<polygon fill="black" stroke="black" points="559.042,-180.756 567.381,-174.22 556.787,-174.129 559.042,-180.756"/>
</g>
<!-- measure_overheads&#45;&gt;read_tsc_end -->
<g id="edge18" class="edge"><title>measure_overheads&#45;&gt;read_tsc_end</title>
<path fill="none" stroke="black" d="M301.738,-219.003C340.145,-207.159 395.062,-190.224 434.436,-178.083"/>
<polygon fill="black" stroke="black" points="435.567,-181.396 444.092,-175.105 433.504,-174.707 435.567,-181.396"/>
</g>
<!-- umin -->
<g id="node16" class="node"><title>umin</title>
<ellipse fill="none" stroke="black" cx="203.347" cy="-162" rx="29.4969" ry="18"/>
<text text-anchor="middle" x="203.347" y="-158.3" font-family="Times,serif" font-size="14.00">umin</text>
</g>
<!-- measure_overheads&#45;&gt;umin -->
<g id="edge15" class="edge"><title>measure_overheads&#45;&gt;umin</title>
<path fill="none" stroke="black" d="M243.517,-216.055C236.882,-207.292 228.673,-196.451 221.409,-186.856"/>
<polygon fill="black" stroke="black" points="224.159,-184.689 215.332,-178.829 218.578,-188.915 224.159,-184.689"/>
</g>
<!-- average -->
<g id="node17" class="node"><title>average</title>
<ellipse fill="none" stroke="black" cx="38.3466" cy="-162" rx="38.1938" ry="18"/>
<text text-anchor="middle" x="38.3466" y="-158.3" font-family="Times,serif" font-size="14.00">average</text>
</g>
<!-- measure_overheads&#45;&gt;average -->
<g id="edge19" class="edge"><title>measure_overheads&#45;&gt;average</title>
<path fill="none" stroke="black" d="M209.71,-219.184C175.224,-208.814 127.188,-194.043 85.3466,-180 82.6474,-179.094 79.868,-178.141 77.0733,-177.168"/>
<polygon fill="black" stroke="black" points="78.2016,-173.855 67.6068,-173.821 75.8683,-180.454 78.2016,-173.855"/>
</g>
<!-- umax -->
<g id="node18" class="node"><title>umax</title>
<ellipse fill="none" stroke="black" cx="125.347" cy="-162" rx="30.5947" ry="18"/>
<text text-anchor="middle" x="125.347" y="-158.3" font-family="Times,serif" font-size="14.00">umax</text>
</g>
<!-- measure_overheads&#45;&gt;umax -->
<g id="edge20" class="edge"><title>measure_overheads&#45;&gt;umax</title>
<path fill="none" stroke="black" d="M226.621,-217.116C205.578,-205.872 177.43,-190.831 156.15,-179.46"/>
<polygon fill="black" stroke="black" points="157.669,-176.303 147.199,-174.677 154.37,-182.477 157.669,-176.303"/>
</g>
<!-- gen8_read_40bit_a_counter&#45;&gt;get_oa_format -->
<g id="edge49" class="edge"><title>gen8_read_40bit_a_counter&#45;&gt;get_oa_format</title>
<path fill="none" stroke="black" d="M1043.35,-71.6966C1043.35,-63.9827 1043.35,-54.7125 1043.35,-46.1124"/>
<polygon fill="black" stroke="black" points="1046.85,-46.1043 1043.35,-36.1043 1039.85,-46.1044 1046.85,-46.1043"/>
</g>
<!-- max_oa_exponent_for_period_lte -->
<g id="node23" class="node"><title>max_oa_exponent_for_period_lte</title>
<ellipse fill="none" stroke="black" cx="1613.35" cy="-162" rx="129.977" ry="18"/>
<text text-anchor="middle" x="1613.35" y="-158.3" font-family="Times,serif" font-size="14.00">max_oa_exponent_for_period_lte</text>
</g>
<!-- timebase_scale -->
<g id="node24" class="node"><title>timebase_scale</title>
<ellipse fill="none" stroke="black" cx="1926.35" cy="-90" rx="64.189" ry="18"/>
<text text-anchor="middle" x="1926.35" y="-86.3" font-family="Times,serif" font-size="14.00">timebase_scale</text>
</g>
<!-- max_oa_exponent_for_period_lte&#45;&gt;timebase_scale -->
<g id="edge26" class="edge"><title>max_oa_exponent_for_period_lte&#45;&gt;timebase_scale</title>
<path fill="none" stroke="black" d="M1679.86,-146.525C1728.06,-135.984 1794.78,-121.287 1853.35,-108 1858.37,-106.86 1863.59,-105.665 1868.82,-104.461"/>
<polygon fill="black" stroke="black" points="1869.9,-107.805 1878.85,-102.144 1868.32,-100.985 1869.9,-107.805"/>
</g>
<!-- intel_batchbuffer_space -->
<g id="node28" class="node"><title>intel_batchbuffer_space</title>
<ellipse fill="none" stroke="black" cx="2262.35" cy="-18" rx="94.7833" ry="18"/>
<text text-anchor="middle" x="2262.35" y="-14.3" font-family="Times,serif" font-size="14.00">intel_batchbuffer_space</text>
</g>
<!-- intel_batchbuffer_emit_dword&#45;&gt;intel_batchbuffer_space -->
<g id="edge32" class="edge"><title>intel_batchbuffer_emit_dword&#45;&gt;intel_batchbuffer_space</title>
<path fill="none" stroke="black" d="M2361.87,-72.5881C2343.86,-62.89 2320.86,-50.5096 2301.52,-40.0923"/>
<polygon fill="black" stroke="black" points="2303.1,-36.9685 2292.63,-35.3091 2299.78,-43.1318 2303.1,-36.9685"/>
</g>
<!-- intel_batchbuffer_require_space&#45;&gt;intel_batchbuffer_space -->
<g id="edge43" class="edge"><title>intel_batchbuffer_require_space&#45;&gt;intel_batchbuffer_space</title>
<path fill="none" stroke="black" d="M2163.15,-72.411C2181.17,-62.7082 2204.09,-50.3664 2223.36,-39.9915"/>
<polygon fill="black" stroke="black" points="2225.06,-43.0512 2232.21,-35.2285 2221.74,-36.8879 2225.06,-43.0512"/>
</g>
<!-- emit_stall_timestamp_and_rpc -->
<g id="node27" class="node"><title>emit_stall_timestamp_and_rpc</title>
<ellipse fill="none" stroke="black" cx="1962.35" cy="-234" rx="120.479" ry="18"/>
<text text-anchor="middle" x="1962.35" y="-230.3" font-family="Times,serif" font-size="14.00">emit_stall_timestamp_and_rpc</text>
</g>
<!-- emit_stall_timestamp_and_rpc&#45;&gt;emit_report_perf_count -->
<g id="edge31" class="edge"><title>emit_stall_timestamp_and_rpc&#45;&gt;emit_report_perf_count</title>
<path fill="none" stroke="black" d="M1962.35,-215.697C1962.35,-207.983 1962.35,-198.712 1962.35,-190.112"/>
<polygon fill="black" stroke="black" points="1965.85,-190.104 1962.35,-180.104 1958.85,-190.104 1965.85,-190.104"/>
</g>
<!-- emit_stall_timestamp_and_rpc&#45;&gt;intel_batchbuffer_emit_dword -->
<g id="edge30" class="edge"><title>emit_stall_timestamp_and_rpc&#45;&gt;intel_batchbuffer_emit_dword</title>
<path fill="none" stroke="black" d="M2079.43,-229.704C2229.71,-224.242 2474.51,-210.706 2502.35,-180 2513.09,-168.147 2510.86,-157.548 2502.35,-144 2492.69,-128.627 2477.18,-117.609 2460.82,-109.751"/>
<polygon fill="black" stroke="black" points="2462.24,-106.55 2451.68,-105.704 2459.4,-112.951 2462.24,-106.55"/>
</g>
<!-- emit_stall_timestamp_and_rpc&#45;&gt;intel_batchbuffer_require_space -->
<g id="edge29" class="edge"><title>emit_stall_timestamp_and_rpc&#45;&gt;intel_batchbuffer_require_space</title>
<path fill="none" stroke="black" d="M1906.99,-217.906C1888.22,-209.853 1869.25,-197.797 1858.35,-180 1849.99,-166.357 1848.16,-156.341 1858.35,-144 1869.72,-130.214 1959.02,-114.711 2032.63,-104.052"/>
<polygon fill="black" stroke="black" points="2033.5,-107.463 2042.9,-102.581 2032.51,-100.534 2033.5,-107.463"/>
</g>
<!-- max_oa_exponent_for_freq_gt -->
<g id="node29" class="node"><title>max_oa_exponent_for_freq_gt</title>
<ellipse fill="none" stroke="black" cx="1613.35" cy="-234" rx="120.479" ry="18"/>
<text text-anchor="middle" x="1613.35" y="-230.3" font-family="Times,serif" font-size="14.00">max_oa_exponent_for_freq_gt</text>
</g>
<!-- max_oa_exponent_for_freq_gt&#45;&gt;max_oa_exponent_for_period_lte -->
<g id="edge33" class="edge"><title>max_oa_exponent_for_freq_gt&#45;&gt;max_oa_exponent_for_period_lte</title>
<path fill="none" stroke="black" d="M1613.35,-215.697C1613.35,-207.983 1613.35,-198.712 1613.35,-190.112"/>
<polygon fill="black" stroke="black" points="1616.85,-190.104 1613.35,-180.104 1609.85,-190.104 1616.85,-190.104"/>
</g>
<!-- init_sys_info -->
<g id="node30" class="node"><title>init_sys_info</title>
<ellipse fill="none" stroke="black" cx="1246.35" cy="-234" rx="56.59" ry="18"/>
<text text-anchor="middle" x="1246.35" y="-230.3" font-family="Times,serif" font-size="14.00">init_sys_info</text>
</g>
<!-- init_sys_info&#45;&gt;read_u64_file -->
<g id="edge35" class="edge"><title>init_sys_info&#45;&gt;read_u64_file</title>
<path fill="none" stroke="black" d="M1212.03,-219.503C1183.77,-208.39 1143.5,-192.554 1112.78,-180.474"/>
<polygon fill="black" stroke="black" points="1113.76,-177.097 1103.17,-176.694 1111.19,-183.611 1113.76,-177.097"/>
</g>
<!-- init_sys_info&#45;&gt;max_oa_exponent_for_period_lte -->
<g id="edge34" class="edge"><title>init_sys_info&#45;&gt;max_oa_exponent_for_period_lte</title>
<path fill="none" stroke="black" d="M1293.57,-223.992C1353.3,-212.601 1457.14,-192.795 1530.25,-178.849"/>
<polygon fill="black" stroke="black" points="1531.19,-182.233 1540.36,-176.922 1529.88,-175.357 1531.19,-182.233"/>
</g>
<!-- read_counters_mmio -->
<g id="node31" class="node"><title>read_counters_mmio</title>
<ellipse fill="none" stroke="black" cx="660.347" cy="-234" rx="85.5853" ry="18"/>
<text text-anchor="middle" x="660.347" y="-230.3" font-family="Times,serif" font-size="14.00">read_counters_mmio</text>
</g>
<!-- read_counters_mmio&#45;&gt;read_tsc_start -->
<g id="edge40" class="edge"><title>read_counters_mmio&#45;&gt;read_tsc_start</title>
<path fill="none" stroke="black" d="M597.737,-221.643C541.711,-211.322 457.393,-195.399 384.347,-180 378.48,-178.763 372.362,-177.429 366.267,-176.072"/>
<polygon fill="black" stroke="black" points="366.605,-172.56 356.08,-173.778 365.067,-179.389 366.605,-172.56"/>
</g>
<!-- read_counters_mmio&#45;&gt;__perf_close -->
<g id="edge41" class="edge"><title>read_counters_mmio&#45;&gt;__perf_close</title>
<path fill="none" stroke="black" d="M660.347,-215.871C660.347,-191.67 660.347,-147.211 660.347,-118.393"/>
<polygon fill="black" stroke="black" points="663.847,-118.189 660.347,-108.189 656.847,-118.189 663.847,-118.189"/>
</g>
<!-- read_counters_mmio&#45;&gt;read_u64_file -->
<g id="edge42" class="edge"><title>read_counters_mmio&#45;&gt;read_u64_file</title>
<path fill="none" stroke="black" d="M731.108,-223.754C799.907,-214.337 907.218,-198.515 999.347,-180 1004.36,-178.993 1009.56,-177.866 1014.75,-176.685"/>
<polygon fill="black" stroke="black" points="1015.73,-180.049 1024.67,-174.364 1014.14,-173.233 1015.73,-180.049"/>
</g>
<!-- read_counters_mmio&#45;&gt;scratch_buf_init -->
<g id="edge39" class="edge"><title>read_counters_mmio&#45;&gt;scratch_buf_init</title>
<path fill="none" stroke="black" d="M683.097,-216.411C695.862,-207.103 711.957,-195.367 725.807,-185.268"/>
<polygon fill="black" stroke="black" points="728.072,-187.948 734.09,-179.228 723.948,-182.292 728.072,-187.948"/>
</g>
<!-- read_counters_mmio&#45;&gt;__perf_open -->
<g id="edge38" class="edge"><title>read_counters_mmio&#45;&gt;__perf_open</title>
<path fill="none" stroke="black" d="M712.719,-219.669C761.706,-207.199 834.458,-188.681 883.329,-176.241"/>
<polygon fill="black" stroke="black" points="884.247,-179.619 893.074,-173.76 882.52,-172.835 884.247,-179.619"/>
</g>
<!-- read_counters_mmio&#45;&gt;scratch_buf_memset -->
<g id="edge36" class="edge"><title>read_counters_mmio&#45;&gt;scratch_buf_memset</title>
<path fill="none" stroke="black" d="M582.187,-226.45C519.201,-219.359 437.863,-205.474 417.347,-180 407.31,-167.539 409.583,-157.99 417.347,-144 425.238,-129.78 438.706,-118.877 452.624,-110.764"/>
<polygon fill="black" stroke="black" points="454.639,-113.655 461.781,-105.83 451.318,-107.493 454.639,-113.655"/>
</g>
<!-- read_counters_mmio&#45;&gt;read_tsc_end -->
<g id="edge37" class="edge"><title>read_counters_mmio&#45;&gt;read_tsc_end</title>
<path fill="none" stroke="black" d="M621.94,-217.811C593.988,-206.756 556.094,-191.77 526.995,-180.262"/>
<polygon fill="black" stroke="black" points="528.077,-176.926 517.49,-176.503 525.502,-183.436 528.077,-176.926"/>
</g>
<!-- send_mi_store_reg_mem -->
<g id="node32" class="node"><title>send_mi_store_reg_mem</title>
<ellipse fill="none" stroke="black" cx="2392.35" cy="-162" rx="100.983" ry="18"/>
<text text-anchor="middle" x="2392.35" y="-158.3" font-family="Times,serif" font-size="14.00">send_mi_store_reg_mem</text>
</g>
<!-- send_mi_store_reg_mem&#45;&gt;intel_batchbuffer_emit_dword -->
<g id="edge45" class="edge"><title>send_mi_store_reg_mem&#45;&gt;intel_batchbuffer_emit_dword</title>
<path fill="none" stroke="black" d="M2392.35,-143.697C2392.35,-135.983 2392.35,-126.712 2392.35,-118.112"/>
<polygon fill="black" stroke="black" points="2395.85,-118.104 2392.35,-108.104 2388.85,-118.104 2395.85,-118.104"/>
</g>
<!-- send_mi_store_reg_mem&#45;&gt;intel_batchbuffer_require_space -->
<g id="edge44" class="edge"><title>send_mi_store_reg_mem&#45;&gt;intel_batchbuffer_require_space</title>
<path fill="none" stroke="black" d="M2339.1,-146.666C2298.36,-135.696 2241.94,-120.506 2198.33,-108.764"/>
<polygon fill="black" stroke="black" points="2199.23,-105.383 2188.67,-106.163 2197.41,-112.142 2199.23,-105.383"/>
</g>
<!-- i915_perf_add_config -->
<g id="node33" class="node"><title>i915_perf_add_config</title>
<ellipse fill="none" stroke="black" cx="2646.35" cy="-234" rx="89.0842" ry="18"/>
<text text-anchor="middle" x="2646.35" y="-230.3" font-family="Times,serif" font-size="14.00">i915_perf_add_config</text>
</g>
<!-- __i915_perf_add_config -->
<g id="node34" class="node"><title>__i915_perf_add_config</title>
<ellipse fill="none" stroke="black" cx="2646.35" cy="-162" rx="97.4827" ry="18"/>
<text text-anchor="middle" x="2646.35" y="-158.3" font-family="Times,serif" font-size="14.00">__i915_perf_add_config</text>
</g>
<!-- i915_perf_add_config&#45;&gt;__i915_perf_add_config -->
<g id="edge46" class="edge"><title>i915_perf_add_config&#45;&gt;__i915_perf_add_config</title>
<path fill="none" stroke="black" d="M2646.35,-215.697C2646.35,-207.983 2646.35,-198.712 2646.35,-190.112"/>
<polygon fill="black" stroke="black" points="2649.85,-190.104 2646.35,-180.104 2642.85,-190.104 2649.85,-190.104"/>
</g>
<!-- send_mi_load_reg_mem -->
<g id="node35" class="node"><title>send_mi_load_reg_mem</title>
<ellipse fill="none" stroke="black" cx="2174.35" cy="-162" rx="98.5829" ry="18"/>
<text text-anchor="middle" x="2174.35" y="-158.3" font-family="Times,serif" font-size="14.00">send_mi_load_reg_mem</text>
</g>
<!-- send_mi_load_reg_mem&#45;&gt;intel_batchbuffer_emit_dword -->
<g id="edge47" class="edge"><title>send_mi_load_reg_mem&#45;&gt;intel_batchbuffer_emit_dword</title>
<path fill="none" stroke="black" d="M2220.85,-146.069C2253.99,-135.425 2298.79,-121.042 2334.28,-109.644"/>
<polygon fill="black" stroke="black" points="2335.58,-112.904 2344.03,-106.514 2333.44,-106.239 2335.58,-112.904"/>
</g>
<!-- send_mi_load_reg_mem&#45;&gt;intel_batchbuffer_require_space -->
<g id="edge48" class="edge"><title>send_mi_load_reg_mem&#45;&gt;intel_batchbuffer_require_space</title>
<path fill="none" stroke="black" d="M2164.18,-144.055C2159.3,-135.922 2153.35,-125.998 2147.91,-116.943"/>
<polygon fill="black" stroke="black" points="2150.86,-115.049 2142.71,-108.275 2144.86,-118.651 2150.86,-115.049"/>
</g>
<!-- oa_report_is_periodic -->
<g id="node36" class="node"><title>oa_report_is_periodic</title>
<ellipse fill="none" stroke="black" cx="2841.35" cy="-234" rx="87.9851" ry="18"/>
<text text-anchor="middle" x="2841.35" y="-230.3" font-family="Times,serif" font-size="14.00">oa_report_is_periodic</text>
</g>
<!-- write_u64_file -->
<g id="node37" class="node"><title>write_u64_file</title>
<ellipse fill="none" stroke="black" cx="3009.35" cy="-234" rx="62.2891" ry="18"/>
<text text-anchor="middle" x="3009.35" y="-230.3" font-family="Times,serif" font-size="14.00">write_u64_file</text>
</g>
<!-- read_i915_module_ref -->
<g id="node38" class="node"><title>read_i915_module_ref</title>
<ellipse fill="none" stroke="black" cx="3180.35" cy="-234" rx="90.9839" ry="18"/>
<text text-anchor="middle" x="3180.35" y="-230.3" font-family="Times,serif" font-size="14.00">read_i915_module_ref</text>
</g>
<!-- i915_perf_remove_config -->
<g id="node39" class="node"><title>i915_perf_remove_config</title>
<ellipse fill="none" stroke="black" cx="3392.35" cy="-234" rx="102.882" ry="18"/>
<text text-anchor="middle" x="3392.35" y="-230.3" font-family="Times,serif" font-size="14.00">i915_perf_remove_config</text>
</g>
<!-- fmedian -->
<g id="node40" class="node"><title>fmedian</title>
<ellipse fill="none" stroke="black" cx="3553.35" cy="-234" rx="40.0939" ry="18"/>
<text text-anchor="middle" x="3553.35" y="-230.3" font-family="Times,serif" font-size="14.00">fmedian</text>
</g>
<!-- gen8_read_report_ticks -->
<g id="node41" class="node"><title>gen8_read_report_ticks</title>
<ellipse fill="none" stroke="black" cx="3705.35" cy="-234" rx="93.6835" ry="18"/>
<text text-anchor="middle" x="3705.35" y="-230.3" font-family="Times,serif" font-size="14.00">gen8_read_report_ticks</text>
</g>
<!-- oa_exponent_to_ns -->
<g id="node42" class="node"><title>oa_exponent_to_ns</title>
<ellipse fill="none" stroke="black" cx="3896.35" cy="-234" rx="79.0865" ry="18"/>
<text text-anchor="middle" x="3896.35" y="-230.3" font-family="Times,serif" font-size="14.00">oa_exponent_to_ns</text>
</g>
<!-- create_filtering_word -->
<g id="node43" class="node"><title>create_filtering_word</title>
<ellipse fill="none" stroke="black" cx="4080.35" cy="-234" rx="87.1846" ry="18"/>
<text text-anchor="middle" x="4080.35" y="-230.3" font-family="Times,serif" font-size="14.00">create_filtering_word</text>
</g>
<!-- print_binary -->
<g id="node44" class="node"><title>print_binary</title>
<ellipse fill="none" stroke="black" cx="4239.35" cy="-234" rx="53.8905" ry="18"/>
<text text-anchor="middle" x="4239.35" y="-230.3" font-family="Times,serif" font-size="14.00">print_binary</text>
</g>
<!-- print_report_card -->
<g id="node45" class="node"><title>print_report_card</title>
<ellipse fill="none" stroke="black" cx="4383.35" cy="-234" rx="72.2875" ry="18"/>
<text text-anchor="middle" x="4383.35" y="-230.3" font-family="Times,serif" font-size="14.00">print_report_card</text>
</g>
<!-- profile_through_opencl -->
<g id="node46" class="node"><title>profile_through_opencl</title>
<ellipse fill="none" stroke="black" cx="4567.35" cy="-234" rx="93.6835" ry="18"/>
<text text-anchor="middle" x="4567.35" y="-230.3" font-family="Times,serif" font-size="14.00">profile_through_opencl</text>
</g>
</g>
</svg>
