<?xml version="1.0" encoding="UTF-8" standalone="no"?>
<!DOCTYPE svg PUBLIC "-//W3C//DTD SVG 1.1//EN"
 "http://www.w3.org/Graphics/SVG/1.1/DTD/svg11.dtd">
<!-- Generated by graphviz version 2.38.0 (20140413.2041)
 -->
<!-- Title: callgraph Pages: 1 -->
<svg width="4718pt" height="260pt"
 viewBox="0.00 0.00 4717.68 260.00" xmlns="http://www.w3.org/2000/svg" xmlns:xlink="http://www.w3.org/1999/xlink">
<g id="graph0" class="graph" transform="scale(1 1) rotate(0) translate(4 256)">
<title>callgraph</title>
<polygon fill="white" stroke="none" points="-4,4 -4,-256 4713.68,-256 4713.68,4 -4,4"/>
<!-- max_oa_exponent_for_period_lte -->
<g id="node1" class="node"><title>max_oa_exponent_for_period_lte</title>
<ellipse fill="none" stroke="black" cx="129.988" cy="-162" rx="129.977" ry="18"/>
<text text-anchor="middle" x="129.988" y="-158.3" font-family="Times,serif" font-size="14.00">max_oa_exponent_for_period_lte</text>
</g>
<!-- timebase_scale -->
<g id="node2" class="node"><title>timebase_scale</title>
<ellipse fill="none" stroke="black" cx="129.988" cy="-90" rx="64.189" ry="18"/>
<text text-anchor="middle" x="129.988" y="-86.3" font-family="Times,serif" font-size="14.00">timebase_scale</text>
</g>
<!-- max_oa_exponent_for_period_lte&#45;&gt;timebase_scale -->
<g id="edge1" class="edge"><title>max_oa_exponent_for_period_lte&#45;&gt;timebase_scale</title>
<path fill="none" stroke="black" d="M129.988,-143.697C129.988,-135.983 129.988,-126.712 129.988,-118.112"/>
<polygon fill="black" stroke="black" points="133.489,-118.104 129.988,-108.104 126.489,-118.104 133.489,-118.104"/>
</g>
<!-- intel_batchbuffer_require_space -->
<g id="node3" class="node"><title>intel_batchbuffer_require_space</title>
<ellipse fill="none" stroke="black" cx="2229.99" cy="-90" rx="124.278" ry="18"/>
<text text-anchor="middle" x="2229.99" y="-86.3" font-family="Times,serif" font-size="14.00">intel_batchbuffer_require_space</text>
</g>
<!-- intel_batchbuffer_space -->
<g id="node4" class="node"><title>intel_batchbuffer_space</title>
<ellipse fill="none" stroke="black" cx="2099.99" cy="-18" rx="94.7833" ry="18"/>
<text text-anchor="middle" x="2099.99" y="-14.3" font-family="Times,serif" font-size="14.00">intel_batchbuffer_space</text>
</g>
<!-- intel_batchbuffer_require_space&#45;&gt;intel_batchbuffer_space -->
<g id="edge2" class="edge"><title>intel_batchbuffer_require_space&#45;&gt;intel_batchbuffer_space</title>
<path fill="none" stroke="black" d="M2199.18,-72.411C2181.16,-62.7082 2158.24,-50.3664 2138.97,-39.9915"/>
<polygon fill="black" stroke="black" points="2140.59,-36.8879 2130.13,-35.2285 2137.27,-43.0512 2140.59,-36.8879"/>
</g>
<!-- scratch_buf_init -->
<g id="node5" class="node"><title>scratch_buf_init</title>
<ellipse fill="none" stroke="black" cx="520.988" cy="-162" rx="67.6881" ry="18"/>
<text text-anchor="middle" x="520.988" y="-158.3" font-family="Times,serif" font-size="14.00">scratch_buf_init</text>
</g>
<!-- scratch_buf_memset -->
<g id="node6" class="node"><title>scratch_buf_memset</title>
<ellipse fill="none" stroke="black" cx="493.988" cy="-90" rx="84.485" ry="18"/>
<text text-anchor="middle" x="493.988" y="-86.3" font-family="Times,serif" font-size="14.00">scratch_buf_memset</text>
</g>
<!-- scratch_buf_init&#45;&gt;scratch_buf_memset -->
<g id="edge3" class="edge"><title>scratch_buf_init&#45;&gt;scratch_buf_memset</title>
<path fill="none" stroke="black" d="M514.453,-144.055C511.414,-136.176 507.726,-126.617 504.323,-117.794"/>
<polygon fill="black" stroke="black" points="507.516,-116.346 500.652,-108.275 500.985,-118.865 507.516,-116.346"/>
</g>
<!-- max_oa_exponent_for_freq_gt -->
<g id="node7" class="node"><title>max_oa_exponent_for_freq_gt</title>
<ellipse fill="none" stroke="black" cx="129.988" cy="-234" rx="120.479" ry="18"/>
<text text-anchor="middle" x="129.988" y="-230.3" font-family="Times,serif" font-size="14.00">max_oa_exponent_for_freq_gt</text>
</g>
<!-- max_oa_exponent_for_freq_gt&#45;&gt;max_oa_exponent_for_period_lte -->
<g id="edge4" class="edge"><title>max_oa_exponent_for_freq_gt&#45;&gt;max_oa_exponent_for_period_lte</title>
<path fill="none" stroke="black" d="M129.988,-215.697C129.988,-207.983 129.988,-198.712 129.988,-190.112"/>
<polygon fill="black" stroke="black" points="133.489,-190.104 129.988,-180.104 126.489,-190.104 133.489,-190.104"/>
</g>
<!-- print_reports -->
<g id="node8" class="node"><title>print_reports</title>
<ellipse fill="none" stroke="black" cx="1275.99" cy="-162" rx="55.7903" ry="18"/>
<text text-anchor="middle" x="1275.99" y="-158.3" font-family="Times,serif" font-size="14.00">print_reports</text>
</g>
<!-- gen8_read_report_reason -->
<g id="node9" class="node"><title>gen8_read_report_reason</title>
<ellipse fill="none" stroke="black" cx="1275.99" cy="-90" rx="100.182" ry="18"/>
<text text-anchor="middle" x="1275.99" y="-86.3" font-family="Times,serif" font-size="14.00">gen8_read_report_reason</text>
</g>
<!-- print_reports&#45;&gt;gen8_read_report_reason -->
<g id="edge5" class="edge"><title>print_reports&#45;&gt;gen8_read_report_reason</title>
<path fill="none" stroke="black" d="M1275.99,-143.697C1275.99,-135.983 1275.99,-126.712 1275.99,-118.112"/>
<polygon fill="black" stroke="black" points="1279.49,-118.104 1275.99,-108.104 1272.49,-118.104 1279.49,-118.104"/>
</g>
<!-- gen8_read_report_clock_ratios -->
<g id="node10" class="node"><title>gen8_read_report_clock_ratios</title>
<ellipse fill="none" stroke="black" cx="1513.99" cy="-90" rx="120.479" ry="18"/>
<text text-anchor="middle" x="1513.99" y="-86.3" font-family="Times,serif" font-size="14.00">gen8_read_report_clock_ratios</text>
</g>
<!-- print_reports&#45;&gt;gen8_read_report_clock_ratios -->
<g id="edge6" class="edge"><title>print_reports&#45;&gt;gen8_read_report_clock_ratios</title>
<path fill="none" stroke="black" d="M1315.82,-149.284C1353.02,-138.343 1409.11,-121.847 1452.13,-109.194"/>
<polygon fill="black" stroke="black" points="1453.32,-112.491 1461.93,-106.311 1451.35,-105.775 1453.32,-112.491"/>
</g>
<!-- get_oa_format -->
<g id="node11" class="node"><title>get_oa_format</title>
<ellipse fill="none" stroke="black" cx="1147.99" cy="-18" rx="62.2891" ry="18"/>
<text text-anchor="middle" x="1147.99" y="-14.3" font-family="Times,serif" font-size="14.00">get_oa_format</text>
</g>
<!-- print_reports&#45;&gt;get_oa_format -->
<g id="edge7" class="edge"><title>print_reports&#45;&gt;get_oa_format</title>
<path fill="none" stroke="black" d="M1233.4,-150.218C1210.42,-142.249 1183.46,-129.041 1166.99,-108 1153.33,-90.5524 1148.93,-65.5086 1147.75,-46.4291"/>
<polygon fill="black" stroke="black" points="1151.24,-46.1257 1147.38,-36.2586 1144.25,-46.3785 1151.24,-46.1257"/>
</g>
<!-- gen8_40bit_a_delta -->
<g id="node12" class="node"><title>gen8_40bit_a_delta</title>
<ellipse fill="none" stroke="black" cx="1039.99" cy="-90" rx="79.8859" ry="18"/>
<text text-anchor="middle" x="1039.99" y="-86.3" font-family="Times,serif" font-size="14.00">gen8_40bit_a_delta</text>
</g>
<!-- print_reports&#45;&gt;gen8_40bit_a_delta -->
<g id="edge8" class="edge"><title>print_reports&#45;&gt;gen8_40bit_a_delta</title>
<path fill="none" stroke="black" d="M1236.22,-149.205C1197.83,-137.818 1139.34,-120.468 1096.19,-107.671"/>
<polygon fill="black" stroke="black" points="1096.99,-104.257 1086.41,-104.769 1095,-110.968 1096.99,-104.257"/>
</g>
<!-- gen8_read_40bit_a_counter -->
<g id="node13" class="node"><title>gen8_read_40bit_a_counter</title>
<ellipse fill="none" stroke="black" cx="833.988" cy="-90" rx="108.581" ry="18"/>
<text text-anchor="middle" x="833.988" y="-86.3" font-family="Times,serif" font-size="14.00">gen8_read_40bit_a_counter</text>
</g>
<!-- print_reports&#45;&gt;gen8_read_40bit_a_counter -->
<g id="edge9" class="edge"><title>print_reports&#45;&gt;gen8_read_40bit_a_counter</title>
<path fill="none" stroke="black" d="M1235.54,-149.453C1227.76,-147.462 1219.65,-145.54 1211.99,-144 1097.19,-120.926 1066.93,-124.419 950.988,-108 941.712,-106.686 932.024,-105.301 922.366,-103.91"/>
<polygon fill="black" stroke="black" points="922.729,-100.427 912.331,-102.463 921.729,-107.355 922.729,-100.427"/>
</g>
<!-- gen8_read_40bit_a_counter&#45;&gt;get_oa_format -->
<g id="edge45" class="edge"><title>gen8_read_40bit_a_counter&#45;&gt;get_oa_format</title>
<path fill="none" stroke="black" d="M896.025,-75.1703C952.391,-62.6046 1034.91,-44.2075 1089.99,-31.9303"/>
<polygon fill="black" stroke="black" points="1090.94,-35.304 1099.94,-29.7119 1089.42,-28.4717 1090.94,-35.304"/>
</g>
<!-- __perf_open -->
<g id="node14" class="node"><title>__perf_open</title>
<ellipse fill="none" stroke="black" cx="699.988" cy="-162" rx="55.4913" ry="18"/>
<text text-anchor="middle" x="699.988" y="-158.3" font-family="Times,serif" font-size="14.00">__perf_open</text>
</g>
<!-- __perf_close -->
<g id="node15" class="node"><title>__perf_close</title>
<ellipse fill="none" stroke="black" cx="651.988" cy="-90" rx="55.7903" ry="18"/>
<text text-anchor="middle" x="651.988" y="-86.3" font-family="Times,serif" font-size="14.00">__perf_close</text>
</g>
<!-- __perf_open&#45;&gt;__perf_close -->
<g id="edge10" class="edge"><title>__perf_open&#45;&gt;__perf_close</title>
<path fill="none" stroke="black" d="M688.369,-144.055C682.65,-135.715 675.639,-125.491 669.304,-116.252"/>
<polygon fill="black" stroke="black" points="672.043,-114.057 663.501,-107.789 666.27,-118.016 672.043,-114.057"/>
</g>
<!-- emit_report_perf_count -->
<g id="node16" class="node"><title>emit_report_perf_count</title>
<ellipse fill="none" stroke="black" cx="1881.99" cy="-162" rx="94.7833" ry="18"/>
<text text-anchor="middle" x="1881.99" y="-158.3" font-family="Times,serif" font-size="14.00">emit_report_perf_count</text>
</g>
<!-- emit_report_perf_count&#45;&gt;intel_batchbuffer_require_space -->
<g id="edge11" class="edge"><title>emit_report_perf_count&#45;&gt;intel_batchbuffer_require_space</title>
<path fill="none" stroke="black" d="M1944.61,-148.405C2002.28,-136.803 2088.12,-119.536 2150.59,-106.971"/>
<polygon fill="black" stroke="black" points="2151.29,-110.399 2160.41,-104.996 2149.91,-103.537 2151.29,-110.399"/>
</g>
<!-- intel_batchbuffer_emit_dword -->
<g id="node17" class="node"><title>intel_batchbuffer_emit_dword</title>
<ellipse fill="none" stroke="black" cx="1969.99" cy="-90" rx="118.079" ry="18"/>
<text text-anchor="middle" x="1969.99" y="-86.3" font-family="Times,serif" font-size="14.00">intel_batchbuffer_emit_dword</text>
</g>
<!-- emit_report_perf_count&#45;&gt;intel_batchbuffer_emit_dword -->
<g id="edge12" class="edge"><title>emit_report_perf_count&#45;&gt;intel_batchbuffer_emit_dword</title>
<path fill="none" stroke="black" d="M1902.84,-144.411C1914.18,-135.39 1928.39,-124.088 1940.81,-114.207"/>
<polygon fill="black" stroke="black" points="1943.02,-116.921 1948.67,-107.956 1938.67,-111.442 1943.02,-116.921"/>
</g>
<!-- intel_batchbuffer_emit_dword&#45;&gt;intel_batchbuffer_space -->
<g id="edge20" class="edge"><title>intel_batchbuffer_emit_dword&#45;&gt;intel_batchbuffer_space</title>
<path fill="none" stroke="black" d="M2000.47,-72.5881C2018.48,-62.89 2041.47,-50.5096 2060.82,-40.0923"/>
<polygon fill="black" stroke="black" points="2062.55,-43.1318 2069.7,-35.3091 2059.24,-36.9685 2062.55,-43.1318"/>
</g>
<!-- read_counters_mmio -->
<g id="node18" class="node"><title>read_counters_mmio</title>
<ellipse fill="none" stroke="black" cx="616.988" cy="-234" rx="85.5853" ry="18"/>
<text text-anchor="middle" x="616.988" y="-230.3" font-family="Times,serif" font-size="14.00">read_counters_mmio</text>
</g>
<!-- read_counters_mmio&#45;&gt;scratch_buf_init -->
<g id="edge18" class="edge"><title>read_counters_mmio&#45;&gt;scratch_buf_init</title>
<path fill="none" stroke="black" d="M594.238,-216.411C581.473,-207.103 565.378,-195.367 551.528,-185.268"/>
<polygon fill="black" stroke="black" points="553.387,-182.292 543.245,-179.228 549.263,-187.948 553.387,-182.292"/>
</g>
<!-- read_counters_mmio&#45;&gt;scratch_buf_memset -->
<g id="edge16" class="edge"><title>read_counters_mmio&#45;&gt;scratch_buf_memset</title>
<path fill="none" stroke="black" d="M541.752,-225.209C454.91,-215.444 322.017,-197.816 306.988,-180 270.99,-137.325 347.462,-113.676 413.208,-101.672"/>
<polygon fill="black" stroke="black" points="413.987,-105.089 423.232,-99.9146 412.778,-98.1943 413.987,-105.089"/>
</g>
<!-- read_counters_mmio&#45;&gt;__perf_open -->
<g id="edge19" class="edge"><title>read_counters_mmio&#45;&gt;__perf_open</title>
<path fill="none" stroke="black" d="M636.658,-216.411C647.564,-207.213 661.282,-195.644 673.159,-185.627"/>
<polygon fill="black" stroke="black" points="675.643,-188.111 681.031,-178.988 671.13,-182.76 675.643,-188.111"/>
</g>
<!-- read_counters_mmio&#45;&gt;__perf_close -->
<g id="edge13" class="edge"><title>read_counters_mmio&#45;&gt;__perf_close</title>
<path fill="none" stroke="black" d="M620.213,-215.84C623.698,-197.844 629.613,-168.788 635.988,-144 638.201,-135.397 640.902,-126.098 643.449,-117.726"/>
<polygon fill="black" stroke="black" points="646.82,-118.672 646.438,-108.085 640.134,-116.6 646.82,-118.672"/>
</g>
<!-- read_tsc_end -->
<g id="node19" class="node"><title>read_tsc_end</title>
<ellipse fill="none" stroke="black" cx="829.988" cy="-162" rx="57.3905" ry="18"/>
<text text-anchor="middle" x="829.988" y="-158.3" font-family="Times,serif" font-size="14.00">read_tsc_end</text>
</g>
<!-- read_counters_mmio&#45;&gt;read_tsc_end -->
<g id="edge14" class="edge"><title>read_counters_mmio&#45;&gt;read_tsc_end</title>
<path fill="none" stroke="black" d="M661.122,-218.496C696.43,-206.892 745.859,-190.648 782.117,-178.732"/>
<polygon fill="black" stroke="black" points="783.564,-181.941 791.972,-175.494 781.379,-175.291 783.564,-181.941"/>
</g>
<!-- read_u64_file -->
<g id="node20" class="node"><title>read_u64_file</title>
<ellipse fill="none" stroke="black" cx="375.988" cy="-162" rx="59.5901" ry="18"/>
<text text-anchor="middle" x="375.988" y="-158.3" font-family="Times,serif" font-size="14.00">read_u64_file</text>
</g>
<!-- read_counters_mmio&#45;&gt;read_u64_file -->
<g id="edge15" class="edge"><title>read_counters_mmio&#45;&gt;read_u64_file</title>
<path fill="none" stroke="black" d="M568.798,-219.003C527.85,-207.109 469.223,-190.081 427.385,-177.929"/>
<polygon fill="black" stroke="black" points="428.244,-174.533 417.664,-175.105 426.291,-181.256 428.244,-174.533"/>
</g>
<!-- read_tsc_start -->
<g id="node21" class="node"><title>read_tsc_start</title>
<ellipse fill="none" stroke="black" cx="1002.99" cy="-162" rx="59.5901" ry="18"/>
<text text-anchor="middle" x="1002.99" y="-158.3" font-family="Times,serif" font-size="14.00">read_tsc_start</text>
</g>
<!-- read_counters_mmio&#45;&gt;read_tsc_start -->
<g id="edge17" class="edge"><title>read_counters_mmio&#45;&gt;read_tsc_start</title>
<path fill="none" stroke="black" d="M679.865,-221.597C752.555,-208.415 871.342,-186.874 942.85,-173.906"/>
<polygon fill="black" stroke="black" points="943.831,-177.285 953.046,-172.057 942.582,-170.397 943.831,-177.285"/>
</g>
<!-- send_mi_store_reg_mem -->
<g id="node22" class="node"><title>send_mi_store_reg_mem</title>
<ellipse fill="none" stroke="black" cx="2095.99" cy="-162" rx="100.983" ry="18"/>
<text text-anchor="middle" x="2095.99" y="-158.3" font-family="Times,serif" font-size="14.00">send_mi_store_reg_mem</text>
</g>
<!-- send_mi_store_reg_mem&#45;&gt;intel_batchbuffer_require_space -->
<g id="edge21" class="edge"><title>send_mi_store_reg_mem&#45;&gt;intel_batchbuffer_require_space</title>
<path fill="none" stroke="black" d="M2127.07,-144.765C2145.57,-135.098 2169.27,-122.72 2189.26,-112.278"/>
<polygon fill="black" stroke="black" points="2190.9,-115.366 2198.15,-107.633 2187.66,-109.161 2190.9,-115.366"/>
</g>
<!-- send_mi_store_reg_mem&#45;&gt;intel_batchbuffer_emit_dword -->
<g id="edge22" class="edge"><title>send_mi_store_reg_mem&#45;&gt;intel_batchbuffer_emit_dword</title>
<path fill="none" stroke="black" d="M2066.76,-144.765C2049.52,-135.185 2027.49,-122.943 2008.8,-112.561"/>
<polygon fill="black" stroke="black" points="2010.37,-109.43 1999.93,-107.633 2006.97,-115.549 2010.37,-109.43"/>
</g>
<!-- i915_perf_add_config -->
<g id="node23" class="node"><title>i915_perf_add_config</title>
<ellipse fill="none" stroke="black" cx="2693.99" cy="-234" rx="89.0842" ry="18"/>
<text text-anchor="middle" x="2693.99" y="-230.3" font-family="Times,serif" font-size="14.00">i915_perf_add_config</text>
</g>
<!-- __i915_perf_add_config -->
<g id="node24" class="node"><title>__i915_perf_add_config</title>
<ellipse fill="none" stroke="black" cx="2693.99" cy="-162" rx="97.4827" ry="18"/>
<text text-anchor="middle" x="2693.99" y="-158.3" font-family="Times,serif" font-size="14.00">__i915_perf_add_config</text>
</g>
<!-- i915_perf_add_config&#45;&gt;__i915_perf_add_config -->
<g id="edge23" class="edge"><title>i915_perf_add_config&#45;&gt;__i915_perf_add_config</title>
<path fill="none" stroke="black" d="M2693.99,-215.697C2693.99,-207.983 2693.99,-198.712 2693.99,-190.112"/>
<polygon fill="black" stroke="black" points="2697.49,-190.104 2693.99,-180.104 2690.49,-190.104 2697.49,-190.104"/>
</g>
<!-- read_counters_rpc -->
<g id="node25" class="node"><title>read_counters_rpc</title>
<ellipse fill="none" stroke="black" cx="1002.99" cy="-234" rx="75.2868" ry="18"/>
<text text-anchor="middle" x="1002.99" y="-230.3" font-family="Times,serif" font-size="14.00">read_counters_rpc</text>
</g>
<!-- read_counters_rpc&#45;&gt;scratch_buf_init -->
<g id="edge27" class="edge"><title>read_counters_rpc&#45;&gt;scratch_buf_init</title>
<path fill="none" stroke="black" d="M939.987,-223.967C866.874,-213.469 742.686,-195.591 635.988,-180 620.671,-177.762 604.21,-175.339 588.664,-173.043"/>
<polygon fill="black" stroke="black" points="589.006,-169.555 578.602,-171.555 587.983,-176.48 589.006,-169.555"/>
</g>
<!-- read_counters_rpc&#45;&gt;scratch_buf_memset -->
<g id="edge30" class="edge"><title>read_counters_rpc&#45;&gt;scratch_buf_memset</title>
<path fill="none" stroke="black" d="M980.465,-216.621C966.753,-206.426 949.037,-192.849 933.988,-180 916.295,-164.894 917.065,-153.85 895.988,-144 770.73,-85.4617 723.731,-128.442 586.988,-108 579.652,-106.903 572.007,-105.664 564.392,-104.366"/>
<polygon fill="black" stroke="black" points="564.877,-100.899 554.426,-102.635 563.679,-107.795 564.877,-100.899"/>
</g>
<!-- read_counters_rpc&#45;&gt;print_reports -->
<g id="edge25" class="edge"><title>read_counters_rpc&#45;&gt;print_reports</title>
<path fill="none" stroke="black" d="M1053.28,-220.415C1095.64,-209.775 1157.82,-194.062 1211.99,-180 1216.06,-178.944 1220.27,-177.843 1224.5,-176.731"/>
<polygon fill="black" stroke="black" points="1225.57,-180.067 1234.35,-174.133 1223.79,-173.299 1225.57,-180.067"/>
</g>
<!-- read_counters_rpc&#45;&gt;__perf_open -->
<g id="edge26" class="edge"><title>read_counters_rpc&#45;&gt;__perf_open</title>
<path fill="none" stroke="black" d="M948.259,-221.537C899.72,-211.211 826.961,-195.339 763.988,-180 759.662,-178.946 755.179,-177.822 750.687,-176.673"/>
<polygon fill="black" stroke="black" points="751.453,-173.256 740.894,-174.135 749.697,-180.032 751.453,-173.256"/>
</g>
<!-- read_counters_rpc&#45;&gt;__perf_close -->
<g id="edge33" class="edge"><title>read_counters_rpc&#45;&gt;__perf_close</title>
<path fill="none" stroke="black" d="M1034.29,-217.563C1048.57,-208.709 1064.04,-196.123 1071.99,-180 1079.06,-165.648 1082.72,-155.869 1071.99,-144 1018.67,-85.0141 794.215,-122.252 715.988,-108 711.355,-107.156 706.565,-106.146 701.788,-105.046"/>
<polygon fill="black" stroke="black" points="702.597,-101.641 692.054,-102.685 700.947,-108.444 702.597,-101.641"/>
</g>
<!-- read_counters_rpc&#45;&gt;emit_report_perf_count -->
<g id="edge29" class="edge"><title>read_counters_rpc&#45;&gt;emit_report_perf_count</title>
<path fill="none" stroke="black" d="M1076.93,-230.253C1215.04,-224.611 1521.44,-209.674 1777.99,-180 1786.86,-178.973 1796.14,-177.72 1805.34,-176.363"/>
<polygon fill="black" stroke="black" points="1805.9,-179.818 1815.26,-174.857 1804.85,-172.897 1805.9,-179.818"/>
</g>
<!-- read_counters_rpc&#45;&gt;read_tsc_end -->
<g id="edge32" class="edge"><title>read_counters_rpc&#45;&gt;read_tsc_end</title>
<path fill="none" stroke="black" d="M966.3,-218.155C939.032,-207.121 901.745,-192.035 873.062,-180.429"/>
<polygon fill="black" stroke="black" points="874.274,-177.143 863.691,-176.637 871.648,-183.632 874.274,-177.143"/>
</g>
<!-- read_counters_rpc&#45;&gt;read_u64_file -->
<g id="edge31" class="edge"><title>read_counters_rpc&#45;&gt;read_u64_file</title>
<path fill="none" stroke="black" d="M929.72,-229.574C822.465,-223.764 616.697,-209.603 443.988,-180 438.945,-179.136 433.724,-178.097 428.52,-176.964"/>
<polygon fill="black" stroke="black" points="429.113,-173.509 418.584,-174.69 427.551,-180.332 429.113,-173.509"/>
</g>
<!-- read_counters_rpc&#45;&gt;read_tsc_start -->
<g id="edge28" class="edge"><title>read_counters_rpc&#45;&gt;read_tsc_start</title>
<path fill="none" stroke="black" d="M1002.99,-215.697C1002.99,-207.983 1002.99,-198.712 1002.99,-190.112"/>
<polygon fill="black" stroke="black" points="1006.49,-190.104 1002.99,-180.104 999.489,-190.104 1006.49,-190.104"/>
</g>
<!-- umedian -->
<g id="node26" class="node"><title>umedian</title>
<ellipse fill="none" stroke="black" cx="1160.99" cy="-162" rx="41.6928" ry="18"/>
<text text-anchor="middle" x="1160.99" y="-158.3" font-family="Times,serif" font-size="14.00">umedian</text>
</g>
<!-- read_counters_rpc&#45;&gt;umedian -->
<g id="edge24" class="edge"><title>read_counters_rpc&#45;&gt;umedian</title>
<path fill="none" stroke="black" d="M1037.27,-217.811C1062.82,-206.494 1097.66,-191.058 1123.86,-179.45"/>
<polygon fill="black" stroke="black" points="1125.36,-182.612 1133.09,-175.361 1122.53,-176.212 1125.36,-182.612"/>
</g>
<!-- median -->
<g id="node27" class="node"><title>median</title>
<ellipse fill="none" stroke="black" cx="2251.99" cy="-162" rx="37.0935" ry="18"/>
<text text-anchor="middle" x="2251.99" y="-158.3" font-family="Times,serif" font-size="14.00">median</text>
</g>
<!-- read_counters_rpc&#45;&gt;median -->
<g id="edge34" class="edge"><title>read_counters_rpc&#45;&gt;median</title>
<path fill="none" stroke="black" d="M1077.63,-231.055C1323.08,-224.473 2095.9,-202.202 2205.99,-180 2209.16,-179.36 2212.4,-178.536 2215.63,-177.596"/>
<polygon fill="black" stroke="black" points="2216.72,-180.92 2225.15,-174.497 2214.56,-174.263 2216.72,-180.92"/>
</g>
<!-- measure_overheads -->
<g id="node28" class="node"><title>measure_overheads</title>
<ellipse fill="none" stroke="black" cx="2313.99" cy="-234" rx="80.6858" ry="18"/>
<text text-anchor="middle" x="2313.99" y="-230.3" font-family="Times,serif" font-size="14.00">measure_overheads</text>
</g>
<!-- measure_overheads&#45;&gt;read_tsc_end -->
<g id="edge40" class="edge"><title>measure_overheads&#45;&gt;read_tsc_end</title>
<path fill="none" stroke="black" d="M2237.43,-228.224C2176.18,-224.52 2088.1,-219.451 2010.99,-216 1532.53,-194.584 1410.64,-226.728 933.988,-180 918.899,-178.521 902.68,-176.218 887.644,-173.779"/>
<polygon fill="black" stroke="black" points="887.892,-170.272 877.452,-172.078 886.739,-177.177 887.892,-170.272"/>
</g>
<!-- measure_overheads&#45;&gt;read_tsc_start -->
<g id="edge38" class="edge"><title>measure_overheads&#45;&gt;read_tsc_start</title>
<path fill="none" stroke="black" d="M2237.42,-228.362C2176.17,-224.735 2088.09,-219.703 2010.99,-216 1610.69,-196.774 1508.8,-219.51 1109.99,-180 1094.56,-178.471 1077.97,-176.164 1062.57,-173.738"/>
<polygon fill="black" stroke="black" points="1063.07,-170.275 1052.64,-172.134 1061.96,-177.185 1063.07,-170.275"/>
</g>
<!-- measure_overheads&#45;&gt;median -->
<g id="edge36" class="edge"><title>measure_overheads&#45;&gt;median</title>
<path fill="none" stroke="black" d="M2298.98,-216.055C2291.14,-207.204 2281.42,-196.231 2272.86,-186.566"/>
<polygon fill="black" stroke="black" points="2275.26,-183.995 2266.01,-178.829 2270.02,-188.636 2275.26,-183.995"/>
</g>
<!-- umax -->
<g id="node29" class="node"><title>umax</title>
<ellipse fill="none" stroke="black" cx="2375.99" cy="-162" rx="30.5947" ry="18"/>
<text text-anchor="middle" x="2375.99" y="-158.3" font-family="Times,serif" font-size="14.00">umax</text>
</g>
<!-- measure_overheads&#45;&gt;umax -->
<g id="edge35" class="edge"><title>measure_overheads&#45;&gt;umax</title>
<path fill="none" stroke="black" d="M2329,-216.055C2337.03,-206.988 2347.03,-195.694 2355.74,-185.86"/>
<polygon fill="black" stroke="black" points="2358.38,-188.163 2362.39,-178.356 2353.14,-183.522 2358.38,-188.163"/>
</g>
<!-- umin -->
<g id="node30" class="node"><title>umin</title>
<ellipse fill="none" stroke="black" cx="2453.99" cy="-162" rx="29.4969" ry="18"/>
<text text-anchor="middle" x="2453.99" y="-158.3" font-family="Times,serif" font-size="14.00">umin</text>
</g>
<!-- measure_overheads&#45;&gt;umin -->
<g id="edge37" class="edge"><title>measure_overheads&#45;&gt;umin</title>
<path fill="none" stroke="black" d="M2345.41,-217.291C2368.51,-205.741 2399.76,-190.116 2422.8,-178.594"/>
<polygon fill="black" stroke="black" points="2424.44,-181.689 2431.82,-174.086 2421.31,-175.428 2424.44,-181.689"/>
</g>
<!-- average -->
<g id="node31" class="node"><title>average</title>
<ellipse fill="none" stroke="black" cx="2539.99" cy="-162" rx="38.1938" ry="18"/>
<text text-anchor="middle" x="2539.99" y="-158.3" font-family="Times,serif" font-size="14.00">average</text>
</g>
<!-- measure_overheads&#45;&gt;average -->
<g id="edge39" class="edge"><title>measure_overheads&#45;&gt;average</title>
<path fill="none" stroke="black" d="M2361.79,-219.484C2397.74,-209.144 2448.15,-194.28 2491.99,-180 2494.92,-179.045 2497.94,-178.035 2500.98,-177.002"/>
<polygon fill="black" stroke="black" points="2502.32,-180.243 2510.62,-173.667 2500.03,-173.628 2502.32,-180.243"/>
</g>
<!-- emit_stall_timestamp_and_rpc -->
<g id="node32" class="node"><title>emit_stall_timestamp_and_rpc</title>
<ellipse fill="none" stroke="black" cx="1881.99" cy="-234" rx="120.479" ry="18"/>
<text text-anchor="middle" x="1881.99" y="-230.3" font-family="Times,serif" font-size="14.00">emit_stall_timestamp_and_rpc</text>
</g>
<!-- emit_stall_timestamp_and_rpc&#45;&gt;intel_batchbuffer_require_space -->
<g id="edge43" class="edge"><title>emit_stall_timestamp_and_rpc&#45;&gt;intel_batchbuffer_require_space</title>
<path fill="none" stroke="black" d="M1991.37,-226.453C2107.76,-218.345 2277.94,-202.76 2297.99,-180 2308.56,-167.993 2305.01,-158.377 2297.99,-144 2291.97,-131.675 2281.54,-121.382 2270.64,-113.247"/>
<polygon fill="black" stroke="black" points="2272.49,-110.268 2262.27,-107.447 2268.5,-116.021 2272.49,-110.268"/>
</g>
<!-- emit_stall_timestamp_and_rpc&#45;&gt;emit_report_perf_count -->
<g id="edge41" class="edge"><title>emit_stall_timestamp_and_rpc&#45;&gt;emit_report_perf_count</title>
<path fill="none" stroke="black" d="M1881.99,-215.697C1881.99,-207.983 1881.99,-198.712 1881.99,-190.112"/>
<polygon fill="black" stroke="black" points="1885.49,-190.104 1881.99,-180.104 1878.49,-190.104 1885.49,-190.104"/>
</g>
<!-- emit_stall_timestamp_and_rpc&#45;&gt;intel_batchbuffer_emit_dword -->
<g id="edge42" class="edge"><title>emit_stall_timestamp_and_rpc&#45;&gt;intel_batchbuffer_emit_dword</title>
<path fill="none" stroke="black" d="M1766.05,-229.143C1685.5,-223.738 1588.12,-210.816 1561.99,-180 1551.64,-167.797 1551.42,-156.011 1561.99,-144 1603.58,-96.7404 1780.57,-116.176 1842.99,-108 1853.18,-106.664 1863.84,-105.257 1874.45,-103.847"/>
<polygon fill="black" stroke="black" points="1875.15,-107.285 1884.6,-102.497 1874.23,-100.346 1875.15,-107.285"/>
</g>
<!-- hsw_read_report_ticks -->
<g id="node33" class="node"><title>hsw_read_report_ticks</title>
<ellipse fill="none" stroke="black" cx="1742.99" cy="-90" rx="90.9839" ry="18"/>
<text text-anchor="middle" x="1742.99" y="-86.3" font-family="Times,serif" font-size="14.00">hsw_read_report_ticks</text>
</g>
<!-- hsw_read_report_ticks&#45;&gt;get_oa_format -->
<g id="edge44" class="edge"><title>hsw_read_report_ticks&#45;&gt;get_oa_format</title>
<path fill="none" stroke="black" d="M1677.99,-77.352C1666.35,-75.4376 1654.33,-73.5693 1642.99,-72 1491.41,-51.0217 1312.73,-33.7102 1216.94,-25.0277"/>
<polygon fill="black" stroke="black" points="1217.08,-21.526 1206.8,-24.1132 1216.45,-28.4977 1217.08,-21.526"/>
</g>
<!-- send_mi_load_reg_mem -->
<g id="node34" class="node"><title>send_mi_load_reg_mem</title>
<ellipse fill="none" stroke="black" cx="1669.99" cy="-162" rx="98.5829" ry="18"/>
<text text-anchor="middle" x="1669.99" y="-158.3" font-family="Times,serif" font-size="14.00">send_mi_load_reg_mem</text>
</g>
<!-- send_mi_load_reg_mem&#45;&gt;intel_batchbuffer_require_space -->
<g id="edge47" class="edge"><title>send_mi_load_reg_mem&#45;&gt;intel_batchbuffer_require_space</title>
<path fill="none" stroke="black" d="M1740.8,-149.4C1753.18,-147.501 1765.95,-145.626 1777.99,-144 1919.38,-124.903 1955.33,-125.045 2096.99,-108 2107.98,-106.677 2119.48,-105.259 2130.92,-103.827"/>
<polygon fill="black" stroke="black" points="2131.46,-107.287 2140.94,-102.566 2130.58,-100.342 2131.46,-107.287"/>
</g>
<!-- send_mi_load_reg_mem&#45;&gt;intel_batchbuffer_emit_dword -->
<g id="edge46" class="edge"><title>send_mi_load_reg_mem&#45;&gt;intel_batchbuffer_emit_dword</title>
<path fill="none" stroke="black" d="M1728.19,-147.42C1776.85,-136.065 1846.46,-119.823 1898.51,-107.679"/>
<polygon fill="black" stroke="black" points="1899.4,-111.066 1908.34,-105.385 1897.81,-104.249 1899.4,-111.066"/>
</g>
<!-- init_sys_info -->
<g id="node35" class="node"><title>init_sys_info</title>
<ellipse fill="none" stroke="black" cx="349.988" cy="-234" rx="56.59" ry="18"/>
<text text-anchor="middle" x="349.988" y="-230.3" font-family="Times,serif" font-size="14.00">init_sys_info</text>
</g>
<!-- init_sys_info&#45;&gt;max_oa_exponent_for_period_lte -->
<g id="edge49" class="edge"><title>init_sys_info&#45;&gt;max_oa_exponent_for_period_lte</title>
<path fill="none" stroke="black" d="M311.416,-220.727C277.561,-209.955 227.804,-194.123 188.957,-181.763"/>
<polygon fill="black" stroke="black" points="189.922,-178.397 179.332,-178.7 187.8,-185.068 189.922,-178.397"/>
</g>
<!-- init_sys_info&#45;&gt;read_u64_file -->
<g id="edge48" class="edge"><title>init_sys_info&#45;&gt;read_u64_file</title>
<path fill="none" stroke="black" d="M356.282,-216.055C359.209,-208.176 362.759,-198.617 366.036,-189.794"/>
<polygon fill="black" stroke="black" points="369.371,-190.868 369.572,-180.275 362.809,-188.431 369.371,-190.868"/>
</g>
<!-- gen8_read_report_ticks -->
<g id="node36" class="node"><title>gen8_read_report_ticks</title>
<ellipse fill="none" stroke="black" cx="2894.99" cy="-234" rx="93.6835" ry="18"/>
<text text-anchor="middle" x="2894.99" y="-230.3" font-family="Times,serif" font-size="14.00">gen8_read_report_ticks</text>
</g>
<!-- write_u64_file -->
<g id="node37" class="node"><title>write_u64_file</title>
<ellipse fill="none" stroke="black" cx="3068.99" cy="-234" rx="62.2891" ry="18"/>
<text text-anchor="middle" x="3068.99" y="-230.3" font-family="Times,serif" font-size="14.00">write_u64_file</text>
</g>
<!-- oa_exponent_to_ns -->
<g id="node38" class="node"><title>oa_exponent_to_ns</title>
<ellipse fill="none" stroke="black" cx="3228.99" cy="-234" rx="79.0865" ry="18"/>
<text text-anchor="middle" x="3228.99" y="-230.3" font-family="Times,serif" font-size="14.00">oa_exponent_to_ns</text>
</g>
<!-- profile_through_opencl -->
<g id="node39" class="node"><title>profile_through_opencl</title>
<ellipse fill="none" stroke="black" cx="3419.99" cy="-234" rx="93.6835" ry="18"/>
<text text-anchor="middle" x="3419.99" y="-230.3" font-family="Times,serif" font-size="14.00">profile_through_opencl</text>
</g>
<!-- read_i915_module_ref -->
<g id="node40" class="node"><title>read_i915_module_ref</title>
<ellipse fill="none" stroke="black" cx="3622.99" cy="-234" rx="90.9839" ry="18"/>
<text text-anchor="middle" x="3622.99" y="-230.3" font-family="Times,serif" font-size="14.00">read_i915_module_ref</text>
</g>
<!-- fmedian -->
<g id="node41" class="node"><title>fmedian</title>
<ellipse fill="none" stroke="black" cx="3771.99" cy="-234" rx="40.0939" ry="18"/>
<text text-anchor="middle" x="3771.99" y="-230.3" font-family="Times,serif" font-size="14.00">fmedian</text>
</g>
<!-- oa_report_is_periodic -->
<g id="node42" class="node"><title>oa_report_is_periodic</title>
<ellipse fill="none" stroke="black" cx="3917.99" cy="-234" rx="87.9851" ry="18"/>
<text text-anchor="middle" x="3917.99" y="-230.3" font-family="Times,serif" font-size="14.00">oa_report_is_periodic</text>
</g>
<!-- print_report_card -->
<g id="node43" class="node"><title>print_report_card</title>
<ellipse fill="none" stroke="black" cx="4095.99" cy="-234" rx="72.2875" ry="18"/>
<text text-anchor="middle" x="4095.99" y="-230.3" font-family="Times,serif" font-size="14.00">print_report_card</text>
</g>
<!-- create_filtering_word -->
<g id="node44" class="node"><title>create_filtering_word</title>
<ellipse fill="none" stroke="black" cx="4272.99" cy="-234" rx="87.1846" ry="18"/>
<text text-anchor="middle" x="4272.99" y="-230.3" font-family="Times,serif" font-size="14.00">create_filtering_word</text>
</g>
<!-- print_binary -->
<g id="node45" class="node"><title>print_binary</title>
<ellipse fill="none" stroke="black" cx="4431.99" cy="-234" rx="53.8905" ry="18"/>
<text text-anchor="middle" x="4431.99" y="-230.3" font-family="Times,serif" font-size="14.00">print_binary</text>
</g>
<!-- i915_perf_remove_config -->
<g id="node46" class="node"><title>i915_perf_remove_config</title>
<ellipse fill="none" stroke="black" cx="4606.99" cy="-234" rx="102.882" ry="18"/>
<text text-anchor="middle" x="4606.99" y="-230.3" font-family="Times,serif" font-size="14.00">i915_perf_remove_config</text>
</g>
</g>
</svg>
