<?xml version="1.0" encoding="UTF-8" standalone="no"?>
<!DOCTYPE svg PUBLIC "-//W3C//DTD SVG 1.1//EN"
 "http://www.w3.org/Graphics/SVG/1.1/DTD/svg11.dtd">
<!-- Generated by graphviz version 2.38.0 (20140413.2041)
 -->
<!-- Title: callgraph Pages: 1 -->
<svg width="4856pt" height="260pt"
 viewBox="0.00 0.00 4855.79 260.00" xmlns="http://www.w3.org/2000/svg" xmlns:xlink="http://www.w3.org/1999/xlink">
<g id="graph0" class="graph" transform="scale(1 1) rotate(0) translate(4 256)">
<title>callgraph</title>
<polygon fill="white" stroke="none" points="-4,4 -4,-256 4851.79,-256 4851.79,4 -4,4"/>
<!-- i915_perf_add_config -->
<g id="node1" class="node"><title>i915_perf_add_config</title>
<ellipse fill="none" stroke="black" cx="97.4913" cy="-234" rx="89.0842" ry="18"/>
<text text-anchor="middle" x="97.4913" y="-230.3" font-family="Times,serif" font-size="14.00">i915_perf_add_config</text>
</g>
<!-- __i915_perf_add_config -->
<g id="node2" class="node"><title>__i915_perf_add_config</title>
<ellipse fill="none" stroke="black" cx="97.4913" cy="-162" rx="97.4827" ry="18"/>
<text text-anchor="middle" x="97.4913" y="-158.3" font-family="Times,serif" font-size="14.00">__i915_perf_add_config</text>
</g>
<!-- i915_perf_add_config&#45;&gt;__i915_perf_add_config -->
<g id="edge1" class="edge"><title>i915_perf_add_config&#45;&gt;__i915_perf_add_config</title>
<path fill="none" stroke="black" d="M97.4913,-215.697C97.4913,-207.983 97.4913,-198.712 97.4913,-190.112"/>
<polygon fill="black" stroke="black" points="100.991,-190.104 97.4913,-180.104 93.9914,-190.104 100.991,-190.104"/>
</g>
<!-- print_reports -->
<g id="node3" class="node"><title>print_reports</title>
<ellipse fill="none" stroke="black" cx="1312.49" cy="-162" rx="55.7903" ry="18"/>
<text text-anchor="middle" x="1312.49" y="-158.3" font-family="Times,serif" font-size="14.00">print_reports</text>
</g>
<!-- gen8_read_report_clock_ratios -->
<g id="node4" class="node"><title>gen8_read_report_clock_ratios</title>
<ellipse fill="none" stroke="black" cx="1519.49" cy="-90" rx="120.479" ry="18"/>
<text text-anchor="middle" x="1519.49" y="-86.3" font-family="Times,serif" font-size="14.00">gen8_read_report_clock_ratios</text>
</g>
<!-- print_reports&#45;&gt;gen8_read_report_clock_ratios -->
<g id="edge2" class="edge"><title>print_reports&#45;&gt;gen8_read_report_clock_ratios</title>
<path fill="none" stroke="black" d="M1349.5,-148.485C1381.07,-137.81 1426.95,-122.293 1463.09,-110.071"/>
<polygon fill="black" stroke="black" points="1464.66,-113.237 1473.01,-106.718 1462.42,-106.606 1464.66,-113.237"/>
</g>
<!-- gen8_40bit_a_delta -->
<g id="node5" class="node"><title>gen8_40bit_a_delta</title>
<ellipse fill="none" stroke="black" cx="1737.49" cy="-90" rx="79.8859" ry="18"/>
<text text-anchor="middle" x="1737.49" y="-86.3" font-family="Times,serif" font-size="14.00">gen8_40bit_a_delta</text>
</g>
<!-- print_reports&#45;&gt;gen8_40bit_a_delta -->
<g id="edge3" class="edge"><title>print_reports&#45;&gt;gen8_40bit_a_delta</title>
<path fill="none" stroke="black" d="M1354.54,-150.041C1363.71,-147.859 1373.4,-145.715 1382.49,-144 1499.73,-121.893 1530.75,-127.199 1648.49,-108 1655.27,-106.894 1662.33,-105.671 1669.37,-104.403"/>
<polygon fill="black" stroke="black" points="1670.44,-107.766 1679.64,-102.521 1669.18,-100.88 1670.44,-107.766"/>
</g>
<!-- gen8_read_40bit_a_counter -->
<g id="node6" class="node"><title>gen8_read_40bit_a_counter</title>
<ellipse fill="none" stroke="black" cx="854.491" cy="-90" rx="108.581" ry="18"/>
<text text-anchor="middle" x="854.491" y="-86.3" font-family="Times,serif" font-size="14.00">gen8_read_40bit_a_counter</text>
</g>
<!-- print_reports&#45;&gt;gen8_read_40bit_a_counter -->
<g id="edge4" class="edge"><title>print_reports&#45;&gt;gen8_read_40bit_a_counter</title>
<path fill="none" stroke="black" d="M1263.04,-153.442C1186.08,-141.68 1036.61,-118.835 941.375,-104.279"/>
<polygon fill="black" stroke="black" points="941.888,-100.817 931.474,-102.766 940.83,-107.737 941.888,-100.817"/>
</g>
<!-- get_oa_format -->
<g id="node7" class="node"><title>get_oa_format</title>
<ellipse fill="none" stroke="black" cx="1290.49" cy="-18" rx="62.2891" ry="18"/>
<text text-anchor="middle" x="1290.49" y="-14.3" font-family="Times,serif" font-size="14.00">get_oa_format</text>
</g>
<!-- print_reports&#45;&gt;get_oa_format -->
<g id="edge5" class="edge"><title>print_reports&#45;&gt;get_oa_format</title>
<path fill="none" stroke="black" d="M1353.73,-149.845C1363.13,-147.622 1373.11,-145.51 1382.49,-144 1431.36,-136.135 1792.94,-144.385 1826.49,-108 1837.34,-96.238 1837.23,-83.8573 1826.49,-72 1795.92,-38.2603 1501.66,-25.1823 1362.61,-20.8558"/>
<polygon fill="black" stroke="black" points="1362.57,-17.3531 1352.46,-20.5472 1362.35,-24.3498 1362.57,-17.3531"/>
</g>
<!-- gen8_read_report_reason -->
<g id="node8" class="node"><title>gen8_read_report_reason</title>
<ellipse fill="none" stroke="black" cx="1081.49" cy="-90" rx="100.182" ry="18"/>
<text text-anchor="middle" x="1081.49" y="-86.3" font-family="Times,serif" font-size="14.00">gen8_read_report_reason</text>
</g>
<!-- print_reports&#45;&gt;gen8_read_report_reason -->
<g id="edge6" class="edge"><title>print_reports&#45;&gt;gen8_read_report_reason</title>
<path fill="none" stroke="black" d="M1273.31,-149.125C1236.72,-138.039 1181.65,-121.35 1139.88,-108.695"/>
<polygon fill="black" stroke="black" points="1140.7,-105.284 1130.11,-105.734 1138.67,-111.983 1140.7,-105.284"/>
</g>
<!-- gen8_read_40bit_a_counter&#45;&gt;get_oa_format -->
<g id="edge10" class="edge"><title>gen8_read_40bit_a_counter&#45;&gt;get_oa_format</title>
<path fill="none" stroke="black" d="M929.442,-76.9666C1013.44,-63.4802 1148.18,-41.8484 1227.13,-29.1726"/>
<polygon fill="black" stroke="black" points="1228.1,-32.5619 1237.42,-27.5209 1226.99,-25.6504 1228.1,-32.5619"/>
</g>
<!-- emit_stall_timestamp_and_rpc -->
<g id="node9" class="node"><title>emit_stall_timestamp_and_rpc</title>
<ellipse fill="none" stroke="black" cx="561.491" cy="-234" rx="120.479" ry="18"/>
<text text-anchor="middle" x="561.491" y="-230.3" font-family="Times,serif" font-size="14.00">emit_stall_timestamp_and_rpc</text>
</g>
<!-- emit_report_perf_count -->
<g id="node10" class="node"><title>emit_report_perf_count</title>
<ellipse fill="none" stroke="black" cx="561.491" cy="-162" rx="94.7833" ry="18"/>
<text text-anchor="middle" x="561.491" y="-158.3" font-family="Times,serif" font-size="14.00">emit_report_perf_count</text>
</g>
<!-- emit_stall_timestamp_and_rpc&#45;&gt;emit_report_perf_count -->
<g id="edge7" class="edge"><title>emit_stall_timestamp_and_rpc&#45;&gt;emit_report_perf_count</title>
<path fill="none" stroke="black" d="M561.491,-215.697C561.491,-207.983 561.491,-198.712 561.491,-190.112"/>
<polygon fill="black" stroke="black" points="564.991,-190.104 561.491,-180.104 557.991,-190.104 564.991,-190.104"/>
</g>
<!-- intel_batchbuffer_emit_dword -->
<g id="node11" class="node"><title>intel_batchbuffer_emit_dword</title>
<ellipse fill="none" stroke="black" cx="609.491" cy="-90" rx="118.079" ry="18"/>
<text text-anchor="middle" x="609.491" y="-86.3" font-family="Times,serif" font-size="14.00">intel_batchbuffer_emit_dword</text>
</g>
<!-- emit_stall_timestamp_and_rpc&#45;&gt;intel_batchbuffer_emit_dword -->
<g id="edge8" class="edge"><title>emit_stall_timestamp_and_rpc&#45;&gt;intel_batchbuffer_emit_dword</title>
<path fill="none" stroke="black" d="M678.016,-229.4C759.724,-224.134 858.918,-211.273 885.491,-180 895.852,-167.807 895.683,-156.334 885.491,-144 879.372,-136.594 776.296,-118.237 697.892,-105.209"/>
<polygon fill="black" stroke="black" points="698.414,-101.748 687.977,-103.568 697.271,-108.654 698.414,-101.748"/>
</g>
<!-- intel_batchbuffer_require_space -->
<g id="node12" class="node"><title>intel_batchbuffer_require_space</title>
<ellipse fill="none" stroke="black" cx="349.491" cy="-90" rx="124.278" ry="18"/>
<text text-anchor="middle" x="349.491" y="-86.3" font-family="Times,serif" font-size="14.00">intel_batchbuffer_require_space</text>
</g>
<!-- emit_stall_timestamp_and_rpc&#45;&gt;intel_batchbuffer_require_space -->
<g id="edge9" class="edge"><title>emit_stall_timestamp_and_rpc&#45;&gt;intel_batchbuffer_require_space</title>
<path fill="none" stroke="black" d="M445.551,-229.143C365.007,-223.738 267.623,-210.816 241.491,-180 231.143,-167.797 233.029,-157.579 241.491,-144 250.864,-128.96 265.888,-118.068 281.787,-110.226"/>
<polygon fill="black" stroke="black" points="283.55,-113.269 291.213,-105.953 280.66,-106.894 283.55,-113.269"/>
</g>
<!-- emit_report_perf_count&#45;&gt;intel_batchbuffer_emit_dword -->
<g id="edge14" class="edge"><title>emit_report_perf_count&#45;&gt;intel_batchbuffer_emit_dword</title>
<path fill="none" stroke="black" d="M573.111,-144.055C578.746,-135.837 585.635,-125.791 591.896,-116.66"/>
<polygon fill="black" stroke="black" points="594.877,-118.502 597.645,-108.275 589.104,-114.543 594.877,-118.502"/>
</g>
<!-- emit_report_perf_count&#45;&gt;intel_batchbuffer_require_space -->
<g id="edge15" class="edge"><title>emit_report_perf_count&#45;&gt;intel_batchbuffer_require_space</title>
<path fill="none" stroke="black" d="M516.272,-146.069C484.396,-135.544 441.445,-121.362 407.113,-110.026"/>
<polygon fill="black" stroke="black" points="407.81,-106.57 397.217,-106.758 405.615,-113.217 407.81,-106.57"/>
</g>
<!-- intel_batchbuffer_space -->
<g id="node33" class="node"><title>intel_batchbuffer_space</title>
<ellipse fill="none" stroke="black" cx="479.491" cy="-18" rx="94.7833" ry="18"/>
<text text-anchor="middle" x="479.491" y="-14.3" font-family="Times,serif" font-size="14.00">intel_batchbuffer_space</text>
</g>
<!-- intel_batchbuffer_emit_dword&#45;&gt;intel_batchbuffer_space -->
<g id="edge45" class="edge"><title>intel_batchbuffer_emit_dword&#45;&gt;intel_batchbuffer_space</title>
<path fill="none" stroke="black" d="M579.012,-72.5881C561.001,-62.89 538.009,-50.5096 518.663,-40.0923"/>
<polygon fill="black" stroke="black" points="520.244,-36.9685 509.78,-35.3091 516.925,-43.1318 520.244,-36.9685"/>
</g>
<!-- intel_batchbuffer_require_space&#45;&gt;intel_batchbuffer_space -->
<g id="edge47" class="edge"><title>intel_batchbuffer_require_space&#45;&gt;intel_batchbuffer_space</title>
<path fill="none" stroke="black" d="M380.3,-72.411C398.319,-62.7082 421.239,-50.3664 440.507,-39.9915"/>
<polygon fill="black" stroke="black" points="442.207,-43.0512 449.353,-35.2285 438.889,-36.8879 442.207,-43.0512"/>
</g>
<!-- send_mi_store_reg_mem -->
<g id="node13" class="node"><title>send_mi_store_reg_mem</title>
<ellipse fill="none" stroke="black" cx="775.491" cy="-162" rx="100.983" ry="18"/>
<text text-anchor="middle" x="775.491" y="-158.3" font-family="Times,serif" font-size="14.00">send_mi_store_reg_mem</text>
</g>
<!-- send_mi_store_reg_mem&#45;&gt;intel_batchbuffer_emit_dword -->
<g id="edge11" class="edge"><title>send_mi_store_reg_mem&#45;&gt;intel_batchbuffer_emit_dword</title>
<path fill="none" stroke="black" d="M737.823,-145.116C713.904,-135.029 682.738,-121.887 657.109,-111.08"/>
<polygon fill="black" stroke="black" points="658.159,-107.724 647.585,-107.064 655.439,-114.174 658.159,-107.724"/>
</g>
<!-- send_mi_store_reg_mem&#45;&gt;intel_batchbuffer_require_space -->
<g id="edge12" class="edge"><title>send_mi_store_reg_mem&#45;&gt;intel_batchbuffer_require_space</title>
<path fill="none" stroke="black" d="M704.189,-149.284C631.048,-137.265 517.113,-118.543 438.194,-105.576"/>
<polygon fill="black" stroke="black" points="438.702,-102.112 428.266,-103.944 437.567,-109.019 438.702,-102.112"/>
</g>
<!-- hsw_read_report_ticks -->
<g id="node14" class="node"><title>hsw_read_report_ticks</title>
<ellipse fill="none" stroke="black" cx="1290.49" cy="-90" rx="90.9839" ry="18"/>
<text text-anchor="middle" x="1290.49" y="-86.3" font-family="Times,serif" font-size="14.00">hsw_read_report_ticks</text>
</g>
<!-- hsw_read_report_ticks&#45;&gt;get_oa_format -->
<g id="edge13" class="edge"><title>hsw_read_report_ticks&#45;&gt;get_oa_format</title>
<path fill="none" stroke="black" d="M1290.49,-71.6966C1290.49,-63.9827 1290.49,-54.7125 1290.49,-46.1124"/>
<polygon fill="black" stroke="black" points="1293.99,-46.1043 1290.49,-36.1043 1286.99,-46.1044 1293.99,-46.1043"/>
</g>
<!-- __perf_open -->
<g id="node15" class="node"><title>__perf_open</title>
<ellipse fill="none" stroke="black" cx="2136.49" cy="-162" rx="55.4913" ry="18"/>
<text text-anchor="middle" x="2136.49" y="-158.3" font-family="Times,serif" font-size="14.00">__perf_open</text>
</g>
<!-- __perf_close -->
<g id="node16" class="node"><title>__perf_close</title>
<ellipse fill="none" stroke="black" cx="2136.49" cy="-90" rx="55.7903" ry="18"/>
<text text-anchor="middle" x="2136.49" y="-86.3" font-family="Times,serif" font-size="14.00">__perf_close</text>
</g>
<!-- __perf_open&#45;&gt;__perf_close -->
<g id="edge16" class="edge"><title>__perf_open&#45;&gt;__perf_close</title>
<path fill="none" stroke="black" d="M2136.49,-143.697C2136.49,-135.983 2136.49,-126.712 2136.49,-118.112"/>
<polygon fill="black" stroke="black" points="2139.99,-118.104 2136.49,-108.104 2132.99,-118.104 2139.99,-118.104"/>
</g>
<!-- measure_overheads -->
<g id="node17" class="node"><title>measure_overheads</title>
<ellipse fill="none" stroke="black" cx="1842.49" cy="-234" rx="80.6858" ry="18"/>
<text text-anchor="middle" x="1842.49" y="-230.3" font-family="Times,serif" font-size="14.00">measure_overheads</text>
</g>
<!-- umin -->
<g id="node18" class="node"><title>umin</title>
<ellipse fill="none" stroke="black" cx="1685.49" cy="-162" rx="29.4969" ry="18"/>
<text text-anchor="middle" x="1685.49" y="-158.3" font-family="Times,serif" font-size="14.00">umin</text>
</g>
<!-- measure_overheads&#45;&gt;umin -->
<g id="edge17" class="edge"><title>measure_overheads&#45;&gt;umin</title>
<path fill="none" stroke="black" d="M1808.12,-217.708C1784.34,-207.129 1751.99,-192.722 1723.49,-180 1721.66,-179.183 1719.78,-178.342 1717.88,-177.494"/>
<polygon fill="black" stroke="black" points="1718.95,-174.14 1708.4,-173.254 1716.1,-180.531 1718.95,-174.14"/>
</g>
<!-- umax -->
<g id="node19" class="node"><title>umax</title>
<ellipse fill="none" stroke="black" cx="1895.49" cy="-162" rx="30.5947" ry="18"/>
<text text-anchor="middle" x="1895.49" y="-158.3" font-family="Times,serif" font-size="14.00">umax</text>
</g>
<!-- measure_overheads&#45;&gt;umax -->
<g id="edge18" class="edge"><title>measure_overheads&#45;&gt;umax</title>
<path fill="none" stroke="black" d="M1855.32,-216.055C1861.96,-207.292 1870.16,-196.451 1877.43,-186.856"/>
<polygon fill="black" stroke="black" points="1880.26,-188.915 1883.51,-178.829 1874.68,-184.689 1880.26,-188.915"/>
</g>
<!-- read_tsc_start -->
<g id="node20" class="node"><title>read_tsc_start</title>
<ellipse fill="none" stroke="black" cx="2003.49" cy="-162" rx="59.5901" ry="18"/>
<text text-anchor="middle" x="2003.49" y="-158.3" font-family="Times,serif" font-size="14.00">read_tsc_start</text>
</g>
<!-- measure_overheads&#45;&gt;read_tsc_start -->
<g id="edge19" class="edge"><title>measure_overheads&#45;&gt;read_tsc_start</title>
<path fill="none" stroke="black" d="M1877.82,-217.638C1902.56,-206.885 1935.7,-192.476 1961.74,-181.154"/>
<polygon fill="black" stroke="black" points="1963.21,-184.332 1970.98,-177.135 1960.41,-177.913 1963.21,-184.332"/>
</g>
<!-- median -->
<g id="node21" class="node"><title>median</title>
<ellipse fill="none" stroke="black" cx="1601.49" cy="-162" rx="37.0935" ry="18"/>
<text text-anchor="middle" x="1601.49" y="-158.3" font-family="Times,serif" font-size="14.00">median</text>
</g>
<!-- measure_overheads&#45;&gt;median -->
<g id="edge20" class="edge"><title>measure_overheads&#45;&gt;median</title>
<path fill="none" stroke="black" d="M1790.39,-220.179C1750.9,-210.138 1695.44,-195.343 1647.49,-180 1644.75,-179.124 1641.94,-178.184 1639.12,-177.211"/>
<polygon fill="black" stroke="black" points="1640.17,-173.871 1629.57,-173.827 1637.83,-180.469 1640.17,-173.871"/>
</g>
<!-- read_tsc_end -->
<g id="node22" class="node"><title>read_tsc_end</title>
<ellipse fill="none" stroke="black" cx="1789.49" cy="-162" rx="57.3905" ry="18"/>
<text text-anchor="middle" x="1789.49" y="-158.3" font-family="Times,serif" font-size="14.00">read_tsc_end</text>
</g>
<!-- measure_overheads&#45;&gt;read_tsc_end -->
<g id="edge21" class="edge"><title>measure_overheads&#45;&gt;read_tsc_end</title>
<path fill="none" stroke="black" d="M1829.66,-216.055C1823.28,-207.629 1815.45,-197.28 1808.39,-187.966"/>
<polygon fill="black" stroke="black" points="1811.03,-185.649 1802.2,-179.789 1805.45,-189.874 1811.03,-185.649"/>
</g>
<!-- average -->
<g id="node23" class="node"><title>average</title>
<ellipse fill="none" stroke="black" cx="2248.49" cy="-162" rx="38.1938" ry="18"/>
<text text-anchor="middle" x="2248.49" y="-158.3" font-family="Times,serif" font-size="14.00">average</text>
</g>
<!-- measure_overheads&#45;&gt;average -->
<g id="edge22" class="edge"><title>measure_overheads&#45;&gt;average</title>
<path fill="none" stroke="black" d="M1915.63,-226.356C1988.56,-218.757 2103.39,-204.141 2200.49,-180 2203.67,-179.211 2206.93,-178.295 2210.18,-177.305"/>
<polygon fill="black" stroke="black" points="2211.4,-180.587 2219.83,-174.166 2209.24,-173.93 2211.4,-180.587"/>
</g>
<!-- read_counters_rpc -->
<g id="node24" class="node"><title>read_counters_rpc</title>
<ellipse fill="none" stroke="black" cx="1601.49" cy="-234" rx="75.2868" ry="18"/>
<text text-anchor="middle" x="1601.49" y="-230.3" font-family="Times,serif" font-size="14.00">read_counters_rpc</text>
</g>
<!-- read_counters_rpc&#45;&gt;print_reports -->
<g id="edge24" class="edge"><title>read_counters_rpc&#45;&gt;print_reports</title>
<path fill="none" stroke="black" d="M1550.6,-220.696C1506.21,-209.961 1440.09,-193.963 1382.49,-180 1377.1,-178.692 1371.47,-177.327 1365.85,-175.964"/>
<polygon fill="black" stroke="black" points="1366.35,-172.483 1355.81,-173.525 1364.7,-179.285 1366.35,-172.483"/>
</g>
<!-- read_counters_rpc&#45;&gt;emit_report_perf_count -->
<g id="edge23" class="edge"><title>read_counters_rpc&#45;&gt;emit_report_perf_count</title>
<path fill="none" stroke="black" d="M1526.65,-231.44C1367.65,-227.538 984.62,-215.019 665.491,-180 656.543,-179.018 647.193,-177.786 637.926,-176.435"/>
<polygon fill="black" stroke="black" points="638.335,-172.957 627.925,-174.93 637.293,-179.879 638.335,-172.957"/>
</g>
<!-- read_counters_rpc&#45;&gt;__perf_open -->
<g id="edge29" class="edge"><title>read_counters_rpc&#45;&gt;__perf_open</title>
<path fill="none" stroke="black" d="M1668.02,-225.509C1694.33,-222.547 1724.83,-219.113 1752.49,-216 1894.71,-199.994 1931.84,-206.443 2072.49,-180 2077.19,-179.117 2082.05,-178.073 2086.89,-176.943"/>
<polygon fill="black" stroke="black" points="2087.87,-180.305 2096.76,-174.527 2086.21,-173.506 2087.87,-180.305"/>
</g>
<!-- read_counters_rpc&#45;&gt;__perf_close -->
<g id="edge28" class="edge"><title>read_counters_rpc&#45;&gt;__perf_close</title>
<path fill="none" stroke="black" d="M1537.38,-224.505C1468.56,-212.91 1374.31,-188.319 1415.49,-144 1421.06,-138.006 1896.25,-106.592 2072.05,-95.1625"/>
<polygon fill="black" stroke="black" points="2072.44,-98.6446 2082.19,-94.5037 2071.99,-91.6593 2072.44,-98.6446"/>
</g>
<!-- read_counters_rpc&#45;&gt;read_tsc_start -->
<g id="edge25" class="edge"><title>read_counters_rpc&#45;&gt;read_tsc_start</title>
<path fill="none" stroke="black" d="M1665.82,-224.498C1733.3,-215.181 1842.3,-199.005 1935.49,-180 1940.23,-179.033 1945.15,-177.955 1950.06,-176.826"/>
<polygon fill="black" stroke="black" points="1951.16,-180.161 1960.09,-174.452 1949.55,-173.349 1951.16,-180.161"/>
</g>
<!-- read_counters_rpc&#45;&gt;median -->
<g id="edge30" class="edge"><title>read_counters_rpc&#45;&gt;median</title>
<path fill="none" stroke="black" d="M1601.49,-215.697C1601.49,-207.983 1601.49,-198.712 1601.49,-190.112"/>
<polygon fill="black" stroke="black" points="1604.99,-190.104 1601.49,-180.104 1597.99,-190.104 1604.99,-190.104"/>
</g>
<!-- read_counters_rpc&#45;&gt;read_tsc_end -->
<g id="edge31" class="edge"><title>read_counters_rpc&#45;&gt;read_tsc_end</title>
<path fill="none" stroke="black" d="M1640.45,-218.496C1670.76,-207.209 1712.86,-191.532 1744.59,-179.718"/>
<polygon fill="black" stroke="black" points="1745.93,-182.955 1754.08,-176.185 1743.49,-176.395 1745.93,-182.955"/>
</g>
<!-- read_u64_file -->
<g id="node25" class="node"><title>read_u64_file</title>
<ellipse fill="none" stroke="black" cx="2556.49" cy="-162" rx="59.5901" ry="18"/>
<text text-anchor="middle" x="2556.49" y="-158.3" font-family="Times,serif" font-size="14.00">read_u64_file</text>
</g>
<!-- read_counters_rpc&#45;&gt;read_u64_file -->
<g id="edge26" class="edge"><title>read_counters_rpc&#45;&gt;read_u64_file</title>
<path fill="none" stroke="black" d="M1666.44,-224.816C1693.07,-221.688 1724.23,-218.319 1752.49,-216 2061.64,-190.637 2141,-212.382 2449.49,-180 2464.84,-178.389 2481.33,-176.065 2496.67,-173.651"/>
<polygon fill="black" stroke="black" points="2497.24,-177.104 2506.56,-172.057 2496.13,-170.193 2497.24,-177.104"/>
</g>
<!-- scratch_buf_init -->
<g id="node26" class="node"><title>scratch_buf_init</title>
<ellipse fill="none" stroke="black" cx="2372.49" cy="-162" rx="67.6881" ry="18"/>
<text text-anchor="middle" x="2372.49" y="-158.3" font-family="Times,serif" font-size="14.00">scratch_buf_init</text>
</g>
<!-- read_counters_rpc&#45;&gt;scratch_buf_init -->
<g id="edge27" class="edge"><title>read_counters_rpc&#45;&gt;scratch_buf_init</title>
<path fill="none" stroke="black" d="M1666.83,-224.981C1693.38,-221.896 1724.38,-218.513 1752.49,-216 1993.39,-194.465 2056.05,-214.169 2295.49,-180 2301.72,-179.112 2308.19,-177.995 2314.62,-176.76"/>
<polygon fill="black" stroke="black" points="2315.53,-180.146 2324.64,-174.738 2314.14,-173.284 2315.53,-180.146"/>
</g>
<!-- umedian -->
<g id="node27" class="node"><title>umedian</title>
<ellipse fill="none" stroke="black" cx="1466.49" cy="-162" rx="41.6928" ry="18"/>
<text text-anchor="middle" x="1466.49" y="-158.3" font-family="Times,serif" font-size="14.00">umedian</text>
</g>
<!-- read_counters_rpc&#45;&gt;umedian -->
<g id="edge32" class="edge"><title>read_counters_rpc&#45;&gt;umedian</title>
<path fill="none" stroke="black" d="M1571.53,-217.465C1550.73,-206.68 1522.96,-192.28 1501.2,-180.996"/>
<polygon fill="black" stroke="black" points="1502.76,-177.866 1492.28,-176.37 1499.54,-184.08 1502.76,-177.866"/>
</g>
<!-- scratch_buf_memset -->
<g id="node28" class="node"><title>scratch_buf_memset</title>
<ellipse fill="none" stroke="black" cx="2372.49" cy="-90" rx="84.485" ry="18"/>
<text text-anchor="middle" x="2372.49" y="-86.3" font-family="Times,serif" font-size="14.00">scratch_buf_memset</text>
</g>
<!-- read_counters_rpc&#45;&gt;scratch_buf_memset -->
<g id="edge33" class="edge"><title>read_counters_rpc&#45;&gt;scratch_buf_memset</title>
<path fill="none" stroke="black" d="M1582.17,-216.549C1561.81,-197.302 1535.29,-165.355 1555.49,-144 1604.89,-91.7716 2129.82,-113.557 2201.49,-108 2229.97,-105.792 2261.06,-102.858 2288.84,-100.049"/>
<polygon fill="black" stroke="black" points="2289.31,-103.519 2298.91,-99.0218 2288.6,-96.555 2289.31,-103.519"/>
</g>
<!-- scratch_buf_init&#45;&gt;scratch_buf_memset -->
<g id="edge36" class="edge"><title>scratch_buf_init&#45;&gt;scratch_buf_memset</title>
<path fill="none" stroke="black" d="M2372.49,-143.697C2372.49,-135.983 2372.49,-126.712 2372.49,-118.112"/>
<polygon fill="black" stroke="black" points="2375.99,-118.104 2372.49,-108.104 2368.99,-118.104 2375.99,-118.104"/>
</g>
<!-- init_sys_info -->
<g id="node29" class="node"><title>init_sys_info</title>
<ellipse fill="none" stroke="black" cx="2581.49" cy="-234" rx="56.59" ry="18"/>
<text text-anchor="middle" x="2581.49" y="-230.3" font-family="Times,serif" font-size="14.00">init_sys_info</text>
</g>
<!-- init_sys_info&#45;&gt;read_u64_file -->
<g id="edge34" class="edge"><title>init_sys_info&#45;&gt;read_u64_file</title>
<path fill="none" stroke="black" d="M2575.44,-216.055C2572.63,-208.176 2569.21,-198.617 2566.06,-189.794"/>
<polygon fill="black" stroke="black" points="2569.32,-188.516 2562.66,-180.275 2562.73,-190.87 2569.32,-188.516"/>
</g>
<!-- max_oa_exponent_for_period_lte -->
<g id="node30" class="node"><title>max_oa_exponent_for_period_lte</title>
<ellipse fill="none" stroke="black" cx="2802.49" cy="-162" rx="129.977" ry="18"/>
<text text-anchor="middle" x="2802.49" y="-158.3" font-family="Times,serif" font-size="14.00">max_oa_exponent_for_period_lte</text>
</g>
<!-- init_sys_info&#45;&gt;max_oa_exponent_for_period_lte -->
<g id="edge35" class="edge"><title>init_sys_info&#45;&gt;max_oa_exponent_for_period_lte</title>
<path fill="none" stroke="black" d="M2619.99,-220.807C2653.96,-210.046 2704.02,-194.19 2743.12,-181.805"/>
<polygon fill="black" stroke="black" points="2744.33,-185.093 2752.81,-178.737 2742.22,-178.42 2744.33,-185.093"/>
</g>
<!-- timebase_scale -->
<g id="node31" class="node"><title>timebase_scale</title>
<ellipse fill="none" stroke="black" cx="2802.49" cy="-90" rx="64.189" ry="18"/>
<text text-anchor="middle" x="2802.49" y="-86.3" font-family="Times,serif" font-size="14.00">timebase_scale</text>
</g>
<!-- max_oa_exponent_for_period_lte&#45;&gt;timebase_scale -->
<g id="edge37" class="edge"><title>max_oa_exponent_for_period_lte&#45;&gt;timebase_scale</title>
<path fill="none" stroke="black" d="M2802.49,-143.697C2802.49,-135.983 2802.49,-126.712 2802.49,-118.112"/>
<polygon fill="black" stroke="black" points="2805.99,-118.104 2802.49,-108.104 2798.99,-118.104 2805.99,-118.104"/>
</g>
<!-- read_counters_mmio -->
<g id="node32" class="node"><title>read_counters_mmio</title>
<ellipse fill="none" stroke="black" cx="2372.49" cy="-234" rx="85.5853" ry="18"/>
<text text-anchor="middle" x="2372.49" y="-230.3" font-family="Times,serif" font-size="14.00">read_counters_mmio</text>
</g>
<!-- read_counters_mmio&#45;&gt;__perf_open -->
<g id="edge40" class="edge"><title>read_counters_mmio&#45;&gt;__perf_open</title>
<path fill="none" stroke="black" d="M2325.02,-218.919C2284.6,-206.932 2226.76,-189.774 2185.82,-177.632"/>
<polygon fill="black" stroke="black" points="2186.64,-174.225 2176.06,-174.737 2184.65,-180.936 2186.64,-174.225"/>
</g>
<!-- read_counters_mmio&#45;&gt;__perf_close -->
<g id="edge41" class="edge"><title>read_counters_mmio&#45;&gt;__perf_close</title>
<path fill="none" stroke="black" d="M2408.93,-217.511C2424.39,-208.893 2440.81,-196.52 2449.49,-180 2456.94,-165.838 2459.82,-156.222 2449.49,-144 2441.38,-134.398 2285.82,-111.558 2197.12,-99.2295"/>
<polygon fill="black" stroke="black" points="2197.56,-95.7572 2187.17,-97.8523 2196.6,-102.691 2197.56,-95.7572"/>
</g>
<!-- read_counters_mmio&#45;&gt;read_tsc_start -->
<g id="edge42" class="edge"><title>read_counters_mmio&#45;&gt;read_tsc_start</title>
<path fill="none" stroke="black" d="M2306.11,-222.578C2245.16,-212.699 2152.44,-196.892 2072.49,-180 2067.56,-178.959 2062.45,-177.817 2057.34,-176.634"/>
<polygon fill="black" stroke="black" points="2058.1,-173.217 2047.56,-174.322 2056.49,-180.029 2058.1,-173.217"/>
</g>
<!-- read_counters_mmio&#45;&gt;read_tsc_end -->
<g id="edge38" class="edge"><title>read_counters_mmio&#45;&gt;read_tsc_end</title>
<path fill="none" stroke="black" d="M2290.48,-228.401C2188.07,-221.786 2007.81,-207.265 1855.49,-180 1850.52,-179.111 1845.38,-178.046 1840.25,-176.888"/>
<polygon fill="black" stroke="black" points="1841.01,-173.471 1830.47,-174.571 1839.4,-180.283 1841.01,-173.471"/>
</g>
<!-- read_counters_mmio&#45;&gt;read_u64_file -->
<g id="edge43" class="edge"><title>read_counters_mmio&#45;&gt;read_u64_file</title>
<path fill="none" stroke="black" d="M2411.96,-217.983C2441.12,-206.891 2480.86,-191.772 2511.29,-180.195"/>
<polygon fill="black" stroke="black" points="2512.72,-183.397 2520.82,-176.57 2510.23,-176.854 2512.72,-183.397"/>
</g>
<!-- read_counters_mmio&#45;&gt;scratch_buf_init -->
<g id="edge44" class="edge"><title>read_counters_mmio&#45;&gt;scratch_buf_init</title>
<path fill="none" stroke="black" d="M2372.49,-215.697C2372.49,-207.983 2372.49,-198.712 2372.49,-190.112"/>
<polygon fill="black" stroke="black" points="2375.99,-190.104 2372.49,-180.104 2368.99,-190.104 2375.99,-190.104"/>
</g>
<!-- read_counters_mmio&#45;&gt;scratch_buf_memset -->
<g id="edge39" class="edge"><title>read_counters_mmio&#45;&gt;scratch_buf_memset</title>
<path fill="none" stroke="black" d="M2441.25,-223.117C2512.09,-212.233 2613.82,-194.369 2625.49,-180 2673.66,-120.691 2556.12,-100.848 2465.52,-94.244"/>
<polygon fill="black" stroke="black" points="2465.67,-90.7462 2455.46,-93.5558 2465.19,-97.7299 2465.67,-90.7462"/>
</g>
<!-- max_oa_exponent_for_freq_gt -->
<g id="node34" class="node"><title>max_oa_exponent_for_freq_gt</title>
<ellipse fill="none" stroke="black" cx="2802.49" cy="-234" rx="120.479" ry="18"/>
<text text-anchor="middle" x="2802.49" y="-230.3" font-family="Times,serif" font-size="14.00">max_oa_exponent_for_freq_gt</text>
</g>
<!-- max_oa_exponent_for_freq_gt&#45;&gt;max_oa_exponent_for_period_lte -->
<g id="edge46" class="edge"><title>max_oa_exponent_for_freq_gt&#45;&gt;max_oa_exponent_for_period_lte</title>
<path fill="none" stroke="black" d="M2802.49,-215.697C2802.49,-207.983 2802.49,-198.712 2802.49,-190.112"/>
<polygon fill="black" stroke="black" points="2805.99,-190.104 2802.49,-180.104 2798.99,-190.104 2805.99,-190.104"/>
</g>
<!-- send_mi_load_reg_mem -->
<g id="node35" class="node"><title>send_mi_load_reg_mem</title>
<ellipse fill="none" stroke="black" cx="349.491" cy="-162" rx="98.5829" ry="18"/>
<text text-anchor="middle" x="349.491" y="-158.3" font-family="Times,serif" font-size="14.00">send_mi_load_reg_mem</text>
</g>
<!-- send_mi_load_reg_mem&#45;&gt;intel_batchbuffer_emit_dword -->
<g id="edge49" class="edge"><title>send_mi_load_reg_mem&#45;&gt;intel_batchbuffer_emit_dword</title>
<path fill="none" stroke="black" d="M402.42,-146.75C443.417,-135.712 500.419,-120.366 544.24,-108.568"/>
<polygon fill="black" stroke="black" points="545.197,-111.935 553.943,-105.955 543.377,-105.175 545.197,-111.935"/>
</g>
<!-- send_mi_load_reg_mem&#45;&gt;intel_batchbuffer_require_space -->
<g id="edge48" class="edge"><title>send_mi_load_reg_mem&#45;&gt;intel_batchbuffer_require_space</title>
<path fill="none" stroke="black" d="M349.491,-143.697C349.491,-135.983 349.491,-126.712 349.491,-118.112"/>
<polygon fill="black" stroke="black" points="352.991,-118.104 349.491,-108.104 345.991,-118.104 352.991,-118.104"/>
</g>
<!-- print_binary -->
<g id="node36" class="node"><title>print_binary</title>
<ellipse fill="none" stroke="black" cx="2994.49" cy="-234" rx="53.8905" ry="18"/>
<text text-anchor="middle" x="2994.49" y="-230.3" font-family="Times,serif" font-size="14.00">print_binary</text>
</g>
<!-- read_i915_module_ref -->
<g id="node37" class="node"><title>read_i915_module_ref</title>
<ellipse fill="none" stroke="black" cx="3157.49" cy="-234" rx="90.9839" ry="18"/>
<text text-anchor="middle" x="3157.49" y="-230.3" font-family="Times,serif" font-size="14.00">read_i915_module_ref</text>
</g>
<!-- print_report_card -->
<g id="node38" class="node"><title>print_report_card</title>
<ellipse fill="none" stroke="black" cx="3338.49" cy="-234" rx="72.2875" ry="18"/>
<text text-anchor="middle" x="3338.49" y="-230.3" font-family="Times,serif" font-size="14.00">print_report_card</text>
</g>
<!-- oa_report_is_periodic -->
<g id="node39" class="node"><title>oa_report_is_periodic</title>
<ellipse fill="none" stroke="black" cx="3516.49" cy="-234" rx="87.9851" ry="18"/>
<text text-anchor="middle" x="3516.49" y="-230.3" font-family="Times,serif" font-size="14.00">oa_report_is_periodic</text>
</g>
<!-- i915_perf_remove_config -->
<g id="node40" class="node"><title>i915_perf_remove_config</title>
<ellipse fill="none" stroke="black" cx="3724.49" cy="-234" rx="102.882" ry="18"/>
<text text-anchor="middle" x="3724.49" y="-230.3" font-family="Times,serif" font-size="14.00">i915_perf_remove_config</text>
</g>
<!-- create_filtering_word -->
<g id="node41" class="node"><title>create_filtering_word</title>
<ellipse fill="none" stroke="black" cx="3932.49" cy="-234" rx="87.1846" ry="18"/>
<text text-anchor="middle" x="3932.49" y="-230.3" font-family="Times,serif" font-size="14.00">create_filtering_word</text>
</g>
<!-- oa_exponent_to_ns -->
<g id="node42" class="node"><title>oa_exponent_to_ns</title>
<ellipse fill="none" stroke="black" cx="4116.49" cy="-234" rx="79.0865" ry="18"/>
<text text-anchor="middle" x="4116.49" y="-230.3" font-family="Times,serif" font-size="14.00">oa_exponent_to_ns</text>
</g>
<!-- write_u64_file -->
<g id="node43" class="node"><title>write_u64_file</title>
<ellipse fill="none" stroke="black" cx="4276.49" cy="-234" rx="62.2891" ry="18"/>
<text text-anchor="middle" x="4276.49" y="-230.3" font-family="Times,serif" font-size="14.00">write_u64_file</text>
</g>
<!-- gen8_read_report_ticks -->
<g id="node44" class="node"><title>gen8_read_report_ticks</title>
<ellipse fill="none" stroke="black" cx="4450.49" cy="-234" rx="93.6835" ry="18"/>
<text text-anchor="middle" x="4450.49" y="-230.3" font-family="Times,serif" font-size="14.00">gen8_read_report_ticks</text>
</g>
<!-- profile_through_opencl -->
<g id="node45" class="node"><title>profile_through_opencl</title>
<ellipse fill="none" stroke="black" cx="4655.49" cy="-234" rx="93.6835" ry="18"/>
<text text-anchor="middle" x="4655.49" y="-230.3" font-family="Times,serif" font-size="14.00">profile_through_opencl</text>
</g>
<!-- fmedian -->
<g id="node46" class="node"><title>fmedian</title>
<ellipse fill="none" stroke="black" cx="4807.49" cy="-234" rx="40.0939" ry="18"/>
<text text-anchor="middle" x="4807.49" y="-230.3" font-family="Times,serif" font-size="14.00">fmedian</text>
</g>
</g>
</svg>
