<?xml version="1.0" encoding="UTF-8" standalone="no"?>
<!DOCTYPE svg PUBLIC "-//W3C//DTD SVG 1.1//EN"
 "http://www.w3.org/Graphics/SVG/1.1/DTD/svg11.dtd">
<!-- Generated by graphviz version 2.38.0 (20140413.2041)
 -->
<!-- Title: callgraph Pages: 1 -->
<svg width="4620pt" height="260pt"
 viewBox="0.00 0.00 4619.93 260.00" xmlns="http://www.w3.org/2000/svg" xmlns:xlink="http://www.w3.org/1999/xlink">
<g id="graph0" class="graph" transform="scale(1 1) rotate(0) translate(4 256)">
<title>callgraph</title>
<polygon fill="white" stroke="none" points="-4,4 -4,-256 4615.93,-256 4615.93,4 -4,4"/>
<!-- intel_batchbuffer_emit_dword -->
<g id="node1" class="node"><title>intel_batchbuffer_emit_dword</title>
<ellipse fill="none" stroke="black" cx="465.239" cy="-90" rx="118.079" ry="18"/>
<text text-anchor="middle" x="465.239" y="-86.3" font-family="Times,serif" font-size="14.00">intel_batchbuffer_emit_dword</text>
</g>
<!-- intel_batchbuffer_space -->
<g id="node2" class="node"><title>intel_batchbuffer_space</title>
<ellipse fill="none" stroke="black" cx="335.239" cy="-18" rx="94.7833" ry="18"/>
<text text-anchor="middle" x="335.239" y="-14.3" font-family="Times,serif" font-size="14.00">intel_batchbuffer_space</text>
</g>
<!-- intel_batchbuffer_emit_dword&#45;&gt;intel_batchbuffer_space -->
<g id="edge1" class="edge"><title>intel_batchbuffer_emit_dword&#45;&gt;intel_batchbuffer_space</title>
<path fill="none" stroke="black" d="M434.76,-72.5881C416.749,-62.89 393.757,-50.5096 374.411,-40.0923"/>
<polygon fill="black" stroke="black" points="375.992,-36.9685 365.528,-35.3091 372.673,-43.1318 375.992,-36.9685"/>
</g>
<!-- emit_stall_timestamp_and_rpc -->
<g id="node3" class="node"><title>emit_stall_timestamp_and_rpc</title>
<ellipse fill="none" stroke="black" cx="120.239" cy="-234" rx="120.479" ry="18"/>
<text text-anchor="middle" x="120.239" y="-230.3" font-family="Times,serif" font-size="14.00">emit_stall_timestamp_and_rpc</text>
</g>
<!-- emit_stall_timestamp_and_rpc&#45;&gt;intel_batchbuffer_emit_dword -->
<g id="edge4" class="edge"><title>emit_stall_timestamp_and_rpc&#45;&gt;intel_batchbuffer_emit_dword</title>
<path fill="none" stroke="black" d="M237.327,-229.704C387.605,-224.242 632.399,-210.706 660.239,-180 696.616,-139.879 628.617,-116.612 563.157,-104.002"/>
<polygon fill="black" stroke="black" points="563.581,-100.521 553.111,-102.144 562.307,-107.405 563.581,-100.521"/>
</g>
<!-- emit_report_perf_count -->
<g id="node4" class="node"><title>emit_report_perf_count</title>
<ellipse fill="none" stroke="black" cx="120.239" cy="-162" rx="94.7833" ry="18"/>
<text text-anchor="middle" x="120.239" y="-158.3" font-family="Times,serif" font-size="14.00">emit_report_perf_count</text>
</g>
<!-- emit_stall_timestamp_and_rpc&#45;&gt;emit_report_perf_count -->
<g id="edge2" class="edge"><title>emit_stall_timestamp_and_rpc&#45;&gt;emit_report_perf_count</title>
<path fill="none" stroke="black" d="M120.239,-215.697C120.239,-207.983 120.239,-198.712 120.239,-190.112"/>
<polygon fill="black" stroke="black" points="123.739,-190.104 120.239,-180.104 116.739,-190.104 123.739,-190.104"/>
</g>
<!-- intel_batchbuffer_require_space -->
<g id="node5" class="node"><title>intel_batchbuffer_require_space</title>
<ellipse fill="none" stroke="black" cx="205.239" cy="-90" rx="124.278" ry="18"/>
<text text-anchor="middle" x="205.239" y="-86.3" font-family="Times,serif" font-size="14.00">intel_batchbuffer_require_space</text>
</g>
<!-- emit_stall_timestamp_and_rpc&#45;&gt;intel_batchbuffer_require_space -->
<g id="edge3" class="edge"><title>emit_stall_timestamp_and_rpc&#45;&gt;intel_batchbuffer_require_space</title>
<path fill="none" stroke="black" d="M64.8847,-217.906C46.1103,-209.853 27.1448,-197.797 16.2393,-180 7.87984,-166.357 6.57295,-156.75 16.2393,-144 28.8218,-127.404 72.4745,-114.573 114.66,-105.696"/>
<polygon fill="black" stroke="black" points="115.377,-109.122 124.476,-103.694 113.978,-102.263 115.377,-109.122"/>
</g>
<!-- emit_report_perf_count&#45;&gt;intel_batchbuffer_emit_dword -->
<g id="edge42" class="edge"><title>emit_report_perf_count&#45;&gt;intel_batchbuffer_emit_dword</title>
<path fill="none" stroke="black" d="M182.716,-148.324C240.105,-136.679 325.378,-119.378 387.221,-106.83"/>
<polygon fill="black" stroke="black" points="388.219,-110.199 397.323,-104.78 386.827,-103.339 388.219,-110.199"/>
</g>
<!-- emit_report_perf_count&#45;&gt;intel_batchbuffer_require_space -->
<g id="edge43" class="edge"><title>emit_report_perf_count&#45;&gt;intel_batchbuffer_require_space</title>
<path fill="none" stroke="black" d="M140.815,-144.055C151.674,-135.113 165.161,-124.005 176.985,-114.268"/>
<polygon fill="black" stroke="black" points="179.358,-116.848 184.853,-107.789 174.908,-111.444 179.358,-116.848"/>
</g>
<!-- intel_batchbuffer_require_space&#45;&gt;intel_batchbuffer_space -->
<g id="edge5" class="edge"><title>intel_batchbuffer_require_space&#45;&gt;intel_batchbuffer_space</title>
<path fill="none" stroke="black" d="M236.048,-72.411C254.067,-62.7082 276.987,-50.3664 296.255,-39.9915"/>
<polygon fill="black" stroke="black" points="297.955,-43.0512 305.101,-35.2285 294.637,-36.8879 297.955,-43.0512"/>
</g>
<!-- hsw_read_report_ticks -->
<g id="node6" class="node"><title>hsw_read_report_ticks</title>
<ellipse fill="none" stroke="black" cx="1474.24" cy="-90" rx="90.9839" ry="18"/>
<text text-anchor="middle" x="1474.24" y="-86.3" font-family="Times,serif" font-size="14.00">hsw_read_report_ticks</text>
</g>
<!-- get_oa_format -->
<g id="node7" class="node"><title>get_oa_format</title>
<ellipse fill="none" stroke="black" cx="1355.24" cy="-18" rx="62.2891" ry="18"/>
<text text-anchor="middle" x="1355.24" y="-14.3" font-family="Times,serif" font-size="14.00">get_oa_format</text>
</g>
<!-- hsw_read_report_ticks&#45;&gt;get_oa_format -->
<g id="edge6" class="edge"><title>hsw_read_report_ticks&#45;&gt;get_oa_format</title>
<path fill="none" stroke="black" d="M1446.64,-72.7646C1429.92,-62.9283 1408.42,-50.2845 1390.48,-39.7298"/>
<polygon fill="black" stroke="black" points="1391.86,-36.4802 1381.46,-34.4268 1388.31,-42.5138 1391.86,-36.4802"/>
</g>
<!-- scratch_buf_init -->
<g id="node8" class="node"><title>scratch_buf_init</title>
<ellipse fill="none" stroke="black" cx="1017.24" cy="-162" rx="67.6881" ry="18"/>
<text text-anchor="middle" x="1017.24" y="-158.3" font-family="Times,serif" font-size="14.00">scratch_buf_init</text>
</g>
<!-- scratch_buf_memset -->
<g id="node9" class="node"><title>scratch_buf_memset</title>
<ellipse fill="none" stroke="black" cx="1007.24" cy="-90" rx="84.485" ry="18"/>
<text text-anchor="middle" x="1007.24" y="-86.3" font-family="Times,serif" font-size="14.00">scratch_buf_memset</text>
</g>
<!-- scratch_buf_init&#45;&gt;scratch_buf_memset -->
<g id="edge7" class="edge"><title>scratch_buf_init&#45;&gt;scratch_buf_memset</title>
<path fill="none" stroke="black" d="M1014.77,-143.697C1013.67,-135.983 1012.34,-126.712 1011.11,-118.112"/>
<polygon fill="black" stroke="black" points="1014.56,-117.509 1009.68,-108.104 1007.63,-118.499 1014.56,-117.509"/>
</g>
<!-- read_counters_mmio -->
<g id="node10" class="node"><title>read_counters_mmio</title>
<ellipse fill="none" stroke="black" cx="1017.24" cy="-234" rx="85.5853" ry="18"/>
<text text-anchor="middle" x="1017.24" y="-230.3" font-family="Times,serif" font-size="14.00">read_counters_mmio</text>
</g>
<!-- read_counters_mmio&#45;&gt;scratch_buf_init -->
<g id="edge9" class="edge"><title>read_counters_mmio&#45;&gt;scratch_buf_init</title>
<path fill="none" stroke="black" d="M1017.24,-215.697C1017.24,-207.983 1017.24,-198.712 1017.24,-190.112"/>
<polygon fill="black" stroke="black" points="1020.74,-190.104 1017.24,-180.104 1013.74,-190.104 1020.74,-190.104"/>
</g>
<!-- read_counters_mmio&#45;&gt;scratch_buf_memset -->
<g id="edge13" class="edge"><title>read_counters_mmio&#45;&gt;scratch_buf_memset</title>
<path fill="none" stroke="black" d="M939.079,-226.45C876.093,-219.359 794.756,-205.474 774.239,-180 764.203,-167.539 764.259,-156.506 774.239,-144 784.28,-131.42 867.78,-114.614 931.981,-103.329"/>
<polygon fill="black" stroke="black" points="932.854,-106.73 942.105,-101.567 931.653,-99.8339 932.854,-106.73"/>
</g>
<!-- __perf_close -->
<g id="node11" class="node"><title>__perf_close</title>
<ellipse fill="none" stroke="black" cx="838.239" cy="-90" rx="55.7903" ry="18"/>
<text text-anchor="middle" x="838.239" y="-86.3" font-family="Times,serif" font-size="14.00">__perf_close</text>
</g>
<!-- read_counters_mmio&#45;&gt;__perf_close -->
<g id="edge8" class="edge"><title>read_counters_mmio&#45;&gt;__perf_close</title>
<path fill="none" stroke="black" d="M937.53,-227.151C871.458,-220.449 784.976,-206.741 763.239,-180 753.147,-167.584 755.882,-158.208 763.239,-144 770.637,-129.715 783.854,-118.457 797.154,-110.059"/>
<polygon fill="black" stroke="black" points="798.997,-113.035 805.845,-104.951 795.451,-107 798.997,-113.035"/>
</g>
<!-- read_tsc_start -->
<g id="node12" class="node"><title>read_tsc_start</title>
<ellipse fill="none" stroke="black" cx="1295.24" cy="-162" rx="59.5901" ry="18"/>
<text text-anchor="middle" x="1295.24" y="-158.3" font-family="Times,serif" font-size="14.00">read_tsc_start</text>
</g>
<!-- read_counters_mmio&#45;&gt;read_tsc_start -->
<g id="edge10" class="edge"><title>read_counters_mmio&#45;&gt;read_tsc_start</title>
<path fill="none" stroke="black" d="M1069.86,-219.751C1118.75,-207.44 1191.27,-189.181 1240.75,-176.72"/>
<polygon fill="black" stroke="black" points="1241.79,-180.067 1250.63,-174.232 1240.08,-173.279 1241.79,-180.067"/>
</g>
<!-- read_u64_file -->
<g id="node13" class="node"><title>read_u64_file</title>
<ellipse fill="none" stroke="black" cx="1800.24" cy="-162" rx="59.5901" ry="18"/>
<text text-anchor="middle" x="1800.24" y="-158.3" font-family="Times,serif" font-size="14.00">read_u64_file</text>
</g>
<!-- read_counters_mmio&#45;&gt;read_u64_file -->
<g id="edge11" class="edge"><title>read_counters_mmio&#45;&gt;read_u64_file</title>
<path fill="none" stroke="black" d="M1097.34,-227.415C1277.3,-214.819 1700.38,-184.912 1731.24,-180 1736.57,-179.152 1742.09,-178.097 1747.59,-176.931"/>
<polygon fill="black" stroke="black" points="1748.41,-180.334 1757.4,-174.732 1746.88,-173.503 1748.41,-180.334"/>
</g>
<!-- read_tsc_end -->
<g id="node14" class="node"><title>read_tsc_end</title>
<ellipse fill="none" stroke="black" cx="1160.24" cy="-162" rx="57.3905" ry="18"/>
<text text-anchor="middle" x="1160.24" y="-158.3" font-family="Times,serif" font-size="14.00">read_tsc_end</text>
</g>
<!-- read_counters_mmio&#45;&gt;read_tsc_end -->
<g id="edge12" class="edge"><title>read_counters_mmio&#45;&gt;read_tsc_end</title>
<path fill="none" stroke="black" d="M1049.33,-217.291C1070.75,-206.804 1099.04,-192.957 1121.69,-181.873"/>
<polygon fill="black" stroke="black" points="1123.25,-185.004 1130.69,-177.464 1120.17,-178.717 1123.25,-185.004"/>
</g>
<!-- __perf_open -->
<g id="node15" class="node"><title>__perf_open</title>
<ellipse fill="none" stroke="black" cx="838.239" cy="-162" rx="55.4913" ry="18"/>
<text text-anchor="middle" x="838.239" y="-158.3" font-family="Times,serif" font-size="14.00">__perf_open</text>
</g>
<!-- read_counters_mmio&#45;&gt;__perf_open -->
<g id="edge14" class="edge"><title>read_counters_mmio&#45;&gt;__perf_open</title>
<path fill="none" stroke="black" d="M978.399,-217.811C949.946,-206.684 911.308,-191.574 881.805,-180.037"/>
<polygon fill="black" stroke="black" points="882.766,-176.654 872.178,-176.272 880.216,-183.174 882.766,-176.654"/>
</g>
<!-- __perf_open&#45;&gt;__perf_close -->
<g id="edge44" class="edge"><title>__perf_open&#45;&gt;__perf_close</title>
<path fill="none" stroke="black" d="M838.239,-143.697C838.239,-135.983 838.239,-126.712 838.239,-118.112"/>
<polygon fill="black" stroke="black" points="841.739,-118.104 838.239,-108.104 834.739,-118.104 841.739,-118.104"/>
</g>
<!-- init_sys_info -->
<g id="node16" class="node"><title>init_sys_info</title>
<ellipse fill="none" stroke="black" cx="2133.24" cy="-234" rx="56.59" ry="18"/>
<text text-anchor="middle" x="2133.24" y="-230.3" font-family="Times,serif" font-size="14.00">init_sys_info</text>
</g>
<!-- init_sys_info&#45;&gt;read_u64_file -->
<g id="edge16" class="edge"><title>init_sys_info&#45;&gt;read_u64_file</title>
<path fill="none" stroke="black" d="M2085.9,-224.138C2032.96,-214.08 1944.74,-196.872 1869.24,-180 1864.32,-178.902 1859.22,-177.721 1854.12,-176.513"/>
<polygon fill="black" stroke="black" points="1854.88,-173.098 1844.34,-174.169 1853.25,-179.905 1854.88,-173.098"/>
</g>
<!-- max_oa_exponent_for_period_lte -->
<g id="node17" class="node"><title>max_oa_exponent_for_period_lte</title>
<ellipse fill="none" stroke="black" cx="2350.24" cy="-162" rx="129.977" ry="18"/>
<text text-anchor="middle" x="2350.24" y="-158.3" font-family="Times,serif" font-size="14.00">max_oa_exponent_for_period_lte</text>
</g>
<!-- init_sys_info&#45;&gt;max_oa_exponent_for_period_lte -->
<g id="edge15" class="edge"><title>init_sys_info&#45;&gt;max_oa_exponent_for_period_lte</title>
<path fill="none" stroke="black" d="M2171.54,-220.647C2204.71,-209.946 2253.22,-194.296 2291.34,-182.001"/>
<polygon fill="black" stroke="black" points="2292.84,-185.193 2301.29,-178.792 2290.69,-178.531 2292.84,-185.193"/>
</g>
<!-- timebase_scale -->
<g id="node28" class="node"><title>timebase_scale</title>
<ellipse fill="none" stroke="black" cx="2350.24" cy="-90" rx="64.189" ry="18"/>
<text text-anchor="middle" x="2350.24" y="-86.3" font-family="Times,serif" font-size="14.00">timebase_scale</text>
</g>
<!-- max_oa_exponent_for_period_lte&#45;&gt;timebase_scale -->
<g id="edge37" class="edge"><title>max_oa_exponent_for_period_lte&#45;&gt;timebase_scale</title>
<path fill="none" stroke="black" d="M2350.24,-143.697C2350.24,-135.983 2350.24,-126.712 2350.24,-118.112"/>
<polygon fill="black" stroke="black" points="2353.74,-118.104 2350.24,-108.104 2346.74,-118.104 2353.74,-118.104"/>
</g>
<!-- measure_overheads -->
<g id="node18" class="node"><title>measure_overheads</title>
<ellipse fill="none" stroke="black" cx="1936.24" cy="-234" rx="80.6858" ry="18"/>
<text text-anchor="middle" x="1936.24" y="-230.3" font-family="Times,serif" font-size="14.00">measure_overheads</text>
</g>
<!-- measure_overheads&#45;&gt;read_tsc_start -->
<g id="edge22" class="edge"><title>measure_overheads&#45;&gt;read_tsc_start</title>
<path fill="none" stroke="black" d="M1857.9,-229.548C1747.09,-223.808 1538.55,-209.841 1363.24,-180 1358.2,-179.141 1352.97,-178.106 1347.77,-176.976"/>
<polygon fill="black" stroke="black" points="1348.36,-173.521 1337.83,-174.705 1346.8,-180.345 1348.36,-173.521"/>
</g>
<!-- measure_overheads&#45;&gt;read_tsc_end -->
<g id="edge19" class="edge"><title>measure_overheads&#45;&gt;read_tsc_end</title>
<path fill="none" stroke="black" d="M1856.1,-231.643C1724.01,-228.375 1452.63,-217.303 1226.24,-180 1221.26,-179.179 1216.11,-178.16 1210.98,-177.032"/>
<polygon fill="black" stroke="black" points="1211.73,-173.612 1201.19,-174.749 1210.14,-180.429 1211.73,-173.612"/>
</g>
<!-- median -->
<g id="node19" class="node"><title>median</title>
<ellipse fill="none" stroke="black" cx="1915.24" cy="-162" rx="37.0935" ry="18"/>
<text text-anchor="middle" x="1915.24" y="-158.3" font-family="Times,serif" font-size="14.00">median</text>
</g>
<!-- measure_overheads&#45;&gt;median -->
<g id="edge17" class="edge"><title>measure_overheads&#45;&gt;median</title>
<path fill="none" stroke="black" d="M1931.05,-215.697C1928.71,-207.898 1925.89,-198.509 1923.29,-189.829"/>
<polygon fill="black" stroke="black" points="1926.6,-188.677 1920.37,-180.104 1919.89,-190.688 1926.6,-188.677"/>
</g>
<!-- umin -->
<g id="node20" class="node"><title>umin</title>
<ellipse fill="none" stroke="black" cx="2173.24" cy="-162" rx="29.4969" ry="18"/>
<text text-anchor="middle" x="2173.24" y="-158.3" font-family="Times,serif" font-size="14.00">umin</text>
</g>
<!-- measure_overheads&#45;&gt;umin -->
<g id="edge18" class="edge"><title>measure_overheads&#45;&gt;umin</title>
<path fill="none" stroke="black" d="M1991.44,-220.816C2031.78,-211.304 2087.55,-196.894 2135.24,-180 2137.34,-179.255 2139.49,-178.442 2141.64,-177.589"/>
<polygon fill="black" stroke="black" points="2143.11,-180.77 2150.98,-173.674 2140.4,-174.315 2143.11,-180.77"/>
</g>
<!-- average -->
<g id="node21" class="node"><title>average</title>
<ellipse fill="none" stroke="black" cx="2008.24" cy="-162" rx="38.1938" ry="18"/>
<text text-anchor="middle" x="2008.24" y="-158.3" font-family="Times,serif" font-size="14.00">average</text>
</g>
<!-- measure_overheads&#45;&gt;average -->
<g id="edge20" class="edge"><title>measure_overheads&#45;&gt;average</title>
<path fill="none" stroke="black" d="M1953.67,-216.055C1962.95,-207.027 1974.51,-195.792 1984.6,-185.987"/>
<polygon fill="black" stroke="black" points="1987.23,-188.31 1991.96,-178.829 1982.35,-183.291 1987.23,-188.31"/>
</g>
<!-- umax -->
<g id="node22" class="node"><title>umax</title>
<ellipse fill="none" stroke="black" cx="2095.24" cy="-162" rx="30.5947" ry="18"/>
<text text-anchor="middle" x="2095.24" y="-158.3" font-family="Times,serif" font-size="14.00">umax</text>
</g>
<!-- measure_overheads&#45;&gt;umax -->
<g id="edge21" class="edge"><title>measure_overheads&#45;&gt;umax</title>
<path fill="none" stroke="black" d="M1971.13,-217.638C1998.16,-205.738 2035.36,-189.36 2061.97,-177.645"/>
<polygon fill="black" stroke="black" points="2063.52,-180.789 2071.26,-173.557 2060.7,-174.383 2063.52,-180.789"/>
</g>
<!-- read_counters_rpc -->
<g id="node23" class="node"><title>read_counters_rpc</title>
<ellipse fill="none" stroke="black" cx="1354.24" cy="-234" rx="75.2868" ry="18"/>
<text text-anchor="middle" x="1354.24" y="-230.3" font-family="Times,serif" font-size="14.00">read_counters_rpc</text>
</g>
<!-- read_counters_rpc&#45;&gt;emit_report_perf_count -->
<g id="edge30" class="edge"><title>read_counters_rpc&#45;&gt;emit_report_perf_count</title>
<path fill="none" stroke="black" d="M1283.85,-227.503C1235.58,-223.869 1170.06,-219.202 1112.24,-216 717.853,-194.158 617.206,-219.934 224.239,-180 215.15,-179.076 205.649,-177.866 196.244,-176.516"/>
<polygon fill="black" stroke="black" points="196.506,-173.017 186.099,-175.004 195.473,-179.94 196.506,-173.017"/>
</g>
<!-- read_counters_rpc&#45;&gt;scratch_buf_init -->
<g id="edge23" class="edge"><title>read_counters_rpc&#45;&gt;scratch_buf_init</title>
<path fill="none" stroke="black" d="M1298.4,-221.888C1245.71,-211.34 1164.54,-194.924 1094.24,-180 1088.8,-178.845 1083.15,-177.629 1077.49,-176.399"/>
<polygon fill="black" stroke="black" points="1077.85,-172.896 1067.33,-174.183 1076.36,-179.735 1077.85,-172.896"/>
</g>
<!-- read_counters_rpc&#45;&gt;scratch_buf_memset -->
<g id="edge31" class="edge"><title>read_counters_rpc&#45;&gt;scratch_buf_memset</title>
<path fill="none" stroke="black" d="M1407.11,-221.073C1429.03,-213.242 1452.31,-200.501 1465.24,-180 1473.77,-166.467 1475.98,-155.856 1465.24,-144 1437.87,-113.803 1140.6,-113.669 1100.24,-108 1092.7,-106.94 1084.83,-105.706 1077.01,-104.396"/>
<polygon fill="black" stroke="black" points="1077.6,-100.946 1067.15,-102.703 1076.42,-107.845 1077.6,-100.946"/>
</g>
<!-- read_counters_rpc&#45;&gt;__perf_close -->
<g id="edge24" class="edge"><title>read_counters_rpc&#45;&gt;__perf_close</title>
<path fill="none" stroke="black" d="M1281.59,-229.123C1179.4,-222.754 999.082,-207.907 940.239,-180 919.219,-170.031 919.652,-159.428 902.239,-144 890.596,-133.684 877.407,-122.656 866.039,-113.345"/>
<polygon fill="black" stroke="black" points="868.096,-110.506 858.132,-106.904 863.675,-115.933 868.096,-110.506"/>
</g>
<!-- read_counters_rpc&#45;&gt;read_tsc_start -->
<g id="edge28" class="edge"><title>read_counters_rpc&#45;&gt;read_tsc_start</title>
<path fill="none" stroke="black" d="M1339.96,-216.055C1332.78,-207.543 1323.95,-197.068 1316.04,-187.681"/>
<polygon fill="black" stroke="black" points="1318.51,-185.18 1309.39,-179.789 1313.16,-189.691 1318.51,-185.18"/>
</g>
<!-- read_counters_rpc&#45;&gt;read_u64_file -->
<g id="edge27" class="edge"><title>read_counters_rpc&#45;&gt;read_u64_file</title>
<path fill="none" stroke="black" d="M1421.32,-225.662C1496.97,-216.901 1623.51,-200.788 1731.24,-180 1736.26,-179.031 1741.46,-177.931 1746.66,-176.767"/>
<polygon fill="black" stroke="black" points="1747.63,-180.133 1756.59,-174.467 1746.05,-173.314 1747.63,-180.133"/>
</g>
<!-- read_counters_rpc&#45;&gt;read_tsc_end -->
<g id="edge26" class="edge"><title>read_counters_rpc&#45;&gt;read_tsc_end</title>
<path fill="none" stroke="black" d="M1314.51,-218.666C1282.93,-207.271 1238.73,-191.323 1205.74,-179.416"/>
<polygon fill="black" stroke="black" points="1206.91,-176.119 1196.31,-176.017 1204.53,-182.703 1206.91,-176.119"/>
</g>
<!-- read_counters_rpc&#45;&gt;__perf_open -->
<g id="edge29" class="edge"><title>read_counters_rpc&#45;&gt;__perf_open</title>
<path fill="none" stroke="black" d="M1283.77,-227.356C1195.36,-219.653 1039.29,-204.002 907.239,-180 901.485,-178.954 895.496,-177.713 889.556,-176.384"/>
<polygon fill="black" stroke="black" points="890.189,-172.938 879.656,-174.084 888.605,-179.756 890.189,-172.938"/>
</g>
<!-- read_counters_rpc&#45;&gt;median -->
<g id="edge25" class="edge"><title>read_counters_rpc&#45;&gt;median</title>
<path fill="none" stroke="black" d="M1428.97,-231.179C1530.04,-227.392 1715.37,-215.748 1869.24,-180 1872.21,-179.309 1875.25,-178.479 1878.29,-177.561"/>
<polygon fill="black" stroke="black" points="1879.46,-180.861 1887.85,-174.398 1877.26,-174.215 1879.46,-180.861"/>
</g>
<!-- serialize -->
<g id="node24" class="node"><title>serialize</title>
<ellipse fill="none" stroke="black" cx="1682.24" cy="-162" rx="40.0939" ry="18"/>
<text text-anchor="middle" x="1682.24" y="-158.3" font-family="Times,serif" font-size="14.00">serialize</text>
</g>
<!-- read_counters_rpc&#45;&gt;serialize -->
<g id="edge32" class="edge"><title>read_counters_rpc&#45;&gt;serialize</title>
<path fill="none" stroke="black" d="M1416.6,-223.833C1473.54,-214.832 1559.76,-199.613 1633.24,-180 1636.37,-179.164 1639.59,-178.227 1642.81,-177.234"/>
<polygon fill="black" stroke="black" points="1643.96,-180.542 1652.39,-174.131 1641.8,-173.882 1643.96,-180.542"/>
</g>
<!-- umedian -->
<g id="node25" class="node"><title>umedian</title>
<ellipse fill="none" stroke="black" cx="1414.24" cy="-162" rx="41.6928" ry="18"/>
<text text-anchor="middle" x="1414.24" y="-158.3" font-family="Times,serif" font-size="14.00">umedian</text>
</g>
<!-- read_counters_rpc&#45;&gt;umedian -->
<g id="edge33" class="edge"><title>read_counters_rpc&#45;&gt;umedian</title>
<path fill="none" stroke="black" d="M1368.76,-216.055C1376.24,-207.33 1385.49,-196.544 1393.68,-186.981"/>
<polygon fill="black" stroke="black" points="1396.41,-189.177 1400.26,-179.307 1391.1,-184.622 1396.41,-189.177"/>
</g>
<!-- print_reports -->
<g id="node26" class="node"><title>print_reports</title>
<ellipse fill="none" stroke="black" cx="1568.24" cy="-162" rx="55.7903" ry="18"/>
<text text-anchor="middle" x="1568.24" y="-158.3" font-family="Times,serif" font-size="14.00">print_reports</text>
</g>
<!-- read_counters_rpc&#45;&gt;print_reports -->
<g id="edge34" class="edge"><title>read_counters_rpc&#45;&gt;print_reports</title>
<path fill="none" stroke="black" d="M1396.77,-219.087C1432.58,-207.374 1483.74,-190.64 1520.85,-178.501"/>
<polygon fill="black" stroke="black" points="1522.03,-181.799 1530.44,-175.364 1519.85,-175.146 1522.03,-181.799"/>
</g>
<!-- print_reports&#45;&gt;get_oa_format -->
<g id="edge47" class="edge"><title>print_reports&#45;&gt;get_oa_format</title>
<path fill="none" stroke="black" d="M1525.26,-150.46C1469.74,-136.67 1379.53,-113.598 1374.24,-108 1358.76,-91.6269 1354.63,-65.8808 1354.01,-46.2832"/>
<polygon fill="black" stroke="black" points="1357.51,-46.1148 1353.98,-36.1268 1350.51,-46.1388 1357.51,-46.1148"/>
</g>
<!-- gen8_read_40bit_a_counter -->
<g id="node29" class="node"><title>gen8_read_40bit_a_counter</title>
<ellipse fill="none" stroke="black" cx="1218.24" cy="-90" rx="108.581" ry="18"/>
<text text-anchor="middle" x="1218.24" y="-86.3" font-family="Times,serif" font-size="14.00">gen8_read_40bit_a_counter</text>
</g>
<!-- print_reports&#45;&gt;gen8_read_40bit_a_counter -->
<g id="edge46" class="edge"><title>print_reports&#45;&gt;gen8_read_40bit_a_counter</title>
<path fill="none" stroke="black" d="M1525.38,-150.223C1516.43,-148.077 1507.04,-145.9 1498.24,-144 1431.75,-129.643 1355.91,-115.419 1299.95,-105.327"/>
<polygon fill="black" stroke="black" points="1300.55,-101.879 1290.09,-103.555 1299.31,-108.769 1300.55,-101.879"/>
</g>
<!-- gen8_read_report_clock_ratios -->
<g id="node32" class="node"><title>gen8_read_report_clock_ratios</title>
<ellipse fill="none" stroke="black" cx="1703.24" cy="-90" rx="120.479" ry="18"/>
<text text-anchor="middle" x="1703.24" y="-86.3" font-family="Times,serif" font-size="14.00">gen8_read_report_clock_ratios</text>
</g>
<!-- print_reports&#45;&gt;gen8_read_report_clock_ratios -->
<g id="edge45" class="edge"><title>print_reports&#45;&gt;gen8_read_report_clock_ratios</title>
<path fill="none" stroke="black" d="M1596.54,-146.326C1615.67,-136.408 1641.22,-123.157 1662.53,-112.111"/>
<polygon fill="black" stroke="black" points="1664.4,-115.079 1671.67,-107.369 1661.18,-108.865 1664.4,-115.079"/>
</g>
<!-- gen8_read_report_reason -->
<g id="node33" class="node"><title>gen8_read_report_reason</title>
<ellipse fill="none" stroke="black" cx="1941.24" cy="-90" rx="100.182" ry="18"/>
<text text-anchor="middle" x="1941.24" y="-86.3" font-family="Times,serif" font-size="14.00">gen8_read_report_reason</text>
</g>
<!-- print_reports&#45;&gt;gen8_read_report_reason -->
<g id="edge48" class="edge"><title>print_reports&#45;&gt;gen8_read_report_reason</title>
<path fill="none" stroke="black" d="M1609.37,-149.675C1617.27,-147.663 1625.49,-145.678 1633.24,-144 1675.24,-134.912 1783.17,-116.781 1859.37,-104.276"/>
<polygon fill="black" stroke="black" points="1860.13,-107.699 1869.43,-102.627 1859,-100.791 1860.13,-107.699"/>
</g>
<!-- gen8_40bit_a_delta -->
<g id="node34" class="node"><title>gen8_40bit_a_delta</title>
<ellipse fill="none" stroke="black" cx="2139.24" cy="-90" rx="79.8859" ry="18"/>
<text text-anchor="middle" x="2139.24" y="-86.3" font-family="Times,serif" font-size="14.00">gen8_40bit_a_delta</text>
</g>
<!-- print_reports&#45;&gt;gen8_40bit_a_delta -->
<g id="edge49" class="edge"><title>print_reports&#45;&gt;gen8_40bit_a_delta</title>
<path fill="none" stroke="black" d="M1608.23,-149.405C1616.44,-147.344 1625.08,-145.409 1633.24,-144 1816.55,-112.352 1865.97,-133.484 2050.24,-108 2057.42,-107.007 2064.89,-105.822 2072.33,-104.544"/>
<polygon fill="black" stroke="black" points="2073.17,-107.949 2082.41,-102.755 2071.95,-101.056 2073.17,-107.949"/>
</g>
<!-- send_mi_store_reg_mem -->
<g id="node27" class="node"><title>send_mi_store_reg_mem</title>
<ellipse fill="none" stroke="black" cx="550.239" cy="-162" rx="100.983" ry="18"/>
<text text-anchor="middle" x="550.239" y="-158.3" font-family="Times,serif" font-size="14.00">send_mi_store_reg_mem</text>
</g>
<!-- send_mi_store_reg_mem&#45;&gt;intel_batchbuffer_emit_dword -->
<g id="edge36" class="edge"><title>send_mi_store_reg_mem&#45;&gt;intel_batchbuffer_emit_dword</title>
<path fill="none" stroke="black" d="M529.663,-144.055C518.805,-135.113 505.317,-124.005 493.493,-114.268"/>
<polygon fill="black" stroke="black" points="495.57,-111.444 485.626,-107.789 491.12,-116.848 495.57,-111.444"/>
</g>
<!-- send_mi_store_reg_mem&#45;&gt;intel_batchbuffer_require_space -->
<g id="edge35" class="edge"><title>send_mi_store_reg_mem&#45;&gt;intel_batchbuffer_require_space</title>
<path fill="none" stroke="black" d="M486.156,-147.998C429.118,-136.425 345.484,-119.455 284.305,-107.042"/>
<polygon fill="black" stroke="black" points="284.802,-103.572 274.305,-105.013 283.41,-110.432 284.802,-103.572"/>
</g>
<!-- gen8_read_40bit_a_counter&#45;&gt;get_oa_format -->
<g id="edge38" class="edge"><title>gen8_read_40bit_a_counter&#45;&gt;get_oa_format</title>
<path fill="none" stroke="black" d="M1250.01,-72.7646C1269.98,-62.5619 1295.86,-49.3388 1316.96,-38.5595"/>
<polygon fill="black" stroke="black" points="1318.66,-41.6191 1325.98,-33.9523 1315.48,-35.3856 1318.66,-41.6191"/>
</g>
<!-- max_oa_exponent_for_freq_gt -->
<g id="node30" class="node"><title>max_oa_exponent_for_freq_gt</title>
<ellipse fill="none" stroke="black" cx="2350.24" cy="-234" rx="120.479" ry="18"/>
<text text-anchor="middle" x="2350.24" y="-230.3" font-family="Times,serif" font-size="14.00">max_oa_exponent_for_freq_gt</text>
</g>
<!-- max_oa_exponent_for_freq_gt&#45;&gt;max_oa_exponent_for_period_lte -->
<g id="edge39" class="edge"><title>max_oa_exponent_for_freq_gt&#45;&gt;max_oa_exponent_for_period_lte</title>
<path fill="none" stroke="black" d="M2350.24,-215.697C2350.24,-207.983 2350.24,-198.712 2350.24,-190.112"/>
<polygon fill="black" stroke="black" points="2353.74,-190.104 2350.24,-180.104 2346.74,-190.104 2353.74,-190.104"/>
</g>
<!-- send_mi_load_reg_mem -->
<g id="node31" class="node"><title>send_mi_load_reg_mem</title>
<ellipse fill="none" stroke="black" cx="332.239" cy="-162" rx="98.5829" ry="18"/>
<text text-anchor="middle" x="332.239" y="-158.3" font-family="Times,serif" font-size="14.00">send_mi_load_reg_mem</text>
</g>
<!-- send_mi_load_reg_mem&#45;&gt;intel_batchbuffer_emit_dword -->
<g id="edge40" class="edge"><title>send_mi_load_reg_mem&#45;&gt;intel_batchbuffer_emit_dword</title>
<path fill="none" stroke="black" d="M363.086,-144.765C381.586,-135.028 405.312,-122.541 425.242,-112.051"/>
<polygon fill="black" stroke="black" points="426.88,-115.145 434.099,-107.39 423.619,-108.95 426.88,-115.145"/>
</g>
<!-- send_mi_load_reg_mem&#45;&gt;intel_batchbuffer_require_space -->
<g id="edge41" class="edge"><title>send_mi_load_reg_mem&#45;&gt;intel_batchbuffer_require_space</title>
<path fill="none" stroke="black" d="M302.784,-144.765C285.404,-135.185 263.193,-122.943 244.357,-112.561"/>
<polygon fill="black" stroke="black" points="245.864,-109.395 235.417,-107.633 242.485,-115.526 245.864,-109.395"/>
</g>
<!-- i915_perf_add_config -->
<g id="node35" class="node"><title>i915_perf_add_config</title>
<ellipse fill="none" stroke="black" cx="2595.24" cy="-234" rx="89.0842" ry="18"/>
<text text-anchor="middle" x="2595.24" y="-230.3" font-family="Times,serif" font-size="14.00">i915_perf_add_config</text>
</g>
<!-- __i915_perf_add_config -->
<g id="node36" class="node"><title>__i915_perf_add_config</title>
<ellipse fill="none" stroke="black" cx="2595.24" cy="-162" rx="97.4827" ry="18"/>
<text text-anchor="middle" x="2595.24" y="-158.3" font-family="Times,serif" font-size="14.00">__i915_perf_add_config</text>
</g>
<!-- i915_perf_add_config&#45;&gt;__i915_perf_add_config -->
<g id="edge50" class="edge"><title>i915_perf_add_config&#45;&gt;__i915_perf_add_config</title>
<path fill="none" stroke="black" d="M2595.24,-215.697C2595.24,-207.983 2595.24,-198.712 2595.24,-190.112"/>
<polygon fill="black" stroke="black" points="2598.74,-190.104 2595.24,-180.104 2591.74,-190.104 2598.74,-190.104"/>
</g>
<!-- create_filtering_word -->
<g id="node37" class="node"><title>create_filtering_word</title>
<ellipse fill="none" stroke="black" cx="2789.24" cy="-234" rx="87.1846" ry="18"/>
<text text-anchor="middle" x="2789.24" y="-230.3" font-family="Times,serif" font-size="14.00">create_filtering_word</text>
</g>
<!-- print_binary -->
<g id="node38" class="node"><title>print_binary</title>
<ellipse fill="none" stroke="black" cx="2948.24" cy="-234" rx="53.8905" ry="18"/>
<text text-anchor="middle" x="2948.24" y="-230.3" font-family="Times,serif" font-size="14.00">print_binary</text>
</g>
<!-- oa_report_is_periodic -->
<g id="node39" class="node"><title>oa_report_is_periodic</title>
<ellipse fill="none" stroke="black" cx="3108.24" cy="-234" rx="87.9851" ry="18"/>
<text text-anchor="middle" x="3108.24" y="-230.3" font-family="Times,serif" font-size="14.00">oa_report_is_periodic</text>
</g>
<!-- oa_exponent_to_ns -->
<g id="node40" class="node"><title>oa_exponent_to_ns</title>
<ellipse fill="none" stroke="black" cx="3293.24" cy="-234" rx="79.0865" ry="18"/>
<text text-anchor="middle" x="3293.24" y="-230.3" font-family="Times,serif" font-size="14.00">oa_exponent_to_ns</text>
</g>
<!-- write_u64_file -->
<g id="node41" class="node"><title>write_u64_file</title>
<ellipse fill="none" stroke="black" cx="3453.24" cy="-234" rx="62.2891" ry="18"/>
<text text-anchor="middle" x="3453.24" y="-230.3" font-family="Times,serif" font-size="14.00">write_u64_file</text>
</g>
<!-- print_report_card -->
<g id="node42" class="node"><title>print_report_card</title>
<ellipse fill="none" stroke="black" cx="3606.24" cy="-234" rx="72.2875" ry="18"/>
<text text-anchor="middle" x="3606.24" y="-230.3" font-family="Times,serif" font-size="14.00">print_report_card</text>
</g>
<!-- gen8_read_report_ticks -->
<g id="node43" class="node"><title>gen8_read_report_ticks</title>
<ellipse fill="none" stroke="black" cx="3790.24" cy="-234" rx="93.6835" ry="18"/>
<text text-anchor="middle" x="3790.24" y="-230.3" font-family="Times,serif" font-size="14.00">gen8_read_report_ticks</text>
</g>
<!-- fmedian -->
<g id="node44" class="node"><title>fmedian</title>
<ellipse fill="none" stroke="black" cx="3942.24" cy="-234" rx="40.0939" ry="18"/>
<text text-anchor="middle" x="3942.24" y="-230.3" font-family="Times,serif" font-size="14.00">fmedian</text>
</g>
<!-- profile_through_opencl -->
<g id="node45" class="node"><title>profile_through_opencl</title>
<ellipse fill="none" stroke="black" cx="4094.24" cy="-234" rx="93.6835" ry="18"/>
<text text-anchor="middle" x="4094.24" y="-230.3" font-family="Times,serif" font-size="14.00">profile_through_opencl</text>
</g>
<!-- read_i915_module_ref -->
<g id="node46" class="node"><title>read_i915_module_ref</title>
<ellipse fill="none" stroke="black" cx="4297.24" cy="-234" rx="90.9839" ry="18"/>
<text text-anchor="middle" x="4297.24" y="-230.3" font-family="Times,serif" font-size="14.00">read_i915_module_ref</text>
</g>
<!-- i915_perf_remove_config -->
<g id="node47" class="node"><title>i915_perf_remove_config</title>
<ellipse fill="none" stroke="black" cx="4509.24" cy="-234" rx="102.882" ry="18"/>
<text text-anchor="middle" x="4509.24" y="-230.3" font-family="Times,serif" font-size="14.00">i915_perf_remove_config</text>
</g>
</g>
</svg>
